<?xml version="1.0" encoding="UTF-8"?>
<svg width="82px" height="82px" viewBox="0 0 82 82" version="1.1" xmlns="http://www.w3.org/2000/svg" xmlns:xlink="http://www.w3.org/1999/xlink">
    <title>Atoms / Icons / Account</title>
    <g id="STYLEGUIDE" stroke="none" stroke-width="1" fill="none" fill-rule="evenodd">
        <g id="Styleguide" transform="translate(-1065.000000, -932.000000)" fill="#363A5B">
            <g id="Combined-Shape" transform="translate(1056.000000, 923.000000)">
                <path d="M33.4266887,12.3717007 C45.9966887,6.90300068 60.4736887,8.14520068 71.9306887,15.6725007 C83.3834887,23.1955007 90.2741287,35.9885007 90.2506887,49.6955007 L90.2506887,49.6955007 C90.2322887,60.9607007 85.5371887,71.7147007 77.2832887,79.3827007 C76.9472887,79.9686407 76.4316787,80.4256707 75.8144887,80.6952007 C68.5014887,86.9100007 59.2204887,90.3202017 49.6264887,90.3202017 C40.0324887,90.3202017 30.7509887,86.9100007 23.4384887,80.6952007 C22.8212487,80.4257007 22.3056287,79.9686407 21.9696887,79.3827007 C11.9303887,70.0507007 7.27018775,56.2897007 9.58268775,42.7777007 C11.8916887,29.2697007 20.8606887,17.8365007 33.4266887,12.3717007 Z M49.6256887,59.0707007 C37.5631887,59.0707007 27.7506887,66.2579007 27.7506887,75.1017007 L27.7506887,75.1017007 L27.7506887,76.1955007 C33.9066887,81.2737007 41.6416887,84.0549007 49.6256887,84.0549007 C57.6096887,84.0549007 65.3444887,81.2736007 71.5006887,76.1955007 L71.5006887,76.1955007 L71.5006887,75.1017007 C71.5006887,66.2582007 61.6881887,59.0707007 49.6256887,59.0707007 Z M60.4896887,16.9688007 C49.9896887,13.4688007 38.4464887,15.2422007 29.4776887,21.7305007 C20.5084887,28.2185007 15.2155287,38.6255007 15.2504887,49.6955007 L15.2504887,49.6955007 L15.2553313,50.252251 C15.3773602,57.4936856 17.8004887,64.5149482 22.1879887,70.2888007 C24.9379887,60.3198007 36.1879887,52.8198007 49.6259887,52.8198007 C63.0639887,52.8198007 74.3139887,60.3200007 77.0639887,70.2888007 C83.7318887,61.4528007 85.7358887,49.9488007 82.4506887,39.3788007 C79.1656887,28.8088007 70.9936887,20.4688007 60.4896887,16.9688007 Z M49.6256887,18.4453007 C53.7703887,18.4453007 57.7429887,20.0898007 60.6726887,23.0234007 C63.6062887,25.9532007 65.2507887,29.9257007 65.2507887,34.0704007 C65.2507887,38.2151007 63.6062887,42.1877007 60.6726887,45.1174007 C57.7428887,48.0510007 53.7701887,49.6955007 49.6256887,49.6955007 C45.4809887,49.6955007 41.5083887,48.0510007 38.5786887,45.1174007 C35.6450887,42.1876007 34.0005887,38.2151007 34.0005887,34.0704007 C34.0005887,29.9257007 35.6450887,25.9531007 38.5786887,23.0234007 C41.5084887,20.0898007 45.4809887,18.4453007 49.6256887,18.4453007 Z M49.6255887,24.6955007 C44.4497887,24.6955007 40.2505887,28.8948007 40.2505887,34.0706007 C40.2505887,37.8636007 42.5357887,41.2816007 46.0396887,42.7308007 C49.5398887,44.1840007 53.5749887,43.3793007 56.2546887,40.6996007 C58.9343287,38.0198007 59.7389887,33.9846007 58.2858887,30.4846007 C56.8365887,26.9807007 53.4186887,24.6955007 49.6256887,24.6955007 Z"></path>
            </g>
        </g>
    </g>
</svg>