<?xml version="1.0" encoding="UTF-8"?>
<svg width="85px" height="80px" viewBox="0 0 85 80" version="1.1" xmlns="http://www.w3.org/2000/svg" xmlns:xlink="http://www.w3.org/1999/xlink">
    <title>Atoms / Icons / Amélioration</title>
    <g id="STYLEGUIDE" stroke="none" stroke-width="1" fill="none" fill-rule="evenodd">
        <g id="Styleguide" transform="translate(-306.000000, -1068.000000)" fill="#2C3054">
            <g id="Combined-Shape" transform="translate(306.000000, 1058.000000)">
                <path d="M18.2657852,14.6440692 C18.9927939,15.8072832 19.4147442,16.4795627 19.7786095,17.060565 L19.8723756,17.210323 L19.9185749,17.2841418 L19.9185749,17.2841418 L20.0102151,17.4306444 C20.0406744,17.4793578 20.0711005,17.528038 20.1016558,17.5769477 L20.1938714,17.7246281 C20.9846034,18.9915867 21.965317,20.5793663 25.837293,26.8592342 L26.0553944,27.2129708 L26.0553944,14.1130367 C26.0553944,13.1040992 26.6933811,12.4156427 27.6677677,12.3493193 L27.8243698,12.3440613 L65.5276761,12.3440613 C65.838362,12.3440613 66.283789,12.4787374 66.6281999,12.7503151 L66.7689327,12.8750938 L84.4689675,30.5750437 C84.7846378,30.8907366 84.9586977,31.3453948 84.9934805,31.8154936 L85,31.9922632 L85,87.7506721 C85,88.7596096 84.3620133,89.4480662 83.3876267,89.5143895 L83.2310246,89.5196475 L27.8243698,89.5196475 C26.8154323,89.5196475 26.1269758,88.8816609 26.0606525,87.9072742 L26.0553944,87.7506721 L26.0553944,64.5611226 C24.8906632,62.6975526 20.4898479,55.5886488 15.7071989,47.866017 L15.1934411,47.0364547 C15.0217882,46.7592918 14.8497782,46.4815571 14.6775413,46.2034615 L14.0170712,45.1370893 C13.6712971,44.578831 13.3252781,44.0202056 12.9800596,43.4629092 L12.462963,42.6281733 C7.3866521,34.4339091 2.59820545,26.7133066 1.45202142,24.9095643 C-1.38241756,20.3095485 0.0348021904,14.2889147 4.81409428,11.4578743 C9.4141109,8.62683392 15.4347448,10.0406548 18.2657852,14.6440692 Z M63.7587347,15.8820121 L29.5967778,15.8820121 L29.5934557,32.8750516 L43.9313327,56.0646028 C44.0906444,56.2209388 44.2473311,56.6579108 44.2801836,57.0025041 L44.2864618,57.1266678 L46.5930969,75.7128047 C46.5930969,76.4197151 46.2379424,77.1266511 45.7069099,77.4817801 C45.05124,77.8095915 44.398466,77.8348078 43.8842475,77.5574289 L43.758658,77.4817801 L29.5966589,68.2783499 L29.5966589,85.9783007 L81.4586846,85.9816194 L81.4586846,33.5852841 L69.600092,33.581962 C66.4863106,33.581962 63.8796982,31.0461173 63.7628242,27.9569974 L63.7587347,27.7406047 L63.7587347,15.8820121 Z M76.6792733,72.1714553 C77.5654348,72.1714553 78.2723707,72.8816793 78.2723707,73.9404307 C78.2723707,74.9493682 77.634384,75.6378247 76.6599974,75.704148 L76.5033953,75.7094061 L51.1897141,75.7094061 C50.1276746,75.7094061 49.4207387,75.0024701 49.4207387,73.9404307 C49.4207387,72.9314932 50.0587254,72.2430366 51.033112,72.1767133 L51.1897141,72.1714553 L76.6792733,72.1714553 Z M41.1034955,60.3128627 L32.2518213,65.7990655 L42.5173164,72.5266098 L41.1034955,60.3128627 Z M64.8934346,41.2770874 L64.967835,41.4122948 L68.097,47.755 L75.097836,48.7734682 C76.3474893,48.9548434 76.8979877,50.3968829 76.184223,51.3588949 L76.0996843,51.4637213 L76.004568,51.5640662 L70.938,56.5 L72.1355173,63.4734665 C72.3487476,64.721349 71.1417714,65.6919124 70.0033089,65.3031522 L69.8816607,65.2562486 L69.7609439,65.1986462 L63.499,61.906 L57.238766,65.1988051 C56.1179698,65.787126 54.8220681,64.938983 54.8400502,63.7359398 L54.8470723,63.6057336 L54.8645566,63.4731069 L56.061,56.5 L50.9954248,51.5640473 C50.0912546,50.682731 50.4932287,49.1924132 51.6361044,48.8338347 L51.7661108,48.7987384 L51.9020429,48.7734875 L58.902,47.755 L62.0323179,41.4120103 C62.6102768,40.2427682 64.2349309,40.1977973 64.8934346,41.2770874 Z M17.5587897,20.3094636 C11.3095056,24.1724182 9.94752981,25.0452306 8.97686591,25.6896367 L8.86634701,25.7631348 C8.84813136,25.7752679 8.82999647,25.7873558 8.81191038,25.7994182 L8.6495895,25.9078202 C8.57726495,25.9561637 8.50418622,26.0050412 8.42830689,26.0557099 L8.31213162,26.1332134 C8.01296354,26.332582 7.6592234,26.5664826 7.14057828,26.9026889 L6.93814094,27.0336942 L29.4173823,63.1439031 C31.6380796,61.7788346 37.1601062,58.430434 39.7698442,56.7672212 L40.038032,56.5956353 L17.5587897,20.3094636 Z M63.499,45.834 L61.4558563,49.9748594 C61.2418508,50.4097838 60.8476559,50.7243323 60.3815865,50.839949 L60.2237166,50.8710122 L55.653,51.534 L58.9598481,54.7581071 C59.3074521,55.0960533 59.4845658,55.5684041 59.4504113,56.0470963 L59.4311458,56.2067195 L58.65,60.758 L62.7379571,58.6106414 C63.1668013,58.3837637 63.6725065,58.3610759 64.1158666,58.5421265 L64.2611532,58.6100219 L68.35,60.759 L67.5686235,56.2062552 C67.4870978,55.7281444 67.6212978,55.2417739 67.9301447,54.8759055 L68.0395057,54.758589 L71.346,51.534 L66.7755204,50.870923 C66.295381,50.8005586 65.8745817,50.5224638 65.6220675,50.1156887 L65.5442784,49.9754394 L63.499,45.834 Z M67.2999652,18.3612966 L67.2999652,27.7440033 C67.2999652,28.9303653 68.2753686,29.9552004 69.4462103,30.0385437 L69.599973,30.0440112 L78.9826798,30.0440112 L67.2999652,18.3612966 Z M6.58298642,14.4681912 C3.64588771,16.1960277 2.73221586,19.9503461 4.33971519,22.9291723 L4.458831,23.1405889 L5.16576693,24.0267759 C7.38646338,22.6617075 12.7445324,19.3133068 15.5012668,17.650094 L15.7864157,17.4785082 L15.2553832,16.5923212 C13.4864078,13.5820042 9.59330251,12.6992158 6.58298642,14.4681912 Z"></path>
            </g>
        </g>
    </g>
</svg>