<svg id="Layer_1" data-name="Layer 1" xmlns="http://www.w3.org/2000/svg" viewBox="0 0 125.23 103.4">
  <title>Artboard 27</title>
  <g>
    <path d="M123.915,63.7l-13.6-9.1a34.489,34.489,0,0,0,6.6-24.7c-1-8.1-5.5-19.8-21.5-29.5a2.934,2.934,0,0,0-1.6-.4,2.99,2.99,0,0,0-2.3,1.1,3.024,3.024,0,0,0,.1,3.9c14.4,15.4,12.5,23.5,11.6,25.6a6.12,6.12,0,0,1-5.9,3.6,8.815,8.815,0,0,1-4.9-1.5,13.831,13.831,0,0,1-2.4-2.7c-3.2-4.2-8.1-10.4-20.2-10.4a47.589,47.589,0,0,0-7.2.6,46.573,46.573,0,0,0-7.2-.6c-12.2,0-17,6.3-20.2,10.4a11.2,11.2,0,0,1-2.4,2.7,8.815,8.815,0,0,1-4.9,1.5,6.275,6.275,0,0,1-5.9-3.6c-.9-2.1-2.8-10.2,11.6-25.6a2.912,2.912,0,0,0,.1-3.9,3.108,3.108,0,0,0-3.9-.7c-15.9,9.7-20.5,21.4-21.5,29.5a34.632,34.632,0,0,0,6.6,24.7l-13.6,9.1A2.772,2.772,0,0,0,.015,66a3.108,3.108,0,0,0,1,2.5c.4.4,10.4,8.9,22.6,8.9a28.44,28.44,0,0,0,7.2-1c6,16.9,17.7,27,31.8,27s25.8-10,31.8-27a24.568,24.568,0,0,0,7.2,1h0c12.2,0,22.2-8.5,22.6-8.9a2.877,2.877,0,0,0,1-2.5A2.911,2.911,0,0,0,123.915,63.7Z" fill="#2d2413"/>
    <g>
      <g>
        <g>
          <path d="M44.015,56.8l-16.1-7.1L3.115,66.3s17,14.8,32.6,4.5Z" fill="#8d6361"/>
          <path d="M41.215,59.7l-12.7-4.5-16.2,12.9s6.7,7,25.4-2.5Z" fill="#d09ec8"/>
        </g>
        <g>
          <path d="M81.315,56.8l16.1-7.1,24.8,16.6s-17,14.8-32.6,4.5Z" fill="#8d6361"/>
          <path d="M84.115,59.7l12.7-4.5,16.2,12.9s-6.7,7-25.4-2.5Z" fill="#d09ec8"/>
        </g>
      </g>
      <path d="M95.115,55.6c0,18.5-10.4,44.7-32.5,44.7-22,0-32.5-26.2-32.5-44.7s21.7-27.9,32.6-27.9C73.715,27.7,95.115,37.1,95.115,55.6Z" fill="#8d6361"/>
      <path d="M72.215,69.6s3.3,14.3,2.6,17.5c-.7,2.8-4.9-.3-12.3-.3-8.1,0-11.7,3.5-12.1.3-.4-3.1,2.3-17.5,2.3-17.5s3.1-17.2,9.7-17.2C69.215,52.4,72.215,69.6,72.215,69.6Z" fill="#3a3337"/>
      <path d="M50.415,87.9c0,6.8,2.8,8.3,12.2,8.3s12.2-1.6,12.2-8.3-5.5-9.8-12.2-9.8C55.915,78,50.415,81.1,50.415,87.9Z" fill="#261a18"/>
      <g>
        <path d="M58.015,88.8l-.9-.3a4.79,4.79,0,0,1-1.1-.5,3.913,3.913,0,0,1-1-.8,5.316,5.316,0,0,1-1.4-2.8.349.349,0,0,1,.1-.2c.1,0,.1,0,.2.1,0,0,.2.3.5.7a3.587,3.587,0,0,0,1.4,1,3.092,3.092,0,0,0,.8.2c.3,0,.3.1.7,0a4.127,4.127,0,0,0,.9-.1,1.358,1.358,0,1,1,.3,2.7A.446.446,0,0,1,58.015,88.8Z" fill="#998b86"/>
        <path d="M67.015,86.2a5.106,5.106,0,0,1,.9.1h.7a3.092,3.092,0,0,0,.8-.2,3.88,3.88,0,0,0,1.4-1,2.053,2.053,0,0,0,.5-.7c0-.1.1-.1.2-.1s.1.1.1.2a5.317,5.317,0,0,1-1.4,2.8,3.916,3.916,0,0,1-1,.8,4.79,4.79,0,0,1-1.1.5,7.8,7.8,0,0,1-.9.3,1.329,1.329,0,0,1-.9-2.5A1.077,1.077,0,0,1,67.015,86.2Z" fill="#998b86"/>
      </g>
      <g>
        <path d="M48.415,68a13.1,13.1,0,0,1-6.1-1.5,10.839,10.839,0,0,1-5-4.7,5.724,5.724,0,0,0,.7-.4c.4-.2.4-.2.6.2a7.808,7.808,0,0,0,2.7,2.4c2.2,1.2,4.5-.4,7-.3C48.415,64.6,48.415,67.2,48.415,68Z" fill="#010101"/>
        <path d="M76.915,63.8c2.4-.1,4.6,1.6,6.8.4a6.956,6.956,0,0,0,2.8-2.3c.2-.3.3-.7.7-.5.3.1.5.3.8.4a11.954,11.954,0,0,1-4.7,4.5,14.432,14.432,0,0,1-6.4,1.6C76.915,67.2,76.915,64.6,76.915,63.8Z" fill="#010101"/>
      </g>
      <g>
        <path d="M44.915,49.9s-.7.1-1.7.2a1.072,1.072,0,0,0-.6.2c-.2.1-.5.1-.7.2-.5.2-1,.5-1.6.8-.5.4-1.1.7-1.5,1.1a6.792,6.792,0,0,0-1.2,1.2,9.556,9.556,0,0,0-1.1,1.3.188.188,0,0,1-.3,0,.31.31,0,0,1-.1-.2,6.379,6.379,0,0,1,.8-1.6,11.9,11.9,0,0,1,.9-1.5,19.225,19.225,0,0,1,1.3-1.7l.8-.8c.3-.2.5-.5.8-.7a8.794,8.794,0,0,1,1-.6,4.054,4.054,0,0,1,.9-.5c1-.4,1.6-.6,1.6-.6a1.616,1.616,0,0,1,1.2,3A.647.647,0,0,1,44.915,49.9Z" fill="#0b0a0a"/>
        <path d="M81.215,46.8s.6.2,1.6.6a9.017,9.017,0,0,1,.9.5,8.8,8.8,0,0,0,1,.6,5.716,5.716,0,0,1,.8.7l.8.8a19.226,19.226,0,0,1,1.3,1.7,14.671,14.671,0,0,1,.9,1.5c.5.9.8,1.6.8,1.6a.368.368,0,0,1-.1.3c-.1,0-.2,0-.2-.1,0,0-.4-.5-1.1-1.3a13.561,13.561,0,0,0-1.2-1.2,14.3,14.3,0,0,0-1.5-1.1,7.934,7.934,0,0,0-1.6-.8c-.2-.1-.5-.1-.7-.2a1.072,1.072,0,0,0-.6-.2c-1-.1-1.7-.2-1.7-.2a1.657,1.657,0,0,1,.3-3.3A.494.494,0,0,1,81.215,46.8Z" fill="#0b0a0a"/>
      </g>
      <g opacity="0.7">
        <path d="M39.615,73.3a5.946,5.946,0,0,1,1.3.2,11.22,11.22,0,0,1,2.7,1,13.193,13.193,0,0,1,2.6,1.8c.6.7,1,1.1,1,1.1a2.829,2.829,0,0,1-4.1,3.9,2.666,2.666,0,0,1-.7-1.4,7.351,7.351,0,0,1-.2-.8,7.077,7.077,0,0,0-.8-1.9,9.506,9.506,0,0,0-2.3-2.5.7.7,0,0,1-.4-1A.608.608,0,0,1,39.615,73.3Z" fill="#d09ec8"/>
        <path d="M86.215,74.7a10.034,10.034,0,0,0-2.2,2.5,7.076,7.076,0,0,0-.8,1.9,7.353,7.353,0,0,1-.2.8,2.844,2.844,0,1,1-5.6-1,3.089,3.089,0,0,1,.7-1.4s.4-.4,1-1.1a10.771,10.771,0,0,1,2.6-1.8,15.473,15.473,0,0,1,2.7-1,5.274,5.274,0,0,1,1.3-.2.951.951,0,0,1,1,.4A.811.811,0,0,1,86.215,74.7Z" fill="#d09ec8"/>
      </g>
      <path d="M93.815,3c25.3,27.1,8,39.5-3,32.2-4.5-3-7-15.7-28.1-11.9-21.1-3.7-23.6,8.9-28.1,11.9-11,7.2-28.3-5.1-3-32.2-38,23.2-13.2,61-1.3,56.4,10.6-25.1,23.7-13.5,32.4-12.8,8.7-.7,21.8-12.3,32.4,12.8C107.015,64,131.815,26.2,93.815,3Z" fill="#d9b6ab"/>
    </g>
  </g>
</svg>
