<svg id="Layer_1" data-name="Layer 1" xmlns="http://www.w3.org/2000/svg" viewBox="0 0 125.085 103.5">
  <title>Artboard 1</title>
  <g>
    <path d="M124.994,22.4a3.037,3.037,0,0,0-1.2-2.1c-.3-.3-7.9-6.3-16.6-6.3a16.551,16.551,0,0,0-3.2.3c-.1-3.8-1.4-7.9-4-12.6a3.2,3.2,0,0,0-2.8-1.7,4.253,4.253,0,0,0-1.1.2,3.25,3.25,0,0,0-2,3.7c.6,2.8,1,6.6-.5,8.5-1.3,1.6-4.1,2.3-9,2.3-1.7,0-3.5-.1-5.4-.2a24.8,24.8,0,0,1-7.9-7.4,3.282,3.282,0,0,0-2.7-1.5h-.1a3.129,3.129,0,0,0-2.7,1.7,32.568,32.568,0,0,0-1.6,3.4,10.512,10.512,0,0,1-4.6-4.6,3.448,3.448,0,0,0-2.7-1.8h-.1a3.034,3.034,0,0,0-2.7,1.6,15.551,15.551,0,0,0-1.8,4.1,11.157,11.157,0,0,1-6.1-5,3.177,3.177,0,0,0-2.6-1.7h-.3a3.338,3.338,0,0,0-2.5,1.2,10.742,10.742,0,0,0-1.5,10.2c-4.1-.1-6.6-.8-7.8-2.3-1.5-1.9-1.1-5.7-.5-8.5a3.25,3.25,0,0,0-2-3.7,4.253,4.253,0,0,0-1.1-.2,3.2,3.2,0,0,0-2.8,1.7c-2.5,4.7-3.9,8.8-4,12.6a16.551,16.551,0,0,0-3.2-.3c-8.6,0-16.3,6-16.6,6.3a3.037,3.037,0,0,0-1.2,2.1c-.6,5.6,1.7,12,6.3,17a25.248,25.248,0,0,0,14.7,8.3c-.9,10.5,1.5,20.3,4.4,25.4,10.8,18.9,18.4,30.4,36.9,30.4h.2c18.6,0,26.1-11.6,36.9-30.4,2.9-5.1,5.4-14.9,4.4-25.4a25.248,25.248,0,0,0,14.7-8.3C123.194,34.3,125.594,28,124.994,22.4Z" fill="#2d2413"/>
    <g>
      <path d="M45.294,19.3s-6.3-7.5-2-13c3.4,6.5,11.7,7.6,11.7,7.6s-.6-2.6,1.8-6.5c3.5,6.9,9.8,7,9.8,7s-.2-1.6,2-5.7c4.9,8,14.6,11.3,14.6,11.3" fill="#da8c33"/>
      <g>
        <g>
          <path d="M35.394,31.5s-.9-2-6.7-9.1c-10-12.1-25.5.2-25.5.2-1.3,11.8,13.4,27.3,29.3,20.3Z" fill="#da8c33"/>
          <path d="M29.994,35.9a26.431,26.431,0,0,1-5.9-8.3c-3.4-7.7-13.6.1-13.6.1-.7,6.3,6.8,17.3,19.4,11.5Z" fill="#aa614a"/>
        </g>
        <g>
          <path d="M89.594,31.5s.9-2,6.7-9.1c10-12.1,25.5.2,25.5.2,1.3,11.8-13.4,27.3-29.3,20.3Z" fill="#da8c33"/>
          <path d="M95.094,35.9a26.431,26.431,0,0,0,5.9-8.3c3.4-7.7,13.6.1,13.6.1.7,6.3-6.8,17.3-19.4,11.5Z" fill="#aa614a"/>
        </g>
      </g>
      <path d="M62.794,15.4h-.6c-43.7,0-41.4,43.2-34,56.2,10.8,18.9,17.7,28.8,34.2,28.8h.2c16.5,0,23.3-9.9,34.2-28.8C104.194,58.5,106.394,15.4,62.794,15.4Z" fill="#da8c33"/>
      <path d="M73.394,65.3s3.8,16.4,3,20c-.8,3.2-5.6-.3-14.1-.3-9.2,0-13.4,4-13.8.3-.4-3.5,2.7-20,2.7-20s-2.9-19.7,11.1-19.7S73.394,65.3,73.394,65.3Z" fill="#ffd678"/>
      <path d="M48.594,86.1c0,7.7,3.2,9.5,14,9.5,10.7,0,14-1.8,14-9.5s-6.2-11.2-14-11.2S48.594,78.4,48.594,86.1Z" fill="#f9f3e0"/>
      <g>
        <path d="M57.194,87.3s-.4-.1-1-.3a6.575,6.575,0,0,1-1.2-.6,5.384,5.384,0,0,1-1.2-.9,5.918,5.918,0,0,1-1.6-3.2.215.215,0,0,1,.2-.2c.1,0,.2,0,.2.1,0,0,.2.3.6.8a5.689,5.689,0,0,0,1.7,1.2c.3.1.7.3.9.2a2.133,2.133,0,0,0,.8,0,6.734,6.734,0,0,1,1-.1,1.557,1.557,0,0,1,.3,3.1C57.594,87.4,57.394,87.3,57.194,87.3Z" fill="#6f491c"/>
        <path d="M67.394,84.3a6.734,6.734,0,0,1,1,.1,2.133,2.133,0,0,0,.8,0,2.92,2.92,0,0,0,.9-.2,7.351,7.351,0,0,0,1.7-1.2,3.453,3.453,0,0,0,.6-.8c0-.1.2-.1.3-.1s.1.1.1.2a5.918,5.918,0,0,1-1.6,3.2,5.383,5.383,0,0,1-1.2.9l-1.2.6c-.6.2-1,.3-1,.3a1.581,1.581,0,0,1-1-3Z" fill="#6f491c"/>
      </g>
      <g>
        <path d="M36.094,30.6c-13.2-7.6-14.5-16-8.3-27.5-3.4,15.7,7.7,15,19,14.5C50.494,28.1,36.094,30.6,36.094,30.6Z" fill="#8f5d25"/>
        <path d="M88.894,30.6c13.2-7.6,14.5-16,8.3-27.5,3.4,15.7-7.7,15-19,14.5C74.494,28.1,88.894,30.6,88.894,30.6Z" fill="#8f5d25"/>
      </g>
      <g>
        <g>
          <path d="M90.194,61a6.6,6.6,0,1,1-6.6-6.6A6.594,6.594,0,0,1,90.194,61Z" fill="#231f20"/>
          <circle cx="84.594" cy="62.1" r="2.5" fill="#fff"/>
        </g>
        <g>
          <circle cx="41.494" cy="61" r="6.6" fill="#231f20"/>
          <circle cx="42.594" cy="62.1" r="2.5" fill="#fff"/>
        </g>
      </g>
      <g>
        <path d="M46.994,46.5s-.9,0-2.2-.1a5.988,5.988,0,0,1-1.2-.2c-.4-.1-.9-.2-1.4-.3a5.024,5.024,0,0,1-1.3-.5l-1.3-.6c-.8-.5-1.6-.9-2.3-1.4s-1.3-1-1.8-1.4a19.369,19.369,0,0,1-1.6-1.6.3.3,0,0,1,0-.4.187.187,0,0,1,.3,0,19.325,19.325,0,0,0,1.8,1.1,12.932,12.932,0,0,0,2,.9,15.457,15.457,0,0,0,2.3.7l1.2.2c.4,0,.8.2,1.1.1h.9c.3,0,.5.1.8-.1,1.3-.3,2.1-.5,2.1-.5a2.062,2.062,0,0,1,1,4C47.394,46.5,47.194,46.5,46.994,46.5Z" fill="#6c3b25"/>
        <path d="M78.394,42.4s.8.2,2.1.5c.4.1.5,0,.8.1h.9c.3.1.7-.1,1.1-.1l1.2-.2a15.456,15.456,0,0,0,2.3-.7c.7-.3,1.4-.6,2-.9a19.32,19.32,0,0,0,1.8-1.1.247.247,0,0,1,.4.1.187.187,0,0,1,0,.3,19.371,19.371,0,0,1-1.6,1.6,14.1,14.1,0,0,1-1.8,1.4c-.7.5-1.5.9-2.3,1.4l-1.3.6a5.024,5.024,0,0,1-1.3.5c-.5.1-.9.2-1.4.3a5.986,5.986,0,0,1-1.2.2c-1.3,0-2.2.1-2.2.1a2.051,2.051,0,0,1-.1-4.1A1.146,1.146,0,0,1,78.394,42.4Z" fill="#6c3b25"/>
      </g>
      <g opacity="0.5">
        <path d="M91.594,70.2c-1.9-2.7-15.1,6.7-13.2,9.4s6.4,2.8,10.1.2C92.094,77.2,93.594,72.9,91.594,70.2Z" fill="#e18161"/>
        <path d="M33.394,70.2c1.9-2.7,15.1,6.7,13.2,9.4s-6.4,2.8-10.1.2C32.894,77.2,31.494,72.9,33.394,70.2Z" fill="#e18161"/>
      </g>
    </g>
  </g>
</svg>
