<svg id="Layer_1" data-name="Layer 1" xmlns="http://www.w3.org/2000/svg" viewBox="0 0 79.954 117.6">
  <title>Artboard 30</title>
  <g>
    <path d="M58.3,10.3C59.2,9,60,7.9,60.6,7a2.855,2.855,0,0,0,0-3.3,2.973,2.973,0,0,0-2.5-1.4h-.5c-1.3.2-2.8.5-4.4.8A5.851,5.851,0,0,0,53,1.8,3.077,3.077,0,0,0,50.2,0H50C38.5.8,32.5,4.2,29,6.9,15.2,11.3,6.9,22,4.3,38.9c-6.2,9.3-5.1,26.4-.5,37.2,5.2,12.1,15,20,27.8,22.2.9,3,1.6,5.8,2.2,8.4,2,7.9,2.8,10.9,6.1,10.9s4.2-3.1,7.3-13.6c.5-1.8,1.1-3.8,1.8-5.9,12.5-2.5,22.1-10.4,27.2-22.5,5.8-14,4.3-29.4-.6-36.8C73.6,25.4,67.9,16,58.3,10.3Z" fill="#2d2413"/>
    <g>
      <path d="M72.8,40c-1.7-11.7-6.5-22.8-19-28.8,1-1.3,2.9-3.9,4.2-5.9-4.8.7-14.3,3-14.3,3S46.7,6,50.2,3c-10.4.7-16.1,3.7-19.8,6.6C14.7,14.3,9,27.1,7.2,40-1.8,52.3,1.3,96,40,96,78.7,96.1,81.8,52.3,72.8,40Z" fill="#f2f2f2"/>
      <g>
        <path d="M40.1,56h-.2c-9.9.2-7.1,12.7-15.6,17.7,11,16.2,13.2,40.9,15.7,40.9S46.8,89,55.7,73.7C47.2,68.7,50,56.2,40.1,56Z" fill="#f06724"/>
        <path d="M46.3,63.6a11.621,11.621,0,0,0,.1,1.3,5.016,5.016,0,0,0,.2,1.2c.1.4.2.9.3,1.3a9.926,9.926,0,0,0,1.3,2.3,3.231,3.231,0,0,0,.9.8c.1,0,.1.1.1.2s-.1.1-.2.1a10.7,10.7,0,0,1-1.2-.6A8.925,8.925,0,0,1,45.7,68a7.145,7.145,0,0,1-.8-1.5,5.542,5.542,0,0,1-.5-1.3c-.2-.7-.4-1.2-.4-1.2a1.2,1.2,0,1,1,2.3-.7Z" fill="#793518"/>
        <path d="M36.5,64s-.2.5-.4,1.2a11.207,11.207,0,0,1-.5,1.3,10.932,10.932,0,0,1-.8,1.5,8.886,8.886,0,0,1-2.1,2.2,3.5,3.5,0,0,1-1.2.6c-.1,0-.2,0-.2-.1s0-.1.1-.2a9.4,9.4,0,0,0,.9-.8,7.276,7.276,0,0,0,1.3-2.3,3.079,3.079,0,0,0,.3-1.3,5.021,5.021,0,0,0,.2-1.2,7.311,7.311,0,0,1,.1-1.3,1.251,1.251,0,0,1,2.5.1C36.6,63.8,36.6,63.9,36.5,64Z" fill="#793518"/>
      </g>
      <g>
        <g>
          <circle cx="57.203" cy="55.9" r="7.2" fill="#231f20"/>
          <circle cx="59.203" cy="54.2" r="2.5" fill="#fff"/>
        </g>
        <path d="M64.8,46.9a.775.775,0,0,0-.1-.3c0-.1-.1-.2-.1-.4,0-.1-.1-.2-.1-.3a1.874,1.874,0,0,0-.6-.7,3.589,3.589,0,0,0-1-.7,8.239,8.239,0,0,0-2.5-.6H59.2a.215.215,0,0,1-.2-.2c0-.1,0-.1.1-.2a9.02,9.02,0,0,1,4.2-.7,4.794,4.794,0,0,1,1.7.5,6.7,6.7,0,0,1,1.4.9l.5.5c.1.1.2.2.2.3a1.239,1.239,0,0,0,.2.3A1.492,1.492,0,0,1,65,47.2C64.9,47.2,64.8,47.1,64.8,46.9Z" fill="#504d4e"/>
        <g opacity="0.3">
          <path d="M68.1,73.4c-.9,2-4.1,2.5-7.2,1.1s-4.8-4.2-3.9-6.1c.9-2,4.1-2.5,7.2-1.1S69,71.4,68.1,73.4Z" fill="#f06724"/>
        </g>
      </g>
      <g>
        <g>
          <circle cx="22.803" cy="55.9" r="7.2" fill="#231f20"/>
          <circle cx="20.903" cy="54.2" r="2.5" fill="#fff"/>
        </g>
        <path d="M12.8,45.5a1.238,1.238,0,0,0,.2-.3c.1-.1.2-.2.2-.3l.5-.5a3.391,3.391,0,0,1,1.4-.9,4.794,4.794,0,0,1,1.7-.5,9.022,9.022,0,0,1,4.2.7c.1,0,.1.2.1.2,0,.1-.1.1-.2.1a3.91,3.91,0,0,0-1.2,0,6.076,6.076,0,0,0-2.5.6,2.553,2.553,0,0,0-1,.7,1.874,1.874,0,0,0-.6.7c0,.1-.1.2-.1.3a.6.6,0,0,0-.1.4.774.774,0,0,0-.1.3,1.487,1.487,0,1,1-2.8-1A2.183,2.183,0,0,1,12.8,45.5Z" fill="#504d4e"/>
        <g opacity="0.3">
          <path d="M12,73.4c.9,2,4.1,2.5,7.2,1.1s4.8-4.2,3.9-6.1c-.9-2-4.1-2.5-7.2-1.1S11.1,71.4,12,73.4Z" fill="#f06724"/>
        </g>
      </g>
    </g>
  </g>
</svg>
