<svg id="Layer_1" data-name="Layer 1" xmlns="http://www.w3.org/2000/svg" viewBox="0 0 92 103.9">
  <title>Artboard 18</title>
  <g>
    <path d="M70.5,86.6C78.8,81.4,92,70.9,92,57.3c0-16.3-2.9-28.5-8.9-37.2C81.4,11.2,77.5,5.2,71.8,2.5A31.407,31.407,0,0,0,59,0,56.81,56.81,0,0,0,46,1.6,56.81,56.81,0,0,0,33,0,29.839,29.839,0,0,0,20.2,2.5c-5.7,2.6-9.6,8.7-11.3,17.6C2.9,28.8,0,41,0,57.3,0,70.9,13.2,81.4,21.5,86.6c3.9,5.1,10.3,8.6,18.1,9.8-.3,1.1-.6,2.2-.9,3.1a3.465,3.465,0,0,0,1.2,3.9,2.9,2.9,0,0,0,1.8.5,3.1,3.1,0,0,0,2.2-.9,12.066,12.066,0,0,0,2.1-2.8,13.5,13.5,0,0,0,2,2.7,3.038,3.038,0,0,0,2.3,1,3.371,3.371,0,0,0,1.7-.5,3.325,3.325,0,0,0,1.3-3.9,14.048,14.048,0,0,1-.9-3.1C60.2,95.2,66.6,91.7,70.5,86.6Z" fill="#2d2413"/>
    <g>
      <path d="M80,21.3c-1-5.9-3.5-13.1-9.6-15.9C62.1,1.6,50.9,3.7,46,4.9c-5-1.2-16.1-3.3-24.4.5C15.5,8.2,13,15.4,12,21.3,5,31.1,3.3,44.5,3.3,57.2,3.3,77,37.1,93,46.1,93S88.9,77,88.9,57.2C88.7,44.5,87,31.1,80,21.3Z" fill="#5e8957"/>
      <path d="M71.3,73.9c0,14-13.7,19.8-25.4,19.8S20.5,87.9,20.5,73.9,31.9,55.3,45.9,55.3C60,55.3,71.3,59.9,71.3,73.9Z" fill="#c2b05e"/>
      <g>
        <circle cx="55.7" cy="63" r="3.3" fill="#3d3e18"/>
        <circle cx="36.2" cy="63" r="3.3" fill="#3d3e18"/>
      </g>
      <path d="M48.7,77H43.3s2.1,13.9-1.6,23.6c5.2-5,4.3-17.7,4.3-17.7s-.7,12.4,4.3,17.7C46.6,90.9,48.7,77,48.7,77Z" fill="#db5326"/>
      <path d="M65,81.7c-6.8,0-9.4-1.2-11.7-2.3A14.192,14.192,0,0,0,46,77.7a14.192,14.192,0,0,0-7.3,1.7c-2.3,1.1-4.9,2.3-11.7,2.3a.6.6,0,1,1,0-1.2c6.6,0,8.9-1.1,11.2-2.2a15.771,15.771,0,0,1,7.9-1.8A16.073,16.073,0,0,1,54,78.3c2.3,1.1,4.6,2.2,11.2,2.2a.645.645,0,0,1,.6.6A.871.871,0,0,1,65,81.7Z" fill="#231f20"/>
      <g>
        <path d="M33.9,54.3a18.057,18.057,0,0,1-7.6-1.8,13.913,13.913,0,0,1-6.2-5.8c.3-.2.5-.3.8-.5.5-.3.4-.3.8.3a10.494,10.494,0,0,0,3.3,3c2.8,1.5,5.6-.5,8.8-.4C33.9,50,33.9,53.3,33.9,54.3Z" fill="#010101"/>
        <path d="M58.1,49.1c3-.1,5.7,1.9,8.5.5A9.575,9.575,0,0,0,70,46.7c.3-.4.4-.9.8-.6.3.2.7.4,1,.6A14.859,14.859,0,0,1,66,52.3a18.129,18.129,0,0,1-7.9,2C58,53.3,58.1,50,58.1,49.1Z" fill="#010101"/>
      </g>
      <g>
        <path d="M76.5,28.9a6.736,6.736,0,0,0-1,.1,4.486,4.486,0,0,0-1.1.1c-.4.1-.8.1-1.3.2s-1,.3-1.6.4a11.506,11.506,0,0,0-1.7.6c-.6.2-1.2.6-1.8.8-.6.3-1.2.7-1.8,1A49.84,49.84,0,0,0,60,36.8a30.274,30.274,0,0,0-2.5,2.6l-.3-.2s.8-1.2,2.2-2.9a39.346,39.346,0,0,1,5.8-5.7c.6-.4,1.2-.9,1.8-1.3s1.2-.8,1.9-1.2a15.11,15.11,0,0,1,1.8-.9,13.359,13.359,0,0,1,1.8-.7c.6-.2,1.1-.3,1.6-.5a6.532,6.532,0,0,1,1.1-.2c.6-.1,1-.2,1-.2Z" fill="#3d3e18"/>
        <path d="M15.9,25.6s.4.1,1,.2c.3.1.7.1,1.1.2a14.234,14.234,0,0,1,1.6.5c.6.2,1.1.5,1.8.7a15.1,15.1,0,0,1,1.8.9c.6.3,1.2.8,1.9,1.2.6.4,1.2.9,1.8,1.3a45.011,45.011,0,0,1,5.8,5.7c1.4,1.7,2.2,2.9,2.2,2.9l-.3.2a30.274,30.274,0,0,0-2.5-2.6,35.836,35.836,0,0,0-6.2-4.7c-.6-.3-1.2-.7-1.8-1a14.17,14.17,0,0,0-1.8-.8,17.7,17.7,0,0,0-1.7-.6c-.6-.1-1.1-.3-1.6-.4a6.884,6.884,0,0,0-1.3-.2,4.486,4.486,0,0,0-1.1-.1,4.537,4.537,0,0,1-1-.1Z" fill="#3d3e18"/>
      </g>
      <g>
        <g>
          <path d="M68.7,56.5a36.283,36.283,0,0,1,6.3-.6,15.433,15.433,0,0,1,4.8.6,2.994,2.994,0,0,1,1,.4,5.582,5.582,0,0,1,.8.5c.5.4.7.6.7.6a2.616,2.616,0,1,1-3.7,3.7h0l-.4-.4v-.1a.349.349,0,0,1-.1-.2c0-.1-.2-.2-.3-.3a10.646,10.646,0,0,0-3.2-1.5c-1.4-.4-2.8-.7-3.9-.9s-1.8-.3-1.8-.3a.641.641,0,0,1-.6-.8C68.2,56.8,68.4,56.5,68.7,56.5Z" fill="#c35a28"/>
          <path d="M68.4,60.6s.7.2,1.7.5a29.774,29.774,0,0,1,3.7,1.4c.7.3,1.3.7,2,1a10.379,10.379,0,0,1,1.7,1.2,2.337,2.337,0,0,1,.7.7,2.653,2.653,0,0,1,.5.6,2.219,2.219,0,0,1,.4.5A2.7,2.7,0,0,1,75,70a2.506,2.506,0,0,1-.4-.7l-.1-.4a.31.31,0,0,0-.1-.2c0-.1-.1-.2-.1-.3-.1-.1,0-.3-.2-.4a2.091,2.091,0,0,0-.4-.6,2.65,2.65,0,0,0-.5-.6,15.923,15.923,0,0,0-1.3-1.3,25.943,25.943,0,0,0-2.8-2.3c-.8-.6-1.4-1-1.4-1a.775.775,0,0,1-.2-1c.3-.6.6-.7.9-.6Z" fill="#c35a28"/>
        </g>
        <g>
          <path d="M23.2,57.9s-.7.1-1.8.3a35.576,35.576,0,0,0-3.9.9,9.562,9.562,0,0,0-3.2,1.5q-.3.15-.3.3c-.1.1-.2.2-.1.2v.1l-.4.4A2.617,2.617,0,0,1,9.7,58h0a7.282,7.282,0,0,1,.7-.6,5.582,5.582,0,0,1,.8-.5,4.18,4.18,0,0,1,1-.4,15.064,15.064,0,0,1,4.8-.6,37.809,37.809,0,0,1,6.3.6.838.838,0,0,1,.6.8C23.7,57.6,23.5,57.9,23.2,57.9Z" fill="#c35a28"/>
          <path d="M24.1,61.9s-.6.4-1.4,1a25.951,25.951,0,0,0-2.8,2.3,15.943,15.943,0,0,0-1.3,1.3c-.2.2-.3.4-.5.6-.1.2-.3.4-.4.6s-.1.3-.2.4c0,.1-.1.2-.1.3l-.1.2-.1.3a2.693,2.693,0,0,1-5-2,4.349,4.349,0,0,1,.4-.7,3.611,3.611,0,0,0,.4-.5,2.65,2.65,0,0,1,.5-.6,4.62,4.62,0,0,1,.7-.7c.5-.4,1.1-.8,1.7-1.2.6-.3,1.3-.7,2-1a29.794,29.794,0,0,1,3.7-1.4c1-.3,1.7-.5,1.7-.5h0a.8.8,0,0,1,.9.5C24.5,61.4,24.4,61.7,24.1,61.9Z" fill="#c35a28"/>
        </g>
      </g>
    </g>
  </g>
</svg>
