<svg id="Layer_1" data-name="Layer 1" xmlns="http://www.w3.org/2000/svg" viewBox="0 0 123.125 86.2">
  <title>Artboard 15</title>
  <g>
    <path d="M4.008,48.5a22.238,22.238,0,0,0,3.1,3.4l.2.2,1.1,1a3.566,3.566,0,0,0,2.3.8,3.523,3.523,0,0,0,2.3-.9,3.44,3.44,0,0,0,.5-4.7,36.233,36.233,0,0,0,4,.5,17.1,17.1,0,0,0,5.4,2.5,10.9,10.9,0,0,0,2.6.3c.8,8.6,3.4,17.7,13.5,23.6a47.067,47.067,0,0,1,6.6,4.7c4.1,3.3,7.9,6.3,15.9,6.3s11.8-3.1,15.9-6.3a57.025,57.025,0,0,1,6.6-4.7c10.1-5.9,12.8-14.9,13.5-23.6a10.9,10.9,0,0,0,2.6-.3,12.062,12.062,0,0,0,3.3-1.2,23.913,23.913,0,0,0,2.1-1.3,36.232,36.232,0,0,0,4-.5,3.46,3.46,0,0,0,.2,4.3,3.367,3.367,0,0,0,2.6,1.2,4.006,4.006,0,0,0,2.3-.8l1.1-1,.2-.2a29.035,29.035,0,0,0,3.1-3.4,19.7,19.7,0,0,0,3.5-7,20.079,20.079,0,0,0-.2-10.6,22.058,22.058,0,0,0-6.9-10.6,17.363,17.363,0,0,0-7-3.6c-.5-.1-.9-.2-1.4-.3-.8-1.2-1.6-2.4-2.5-3.5A37.876,37.876,0,0,0,94.408,4,29.308,29.308,0,0,0,82.508.1a22.6,22.6,0,0,0-2.6-.1,25.243,25.243,0,0,0-7.3,1,31.64,31.64,0,0,0-3.7,1.2l-1.3.6c-.1,0-.1,0-.2.1l-2.1,1a4.053,4.053,0,0,0-.9.5c-.6.4-1.1.8-1.7,1.2-.3,0-.7-.1-1-.1h-.2a3.751,3.751,0,0,0-1,.1,10.065,10.065,0,0,0-2.5-1.7l-2.1-1c-.1,0-.1-.1-.2-.1l-1.3-.6a22.525,22.525,0,0,0-3.7-1.2,27.438,27.438,0,0,0-7.4-1,22.6,22.6,0,0,0-2.6.1,29.566,29.566,0,0,0-12,3.8,36.183,36.183,0,0,0-10.1,8.8,21.641,21.641,0,0,0-2.4,3.5c-.5.1-1,.2-1.4.3a17.363,17.363,0,0,0-7,3.6,22.249,22.249,0,0,0-6.9,10.5,19.5,19.5,0,0,0-.3,10.7A17.864,17.864,0,0,0,4.008,48.5Zm5.5-6.4a15.536,15.536,0,0,1-.5-2.3,10.158,10.158,0,0,1,1-5.6,4.053,4.053,0,0,1,.5-.9v.3a22.463,22.463,0,0,0,.7,6Zm102.9-8.8c.2.3.3.6.5.9v.1a9.6,9.6,0,0,1,.9,5.5,14.187,14.187,0,0,1-.5,2.2l-1.6-2.4a22.463,22.463,0,0,0,.7-6Z" fill="#2d2413"/>
    <g>
      <g>
        <g>
          <path d="M79.108,14.6l19.8,11.1,12.6,19.1s-16.7,6.4-26.8-10.1Z" fill="#ab8662"/>
          <path d="M43.708,14.6l-19.7,11.1-12.7,19s16.7,6.4,26.8-10.1Z" fill="#ab8662"/>
        </g>
        <g>
          <path d="M61.408,8.6c-11.5.5-33.3,14.5-33.3,32.9,0,11.5.1,24.1,12.3,31.1,8.8,5.1,10.7,10.6,21,10.6s12.1-5.5,21-10.6c12.2-7.1,12.3-19.6,12.3-31.1C94.708,23.1,72.908,9.1,61.408,8.6Z" fill="#e2b382"/>
          <path d="M43.508,51c8.4,0,7.7-10.7,16.9-10.8,9.7-.1,6.4,9.4,18.8,10.8-7.8,6.9-9.5,24-9.5,24h-17.3C52.508,75,50.808,61.7,43.508,51Z" fill="#fff"/>
          <g>
            <g>
              <path d="M82.908,51a6.3,6.3,0,1,1-6.3-6.3A6.274,6.274,0,0,1,82.908,51Z" fill="#231f20"/>
              <circle cx="77.608" cy="52.8" r="2.4" fill="#fff"/>
            </g>
            <g>
              <path d="M39.908,51a6.3,6.3,0,1,0,6.3-6.3A6.274,6.274,0,0,0,39.908,51Z" fill="#231f20"/>
              <path d="M44.708,52.8a2.4,2.4,0,1,0,2.4-2.4A2.433,2.433,0,0,0,44.708,52.8Z" fill="#fff"/>
            </g>
          </g>
          <g>
            <path d="M49.008,68.5c0,6.9,6.3,12.6,12.4,12.6s12.4-5.7,12.4-12.6-5.6-8.2-12.4-8.2C54.508,60.4,49.008,61.7,49.008,68.5Z" fill="#84684d"/>
            <g>
              <path d="M64.808,67a2.442,2.442,0,0,1,.7-.1c.3,0,.3-.1.5-.2.2,0,.4-.2.6-.3a3.126,3.126,0,0,0,.9-1.1l.3-.6c0-.1.1-.1.2-.1a.1.1,0,0,1,.1.1,4.2,4.2,0,0,1-.5,2.5,2.407,2.407,0,0,1-.6.8,5.077,5.077,0,0,0-.7.6,2.475,2.475,0,0,0-.6.4,1.082,1.082,0,1,1-1.2-1.8C64.508,67.1,64.608,67.1,64.808,67Z" fill="#e9d9cb"/>
              <path d="M57.308,69a2.475,2.475,0,0,0-.6-.4,3.736,3.736,0,0,1-.7-.6c-.3-.2-.4-.6-.6-.8a4.2,4.2,0,0,1-.5-2.5.1.1,0,0,1,.1-.1c.1,0,.1,0,.1.1a2.83,2.83,0,0,0,.3.6,3.126,3.126,0,0,0,.9,1.1c.2.1.4.3.6.3.2.1.3.1.5.2a3.2,3.2,0,0,0,.7.1,1.118,1.118,0,0,1-.4,2.2A.519.519,0,0,1,57.308,69Z" fill="#e9d9cb"/>
            </g>
            <polygon points="56.108 77.8 61.408 74.3 66.708 77.8 56.108 77.8" fill="#231f20"/>
          </g>
        </g>
      </g>
      <g opacity="0.7">
        <path d="M90.408,57.3c-1.3-1.9-4.5-2-7.1-.1-2.6,1.8-3.6,4.8-2.2,6.7,1.3,1.9,4.5,2,7.1.1C90.708,62.2,91.708,59.2,90.408,57.3Z" fill="#f06724"/>
        <path d="M32.408,57.3c1.3-1.9,4.5-2,7.1-.1,2.6,1.8,3.6,4.8,2.2,6.7-1.3,1.9-4.5,2-7.1.1C32.108,62.2,31.108,59.2,32.408,57.3Z" fill="#f06724"/>
      </g>
      <g>
        <path d="M66.408,6.6s.5-.2,1.3-.6a4.872,4.872,0,0,1,.7-.3c.4-.2.9-.4,1.3-.6a25.514,25.514,0,0,1,3.3-1.1,26.748,26.748,0,0,1,8.9-.8,25.941,25.941,0,0,1,10.7,3.5,31.819,31.819,0,0,1,9.2,8,36.849,36.849,0,0,1,6.2,11.6,24.266,24.266,0,0,1,1.2,7.3,17.175,17.175,0,0,1-2,8.7,10.093,10.093,0,0,1-1.5,2.1,4.714,4.714,0,0,1-1,1l-.7.5a15.02,15.02,0,0,1-2.3,1.5,11.422,11.422,0,0,1-2.6.9,10.394,10.394,0,0,1-5.8-.3,10.1,10.1,0,0,1-4.6-3.2,12.47,12.47,0,0,1-2.7-9.2,15.336,15.336,0,0,1,3.1-7.6c2.8-3.4,6.2-6.8,10.9-8.3a13.57,13.57,0,0,1,7.2-.3,15.226,15.226,0,0,1,5.8,3,18.858,18.858,0,0,1,5.9,9.1,16.3,16.3,0,0,1,.2,9,16.774,16.774,0,0,1-3,6,23.762,23.762,0,0,1-2.8,3.1c-.7.6-1.1,1-1.1,1-.2.2-.5.1-.7,0a.375.375,0,0,1,0-.6h0s.3-.4.9-1.1a18.553,18.553,0,0,0,2.2-3.3,16.756,16.756,0,0,0,1.9-5.6,12.914,12.914,0,0,0-1.2-7.1,13.933,13.933,0,0,0-5.5-6.3,7.544,7.544,0,0,0-7.5-.6c-2.4,1.2-4.6,3.8-6.3,6.8a6.877,6.877,0,0,0-1,3.4,2.879,2.879,0,0,0,.8,2c.4.2.4,0,.5-.1l.2-.2.2-.2.5-.5c-.1.1,0-.1,0-.1a.367.367,0,0,0,.1-.3c.5-1,.2-4-1-6.6a24.57,24.57,0,0,0-4.7-7,18.808,18.808,0,0,0-5.8-4.1,10.1,10.1,0,0,0-8.5-.3c-.5.2-.9.4-1.1.5-.1.1-.3.1-.4.2a2.506,2.506,0,0,1-.7.4c-.8.5-1.2.8-1.2.8a8.078,8.078,0,0,1-8.4-13.8,1.222,1.222,0,0,0,.9-.3Z" fill="#4b3c2b"/>
        <path d="M48.708,20.8s-.4-.3-1.2-.8a4.348,4.348,0,0,0-.7-.4c-.1-.1-.3-.1-.4-.2-.2-.1-.6-.3-1.1-.5a10.11,10.11,0,0,0-8.5.3,18.808,18.808,0,0,0-5.8,4.1,22.669,22.669,0,0,0-4.7,7c-1.2,2.6-1.5,5.6-1,6.6a1.007,1.007,0,0,0,.1.3s.1.2,0,.1l.5.5.2.2.2.2c.1.1,0,.3.5.1a2.351,2.351,0,0,0,.8-2,6.877,6.877,0,0,0-1-3.4,17.412,17.412,0,0,0-6.3-6.8,7.31,7.31,0,0,0-7.5.6,13.933,13.933,0,0,0-5.5,6.3,13.058,13.058,0,0,0-1.2,7.1,14.8,14.8,0,0,0,1.9,5.6,37.074,37.074,0,0,0,2.2,3.3c.6.7.9,1.1.9,1.1h0c.2.2.1.5,0,.7a.375.375,0,0,1-.6,0,11.765,11.765,0,0,1-1.1-1,23.762,23.762,0,0,1-2.8-3.1,17.672,17.672,0,0,1-3-6,16.292,16.292,0,0,1,.2-9,18.857,18.857,0,0,1,5.9-9.1,13.953,13.953,0,0,1,5.8-3,12.637,12.637,0,0,1,7.2.3c4.7,1.6,8.1,4.9,10.9,8.3a15.336,15.336,0,0,1,3.1,7.6,12.47,12.47,0,0,1-2.7,9.2,10.919,10.919,0,0,1-4.6,3.2,10.484,10.484,0,0,1-5.8.3,11.424,11.424,0,0,1-2.6-.9,10.029,10.029,0,0,1-2.3-1.5l-.7-.5a9.322,9.322,0,0,1-1-1,13.655,13.655,0,0,1-1.5-2.1,16.01,16.01,0,0,1-2-8.7,31.808,31.808,0,0,1,1.2-7.3,35.787,35.787,0,0,1,6.2-11.6,31.616,31.616,0,0,1,9.2-8,25.941,25.941,0,0,1,10.7-3.5,24.125,24.125,0,0,1,8.9.8,25.507,25.507,0,0,1,3.3,1.1c.5.2.9.4,1.3.6a4.88,4.88,0,0,1,.7.3c.8.4,1.3.6,1.3.6h0a8.1,8.1,0,0,1-7,14.6A3.393,3.393,0,0,0,48.708,20.8Z" fill="#4b3c2b"/>
      </g>
    </g>
  </g>
</svg>
