<svg id="Layer_1" data-name="Layer 1" xmlns="http://www.w3.org/2000/svg" viewBox="0 0 83.377 149">
  <title>Artboard 14</title>
  <g>
    <path d="M7.789,115.7a148.084,148.084,0,0,1,14.5,18,79.889,79.889,0,0,0,6.8,8.8,2.653,2.653,0,0,1,.5.6,18.129,18.129,0,0,0,6.5,4.6,2.566,2.566,0,0,1,.5.2,15.31,15.31,0,0,0,5.4,1.1c6.3,0,12-3.9,15.8-10.8,1.1-1.4,2.1-2.9,3.3-4.5a148.084,148.084,0,0,1,14.5-18c12-12.5,9.8-39.2-4.3-55.9.6-1.3,1.1-2.5,1.7-3.7,4.7-10.1,8.5-18.1-3.6-30.4a3.049,3.049,0,0,0-2.1-.9,2.709,2.709,0,0,0-2,.8c-.4.3-8.4,7.6-11.1,18.2-.7-.4-1.4-.7-2.2-1.1a24.813,24.813,0,0,0-3.5-1.3l-3.8-38.7a3.031,3.031,0,0,0-3-2.7,3.108,3.108,0,0,0-3,2.7l-3.8,38.5a20.5,20.5,0,0,0-5.6,3.1c-2.5-10.9-10.8-18.4-11.2-18.8a3.176,3.176,0,0,0-2-.8,2.723,2.723,0,0,0-2.1.9c-12.1,12.3-8.3,20.3-3.6,30.4.6,1.2,1.1,2.4,1.7,3.7C-2.011,76.5-4.211,103.2,7.789,115.7Z" fill="#2d2413"/>
    <g>
      <path d="M41.689,48.6c-34.6.1-48.2,47.8-31.7,65,17.2,17.9,20,32,31.7,32.2,11.7-.3,14.5-14.3,31.7-32.2C89.789,96.4,76.289,48.7,41.689,48.6Z" fill="#a7bbc9"/>
      <g>
        <g>
          <path d="M59.389,61.9c-10-18.3,7.9-34.1,7.9-34.1,13.3,13.6,5.2,20.2-.6,35.2Z" fill="#a7bbc9"/>
          <path d="M63.789,58.4s-4-11.3,3.8-23.4C76.889,44.1,63.789,58.4,63.789,58.4Z" fill="#353b3f"/>
        </g>
        <g>
          <path d="M23.989,61.9c10-18.3-7.8-34.1-7.8-34.1-13.3,13.6-5.2,20.2.6,35.2Z" fill="#a7bbc9"/>
          <path d="M19.489,58.4s4-11.3-3.8-23.4C6.389,44.1,19.489,58.4,19.489,58.4Z" fill="#353b3f"/>
        </g>
      </g>
      <path d="M41.689,58c-6.3,0-11.1,22.6-12,32.9-.8,9.1,1.8,16.4,2.9,33.4.3,5.2,5.7,4.5,9.2,4.5,3.4,0,9.2.7,9.2-4.5-.2-14.3,3.6-24.3,2.9-33.4C52.889,80.6,47.989,58,41.689,58Z" fill="#eaedf0"/>
      <g>
        <path d="M25.689,130.1c2.8,10.2,10.3,16,16.3,16s12.2-4.5,15.6-14.9c2.6-8.2-6.6-14.9-15.6-14.9S23.389,121.8,25.689,130.1Z" fill="#555e66"/>
        <g>
          <path d="M36.689,124.4l1.1,6c0,.1,0,.2-.1.2h-.1l-5.2-3.6a2.491,2.491,0,0,1-.6-3.6,2.706,2.706,0,0,1,3.8-.5A2.094,2.094,0,0,1,36.689,124.4Z" fill="#010101"/>
          <path d="M50.989,127l-5.2,3.6h-.2v-.1l1.1-6a2.82,2.82,0,0,1,3.2-2.1,2.539,2.539,0,0,1,2.2,3A3.553,3.553,0,0,1,50.989,127Z" fill="#010101"/>
        </g>
        <g>
          <path d="M49.589,139.6h-15.9l-4-2.4a.554.554,0,0,1-.2-.8.651.651,0,0,1,.9-.2l3.7,2.2h15.1l3.7-2.2a.651.651,0,0,1,.9.2.524.524,0,0,1-.2.8Z" fill="#010101"/>
          <polygon points="38.589 139 41.689 132.6 44.789 139 38.589 139" fill="#010101"/>
        </g>
      </g>
      <path d="M56.789,74.9c-1-4.5-4.4-6.9-6.1-10.6-4.5,3.8-11.5,5-15.6,9.4.6-3-.1-6.5.8-9.7-5.8,3.5-8.9,4-13.8,9.4-1.4-16.7,8.1-37.3,28.7-28.1C67.489,52.9,60.389,67.1,56.789,74.9Z" fill="#43436a"/>
      <path d="M36.589,54.3,41.689,3l5.1,51.3S42.689,59,36.589,54.3Z" fill="#fff"/>
      <g>
        <path d="M12.789,104.2c-3.9-4.1,6.2-12.2,13,0C25.789,104.2,18.589,100.6,12.789,104.2Z" fill="#010101"/>
        <path d="M58.389,104.2c-3.9-4.1,6.2-12.2,13,0C71.389,104.2,64.189,100.6,58.389,104.2Z" fill="#010101"/>
      </g>
      <g>
        <path d="M59.489,86.8l6.9-7.5a.187.187,0,0,1,.3,0,.367.367,0,0,1,.1.3l-3.9,9.2a2.03,2.03,0,0,1-2.6,1.1,1.918,1.918,0,0,1-1.1-2.5Z" fill="#4f575e"/>
        <path d="M20.389,88.8l-3.9-9.2a.192.192,0,0,1,.1-.3.367.367,0,0,1,.3.1l6.9,7.5a1.907,1.907,0,0,1-.2,2.7,2.162,2.162,0,0,1-2.9-.2Z" fill="#4f575e"/>
      </g>
      <g>
        <path d="M66.889,111.1c1.5,2.1-4.8-.5-8.1,5.2a4.482,4.482,0,0,1,1.3-6.4A4.91,4.91,0,0,1,66.889,111.1Z" fill="#8584c0"/>
        <path d="M15.289,111.1c-1.5,2.1,4.8-.5,8.1,5.2a4.482,4.482,0,0,0-1.3-6.4A4.91,4.91,0,0,0,15.289,111.1Z" fill="#8584c0"/>
      </g>
    </g>
  </g>
</svg>
