<svg id="Layer_1" data-name="Layer 1" xmlns="http://www.w3.org/2000/svg" viewBox="0 0 116.83 117.6">
  <title>Artboard 41</title>
  <g>
    <path d="M115.715,38.8l-10.8-7.2c1.2-7.3-.5-18-13.5-30.7a2.878,2.878,0,0,0-2.1-.9,3.036,3.036,0,0,0-2.7,4.4c6.5,12.3,7.2,21.2,2,25.1l-.9.4c-1.9-10.5-12.6-16.7-29.4-16.7-16.6,0-27.1,6.2-29,16.7l-.2-.1c-5.7-3.7-5.2-12.7,1.5-25.4a3.036,3.036,0,0,0-2.7-4.4,2.878,2.878,0,0,0-2.1.9c-12.9,12.6-14.7,23.3-13.5,30.5l-11,7.4a2.772,2.772,0,0,0-1.3,2.3,3.108,3.108,0,0,0,1,2.5c.3.3,7.7,6.5,16.7,6.5a26.423,26.423,0,0,0,2.9-.2,25.6,25.6,0,0,0-.5,5.5c0,17.3,10.3,36.9,23.7,45.2,2.5,9.4,12.5,16.2,12.9,16.5a3.14,3.14,0,0,0,3.4,0c.4-.3,10.5-7.1,12.9-16.5,13.4-8.4,23.7-27.9,23.7-45.2a34.086,34.086,0,0,0-.5-5.5,14.157,14.157,0,0,0,2.9.2h0c9,0,16.4-6.3,16.7-6.5a2.877,2.877,0,0,0,1-2.5A2.476,2.476,0,0,0,115.715,38.8Z" fill="#2d2413"/>
    <g>
      <path d="M93.915,55.5c0,20.2-15.8,46.7-35.3,46.7s-35.3-26.5-35.3-46.7S46.815,20,58.615,20C70.415,19.9,93.915,35.3,93.915,55.5Z" fill="#884d3a"/>
      <path d="M70.715,96.5c0,10-12.2,18.2-12.2,18.2s-12.2-8.1-12.2-18.2c0-10,5.4-18.2,12.2-18.2C65.315,78.4,70.715,86.5,70.715,96.5Z" fill="#884d3a"/>
      <path d="M69.215,70.7c0,10.4-5.3,18.8-10.6,18.8s-10.6-8.4-10.6-18.8-5.5-18.8,10.6-18.8S69.215,60.3,69.215,70.7Z" fill="#b4674b"/>
      <path d="M44.015,88.5c0,8,12.2,12,14.5,12s14.5-4,14.5-12-6.5-9.6-14.5-9.6S44.015,80.5,44.015,88.5Z" fill="#331d15"/>
      <g>
        <path d="M53.515,89.7a7.8,7.8,0,0,1-.9-.3,3.287,3.287,0,0,1-1.2-.6,3.332,3.332,0,0,1-1.1-.9,7.006,7.006,0,0,1-.8-1,9.238,9.238,0,0,1-.5-1c-.2-.6-.3-1-.3-1a.215.215,0,0,1,.2-.2c.1,0,.1,0,.2.1a5.162,5.162,0,0,0,.6.7,4.573,4.573,0,0,0,1.6,1.1c.3.1.6.3.9.2.3,0,.4.1.7,0a4.532,4.532,0,0,0,1-.1,1.458,1.458,0,0,1,.3,2.9A.926.926,0,0,1,53.515,89.7Z" fill="#c2856e"/>
        <path d="M63.315,86.8a6.728,6.728,0,0,1,1,.1,1.577,1.577,0,0,0,.7,0,2.924,2.924,0,0,0,.9-.2,6.444,6.444,0,0,0,1.6-1.1,5.164,5.164,0,0,0,.6-.7.31.31,0,0,1,.2-.1c.1,0,.1.1.1.2,0,0-.1.4-.3,1a9.238,9.238,0,0,1-.5,1,7.006,7.006,0,0,1-.8,1,3.329,3.329,0,0,1-1.1.9,13.391,13.391,0,0,1-1.2.6l-.9.3a1.487,1.487,0,1,1-1-2.8A1.077,1.077,0,0,1,63.315,86.8Z" fill="#c2856e"/>
      </g>
      <g>
        <path d="M72.015,61.3c0,9.9,12.6,9.9,12.6,0C84.515,61.3,78.315,70.7,72.015,61.3Z" fill="#010101"/>
        <path d="M32.615,61.3c0,9.9,12.6,9.9,12.6,0C45.215,61.3,38.915,70.7,32.615,61.3Z" fill="#010101"/>
      </g>
      <g>
        <g>
          <path d="M84.815,34.6l11.5-5.1,17.7,11.9s-12.2,10.5-23.3,3.2Z" fill="#884d3a"/>
          <path d="M86.815,36.7l9.1-3.2,12.9,7.9s-6.1,6.3-19.4-.5Z" fill="#331d15"/>
        </g>
        <g>
          <path d="M32.315,34.6l-11.5-5.1L3.115,41.4s12.2,10.5,23.3,3.2Z" fill="#884d3a"/>
          <path d="M30.315,36.7l-9.1-3.2-12.9,7.9s6.1,6.3,19.4-.5Z" fill="#331d15"/>
        </g>
      </g>
      <path d="M89.315,3.1c14,26.4-.9,31.9-7.5,31.4-2.9-.2-12-9.4-23.1-9.4h0c-11.2,0-20.2,9.2-23.1,9.4-6.5.5-21.4-5-7.5-31.4-27.5,27-4.1,46.9,6.7,44,4.2-1.2,23.9-6,24-6,0,0,19.7,4.8,24,6C93.515,50,116.815,30,89.315,3.1Z" fill="#90806c"/>
      <path d="M32.115,33.4c0-12,11.6-17.2,26.3-17.2,14.6,0,26.7,5.1,26.7,17.2,0,12-11.8,27.9-26.5,27.9C44.015,61.3,32.115,45.5,32.115,33.4Z" fill="#331d15"/>
      <g>
        <path d="M43.915,54.9s-.5-.6-1.2-1.4c-.2-.3-.4-.3-.6-.5s-.4-.3-.6-.5a5.582,5.582,0,0,0-.8-.5l-.9-.5a15.193,15.193,0,0,0-2-.6,16.77,16.77,0,0,0-1.8-.3,11.151,11.151,0,0,0-1.8-.2.2.2,0,1,1,0-.4,10.929,10.929,0,0,1,1.9-.3,12.126,12.126,0,0,1,2-.1c.7,0,1.5.1,2.3.1l1.2.2a5.269,5.269,0,0,1,1.2.3,11.732,11.732,0,0,1,1.1.5c.3.2.8.3,1,.5.9.6,1.6,1,1.6,1a1.8,1.8,0,0,1-2,3A.676.676,0,0,1,43.915,54.9Z" fill="#b4674b"/>
        <path d="M71.015,52.2s.6-.4,1.6-1a4.609,4.609,0,0,1,1-.5,5.361,5.361,0,0,0,1.1-.5,5.282,5.282,0,0,1,1.2-.3l1.2-.2c.8,0,1.6-.1,2.3-.1s1.4.1,2,.1a13.827,13.827,0,0,1,1.9.3c.1,0,.2.2.2.3a.215.215,0,0,1-.2.2,11.151,11.151,0,0,0-1.8.2c-.5.1-1.2.2-1.8.3-.7.2-1.3.4-2,.6l-.9.5a5.582,5.582,0,0,0-.8.5c-.2.2-.4.3-.6.5s-.4.2-.6.5c-.7.8-1.2,1.4-1.2,1.4a1.769,1.769,0,0,1-2.6-2.4C70.715,52.4,70.815,52.3,71.015,52.2Z" fill="#b4674b"/>
      </g>
      <g opacity="0.7">
        <circle cx="79.715" cy="78.4" r="4.1" fill="#b4615c"/>
        <circle cx="37.415" cy="78.4" r="4.1" fill="#b4615c"/>
      </g>
    </g>
  </g>
</svg>
