<svg id="Layer_1" data-name="Layer 1" xmlns="http://www.w3.org/2000/svg" viewBox="0 0 90.301 100.1">
  <title>Artboard 33</title>
  <g>
    <path d="M32.1,93.4c3.8,4.2,8.7,6.7,13,6.7,4.5,0,9.4-2.6,13.3-6.9,15.5-8.1,31.9-24.9,31.9-48.1a34.342,34.342,0,0,0-.4-5.6v-.3c0-.1-.2-1.1-.2-1.1a11.627,11.627,0,0,0-.4-1.8v-.2c-.2-.6-.3-1.2-.5-1.8,0-.1-.1-.2-.1-.4-.2-.5-.3-.9-.5-1.4L88,32a7.742,7.742,0,0,0-.7-1.6v-.1c-.3-.5-.5-1.1-.8-1.6l-.2-.4c-.2-.4-.5-.8-.7-1.2-.1-.1-.1-.2-.2-.3a20.639,20.639,0,0,0,4.7-12.5c.3-5-.9-9.4-3.1-11.6C85.2.9,82.2,0,78.5,0,74,0,67.7,1.5,63.3,5.9c-.4.4-.7.8-1.1,1.2a3.045,3.045,0,0,0-2.7-1.8,41.757,41.757,0,0,0-8.1.9c-.3-1.7-.7-3.4-.7-3.7A2.911,2.911,0,0,0,48.6.2a2.486,2.486,0,0,0-.8-.1,3.1,3.1,0,0,0-2.2.9,47.629,47.629,0,0,0-5.2,6.4,29.491,29.491,0,0,0-5.5-.5c-2.4,0-4.3.2-4.4.2a3.013,3.013,0,0,0-1.7.8c-.5-.7-1.1-1.3-1.7-2C22.8,1.6,16.4,0,11.9,0,8.2,0,5.2,1,3.4,2.7-1.1,7.2-.9,20.1,5,26.8A33.446,33.446,0,0,0,0,45.1C-.1,68.6,16.4,85.4,32.1,93.4Z" fill="#2d2413"/>
    <g>
      <g>
        <g>
          <path d="M82.6,25.2c-5.6,5.6-14,6.3-18.8,1.5S59.7,13.5,65.3,8c5.6-5.6,16.3-6.3,19.4-3.1C87.9,8,88.2,19.6,82.6,25.2Z" fill="#a0b4d2"/>
          <ellipse cx="73.964" cy="16.665" rx="9.7" ry="8.2" transform="translate(9.868 57.163) rotate(-44.984)" fill="#2a394e"/>
        </g>
        <g>
          <path d="M7.6,25.2c5.6,5.6,14,6.3,18.8,1.5S30.5,13.5,24.9,8C19.3,2.4,8.6,1.7,5.5,4.9,2.3,8,2,19.6,7.6,25.2Z" fill="#a0b4d2"/>
          <ellipse cx="16.242" cy="16.52" rx="8.2" ry="9.7" transform="translate(-6.924 16.33) rotate(-45.016)" fill="#2a394e"/>
        </g>
      </g>
      <path d="M2.9,45.1c0-23.9,20.7-32.3,42.2-32.3s42.2,8.4,42.2,32.3c0,32.5-33.5,49.4-42.3,49.4C36.1,94.5,2.9,77.6,2.9,45.1Z" fill="#d0d2d3"/>
      <path d="M2.9,45.1c0-23.9,20.7-32.3,42.2-32.3s42.2,8.4,42.2,32.3c0,32.5-33.5,49.4-42.3,49.4C36.1,94.5,2.9,77.6,2.9,45.1Z" fill="#a0b4d2"/>
      <g>
        <path d="M3.3,39.9c5.4,18,28.1,35.2,28.1,35.2l9.5-8.2s-8.1-29.4-7.5-53.1C18.3,16.2,5.6,23.9,3.3,39.9Z" fill="#384c69"/>
        <path d="M86.9,39.6C84.5,23.9,71.8,16.2,56.8,13.7c.6,23.7-7.5,53.1-7.5,53.1L58.8,75S81.6,57.8,86.9,39.8Z" fill="#384c69"/>
      </g>
      <path d="M61.5,78.5c0,9.1-8.8,18.6-16.4,18.6S28.7,87.6,28.7,78.5s7.3-12,16.4-12S61.5,69.4,61.5,78.5Z" fill="#dfe6f0"/>
      <path d="M53.8,68.9c0,4.8-6.9,8.7-8.7,8.7-1.9,0-8.7-3.9-8.7-8.7C36.4,64,53.8,64,53.8,68.9Z" fill="#010101"/>
      <g>
        <g>
          <g>
            <circle cx="61.501" cy="57.9" r="8.4" fill="#231f20"/>
            <path d="M61.5,50.5a7.4,7.4,0,1,1-7.4,7.4,7.383,7.383,0,0,1,7.4-7.4m0-2.1A9.5,9.5,0,1,0,71,57.9a9.5,9.5,0,0,0-9.5-9.5Z" fill="#808184"/>
          </g>
          <path d="M66.3,56.2a2.8,2.8,0,1,1-2.8-2.8A2.8,2.8,0,0,1,66.3,56.2Z" fill="#fff"/>
        </g>
        <g>
          <g>
            <circle cx="28.701" cy="57.9" r="8.4" fill="#231f20"/>
            <path d="M28.7,50.5a7.4,7.4,0,1,1-7.4,7.4,7.383,7.383,0,0,1,7.4-7.4m0-2.1a9.5,9.5,0,1,0,9.5,9.5,9.5,9.5,0,0,0-9.5-9.5Z" fill="#808184"/>
          </g>
          <circle cx="30.001" cy="56.2" r="2.8" fill="#fff"/>
        </g>
      </g>
      <path d="M38.4,91.5a1.167,1.167,0,0,1-1.1-.7,1.31,1.31,0,0,1,.5-1.7l13.5-6.9a1.253,1.253,0,1,1,1.2,2.2L39,91.3A3.933,3.933,0,0,1,38.4,91.5Z" fill="#010101"/>
      <g>
        <path d="M60.6,40.6l13.3-1a.265.265,0,0,1,.3.3c0,.1-.1.3-.2.3L61.8,45.6a2.574,2.574,0,0,1-2.1-4.7A1.613,1.613,0,0,1,60.6,40.6Z" fill="#231f20"/>
        <path d="M28.4,45.5,16.2,40.1a.4.4,0,0,1-.2-.4c.1-.1.2-.2.3-.2l13.3,1a2.608,2.608,0,0,1-.4,5.2A3.1,3.1,0,0,1,28.4,45.5Z" fill="#231f20"/>
      </g>
      <path d="M36.1,16.1A70.777,70.777,0,0,1,30.7,10s7.3-.9,11,.9C42.4,8.4,47.5,3,47.5,3s1.1,5.4,1.3,7.1c4.1-1.8,10.6-1.8,10.6-1.8s-7.9,8.3-7.8,8.3" fill="#a0b4d2"/>
      <g>
        <path d="M63.9,75.1l4.2-3.8a3.4,3.4,0,1,1,4.6,5,3.717,3.717,0,0,1-1.9.9l-5.7.6a1.556,1.556,0,0,1-1.7-1.4A1.9,1.9,0,0,1,63.9,75.1Z" fill="#cd6733"/>
        <path d="M25.1,77.8l-5.7-.6a3.423,3.423,0,0,1,.8-6.8,3.1,3.1,0,0,1,1.9.9l4.2,3.8a1.569,1.569,0,0,1,.1,2.2A2.107,2.107,0,0,1,25.1,77.8Z" fill="#cd6733"/>
      </g>
    </g>
  </g>
</svg>
