<svg id="Layer_1" data-name="Layer 1" xmlns="http://www.w3.org/2000/svg" viewBox="0 0 119.557 106.9">
  <title>Artboard 34</title>
  <g>
    <path d="M102.179,39a14.849,14.849,0,0,0-8.2,2.5c-.5.3-.9.6-1.4.9l-.5.3-.9-1.5.1-.1c.7-.8,1.3-1.6,2-2.4l.2-.3c.2-.2.3-.5.5-.7l.3-.4c.2-.2.3-.5.5-.7a3.209,3.209,0,0,0,.3-.5,10.932,10.932,0,0,0,.8-1.5l.2-.4.3-.6s.2-.5.3-.7.2-.5.3-.7.2-.5.3-.7.2-.5.3-.7a2.354,2.354,0,0,0,.2-.8l.3-.9c.1-.3.2-.7.3-1.1,0-.2.1-.4.1-.7a2.769,2.769,0,0,0,.1-.9c0-.2.1-.5.1-.7,0-.3.1-.6.1-.9,0,0,0-.5.1-.6V21a1.952,1.952,0,0,0-.1-.7c0-.4-.1-.7-.1-1.1,0-.2-.1-.4-.1-.7-.1-.4-.1-.8-.2-1.2a4.333,4.333,0,0,1-.1-.5c-.1-.6-.3-1.1-.4-1.7,0-.1-.1-.2-.1-.4v-.1c-.1-.4-.3-.9-.4-1.3a3.934,3.934,0,0,1-.2-.6,6.111,6.111,0,0,0-.5-1.2,1.422,1.422,0,0,1-.2-.6,6.111,6.111,0,0,0-.7-1.4l-.2-.4a16.185,16.185,0,0,0-1-1.8l-.3-.5c-.3-.4-.5-.9-.8-1.3-.1-.2-.3-.4-.4-.6-.3-.4-.6-.9-.9-1.3a6.117,6.117,0,0,0-.4-.6c-.4-.6-.9-1.2-1.4-1.9a3.194,3.194,0,0,0-2.4-1.1,2.3,2.3,0,0,0-1.4.4,2.937,2.937,0,0,0-1.4,3.6,17.237,17.237,0,0,1,.7,2.1l.2.6a8.333,8.333,0,0,1,.4,1.5l.1.5a12.863,12.863,0,0,1,.4,1.9v.2c.1.6.2,1.1.3,1.6l.1.5c.1.5.1.9.2,1.3v.3a8.085,8.085,0,0,1,.1,1.6v1.8a4.1,4.1,0,0,1-.1,1.1v.2a5.016,5.016,0,0,1-.2,1.2v.3c-.1.3-.1.6-.2.9l-.1.3c-.1.3-.1.6-.2.8l-.1.2-.3.9-.1.3a4.876,4.876,0,0,0-.3.7l-.1.2-.3.6-.2.3c-.1.2-.3.4-.4.6l-.2.3c-.1.1-.2.3-.3.4s-.2.2-.2.3l-.3.3a3.172,3.172,0,0,1-.6.5l-.2.2a1.382,1.382,0,0,1-.4.3l-.3.2c-.1.1-.3.2-.4.3l-.1.1a8.791,8.791,0,0,1-1,.6.349.349,0,0,1-.2.1c-.2.1-.3.2-.5.3l1.3,2.7-.9-1.5v-.1l-.1-.1-.5-.9c-.1,0-.2.1-.3.1l-.5-.6a2.184,2.184,0,0,1-.4-.5l-.3-.3-.8-.8c-.1-.1-.2-.1-.2-.2a5.548,5.548,0,0,0-.8-.6c-.1-.1-.2-.1-.4-.2a2.011,2.011,0,0,0-.8-.4c-.1-.1-.2-.1-.4-.2a6.936,6.936,0,0,1,1-1.2,3,3,0,0,0,1-3.3,2.913,2.913,0,0,0-2.8-2h-.2c-2.8,0-9.3.3-13,2.8h-.4c-2.9,0-7.7-1.8-9.3-2.5a2.537,2.537,0,0,0-1.2-.2,2.883,2.883,0,0,0-2.6,1.6,10.529,10.529,0,0,0-1.3,5.6,19.385,19.385,0,0,0-5.5,2.6l-.1.1c-.2.2-.5.3-.7.5h0c-.2-.1-.5-.2-.7-.3l-.6-.3-.1-.1a13.032,13.032,0,0,1-1.5-1l-.2-.2c-.1-.1-.3-.2-.4-.3l-.2-.2a3.172,3.172,0,0,0-.6-.5l-.3-.3c-.1-.1-.1-.2-.2-.2,0,0-.3-.3-.3-.4-.1-.1-.2-.2-.2-.3a2.186,2.186,0,0,1-.3-.5.52.52,0,0,1-.2-.4,2.091,2.091,0,0,0-.4-.6l-.2-.3-.3-.6c0-.1-.1-.2-.1-.3l-.3-.9V23a3.092,3.092,0,0,1-.2-.8l-.1-.4c-.1-.3-.1-.5-.2-.8l-.1-.4a4.87,4.87,0,0,1-.1-1.2v-.3a3.4,3.4,0,0,0-.1-1V16.3c0-.5.1-1,.1-1.5v-.4a5.016,5.016,0,0,1,.2-1.2l.1-.5.3-1.5.1-.3c.1-.6.3-1.2.4-1.8l.1-.5c.1-.5.3-1,.4-1.5l.2-.6a17.237,17.237,0,0,1,.7-2.1,2.937,2.937,0,0,0-1.4-3.6,2.734,2.734,0,0,0-1.4-.4,3.2,3.2,0,0,0-2.4,1.1,23.076,23.076,0,0,0-1.4,1.9l-.4.6c-.3.4-.6.9-.9,1.3l-.4.6a10,10,0,0,0-.8,1.4l-.3.5c-.3.6-.7,1.2-1,1.8l-.2.3c-.2.5-.5,1-.7,1.5a1.422,1.422,0,0,0-.2.6c-.2.4-.3.8-.5,1.3-.1.2-.1.3-.2.5-.2.5-.3,1-.5,1.5l-.1.2a13.639,13.639,0,0,0-.4,1.7l-.1.5a5.021,5.021,0,0,0-.2,1.2c0,.2-.1.4-.1.6a4.87,4.87,0,0,0-.1,1.2v.5c0,.5-.1,1.1-.1,1.6V25c0,.4.1.7.1,1a1.269,1.269,0,0,0,.1.6c.1.4.1.7.2,1.1a2.035,2.035,0,0,1,.1.5l.3,1.5.1.4c.1.3.2.7.3,1,.1.2.1.4.2.6l.3.9.2.5a10.393,10.393,0,0,1,.4,1l.2.4.6,1.2.3.5c.1.3.3.5.4.8a2.186,2.186,0,0,0,.3.5,5.577,5.577,0,0,1,.5.8l.3.4c.2.3.5.6.7.9.1.2.3.3.4.5.2.2.4.5.6.7,0,0,.5.6.6.7l-.9,1.5s-1.2-.8-1.7-1.1a15.708,15.708,0,0,0-8.2-2.5c-9.9,0-16.7,10.3-17,10.8a3.1,3.1,0,0,0-.4,2.3c.1.4.2.7.3,1.1,0,.1.1.2.1.3a4.87,4.87,0,0,0,.3.7.6.6,0,0,1,.1.4,5.9,5.9,0,0,0,.4.8l.1.3a9.294,9.294,0,0,1,.5,1h0l.6.9.2.3c.2.2.3.4.5.6l.3.3c.2.2.3.4.5.6l.3.3c.2.2.4.5.6.7l.2.2.8.8.4.3c.2.1.3.3.5.4.1.1.3.2.4.3.2.1.3.3.5.4s.3.2.5.3a2.189,2.189,0,0,0,.5.3c.3.2.7.4,1,.6l.4.2a2.181,2.181,0,0,1,.5.3l.2.1.3.2a4.89,4.89,0,0,0,.7.3l.4.2c.2.1.5.2.7.3l.2.1a23.079,23.079,0,0,0,2.8,1h.1a2.92,2.92,0,0,0,.9.2h.2a20.07,20.07,0,0,0,4.2.5h1.2a2.77,2.77,0,0,0,.9-.1c.1.4.1.8.2,1.2V69a15.519,15.519,0,0,0,.4,2.1v.1a36.858,36.858,0,0,0,1,3.9v.1c.2.6.4,1.1.6,1.7l.1.1.6,1.5.1.1a10.932,10.932,0,0,0,.8,1.5c9.5,16.6,16.2,26.8,32.6,26.8h.2c16.4,0,23.1-10.2,32.6-26.8a6.111,6.111,0,0,0,.7-1.4l.1-.2c.2-.5.4-.9.6-1.5l.1-.2c.2-.5.4-1,.6-1.6l.1-.2a10.543,10.543,0,0,0,.5-1.9,12.863,12.863,0,0,0,.4-1.9V71c.1-.6.2-1.3.3-1.9v-.3c.1-.4.1-.7.2-1.1h0a2.2,2.2,0,0,1,.8.1h1.4a10.871,10.871,0,0,0,1.8-.1h.2c.3,0,.5-.1.8-.1l.5-.1c.2,0,.5-.1.7-.1a2.035,2.035,0,0,0,.5-.1,1.421,1.421,0,0,0,.6-.2,4.333,4.333,0,0,0,.5-.1,5.632,5.632,0,0,0,1.2-.4,1.689,1.689,0,0,0,.5-.2c.2-.1.3-.1.5-.2l.1-.1c.2-.1.3-.1.5-.2l.6-.3a30995627556677.492,30995627556677.492,0,0,1,1-.6l.6-.3a1.23,1.23,0,0,1,.5-.2l.9-.6a3.99,3.99,0,0,1,.4-.3c.2-.1.4-.3.6-.4.1-.1.3-.2.4-.3.2-.1.4-.3.6-.4l.4-.3a4.351,4.351,0,0,1,.7-.6l.2-.2a6.036,6.036,0,0,0,.8-.8l.2-.2a4.347,4.347,0,0,0,.6-.7l.3-.3c.2-.2.3-.4.5-.6.1-.1.2-.2.2-.3a4.234,4.234,0,0,0,.5-.7l.1-.2a8.787,8.787,0,0,0,.6-1l.1-.1c.2-.3.3-.6.5-.9,0-.1.1-.2.2-.3a5.9,5.9,0,0,1,.4-.8l.1-.3a6.884,6.884,0,0,0,.3-.8l.1-.3c.1-.4.2-.7.3-1.1a3.1,3.1,0,0,0-.4-2.3C118.879,49.4,112.079,39,102.179,39Z" fill="#2d2413"/>
    <g>
      <path d="M95.479,44.1c-2,1.2-3.5,2.2-4.7,3a25.345,25.345,0,0,0-3.5-6.2c8.4-8.2,13.5-21.6.5-38.1,6.9,19.7-.3,28.1-8.5,30.9a3,3,0,0,0-.8-.4c-1.6-2.1-3.2-4.2-6.3-4.6-1-3.1,2.3-5.7,2.3-5.7s-8.8-.1-12,2.6c-3.9,1-12.1-2.5-12.1-2.5s-2.9,5.4,1.2,6.2a21.935,21.935,0,0,0-10,3.7c-.5.2-.9.5-1.4.7-8.2-2.9-15.3-11.3-8.4-30.9-13,16.4-8,29.8.4,38a29.1,29.1,0,0,0-3.5,6.2c-1.1-.8-2.6-1.7-4.5-2.9-11.7-7.3-21.1,7.4-21.1,7.4,1.8,8.1,12.9,15.4,23,12.6.3,5.9,1.8,11.2,3.6,14.4,9.5,16.6,15.5,25.3,30,25.3h.2c14.5,0,20.5-8.7,30-25.3,1.8-3.2,3.3-8.5,3.6-14.4,10.1,2.9,21.3-4.4,23.1-12.6C116.579,51.4,107.279,36.8,95.479,44.1Z" fill="#c35d58"/>
      <g>
        <g>
          <g>
            <path d="M87.379,49.7s1.3-1.4,8.1-5.6c11.7-7.3,21.1,7.4,21.1,7.4-2.2,10.1-18.8,18.9-30.1,8.7Z" fill="#763e2a"/>
            <path d="M90.679,54.9a25.263,25.263,0,0,0,7.3-5.2c5-5.4,11.3,3.9,11.3,3.9-1.2,5.4-10.5,12.5-19.4,4.1Z" fill="#c35d58"/>
          </g>
          <g>
            <path d="M32.379,49.7s-1.3-1.4-8.1-5.6c-11.7-7.3-21.1,7.4-21.1,7.4,2.2,10.1,18.8,18.9,30.1,8.7Z" fill="#763e2a"/>
            <path d="M29.079,54.9a25.263,25.263,0,0,1-7.3-5.2c-5-5.4-11.3,3.9-11.3,3.9,1.2,5.4,10.5,12.5,19.4,4.1Z" fill="#c35d58"/>
          </g>
        </g>
        <path d="M60.079,29.2h-.4c-38.3,0-36.3,37.9-29.8,49.3,9.5,16.6,15.5,25.3,30,25.3h.2c14.5,0,20.5-8.7,30-25.3C96.379,67,98.379,29.2,60.079,29.2Z" fill="#763e2a"/>
        <path d="M69.479,73s3.3,14.4,2.6,17.5c-.7,2.8-4.9-.2-12.4-.2-8.1,0-11.7,3.5-12.1.2-.4-3.1,2.3-17.5,2.3-17.5s-2.5-17.3,9.8-17.3C72.079,55.7,69.479,73,69.479,73Z" fill="#4d2b2d"/>
        <path d="M47.679,91.3c0,6.8,2.8,8.3,12.2,8.3s12.2-1.6,12.2-8.3c0-6.8-5.5-9.9-12.2-9.9S47.679,84.5,47.679,91.3Z" fill="#b49193"/>
        <g>
          <path d="M55.279,92.2l-.9-.3a4.789,4.789,0,0,1-1.1-.5,3.913,3.913,0,0,1-1-.8,5.316,5.316,0,0,1-1.4-2.8c0-.1,0-.2.1-.2s.1,0,.2.1c0,0,.2.3.5.7a3.306,3.306,0,0,0,1.5,1,3.092,3.092,0,0,0,.8.2c.3,0,.3.1.7,0a4.128,4.128,0,0,0,.9-.1,1.358,1.358,0,1,1,.3,2.7A.637.637,0,0,1,55.279,92.2Z" fill="#422526"/>
          <path d="M64.179,89.6a5.106,5.106,0,0,1,.9.1h.7a3.092,3.092,0,0,0,.8-.2,5.6,5.6,0,0,0,1.5-1,2.053,2.053,0,0,0,.5-.7c0-.1.1-.1.2-.1s.1.1.1.2a5.317,5.317,0,0,1-1.4,2.8,3.915,3.915,0,0,1-1,.8,4.791,4.791,0,0,1-1.1.5,7.8,7.8,0,0,1-.9.3,1.36,1.36,0,1,1-.8-2.6A1.085,1.085,0,0,1,64.179,89.6Z" fill="#422526"/>
        </g>
        <g>
          <path d="M80.179,46.3c11.6-6.7,24.2-22.6,7.7-43.5,9.4,26.7-7.2,32.6-17.1,32.1C67.579,44.1,80.179,46.3,80.179,46.3Z" fill="#b49193"/>
          <path d="M39.679,46.3c-11.6-6.7-24.2-22.6-7.7-43.5-9.4,26.7,7.2,32.6,17.1,32.1C52.279,44.1,39.679,46.3,39.679,46.3Z" fill="#b49193"/>
        </g>
        <g>
          <g>
            <g>
              <path d="M76.879,73.7a7.341,7.341,0,0,1-7.3-7.3V66l.2-.3c.1-.2,3.2-5.7,8-5.7a7.731,7.731,0,0,1,4.9,2l.1.1.1.2a6.971,6.971,0,0,1,1.3,4.2A7.192,7.192,0,0,1,76.879,73.7Z" fill="#010101"/>
              <path d="M77.779,61.3a6.877,6.877,0,0,1,4,1.6,5.754,5.754,0,0,1,1.1,3.4,5.9,5.9,0,0,1-11.8,0c-.1,0,2.7-5,6.7-5m0-2.8c-5.6,0-8.9,5.8-9.3,6.5l-.3.6v.7a8.7,8.7,0,0,0,17.4,0,8.278,8.278,0,0,0-1.6-5l-.2-.3-.3-.2a8.651,8.651,0,0,0-5.7-2.3Z" fill="#a27866"/>
            </g>
            <circle cx="78.579" cy="66.6" r="1.8" fill="#fff"/>
          </g>
          <g>
            <g>
              <path d="M42.879,73.7a7.341,7.341,0,0,1-7.3-7.3V66l.2-.3c.1-.2,3.2-5.7,8-5.7a7.731,7.731,0,0,1,4.9,2l.1.1.1.2a6.971,6.971,0,0,1,1.3,4.2A7.321,7.321,0,0,1,42.879,73.7Z" fill="#010101"/>
              <path d="M43.779,61.3a6.877,6.877,0,0,1,4,1.6,5.754,5.754,0,0,1,1.1,3.4,5.9,5.9,0,0,1-11.8,0c-.1,0,2.7-5,6.7-5m0-2.8c-5.6,0-8.9,5.8-9.3,6.5l-.3.6v.7a8.7,8.7,0,0,0,17.4,0,8.278,8.278,0,0,0-1.6-5l-.2-.3-.3-.2a8.85,8.85,0,0,0-5.7-2.3Z" fill="#a27866"/>
            </g>
            <circle cx="44.479" cy="66.6" r="1.8" fill="#fff"/>
          </g>
        </g>
        <path d="M51.679,29.2c-4.1-.8-1.2-6.2-1.2-6.2s8.1,3.5,12.1,2.5c3.3-2.7,12-2.6,12-2.6s-3.3,2.6-2.3,5.7c5,.6,6.1,5.9,9.7,7.8a18.216,18.216,0,0,1-8.1.7s-5.5,5-2.1,10.2c-8.7-5.8-9.2-8.5-9.2-8.5s-11.1.4-15.2,7.4a61.223,61.223,0,0,1,1.5-10.3,13.546,13.546,0,0,0-10.9.8C42.579,29.8,51.679,29.2,51.679,29.2Z" fill="#422526"/>
        <g>
          <path d="M45.479,57.9a16.429,16.429,0,0,1-1.2-1.4c-.2-.3-.4-.3-.6-.4a2.651,2.651,0,0,1-.6-.5,5.583,5.583,0,0,0-.8-.5l-.9-.4a13.894,13.894,0,0,0-1.9-.6,13.493,13.493,0,0,0-1.8-.3,11.151,11.151,0,0,0-1.8-.2.2.2,0,1,1,0-.4,10.769,10.769,0,0,1,1.8-.3,11.486,11.486,0,0,1,1.9-.1c.7,0,1.5.1,2.3.1l1.2.2a5.269,5.269,0,0,1,1.2.3,11.726,11.726,0,0,1,1.1.5c.3.2.8.3.9.5l1.5,1a1.734,1.734,0,0,1-1.9,2.9Z" fill="#422526"/>
          <path d="M72.079,55.3l1.5-1a7.253,7.253,0,0,1,.9-.5,5.359,5.359,0,0,0,1.1-.5,5.282,5.282,0,0,1,1.2-.3l1.2-.2c.8,0,1.6-.1,2.3-.1s1.4.1,1.9.1a10.753,10.753,0,0,1,1.8.3c.1,0,.2.1.2.3a.215.215,0,0,1-.2.2,11.151,11.151,0,0,0-1.8.2,16.739,16.739,0,0,0-1.8.3,13.9,13.9,0,0,0-1.9.6l-.9.4a5.583,5.583,0,0,0-.8.5c-.2.2-.4.3-.6.5s-.4.2-.6.4c-.7.8-1.2,1.4-1.2,1.4a1.769,1.769,0,0,1-2.6-2.4C71.879,55.5,71.979,55.4,72.079,55.3Z" fill="#422526"/>
        </g>
        <g opacity="0.9">
          <circle cx="79.579" cy="80.3" r="4.6" fill="#ce7c79"/>
          <circle cx="40.279" cy="80.3" r="4.6" fill="#ce7c79"/>
        </g>
      </g>
    </g>
  </g>
</svg>
