<svg id="Layer_1" data-name="Layer 1" xmlns="http://www.w3.org/2000/svg" viewBox="0 0 128.652 109">
  <title>Artboard 42</title>
  <g>
    <path d="M126.347,39.3l-21.4-5.4a1.7,1.7,0,0,0-.7-.1,3.554,3.554,0,0,0-1,.2l-3.3,1.2c2.2-14-8.6-27.2-15.8-34.3a2.878,2.878,0,0,0-2.1-.9,3.036,3.036,0,0,0-2.7,4.4c10.8,20.5,8.7,26.3,6.9,28.4a31.478,31.478,0,0,1-3.1-2,74.938,74.938,0,0,0-7.7-4.5c-.9-2.3-3.1-5.1-8.8-5.3h-.8a12.475,12.475,0,0,0-9.6,4.2,60.322,60.322,0,0,0-10.5,5.6,32.918,32.918,0,0,1-3.4,2c-1.7-2.1-4-7.9,6.9-28.4a3.036,3.036,0,0,0-2.7-4.4,2.878,2.878,0,0,0-2.1.9c-7.2,7.1-18,20.3-15.8,34.3l-3.3-1.2a3.554,3.554,0,0,0-1-.2,1.7,1.7,0,0,0-.7.1l-21.4,5.4a2.943,2.943,0,0,0-1.8,4.4c.3.5,7.4,12.6,21.9,12.6a24.528,24.528,0,0,0,4.6-.4,25.054,25.054,0,0,0-.6,5.5c0,10.3,4,22,10.8,31.3,7.6,10.5,17.3,16.3,27.2,16.3s19.5-5.8,27.2-16.3c6.8-9.4,10.8-21.1,10.8-31.3a25.736,25.736,0,0,0-.6-5.5,24.528,24.528,0,0,0,4.6.4c14.6,0,21.6-12.1,21.9-12.6a3.185,3.185,0,0,0,.2-2.7A3.524,3.524,0,0,0,126.347,39.3Z" fill="#2d2413"/>
    <g>
      <path d="M99.247,61.4c0,19.3-15.7,44.7-35,44.7s-35-25.4-35-44.7,23.3-34,35-34S99.247,42,99.247,61.4Z" fill="#bbbdbf"/>
      <path d="M77.547,84.7c0,7.4,1.8,15.3-13.3,15.3s-13.3-7.9-13.3-15.3c7-8.5,5.2-16.4,13.3-16.4S71.247,76.8,77.547,84.7Z" fill="#fff"/>
      <g>
        <path d="M77.447,92.7c0-7.3-11.1-10.9-13.2-10.9s-13.2,3.6-13.2,10.9,5.9,8.6,13.2,8.6S77.447,100,77.447,92.7Z" fill="#414142"/>
        <g>
          <path d="M59.247,96.4a15.409,15.409,0,0,1-2.1-.8,3.332,3.332,0,0,1-1.1-.9,5.617,5.617,0,0,1-1.5-3,.215.215,0,0,1,.2-.2c.1,0,.1,0,.2.1a5.164,5.164,0,0,0,.6.7,4.573,4.573,0,0,0,1.6,1.1c.3.1.6.3.9.2.3,0,.4.1.7,0a4.532,4.532,0,0,0,1-.1,1.458,1.458,0,0,1,.3,2.9A2.08,2.08,0,0,1,59.247,96.4Z" fill="#929497"/>
          <path d="M68.847,93.5a6.728,6.728,0,0,1,1,.1,1.577,1.577,0,0,0,.7,0,3.717,3.717,0,0,0,.9-.2,6.444,6.444,0,0,0,1.6-1.1,5.164,5.164,0,0,0,.6-.7c0-.1.2-.1.2-.1.1,0,.1.1.1.2a5.617,5.617,0,0,1-1.5,3,3.329,3.329,0,0,1-1.1.9,3.847,3.847,0,0,1-1.2.5l-.9.3a1.423,1.423,0,1,1-.9-2.7C68.447,93.5,68.647,93.5,68.847,93.5Z" fill="#929497"/>
        </g>
      </g>
      <g>
        <g>
          <path d="M86.547,71.1a6.5,6.5,0,1,1-6.5-6.5A6.487,6.487,0,0,1,86.547,71.1Z" fill="#231f20"/>
          <circle cx="80.947" cy="73" r="2.5" fill="#fff"/>
        </g>
        <g>
          <path d="M42.047,71.1a6.5,6.5,0,1,0,6.5-6.5A6.487,6.487,0,0,0,42.047,71.1Z" fill="#231f20"/>
          <circle cx="49.447" cy="73" r="2.5" fill="#fff"/>
        </g>
      </g>
      <g>
        <path d="M52.947,62.2s-.5-.6-1.4-1.5c-.2-.3-.4-.3-.6-.5s-.5-.3-.7-.5a7.257,7.257,0,0,0-.9-.5l-1-.5c-.7-.2-1.4-.5-2.2-.7a17.664,17.664,0,0,0-2-.4,13.472,13.472,0,0,0-2-.2.2.2,0,1,1,0-.4s.8-.2,2.1-.4c.6-.1,1.4-.1,2.2-.2.8,0,1.7.1,2.5.1l1.3.2a6.1,6.1,0,0,1,1.3.3c.4.2.8.3,1.2.5a11.734,11.734,0,0,1,1.1.5c1,.7,1.7,1.1,1.7,1.1a1.956,1.956,0,1,1-2.1,3.3A.365.365,0,0,1,52.947,62.2Z" fill="#414142"/>
        <path d="M72.947,59.3s.7-.4,1.7-1.1a5.822,5.822,0,0,1,1.1-.5c.4-.2.8-.3,1.2-.5a6.116,6.116,0,0,1,1.3-.3l1.3-.2a21.756,21.756,0,0,1,2.5-.1,14.983,14.983,0,0,1,2.2.2,9.963,9.963,0,0,1,2.1.4c.1,0,.2.2.2.3a.215.215,0,0,1-.2.2,13.472,13.472,0,0,0-2,.2,17.637,17.637,0,0,0-2,.4c-.7.2-1.4.4-2.2.7l-1,.5a7.255,7.255,0,0,0-.9.5,3.04,3.04,0,0,1-.7.5c-.2.2-.4.2-.6.5-.8.9-1.4,1.5-1.4,1.5a1.985,1.985,0,0,1-3-2.6A1.894,1.894,0,0,1,72.947,59.3Z" fill="#414142"/>
      </g>
      <g>
        <g>
          <path d="M38.147,41.8l-13.9-5-21.4,5.4s9.2,16,28.1,9.5Z" fill="#bbbdbf"/>
          <path d="M35.747,43.9l-10.9-3.2-15.5,5.4s7.3,8.6,23.5,1.9Z" fill="#414142"/>
        </g>
        <g>
          <path d="M90.347,41.8l13.9-5,21.4,5.4s-9.2,16-28.1,9.5Z" fill="#bbbdbf"/>
          <path d="M92.747,43.9l10.9-3.2,15.5,5.4s-7.3,8.6-23.5,1.9Z" fill="#414142"/>
        </g>
      </g>
      <path d="M41.147,35.9c-2.2-2-8.4-6.7,5.4-32.9-27.2,26.7-10.3,43.8-6.2,45.3s24.1-5.9,24.1-5.9,19.6,7.4,23.7,5.9,21-18.6-6.2-45.3c13.8,26.2,7.6,30.9,5.4,32.9-2.1,2-11.9-9.3-22.9-9.3S43.247,37.9,41.147,35.9Z" fill="#595a5c"/>
      <path d="M66.347,24c-10-.5-10.8,10.2-10.8,10.2a8.812,8.812,0,0,1,5.9-1.1c.3,3.7.3,5.8.3,5.8s5.2-2.7,5.9-5.5c1.8.3,2.4,4.7,2.4,4.7S78.347,24.6,66.347,24Z" fill="#bbbdbf"/>
      <g opacity="0.7">
        <path d="M87.047,86.7a3.536,3.536,0,0,0-5-5c-1.4,1.4-.9,5.8-.9,5.8S85.747,88.1,87.047,86.7Z" fill="#f04d23"/>
        <path d="M41.447,86.7a3.536,3.536,0,0,1,5-5c1.4,1.4.9,5.8.9,5.8S42.747,88.1,41.447,86.7Z" fill="#f04d23"/>
      </g>
    </g>
  </g>
</svg>
