<svg id="Layer_1" data-name="Layer 1" xmlns="http://www.w3.org/2000/svg" viewBox="0 0 101.956 127.5">
  <title>Artboard 21</title>
  <g>
    <path d="M98.578,0a5.018,5.018,0,0,0-1.2.2c-4.4,1.8-8.7,3.2-12.9,4.5-10.8,3.4-21.1,6.5-27.3,17.4-2.9,5-4.5,8.5-5.2,11.3h-2.4c-.7-2.8-2.3-6.3-5.2-11.3-6.3-10.9-16.5-14.1-27.3-17.4A124.31,124.31,0,0,1,4.178.2a2.537,2.537,0,0,0-1.2-.2,2.7,2.7,0,0,0-2.2,1,3.018,3.018,0,0,0-.4,3.5c.3.6.6,1.1.9,1.7l.2.3c.3.5.5,1,.8,1.5l.1.3c.2.5.5,1,.7,1.4l.1.2c.2.5.4,1,.7,1.6l.1.3c.2.5.4.9.6,1.4l.1.3c.2.4.3.8.5,1.2l.1.2c.2.4.3.9.5,1.3l.1.4c.1.4.3.8.4,1.3,0,0,.3,1,.4,1.3,0,0,.3,1.1.4,1.5l.4,1.4.7,2.4.9,3.3.4,1.4c.3.8.5,1.6.8,2.4l.1.2c.1.4.3.8.4,1.1l.1.2a10.355,10.355,0,0,0,.4,1v.1c.2.4.3.7.5,1.1l.1.2c.2.3.4.7.6,1l.1.2a8.782,8.782,0,0,1,.6,1l.1.1a6.072,6.072,0,0,0,.7,1l.2.2c.2.3.5.6.7.9l.1.1a6.475,6.475,0,0,0,.8.9l.1.1.9.9.2.2a9.019,9.019,0,0,0,1,.9l.1.1c.2.2.4.3.6.5-7.4,6.2-11.4,15.2-11.4,26.3,0,23.3,14.9,41.3,29.1,50.5,2.2,4.7,7,7.1,14.4,7.1,7.5,0,12.4-2.5,14.5-7.3,14.2-9.3,29-27.2,29-50.3,0-11.1-3.9-20.1-11.4-26.3.2-.2.4-.3.6-.5l.1-.1c.3-.3.7-.6,1-.9l.2-.2.9-.9.2-.2c.3-.3.5-.6.8-.9l.1-.1a8.741,8.741,0,0,0,.8-1l.2-.2a8.647,8.647,0,0,0,.7-1l.1-.1.6-.9.1-.2c.2-.3.4-.7.6-1l.1-.2c.2-.4.3-.7.5-1.1s.3-.7.5-1.1l.1-.1a10.4,10.4,0,0,1,.5-1.2l-2.8-1,2.9.9c.3-.8.5-1.6.8-2.5.1-.4.3-.8.4-1.3v-.1c.3-1,.6-2.1.9-3.2l.4-1.3.6-2s.4-1.2.5-1.6l.5-1.7c.1-.4.3-.8.4-1.3l.1-.4c.2-.4.3-.9.5-1.3l.1-.3a6.115,6.115,0,0,1,.5-1.2l.1-.3c.2-.5.4-.9.6-1.4l.1-.3.6-1.5-2.7-1.2h0l2.8,1.1a6.111,6.111,0,0,1,.7-1.4l.1-.3c.2-.5.5-1,.8-1.6l.2-.3c.3-.5.6-1.1.9-1.7a3.036,3.036,0,0,0-.4-3.5A5.325,5.325,0,0,0,98.578,0Z" fill="#2d2413"/>
    <g>
      <g>
        <g>
          <path d="M62.778,48.7c-2.5-13.2-15-4.2-3-25.1,7.9-13.8,22.7-13.9,38.8-20.6C84.578,28.3,95.978,40.2,62.778,48.7Z" fill="#5d4746"/>
          <path d="M98.578,3c-11.5,20.8-5.8,32.5-21.9,40.8C73.078,45.6,71.378,31.5,98.578,3Z" fill="#c79896"/>
        </g>
        <g>
          <path d="M38.678,48.7c2.5-13.2,15-4.2,3-25.1C33.778,9.8,18.978,9.7,2.878,3,16.878,28.3,5.478,40.2,38.678,48.7Z" fill="#5d4746"/>
          <path d="M2.878,3c11.5,20.8,5.8,32.5,21.9,40.8C28.278,45.6,29.978,31.5,2.878,3Z" fill="#c79896"/>
        </g>
      </g>
      <path d="M10.178,69.7c0-24.6,19.9-32.9,40.5-32.9s40.5,8.4,40.5,32.9c0,33.4-32.2,53.3-40.7,53.3C42.078,123,10.178,103.1,10.178,69.7Z" fill="#5d4746"/>
      <path d="M50.678,108.6c-4.8,0-42.4-72.2,0-72.2S55.578,108.6,50.678,108.6Z" fill="#a37d7d"/>
      <g>
        <path d="M63.478,113.8c0,6.1-3.1,10.5-12.7,10.5-9.7,0-12.7-4.4-12.7-10.5s5.7-9.2,12.7-9.2S63.478,107.6,63.478,113.8Z" fill="#f6d4d2"/>
        <g>
          <path d="M55.378,110.2a4.532,4.532,0,0,1,.8.1h.6a1.953,1.953,0,0,0,.7-.1,3.926,3.926,0,0,0,1.3-.6l.5-.5c0-.1.1-.1.2,0a.349.349,0,0,1,.1.2s-.1.3-.3.8a4.89,4.89,0,0,1-1.2,1.5l-.9.6a6.316,6.316,0,0,1-.9.4c-.4.1-.7.2-.7.2a1.265,1.265,0,0,1-.8-2.4C54.978,110.1,55.178,110.1,55.378,110.2Z" fill="#5d4746"/>
          <path d="M45.878,112.6s-.3-.1-.7-.2a3.077,3.077,0,0,1-.9-.4,1.8,1.8,0,0,1-.9-.6,3.338,3.338,0,0,1-1.2-1.5,4.416,4.416,0,0,1-.3-.8c0-.1,0-.2.1-.2s.1,0,.2.1l.5.5a2.618,2.618,0,0,0,1.3.6,1.7,1.7,0,0,0,.7.1h.6a4.532,4.532,0,0,1,.8-.1,1.259,1.259,0,1,1,.3,2.5A.446.446,0,0,1,45.878,112.6Z" fill="#5d4746"/>
        </g>
        <path d="M56.778,120.9h-12.2l-1.5-1.9a.5.5,0,0,1,.8-.6l1.2,1.5a4.927,4.927,0,0,0,3.1-.9,4.625,4.625,0,0,1,5.2,0,5.254,5.254,0,0,0,3,.9l1.2-1.5a.5.5,0,0,1,.8.6Z" fill="#231f20"/>
      </g>
      <g>
        <g>
          <g>
            <path d="M66.778,99.2a8.4,8.4,0,1,1,8.4-8.4A8.451,8.451,0,0,1,66.778,99.2Z" fill="#231f20"/>
            <path d="M66.778,83.6a7.2,7.2,0,1,1-7.2,7.2,7.17,7.17,0,0,1,7.2-7.2m0-2.4a9.6,9.6,0,1,0,9.6,9.6,9.6,9.6,0,0,0-9.6-9.6Z" fill="#a37d7d"/>
          </g>
          <circle cx="67.878" cy="91.9" r="2.7" fill="#fff"/>
        </g>
        <g>
          <g>
            <circle cx="34.678" cy="90.8" r="8.4" fill="#231f20"/>
            <path d="M34.678,83.6a7.2,7.2,0,1,1-7.2,7.2,7.17,7.17,0,0,1,7.2-7.2m0-2.4a9.6,9.6,0,1,0,9.6,9.6,9.6,9.6,0,0,0-9.6-9.6Z" fill="#a37d7d"/>
          </g>
          <circle cx="35.878" cy="91.9" r="2.7" fill="#fff"/>
        </g>
      </g>
      <g>
        <path d="M33.378,72l-14.3-.3a.319.319,0,0,1-.3-.3c0-.1.1-.3.2-.3l13.6-4.4a2.783,2.783,0,1,1,1.7,5.3A2.718,2.718,0,0,0,33.378,72Z" fill="#211919"/>
        <path d="M68.778,66.6l13.6,4.4c.2.1.3.2.2.4,0,.1-.2.2-.3.2l-14.3.3a2.75,2.75,0,0,1-.1-5.5A2.388,2.388,0,0,1,68.778,66.6Z" fill="#211919"/>
      </g>
    </g>
  </g>
</svg>
