<svg id="Layer_1" data-name="Layer 1" xmlns="http://www.w3.org/2000/svg" viewBox="0 0 82.365 105.1">
  <title>Artboard 31</title>
  <g>
    <path d="M.782,51c-4.5,13.3,11.3,36.1,24.7,46.8a21.19,21.19,0,0,0,15.7,7.3,20.84,20.84,0,0,0,15.7-7.3c13.4-10.7,29.2-33.5,24.7-46.8l-.7-2.1c-2.1-6.3-4.5-13.3-7.9-19.6a17.791,17.791,0,0,0,5.8-7.5,23.647,23.647,0,0,0,1.3-12.7c-.9-4.3-3.3-7.5-6.6-8.8a3.6,3.6,0,0,0-1.1-.2,3.194,3.194,0,0,0-2.4,1.1,81.219,81.219,0,0,1-11.4,11.5,16.26,16.26,0,0,0-6.8-3.9,16.649,16.649,0,0,0-3.2-6.7,2.982,2.982,0,0,0-2.4-1.2,2.2,2.2,0,0,0-.8.1,3,3,0,0,0-2.2,2.5c-.2,1.8-2.2,2.5-7.8,3.3a15.707,15.707,0,0,0-2.3.4c-.7.1-1.5.3-2.1.4a16.813,16.813,0,0,0-7,3h0c-.5.4-1,.7-1.4,1a71.044,71.044,0,0,1-10.2-10.5A3.194,3.194,0,0,0,9.982,0a4.254,4.254,0,0,0-1.1.2c-3.3,1.3-5.8,4.5-6.6,8.8a23.556,23.556,0,0,0,1.3,12.7,17.79,17.79,0,0,0,5.8,7.5c-3.5,6.3-5.8,13.3-7.9,19.6Z" fill="#2d2413"/>
    <g>
      <g>
        <g>
          <path d="M6.382,20.7c-3-7.9-1.4-15.8,3.5-17.7,0,0,7.7,9.7,15.3,14.3,7.2,4.3-4.5,14.3-4.5,14.3S9.382,28.6,6.382,20.7Z" fill="#dda72f"/>
          <path d="M9.482,21.7c-1.8-4.9-1.3-9.6,1.3-10.5,0,0,4.4,6.1,8.5,9.2,3.9,2.9-1.9,8.4-1.9,8.4S11.282,26.5,9.482,21.7Z" fill="#a9734a"/>
        </g>
        <g>
          <path d="M75.882,20.7c3-7.9,1.4-15.8-3.5-17.7,0,0-7.7,9.7-15.3,14.3-7.2,4.3,4.5,14.3,4.5,14.3S72.882,28.6,75.882,20.7Z" fill="#dda72f"/>
          <path d="M72.882,21.7c1.8-4.9,1.3-9.6-1.3-10.5,0,0-4.4,6.1-8.5,9.2-3.9,2.9,1.9,8.4,1.9,8.4S70.982,26.5,72.882,21.7Z" fill="#a9734a"/>
        </g>
      </g>
      <path d="M78.682,51.9c-5.7-16.9-12-39-37.4-39h-.2c-25.4,0-31.7,22.1-37.4,39-5.1,15.1,22.5,49.6,37.5,50.1C56.182,101.6,83.782,67.1,78.682,51.9Z" fill="#dda72f"/>
      <path d="M54.382,79.9c-1.8-.7,7.4-14.4-13.2-15.2-20.6.7-11.4,14.4-13.2,15.2-10.3,4.3-1,22.1,13.2,22.1C55.282,102,64.682,84.2,54.382,79.9Z" fill="#fffade"/>
      <g>
        <path d="M50.182,76l-.9.6c-.4.2-.9.5-1.4.7-.4.1-.9.2-1.3.3a12.937,12.937,0,0,1-3.4-.1c-.1,0-.1-.1-.1-.2a.1.1,0,0,1,.1-.1,3.684,3.684,0,0,0,.9-.4,7.262,7.262,0,0,0,1.8-1.1c.3-.2.5-.5.8-.7a2.182,2.182,0,0,1,.3-.5c.3-.5.5-.9.5-.9h0a1.856,1.856,0,1,1,3.3,1.7A1.345,1.345,0,0,1,50.182,76Z" fill="#724d31"/>
        <path d="M34.782,73.7s.2.4.5.9a2.191,2.191,0,0,1,.3.5,5.711,5.711,0,0,0,.8.7c.6.4,1.3.8,1.8,1.1a3.684,3.684,0,0,0,.9.4c.1,0,.1.1.1.2l-.1.1a12.931,12.931,0,0,1-3.4.1c-.4-.1-.9-.2-1.3-.3a6.111,6.111,0,0,1-1.4-.7c-.5-.3-.9-.6-.9-.6a1.872,1.872,0,1,1,2.1-3.1,2.17,2.17,0,0,1,.6.7Z" fill="#724d31"/>
      </g>
      <path d="M50.982,57.9a14.119,14.119,0,0,0,9,7.4c7.2,2.1,6.2-7.4,6.2-7.4S61.482,65.5,50.982,57.9Z" fill="#010101"/>
      <path d="M12.782,57.9a14.119,14.119,0,0,0,9,7.4c7.2,2.1,6.2-7.4,6.2-7.4S23.282,65.5,12.782,57.9Z" fill="#010101"/>
      <path d="M37.082,95.2a.961.961,0,0,1-.9-.6,1.012,1.012,0,0,1,.4-1.4l12-6.2a1.03,1.03,0,1,1,1,1.8l-12,6.2A.646.646,0,0,1,37.082,95.2Z" fill="#010101"/>
      <path d="M59.882,20.4c-2.6-6.4-5.8-8-11-9.3.2-2.3-1.1-5-2.7-7.2-.6,5.1-6.8,5.3-12.7,6.3a10.614,10.614,0,0,0-1.9.4,15.136,15.136,0,0,0-5.8,2.4h0c-11.2,7.7,8.9,8,10.7,12.8,1.5-3.6,2-4.7.9-6.6a29.276,29.276,0,0,1,11.6,6.6c-.1-3,.7-7.6-2.4-9.9C50.982,18.7,54.182,16,59.882,20.4Z" fill="#ffe451"/>
      <g>
        <path d="M55.182,38.2l.6-.3a4.889,4.889,0,0,1,.7-.3,10.377,10.377,0,0,1,1-.4,9.275,9.275,0,0,0,1.3-.4,6.649,6.649,0,0,1,1.5-.3,8.6,8.6,0,0,1,1.6-.1,12.217,12.217,0,0,1,1.7.3,4.351,4.351,0,0,1,1.5.8,4.262,4.262,0,0,1,1.2,1.1,8.35,8.35,0,0,1,.8,1.2,6.121,6.121,0,0,1,.5,1.2,8.751,8.751,0,0,1,.5,2.5.2.2,0,1,1-.4,0,9.749,9.749,0,0,0-.8-2.2,8.8,8.8,0,0,1-.6-1,6.464,6.464,0,0,0-.8-.9,6.064,6.064,0,0,0-1-.7,2.664,2.664,0,0,0-1.2-.3,4.82,4.82,0,0,0-1.2,0,5.267,5.267,0,0,0-1.2.3,3.579,3.579,0,0,0-1.1.4c-.3.2-.6.3-.9.5a2.178,2.178,0,0,0-.8.5,5.748,5.748,0,0,1-.7.4,2.472,2.472,0,0,0-.6.4,1.6,1.6,0,1,1-1.7-2.7c-.1.1,0,0,.1,0Z" fill="#6f5421"/>
        <path d="M25.682,41a4.573,4.573,0,0,1-.6-.4,4.348,4.348,0,0,0-.7-.4c-.2-.1-.6-.4-.8-.5a4.054,4.054,0,0,1-.9-.5,3.583,3.583,0,0,0-1.1-.4,5.283,5.283,0,0,0-1.2-.3,4.82,4.82,0,0,0-1.2,0,5.267,5.267,0,0,0-1.2.3,3.592,3.592,0,0,0-1,.7,6.472,6.472,0,0,0-.8.9,8.8,8.8,0,0,0-.6,1,6.744,6.744,0,0,0-.8,2.2.2.2,0,0,1-.4,0,8.751,8.751,0,0,1,.5-2.5,6.115,6.115,0,0,1,.5-1.2,8.327,8.327,0,0,1,.8-1.2,4.262,4.262,0,0,1,1.2-1.1,7.145,7.145,0,0,1,1.5-.8,8.586,8.586,0,0,1,1.7-.3,8.085,8.085,0,0,1,1.6.1,7.965,7.965,0,0,1,1.5.3c.5.1.9.3,1.3.4a10.377,10.377,0,0,1,1,.4,4.855,4.855,0,0,1,.7.3l.6.3h0a1.523,1.523,0,0,1-1.2,2.8C25.882,41.1,25.782,41,25.682,41Z" fill="#6f5421"/>
      </g>
      <g>
        <path d="M69.482,71.3a4.808,4.808,0,0,1-6.8,6.8c-1.9-1.9-1.2-8-1.2-8S67.582,69.4,69.482,71.3Z" fill="#fec03b"/>
        <path d="M12.782,71.3a4.808,4.808,0,0,0,6.8,6.8c1.9-1.9,1.2-8,1.2-8S14.682,69.4,12.782,71.3Z" fill="#fec03b"/>
      </g>
    </g>
  </g>
</svg>
