<svg id="Layer_1" data-name="Layer 1" xmlns="http://www.w3.org/2000/svg" viewBox="0 0 109.511 116.8">
  <title>Artboard 23</title>
  <g>
    <path d="M14.294,78.9a10.1,10.1,0,0,0,8.7-4.5c2.1,7.8,5.6,14,10.5,18.3,3.1,10.2,18,22.1,19.7,23.5a3,3,0,0,0,1.8.6,2.792,2.792,0,0,0,1.8-.6c1.7-1.4,16.7-13.3,19.7-23.5,4.8-4.3,8.3-10.3,10.4-18.1a10.575,10.575,0,0,0,8.8,4.2q7.05,0,10.8-4.2c3.7-4.3,3-10,2.9-10.6a2.97,2.97,0,0,0-2.5-2.5h-.5a2.947,2.947,0,0,0-2.7,1.7c-.5,1.1-2.5,4.1-4.9,4.1-1.7,0-2.1-8.5-2.4-13-.5-10.6-1.3-24.8-10.5-31.6,5.1-7.2,2.9-15.8-1.1-21.4a3.127,3.127,0,0,0-2.5-1.3,3.371,3.371,0,0,0-1.7.5,40.15,40.15,0,0,0-13,14.7,5.639,5.639,0,0,0-1.2-.4h-1.2a14.087,14.087,0,0,0-2,.1c0-1.6-.2-3-.2-3.2a2.674,2.674,0,0,0-1.3-2.1,2.715,2.715,0,0,0-1.7-.6,1.7,1.7,0,0,0-.7.1c-2.5.6-6.4,2.4-8.3,5.5a19.791,19.791,0,0,0-5.2-.6c-1,0-1.7.1-1.8.1a3.327,3.327,0,0,0-2.1,1.1,39.387,39.387,0,0,0-13-14.7,2.618,2.618,0,0,0-1.7-.5,3,3,0,0,0-2.5,1.3c-4,5.7-6.3,14.2-1.1,21.4-9.2,6.9-9.9,21-10.5,31.6-.2,4.6-.7,13-2.4,13-3,0-4.8-3.9-4.8-4a3.077,3.077,0,0,0-2.8-1.8h-.4a3.189,3.189,0,0,0-2.6,2.6c-.1.6-.7,6.4,3.1,10.6A15.488,15.488,0,0,0,14.294,78.9Z" fill="#2d2413"/>
    <g>
      <path d="M74.294,89.1c0,9.8-19.2,24.8-19.2,24.8s-19.2-15-19.2-24.8,8.6-12.4,19.2-12.4S74.294,79.3,74.294,89.1Z" fill="#964e2f"/>
      <g>
        <g>
          <path d="M68.394,23s1.7-11.5,14.3-20.1c7.9,11.2,1.5,20.6-5.9,23.5Z" fill="#964e2f"/>
          <path d="M71.694,23.1a31.053,31.053,0,0,1,10.2-11.2c4.6,6.6-.9,11.5-5.2,13.2Z" fill="#382c1b"/>
        </g>
        <g>
          <path d="M41.894,23s-1.7-11.5-14.3-20.1c-7.9,11.2-1.5,20.6,5.9,23.5Z" fill="#964e2f"/>
          <path d="M38.594,23.1a31.308,31.308,0,0,0-10.1-11.2c-4.6,6.6.9,11.5,5.2,13.2Z" fill="#382c1b"/>
        </g>
      </g>
      <path d="M55.194,19.9c-23.3,0-31.5,13.7-31.5,31.2,0,10.9-.3,46.1,31.5,46.1s31.5-35.2,31.5-46.1C86.694,33.7,78.394,19.9,55.194,19.9Z" fill="#964e2f"/>
      <ellipse cx="55.194" cy="58.2" rx="14.1" ry="26.8" fill="#733f2c"/>
      <path d="M40.494,86c0,8.1,7.4,14.8,14.6,14.8s14.6-6.7,14.6-14.8-6.6-9.6-14.6-9.6S40.494,77.9,40.494,86Z" fill="#da9981"/>
      <g>
        <path d="M65.994,83.8a1.236,1.236,0,0,0-.2.3c-.1.1-.1.2-.2.3a2.181,2.181,0,0,0-.4.5c-.2.2-.3.4-.5.6a2.652,2.652,0,0,1-.6.5,10.933,10.933,0,0,1-1.5.8,8.4,8.4,0,0,1-2.9.5,3.812,3.812,0,0,1-1.3-.2c-.1,0-.2-.2-.2-.3s.1-.1.2-.2a10.217,10.217,0,0,0,1.1-.3,4.928,4.928,0,0,0,2-1.3,5.5,5.5,0,0,0,.7-.9,5.894,5.894,0,0,0,.4-.8c0-.1.1-.2.1-.3s.1-.3.1-.4a.774.774,0,0,0,.1-.3,1.781,1.781,0,0,1,2.2-1.3,1.712,1.712,0,0,1,1.3,2.2C66.294,83.4,66.094,83.6,65.994,83.8Z" fill="#3f302a"/>
        <path d="M47.494,82.3a.774.774,0,0,0,.1.3c0,.1.1.2.1.4,0,.1.1.2.1.3a1.97,1.97,0,0,0,.4.8,5.5,5.5,0,0,0,.7.9,7.57,7.57,0,0,0,2,1.3,2.713,2.713,0,0,0,1.1.3.2.2,0,1,1,0,.4s-.5.1-1.3.2a6.557,6.557,0,0,1-2.9-.5,10.919,10.919,0,0,1-1.5-.8,4.314,4.314,0,0,1-1.1-1.1c-.2-.2-.3-.4-.4-.5s-.2-.2-.2-.3a1.24,1.24,0,0,0-.2-.3,1.78,1.78,0,1,1,2.8-2.2A6.888,6.888,0,0,0,47.494,82.3Z" fill="#3f302a"/>
      </g>
      <path d="M99.094,70.3c-13.7,0,10.6-64.5-43.9-45h0c-54.5-19.4-30.2,45-43.9,45-5.1,0-7.6-5.8-7.6-5.8s-1.4,11.4,10.7,11.4c12.4,0,7.7-22.5,19.5-32,4.3-3.5,3.2-5.3,21.3-5.3s17,1.9,21.3,5.3c11.9,9.6,6.6,32,19.5,32,12.4,0,10.7-11.4,10.7-11.4S103.894,70.3,99.094,70.3Z" fill="#bc8f58"/>
      <g>
        <path d="M43.194,69h-.8a17.621,17.621,0,0,1-1.9-.2,19.542,19.542,0,0,1-5.5-1.8c-.5-.3-.9-.5-1.4-.8-.4-.3-.9-.6-1.3-.9a5.241,5.241,0,0,1-1.1-1,9.011,9.011,0,0,1-.9-1c-.2-.3-.5-.6-.7-.9a5.733,5.733,0,0,1-.4-.7,2.474,2.474,0,0,0-.4-.6l1.3-.7a2.22,2.22,0,0,0,.4.5c.1.2.3.4.4.6a4.351,4.351,0,0,1,.6.7,2.7,2.7,0,0,0,.8.7,3.592,3.592,0,0,0,1,.7,10.54,10.54,0,0,0,1.1.7l1.2.6a16.878,16.878,0,0,0,4.9,1.1,9.486,9.486,0,0,0,1.7,0h.6Z" fill="#010101"/>
        <path d="M67.194,65.9h2.3a16.209,16.209,0,0,0,4.9-1.1,4.5,4.5,0,0,0,1.2-.6,4.13,4.13,0,0,0,1.1-.7,8.65,8.65,0,0,0,1-.7c.3-.3.6-.5.8-.7a3.735,3.735,0,0,0,.6-.7,2.093,2.093,0,0,0,.4-.6,3.612,3.612,0,0,1,.4-.5l1.3.7a4.573,4.573,0,0,1-.4.6,4.349,4.349,0,0,0-.4.7c-.2.3-.4.5-.7.9a7.3,7.3,0,0,1-.9,1,10.946,10.946,0,0,1-1.1,1,14.641,14.641,0,0,1-1.3.9c-.4.3-.9.5-1.4.8a20.618,20.618,0,0,1-5.5,1.8,17.637,17.637,0,0,1-1.9.2h-.8Z" fill="#010101"/>
      </g>
      <g>
        <polygon points="78.394 52.8 65.194 55.2 64.894 50.9 78.294 51.4 78.394 52.8" fill="#381e15"/>
        <polygon points="31.994 51.4 45.394 50.9 45.094 55.2 31.894 52.8 31.994 51.4" fill="#381e15"/>
      </g>
      <polygon points="49.994 95.3 55.194 91.9 60.294 95.3 49.994 95.3" fill="#010101"/>
      <path d="M47.894,22.5c-1.5-1.3-3.2-5.6-3.2-5.6s5.5-.5,8.5,1.6c0-4.9,7.1-6.6,7.1-6.6a33.459,33.459,0,0,1,0,6.6c2.3-1,6.2-.8,6.2-.8s-4.7,4.6-3.7,3.9" fill="#964e2f"/>
      <g opacity="0.5">
        <ellipse cx="76.412" cy="75.259" rx="4.5" ry="3.3" transform="translate(-29.426 57.907) rotate(-35.254)" fill="#da8c33"/>
        <ellipse cx="33.994" cy="75.212" rx="3.3" ry="4.5" transform="translate(-47.049 59.577) rotate(-54.759)" fill="#da8c33"/>
      </g>
    </g>
  </g>
</svg>
