<svg id="Layer_1" data-name="Layer 1" xmlns="http://www.w3.org/2000/svg" viewBox="0 0 124.431 123.3">
  <title>Artboard 13</title>
  <g>
    <path d="M1.016,53.6a20.428,20.428,0,0,0,12.7,3.9,38.185,38.185,0,0,0,12-2.1,80.523,80.523,0,0,0-.6,10.3c0,9.6,5.5,19.2,10.1,25.5a78.084,78.084,0,0,0,16.8,17.1v1.3c0,7.3,7.5,12.6,8.4,13.2a3.14,3.14,0,0,0,3.4,0c.9-.6,8.4-5.9,8.4-13.2v-1.3a75.94,75.94,0,0,0,16.8-17.1c4.6-6.3,10.1-15.9,10.1-25.5a80.523,80.523,0,0,0-.6-10.3,38.186,38.186,0,0,0,12,2.1,20.427,20.427,0,0,0,12.7-3.9,3.048,3.048,0,0,0,1.2-2.2,2.814,2.814,0,0,0-.9-2.3,189.953,189.953,0,0,0-16-13.6,27.452,27.452,0,0,0-16.6-5.6,29.552,29.552,0,0,0-5.8.6,9.129,9.129,0,0,0-1.3-.8,20.83,20.83,0,0,1,.7-2.6,30.415,30.415,0,0,1,4.1-8,23.973,23.973,0,0,1,7.5-6.8,11.663,11.663,0,0,1,5.3-1.4,8.676,8.676,0,0,1,2.8.5,11.029,11.029,0,0,1,3.6,2.1l.1.1a18.746,18.746,0,0,1,3,3.2,26.346,26.346,0,0,1,2.2,3.2c.2.4.5.8.7,1.2.3.6.6,1.1.9,1.6l1.3,2.7a3.529,3.529,0,0,0,3.1,2,4.253,4.253,0,0,0,1.1-.2,3.542,3.542,0,0,0,2.3-4.3l-.9-2.9a20.924,20.924,0,0,0-.8-2.3c-.2-.4-.3-.8-.5-1.2,0-.1,0-.1-.1-.2-.6-1.3-1.3-2.9-2.2-4.5a24.754,24.754,0,0,0-3.7-5.1,22.786,22.786,0,0,0-6-4.7,18.85,18.85,0,0,0-8.9-2.1,21.986,21.986,0,0,0-8.1,1.5,36.579,36.579,0,0,0-13,8.8,42.336,42.336,0,0,0-7.8,11.1,35.959,35.959,0,0,0-1.5,3.7c-2.2-.2-4.4-.4-6.8-.4a50.708,50.708,0,0,0-6.8.4c-.4-1.1-.9-2.4-1.5-3.7a44.041,44.041,0,0,0-7.8-11.1,35.917,35.917,0,0,0-12.9-8.7,21.986,21.986,0,0,0-8.1-1.5,18.568,18.568,0,0,0-8.9,2.1,20.9,20.9,0,0,0-6,4.7,34.141,34.141,0,0,0-3.7,5,26.265,26.265,0,0,0-2.2,4.5c0,.1,0,.1-.1.2-.2.4-.3.9-.5,1.2-.3.8-.6,1.5-.8,2.2l-.9,2.9a3.535,3.535,0,0,0,1.8,4.2,4.013,4.013,0,0,0,1.5.3,3.357,3.357,0,0,0,3.1-2s.6-1.3,1.3-2.9c.2-.4.5-.9.8-1.6a7.46,7.46,0,0,1,.7-1.2,37.7,37.7,0,0,1,2.2-3.3,23.435,23.435,0,0,1,3-3.2l.1-.1a12.209,12.209,0,0,1,3.6-2.1,8.676,8.676,0,0,1,2.8-.5,11.034,11.034,0,0,1,5.4,1.5,23.973,23.973,0,0,1,7.5,6.8,29.441,29.441,0,0,1,4.2,8c.3,1,.5,1.9.7,2.6-.5.3-.9.5-1.4.8a29.552,29.552,0,0,0-5.8-.6,26.824,26.824,0,0,0-16.6,5.6,171.53,171.53,0,0,0-16,13.6,3.337,3.337,0,0,0-.9,2.3A2.58,2.58,0,0,0,1.016,53.6Z" fill="#2d2413"/>
    <g>
      <path d="M69.116,109.5c0,5.9-7.1,10.7-7.1,10.7s-7.1-4.8-7.1-10.7,3.2-10.7,7.1-10.7C66.016,98.8,69.116,103.6,69.116,109.5Z" fill="#8c92bf"/>
      <g>
        <g>
          <path d="M83.216,34.1s11.8-4.3,22.4,3.8a170.067,170.067,0,0,1,15.7,13.3c-8,6.1-20.4,2.7-28.7-1.4Z" fill="#8c92bf"/>
          <path d="M89.916,42.8s.5,3.5,5.1,6.2c4.7,2.7,12.4,1.2,17.1.9C105.516,41.5,92.316,40.3,89.916,42.8Z" fill="#443665"/>
        </g>
        <g>
          <path d="M40.916,34.1s-11.8-4.3-22.4,3.8a170.067,170.067,0,0,0-15.7,13.3c8,6.1,20.4,2.7,28.7-1.4Z" fill="#8c92bf"/>
          <path d="M34.216,42.8s-.5,3.5-5.1,6.2c-4.7,2.7-12.4,1.2-17.1.9C18.616,41.5,31.816,40.3,34.216,42.8Z" fill="#443665"/>
        </g>
      </g>
      <path d="M96.016,65.7c0,19.4-25.5,43.9-33.9,43.9s-33.9-24.5-33.9-43.9,4.9-37.9,33.9-37.9S96.016,46.3,96.016,65.7Z" fill="#8c92bf"/>
      <path d="M75.716,71.8c-5,11.8-8.9,22.7-14,22.7s-5.6-7.6-13-22.7c-7.4-15.2,3.9-22.8,13-22.8S82.516,55.8,75.716,71.8Z" fill="#e3e4f3"/>
      <g>
        <path d="M70.116,35.5V33.7a14.055,14.055,0,0,1,.2-1.8c.1-.7.2-1.4.3-2a10.411,10.411,0,0,1,.6-2.2,27.366,27.366,0,0,1,1.9-4.9,41.068,41.068,0,0,1,7.2-10.3,31.265,31.265,0,0,1,11.9-8c4.6-1.8,10.3-1.8,14.5.4a17.941,17.941,0,0,1,5.2,4,21.96,21.96,0,0,1,3.3,4.6,41.008,41.008,0,0,1,2.1,4.2c.5,1.3,1,2.4,1.3,3.3.6,1.9.9,2.9.9,2.9.1.2-.1.5-.3.6a.446.446,0,0,1-.6-.3h0s-.5-1-1.3-2.7c-.4-.9-1-1.9-1.6-3a33.779,33.779,0,0,0-2.5-3.6,19.787,19.787,0,0,0-3.5-3.6,15.083,15.083,0,0,0-4.6-2.7,12.886,12.886,0,0,0-10.6,1.2,26.185,26.185,0,0,0-8.5,7.7,31.57,31.57,0,0,0-4.6,8.9c-.4,1.4-.7,2.6-.9,3.7a7.721,7.721,0,0,0-.2,1.5,3.886,3.886,0,0,0,0,1.1v.8c0,.4.1.7.1.9a4.532,4.532,0,0,1,.1.8,5.29,5.29,0,1,1-10.5,1.3A4.593,4.593,0,0,0,70.116,35.5Z" fill="#cfc2e0"/>
        <path d="M43.516,35a4.532,4.532,0,0,1,.1-.8c0-.3.1-.6.1-.9V31.4a10.4,10.4,0,0,0-.2-1.5,15.182,15.182,0,0,0-.9-3.7,31.589,31.589,0,0,0-4.6-8.9,27.352,27.352,0,0,0-8.5-7.7,13.278,13.278,0,0,0-10.6-1.2,15.081,15.081,0,0,0-4.6,2.7,23.614,23.614,0,0,0-3.5,3.6,33.778,33.778,0,0,0-2.5,3.6c-.6,1.2-1.2,2.1-1.6,3-.8,1.7-1.3,2.7-1.3,2.7h0a.481.481,0,0,1-.6.2.445.445,0,0,1-.2-.6s.3-1.1.9-2.9c.3-.9.8-2,1.3-3.3a41.008,41.008,0,0,1,2.1-4.2,26.334,26.334,0,0,1,3.3-4.6,16.372,16.372,0,0,1,5.2-4c4.2-2.2,9.9-2.2,14.5-.4a33.3,33.3,0,0,1,11.8,8,41.067,41.067,0,0,1,7.2,10.3,27.367,27.367,0,0,1,1.9,4.9c.2.8.4,1.5.6,2.2a6.931,6.931,0,0,1,.3,2c.1.7.1,1.3.2,1.8v1.8a5.3,5.3,0,1,1-10.6.2C43.516,35.5,43.516,35.2,43.516,35Z" fill="#cfc2e0"/>
      </g>
      <g>
        <path d="M75.116,58.9l11.2-2.4c.1,0,.3.1.3.2a.367.367,0,0,1-.1.3l-9.8,5.9a2.264,2.264,0,1,1-2.3-3.9C74.716,59,74.916,58.9,75.116,58.9Z" fill="#64649f"/>
        <path d="M47.416,62.9l-9.8-5.9c-.1-.1-.2-.2-.1-.4a.367.367,0,0,1,.3-.1l11.2,2.4a2.168,2.168,0,0,1,1.7,2.6,2.122,2.122,0,0,1-2.6,1.7A.908.908,0,0,1,47.416,62.9Z" fill="#64649f"/>
      </g>
      <path d="M52.916,86.6c0,5,7.7,8.5,9.1,8.5s9.1-3.5,9.1-8.5C71.216,81.6,52.916,81.6,52.916,86.6Z" fill="#64649f"/>
      <g>
        <path d="M68.416,88.2l-4.1,3.4h-.2v-.1l2.6-4.6a1.1,1.1,0,0,1,1.9,1.1Z" fill="#212135"/>
        <path d="M57.516,86.7l2.6,4.6v.2h-.1l-4.1-3.4a1.226,1.226,0,0,1-.2-1.6,1.116,1.116,0,0,1,1.6-.1C57.316,86.5,57.416,86.6,57.516,86.7Z" fill="#212135"/>
      </g>
      <g>
        <g>
          <g>
            <path d="M59.716,98.5c-.6.9-1.9,2.1-1.9,3.3a4.556,4.556,0,0,0,4.3,4.4,4.63,4.63,0,0,0,4.3-4.4c0-1.3-1.3-2.5-1.9-3.3Z" fill="#f69986"/>
            <path d="M62.116,106.4a4.734,4.734,0,0,1-4.4-4.5,4.887,4.887,0,0,1,1.3-2.7c.2-.3.4-.5.6-.8v-.1h5v.1a3.279,3.279,0,0,0,.6.8,4.887,4.887,0,0,1,1.3,2.7A4.654,4.654,0,0,1,62.116,106.4Zm-2.3-7.7c-.2.2-.3.5-.5.7a4.673,4.673,0,0,0-1.3,2.5,4.4,4.4,0,0,0,4.1,4.2,4.335,4.335,0,0,0,4.1-4.2,4.672,4.672,0,0,0-1.3-2.5c-.2-.3-.4-.5-.5-.7Z" fill="#414142"/>
          </g>
          <path d="M62.116,104.3a.215.215,0,0,1-.2-.2V99.8a.2.2,0,1,1,.4,0v4.3A.215.215,0,0,1,62.116,104.3Z" fill="#414142"/>
        </g>
        <g>
          <path d="M69.216,99.5h-14.3l-3-3a.919.919,0,0,1,1.3-1.3l2.4,2.5h12.8l2.5-2.5a.919.919,0,0,1,1.3,1.3Z" fill="#231f20"/>
          <polygon points="58.016 98.5 62.116 95.8 66.116 98.5 58.016 98.5" fill="#231f20"/>
        </g>
      </g>
      <g>
        <g>
          <path d="M79.116,78.5a40.707,40.707,0,0,1,5,.3,6.374,6.374,0,0,0,1.7-4.4,6.7,6.7,0,1,0-13.4,0,6.374,6.374,0,0,0,1.7,4.4A39.535,39.535,0,0,1,79.116,78.5Z" fill="#231f20"/>
          <circle cx="80.216" cy="74.4" r="1.9" fill="#fff"/>
        </g>
        <g>
          <path d="M45.016,78.5a40.707,40.707,0,0,1,5,.3,6.374,6.374,0,0,0,1.7-4.4,6.7,6.7,0,1,0-13.4,0,6.374,6.374,0,0,0,1.7,4.4A40.707,40.707,0,0,1,45.016,78.5Z" fill="#231f20"/>
          <circle cx="46.116" cy="74.4" r="1.9" fill="#fff"/>
        </g>
      </g>
      <g opacity="0.7">
        <path d="M37.916,85.4l7.3-3.3a2.864,2.864,0,1,1,.8,5.4l-7.9-1.1a.56.56,0,0,1-.5-.6A.446.446,0,0,1,37.916,85.4Z" fill="#d6afa7"/>
        <path d="M86.016,86.4l-7.9,1.1a2.829,2.829,0,1,1,.8-5.4l7.3,3.3a.517.517,0,0,1,.3.7A.851.851,0,0,1,86.016,86.4Z" fill="#d6afa7"/>
      </g>
    </g>
  </g>
</svg>
