<svg id="Layer_1" data-name="Layer 1" xmlns="http://www.w3.org/2000/svg" viewBox="0 0 99.404 106.2">
  <title>Artboard 20</title>
  <g>
    <path d="M7.2,25.6A35,35,0,0,0,3.6,41.7c0,22.7,3.1,44.7,25,52.5,5.9,7.4,13.9,12,21.1,12s15.2-4.6,21.2-12.1a33.33,33.33,0,0,0,19.9-19c3.4-8.1,5-18.7,5-33.4a35,35,0,0,0-3.6-16.1c3.9-3.3,7.3-8.5,7.2-13.7C99.3,9.1,98.2,5,93.1,1.8A11.9,11.9,0,0,0,86.7,0c-4.6,0-9.8,2.8-12,10.3a66.011,66.011,0,0,0-25-4.5c-9.4,0-18,1.5-25,4.5C22.5,2.8,17.3.1,12.7.1A12.407,12.407,0,0,0,6.3,1.9C1.2,5.1,0,9.1,0,12-.1,17.1,3.3,22.3,7.2,25.6Z" fill="#2d2413"/>
    <g>
      <g>
        <g>
          <path d="M88.7,24.5l-9.9,2.6L76.6,16.5C77.4,3.3,86,1,91.4,4.4,101.1,10.3,94.7,20.4,88.7,24.5Z" fill="#aba1ce"/>
          <path d="M87.4,23.1l-6.5,1.7-1.4-7c.5-8.6,6.1-10.2,9.7-7.9C95.5,13.9,91.3,20.4,87.4,23.1Z" fill="#363442"/>
        </g>
        <g>
          <path d="M10.7,24.5l9.9,2.6,2.2-10.6C22,3.3,13.4,1,8,4.4-1.7,10.3,4.7,20.4,10.7,24.5Z" fill="#aba1ce"/>
          <path d="M12,23.1l6.5,1.7,1.4-7c-.5-8.6-6.1-10.2-9.7-7.9C3.9,13.9,8.1,20.4,12,23.1Z" fill="#363442"/>
        </g>
      </g>
      <path d="M6.6,41.7c0-24.4,21.1-33,43.1-33,21.9,0,43.1,8.6,43.1,33,0,33.2-34.2,52.6-43.3,52.6C40.5,94.3,6.6,74.9,6.6,41.7Z" fill="#d0d2d3"/>
      <path d="M6.6,41.7c0-24.4,21.1-33,43.1-33,21.9,0,43.1,8.6,43.1,33,0,33.2-8.1,52.6-43.3,52.6S6.6,74.9,6.6,41.7Z" fill="#aba1ce"/>
      <g>
        <g>
          <path d="M74,54.7a7.5,7.5,0,1,1-7.5-7.5A7.49,7.49,0,0,1,74,54.7Z" fill="#231f20"/>
          <circle cx="68.502" cy="53.1" r="2.9" fill="#fff"/>
        </g>
        <g>
          <circle cx="33.002" cy="54.7" r="7.5" fill="#231f20"/>
          <circle cx="34.302" cy="53.1" r="2.9" fill="#fff"/>
        </g>
      </g>
      <path d="M75.5,74c0,14.3-13.9,29.3-25.8,29.3S23.9,88.3,23.9,74,35.5,55.1,49.7,55.1C64,55.1,75.5,59.7,75.5,74Z" fill="#dfd9eb"/>
      <g>
        <path d="M64.9,33.2a5.944,5.944,0,0,0,.7-.3,6.892,6.892,0,0,1,.8-.3,8.345,8.345,0,0,1,1.2-.4c.5-.1,1-.3,1.6-.4a11.015,11.015,0,0,0,1.8-.2,12.249,12.249,0,0,1,1.9.2,5.833,5.833,0,0,1,1.8.8,6.1,6.1,0,0,1,1.5,1.3,6.527,6.527,0,0,1,1,1.5,13.1,13.1,0,0,1,1.1,2.9,14.011,14.011,0,0,1,.4,2.9.2.2,0,0,1-.4,0,17.419,17.419,0,0,0-.8-2.7,6.568,6.568,0,0,0-1.4-2.4c-.3-.4-.7-.7-1-1.1a5.671,5.671,0,0,0-1.3-.8,5.734,5.734,0,0,0-1.4-.4,6.6,6.6,0,0,0-1.4.1c-.4.1-.9.2-1.3.3-.4.2-.7.3-1.1.5a9.247,9.247,0,0,0-1,.5,5.583,5.583,0,0,0-.8.5,2.769,2.769,0,0,1-.7.4,1.681,1.681,0,1,1-1.7-2.9.781.781,0,0,0,.5,0Z" fill="#575268"/>
        <path d="M33.1,36.2a2.218,2.218,0,0,0-.7-.4,9.211,9.211,0,0,1-.8-.5,3.127,3.127,0,0,0-1-.5,11.733,11.733,0,0,0-1.1-.5c-.4-.1-.8-.2-1.3-.3-.4,0-.9-.1-1.4-.1a3.257,3.257,0,0,0-1.3.4c-.5.1-.8.5-1.3.8-.3.4-.7.7-1,1.1a21,21,0,0,0-1.4,2.4,17.417,17.417,0,0,0-.8,2.7.2.2,0,0,1-.4,0,14.011,14.011,0,0,1,.4-2.9,9.506,9.506,0,0,1,1.1-2.9,6.527,6.527,0,0,1,1-1.5c.5-.4.9-.9,1.5-1.3a5.832,5.832,0,0,1,1.8-.8,12.255,12.255,0,0,1,1.9-.2c.6.1,1.2.1,1.8.2s1.1.3,1.6.4a8.33,8.33,0,0,1,1.2.4,4.117,4.117,0,0,0,.8.3c.5.2.7.3.7.3h0a1.681,1.681,0,0,1-1.3,3.1A.139.139,0,0,0,33.1,36.2Z" fill="#575268"/>
      </g>
      <g>
        <path d="M57.5,69.5a1.008,1.008,0,0,1,.3-.1,2.74,2.74,0,0,0,.7-.4,1.755,1.755,0,0,0,.5-.4,2.649,2.649,0,0,0,.6-.5,10.594,10.594,0,0,0,1-1.2,5.482,5.482,0,0,0,.8-1.5c.1-.3.2-.5.3-.8.1-.2.1-.5.2-.7.2-.9.3-1.6.3-1.6v-.1c0-.2.2-.3.4-.2a.215.215,0,0,1,.2.2s.2.7.4,1.7c0,.3.2.5.1.8v1a8.307,8.307,0,0,1-.1,2.2,14.136,14.136,0,0,1-.6,2.2,10.355,10.355,0,0,1-.4,1,3.552,3.552,0,0,0-.4.9,7.293,7.293,0,0,1-.9,1.3,1.2,1.2,0,0,1-.4.4,2.6,2.6,0,0,1-3.7-.5A2.819,2.819,0,0,1,57.5,69.5Z" fill="#2b2834"/>
        <path d="M38.7,73.6a1.2,1.2,0,0,0-.4-.4,7.3,7.3,0,0,1-.9-1.3A3.552,3.552,0,0,1,37,71a10.386,10.386,0,0,1-.4-1,14.129,14.129,0,0,1-.6-2.2,8.129,8.129,0,0,1-.1-2.2v-1c0-.3.1-.6.1-.8.2-1,.4-1.7.4-1.7,0-.2.2-.3.4-.2a.215.215,0,0,1,.2.2v.1s.1.6.3,1.6c.1.2.1.5.2.7a6.892,6.892,0,0,1,.3.8,10.932,10.932,0,0,0,.8,1.5A4.263,4.263,0,0,0,39.7,68c.2.2.4.3.6.5.2.1.3.3.5.4a2.739,2.739,0,0,0,.7.4c.1,0,.3.2.3.1a2.677,2.677,0,0,1,.5,3.7A2.462,2.462,0,0,1,38.7,73.6Z" fill="#2b2834"/>
      </g>
      <path d="M63.8,89.5c-5.3,0-7.4-1.3-9.2-2.5a7.337,7.337,0,0,0-4.9-1.5A7.919,7.919,0,0,0,44.8,87c-1.8,1.2-3.8,2.5-9.2,2.5a1.3,1.3,0,1,1,0-2.6c4.6,0,6.2-1,7.7-2.1a9.769,9.769,0,0,1,6.3-2,9.769,9.769,0,0,1,6.3,2c1.6,1,3.2,2.1,7.7,2.1a1.324,1.324,0,0,1,1.3,1.3A1.062,1.062,0,0,1,63.8,89.5Z" fill="#231f20"/>
      <g>
        <path d="M86,66a5.728,5.728,0,1,0-8.1-8.1c-2.2,2.2-1.4,9.5-1.4,9.5S83.8,68.3,86,66Z" fill="#eb9667"/>
        <path d="M13.8,66a5.728,5.728,0,0,1,8.1-8.1c2.2,2.2,1.4,9.5,1.4,9.5S16,68.3,13.8,66Z" fill="#eb9667"/>
      </g>
    </g>
  </g>
</svg>
