<svg id="Layer_1" data-name="Layer 1" xmlns="http://www.w3.org/2000/svg" viewBox="0 0 110.259 96.2">
  <title>Artboard 43</title>
  <g>
    <path d="M104.529,5.4a10.919,10.919,0,0,0-7.2-3.1c-4.2,0-7.7,3-11.2,6.8-8.5-5.9-19.4-9.1-31-9.1s-22.5,3.2-31,9.1c-3.4-3.8-7-6.8-11.2-6.8a10.727,10.727,0,0,0-7.2,3.1c-4,3.6-6,7.7-5.7,11.9.3,4.5,3.3,8.7,8.7,12.7a43.672,43.672,0,0,0-1.7,12.1c0,18.7,9.6,31.4,18,38.9,3.3,9.5,17.6,15.2,30.1,15.2,12.6,0,27.1-5.7,30.2-15.4,8.3-7.5,17.9-20.1,17.9-38.7a43.67,43.67,0,0,0-1.7-12.1c5.4-4,8.3-8.2,8.7-12.7C110.529,13.1,108.529,9,104.529,5.4Z" fill="#2d2413"/>
    <g>
      <g>
        <g>
          <path d="M85.23,14.7c-6.4,7.6-6.1,13.3-1.1,17.3s5.2,2.4,13.8-3.1c12.5-8.1,10.8-15.7,4.6-21.2S91.93,6.8,85.23,14.7Z" fill="#8f5322"/>
          <path d="M87.129,18.9c-5.2,5.1.5,11.1,6.8,7.5,8.9-5.1,8.3-9.4,4.7-12.8C95.129,10.3,93.329,12.7,87.129,18.9Z" fill="#472b13"/>
        </g>
        <g>
          <path d="M25.029,14.7c6.4,7.6,6.1,13.3,1.1,17.3s-5.2,2.4-13.8-3.1c-12.5-8.1-10.8-15.7-4.6-21.2S18.43,6.8,25.029,14.7Z" fill="#8f5322"/>
          <path d="M23.129,18.9c5.2,5.1-.5,11.1-6.8,7.5-8.9-5.1-8.3-9.4-4.7-12.8C15.23,10.3,16.93,12.7,23.129,18.9Z" fill="#472b13"/>
        </g>
      </g>
      <path d="M10.029,42.1c0-25.5,22.1-39.1,45.1-39.1s45.1,13.6,45.1,39.1c0,34.8-35.8,50.6-45.3,50.6C45.529,92.6,10.029,76.8,10.029,42.1Z" fill="#8f5322"/>
      <path d="M10.029,42.1c0-25.5,22.1-39.1,45.1-39.1s45.1,13.6,45.1,39.1c0,34.8-35.8,50.6-45.3,50.6C45.529,92.6,10.029,76.8,10.029,42.1Z" fill="#8f5322"/>
      <g>
        <g>
          <path d="M101.23,67.8h0l-12-.7a.752.752,0,1,1,.1-1.5l11.9.7a.773.773,0,0,1,.7.8A.684.684,0,0,1,101.23,67.8Z" fill="#231f20"/>
          <path d="M99.029,76.8a.367.367,0,0,1-.3-.1l-11.9-5.5a.738.738,0,0,1,.7-1.3l11.9,5.5a.693.693,0,0,1,.3,1A.669.669,0,0,1,99.029,76.8Z" fill="#231f20"/>
          <path d="M93.829,84a.764.764,0,0,1-.5-.2l-9.3-9a.707.707,0,0,1,1-1l9.3,9a.668.668,0,0,1,0,1A.764.764,0,0,1,93.829,84Z" fill="#231f20"/>
        </g>
        <g>
          <path d="M9.129,67.8a.684.684,0,0,1-.7-.7.849.849,0,0,1,.7-.8l11.9-.7c.3-.1.7.3.8.7a.849.849,0,0,1-.7.8l-12,.7Z" fill="#231f20"/>
          <path d="M11.23,76.8a1.012,1.012,0,0,1-.7-.4.777.777,0,0,1,.3-1l11.9-5.5a.738.738,0,0,1,.7,1.3l-11.9,5.5A.368.368,0,0,1,11.23,76.8Z" fill="#231f20"/>
          <path d="M16.43,84a.764.764,0,0,1-.5-.2.668.668,0,0,1,0-1l9.3-9a.707.707,0,0,1,1,1l-9.3,9A.765.765,0,0,1,16.43,84Z" fill="#231f20"/>
        </g>
      </g>
      <g>
        <path d="M37.43,35.8a2.22,2.22,0,0,0-.4-.5,2.184,2.184,0,0,1-.4-.5l-.5-.5a2.169,2.169,0,0,0-.7-.6,7.016,7.016,0,0,0-.9-.6,13.893,13.893,0,0,0-2.1-1.1,22.4,22.4,0,0,0-4.6-1.2,16.024,16.024,0,0,0-2.2-.2.319.319,0,0,1-.3-.3c0-.1.1-.2.2-.3a22.022,22.022,0,0,1,7.4-.4,14.014,14.014,0,0,1,2.8.6c.4.2.9.3,1.3.5a3.88,3.88,0,0,1,1.1.6,8.791,8.791,0,0,1,1,.6,2.093,2.093,0,0,0,.6.4,3.6,3.6,0,0,1,.5.4,2.14,2.14,0,0,1-2.6,3.4C37.629,36,37.529,35.9,37.43,35.8Z" fill="#6b3f18"/>
        <path d="M70.029,32.7a2.218,2.218,0,0,0,.5-.4c.2-.1.4-.3.6-.4a8.791,8.791,0,0,1,1-.6c.4-.2.7-.4,1.1-.6s.8-.3,1.3-.5a14.008,14.008,0,0,1,2.8-.6,22.388,22.388,0,0,1,7.4.4c.1,0,.2.2.2.3s-.1.2-.3.2a16.024,16.024,0,0,0-2.2.2,18.457,18.457,0,0,0-4.6,1.2,10.345,10.345,0,0,0-2.1,1.1l-.9.6c-.2.2-.5.4-.7.6l-.5.5c-.2.2-.3.4-.4.5a3.606,3.606,0,0,1-.4.5,2.132,2.132,0,1,1-3.3-2.7C69.73,33,69.829,32.8,70.029,32.7Z" fill="#6b3f18"/>
      </g>
      <path d="M82.93,76.9c0,9.7-15,16.2-27.8,16.2s-27.8-6.5-27.8-16.2,19.4-16.5,27.8-16.5S82.93,67.2,82.93,76.9Z" fill="#e7d0bb"/>
      <path d="M65.73,66c0,4.5-8.3,8.2-10.6,8.2s-10.6-3.7-10.6-8.2C44.629,63.8,65.73,63.7,65.73,66Z" fill="#9d4a33"/>
      <path d="M46.43,87.1h-.9c-3.3-.4-5.3-2.5-5.3-5.6a1.3,1.3,0,1,1,2.6,0,2.978,2.978,0,0,0,3.1,3.1c3.2.3,7.3-1.8,8.1-5.5l1.2-5.8,1.2,5.8c.8,3.7,4.9,5.8,8.1,5.5a2.978,2.978,0,0,0,3.1-3.1,1.3,1.3,0,1,1,2.6,0,5.394,5.394,0,0,1-5.3,5.6,10.541,10.541,0,0,1-9.6-4.5A11.472,11.472,0,0,1,46.43,87.1Z" fill="#231f20"/>
      <g>
        <path d="M65.529,46.4h.3a2.486,2.486,0,0,0,.8-.1,20.126,20.126,0,0,1,2.6-.1,29.891,29.891,0,0,1,7.9,1.1,17.233,17.233,0,0,1,2.1.7,11.087,11.087,0,0,1,1.9.9c.6.4,1.2.6,1.7,1a17.1,17.1,0,0,1,1.4,1.1c.4.4.8.7,1.1,1s.5.7.7.9c.4.5.6.8.6.8l-1.7,1.3a6.134,6.134,0,0,0-.6-.5,4.351,4.351,0,0,0-.7-.6c-.3-.2-.7-.4-1-.6-.4-.2-.8-.4-1.3-.6-.4-.2-1-.3-1.5-.5s-1.1-.2-1.7-.4c-.6-.1-1.2-.1-1.8-.2a32.822,32.822,0,0,0-6.6.5c-.9.2-1.6.4-2.1.5a3.126,3.126,0,0,0-.7.2Z" fill="#010101"/>
        <path d="M43.329,52.9s-.3-.1-.7-.2a16.479,16.479,0,0,0-2.1-.5,22.723,22.723,0,0,0-6.6-.5c-.6.1-1.2.1-1.8.2a10.453,10.453,0,0,0-1.7.4c-.5.2-1.1.3-1.5.5s-.9.4-1.3.6a8.791,8.791,0,0,0-1,.6,4.351,4.351,0,0,0-.7.6,6.124,6.124,0,0,0-.6.5l-1.7-1.3s.2-.3.6-.8c.2-.2.4-.6.7-.9a10.951,10.951,0,0,1,1.1-1,17.1,17.1,0,0,1,1.4-1.1,9.5,9.5,0,0,1,1.7-1,16.316,16.316,0,0,1,1.9-.9,17.219,17.219,0,0,1,2.1-.7,34.7,34.7,0,0,1,7.9-1.1,18.581,18.581,0,0,1,2.6.1c.3,0,.6.1.8.1h.3Z" fill="#010101"/>
      </g>
      <g>
        <path d="M74.529,59.1h1.8a20.734,20.734,0,0,1,4,.4,17.421,17.421,0,0,1,2.2.5c.7.2,1.4.5,2,.7a2.178,2.178,0,0,1,.8.5,5.738,5.738,0,0,0,.7.4,4.573,4.573,0,0,0,.6.4,2.732,2.732,0,1,1-3.1,4.5l-.6-.6-.2-.3-.2-.2c-.1-.1-.1-.2-.2-.3s-.1-.2-.3-.4c-.2-.1-.3-.3-.5-.4-.2-.2-.4-.3-.6-.5-.5-.3-1-.7-1.6-1-1.2-.6-2.4-1.2-3.4-1.6a13.545,13.545,0,0,0-1.6-.6.715.715,0,0,1-.5-.9.73.73,0,0,1,.7-.6Z" fill="#dc7d27"/>
        <path d="M36.629,60.5a13.541,13.541,0,0,0-1.6.6,25.215,25.215,0,0,0-3.4,1.6c-.6.3-1.1.7-1.6,1-.3.1-.4.3-.6.5s-.4.3-.5.4c-.2.1-.2.3-.3.4s-.1.2-.2.3l-.2.2-.2.3a2.72,2.72,0,1,1-4.4-3.2l.6-.6a4.568,4.568,0,0,0,.6-.4,4.349,4.349,0,0,1,.7-.4c.3-.1.5-.4.8-.5.6-.2,1.3-.5,2-.7.7-.1,1.5-.4,2.2-.5,1.5-.2,2.9-.3,4-.4h1.8a.773.773,0,0,1,.7.8C37.129,60.2,36.93,60.4,36.629,60.5Z" fill="#dc7d27"/>
      </g>
    </g>
  </g>
</svg>
