<svg id="Layer_1" data-name="Layer 1" xmlns="http://www.w3.org/2000/svg" viewBox="0 0 117.6 117.7">
  <title>Artboard 24</title>
  <g>
    <path d="M117.6,33.6a2.723,2.723,0,0,0-.9-2.1,3.333,3.333,0,0,0-2.1-.9h0c-.9,0-20.9.2-32,15A23.266,23.266,0,0,0,80,43.9c.5-.3,1-.6,1.4-.9l1.1-.6a60.851,60.851,0,0,0,9.3-6.5,25.094,25.094,0,0,0,4.8-5.7,19.82,19.82,0,0,0,2.5-7.3v-.1a20.375,20.375,0,0,0,0-3.5v-.7a7.757,7.757,0,0,0-.1-.9v-.2l-.3-1.3c-.1-.3-.1-.5-.2-.8a16.242,16.242,0,0,0-.4-1.9l-.8-2.3a16.673,16.673,0,0,0-1.5-3.5,5.946,5.946,0,0,1-.4-.8l-.3-.5a10.916,10.916,0,0,0-.6-1.1c-.1-.1-.1-.2-.2-.3l-.9-1.2L91.8,1.6A3.32,3.32,0,0,0,89.1.2a2.934,2.934,0,0,0-1.6.4,3.547,3.547,0,0,0-1.4,4.7l1.8,3.4c.1.2.1.4.2.6s.1.4.2.6l.3.9a10.409,10.409,0,0,1,.6,2.2v.2l.4,2c0,.3.1.7.1,1.1v.9l.1,1.4s-.1.6-.1.7a5.5,5.5,0,0,1-.3,1.6v.2c-.7,2.6-2.9,4.5-4.6,5.6a55.673,55.673,0,0,1-8.5,4.1l-.8.3a51.532,51.532,0,0,0-10.4,5.4A21.6,21.6,0,0,0,62.4,39c-1.1-.1-2.2-.1-3.3-.1h-.4c-1.1,0-2.1,0-3.3.1a17.578,17.578,0,0,0-2.8-2.6A49.021,49.021,0,0,0,42.2,31l-.7-.3A51.492,51.492,0,0,1,33,26.6c-1.7-1.1-3.9-2.9-4.6-5.6v-.2c-.1-.6-.2-1.1-.3-1.6v-.7c0-.1.1-1.4.1-1.4v-1a2.508,2.508,0,0,1,.1-1l.4-2.1v-.2a10.407,10.407,0,0,1,.6-2.2,6.9,6.9,0,0,1,.3-.8,1.445,1.445,0,0,0,.2-.7c.1-.2.1-.4.2-.6l1.8-3.4A3.546,3.546,0,0,0,30.9.7,3.771,3.771,0,0,0,28.8,0a3.189,3.189,0,0,0-2.7,1.4L23.6,4.7c-.1.1-.1.2-.2.3a10.91,10.91,0,0,0-.6,1.1l-.3.6a2.507,2.507,0,0,1-.4.7,16.672,16.672,0,0,0-1.5,3.5l-.8,2.3a16.245,16.245,0,0,0-.4,1.9,3.091,3.091,0,0,1-.2.8s-.3,1.3-.3,1.4a5.628,5.628,0,0,0-.2,1V19c-.1,1.2,0,2.4,0,3.5v.1a19.055,19.055,0,0,0,2.4,7.3,27.857,27.857,0,0,0,4.8,5.8,68.232,68.232,0,0,0,9.2,6.5l1.1.7c.4.3.9.5,1.4.9-.9.5-1.7,1.1-2.6,1.7-11.1-14.8-31.1-15-32-15H3a2.723,2.723,0,0,0-2.1.9A3.333,3.333,0,0,0,0,33.5c0,19.8,9.5,23.9,21.5,29,.9.4,1.9.8,2.9,1.2-1.3,8.6.7,17,3.4,21.8,11.1,19.3,20.6,32.2,31,32.2,11.5,0,21.5-15.9,30.8-32.2,2.8-4.9,4.8-13.3,3.4-21.8,1-.4,1.9-.8,2.9-1.2C108.1,57.5,117.6,53.4,117.6,33.6Z" fill="#2d2413"/>
    <g>
      <g>
        <g>
          <path d="M80,57.6c6.7-24,34.6-24,34.6-24,0,22.3-12.2,21.9-29.4,30.7Z" fill="#d29229"/>
          <path d="M86.6,58.1s5.9-13,22.4-17.7C109.4,55.5,86.6,58.1,86.6,58.1Z" fill="#f8f4d6"/>
        </g>
        <g>
          <path d="M37.8,57.6c-6.7-24-34.6-24-34.6-24,0,22.3,12.2,21.9,29.4,30.7Z" fill="#d29229"/>
          <path d="M31.2,58.1s-5.9-13-22.4-17.7C8.4,55.5,31.2,58.1,31.2,58.1Z" fill="#f8f4d6"/>
        </g>
      </g>
      <path d="M59.1,42h-.4C22.6,42,24.4,73.4,30.6,84.2c9,15.7,18.8,30.7,28.4,30.7s19.3-15,28.2-30.7C93.4,73.5,95.2,42,59.1,42Z" fill="#d29229"/>
      <g>
        <path d="M45.3,69.1s-.5-.5-1.2-1.3a1.756,1.756,0,0,0-.5-.4c-.2-.1-.4-.3-.6-.4a2.011,2.011,0,0,0-.8-.4l-.9-.4-1.8-.6a12.236,12.236,0,0,0-1.7-.3,5.54,5.54,0,0,0-1.7-.1.215.215,0,0,1-.2-.2.349.349,0,0,1,.1-.2,10.709,10.709,0,0,1,1.7-.3,9.725,9.725,0,0,1,1.8-.1c.7,0,1.4.1,2.1.1l1.1.2a4.507,4.507,0,0,1,1.1.3c.4.1.7.3,1.1.4a7.919,7.919,0,0,1,.9.4c.9.6,1.4.9,1.4.9a1.664,1.664,0,0,1-1.8,2.8C45.5,69.3,45.4,69.2,45.3,69.1Z" fill="#432711"/>
        <path d="M70.4,66.6s.6-.4,1.4-.9a7.943,7.943,0,0,1,.9-.4c.3-.1.7-.3,1.1-.4a4.507,4.507,0,0,1,1.1-.3l1.1-.2c.7,0,1.5-.1,2.1-.1a9.725,9.725,0,0,1,1.8.1,8.293,8.293,0,0,1,1.7.3c.1,0,.2.1.1.2,0,.1-.1.1-.2.1,0,0-.7,0-1.7.1a12.236,12.236,0,0,0-1.7.3,12.666,12.666,0,0,0-1.8.6l-.9.4a2.01,2.01,0,0,0-.8.4,2.093,2.093,0,0,1-.6.4c-.2.2-.3.2-.5.4-.7.8-1.2,1.3-1.2,1.3a1.628,1.628,0,0,1-2.4-2.2A.4.4,0,0,0,70.4,66.6Z" fill="#432711"/>
      </g>
      <path d="M58.9,67c-3.7.1-14,15.2-9,29.7,1.1,3.1,6.6,2.9,9,2.9s7.9.2,9-2.9C72.9,82.2,62.6,67.1,58.9,67Z" fill="#875e25"/>
      <g>
        <path d="M61.4,51.5V49.8a16.232,16.232,0,0,1,.1-2.1,13.7,13.7,0,0,1,1.7-4.6A14.874,14.874,0,0,1,67,39a44.553,44.553,0,0,1,9.7-5,58.087,58.087,0,0,0,9.7-4.7,13.248,13.248,0,0,0,5.9-7.4,18.456,18.456,0,0,0,.4-2.3l.1-.6v-.5a5.7,5.7,0,0,0-.1-1.3c-.1-.8,0-1.7-.1-2.4s-.3-1.4-.4-2.1a15.322,15.322,0,0,0-1.1-3.6,13.138,13.138,0,0,1-.5-1.5c-.2-.4-.5-.8-.7-1.2-.8-1.5-1.2-2.3-1.2-2.3V4c-.1-.2,0-.4.2-.6a.44.44,0,0,1,.5.1s.6.8,1.6,2.2a6.233,6.233,0,0,1,.9,1.2c.3.4.5,1,.8,1.5a16.719,16.719,0,0,1,1.7,3.8c.3.7.5,1.5.8,2.3.2.8.3,1.6.5,2.4a5.021,5.021,0,0,1,.2,1.2c0,.3.1.3.1.8v.7c.1,1,0,2,0,3a13.914,13.914,0,0,1-2.1,6.1,20.308,20.308,0,0,1-4.2,5,62.673,62.673,0,0,1-9.9,6.8c-3.1,1.9-5.8,3.6-7.3,5.2s-1.4,2.5-1.4,3.1c0,.1.1.1.1.2a5.638,5.638,0,0,1,.1.7,3.2,3.2,0,0,1,.1.7,5.2,5.2,0,0,1-10.2,2,1.487,1.487,0,0,0,.2-.9Z" fill="#663a16"/>
        <path d="M46.2,50.3a4.184,4.184,0,0,1,.1-.7,5.638,5.638,0,0,1,.1-.7.31.31,0,0,1,.1-.2c0-.6.1-1.5-1.4-3.1s-4.2-3.3-7.3-5.2a62.68,62.68,0,0,1-9.9-6.8,20.308,20.308,0,0,1-4.2-5,17.726,17.726,0,0,1-2.1-6.1,15.037,15.037,0,0,1,0-3v-.7c0-.5.1-.5.1-.8a5.019,5.019,0,0,0,.2-1.2c.2-.8.3-1.6.5-2.4.3-.8.5-1.6.8-2.3a22.656,22.656,0,0,1,1.7-3.8c.3-.5.5-1,.8-1.5l.9-1.2c1-1.4,1.6-2.2,1.6-2.2.1-.2.4-.2.6-.1s.2.3.1.5v.1a23.651,23.651,0,0,0-1.2,2.3A7.458,7.458,0,0,1,27,7.4c-.2.5-.3,1-.5,1.5a18.949,18.949,0,0,0-1.1,3.6c-.1.7-.3,1.4-.4,2.1a18.482,18.482,0,0,0-.1,2.4,6.15,6.15,0,0,1-.1,1.3v.5l.1.6a8.519,8.519,0,0,0,.4,2.3,12.628,12.628,0,0,0,5.9,7.4,62.134,62.134,0,0,0,9.7,4.7,44.554,44.554,0,0,1,9.7,5,14.874,14.874,0,0,1,3.8,4.1,12.435,12.435,0,0,1,1.7,4.6,15.483,15.483,0,0,1,.1,2.1v1.7h0a5.156,5.156,0,1,1-10.3-.5C46.1,50.8,46.2,50.5,46.2,50.3Z" fill="#663a16"/>
      </g>
      <g>
        <path d="M49.3,100.4c1.7,6.5,4,10.1,9.8,10.1,6,0,7.3-2.9,9.3-9.4,1.6-5.2-3.9-9.4-9.3-9.4S47.9,95.2,49.3,100.4Z" fill="#f8f4d6"/>
        <g>
          <path d="M60.5,99.3,63.9,95s.1-.1.1,0v.1l-2.1,5.1a.828.828,0,1,1-1.5-.7C60.4,99.4,60.4,99.4,60.5,99.3Z" fill="#231f20"/>
          <path d="M55.9,100.2l-2.1-5.1c0-.1,0-.1.1-.1H54l3.4,4.3a.851.851,0,0,1-1.3,1.1Z" fill="#231f20"/>
        </g>
        <g>
          <path d="M63.5,106.5H54L51.6,105a.361.361,0,1,1,.4-.6l2.2,1.4h9.1l2.2-1.4c.2-.1.4-.1.5.1s.1.4-.1.5Z" fill="#010101"/>
          <polygon points="56.9 106.1 58.8 102 60.6 106.1 56.9 106.1" fill="#231f20"/>
        </g>
      </g>
      <g>
        <path d="M47.4,79.9a14.686,14.686,0,0,1-2.6-.3,21.538,21.538,0,0,1-5.3-1.7,13.341,13.341,0,0,1-4.4-3.5c-1-1.2-1.3-2.2-1.4-2.1l1.3-.7a6.487,6.487,0,0,0,1.4,1.7,7.943,7.943,0,0,0,1.7,1.4,16.641,16.641,0,0,0,2.3,1.2,17.906,17.906,0,0,0,4.8,1,12.491,12.491,0,0,0,2.2,0Z" fill="#010101"/>
        <path d="M70.5,77a12.491,12.491,0,0,0,2.2,0,19.61,19.61,0,0,0,4.8-1,10.077,10.077,0,0,0,2.3-1.2,6.066,6.066,0,0,0,1.7-1.4c1-.9,1.3-1.8,1.4-1.7l1.3.7a7.8,7.8,0,0,1-1.4,2.1A14.469,14.469,0,0,1,78.4,78a21.527,21.527,0,0,1-5.3,1.7,14.686,14.686,0,0,1-2.6.3Z" fill="#010101"/>
      </g>
      <g>
        <path d="M79.7,84.9a4.6,4.6,0,0,1-6.5,6.5c-1.8-1.8-1.1-7.6-1.1-7.6S78,83.1,79.7,84.9Z" fill="#dbc72a"/>
        <path d="M38.1,84.9a4.6,4.6,0,0,0,6.5,6.5c1.8-1.8,1.1-7.6,1.1-7.6S39.8,83.1,38.1,84.9Z" fill="#dbc72a"/>
      </g>
    </g>
  </g>
</svg>
