<svg id="Layer_1" data-name="Layer 1" xmlns="http://www.w3.org/2000/svg" viewBox="0 0 131.8 134.7">
  <title>Artboard 38</title>
  <g>
    <path d="M126.9,17.9c-3.3-1.7-5.3-2.4-6.9-2.4a4.265,4.265,0,0,0-2.4.6c-1.4-7.9-3-16-12.9-16a21.356,21.356,0,0,0-3.4.3c-2.8.4-4.7,1.5-5.6,3.4-1.4,2.6-.6,5.5.7,8.5a8.36,8.36,0,0,0-2.9-.5,19.091,19.091,0,0,0-5.8,1.1,4.721,4.721,0,0,0-3,2.5C83.5,18,85,21.2,87,25.5c2.6,5.6,6.3,13.2,3.8,19.7-1.6,4.1-5.5,7.5-11.7,10.3A34.91,34.91,0,0,0,66,53.3h-.2a35.453,35.453,0,0,0-13.2,2.2c-6.2-2.8-10.1-6.2-11.7-10.3C38.4,38.7,42,31,44.7,25.4c2.1-4.3,3.5-7.5,2.3-10.1a4.488,4.488,0,0,0-3-2.5,22.07,22.07,0,0,0-5.8-1.1,8.361,8.361,0,0,0-2.9.5c1.3-3.1,2.1-6,.7-8.5C35,1.9,33.1.8,30.4.3A20.419,20.419,0,0,0,27,0C17.1,0,15.5,8,14.1,16a4.265,4.265,0,0,0-2.4-.6c-1.6,0-3.6.7-6.9,2.4C1.7,19.4,0,22.6,0,26.7c0,7.9,5.5,17,13,24.6a2.817,2.817,0,0,0-1.5,2c-2.1,9.6,7.6,22.9,13.3,25.4a18.127,18.127,0,0,0,7.1,1.2,19.274,19.274,0,0,0,2.4-.1c-3,9.1,3,26.7,12.7,37.6,1.7,14.3,11.2,17.3,19,17.3s17.3-3,19-17.3c9.7-10.9,15.6-28.5,12.7-37.6a19.273,19.273,0,0,0,2.4.1,18.476,18.476,0,0,0,7.1-1.2c5.7-2.5,15.4-15.9,13.3-25.4a3.124,3.124,0,0,0-1.6-2.1c7.4-7.6,12.9-16.6,12.9-24.5C131.7,22.8,130,19.6,126.9,17.9Z" fill="#2d2413"/>
    <g>
      <g>
        <g>
          <path d="M80.5,65.3c16.5.2,37-11.2,37-11.2,1.8,7.9-7,20-11.6,22-4.6,2.1-15.1,1.2-25.5-5.1Z" fill="#cd7328"/>
          <path d="M112.1,61.8c.4,1.9-3.5,11-7.2,12.1-3.7,1.2-12.9,1.1-21.4-6C83.6,67.9,100.7,69.3,112.1,61.8Z" fill="#4e3315"/>
        </g>
        <g>
          <path d="M51.3,65.3c-16.5.2-37-11.2-37-11.2-1.8,7.9,7,20,11.6,22C30.5,78.2,41,77.3,51.4,71Z" fill="#cd7328"/>
          <path d="M19.6,61.8c-.4,1.9,3.5,11,7.2,12.1,3.7,1.2,12.9,1.1,21.4-6C48.2,67.9,31.1,69.3,19.6,61.8Z" fill="#4e3315"/>
        </g>
      </g>
      <path d="M94.7,80.9c-4.4-13-9.2-24.5-28.7-24.5h-.2C46.3,56.4,41.4,68,37.1,80.9c-3.9,11.6,10.4,43.9,28.8,43.9C84.4,124.8,98.6,92.5,94.7,80.9Z" fill="#cd7328"/>
      <ellipse cx="65.9" cy="92.4" rx="7.3" ry="21" fill="#e1c7a7"/>
      <path d="M49.6,112.8c0,9,2.5,19.3,16.3,19.3s16.3-10.2,16.3-19.3c0-9-10-12.1-16.3-12.1S49.6,103.8,49.6,112.8Z" fill="#5b3b17"/>
      <g>
        <path d="M57.2,115.1a10.614,10.614,0,0,0-.8-.7l-.5-.5a4.347,4.347,0,0,1-.6-.7,5.482,5.482,0,0,1-.8-1.5,8.333,8.333,0,0,1-.4-1.5,4.745,4.745,0,0,1,0-1.2,2.653,2.653,0,0,1,.2-1.1c0-.1.1-.2.2-.1a.1.1,0,0,1,.1.1s.2.4.5.9a5.089,5.089,0,0,0,1.5,1.4c.3.1.6.3.8.2h.7a6.269,6.269,0,0,1,1.1.1,2.707,2.707,0,0,1-.4,5.4,3.048,3.048,0,0,1-1.6-.8Z" fill="#1d140b"/>
        <path d="M72.5,110.5a8.66,8.66,0,0,0,1.1-.1h.7c.2.1.5-.1.8-.2a4.062,4.062,0,0,0,1.5-1.4,2.638,2.638,0,0,0,.5-.9c0-.1.2-.1.3-.1a.1.1,0,0,1,.1.1s.1.4.2,1.1a5.3,5.3,0,0,1-.4,2.7,5.484,5.484,0,0,1-.8,1.5c-.2.2-.4.5-.6.7l-.5.5c-.5.4-.8.7-.8.7h0a2.688,2.688,0,0,1-3.7-3.9A2.361,2.361,0,0,1,72.5,110.5Z" fill="#1d140b"/>
      </g>
      <g>
        <path d="M55.9,96.7A18.362,18.362,0,0,1,48,94.8a13.787,13.787,0,0,1-6.4-6c.3-.2.6-.3.9-.5.5-.3.5-.3.8.3a11.161,11.161,0,0,0,3.4,3.1c2.9,1.6,5-.5,8.2-.4C55,92.3,55.9,95.6,55.9,96.7Z" fill="#010101"/>
        <path d="M76.8,91.2c3.1-.1,5.1,2,7.9.5a9.216,9.216,0,0,0,3.5-3c.3-.4.4-.9.9-.6.3.2.7.4,1,.6a14.57,14.57,0,0,1-6,5.8,18.157,18.157,0,0,1-8.2,2.1C75.9,95.6,76.8,92.3,76.8,91.2Z" fill="#010101"/>
      </g>
      <g>
        <path d="M53.5,81s-.6-.2-1.6-.5a1.487,1.487,0,0,0-.6-.1c-.2,0-.5-.1-.7-.1a5.737,5.737,0,0,0-1.8.1,11.616,11.616,0,0,0-1.8.4c-.6.2-1.1.3-1.6.5-.9.4-1.5.7-1.5.7-.1.1-.2,0-.3-.1v-.2a13.3,13.3,0,0,1,1.3-1.1c.4-.3.9-.6,1.5-1,.6-.3,1.2-.6,1.9-.9l1-.3a3.811,3.811,0,0,1,1-.3c.4,0,.7-.1,1.1-.1.3,0,.7-.1,1-.1,1,.1,1.7.1,1.7.1a1.6,1.6,0,1,1-.2,3.2C53.7,81.1,53.6,81.1,53.5,81Z" fill="#231f20"/>
        <path d="M77.7,77.9s.7,0,1.7-.1a4.143,4.143,0,0,1,1,.1c.3,0,.7.1,1.1.1a4.5,4.5,0,0,1,1.1.3l1,.3c.6.3,1.3.6,1.9.9a9.742,9.742,0,0,1,1.5,1,13.3,13.3,0,0,1,1.3,1.1.188.188,0,0,1,0,.3c-.1.1-.2.1-.2,0,0,0-.6-.3-1.5-.7a6.038,6.038,0,0,0-1.6-.5,11.63,11.63,0,0,0-1.8-.4l-.9-.1c-.3,0-.6-.1-.8,0-.2,0-.5.1-.7.1a1.268,1.268,0,0,0-.6.1c-1,.3-1.6.5-1.6.5a1.581,1.581,0,0,1-1-3Z" fill="#231f20"/>
      </g>
      <path d="M72.6,126.5H59.3l-3.4-3.4a.849.849,0,1,1,1.2-1.2l2.9,2.9H72l2.9-2.9a.849.849,0,0,1,1.2,1.2Z" fill="#010101"/>
      <g>
        <path d="M76.7,98.1a34.341,34.341,0,0,1,4.7,1.6,9.143,9.143,0,0,1,1.7.9,9.742,9.742,0,0,1,1.5,1,4.985,4.985,0,0,1,1,1.1,3.606,3.606,0,0,0,.4.5,2.343,2.343,0,1,1-3.6,3,2.093,2.093,0,0,1-.4-.6l-.1-.3a.31.31,0,0,0-.1-.2c0-.1-.1-.2-.1-.3s0-.2-.2-.4a6.072,6.072,0,0,0-.7-1c-.4-.4-.7-.8-1.1-1.2A30.225,30.225,0,0,0,76,99.3a.651.651,0,0,1-.2-.9A.855.855,0,0,1,76.7,98.1Z" fill="#c16a4c"/>
        <path d="M55.6,99.2a30.225,30.225,0,0,0-3.7,2.9,11.994,11.994,0,0,0-1.1,1.2c-.3.4-.5.7-.7,1-.1.1-.1.3-.2.4,0,.1-.1.2-.1.3a.31.31,0,0,0-.1.2l-.1.3a2.312,2.312,0,1,1-4.3-1.7c.1-.2.2-.5.4-.6a2.22,2.22,0,0,1,.4-.5c.3-.3.6-.7,1-1.1.4-.3,1-.7,1.5-1,.6-.3,1.1-.6,1.7-.9A34.341,34.341,0,0,1,55,98.1a.657.657,0,0,1,.8.5C56,98.8,55.8,99.1,55.6,99.2Z" fill="#c16a4c"/>
      </g>
      <path d="M59.2,61.2c-43.6-12.7-8-43-16-45.4-9.6-2.8-7.5,1.1-13.6,7.5C27.3,16,39.8,4.9,30,3.4,16.3,1.3,19,12.9,14.8,27.2c-3-5.9,1.7-12-8.6-6.6C-6,27.1,17.6,66.6,55.8,68.3c1.1.1,2.5-1,3.4-3.1C60.1,63.2,60.1,61.5,59.2,61.2Z" fill="#69361f"/>
      <path d="M72.4,61.2c43.6-12.7,8-43,16-45.4C98,13,95.9,16.9,102,23.3c2.3-7.3-10.2-18.4-.4-19.9,13.7-2.1,11,9.5,15.2,23.8,3-5.9-1.7-12,8.6-6.6,12.2,6.5-11.4,46-49.6,47.7-1.1.1-2.5-1-3.4-3.1C71.5,63.2,71.5,61.5,72.4,61.2Z" fill="#69361f"/>
    </g>
  </g>
</svg>
