<svg id="Layer_1" data-name="Layer 1" xmlns="http://www.w3.org/2000/svg" viewBox="0 0 85.325 121.6">
  <title>Artboard 29</title>
  <g>
    <path d="M84.361,6.5c-1.5-5.6-4.4-6.4-6-6.4-1.9,0-3.6,1.1-5,3.2-2.9,4.2-4.7,5.4-6.5,6.5-3.3,2.1-5.8,4.2-10.1,12.4a54.068,54.068,0,0,0-8.5,2,41.615,41.615,0,0,0-14.1-6.6,1.483,1.483,0,0,0-.7-.1,2.973,2.973,0,0,0-2,.8,3.024,3.024,0,0,0-.9,2.7,22.105,22.105,0,0,0,.5,2.5h-1.9c-4.7-9.4-7.3-11.6-10.8-13.8a20.074,20.074,0,0,1-6.5-6.5c-1.5-2.1-3.1-3.2-5-3.2-1.6,0-4.6.9-6.1,6.6-2.2,8.7-.2,27.8,13.6,37.3-4.8,9.1-7.9,19.7-10.5,28.3-.9,3.2-1.8,6.2-2.7,8.7-1.8,5.5-.5,11.7,4,18.1,8.1,11.7,25.7,22.2,37.6,22.6h.2c11.9-.3,29.4-10.9,37.6-22.6,4.4-6.4,5.8-12.6,4-18.1-.8-2.5-1.7-5.5-2.7-8.7-2.6-8.8-5.7-19.5-10.6-28.6C84.761,34.1,86.561,15.1,84.361,6.5Z" fill="#2d2413"/>
    <g>
      <path d="M81.461,82.1c-5.9-17.4-12.4-55.3-38.7-55.3h-.2c-26.3,0-32.8,37.9-38.7,55.3-5.3,15.6,23.2,36.3,38.8,36.8C58.261,118.4,86.761,97.7,81.461,82.1Z" fill="#9e5b25"/>
      <g>
        <path d="M53.461,36.5c13.2-31.2,13.2-18.4,22.3-31.5,7.7-11.1,13.3,30.3-12.9,39.7Z" fill="#9e5b25"/>
        <path d="M57.161,36.7c8.5-20.2,13.4-13.5,19.2-22,5-7.2,3.8,21.2-13.1,27.3Z" fill="#4e3012"/>
      </g>
      <g>
        <path d="M31.461,36.5C18.261,5.3,18.261,18.1,9.161,5c-7.7-11.1-13.3,30.3,12.9,39.7Z" fill="#9e5b25"/>
        <path d="M27.861,36.7c-8.5-20.2-13.4-13.5-19.3-22-5-7.2-3.8,21.2,13.1,27.3Z" fill="#4e3012"/>
      </g>
      <path d="M27.761,103.3c0,8.1,8.8,11.4,14.7,11.4s14.7-3.3,14.7-11.4-9-16.9-14.7-16.9S27.761,95.1,27.761,103.3Z" fill="#faefd4"/>
      <g>
        <path d="M38.861,94v1.5c-.1.2.1.5.2.7a3.143,3.143,0,0,0,1.1,1.4,5.906,5.906,0,0,0,.8.5c.1,0,.1.1.1.2l-.1.1a4.538,4.538,0,0,1-1,.1,6.047,6.047,0,0,1-2.4-.5,4.577,4.577,0,0,1-1.3-.8l-.6-.6c-.1-.2-.3-.3-.4-.4a5.168,5.168,0,0,1-.6-.7h0a2.414,2.414,0,1,1,3.7-3.1A3.023,3.023,0,0,1,38.861,94Z" fill="#4e3012"/>
        <path d="M50.361,95.6a7.291,7.291,0,0,0-.6.7l-.4.4-.6.6a4.582,4.582,0,0,1-1.3.8,6.471,6.471,0,0,1-1.3.4c-.4,0-.8.1-1.1.1a4.538,4.538,0,0,1-1-.1c-.1,0-.1-.1-.1-.2a.1.1,0,0,1,.1-.1s.3-.2.8-.5a3.814,3.814,0,0,0,1.1-1.4,2.546,2.546,0,0,0,.2-.7V94.1a2.451,2.451,0,0,1,4.9.1,3.7,3.7,0,0,1-.7,1.4Z" fill="#4e3012"/>
      </g>
      <g>
        <path d="M18.961,73.3s.1.3.2.7a4.157,4.157,0,0,0,.2.6,5.9,5.9,0,0,0,.4.8,6.981,6.981,0,0,0,3.6,3.1,4.962,4.962,0,0,0,1.3.3,2.879,2.879,0,0,0,1.3-.1,7.26,7.26,0,0,0,2.2-.9,10.736,10.736,0,0,0,1.9-1.6.781.781,0,0,1,1.2,1,10.2,10.2,0,0,1-2,2.2,8.251,8.251,0,0,1-2.8,1.6,10.623,10.623,0,0,1-1.9.4,6.89,6.89,0,0,1-2-.1,10.355,10.355,0,0,1-6-3.7,7.634,7.634,0,0,1-.8-1.1,4.526,4.526,0,0,1-.5-1,5.946,5.946,0,0,1-.3-.7,2.036,2.036,0,0,1,3.7-1.7C18.961,73.1,18.961,73.2,18.961,73.3Z" fill="#010101"/>
        <path d="M56.161,73.3s.1.3.2.7a4.157,4.157,0,0,0,.2.6,5.9,5.9,0,0,0,.4.8,6.981,6.981,0,0,0,3.6,3.1,4.962,4.962,0,0,0,1.3.3,2.879,2.879,0,0,0,1.3-.1,7.26,7.26,0,0,0,2.2-.9,10.736,10.736,0,0,0,1.9-1.6.781.781,0,0,1,1.2,1,10.2,10.2,0,0,1-2,2.2,8.251,8.251,0,0,1-2.8,1.6,10.623,10.623,0,0,1-1.9.4,6.89,6.89,0,0,1-2-.1,10.355,10.355,0,0,1-6-3.7,7.634,7.634,0,0,1-.8-1.1,4.526,4.526,0,0,1-.5-1,5.946,5.946,0,0,1-.3-.7,2.036,2.036,0,0,1,3.7-1.7C56.061,73.1,56.161,73.2,56.161,73.3Z" fill="#010101"/>
      </g>
      <polygon points="35.961 110.5 42.461 106.2 48.961 110.5 35.961 110.5" fill="#231f20"/>
      <g>
        <path d="M26.561,59.1s-.9.1-2.2.3c-.4,0-.5.2-.8.2l-.9.3a4.672,4.672,0,0,0-1,.5l-1.1.6c-.7.5-1.4,1-2,1.5a11.717,11.717,0,0,0-1.6,1.5,21.67,21.67,0,0,0-1.4,1.7c-.1.1-.2.1-.4.1a.367.367,0,0,1-.1-.3,12.469,12.469,0,0,1,1-2.1c.3-.6.8-1.3,1.2-2,.5-.7,1.1-1.4,1.7-2.2l1.1-1a8.711,8.711,0,0,1,1.1-.9c.4-.3.9-.5,1.3-.8.4-.2.8-.5,1.1-.6,1.3-.5,2.1-.8,2.1-.8a2.154,2.154,0,1,1,1.6,4Z" fill="#4e3012"/>
        <path d="M59.361,55s.8.3,2.1.8c.3.1.7.4,1.1.6a14.806,14.806,0,0,0,1.3.8,10.623,10.623,0,0,1,1.1.9l1.1,1c.6.8,1.2,1.5,1.7,2.2a15.069,15.069,0,0,1,1.2,2,12.469,12.469,0,0,1,1,2.1c0,.1,0,.3-.2.3a.367.367,0,0,1-.3-.1,21.67,21.67,0,0,0-1.4-1.7,11.72,11.72,0,0,0-1.6-1.5c-.6-.5-1.3-1-2-1.5l-1.1-.6a9.258,9.258,0,0,0-1-.5l-.9-.3a2.354,2.354,0,0,0-.8-.2c-1.3-.2-2.2-.3-2.2-.3a2.165,2.165,0,0,1,.5-4.3C59.061,54.8,59.261,54.9,59.361,55Z" fill="#4e3012"/>
      </g>
      <path d="M56.161,36.1s3.6-7.9,8.1-10.8c-4.6-1.2-11.9.7-16.8,2.3-3-2.8-8.9-5.8-14.1-7a20.994,20.994,0,0,0,2.3,6.5,26.6,26.6,0,0,0-17.9,2.4c4.8,2.5,12.1,6.7,12.1,6.7s-3.7,6-6.7,12a40.215,40.215,0,0,1,14.4-6.6,37.139,37.139,0,0,1,4.5,10.6c1.5-2.7,7.9-8.2,7.9-8.2s8.5,3.3,14,4.3C60.261,38.3,56.161,36.1,56.161,36.1Z" fill="#faefd4"/>
      <g>
        <path d="M72.761,83.9c-1.9-2.7-15.4,6.8-13.5,9.5s6.5,2.8,10.2.2C73.261,91,74.661,86.7,72.761,83.9Z" fill="#eb6426"/>
        <path d="M12.161,83.9c1.9-2.7,15.4,6.8,13.5,9.5s-6.5,2.8-10.2.2C11.661,91,10.261,86.7,12.161,83.9Z" fill="#eb6426"/>
      </g>
    </g>
  </g>
</svg>
