<?xml version="1.0" encoding="UTF-8"?>
<svg width="75px" height="80px" viewBox="0 0 75 80" version="1.1" xmlns="http://www.w3.org/2000/svg" xmlns:xlink="http://www.w3.org/1999/xlink">
    <title>Atoms / Icons / Composer</title>
    <g id="STYLEGUIDE" stroke="none" stroke-width="1" fill="none" fill-rule="evenodd">
        <g id="Styleguide" transform="translate(-694.000000, -1068.000000)" fill="#363A5B">
            <g id="Combined-Shape" transform="translate(681.000000, 1058.000000)">
                <path d="M84.4285714,84.2857143 C86.0071771,84.2857143 87.2857143,85.5642514 87.2857143,87.1428571 C87.2857143,88.7214629 86.0071771,90 84.4285714,90 L15.8571429,90 C14.2785371,90 13,88.7214629 13,87.1428571 C13,85.5642514 14.2785371,84.2857143 15.8571429,84.2857143 L84.4285714,84.2857143 Z M66.4464549,10.8357486 L80.7321691,25.1214629 C81.8465006,26.2357943 81.8465006,28.0464457 80.7321691,29.1607771 L70.7817005,39.1135934 C70.7656017,39.1304905 70.7492558,39.1472379 70.7326629,39.1638309 L70.685,39.207 L32.1607406,77.7322057 C31.6285989,78.2679223 30.9035977,78.5714926 30.142912,78.5714926 L15.8571429,78.5714926 C14.2785371,78.5714926 13,77.2928914 13,75.7142857 L13,61.4285714 C13,60.6678583 13.3035703,59.9428571 13.835712,59.4071771 L62.4071406,10.8357486 C63.521472,9.72141714 65.3321234,9.72141714 66.4464549,10.8357486 Z M54.427,26.897 L18.7142857,62.6107429 L18.7142857,72.8571429 L28.9606857,72.8571429 L64.673,37.143 L54.427,26.897 Z M64.4285714,16.8964571 L58.466,22.858 L68.712,33.104 L74.6749714,27.1428571 L64.4285714,16.8964571 Z"></path>
            </g>
        </g>
    </g>
</svg>