<?xml version="1.0" encoding="UTF-8"?>
<svg width="90px" height="79px" viewBox="0 0 90 79" version="1.1" xmlns="http://www.w3.org/2000/svg" xmlns:xlink="http://www.w3.org/1999/xlink">
    <title>Atoms / Icons / Descri</title>
    <g id="STYLEGUIDE" stroke="none" stroke-width="1" fill="none" fill-rule="evenodd">
        <g id="Styleguide" transform="translate(-311.000000, -1474.000000)" fill="#363A5B">
            <g id="Fill-1" transform="translate(306.000000, 1463.000000)">
                <path d="M27.3771298,16.5969681 C30.4667422,16.6022187 32.9688609,19.1043239 32.974098,22.1939363 L32.974098,78.1421323 C32.9688475,81.2317446 30.4667422,83.7338633 27.3771298,83.7391004 L16.1885649,83.7391004 C13.0989526,83.7338633 10.5968339,81.2317446 10.5915968,78.1421323 L10.5915968,22.1939363 C10.5968473,19.1043239 13.0989526,16.6022052 16.1885649,16.5969681 L27.3771298,16.5969681 L27.3771298,16.5969681 Z M27.3771298,11 L16.1885649,11 C10.0093402,11 5,16.0094745 5,22.193802 L5,78.141998 C5,81.1108888 6.17498731,83.9591923 8.27841603,86.057384 C10.3766077,88.1555756 13.2196741,89.3358 16.1885649,89.3358 L27.3771298,89.3358 C30.3460206,89.3358 33.1943242,88.1555622 35.2925158,86.057384 C37.3907075,83.9592058 38.5709319,81.1108888 38.5709319,78.141998 L38.5709319,22.193802 C38.5709319,19.2249112 37.390694,16.3766077 35.2925158,14.278416 C33.1943376,12.1802244 30.3460206,11 27.3771298,11 Z M94.5192621,24.9897347 C94.5192621,24.2501238 94.2255153,23.5367789 93.7009607,23.0121303 C93.176406,22.4874817 92.4630209,22.1938289 91.7233563,22.1938289 L52.555322,22.1938289 C51.0132015,22.1938289 49.7595236,23.4422562 49.7595236,24.9896273 C49.7595236,26.5369983 51.0131881,27.7854256 52.555322,27.7854256 L91.7233563,27.7854256 C92.4629672,27.7854256 93.176312,27.4916788 93.7009607,26.9671242 C94.2256093,26.4425696 94.5192621,25.7291844 94.5192621,24.9895198 L94.5192621,24.9897347 Z M94.5192621,41.7752677 C94.5192621,41.0356569 94.2255153,40.322312 93.7009607,39.7976634 C93.176406,39.2730148 92.4630209,38.9793619 91.7233563,38.9793619 L52.555322,38.9793619 C51.0132015,38.9793619 49.7595236,40.2277893 49.7595236,41.7751603 C49.7595236,43.3225313 51.0131881,44.5709587 52.555322,44.5709587 L91.7233563,44.5709587 C92.4629672,44.5709587 93.176312,44.2772119 93.7009607,43.7526573 C94.2256093,43.2281026 94.5192621,42.5147175 94.5192621,41.7750529 L94.5192621,41.7752677 Z M94.5192621,58.5608008 C94.5192621,57.8211899 94.2255153,57.1078451 93.7009607,56.5831965 C93.176406,56.0585478 92.4630209,55.764895 91.7233563,55.764895 L52.555322,55.764895 C51.0132015,55.764895 49.7595236,57.0133224 49.7595236,58.5606934 C49.7595236,60.1080644 51.0131881,61.3564918 52.555322,61.3564918 L91.7233563,61.3564918 C92.4629672,61.3564918 93.176312,61.062745 93.7009607,60.5381903 C94.2256093,60.0136357 94.5192621,59.3002505 94.5192621,58.560586 L94.5192621,58.5608008 Z M94.5192621,75.3463339 C94.5192621,74.606723 94.2255153,73.8933781 93.7009607,73.3687295 C93.176406,72.8440809 92.4630209,72.5504281 91.7233563,72.5504281 L52.555322,72.5504281 C51.0132015,72.5504281 49.7595236,73.7988555 49.7595236,75.3462265 C49.7595236,76.8935975 51.0131881,78.1420248 52.555322,78.1420248 L91.7233563,78.1420248 C92.4629672,78.1420248 93.176312,77.848278 93.7009607,77.3237234 C94.2256093,76.7991688 94.5192621,76.0857836 94.5192621,75.346119 L94.5192621,75.3463339 Z"></path>
            </g>
        </g>
    </g>
</svg>