<?xml version="1.0" encoding="UTF-8"?>
<svg width="58px" height="81px" viewBox="0 0 58 81" version="1.1" xmlns="http://www.w3.org/2000/svg" xmlns:xlink="http://www.w3.org/1999/xlink">
    <title>Atoms / Icons / Etiquette Full</title>
    <g id="STYLEGUIDE" stroke="none" stroke-width="1" fill="none" fill-rule="evenodd">
        <g id="Styleguide" transform="translate(-1077.000000, -1068.000000)" fill="#363A5B">
            <g id="Path" transform="translate(1056.000000, 1058.000000)">
                <path d="M22.3985111,89.8166 C23.2617911,90.297071 24.3165111,90.269721 25.1563111,89.7541 L49.8633111,74.4451 L74.5703111,89.7541 C75,90.01972 75.4960911,90.164261 76.0039111,90.164261 C76.4648511,90.164261 76.9257911,90.04707 77.3281111,89.8166 C78.1913911,89.33613 78.7265111,88.426 78.7265111,87.4377 L78.7304211,12.7227 C78.7304211,11.2227 77.5077211,10 76.0077211,10 L23.7227211,10.00391 C22.2227211,10.00391 21,11.22661 21,12.72661 L21,87.43761 C20.9961111,88.4298 21.5351811,89.33601 22.3984211,89.81651 L22.3985111,89.8166 Z"></path>
            </g>
        </g>
    </g>
</svg>