<?xml version="1.0" encoding="UTF-8"?>
<svg width="88px" height="75px" viewBox="0 0 88 75" version="1.1" xmlns="http://www.w3.org/2000/svg" xmlns:xlink="http://www.w3.org/1999/xlink">
    <title>Atoms / Icons / Folder 2</title>
    <g id="STYLEGUIDE" stroke="none" stroke-width="1" fill="none" fill-rule="evenodd">
        <g id="Styleguide" transform="translate(-312.000000, -800.000000)" fill="#363A5B">
            <g id="Fill-1" transform="translate(306.000000, 788.000000)">
                <path d="M90.375,87 L9.125,87 C7.3984,87 6,85.6016 6,83.875 L6,15.125 C6,13.3984 7.3984,12 9.125,12 L34.125,12 C34.6875,12 35.2383,12.15234 35.7188,12.4375 L50.6248,21.375 L90.3748,21.375 C91.20292,21.375 91.9998,21.70312 92.5857,22.28906 C93.17164,22.875 93.49976,23.67186 93.49976,24.49996 L93.49976,83.87496 C93.49976,84.70308 93.17164,85.49996 92.5857,86.08586 C91.99976,86.6718 91.2029,87 90.3748,87 L90.375,87 Z M12.25,80.75 L87.25,80.75 L87.25,27.625 L49.75,27.625 C49.1875,27.625 48.6367,27.47266 48.1562,27.1875 L33.2502,18.25 L12.25,18.25 L12.25,80.75 Z"></path>
            </g>
        </g>
    </g>
</svg>