<?xml version="1.0" encoding="UTF-8"?>
<svg width="86px" height="75px" viewBox="0 0 86 75" version="1.1" xmlns="http://www.w3.org/2000/svg" xmlns:xlink="http://www.w3.org/1999/xlink">
    <title>Atoms / Icons / Help page</title>
    <g id="STYLEGUIDE" stroke="none" stroke-width="1" fill="none" fill-rule="evenodd">
        <g id="Styleguide" transform="translate(-814.000000, -1749.000000)" fill="#363A5B">
            <g id="Combined-Shape" transform="translate(806.000000, 1733.000000)">
                <path d="M78,59 C86.8298984,59 94,66.1701016 94,75 C94,83.8274045 86.8286425,91 78,91 C69.1728289,91 62,83.8271711 62,75 C62,66.1713575 69.1725955,59 78,59 Z M78,62 C70.8277338,62 65,67.826728 65,75 C65,82.1720765 70.8279235,88 78,88 C85.173272,88 91,82.1722662 91,75 C91,67.8257076 85.1742924,62 78,62 Z M80.3636364,81.8181818 C80.3636364,84.969697 75.6363636,84.969697 75.6363636,81.8181818 C75.6363636,78.6666667 80.3636364,78.6666667 80.3636364,81.8181818 Z M87.168,16 C88.2735,16 89.33201,16.4376 90.1133,17.2188 C90.89459,18 91.336,19.0586 91.336,20.1641 L91.336,20.1641 L91.336,59.7501 L87.168,59.7501 L87.168,32.6641 L12.168,32.6641 L12.168,78.5001 L58,78.5001 L58,82.6642 L12.168,82.6642 C11.0625,82.6642 10.00399,82.2266 9.2227,81.4454 C8.44141,80.6642 8,79.6056 8,78.5001 L8,78.5001 L8,20.1641 C8,17.8633 9.8672,16 12.168,16 L12.168,16 Z M79.3819366,65.9781563 L79.6163579,66.0369553 L79.8498097,66.1052953 C82.0737615,66.8039963 83.3452611,68.602343 83.4275567,71.0921428 L83.4318182,71.3521581 L83.4291802,71.4884587 C83.2637858,73.7609671 81.8332137,75.4407187 79.9277842,76.3505072 L79.7058645,76.4520557 L79.498,76.538 L79.498,77.34 L79.5024732,77.3739687 C79.5688898,78.2074579 78.9912296,78.9091517 78.2050372,79.0445843 L78.0642214,79.0625177 L77.925,79.067 L77.7860257,79.0619435 C77.0446385,78.9982103 76.4454022,78.4371733 76.3178111,77.71577 L76.2986791,77.569451 L76.2926864,77.4283689 L76.2926864,75.3496215 C76.2926864,74.5659834 76.835028,73.900458 77.55192,73.7414693 C77.70057,73.7084367 77.848695,73.6696063 78.0450766,73.6024539 C78.3652681,73.4929649 78.6808209,73.3486853 78.9695431,73.1669544 C79.6983043,72.7082489 80.130536,72.1015696 80.1950028,71.3520302 C80.1950028,70.1213154 79.7469654,69.476208 78.7734644,69.2146747 C77.3870319,68.8351755 76.1584377,69.4184678 75.7477792,70.6327756 C75.4220571,71.4568691 74.5088736,71.9045239 73.6498868,71.5882086 C72.7792223,71.2707537 72.3573358,70.3438902 72.6679085,69.48701 C73.6129756,66.7807407 76.4906414,65.3109447 79.3819366,65.9781563 Z M87.168,20.1641 L12.168,20.1641 L12.168,28.50001 L87.168,28.4961 L87.168,20.1641 Z M19.8907,22.85942 C20.48836,23.45317 20.66414,24.35162 20.34382,25.12892 C20.0196,25.90626 19.26182,26.41412 18.41802,26.41412 C17.26572,26.41412 16.336,25.48443 16.336,24.33212 C16.336,23.48835 16.84381,22.7305 17.6212,22.4063 C18.39854,22.08599 19.297,22.26177 19.8907,22.85942 Z"></path>
            </g>
        </g>
    </g>
</svg>