<?xml version="1.0" encoding="UTF-8"?>
<svg width="75px" height="74px" viewBox="0 0 75 74" version="1.1" xmlns="http://www.w3.org/2000/svg" xmlns:xlink="http://www.w3.org/1999/xlink">
    <title>Atoms / Icons / Options</title>
    <g id="STYLEGUIDE" stroke="none" stroke-width="1" fill="none" fill-rule="evenodd">
        <g id="Styleguide" transform="translate(-569.000000, -1206.000000)" fill="#363A5B">
            <g id="Combined-Shape" transform="translate(556.000000, 1193.000000)">
                <path d="M42.5639064,63.1119625 C47.6570933,63.1119625 52.159002,66.4305888 53.6623007,71.297119 L53.6623007,71.297119 L84.8880098,71.297119 C86.6060359,71.297119 88,72.6910831 88,74.4091091 C88,76.1271352 86.6060359,77.5210993 84.8880098,77.5210993 L84.8880098,77.5210993 L53.7681083,77.5210993 C52.5360714,82.7118989 47.9007621,86.3749187 42.5639064,86.3749187 C37.2270508,86.3749187 32.591534,82.7117951 31.3597046,77.5210993 L31.3597046,77.5210993 L16.1119902,77.5210993 C14.3939641,77.5210993 13,76.1271352 13,74.4091091 C13,72.6910831 14.3939641,71.297119 16.1119902,71.297119 L16.1119902,71.297119 L31.4655122,71.297119 C32.9686035,66.4305888 37.4707196,63.1119625 42.5639064,63.1119625 Z M44.6264298,69.7370783 C42.6125572,68.9023388 40.2907014,69.3642619 38.7508886,70.9040746 C37.2070615,72.4479329 36.7451176,74.7697888 37.5798468,76.7836614 C38.4145862,78.8015795 40.3838536,80.1144244 42.5639064,80.1144244 C43.9942809,80.1144244 45.3679548,79.5471709 46.3769242,78.5341558 C47.3898978,77.5210993 47.9571928,76.1515124 47.9571928,74.721138 C47.9571928,72.5370396 46.6443479,70.5718074 44.6264298,69.7370783 Z M66.6296524,37.8959212 C71.8120496,37.9363771 76.3422774,41.4090469 77.7280466,46.4011978 L77.7280466,46.4011978 L84.8880098,46.4011978 C86.6060359,46.4011978 88,47.7951619 88,49.5131879 C88,51.231214 86.6060359,52.6251781 84.8880098,52.6251781 L84.8880098,52.6251781 L77.7280466,52.6251781 C76.3424849,57.6173289 71.8122571,61.0899365 66.6296524,61.1304546 C61.422463,61.1021355 56.855825,57.6335113 55.4254505,52.6251781 L55.4254505,52.6251781 L16.1127163,52.6251781 C14.3946903,52.6251781 13.0007261,51.231214 13.0007261,49.5131879 C13.0007261,47.7951619 14.3946903,46.4011978 16.1127163,46.4011978 L16.1127163,46.4011978 L55.4254505,46.4011978 C56.8560324,41.3928646 61.4227742,37.9242818 66.6296524,37.8959212 Z M68.565829,44.5210371 C66.5357741,43.6903431 64.2098726,44.1725979 62.6741055,45.7366841 C61.1424254,47.3007704 60.7047966,49.6388086 61.5719423,51.6486356 C62.4390465,53.6625081 64.4407823,54.9510484 66.6289263,54.9064743 C69.5667487,54.8497324 71.9209693,52.4509066 71.9209693,49.5131879 C71.9209693,47.3209983 70.5958839,45.3476646 68.565829,44.5210371 Z M34.0588374,13 C39.2660267,13.0283191 43.8326648,16.4969433 45.2630392,21.5052766 L45.2630392,21.5052766 L84.8880098,21.5052766 C86.6060359,21.5052766 88,22.8992407 88,24.6172667 C88,26.3352927 86.6060359,27.7292569 84.8880098,27.7292569 L84.8880098,27.7292569 L45.2630392,27.7292569 C43.8324574,32.7375901 39.2657156,36.2061728 34.0588374,36.2345334 C28.8764402,36.1940775 24.3462124,32.7214077 22.9604431,27.7292569 L22.9604431,27.7292569 L16.1124051,27.7292569 C14.3943791,27.7292569 13.0004149,26.3352927 13.0004149,24.6172667 C13.0004149,22.8992407 14.3943791,21.5052766 16.1124051,21.5052766 L16.1124051,21.5052766 L22.9604431,21.5052766 C24.3460049,16.5131257 28.8762327,13.0405181 34.0588374,13 Z M36.1213607,19.633207 C34.1074881,18.7984675 31.7856323,19.2603906 30.241774,20.8042489 C28.701982,22.3440616 28.2400485,24.6659175 29.0747777,26.67979 C29.9095172,28.6977082 31.8747389,30.0105531 34.0588374,30.0105531 C35.4892118,30.0105531 36.8588401,29.4432995 37.8718552,28.4302845 C38.8848287,27.4212736 39.4521238,26.0476411 39.4521238,24.6172667 C39.4521238,22.4372139 38.1392788,20.4679361 36.1213607,19.633207 Z"></path>
            </g>
        </g>
    </g>
</svg>