<?xml version="1.0" encoding="UTF-8"?>
<svg width="80px" height="88px" viewBox="0 0 80 88" version="1.1" xmlns="http://www.w3.org/2000/svg" xmlns:xlink="http://www.w3.org/1999/xlink">
    <title>Atoms / Icons / Refresh</title>
    <g id="STYLEGUIDE" stroke="none" stroke-width="1" fill="none" fill-rule="evenodd">
        <g id="Styleguide" transform="translate(-941.000000, -1469.000000)" fill="#363A5B">
            <g id="Combined-Shape" transform="translate(931.000000, 1463.000000)">
                <path d="M71.935513,25.227969 C82.8024632,30.5402185 90,39.7040747 90,50.0266387 C90,66.3879026 72.0516419,79.7040102 50.0000645,79.7040102 L50.0000645,79.7040102 L49.0071242,79.7040102 L57.8931744,88.5850281 L52.424409,94.0537935 L34.2089545,75.8331777 L52.4295703,57.6422393 L57.8983356,63.1110047 L49.0475112,71.9618291 L50.000129,71.9618291 C67.7923584,71.9618291 82.2581415,62.118103 82.2581415,50.0263806 C82.2581415,43.691036 78.286406,37.9753033 71.9355775,33.9631807 L71.9355775,33.9631807 Z M47.5756168,6 L65.7910713,24.2206158 L47.5756168,42.4412315 L42.101716,36.9330727 L50.9424759,28.0923128 L49.9999355,28.0923128 C32.2077061,28.0923128 17.741923,37.9360388 17.741923,50.0277612 C17.741923,56.3631059 21.7136585,62.0788386 28.064487,66.0909611 L28.064487,66.0909611 L28.064487,74.8257858 C17.1975368,69.5135363 10,60.3496801 10,50.0271161 C10,33.6658522 27.9483581,20.3497446 49.9999355,20.3497446 L49.9999355,20.3497446 L51.0079984,20.3699123 L42.1068514,11.4687654 L47.5756168,6 Z"></path>
            </g>
        </g>
    </g>
</svg>