<?xml version="1.0" encoding="UTF-8"?>
<svg width="80px" height="81px" viewBox="0 0 80 81" version="1.1" xmlns="http://www.w3.org/2000/svg" xmlns:xlink="http://www.w3.org/1999/xlink">
    <title>Atoms / Icons / Send</title>
    <g id="STYLEGUIDE" stroke="none" stroke-width="1" fill="none" fill-rule="evenodd">
        <g id="Styleguide" transform="translate(-64.000000, -1475.000000)" fill="#363A5B">
            <g id="Fill-1" transform="translate(56.000000, 1463.000000)">
                <path d="M84.9333298,12.001635 C84.5700498,12.009445 84.2106698,12.083665 83.8708298,12.220385 L9.87082984,43.220385 C8.69112984,43.700855 7.94112784,44.876585 8.00362784,46.150085 C8.07003984,47.419585 8.92940984,48.517285 10.1520298,48.876685 L41.6210298,58.407885 L51.1522298,89.876885 C51.5116098,91.099585 52.6092298,91.958885 53.8788298,92.025285 C55.1522298,92.087785 56.3280298,91.337785 56.8085298,90.158085 L87.8085298,16.158085 C88.2030598,15.212775 88.0897798,14.134685 87.5077498,13.294785 C86.9257198,12.451035 85.9569498,11.966685 84.9335498,12.001785 L84.9333298,12.001635 Z M72.0893298,23.689635 L43.1833298,52.627635 L19.9023298,45.565135 L72.0893298,23.689635 Z M76.3393298,27.939635 L54.4643298,80.127635 L47.4018298,56.846635 L76.3393298,27.939635 Z"></path>
            </g>
        </g>
    </g>
</svg>