<?xml version="1.0" encoding="UTF-8"?>
<svg width="80px" height="76px" viewBox="0 0 80 76" version="1.1" xmlns="http://www.w3.org/2000/svg" xmlns:xlink="http://www.w3.org/1999/xlink">
    <title>Atoms / Icons / Text</title>
    <g id="STYLEGUIDE" stroke="none" stroke-width="1" fill="none" fill-rule="evenodd">
        <g id="Styleguide" transform="translate(-1316.000000, -800.000000)" fill="#363A5B">
            <g id="Fill-1" transform="translate(1306.000000, 788.000000)">
                <path d="M90,12.0001016 L90,16.7075891 L45.2947883,16.703173 L45.2947883,12.0001016 L90,12.0001016 Z M45.2947883,44.938893 L90,44.938893 L90,40.2358216 L45.2947883,40.2358216 L45.2947883,44.938893 Z M10.0000113,73.1747147 L90,73.1747147 L90,68.4716433 L10.0000113,68.4716433 L10.0000113,73.1747147 Z M10.0000113,59.0568038 L90,59.0568038 L90,54.3537324 L10.0000113,54.3537324 L10.0000113,59.0568038 Z M45.2947883,30.8209822 L90,30.8209822 L90,26.1179108 L45.2947883,26.1179108 L45.2947883,30.8209822 Z M10.0000113,87.2926255 L80.5895654,87.2926255 L80.5895654,82.5895541 L10.0000113,82.5895541 L10.0000113,87.2926255 Z M14.7074875,16.7030714 L21.7664429,16.7030714 L21.7620268,40.2359346 L17.0589554,40.2359346 L17.0589554,44.9434108 L31.1768662,44.9434108 L31.1768662,40.2359346 L26.46939,40.2359346 L26.46939,16.7030714 L33.5283454,16.7030714 L33.5283454,19.0545506 L38.2358216,19.0545506 L38.2358216,12 L10,12 L10,19.0589554 L14.7074762,19.0589554 L14.7074875,16.7030714 Z"></path>
            </g>
        </g>
    </g>
</svg>