<?xml version="1.0" encoding="UTF-8"?><svg id="uuid-efa2fc14-10b8-436a-b532-a6b8a8ea2655" xmlns="http://www.w3.org/2000/svg" xmlns:xlink="http://www.w3.org/1999/xlink" viewBox="0 0 1882.64 1839.91"><defs><style>.uuid-ba1400d7-ab97-4193-9980-a3e33e982625,.uuid-5223b588-7675-40f2-97e7-042b942378be{fill:#0eb09d;}.uuid-5223b588-7675-40f2-97e7-042b942378be{filter:url(#uuid-bd006db2-8d2e-4529-8a24-ebdea6191cd2);}.uuid-67f522d2-4448-4050-bb95-c2fea296bca5{fill:#fff;filter:url(#uuid-9a001581-1a9b-4ba7-8427-f201cd023683);}.uuid-907a2e2a-f6b8-40f1-adec-43181b6fdb0a{clip-path:url(#uuid-6be98dd3-79b1-4fd2-bd5f-24d15a35bd6a);}</style><filter id="uuid-9a001581-1a9b-4ba7-8427-f201cd023683" filterUnits="userSpaceOnUse"><feOffset dx="0" dy="0"/><feGaussianBlur result="uuid-5d4c06f1-94cc-414b-8a28-ec59bb828847" stdDeviation="89.12"/><feFlood flood-color="#020202" flood-opacity=".6"/><feComposite in2="uuid-5d4c06f1-94cc-414b-8a28-ec59bb828847" operator="in"/><feComposite in="SourceGraphic"/></filter><clipPath id="uuid-6be98dd3-79b1-4fd2-bd5f-24d15a35bd6a"><path class="uuid-ba1400d7-ab97-4193-9980-a3e33e982625" d="m1299.11,874.85c80.25-60.19,125.85-145.91,125.85-242.57,0-226.16-171.44-357.48-454.14-357.48h-403.07v1276.7h428.61c310.06,0,501.56-142.26,501.56-383.01,0-125.85-72.95-229.81-198.8-293.64Zm-282.7,401.25h-124.02v-725.9h159.75c54.3,0,90.54,22.32,104.64,60.48-10.97,11.31-261.96,262.3-261.96,262.3,0,0,245.07,245.32,269.33,269.47,0,2.92,0,5.54,0,7.81,0,76.6-56.54,125.85-147.73,125.85Z"/></clipPath><filter id="uuid-bd006db2-8d2e-4529-8a24-ebdea6191cd2" filterUnits="userSpaceOnUse"><feOffset dx="-9.93" dy="0"/><feGaussianBlur result="uuid-fc4dc421-25ca-40ae-95db-3cb42bc39c53" stdDeviation="34.77"/><feFlood flood-color="#1d3d91" flood-opacity="1"/><feComposite in2="uuid-fc4dc421-25ca-40ae-95db-3cb42bc39c53" operator="in"/><feComposite in="SourceGraphic"/></filter></defs><circle class="uuid-67f522d2-4448-4050-bb95-c2fea296bca5" cx="941.23" cy="910.51" r="819.13"/><g><path class="uuid-ba1400d7-ab97-4193-9980-a3e33e982625" d="m1299.11,874.85c80.25-60.19,125.85-145.91,125.85-242.57,0-226.16-171.44-357.48-454.14-357.48h-403.07v1276.7h428.61c310.06,0,501.56-142.26,501.56-383.01,0-125.85-72.95-229.81-198.8-293.64Zm-282.7,401.25h-124.02v-725.9h159.75c54.3,0,90.54,22.32,104.64,60.48-10.97,11.31-261.96,262.3-261.96,262.3,0,0,245.07,245.32,269.33,269.47,0,2.92,0,5.54,0,7.81,0,76.6-56.54,125.85-147.73,125.85Z"/><g class="uuid-907a2e2a-f6b8-40f1-adec-43181b6fdb0a"><rect class="uuid-5223b588-7675-40f2-97e7-042b942378be" x="1075.88" y="435.46" width="875.06" height="875.06" transform="translate(1060.57 -814.45) rotate(45)"/></g></g></svg>