<?xml version="1.0" encoding="UTF-8"?>
<svg width="84px" height="82px" viewBox="0 0 84 82" version="1.1" xmlns="http://www.w3.org/2000/svg" xmlns:xlink="http://www.w3.org/1999/xlink">
    <title>Atoms / Icons / Calendar</title>
    <g id="STYLEGUIDE" stroke="none" stroke-width="1" fill="none" fill-rule="evenodd">
        <g id="Styleguide" transform="translate(-1144.000000, -1222.000000)" fill="#363A5B">
            <g id="Group" transform="translate(1136.000000, 1213.000000)">
                <path d="M27,76.5008773 C27,79.8330409 22,79.8330409 22,76.5008773 C22,73.1663742 27,73.1663742 27,76.5008773 Z M40,76.5008773 C40,79.8330409 35,79.8330409 35,76.5008773 C35,73.1663742 40,73.1663742 40,76.5008773 Z M66,76.5008773 C66,79.8330409 61,79.8330409 61,76.5008773 C61,73.1663742 66,73.1663742 66,76.5008773 Z M53,76.5008773 C53,79.8330409 48,79.8330409 48,76.5008773 C48,73.1663742 53,73.1663742 53,76.5008773 Z M27,63.5 C27,66.8333333 22,66.8333333 22,63.5 C22,60.1666667 27,60.1666667 27,63.5 Z M40,63.5 C40,66.8333333 35,66.8333333 35,63.5 C35,60.1666667 40,60.1666667 40,63.5 Z M66,63.5 C66,66.8333333 61,66.8333333 61,63.5 C61,60.1666667 66,60.1666667 66,63.5 Z M79,63.5 C79,66.8333333 74,66.8333333 74,63.5 C74,60.1666667 79,60.1666667 79,63.5 Z M53,63.5 C53,66.8333333 48,66.8333333 48,63.5 C48,60.1666667 53,60.1666667 53,63.5 Z M40,50.4991227 C40,53.8336258 35,53.8336258 35,50.4991227 C35,47.1669591 40,47.1669591 40,50.4991227 Z M66,50.4991227 C66,53.8336258 61,53.8336258 61,50.4991227 C61,47.1669591 66,47.1669591 66,50.4991227 Z M79,50.4991227 C79,53.8336258 74,53.8336258 74,50.4991227 C74,47.1669591 79,47.1669591 79,50.4991227 Z M53,50.4991227 C53,53.8336258 48,53.8336258 48,50.4991227 C48,47.1669591 53,47.1669591 53,50.4991227 Z" id="Combined-Shape"></path>
                <path d="M30,9 C26.7109,9 24,11.7109 24,15 L24,19 L14,19 C10.7109,19 8,21.7109 8,25 L8,85 C8,88.2891 10.7109,91 14,91 L86,91 C89.2891,91 92,88.2891 92,85 L92,25 C92,21.7109 89.2891,19 86,19 L76,19 L76,15 C76,11.7109 73.2891,9 70,9 C66.7109,9 64,11.7109 64,15 L64,19 L36,19 L36,15 C36,11.7109 33.2891,9 30,9 Z M30,13 C31.1445,13 32,13.85547 32,15 L32,27 C32,28.1445 31.14453,29 30,29 C28.85547,29 28,28.14453 28,27 L28,15 C28,13.8555 28.85547,13 30,13 Z M70,13 C71.1445,13 72,13.85547 72,15 L72,27 C72,28.1445 71.14453,29 70,29 C68.85547,29 68,28.14453 68,27 L68,15 C68,13.8555 68.85547,13 70,13 Z M14,23 L24,23 L24,27 C24,30.2891 26.7109,33 30,33 C33.2891,33 36,30.2891 36,27 L36,23 L64,23 L64,27 C64,30.2891 66.7109,33 70,33 C73.2891,33 76,30.2891 76,27 L76,23 L86,23 C87.1406,23 88,23.85938 88,25 L88,37 L12,37 L12,25 C12,23.8594 12.85938,23 14,23 Z M12,41 L88,41 L88,85 C88,86.1406 87.14062,87 86,87 L14,87 C12.8594,87 12,86.14062 12,85 L12,41 Z" id="Fill-1"></path>
            </g>
        </g>
    </g>
</svg>