<?xml version="1.0" encoding="UTF-8"?>
<svg width="80px" height="48px" viewBox="0 0 80 48" version="1.1" xmlns="http://www.w3.org/2000/svg" xmlns:xlink="http://www.w3.org/1999/xlink">
    <title>Atoms / Icons / Camera</title>
    <g id="STYLEGUIDE" stroke="none" stroke-width="1" fill="none" fill-rule="evenodd">
        <g id="Styleguide" transform="translate(-876.000000, -1374.000000)" fill="#2C3054">
            <g id="Fill-1" transform="translate(866.000000, 1348.000000)">
                <path d="M58.7802791,26 L18.9302326,26 C13.9985116,26 10,29.9985116 10,34.9302326 L10,65.0697674 C10,67.437507 10.9418605,69.7092465 12.6163349,71.3836651 C14.2908093,73.0580837 16.5626047,74 18.9302326,74 L58.7802791,74 C61.1523721,74 63.4197581,73.0581395 65.0986419,71.3836651 C66.7730605,69.7092465 67.7105116,67.4373953 67.7105116,65.0697674 L67.7105116,60.6046512 L79.4314419,68.5320186 C80.5433563,69.3169079 81.8689488,69.744186 83.2293581,69.7573581 C84.3194716,69.7791591 85.4008558,69.5088074 86.3558326,68.9768335 C88.5666233,67.838787 89.9489116,65.5495219 89.9270326,63.0596614 L89.9270326,36.8271033 C89.9749991,34.4201823 88.6842791,32.1831591 86.5781953,31.0233451 C84.511293,29.8023591 81.9474233,29.8023591 79.8805209,31.0233451 L67.7108465,37.9433823 L67.7108465,34.9303219 C67.7108465,32.5625823 66.7733507,30.2908428 65.0989767,28.6164242 C63.4202047,26.9420056 61.152707,26 58.780614,26 L58.7802791,26 Z M63.2453953,65.0697674 C63.2802791,66.2645209 62.8180726,67.4157395 61.9721674,68.2616558 C61.1305935,69.1075833 59.9750326,69.5654698 58.7802791,69.5348837 L18.9302326,69.5348837 C17.7354791,69.5654028 16.5842605,69.1075609 15.7383442,68.2616558 C14.8967702,67.4157284 14.4345302,66.2645209 14.4651163,65.0697674 L14.4651163,34.9302326 C14.434586,33.7354791 14.8968037,32.5842605 15.7383442,31.7383442 C16.5842716,30.8924167 17.7354791,30.4345302 18.9302326,30.4651163 L58.7802791,30.4651163 C59.9750326,30.4345972 61.1306047,30.8924391 61.9721674,31.7383442 C62.8180949,32.5842716 63.2803349,33.7354791 63.2453953,34.9302326 L63.2453953,65.0697674 Z M82.1127442,34.8163721 C82.8017005,34.4195684 83.6519814,34.4195684 84.3453023,34.8163721 C85.0429767,35.2480595 85.4659349,36.0067721 85.4615814,36.8265674 L85.4615814,63.0591256 C85.4964651,63.9181358 85.0124577,64.7074233 84.2318884,65.0693209 C83.5080484,65.4268763 82.6402977,65.3396726 81.9993302,64.8469358 L67.7098419,55.1362009 L67.7098419,43.188666 L82.1127442,34.8163721 Z"></path>
            </g>
        </g>
    </g>
</svg>