<?xml version="1.0" encoding="UTF-8"?>
<svg width="58px" height="76px" viewBox="0 0 58 76" version="1.1" xmlns="http://www.w3.org/2000/svg" xmlns:xlink="http://www.w3.org/1999/xlink">
    <title>Atoms / Icons / Coffee</title>
    <g id="STYLEGUIDE" stroke="none" stroke-width="1" fill="none" fill-rule="evenodd">
        <g id="Styleguide" transform="translate(-754.000000, -1495.000000)" fill="#363A5B">
            <g id="Combined-Shape" transform="translate(731.000000, 1483.000000)">
                <path d="M66.3543852,40 C67.7288353,40 68.7810272,41.1319945 68.7810272,42.428478 L68.7810272,42.428478 L68.7810272,47.3676783 L78.6484814,47.3671926 C79.9439038,47.3671926 81.0750886,48.4201807 80.9960957,49.7956706 L80.9960957,49.7956706 L80.9960957,59.1841663 C80.9960957,65.1731167 76.1428118,70.1123171 70.0762069,70.1123171 L70.0762069,70.1123171 L67.0018133,70.1123171 C65.6273633,74.8867048 63.5262149,79.5003272 60.6129504,83.6300349 C58.6695337,86.3810147 55.5983757,88 52.2806708,88 L52.2806708,88 L39.5820534,88 C36.1857253,88 33.1113317,86.3810147 31.1713124,83.6300349 C25.8310823,76.0224229 23,67.0354355 23,57.7262701 L23,57.7262701 L23,42.428478 C23,41.052988 24.1311387,40 25.426642,40 L25.426642,40 Z M63.921556,45 L28,45 L28,57.7477934 C28,66.0055609 30.4979664,73.9439522 35.2484194,80.6765058 C36.2960577,82.1169055 37.9068175,83 39.6780091,83 L39.6780091,83 L52.4038175,83 C54.1750091,83 55.7857689,82.1983528 56.7515806,80.7547466 C61.5020336,73.9407456 64,66.0060419 64,57.7482743 L64,57.7482743 L63.9184102,57.7477934 L63.921556,45 Z M76,52 L68.640624,52 L68.640624,57.4577016 C68.640624,60.0250877 68.4,62.5109388 68,65 L68,65 L69.91872,65 C73.28128,65 76,62.2695442 76,58.8996494 L76,58.8996494 L76,52 Z M56.4197002,13.0917904 C57.1667411,12.0105743 58.6575114,11.6239949 59.8151597,12.3186316 C60.9728412,13.0163301 61.3867601,14.4086344 60.6429975,15.4898196 L60.6429975,15.4898196 L59.5661461,17.1146901 C58.6542331,18.5855473 58.7383414,20.5184443 59.8959898,21.8321956 C62.0496926,24.3053759 62.5477198,27.7060374 61.2218548,30.6446593 L61.2218548,30.6446593 L60.3099087,32.5775562 C59.9800981,33.4292524 59.068152,33.9698605 58.0754089,33.9698605 C57.7455818,33.9698605 57.4125095,33.9698605 57.0826659,33.8158318 C55.840876,33.3537921 55.2588067,31.9614878 55.7568008,30.8017497 L55.7568008,30.8017497 L56.6686807,28.8687136 C57.25075,27.4764866 57.0017364,25.8516161 56.0089933,24.691878 C53.5254965,21.8321183 53.2764829,17.8123113 55.3460774,14.7196762 L55.3460774,14.7196762 Z M44.4197002,13.0917904 C45.1667411,12.0105743 46.6575114,11.6239949 47.8151597,12.3186316 C48.9728412,13.0163301 49.3867601,14.4086344 48.6429975,15.4898196 L48.6429975,15.4898196 L47.5661461,17.1146901 C46.6542331,18.5855473 46.7383414,20.5184443 47.8959898,21.8321956 C50.0496926,24.3053759 50.5477198,27.7060374 49.2218548,30.6446593 L49.2218548,30.6446593 L48.3099087,32.5775562 C47.9800981,33.4292524 47.068152,33.9698605 46.0754089,33.9698605 C45.7455818,33.9698605 45.4125095,33.9698605 45.0826659,33.8158318 C43.840876,33.3537921 43.2588067,31.9614878 43.7568008,30.8017497 L43.7568008,30.8017497 L44.6686807,28.8687136 C45.25075,27.4764866 45.0017364,25.8516161 44.0089933,24.691878 C41.5254965,21.8321183 41.2764829,17.8123113 43.3460774,14.7196762 L43.3460774,14.7196762 Z M32.3631873,13.0919442 C33.1178578,12.0105798 34.6238537,11.6239475 35.7933253,12.3186794 C36.9628305,13.0164736 37.3809768,14.4089687 36.629618,15.4903022 L36.629618,15.4903022 L35.5417685,17.1123796 C34.6205419,18.5834385 34.7055093,20.5166004 35.874981,21.8305318 C38.05068,24.3040511 38.5537937,27.7051788 37.2143873,30.6442035 L37.2143873,30.6442035 L36.2931273,32.5773654 C35.9599483,33.4291783 35.0386883,33.9698605 34.0358061,33.9698605 C33.7026104,33.9698605 33.3661364,33.9698605 33.0329239,33.8158107 C31.7784514,33.3537077 31.1904373,31.9612125 31.6935175,30.8013154 L31.6935175,30.8013154 L32.6147441,28.8680143 C33.2844306,27.4755965 33.0328737,25.8505033 32.0299915,24.6906062 C29.5211302,21.8304545 29.2695734,17.8100964 31.3603051,14.7170374 L31.3603051,14.7170374 Z"></path>
            </g>
        </g>
    </g>
</svg>