<?xml version="1.0" encoding="UTF-8"?>
<svg width="90px" height="86px" viewBox="0 0 90 86" version="1.1" xmlns="http://www.w3.org/2000/svg" xmlns:xlink="http://www.w3.org/1999/xlink">
    <title>Atoms / Icons / Dashboard</title>
    <g id="STYLEGUIDE" stroke="none" stroke-width="1" fill="none" fill-rule="evenodd">
        <g id="Styleguide" transform="translate(-331.000000, -1085.000000)" fill="#363A5B">
            <g id="Fill-1" transform="translate(326.000000, 1078.000000)">
                <path d="M94.8963578,39.5022123 C94.6165367,38.6769787 93.8909106,38.1221081 92.9044523,37.9798118 L65.1311761,33.9485283 C64.9604448,33.9248163 64.5810285,33.640248 64.5051452,33.4837463 L52.0797153,8.31842626 C51.6813342,7.50267505 50.8798126,7 50.0024564,7 C49.1155691,7 48.3188191,7.50747088 47.9204623,8.31842626 L35.4950324,33.4837463 C35.414414,33.6402601 35.0397328,33.9248163 34.8642542,33.9485283 L7.090978,37.9798118 C6.10449551,38.1173487 5.37407352,38.6817259 5.09433744,39.5258878 C4.84297563,40.3463742 5.09908469,41.2475274 5.80099886,41.9304769 L25.8912459,61.5132166 C26.0287828,61.6507535 26.1758143,62.101318 26.1426077,62.2767966 L21.3951076,89.9225889 C21.2291115,90.899589 21.5563566,91.5636101 21.869372,91.9524967 C22.542839,92.7540183 23.738043,92.9200145 24.7576713,92.3793371 L49.5623941,79.3274149 C49.7094134,79.2799909 50.2785379,79.2752436 50.3923628,79.3131853 L75.2250106,92.369964 C75.6376213,92.5928665 76.069209,92.7019563 76.4818804,92.7019563 C77.1221409,92.7019563 77.7054829,92.4316176 78.1276367,91.9478709 C78.435917,91.5732018 78.7678972,90.9186995 78.6066483,89.9321684 L73.8544131,62.2827337 C73.8307011,62.1025079 73.9729853,61.6424732 74.0962925,61.5191537 L94.1962527,41.9315574 C94.9029141,41.2343784 95.1637704,40.3332737 94.8981668,39.5032928 L94.8963578,39.5022123 Z M29.4230597,62.8317643 C29.6459622,61.5844862 29.1384913,60.0193483 28.223157,59.1324246 L9.61293717,40.9775044 L35.3379722,37.2402838 C36.594842,37.0695525 37.9180034,36.1020348 38.4966588,34.9590506 L50.00724,11.6440682 L61.508351,34.9639072 C62.0822228,36.1116386 63.4054327,37.0696982 64.6623025,37.2404052 L90.39098,40.9823609 L71.7710471,59.1324246 C70.8651951,60.0287942 70.3624108,61.5796297 70.5758795,62.8270292 L74.972374,88.4561478 L51.9560681,76.3575623 C51.4248852,76.0682589 50.7514181,75.9212274 50.0020436,75.9212274 C49.2621756,75.9212274 48.5886721,76.0682467 48.0622244,76.3528151 L25.0313489,88.4514005 L29.4230597,62.8317643 Z"></path>
            </g>
        </g>
    </g>
</svg>