<?xml version="1.0" encoding="UTF-8"?>
<svg width="90px" height="90px" viewBox="0 0 90 90" version="1.1" xmlns="http://www.w3.org/2000/svg" xmlns:xlink="http://www.w3.org/1999/xlink">
    <title>Atoms / Icons / Edit</title>
    <g id="STYLEGUIDE" stroke="none" stroke-width="1" fill="none" fill-rule="evenodd">
        <g id="Styleguide" transform="translate(-1006.000000, -813.000000)" fill="#363A5B">
            <g id="Fill-1" transform="translate(1001.000000, 808.000000)">
                <polygon points="95.001798 50.02 81.450798 63.571 77.153898 59.2741 83.392198 53.0397 53.040198 53.0397 53.040198 83.3717 59.254998 77.1569 63.551898 81.4499 50.000898 95.000901 36.449898 81.4499 40.746798 77.1569 46.961598 83.3717 46.961598 53.0397 16.609598 53.0397 22.847898 59.2741 18.550998 63.571 5 50.02 18.550998 36.469 22.847898 40.762 16.648698 46.9651 46.960698 46.9651 46.960698 16.6291 40.745898 22.8479 36.448998 18.551 49.999998 5 63.550998 18.551 59.254098 22.8479 53.039298 16.6291 53.039298 46.9651 83.351298 46.9651 77.152098 40.762 81.448998 36.469"></polygon>
            </g>
        </g>
    </g>
</svg>