<?xml version="1.0" encoding="UTF-8"?>
<svg width="80px" height="80px" viewBox="0 0 80 80" version="1.1" xmlns="http://www.w3.org/2000/svg" xmlns:xlink="http://www.w3.org/1999/xlink">
    <title>Atoms / Icons / Expand</title>
    <g id="STYLEGUIDE" stroke="none" stroke-width="1" fill="none" fill-rule="evenodd">
        <g id="Styleguide" transform="translate(-876.000000, -818.000000)" fill="#2C3054">
            <g id="Fill-1" transform="translate(866.000000, 808.000000)">
                <path d="M89.3343122,89.3343916 C89.6686878,89.0000158 89.6686878,89.0000158 89.6686878,88.6687681 L89.6686878,88.0031449 L89.6686878,57.00318 C89.6686878,55.6687815 88.6686889,54.6687826 87.3342904,54.6687826 C85.9998919,54.6687826 84.999893,55.6687815 84.999893,57.00318 L84.999893,82.6687516 L17.3343671,14.3344272 L42.9999395,14.3344272 C44.334338,14.3344272 44.9999373,13.3344283 44.9999373,12.3344294 C44.9999373,11.3344305 44.334314,10 43.3343391,10 L12.3343726,10 C12,10 11.6656214,10 11.3343737,10.3344076 L11,10.6687833 C11,10.6687833 10.6656227,10.6687833 10.6656227,11.0031589 L10.6656227,11.3375345 C10.6656227,11.3375345 10.3312471,11.6719101 10.3312471,12.0031578 C10,11.6656542 10,12.0000298 10,12.3344054 L10,43.3343711 C10,44.6687696 11,45.3343689 12,45.3343689 C13,45.3343689 14,44.33437 14,43.3343711 L14,17.3343999 L81.9999203,85.3343254 L56.6655484,85.3343254 C55.3311498,85.3343254 54.3311509,86.3343243 54.3311509,87.6687228 C54.3342789,89 55.6655495,90 56.6655484,90 L87.665514,90 L88.3311373,90 C88.9998886,89.6656244 88.9998886,89.3343768 89.3342562,89.3343768 L89.3343122,89.3343916 Z" transform="translate(49.834344, 50.000000) scale(-1, 1) translate(-49.834344, -50.000000) "></path>
            </g>
        </g>
    </g>
</svg>