<?xml version="1.0" encoding="UTF-8"?>
<svg width="88px" height="88px" viewBox="0 0 88 88" version="1.1" xmlns="http://www.w3.org/2000/svg" xmlns:xlink="http://www.w3.org/1999/xlink">
    <title>Atoms / Icons / External</title>
    <g id="STYLEGUIDE" stroke="none" stroke-width="1" fill="none" fill-rule="evenodd">
        <g id="Styleguide" transform="translate(-62.000000, -947.000000)" fill="#363A5B">
            <g id="Shape" transform="translate(56.000000, 943.000000)">
                <path d="M87.5,14.918 L52.211,50.207 C50.9844,51.3906 49.0391,51.375 47.8321,50.167938 C46.6251,48.960876 46.6094,47.015638 47.793038,45.789038 L83.082038,10.500038 L59.375038,10.500038 C57.648438,10.500038 56.250038,9.101638 56.250038,7.375038 C56.250038,5.648438 57.648438,4.250038 59.375038,4.250038 L90.625038,4.250038 C91.453158,4.250038 92.250038,4.578158 92.835938,5.164098 C93.421878,5.750038 93.749998,6.546898 93.749998,7.374998 L93.749998,38.624998 C93.749998,40.351598 92.351598,41.749998 90.624998,41.749998 C88.898398,41.749998 87.499998,40.351598 87.499998,38.624998 L87.5,14.918 Z M31.25,16.75 L15.617,16.75 C10.4451,16.75 6.2498,20.9297 6.2498,26.1016 L6.2498,82.4066 C6.2498,87.5628 10.492,91.7582 15.6365,91.7582 L71.8555,91.7582 C74.3477,91.7582 76.7383,90.77383 78.4961,89.0121 C80.2578,87.2504 81.2461,84.8598 81.2422115,82.3676 L81.2422115,66.7546 L81.2422115,66.758506 C81.2422115,65.031906 79.8438,63.633506 78.1172,63.633506 C76.3945,63.633506 74.9922,65.031906 74.9922,66.758506 L74.9922,82.371506 L74.9922,82.3676 C74.996106,83.20354 74.66798,84.0004 74.07814,84.5903 C73.4883,85.1802 72.68754,85.50827 71.85544,85.50827 L15.63644,85.50827 C13.92164,85.500458 12.52704,84.12157 12.49974,82.40667 L12.49974,26.10167 C12.49974,24.38687 13.89424,23.00007 15.61694,23.00007 L31.24994,23.00007 C32.97654,23.00007 34.37494,21.60167 34.37494,19.87507 C34.37494,18.14847 32.97654,16.75 31.24994,16.75 L31.25,16.75 Z"></path>
            </g>
        </g>
    </g>
</svg>