<?xml version="1.0" encoding="UTF-8"?>
<svg width="100px" height="90px" viewBox="0 0 100 90" version="1.1" xmlns="http://www.w3.org/2000/svg" xmlns:xlink="http://www.w3.org/1999/xlink">
    <title>Atoms / Icons / Favorites</title>
    <g id="STYLEGUIDE" stroke="none" stroke-width="1" fill="none" fill-rule="evenodd">
        <g id="Styleguide" transform="translate(-191.000000, -1083.000000)" fill="#363A5B">
            <g id="Shape" transform="translate(191.000000, 1078.000000)">
                <path d="M25.9921234,5 C19.3147655,5 12.6734645,7.65535992 7.60971591,12.9906735 C-2.51686011,23.6562666 -2.542521,40.7754257 7.56859269,51.4505572 L48.0746336,94.2159978 C49.0564455,95.2613341 50.9173336,95.2613341 51.8990271,94.2159978 C65.4137615,79.9798396 78.8916495,65.7277839 92.405068,51.4916256 C102.531644,40.8260326 102.531644,23.6975999 92.405068,13.0317419 C82.278492,2.36614888 65.7269559,2.36614888 55.5994587,13.0317419 L50.0067011,18.8690172 L44.4139434,12.9902761 C38.9548855,7.22016748 32.1951496,4.97425652 25.9907417,5 L25.9921234,5 Z M26.6141588,10 C31.8492306,10 37.1098234,12.1437523 41.1742023,16.431257 L48.61782,24.3054902 C49.5942787,25.3464436 51.4450205,25.3464436 52.4213614,24.3054902 L59.8240147,16.472549 C67.9526416,7.89753963 80.7747721,7.89753963 88.9035298,16.472549 C97.0321567,25.0475583 97.0321567,38.8994965 88.9035298,47.4745058 C76.1022087,60.9755282 63.3014112,74.4976584 50.499043,88 L12.0945562,47.4336096 C3.97103355,38.8483103 3.96592936,25.0066621 12.0945562,16.4316528 C16.1589351,12.1441481 21.3786943,10 26.6140279,10 L26.6141588,10 Z"></path>
            </g>
        </g>
    </g>
</svg>