<?xml version="1.0" encoding="UTF-8"?>
<svg width="62px" height="86px" viewBox="0 0 62 86" version="1.1" xmlns="http://www.w3.org/2000/svg" xmlns:xlink="http://www.w3.org/1999/xlink">
    <title>Atoms / Icons / File_PDF</title>
    <g id="STYLEGUIDE" stroke="none" stroke-width="1" fill="none" fill-rule="evenodd">
        <g id="Styleguide" transform="translate(-210.000000, -1355.000000)" fill="#363A5B">
            <g id="Shape" transform="translate(191.000000, 1348.000000)">
                <path d="M25.5392997,7.73806 C21.9334001,7.73806 19.0002,10.6612885 19.0002,14.257113 L19.0002,86.0590765 C19.0002,89.654901 21.933314,92.5812984 25.5392997,92.5812984 L74.4607003,92.5812984 C78.0665999,92.5779349 80.9998,89.654901 80.9998,86.0590765 L80.9998,31.8289306 C80.9998,31.4051007 80.8349749,31.0014553 80.5423351,30.695365 L58.9267434,8.23588511 C58.6206445,7.91633567 58.1968146,7.73806 57.7527917,7.73806 L25.5392997,7.73806 Z M25.5392997,11.0010826 L54.8945512,11.0010826 L54.8945512,32.2128136 C54.8945512,33.11431 55.62448,33.8441872 56.5259247,33.8441872 L77.7376557,33.8441872 L77.7376557,86.0593348 C77.7376557,87.8555249 76.2677404,89.3188097 74.4613892,89.3188097 L25.5365441,89.3188097 C23.730193,89.3188097 22.2602776,87.8589693 22.2602776,86.0593348 L22.2602776,14.2573714 C22.2602776,12.4611813 23.730193,10.9978965 25.5365441,10.9978965 L25.5392997,11.0010826 Z M58.1572982,12.1447233 L75.9004768,30.5810956 L58.1572982,30.5810956 L58.1572982,12.1447233 Z M49.3378061,32.0845943 C48.9341607,32.0811843 48.4800628,32.1316858 47.9721713,32.2561447 C46.6939391,32.5756941 44.638727,33.8236238 45.2240237,38.5934001 C45.4830285,40.7024316 46.2566672,43.3866847 47.4003079,46.2761405 C46.7847518,48.2035637 46.1019257,50.2183897 45.4257819,52.1996324 C44.7900413,54.0665196 44.1341164,55.9938568 43.552178,57.8136412 C43.0846209,59.2734816 42.6540399,60.6526359 42.2504375,61.9543764 C41.6819669,63.7808776 41.1673329,65.4358455 40.6627223,66.936072 C31.9405356,71.8908147 28.4556221,76.1792303 28.2403445,78.8168113 C28.1528901,79.8898409 28.5733531,80.8215623 29.3907018,81.3732757 C29.8010725,81.6490979 30.389762,81.8845599 31.207128,81.8845599 C32.0278694,81.8845599 33.0807318,81.6490979 34.4195001,80.9797052 C39.1287403,78.6250851 41.3521272,74.7332969 43.3337143,69.1833547 C45.0088323,68.2684249 46.9059444,67.3097508 49.0587203,66.3174933 C52.4493422,64.7533725 55.338798,63.7846234 57.7636847,63.2194767 C60.56901,66.1661101 63.5357934,68.1002501 66.3209687,68.1002501 C69.3516465,68.1002501 71.4876307,67.0978315 72.1839246,65.3554609 C72.6985758,64.0671537 72.3050139,62.6376244 71.1344033,61.5275671 C69.4727187,59.9533713 66.5160102,59.142722 62.8193496,59.2503608 C61.5915785,59.287361 60.2931963,59.4252695 58.9342781,59.6640985 C55.8598559,55.9740684 52.8728363,50.8480508 50.8680853,46.1317495 C52.9232974,39.4985304 53.6734106,35.162926 51.7998067,33.1272611 C51.3322496,32.6193438 50.5552439,32.0979759 49.3409061,32.0811843 L49.3378061,32.0845943 Z M49.3142599,35.3440313 C49.3680793,35.3440313 49.3983525,35.3474326 49.3983525,35.3440313 C49.4555363,35.4147069 50.0509106,36.2859516 48.9812479,40.7764698 C48.7390606,39.8514651 48.560785,38.9836381 48.4665967,38.1964972 C48.2244094,36.2388489 48.5708686,35.4718579 48.7659703,35.4213969 C49.0417926,35.3507591 49.2200683,35.3440313 49.3142565,35.3440313 L49.3142599,35.3440313 Z M49.3748072,50.7131665 C51.0600001,54.1307412 53.1388066,57.5683798 55.4025796,60.4747133 C52.943679,61.1609149 50.350273,62.1296813 47.6828976,63.3608107 C46.6771207,63.8250009 45.7117299,64.2858154 44.7968002,64.7433234 C44.9818011,64.15131 45.170169,63.5458633 45.3652708,62.9268972 C45.7689163,61.6318734 46.1927462,60.262794 46.6602946,58.8131148 C47.2354905,57.0202831 47.8880658,55.1062931 48.5170207,53.2529253 C48.8130274,52.3783817 49.0989419,51.534063 49.3747641,50.7133387 L49.3748072,50.7131665 Z M63.0647394,62.5129615 C65.9944951,62.4658699 67.5922853,63.1184254 68.0833765,63.3673465 C68.7796618,63.7138057 69.045409,64.0501812 69.1160201,64.188088 C68.9411113,64.3798229 68.1842987,64.844013 66.3140531,64.844013 C64.9248238,64.844013 63.350628,63.9963532 61.7259711,62.5835984 C62.2002535,62.5432329 62.6442592,62.5230511 63.0647394,62.5163232 L63.0647394,62.5129615 Z M38.6574279,71.9955085 C37.2749153,74.7974755 35.5997973,76.7450487 32.9525719,78.0670253 C32.3706508,78.3596651 31.9400784,78.5009474 31.6407564,78.5682174 C32.1419485,77.4716795 33.9717821,75.113701 38.6574279,71.9955085 L38.6574279,71.9955085 Z"></path>
            </g>
        </g>
    </g>
</svg>