<?xml version="1.0" encoding="UTF-8"?>
<svg width="62px" height="86px" viewBox="0 0 62 86" version="1.1" xmlns="http://www.w3.org/2000/svg" xmlns:xlink="http://www.w3.org/1999/xlink">
    <title>Atoms / Icons / File_XLS</title>
    <g id="STYLEGUIDE" stroke="none" stroke-width="1" fill="none" fill-rule="evenodd">
        <g id="Styleguide" transform="translate(-345.000000, -1355.000000)" fill="#363A5B">
            <g id="Combined-Shape" transform="translate(326.000000, 1348.000000)">
                <path d="M57.7527917,7.73806 C58.1968146,7.73806 58.6206445,7.91633567 58.9267434,8.23588511 L58.9267434,8.23588511 L80.5423351,30.695365 C80.8349749,31.0014553 80.9998,31.4051007 80.9998,31.8289306 L80.9998,31.8289306 L80.9998,86.0590765 C80.9998,89.654901 78.0665999,92.5779349 74.4607003,92.5812984 L74.4607003,92.5812984 L25.5392997,92.5812984 C21.933314,92.5812984 19.0002,89.654901 19.0002,86.0590765 L19.0002,86.0590765 L19.0002,14.257113 C19.0002,10.6612885 21.9334001,7.73806 25.5392997,7.73806 L25.5392997,7.73806 Z M25.5365441,10.9978965 C23.730193,10.9978965 22.2602776,12.4611813 22.2602776,14.2573714 L22.2602776,14.2573714 L22.2602776,86.0593348 C22.2602776,87.8589693 23.730193,89.3188097 25.5365441,89.3188097 L25.5365441,89.3188097 L74.4613892,89.3188097 C76.2677404,89.3188097 77.7376557,87.8555249 77.7376557,86.0593348 L77.7376557,86.0593348 L77.7376557,33.8441872 L56.5259247,33.8441872 C55.62448,33.8441872 54.8945512,33.11431 54.8945512,32.2128136 L54.8945512,32.2128136 L54.8945512,11.0010826 L25.5392997,11.0010826 Z M65.7471483,46.7173148 C66.8756041,46.7131318 67.9957757,46.8930115 69.0661359,47.2527794 C70.0950221,47.5999961 71.0492443,48.1354607 71.8872223,48.8257602 L70.327245,51.0345516 C69.7090849,50.5241896 68.9996499,50.1393191 68.2362297,49.8966894 C67.4064828,49.5954905 66.5310666,49.4365218 65.6474194,49.4281579 C64.9130894,49.4030574 64.1912069,49.5913032 63.5564041,49.9636224 C63.0212133,50.2982878 62.7017621,50.9006855 62.7266572,51.5366032 C62.7059138,52.189206 63.0212133,52.8083316 63.5564041,53.17641 C64.6516169,53.7495284 65.8257419,54.1594908 67.041288,54.3812053 C68.4975004,54.6740402 69.8707647,55.2931657 71.0572098,56.1883983 C71.9533365,57.0585282 72.4387583,58.28003 72.3848049,59.5350519 C72.4387382,61.0326393 71.7707975,62.4675773 70.5925516,63.3837572 L70.6923336,63.3838643 C69.4062658,64.3669451 67.8214359,64.8647451 66.2116473,64.7894588 C63.5440309,64.8061921 60.971789,63.8021906 59.0094973,61.9782697 L60.8349936,59.7359582 C62.3036323,61.1582593 64.2410714,61.9824464 66.2781332,62.0450957 C67.0746902,62.0827453 67.8629631,61.8735757 68.5350448,61.4426981 C69.057788,61.0620149 69.3689444,60.4512532 69.3647917,59.8028913 C69.3896846,59.1753911 69.0868251,58.5772129 68.5682347,58.2299105 C67.734335,57.7446511 66.8257927,57.4057984 65.8799078,57.2259144 C64.9008012,56.9874613 63.9383266,56.6988138 62.9923355,56.3557845 C62.3492803,56.1382574 61.7518307,55.7952173 61.2333252,55.3517884 C60.1712491,54.4858458 59.598684,53.1471736 59.7065909,51.7708154 C59.6194677,50.3066411 60.2666661,48.9010465 61.4324644,48.0225633 C62.6895376,47.1231542 64.2079877,46.6671954 65.7471483,46.7173148 Z M31.6270531,47.1526476 L35.5102154,53.042758 L39.3602411,47.1526476 L42.9778844,47.1526476 L37.5678815,55.6196278 L43.5089224,64.5886596 L39.9909018,64.5886596 L35.7425977,57.8953523 L31.4942936,64.5886596 L27.6111312,64.5886596 L33.5521721,55.6196278 L28.0094097,47.1526476 L31.6270531,47.1526476 Z M49.2182184,47.1528617 L49.2182184,61.8117402 L57.1174088,61.8117402 L57.2167129,64.5886596 L46.2975093,64.5886596 L46.2975093,47.1528617 L49.2182184,47.1528617 Z M58.1572982,12.1447233 L58.1572982,30.5810956 L75.9004768,30.5810956 L58.1572982,12.1447233 Z"></path>
            </g>
        </g>
    </g>
</svg>