<?xml version="1.0" encoding="UTF-8"?>
<svg width="62px" height="86px" viewBox="0 0 62 86" version="1.1" xmlns="http://www.w3.org/2000/svg" xmlns:xlink="http://www.w3.org/1999/xlink">
    <title>Atoms / Icons / File_Word</title>
    <g id="STYLEGUIDE" stroke="none" stroke-width="1" fill="none" fill-rule="evenodd">
        <g id="Styleguide" transform="translate(-75.000000, -1355.000000)" fill="#363A5B">
            <g id="Combined-Shape" transform="translate(56.000000, 1348.000000)">
                <path d="M57.7527917,7.73806 C58.1968146,7.73806 58.6206445,7.91633567 58.9267434,8.23588511 L58.9267434,8.23588511 L80.5423351,30.695365 C80.8349749,31.0014553 80.9998,31.4051007 80.9998,31.8289306 L80.9998,31.8289306 L80.9998,86.0590765 C80.9998,89.654901 78.0665999,92.5779349 74.4607003,92.5812984 L74.4607003,92.5812984 L25.5392997,92.5812984 C21.933314,92.5812984 19.0002,89.654901 19.0002,86.0590765 L19.0002,86.0590765 L19.0002,14.257113 C19.0002,10.6612885 21.9334001,7.73806 25.5392997,7.73806 L25.5392997,7.73806 Z M25.5365441,10.9978965 C23.730193,10.9978965 22.2602776,12.4611813 22.2602776,14.2573714 L22.2602776,14.2573714 L22.2602776,86.0593348 C22.2602776,87.8589693 23.730193,89.3188097 25.5365441,89.3188097 L25.5365441,89.3188097 L74.4613892,89.3188097 C76.2677404,89.3188097 77.7376557,87.8555249 77.7376557,86.0593348 L77.7376557,86.0593348 L77.7376557,33.8441872 L56.5259247,33.8441872 C55.62448,33.8441872 54.8945512,33.11431 54.8945512,32.2128136 L54.8945512,32.2128136 L54.8945512,11.0010826 L25.5392997,11.0010826 Z M31.9166829,47.5746949 C35.7041906,47.5746949 38.8055656,50.6760699 38.8055656,54.4635776 L38.8055656,57.9080189 C38.8055656,61.6955267 35.7041906,64.7969016 31.9166829,64.7969016 L28.4722415,64.7969016 C27.5236424,64.7969016 26.7500208,64.0232457 26.7500208,63.074681 L26.7500208,49.2969155 C26.7500208,48.3483164 27.5236768,47.5746949 28.4722415,47.5746949 L31.9166829,47.5746949 Z M50,47.5746949 C53.3569525,47.5746949 56.0277724,50.2455147 56.0277724,53.6024672 L56.0277724,58.7691293 C56.0277724,62.1260818 53.3569525,64.7969016 50,64.7969016 C46.6430475,64.7969016 43.9722276,62.1260818 43.9722276,58.7691293 L43.9722276,53.6024672 C43.9722276,50.2455147 46.6430475,47.5746949 50,47.5746949 Z M67.2222929,47.5746949 C69.6340046,47.5746949 71.7867805,48.9537631 72.7353796,51.1906694 C73.1659348,52.0517797 72.7353796,53.0878333 71.8742693,53.4309341 C71.0131589,53.8614892 69.9771054,53.4309341 69.6340046,52.5698237 C69.2034495,51.6212418 68.2548503,51.0191362 67.2222068,51.0191362 C65.7590081,51.0191362 64.6388758,52.1392685 64.6388758,53.6024672 L64.6388758,53.6024672 L64.6388758,58.7691293 C64.6388758,60.1482836 65.7590081,61.3524603 67.2222068,61.3524603 C68.2548503,61.3524603 69.2034581,60.7503719 69.6306463,59.8017728 C69.9771571,58.9406625 71.0098006,58.5101073 71.870911,58.9406625 C72.7320213,59.2871733 73.0751221,60.3198168 72.7320213,61.1809271 C71.7868666,63.333703 69.6340907,64.7969016 67.2222929,64.7969016 C63.8653404,64.7969016 61.1945205,62.1260818 61.1945205,58.7691293 L61.1945205,58.7691293 L61.1945205,53.6024672 C61.1945205,50.2455147 63.8653404,47.5746949 67.2222929,47.5746949 Z M31.9166829,51.0191362 L30.1944622,51.0191362 L30.1944622,61.3524603 L31.9166829,61.3524603 C33.8104367,61.3524603 35.3611242,59.8017728 35.3611242,57.9080189 L35.3611242,54.4635776 C35.3611242,52.5698237 33.8104367,51.0191362 31.9166829,51.0191362 Z M50,51.0191362 C48.5368013,51.0191362 47.416669,52.1392685 47.416669,53.6024672 L47.416669,58.7691293 C47.416669,60.1482836 48.5368013,61.3524603 50,61.3524603 C51.4631987,61.3524603 52.583331,60.1482836 52.583331,58.7691293 L52.583331,53.6024672 C52.583331,52.1392685 51.4631987,51.0191362 50,51.0191362 Z M58.1572982,12.1447233 L58.1572982,30.5810956 L75.9004768,30.5810956 L58.1572982,12.1447233 Z"></path>
            </g>
        </g>
    </g>
</svg>