<?xml version="1.0" encoding="UTF-8"?>
<svg width="90px" height="70px" viewBox="0 0 90 70" version="1.1" xmlns="http://www.w3.org/2000/svg" xmlns:xlink="http://www.w3.org/1999/xlink">
    <title>Atoms / Icons / Folder</title>
    <g id="STYLEGUIDE" stroke="none" stroke-width="1" fill="none" fill-rule="evenodd">
        <g id="Styleguide" transform="translate(-466.000000, -1363.000000)" fill="#363A5B">
            <g id="Shape" transform="translate(461.000000, 1348.000000)">
                <path d="M74.109,23.75 L46.328,23.75 L30.508,15.75 L30.511907,15.75 C30.226747,15.60547 29.918157,15.53125 29.601747,15.53125 L15.730747,15.53125 C10.207347,15.53125 5.730747,20.00785 5.730747,25.53125 L5.730747,74.53125 C5.730747,77.18355 6.785447,79.72655 8.660447,81.60155 C10.535447,83.47655 13.078447,84.53125 15.730747,84.53125 L60.109747,84.53125 L60.109747,84.472656 L77.800747,84.46875 C82.484347,84.445312 86.531247,81.19145 87.558547,76.62105 L93.999947,47.28105 C94.656197,44.32015 93.933541,41.22245 92.035147,38.85915 C90.136747,36.49585 87.269547,35.12085 84.238247,35.12085 L84.078087,35.12085 L84.078087,33.74975 C84.078087,28.23805 79.621087,23.76535 74.109287,23.74975 L74.109,23.75 Z M9.73,74.5 L9.73,25.5 C9.73,22.1875 12.4175,19.5 15.73,19.5 L29.128,19.5 L44.948,27.5 C45.22925,27.64453 45.54175,27.71875 45.85816,27.71875 L74.10816,27.71875 C77.42066,27.71875 80.10816,30.40625 80.10816,33.71875 L80.10816,35.09765 L31.58816,35.101556 C26.88896,35.1289 22.83816,38.410156 21.82646,42.999956 L13.62726,80.147956 C11.27176,79.269046 9.71706,77.015156 9.72879329,74.499556 L9.73,74.5 Z M88.949,41.371 C90.0896,42.789 90.5232,44.6444 90.1287,46.4218 L83.6599,75.7308 C83.05443,78.4808 80.6169,80.4417 77.8005,80.4417 L17.6485,80.4417 L25.7266,43.8327 L25.730507,43.828794 C26.335977,41.078794 28.773507,39.121794 31.589907,39.121794 L84.269907,39.121794 C86.090207,39.121794 87.812907,39.949914 88.949607,41.371794 L88.949,41.371 Z"></path>
            </g>
        </g>
    </g>
</svg>