<?xml version="1.0" encoding="UTF-8"?>
<svg width="61px" height="88px" viewBox="0 0 61 88" version="1.1" xmlns="http://www.w3.org/2000/svg" xmlns:xlink="http://www.w3.org/1999/xlink">
    <title>Atoms / Icons / Hand</title>
    <g id="STYLEGUIDE" stroke="none" stroke-width="1" fill="none" fill-rule="evenodd">
        <g id="Styleguide" transform="translate(-1154.000000, -1084.000000)" fill="#363A5B">
            <g id="Fill-1" transform="translate(1136.000000, 1078.000000)">
                <path d="M76.4884807,27.2475959 C74.9532807,25.7084959 72.7462807,25.0483959 70.6173807,25.4858959 C69.9376907,25.6304259 69.2892807,25.8843359 68.6993807,26.2476159 L68.6993807,18.9078159 C68.6993807,16.9664159 67.8282907,15.1266159 66.3243807,13.9000159 C64.8165807,12.6734159 62.8399807,12.1930159 60.9415807,12.5836159 C60.2618907,12.7242359 59.6134807,12.9820559 59.0196807,13.3414259 L59.0196807,12.4547059 C59.0235907,10.5133059 58.1485907,8.67740589 56.6446807,7.45080589 C55.1407807,6.22420589 53.1641807,5.73990589 51.2618807,6.13440589 C48.2071807,6.82190589 46.0548807,9.56410589 46.1173807,12.6969059 L46.1173807,16.5524059 C44.0861807,15.3766059 41.5743807,15.4001059 39.5626807,16.6070959 C37.5509807,17.8179959 36.3556807,20.0289959 36.4415807,22.3765959 L36.4415807,59.7785959 L32.0235807,54.7316959 L32.0196807,54.7277859 C29.1837807,51.5089859 24.3204807,51.0754859 20.9576807,53.7473159 L19.8287807,54.6496559 C17.9225807,56.1223559 17.4381807,58.7941559 18.6998807,60.8410559 L30.1998807,79.3920559 C34.6920807,87.6108559 43.2078807,92.8300569 52.5708807,93.0990569 C59.4146807,93.0990569 65.9768807,90.3802569 70.8168807,85.5404559 C75.6566807,80.7006559 78.3754974,74.1384559 78.3754974,67.2944559 L78.3754974,31.8104559 C78.3793807,30.0995559 77.6997007,28.4588559 76.4887807,27.2479559 L76.4884807,27.2475959 Z M52.5704807,89.8766029 C44.3477807,89.5992569 36.8864807,84.9820959 32.9724807,77.7475959 L21.5034807,59.0995959 C21.1206707,58.4628759 21.2652007,57.6386959 21.8433207,57.1659959 L22.9722207,56.2636559 C24.9878207,54.6698559 27.9019207,54.9316559 29.6011207,56.8574059 L36.8433207,65.1308059 L36.8433207,65.1347159 C37.2847307,65.6347159 37.9956207,65.8104959 38.6206207,65.5761259 C39.2495307,65.3378459 39.6636207,64.7401859 39.6636207,64.0683259 L39.6636207,22.3773259 C39.5894107,20.7640259 40.6519007,19.3187259 42.2144207,18.9085259 C43.1792607,18.7014959 44.1871207,18.9475859 44.9488207,19.5764959 C45.7066307,20.2054059 46.1402207,21.1467959 46.1168207,22.1350959 L46.1168207,47.9400959 C46.1168207,48.8307159 46.8394807,49.5533959 47.7301207,49.5533959 C48.6207607,49.5533959 49.3434207,48.8307359 49.3434207,47.9400959 L49.3434207,12.6980859 C49.2692107,11.0847959 50.3317007,9.63949589 51.8903207,9.22928589 C52.8551607,9.02225589 53.8630207,9.26835589 54.6247207,9.89725589 C55.3864207,10.5261659 55.8161207,11.4714559 55.7966207,12.4558559 L55.7966207,47.9398659 C55.7966207,48.8304859 56.5153707,49.5531659 57.4060207,49.5531659 C58.2966707,49.5531659 59.0193207,48.8305059 59.0193207,47.9398659 L59.0193207,19.1508659 C58.9451107,17.5375659 60.0076007,16.0922659 61.5701207,15.6820659 C62.5349607,15.4750359 63.5428207,15.7211259 64.3006207,16.3500359 C65.0623407,16.9789459 65.4959207,17.9203359 65.4725207,18.9086359 L65.4725207,47.9396359 C65.4725207,48.8302559 66.1951807,49.5529359 67.0858207,49.5529359 C67.9764607,49.5529359 68.6991207,48.8302759 68.6991207,47.9396359 L68.6991207,32.0526359 C68.6210007,30.4393359 69.6835007,28.9940359 71.2460207,28.5838359 C72.2108607,28.3768059 73.2187207,28.6228959 73.9804207,29.2518059 C74.7421407,29.8807159 75.1718207,30.8221059 75.1484207,31.8104059 L75.1484207,67.2944059 C75.1484207,73.2827059 72.7695207,79.0244059 68.5351207,83.2594059 C64.3007307,87.4977059 58.5585307,89.8766029 52.5701207,89.8766029 L52.5704807,89.8766029 Z"></path>
            </g>
        </g>
    </g>
</svg>