<?xml version="1.0" encoding="UTF-8"?>
<svg width="88px" height="88px" viewBox="0 0 88 88" version="1.1" xmlns="http://www.w3.org/2000/svg" xmlns:xlink="http://www.w3.org/1999/xlink">
    <title>Atoms / Icons / Help</title>
    <g id="STYLEGUIDE" stroke="none" stroke-width="1" fill="none" fill-rule="evenodd">
        <g id="Styleguide" transform="translate(-602.000000, -1354.000000)" fill="#363A5B">
            <g id="Combined-Shape" transform="translate(596.000000, 1348.000000)">
                <path d="M50,6 C74.281,6 94,25.719 94,50 C94,74.27 74.281,94 50,94 C25.727,94 6,74.273 6,50 C6,25.719 25.73,6 50,6 Z M50,10 C27.891,10 10,27.883 10,50 C10,72.109 27.891,90 50,90 C72.117,90 90,72.109 90,50 C90,27.879 72.121,10 50,10 Z M54,70 C54,75.3333333 46,75.3333333 46,70 C46,64.6666667 54,64.6666667 54,70 Z M53.9740376,26.5396082 C59.8374886,28.1336301 63,32.6372675 63,39.2996638 L63,39.4865523 C62.4401953,47.1782335 55.9260397,51.1171337 51.4625658,52.43329 L51.4625658,57.0284861 C51.6479576,58.1534573 50.8118798,59 49.7867623,59 L49.7863901,58.9994184 C48.761254,58.9994184 47.9252134,58.1565905 47.9252134,57.1232155 L47.9252134,51.0255563 C47.9252134,50.0874549 48.5758994,49.3362232 49.4156437,49.1493534 C49.7864273,49.0540799 58.7215271,47.2731506 59.3720083,39.2992885 C59.3720083,34.4219116 57.2309107,31.3254264 53.0432631,30.2004552 C47.5542809,28.697992 42.3414972,31.1385566 40.6655076,36.1112446 C40.294724,37.0493461 39.2696251,37.6137079 38.244489,37.2362159 C37.2193529,36.8624387 36.7540587,35.8290637 37.1285275,34.7956512 C39.4549983,28.1336301 46.714518,24.5722219 53.9740376,26.5396082 Z"></path>
            </g>
        </g>
    </g>
</svg>