<?xml version="1.0" encoding="UTF-8"?>
<svg width="90px" height="79px" viewBox="0 0 90 79" version="1.1" xmlns="http://www.w3.org/2000/svg" xmlns:xlink="http://www.w3.org/1999/xlink">
    <title>Atoms / Icons / Home</title>
    <g id="STYLEGUIDE" stroke="none" stroke-width="1" fill="none" fill-rule="evenodd">
        <g id="Styleguide" transform="translate(-61.000000, -1089.000000)" fill="#363A5B">
            <g id="Shape" transform="translate(56.000000, 1078.000000)">
                <path d="M48.870884,11.5316242 L5.91721586,48.6866493 C4.81928948,49.6319211 4.68408574,51.4902911 5.635981,52.5804817 C6.58787627,53.6761445 8.45386791,53.8050314 9.55709722,52.8597596 L50.6512813,17.2941661 L90.4038122,52.8171365 C91.4800977,53.7838848 93.3514338,53.6925888 94.3249284,52.6237923 C95.298423,51.5549958 95.206515,49.6966808 94.1302295,48.72996 L52.5611362,11.5694351 C51.3929011,10.8175074 50.008257,10.8175074 48.87789,11.5264682 L48.870884,11.5316242 Z M81.1757864,46.4097474 L81.1757864,83.8713843 L63.1596974,83.8713843 L63.1596974,61.8242086 L37.0479987,61.8242086 C36.9344192,69.1716172 36.8695131,76.5195758 36.7883909,83.8713843 L18.8166082,83.8713843 L18.8166082,46.6723611 L13.2729087,51.4524802 L13.2729087,89.3870968 L42.2409854,89.3870968 C42.349154,82.0396882 42.419471,74.6917296 42.5005932,67.3399211 L57.6118441,67.3399211 L57.6118441,89.3870968 L86.7100709,89.3870968 L86.7100709,51.3672339 L81.1757864,46.4097474 Z"></path>
            </g>
        </g>
    </g>
</svg>