<?xml version="1.0" encoding="UTF-8"?>
<svg width="81px" height="95px" viewBox="0 0 81 95" version="1.1" xmlns="http://www.w3.org/2000/svg" xmlns:xlink="http://www.w3.org/1999/xlink">
    <title>Atoms / Icons / intranet</title>
    <g id="STYLEGUIDE" stroke="none" stroke-width="1" fill="none" fill-rule="evenodd">
        <g id="Styleguide" transform="translate(-1011.000000, -1485.000000)" fill="#363A5B">
            <g id="Combined-Shape" transform="translate(1001.000000, 1483.000000)">
                <path d="M40.4766667,2 C47.21,2 53.1324762,5.26285714 56.9642857,10.2144762 C58.106381,9.93173333 59.233619,9.6192381 60.4761905,9.6192381 C68.2770476,9.6192381 74.6647048,15.5572381 75.5352381,23.131619 C83.6532381,24.0020952 90,30.7948571 90,39.1430476 C90,48.0790476 82.7455238,55.3335238 73.8095238,55.3335238 L73.8095238,55.3335238 L52,55.333 L52,67 L83,67 L83,77 L91,77 L91,97 L71,97 L71,77 L79,77 L79,71 L52,71 L52,77 L60,77 L60,97 L40,97 L40,77 L48,77 L48,71 L22,71 L22,77 L30,77 L30,97 L10,97 L10,77 L18,77 L18,67 L48,67 L48,55.333 L26.1904762,55.3335238 C17.3596056,55.3335238 10.1709263,48.2487371 10.0030032,39.4577286 L10,39.1430476 C10,32.5691429 14.010381,27.0594286 19.6428571,24.5297143 C19.6056571,24.0052381 19.5238095,23.4806571 19.5238095,22.952381 C19.5238095,11.4047619 28.9285714,2 40.4761905,2 Z M26,81 L14,81 L14,93 L26,93 L26,81 Z M56,81 L44,81 L44,93 L56,93 L56,81 Z M87,81 L75,81 L75,93 L87,93 L87,81 Z M40.4761905,5.80952381 C30.9859524,5.81009524 23.333381,13.4626667 23.333381,22.9529524 C23.333381,23.7937143 23.370581,24.5823714 23.4821905,25.363619 C23.6012381,26.2639048 23.0654762,27.1269619 22.202381,27.4171429 C17.3065714,29.0685714 13.8095238,33.6518095 13.8095238,39.1428571 C13.8095238,46.0364762 19.2968571,51.5238095 26.1904762,51.5238095 L26.1904762,51.5238095 L73.8095238,51.5238095 C80.7031429,51.5238095 86.1904762,46.0364762 86.1904762,39.1428571 C86.1904762,32.2492381 80.7031429,26.7619048 73.8095238,26.7619048 C72.7566952,26.7619048 71.9047619,25.9062857 71.9047619,24.8571429 C71.9047619,18.521619 66.8117143,13.4285714 60.4761905,13.4285714 C59.2038095,13.4285714 57.9799048,13.6294667 56.8154286,14.0238095 C56.0119048,14.2954286 55.1264857,14.0014857 54.6428571,13.3095238 C51.5552381,8.782 46.3801905,5.80952381 40.4761905,5.80952381 L40.4761905,5.80952381 Z"></path>
            </g>
        </g>
    </g>
</svg>