<?xml version="1.0" encoding="UTF-8"?>
<svg width="80px" height="80px" viewBox="0 0 80 80" version="1.1" xmlns="http://www.w3.org/2000/svg" xmlns:xlink="http://www.w3.org/1999/xlink">
    <title>Atoms / Icons / Le Fil</title>
    <g id="STYLEGUIDE" stroke="none" stroke-width="1" fill="none" fill-rule="evenodd">
        <g id="Styleguide" transform="translate(-336.000000, -1493.000000)" fill="#2C3054">
            <g id="Combined-Shape" transform="translate(326.000000, 1483.000000)">
                <path d="M62.7554926,10 C63.9837933,10 64.975932,10.9921387 64.975932,12.2204394 L64.975932,12.2204394 L64.975932,22.6143118 L79.3698044,22.6143118 C85.2283813,22.6135861 90,27.3855273 90,33.2437011 L90,33.2437011 L90,79.3690795 C90,85.2275742 85.2280588,89.9991929 79.369885,89.9991929 L79.369885,89.9991929 L20.6301142,89.9991929 C14.7716187,89.9991929 10,85.2272517 10,79.3690795 L10,79.3690795 L10,18.535376 C10,13.8267285 13.82681,10 18.5353752,10 L18.5353752,10 Z M14.4412877,26.015239 L14.4412877,79.3689989 C14.4412877,82.7862938 17.2129063,85.5579125 20.6302029,85.5579125 L20.6302029,85.5579125 L79.3699737,85.5579125 C82.7872686,85.5579125 85.5588873,82.7862938 85.5588873,79.3689989 L85.5588873,79.3689989 L85.5588873,33.2435398 C85.5588873,29.8262449 82.7867042,27.0546263 79.3694093,27.0546263 L79.3694093,27.0546263 L18.5357058,27.0546263 C17.0554381,27.0546263 15.6538658,26.676646 14.4412877,26.015239 L14.4412877,26.015239 Z M79.3851239,72.7759271 C80.6134246,72.7759271 81.6055633,73.7680658 81.6055633,74.9963666 C81.6055633,76.2246674 80.6134246,77.216806 79.3851239,77.216806 L79.3851239,77.216806 L20.6453531,77.216806 C19.4170523,77.216806 18.4249136,76.2246674 18.4249136,74.9963666 C18.4249136,73.7680658 19.4170523,72.7759271 20.6453531,72.7759271 L20.6453531,72.7759271 Z M79.3851239,59.1203161 C80.6134246,59.1203161 81.6055633,60.1124548 81.6055633,61.3407555 C81.6055633,62.5690563 80.6134246,63.561195 79.3851239,63.561195 L79.3851239,63.561195 L20.6453531,63.561195 C19.4170523,63.561195 18.4249136,62.5690563 18.4249136,61.3407555 C18.4249136,60.1124548 19.4170523,59.1203161 20.6453531,59.1203161 L20.6453531,59.1203161 Z M79.3851239,31.0235035 C80.6134246,31.0235035 81.6055633,32.0155616 81.6055633,33.2596656 L81.6055633,33.2596656 L81.6055633,47.6849832 C81.6055633,48.913284 80.6134246,49.9054227 79.3851239,49.9054227 L79.3851239,49.9054227 L62.5981856,49.9054227 C61.3698848,49.9054227 60.3777461,48.913284 60.3777461,47.6849832 L60.3777461,47.6849832 L60.3777461,33.2443461 C60.3777461,32.0002421 61.4643819,31.0239067 62.5981856,31.0239067 L62.5981856,31.0239067 Z M50.0160447,45.4647051 C51.2443455,45.4647051 52.2364842,46.4568437 52.2364842,47.6851445 C52.2364842,48.9134453 51.2443455,49.905584 50.0160447,49.905584 L50.0160447,49.905584 L20.6461593,49.905584 C19.4178586,49.905584 18.4257199,48.9134453 18.4257199,47.6851445 C18.4257199,46.4568437 19.4178586,45.4647051 20.6461593,45.4647051 L20.6461593,45.4647051 Z M77.1489618,35.4802663 L64.8030636,35.4802663 L64.8030636,45.4645438 L77.1489618,45.4645438 L77.1489618,35.4802663 Z M60.5357062,14.4409595 L18.5361089,14.4409595 C16.2842202,14.4412014 14.4416884,16.2836526 14.4416884,18.5356179 C14.4416884,20.7875833 16.2841396,22.6143118 18.5361089,22.6143118 L18.5361089,22.6143118 L60.5357062,22.6143118 L60.5357062,14.4409595 Z"></path>
            </g>
        </g>
    </g>
</svg>