<?xml version="1.0" encoding="UTF-8"?>
<svg width="96px" height="96px" viewBox="0 0 96 96" version="1.1" xmlns="http://www.w3.org/2000/svg" xmlns:xlink="http://www.w3.org/1999/xlink">
    <title>Atoms / Icons / life</title>
    <g id="STYLEGUIDE" stroke="none" stroke-width="1" fill="none" fill-rule="evenodd">
        <g id="Styleguide" transform="translate(-868.000000, -1485.000000)" fill="#363A5B">
            <g id="Combined-Shape" transform="translate(866.000000, 1483.000000)">
                <path d="M50,83 C51.6992,83 53,84.3008 53,86 L53,86 L53,94.5 C53,96.1016 51.6016,97.5 50,97.5 C48.3984,97.5 47,96.1992 47,94.5 L47,94.5 L47,86 C47,84.3984 48.3008,83 50,83 Z M22.3981,73.301 C23.6012,72.1018 25.4996,72.1018 26.6012,73.301 C27.8004,74.5002 27.8004,76.4026 26.6012,77.6018 L26.6012,77.6018 L20.6012,83.6018 C19.9996,84.19946 19.19882,84.50024 18.4996,84.50024 C17.7964,84.50024 16.99956,84.20336 16.398,83.6018 C15.1988,82.4026 15.1988,80.5002 16.398,79.301 L16.398,79.301 Z M73.3012,73.301 C74.5004,72.1018 76.4028,72.1018 77.602,73.301 L77.602,73.301 L83.5044,79.301 C84.7036,80.5002 84.7036,82.4026 83.5044,83.6018 C82.9028,84.19946 82.20358,84.50024 81.4028,84.50024 C80.6996,84.50024 79.90276,84.20336 79.3012,83.6018 L79.3012,83.6018 L73.3012,77.6018 C72.102,76.4026 72.102,74.5002 73.3012,73.301 Z M50,34.102 C56.301,28.9028 65.7036,29.2036 71.602,35.102 L71.602,35.102 C77.79974,41.302 77.79974,51.3993 71.70204,57.704 L71.70204,57.704 L54.80004,74.606 C53.39764,75.90678 51.69844,76.606 49.99924,76.606 C48.19844,76.606 46.49924,75.9068 45.19844,74.606 L45.19844,74.606 L28.29644,57.704 C22.0972,51.403 22.1988,41.3012 28.398,35.102 C34.301,29.2036 43.6992,28.9028 50,34.102 Z M67.40356,39.29688 C63.50056,35.49608 57.19996,35.49608 53.30156,39.29688 L53.30156,39.29688 L52.2,40.39844 C51.7,40.9961 50.89918,41.29688 50.0984,41.29688 C49.2,41.29688 48.50076,41 47.8992,40.39844 L47.8992,40.39844 L46.8992,39.39844 C42.9962,35.50004 36.6956,35.50004 32.7972,39.39844 C28.9964,43.30144 28.8988,49.60204 32.7972,53.50044 L32.7972,53.50044 L32.89876,53.602 L49.60176,70.301 C49.80098,70.60178 50.19942,70.60178 50.5002,70.301 L50.5002,70.301 L67.302,53.49988 C71.20046,49.60188 71.20046,43.19918 67.40356,39.29688 Z M14,47 C15.6016,47 17,48.3008 17,50 C17,51.6992 15.6992,53 14,53 L14,53 L5.5,53 C3.8984,53 2.5,51.6016 2.5,50 C2.5,48.3984 3.8008,47 5.5,47 L5.5,47 Z M94.5,47 C96.1016,47 97.5,48.3984 97.5,50 C97.5,51.6016 96.1992,53 94.5,53 L94.5,53 L86,53 C84.3984,53 83,51.6016 83,50 C83,48.3984 84.3008,47 86,47 L86,47 Z M79.3008,16.40276 C80.5,15.20356 82.4024,15.20356 83.6016,16.40276 C84.8008,17.60196 84.8008,19.50436 83.6016,20.70356 L83.6016,20.70356 L77.6016,26.70356 C77,27.30122 76.30078,27.602 75.5,27.602 C74.6992,27.602 73.89846,27.30122 73.3008,26.70356 C72.1016,25.50436 72.1016,23.60196 73.3008,22.40276 L73.3008,22.40276 Z M16.3004,16.3982 C17.4996,15.199 19.402,15.199 20.6012,16.3982 L20.6012,16.3982 L26.6012,22.3982 C27.8004,23.5974 27.8004,25.4998 26.6012,26.699 C25.9996,27.29666 25.19882,27.59744 24.4996,27.59744 C23.7964,27.59744 22.99956,27.30056 22.398,26.699 L22.398,26.699 L16.3004,20.699 C15.1012,19.4998 15.1012,17.5974 16.3004,16.3982 Z M50,2.5 C51.6016,2.5 53,3.8008 53,5.5 L53,5.5 L53,14 C53,15.6016 51.6992,17 50,17 C48.3008,17 47,15.6992 47,14 L47,14 L47,5.5 C47,3.8984 48.3984,2.5 50,2.5 Z"></path>
            </g>
        </g>
    </g>
</svg>