<?xml version="1.0" encoding="UTF-8"?>
<svg width="70px" height="70px" viewBox="0 0 70 70" version="1.1" xmlns="http://www.w3.org/2000/svg" xmlns:xlink="http://www.w3.org/1999/xlink">
    <title>Atoms / Icons / Link</title>
    <g id="STYLEGUIDE" stroke="none" stroke-width="1" fill="none" fill-rule="evenodd">
        <g id="Styleguide" transform="translate(-1016.000000, -1363.000000)" fill="#2C3054">
            <g id="Fill-1" transform="translate(1001.000000, 1348.000000)">
                <path d="M43.9938596,80.0327146 C37.370815,86.6557618 26.5938102,86.6557618 19.9672828,80.0327146 C13.3442391,73.40967 13.3442391,62.6326652 19.9672828,56.0061378 L31.9792971,43.9941236 C38.6023417,37.371079 49.3793465,37.371079 56.0058739,43.9941236 C56.496964,44.4686156 56.7723629,45.1189598 56.7790359,45.8025089 C56.7823269,46.4827282 56.5135537,47.1397066 56.032419,47.6208328 C55.5512844,48.1052803 54.8943315,48.3740534 54.2107823,48.3674193 C53.5305631,48.3641064 52.8768975,48.0853778 52.402397,47.5976089 C47.7138805,42.9090924 40.2748581,42.9090924 35.5825191,47.5976089 L23.5705048,59.6096232 C18.8819883,64.2981397 18.8819883,71.737162 23.5705048,76.4295011 C28.2590214,81.1180177 35.6980437,81.1180177 40.386985,76.4295011 L51.2004311,65.616055 C51.6749231,65.1282862 52.3285802,64.849566 53.0088164,64.8462447 C53.692357,64.8396105 54.3460141,65.1083752 54.8304531,65.5928312 C55.3115878,66.0739658 55.5803524,66.7309188 55.5770396,67.411155 C55.5704054,68.0946956 55.2916768,68.7450399 54.8039079,69.2195404 L43.9930102,80.0304381 L43.9938596,80.0327146 Z M68.0204364,56.0061378 C61.3973918,62.6291824 50.620387,62.6291824 43.9938596,56.0061378 C43.5060908,55.5316459 43.2273706,54.8779887 43.2206975,54.1977525 C43.2174066,53.5142119 43.4861798,52.8605548 43.9673144,52.3794286 C44.4517619,51.8949811 45.105402,51.626208 45.7889511,51.6328421 C46.4691704,51.6361635 47.122836,51.9148837 47.5973365,52.4026525 C52.285853,57.091169 59.7248754,57.091169 64.4172144,52.4026525 L76.4292286,40.3906382 C81.1177452,35.7021217 81.1177452,28.2630994 76.4292286,23.5707603 C71.7407121,18.8822438 64.3016898,18.8822438 59.6093507,23.5707603 L48.798453,34.3816581 L48.798453,34.3849794 C48.323961,34.8727482 47.6703039,35.1514684 46.9900676,35.1547897 C46.306527,35.1614239 45.6528699,34.8926592 45.1684309,34.4082032 C44.6872963,33.9270686 44.4185316,33.2701157 44.4218444,32.5898794 C44.4284786,31.9063388 44.703886,31.2559945 45.1949761,30.7781812 L56.0058739,19.9672835 C62.6289185,13.3442388 73.4059233,13.3442388 80.0324507,19.9672835 C86.6554953,26.5903281 86.6554953,37.3673329 80.0324507,43.9938603 L68.0204364,56.0061378 Z"></path>
            </g>
        </g>
    </g>
</svg>