<?xml version="1.0" encoding="UTF-8"?>
<svg width="82px" height="56px" viewBox="0 0 82 56" version="1.1" xmlns="http://www.w3.org/2000/svg" xmlns:xlink="http://www.w3.org/1999/xlink">
    <title>Atoms / Icons / Mail</title>
    <g id="STYLEGUIDE" stroke="none" stroke-width="1" fill="none" fill-rule="evenodd">
        <g id="Styleguide" transform="translate(-605.000000, -1235.000000)" fill="#363A5B">
            <g id="Shape" transform="translate(596.000000, 1213.000000)">
                <path d="M17,22 C12.6016,22 9,25.6016 9,30 L9,70 C9,74.3984 12.6016,78 17,78 L83,78 C87.3984,78 91,74.3984 91,70 L91,30 C91,25.6016 87.3984,22 83,22 L17,22 Z M17,26 L83,26 C83.57812,26 84.1016,26.13281 84.5938,26.34375 L52.4998,54.99975 C50.9842,56.35525 49.0818,56.35525 47.5623,54.99975 L15.4063,26.34375 C15.89849,26.13281 16.4219,26 17.0001,26 L17,26 Z M13.0312,29.5938 L36.0312,50.0938 L13.4372,71.8128 C13.17158,71.27374 12.9997,70.6526 12.9997,70.0003 L12.9997,30.0003 C12.9997,29.85968 13.019231,29.73077 13.03095,29.5938 L13.0312,29.5938 Z M86.9692,29.5938 C86.980919,29.73052 87.00045,29.85942 87.00045,30.00005 L87.00045,70.00005 C87.00045,70.65239 86.82857,71.27345 86.56295,71.81255 L64.03195,50.06255 L86.9692,29.5938 Z M61.0312,52.7498 L83.0932,73.9998 L82.99945,73.9998 L16.99945,73.9998 L16.9057,73.9998 L39.0307,52.7808 L44.9057,57.9996 C47.8315,60.609 52.2299,60.6129 55.1557,57.9996 L61.0312,52.7498 Z"></path>
            </g>
        </g>
    </g>
</svg>