<?xml version="1.0" encoding="UTF-8"?>
<svg width="52px" height="38px" viewBox="0 0 52 38" version="1.1" xmlns="http://www.w3.org/2000/svg" xmlns:xlink="http://www.w3.org/1999/xlink">
    <title>Atoms / Icons / Menu</title>
    <g id="STYLEGUIDE" stroke="none" stroke-width="1" fill="none" fill-rule="evenodd">
        <g id="Styleguide" transform="translate(-890.000000, -974.000000)" fill="#363A5B">
            <g id="Shape" transform="translate(866.000000, 943.000000)">
                <path d="M26.5365854,31 C25.1345512,31 24,32.1330967 24,33.5333333 C24,34.93357 25.1345512,36.0666667 26.5365854,36.0666667 L73.4634146,36.0666667 C74.8654488,36.0666667 76,34.93357 76,33.5333333 C76,32.1330967 74.8654488,31 73.4634146,31 L26.5365854,31 Z M26.5365854,47.4666667 C25.1345512,47.4666667 24,48.5997633 24,50 C24,51.4002367 25.1345512,52.5333333 26.5365854,52.5333333 L73.4634146,52.5333333 C74.8654488,52.5333333 76,51.4002367 76,50 C76,48.5997633 74.8654488,47.4666667 73.4634146,47.4666667 L26.5365854,47.4666667 Z M26.5365854,63.9333333 C25.1345512,63.9333333 24,65.06643 24,66.4666667 C24,67.8669033 25.1345512,69 26.5365854,69 L73.4634146,69 C74.8654488,69 76,67.8669033 76,66.4666667 C76,65.06643 74.8654488,63.9333333 73.4634146,63.9333333 L26.5365854,63.9333333 Z"></path>
            </g>
        </g>
    </g>
</svg>