<?xml version="1.0" encoding="UTF-8"?>
<svg width="92px" height="81px" viewBox="0 0 92 81" version="1.1" xmlns="http://www.w3.org/2000/svg" xmlns:xlink="http://www.w3.org/1999/xlink">
    <title>Atoms / Icons / Message</title>
    <g id="STYLEGUIDE" stroke="none" stroke-width="1" fill="none" fill-rule="evenodd">
        <g id="Styleguide" transform="translate(-600.000000, -1492.000000)" fill="#363A5B">
            <g id="Combined-Shape" transform="translate(596.000000, 1483.000000)">
                <path d="M74.6429904,9.5 C78.9709472,9.5 82.5072235,12.9546167 82.6391271,17.251158 L82.6429413,17.4999509 L82.642,45.928 L89.6763206,45.9283329 C92.7302624,45.9283329 95.2549485,48.2941478 95.4831964,51.2776589 L95.4957735,51.4970416 L95.5,51.7184768 L95.5,72.2094141 C95.5,75.3230953 92.9996798,77.8782029 89.8988072,77.9953611 L89.6763206,77.999558 L87.325,77.999 L89.0647889,87.9314135 C89.1594995,88.5049166 88.9264924,89.0747349 88.4785915,89.4232785 L88.3622046,89.5056786 L88.2372556,89.5781034 C87.682134,89.8669447 87.0122646,89.7959169 86.529538,89.4100132 L86.4129298,89.3070034 L74.908,77.999 L58.5378745,77.9990438 C55.4839326,77.9990438 52.9592465,75.6332288 52.7309986,72.6497178 L52.7184216,72.4303351 L52.714195,72.2088998 L52.714,68.356 L42.07,68.356 L21.0653052,89.294955 C20.6689984,89.7116986 20.0839282,89.874674 19.5452682,89.7382809 L19.3996883,89.6936262 L19.2574699,89.6339212 C18.6823443,89.3663514 18.3319396,88.7849961 18.352687,88.1709975 L18.36413,88.028854 L20.383,68.356 L12.4999509,68.3568283 C8.25522404,68.3568283 4.77202125,65.0338039 4.51518249,60.852595 L4.5038142,60.6056703 L4.5,60.3568774 L4.5,17.5000152 C4.5,13.1720477 7.9546272,9.63571984 12.2511586,9.50381426 L12.4999509,9.5 L74.6429904,9.5 Z M74.4990759,12.5 L12.3571078,12.5 C9.7182499,12.5 7.61635748,14.5305719 7.50466925,17.1384771 L7.5,17.3571078 L7.5,60.21397 C7.5,62.8528279 9.53057194,64.9547203 12.1384771,65.0664086 L12.3571078,65.0710778 L21.9999018,65.0710778 C22.4409859,65.0710778 22.8627366,65.2550862 23.1653877,65.5824674 C23.4277682,65.8716342 23.5728519,66.2421441 23.576055,66.6281866 L23.5686695,66.7943925 L21.8046747,83.8436283 L40.165037,65.5157681 C40.4290117,65.2571857 40.7773268,65.1017516 41.1325647,65.0750841 L41.2850077,65.0716135 L74.4990759,65.0716135 C77.1379338,65.0716135 79.2398262,63.0410416 79.3515144,60.4331364 L79.3561837,60.2145057 L79.3561837,17.3576435 C79.3561837,14.6453649 77.2111163,12.5 74.4990759,12.5 Z M89.6757313,49.071 L82.642,49.071 L82.6418163,60.3568774 C82.6418163,64.6848342 79.1871996,68.2211105 74.8906583,68.3530141 L74.6418654,68.3568283 L55.856,68.356 L55.856,72.2094784 C55.856,73.6312571 56.9467288,74.7664244 58.3653525,74.8516417 L58.5371137,74.8567792 L75.5127169,74.8567792 C75.8683581,74.8567792 76.2109223,74.9790148 76.4861013,75.200525 L76.5997513,75.3014691 L85.093,83.647 L83.8583302,76.6745971 C83.793197,76.2674694 83.8910723,75.8536852 84.1278447,75.5175944 L84.223098,75.395367 C84.4944435,75.0860239 84.8729568,74.8962484 85.2727298,74.8621839 L85.4234734,74.8567792 L89.6757313,74.8567792 C91.1193891,74.8567792 92.2653658,73.7762957 92.3513822,72.3786672 L92.3565676,72.2094784 L92.3565676,51.7185411 C92.3565676,50.2967624 91.2661162,49.1615951 89.8474926,49.0763778 L89.6757313,49.071 Z M24.5,37 C25.8807119,37 27,38.1192881 27,39.5 C27,40.8807119 25.8807119,42 24.5,42 C23.1192881,42 22,40.8807119 22,39.5 C22,38.1192881 23.1192881,37 24.5,37 Z M37.5,37 C38.8807119,37 40,38.1192881 40,39.5 C40,40.8807119 38.8807119,42 37.5,42 C36.1192881,42 35,40.8807119 35,39.5 C35,38.1192881 36.1192881,37 37.5,37 Z M50.5,37 C51.8807119,37 53,38.1192881 53,39.5 C53,40.8807119 51.8807119,42 50.5,42 C49.1192881,42 48,40.8807119 48,39.5 C48,38.1192881 49.1192881,37 50.5,37 Z M63.5,37 C64.8807119,37 66,38.1192881 66,39.5 C66,40.8807119 64.8807119,42 63.5,42 C62.1192881,42 61,40.8807119 61,39.5 C61,38.1192881 62.1192881,37 63.5,37 Z"></path>
            </g>
        </g>
    </g>
</svg>