<?xml version="1.0" encoding="UTF-8"?>
<svg width="48px" height="76px" viewBox="0 0 48 76" version="1.1" xmlns="http://www.w3.org/2000/svg" xmlns:xlink="http://www.w3.org/1999/xlink">
    <title>Atoms / Icons / Mic</title>
    <g id="STYLEGUIDE" stroke="none" stroke-width="1" fill="none" fill-rule="evenodd">
        <g id="Styleguide" transform="translate(-1162.000000, -1360.000000)" fill="#2C3054">
            <g id="Fill-1" transform="translate(1136.000000, 1348.000000)">
                <path d="M50.000386,12 C41.723086,12 35.000386,18.7227 35.000386,27 L35.000386,51 C35.000386,59.2773 41.723086,66 50.000386,66 C58.277686,66 65.000386,59.2773 65.000386,51 L65.000386,27 C65.000386,18.7227 58.277686,12 50.000386,12 Z M50.000386,16 C56.129286,16 61.000386,20.8711 61.000386,27 L61.000386,51 C61.000386,57.1289 56.129286,62 50.000386,62 C43.871486,62 39.000386,57.1289 39.000386,51 L39.000386,27 C39.000386,20.8711 43.871486,16 50.000386,16 Z M28.031386,38.9998159 C26.964986,38.98438 25.984486,39.96484 26,41.0312 L26,51.0312 C26,63.6252 35.672086,73.9292 48.000186,74.9372 L48.000186,83.9997 L40.000186,83.9997 C38.894686,83.9997 38.000186,84.89423 38.000186,85.9997 C38.000186,87.10517 38.894716,87.9997 40.000186,87.9997 L60.000186,87.9997 C61.105686,87.9997 62.000186,87.10517 62.000186,85.9997 C62.000186,84.89423 61.105656,83.9997 60.000186,83.9997 L52.000186,83.9997 L52.000186,74.9372 C64.328186,73.9255 74.0003748,63.6252 74.0003748,51.0312 L74.0003748,41.0312 C74.015816,39.9765 73.058776,39.0039 72.000186,39.0039 C70.941596,39.0039 69.984586,39.97656 70.000186,41.0312 L70.000186,51.0312 C70.000186,62.1442 61.113486,71.0312 50.000186,71.0312 C38.886886,71.0312 30.000186,62.1445 30.000186,51.0312 L30.000186,41.0312 C30.015816,39.9843 29.078306,39.0156 28.031386,38.9998159 Z"></path>
            </g>
        </g>
    </g>
</svg>