<?xml version="1.0" encoding="UTF-8"?>
<svg width="88px" height="88px" viewBox="0 0 88 88" version="1.1" xmlns="http://www.w3.org/2000/svg" xmlns:xlink="http://www.w3.org/1999/xlink">
    <title>Atoms / Icons / Minus</title>
    <g id="STYLEGUIDE" stroke="none" stroke-width="1" fill="none" fill-rule="evenodd">
        <g id="Styleguide" transform="translate(-467.000000, -949.000000)" fill="#363A5B">
            <g id="Combined-Shape" transform="translate(461.000000, 943.000000)">
                <path d="M50,6 C74.281,6 94,25.719 94,50 C94,74.27 74.281,94 50,94 C25.727,94 6,74.273 6,50 C6,25.719 25.73,6 50,6 Z M50,10 C27.891,10 10,27.883 10,50 C10,72.109 27.891,90 50,90 C72.117,90 90,72.109 90,50 C90,27.879 72.121,10 50,10 Z M64.95334,32.988 C65.78154,32.9567 66.54712,33.43718 66.87134,34.2028 C67.19556,34.9646 67.01978,35.85128 66.42212,36.4255 L66.42212,36.4255 L36.42232,66.4253 C35.63712,67.21046 34.36368,67.21046 33.57852,66.4253 C32.79336,65.6401 32.79336,64.36666 33.57852,63.5815 L33.57852,63.5815 L63.57834,33.58175 C63.94164,33.21456 64.43381,32.999719 64.95334,32.988 Z" transform="translate(50.000000, 50.000000) rotate(-315.000000) translate(-50.000000, -50.000000) "></path>
            </g>
        </g>
    </g>
</svg>