<?xml version="1.0" encoding="UTF-8"?>
<svg width="85px" height="80px" viewBox="0 0 85 80" version="1.1" xmlns="http://www.w3.org/2000/svg" xmlns:xlink="http://www.w3.org/1999/xlink">
    <title>Atoms / Icons / notes</title>
    <g id="STYLEGUIDE" stroke="none" stroke-width="1" fill="none" fill-rule="evenodd">
        <g id="Styleguide" transform="translate(-1271.000000, -1223.000000)" fill="#2C3054">
            <g id="Combined-Shape" transform="translate(1271.000000, 1213.000000)">
                <path d="M4.81409428,11.4578743 C9.4141109,8.62683392 15.4347448,10.0406548 18.2657852,14.6440692 C18.9927939,15.8072832 19.4147442,16.4795627 19.7786095,17.060565 L19.8723756,17.210323 C19.8878378,17.2350252 19.9032308,17.2596205 19.9185749,17.2841418 L20.0102151,17.4306444 C20.0406744,17.4793578 20.0711005,17.528038 20.1016558,17.5769477 L20.1938714,17.7246281 C20.9992466,19.0150488 22.0017049,20.6382829 26.0553944,27.2129708 L26.0553944,27.2129708 L26.0553944,14.1130367 C26.0553944,13.0509972 26.7623049,12.3440613 27.8243698,12.3440613 L27.8243698,12.3440613 L65.5276761,12.3440613 C65.8827457,12.3440613 66.4138036,12.5199647 66.7689327,12.8750938 L66.7689327,12.8750938 L84.4689675,30.5750437 C84.8240966,30.9301982 85,31.4612307 85,31.9922632 L85,31.9922632 L85,87.7506721 C85,88.8127116 84.2930896,89.5196475 83.2310246,89.5196475 L83.2310246,89.5196475 L27.8243698,89.5196475 C26.7623304,89.5196475 26.0553944,88.8127371 26.0553944,87.7506721 L26.0553944,87.7506721 L26.0553944,64.5611226 C24.8074681,62.5644404 19.8446494,54.5463292 14.6775413,46.2034615 L14.0170712,45.1370893 C8.39824121,36.0653924 2.71476654,26.896738 1.45202142,24.9095643 C-1.38241756,20.3095485 0.0348021904,14.2889147 4.81409428,11.4578743 Z M63.7587347,15.8820121 L29.5967778,15.8820121 L29.5934557,32.8750516 L43.9313327,56.0646028 C44.1105583,56.2404808 44.2864618,56.7715388 44.2864618,57.1266678 L44.2864618,57.1266678 L46.5930969,75.7128047 C46.5930969,76.4197151 46.2379424,77.1266511 45.7069099,77.4817801 C44.9966009,77.8369091 44.2896904,77.8369091 43.758658,77.4817801 L43.758658,77.4817801 L29.5966589,68.2783499 L29.5966589,85.9783007 L81.4586846,85.9816194 L81.4586846,33.5852841 L69.600092,33.581962 C66.4138971,33.581962 63.7587347,30.9267996 63.7587347,27.7406047 L63.7587347,27.7406047 L63.7587347,15.8820121 Z M76.6792733,72.1714553 C77.5654348,72.1714553 78.2723707,72.8816793 78.2723707,73.9404307 C78.2723707,75.0024701 77.5654603,75.7094061 76.5033953,75.7094061 L76.5033953,75.7094061 L51.1897141,75.7094061 C50.1276746,75.7094061 49.4207387,75.0024701 49.4207387,73.9404307 C49.4207387,72.8783912 50.1276491,72.1714553 51.1897141,72.1714553 L51.1897141,72.1714553 Z M41.1034955,60.3128627 L32.2518213,65.7990655 L42.5173164,72.5266098 L41.1034955,60.3128627 Z M76.6792733,60.3128627 C77.5654348,60.3128627 78.2723707,61.0197986 78.2723707,62.0818381 C78.2723707,63.1438776 77.5654603,63.8508135 76.5033953,63.8508135 L76.5033953,63.8508135 L51.1897141,63.8508135 C50.1276746,63.8508135 49.4207387,63.1438776 49.4207387,62.0818381 C49.4207387,61.0197986 50.1276491,60.3128627 51.1897141,60.3128627 L51.1897141,60.3128627 Z M17.5587897,20.3094636 C11.3095056,24.1724182 9.94752981,25.0452306 8.97686591,25.6896367 L8.86634701,25.7631348 C8.84813136,25.7752679 8.82999647,25.7873558 8.81191038,25.7994182 L8.6495895,25.9078202 C8.57726495,25.9561637 8.50418622,26.0050412 8.42830689,26.0557099 L8.31213162,26.1332134 C7.97556753,26.3575031 7.56993568,26.6254973 6.93814094,27.0336942 L6.93814094,27.0336942 L29.4173823,63.1439031 C31.7173902,61.7300822 37.5587475,58.1887328 40.038032,56.5956353 L40.038032,56.5956353 Z M76.6792733,48.2749935 C77.5654348,48.2749935 78.2723707,48.9852176 78.2723707,50.043969 C78.2723707,51.1060084 77.5654603,51.8129444 76.5033953,51.8129444 L76.5033953,51.8129444 L51.1897141,51.8129444 C50.1276746,51.8129444 49.4207387,51.1060084 49.4207387,50.043969 C49.4207387,48.9819295 50.1276491,48.2749935 51.1897141,48.2749935 L51.1897141,48.2749935 Z M67.2999652,18.3612966 L67.2999652,27.7440033 C67.2999652,28.9819462 68.3620301,30.0440112 69.599973,30.0440112 L69.599973,30.0440112 L78.9826798,30.0440112 L67.2999652,18.3612966 Z M15.2553832,16.5923212 C13.4864078,13.5820042 9.59330251,12.6992158 6.58298642,14.4681912 C3.57595678,16.2371666 2.68985474,20.130272 4.458831,23.1405889 L4.458831,23.1405889 L5.16576693,24.0267759 C7.46577397,22.612955 13.1312533,19.0716056 15.7864157,17.4785082 L15.7864157,17.4785082 Z"></path>
            </g>
        </g>
    </g>
</svg>