<?xml version="1.0" encoding="UTF-8"?>
<svg width="88px" height="88px" viewBox="0 0 88 88" version="1.1" xmlns="http://www.w3.org/2000/svg" xmlns:xlink="http://www.w3.org/1999/xlink">
    <title>Atoms / Icons / Parameters Copy 2</title>
    <g id="STYLEGUIDE" stroke="none" stroke-width="1" fill="none" fill-rule="evenodd">
        <g id="Styleguide" transform="translate(-62.000000, -1219.000000)" fill="#2C3054">
            <g id="Combined-Shape" transform="translate(56.000000, 1213.000000)">
                <path d="M50,6 C74.281,6 94,25.719 94,50 C94,74.27 74.281,94 50,94 C25.727,94 6,74.273 6,50 C6,25.719 25.73,6 50,6 Z M52.2498382,25 L47.8469196,25 C46.1954122,25 45.6438088,25.551613 45.6438088,27.4774151 L45.6438088,31.3322729 C43.7181512,31.8838859 41.7891906,32.7097157 39.8635331,33.809688 L37.1121218,31.0581057 C35.4606145,29.6806629 34.6348608,29.6806629 33.2575037,31.0548792 L30.2286392,34.0839321 C29.1287353,35.1839044 29.1287353,36.0097094 30.5060429,37.3871522 L33.5349074,40.416205 C32.7091537,42.0678151 31.8834,43.7194251 31.6092498,45.3710352 L27.2031108,45.3710352 C25.5516035,45.3710352 25,45.9226481 25,47.8484502 L25,51.7033081 C25,53.6290854 25.5515787,54.1807232 27.2031108,54.1807232 L31.605856,54.177401 C32.1574347,56.1031783 32.9832131,58.0322588 34.083117,59.9580361 L31.0542525,62.987089 C29.6768954,64.3645317 29.6768954,65.1903368 30.7800775,66.2903091 L33.808942,69.3193619 C34.9088459,70.4193342 36.0120528,70.4193342 37.1119567,69.0451698 L40.4149714,65.7419497 C42.0664787,66.5677548 43.7179861,67.3935598 45.3694934,67.6677271 L45.3694934,71.5225849 C45.3694934,73.4483622 45.9210721,74 47.5726042,74 L51.9755228,74 C53.6270302,74 54.1786336,73.448387 54.1786336,71.5225849 L54.1786336,67.6677271 C55.830141,67.1161141 57.4816483,66.5677548 59.1331556,65.7419497 L62.4361703,69.0451698 C63.8135275,70.4226126 64.6392811,70.4226126 65.739185,69.3193619 L68.7680495,66.2903091 C69.8679534,65.1903368 69.8679534,64.3645317 68.4938745,62.987089 L65.1908598,59.6838689 C66.2907637,58.0322588 67.1165174,56.1064815 67.6681208,53.9032337 L71.7968892,53.9032337 C73.4483965,53.9032337 74,53.3516207 74,51.4258186 L74,47.5709608 C74,45.6451834 73.4484213,45.0935457 71.7968892,45.0935457 L67.6681208,45.0935457 C67.1165422,43.4419356 66.5682169,41.7903256 65.7424633,40.1387155 L68.7713277,37.1096627 C70.1486849,35.7322199 70.1486849,34.9064149 69.0455027,33.8064426 L66.2876506,31.0548603 C65.1877467,29.954888 64.0845398,29.954888 62.9846359,31.3290523 L60.2332247,34.0806346 C58.5817173,32.9806623 56.6560598,32.1548573 54.452949,31.6032196 L54.452949,27.4774151 C54.452949,25.5516378 53.9013703,25 52.2498382,25 Z M49.7724368,42.6161306 C53.9012051,42.6161306 56.9300696,45.9193507 56.9300696,49.7742086 C56.9300696,53.6290664 53.6270549,56.9322865 49.7724368,56.9322865 C45.6436684,56.9322865 42.6148039,53.9032337 42.6148039,49.7742086 C42.6148039,45.6451834 45.9178186,42.6161306 49.7724368,42.6161306 Z"></path>
            </g>
        </g>
    </g>
</svg>