<?xml version="1.0" encoding="UTF-8"?>
<svg width="93px" height="43px" viewBox="0 0 93 43" version="1.1" xmlns="http://www.w3.org/2000/svg" xmlns:xlink="http://www.w3.org/1999/xlink">
    <title>Atoms / Icons / Phone</title>
    <g id="STYLEGUIDE" stroke="none" stroke-width="1" fill="none" fill-rule="evenodd">
        <g id="Styleguide" transform="translate(-1275.000000, -1376.000000)" fill="#2C3054">
            <g id="Fill-1" transform="translate(1271.000000, 1348.000000)">
                <path d="M35.5446083,21.3059116 C37.6462083,25.5090116 40.0485083,30.0129116 42.7516083,33.9189116 C44.5524083,36.9228116 44.5524083,37.8212116 43.3531683,40.5244116 C42.1500683,43.2275116 37.3453683,46.2314116 35.2437683,48.6338116 C35.5445483,53.7393116 52.3607683,70.5558116 57.4667683,70.8568116 C59.8690683,68.7552116 62.8729683,64.2513116 65.5761683,63.0482116 C68.2793683,61.8451116 69.4784683,61.5482116 72.1816683,63.3489916 C76.0839683,66.0520916 80.5918683,68.4544916 84.7946683,70.8567916 C86.5954683,71.7591316 87.4977683,73.5598916 88.0993683,75.3606916 L88.4001483,75.6614716 L88.4001483,76.2630316 C88.4001483,87.9740316 75.4861483,95.4820316 64.9781483,93.9820316 C41.5561483,90.9781316 15.1261483,64.5520316 12.1261483,41.1300316 C10.9230483,30.6180316 18.4308483,17.7080316 30.1461483,18.0050316 L31.0484883,18.0050316 C32.8492883,18.6065916 34.6539883,19.8058316 35.5523883,21.3097316 L35.5446083,21.3059116 Z M29.8376083,21.6066916 C20.5290083,21.3059116 14.5216083,32.1186916 15.7246083,40.8256916 C18.4277083,62.7476916 43.9516083,87.6736916 65.5766083,90.3766916 C73.9868083,91.5797916 84.7956083,85.5719916 84.7956083,76.2636916 C84.1940483,74.4628916 83.2956083,73.8613916 83.2956083,73.8613916 C83.2956083,73.8613916 72.1866083,67.8535916 70.0806083,66.3535916 C68.2798083,65.1504916 68.2798083,65.7520316 67.0767083,66.3535916 C65.8736083,66.6543716 60.7720083,73.2597916 59.2681083,74.1621916 C53.2603083,77.7676916 28.3381083,52.8421916 31.9401083,46.8341916 C32.8424483,45.6310916 39.4479083,40.2286916 40.0495083,39.3263916 C40.3502883,38.1232916 40.9518483,38.1232916 39.7487283,36.0216916 C38.5456083,33.9200916 32.2409283,23.1076916 32.2409283,23.1076916 C32.2409283,23.1076916 31.9401483,22.2053516 29.8386283,21.6076916 L29.8376083,21.6066916 Z" transform="translate(50.200074, 56.086118) rotate(135.000000) translate(-50.200074, -56.086118) "></path>
            </g>
        </g>
    </g>
</svg>