<?xml version="1.0" encoding="UTF-8"?>
<svg width="70px" height="70px" viewBox="0 0 70 70" version="1.1" xmlns="http://www.w3.org/2000/svg" xmlns:xlink="http://www.w3.org/1999/xlink">
    <title>Atoms / Icons / Pin</title>
    <g id="STYLEGUIDE" stroke="none" stroke-width="1" fill="none" fill-rule="evenodd">
        <g id="Styleguide" transform="translate(-341.000000, -1228.000000)" fill="#363A5B">
            <g id="Shape" transform="translate(326.000000, 1213.000000)">
                <path d="M81.7603573,36.3278138 L61.0288118,15.5617277 C60.1057616,14.7684022 58.7256215,14.8208999 57.8666026,15.6842246 C57.0047511,16.5446 56.9522738,17.9271142 57.7443094,18.8517023 L58.3033724,19.4116967 L26.7863842,46.6879045 L23.781458,43.5612691 C22.8584078,42.7679437 21.4782677,42.8204413 20.6192488,43.683766 C19.7573974,44.5441414 19.70492,45.9266556 20.4969557,46.8512437 L35.1488778,61.5514704 L15.8142443,80.894424 C15.3221496,81.3173393 15.0280527,81.9269044 15.0018885,82.5773192 C14.9756826,83.2248146 15.223188,83.8576905 15.6832447,84.3156166 C16.1403942,84.7764472 16.7722248,85.0243604 17.4186506,84.9981079 C18.0679762,84.9718583 18.6765423,84.6772759 19.0987467,84.1843987 L38.4333802,64.841445 L53.0853023,79.5177786 C54.0083525,80.311104 55.3884926,80.2586064 56.2475115,79.3952817 C57.109363,78.5349062 57.1618404,77.152392 56.3698047,76.2278039 L53.2250382,73.077798 L80.3626999,41.4149673 L81.1547058,42.2082927 C82.077756,43.0016181 83.4578961,42.9491205 84.316915,42.0857958 C85.1787664,41.2254204 85.2312438,39.8429062 84.4392081,38.9183181 L81.7603573,36.3278138 Z M49.8351855,69 L30,49.2301587 L61.6842902,22 L77,37.4570317 L49.8351855,69 Z"></path>
            </g>
        </g>
    </g>
</svg>