<?xml version="1.0" encoding="UTF-8"?>
<svg width="88px" height="88px" viewBox="0 0 88 88" version="1.1" xmlns="http://www.w3.org/2000/svg" xmlns:xlink="http://www.w3.org/1999/xlink">
    <title>Atoms / Icons / Plus</title>
    <g id="STYLEGUIDE" stroke="none" stroke-width="1" fill="none" fill-rule="evenodd">
        <g id="Styleguide" transform="translate(-332.000000, -949.000000)" fill="#363A5B">
            <g id="Combined-Shape" transform="translate(326.000000, 943.000000)">
                <path d="M50,6 C74.281,6 94,25.719 94,50 C94,74.27 74.281,94 50,94 C25.727,94 6,74.273 6,50 C6,25.719 25.73,6 50,6 Z M50,10 C27.891,10 10,27.883 10,50 C10,72.109 27.891,90 50,90 C72.117,90 90,72.109 90,50 C90,27.879 72.121,10 50,10 Z M34.8739991,32.9850705 L34.98484,32.988 C35.5239,32.98409 36.04343,33.19894 36.42234,33.58175 L36.42234,33.58175 L50.01634,47.14375 L63.57834,33.58175 C63.94164,33.21456 64.43381,32.999719 64.95334,32.988 C65.78154,32.9567 66.54712,33.43718 66.87134,34.2028 C67.19556,34.9646 67.01978,35.85128 66.42212,36.4255 L66.42212,36.4255 L52.82812,50.0195 L66.42212,63.5815 C67.20728,64.3667 67.20728,65.64014 66.42212,66.4253 C65.63692,67.21046 64.36348,67.21046 63.57832,66.4253 L63.57832,66.4253 L50.01632,52.8313 L36.42232,66.4253 C35.63712,67.21046 34.36368,67.21046 33.57852,66.4253 C32.79336,65.6401 32.79336,64.36666 33.57852,63.5815 L33.57852,63.5815 L47.14052,50.0195 L33.57852,36.4255 C33.012113,35.8864 32.81289,35.06608 33.0668,34.3278 C33.3246,33.58566 33.98866,33.066125 34.766,32.988 C34.8364,32.984094 34.910621,32.984094 34.98484,32.988 Z" transform="translate(50.000000, 50.000000) rotate(-315.000000) translate(-50.000000, -50.000000) "></path>
            </g>
        </g>
    </g>
</svg>