<?xml version="1.0" encoding="UTF-8"?>
<svg width="88px" height="61px" viewBox="0 0 88 61" version="1.1" xmlns="http://www.w3.org/2000/svg" xmlns:xlink="http://www.w3.org/1999/xlink">
    <title>Atoms / Icons / Reply</title>
    <g id="STYLEGUIDE" stroke="none" stroke-width="1" fill="none" fill-rule="evenodd">
        <g id="Styleguide" transform="translate(-1277.000000, -828.000000)" fill="#363A5B">
            <g id="Shape" transform="translate(1271.000000, 808.000000)">
                <path d="M38.621,20.969 C38.05459,21.051031 37.5233,21.28931 37.0898,21.6565 L7.0898,46.6565 C6.41011,47.22681 6.0195,48.0706 6.0195,48.9534 C6.0195,49.84012 6.41012,50.6839 7.0898,51.2503 L37.0898,76.2543 C37.98042,76.98477 39.2148,77.14492 40.2617,76.65664 C41.3086,76.16836 41.9805,75.12544 41.9961,73.97304 L41.9961,64.00424 C48.7617,64.06674 72.0231,65.35584 89.0271,80.22324 C90.0427,81.09433 91.5193,81.18808 92.6365,80.4459 C93.7537,79.70762 94.2459,78.3131 93.8396,77.0357 C85.4373,51.1527 60.1876,39.6957 41.9956,34.7237 L41.9956,23.9737 C42.003412,23.10651 41.63622,22.2823 40.9878,21.7081 C40.34327,21.13388 39.48,20.86435 38.6206,20.97372 L38.621,20.969 Z M35.996,30.344 L35.996,36.969 C35.996,38.3401 36.92178,39.5354 38.246,39.8752 C52.945,43.5979 72.871,51.9302 83.371,68.8752 C63.281,57.0702 40.746,57.8792 38.84,57.9692 C37.2423,58.055138 35.9923,59.3715 35.9962,60.9692 L35.9962,67.563 L13.6522,48.969 L35.996,30.344 Z"></path>
            </g>
        </g>
    </g>
</svg>