<?xml version="1.0" encoding="UTF-8"?>
<svg width="90px" height="90px" viewBox="0 0 90 90" version="1.1" xmlns="http://www.w3.org/2000/svg" xmlns:xlink="http://www.w3.org/1999/xlink">
    <title>Atoms / Icons / RSS</title>
    <g id="STYLEGUIDE" stroke="none" stroke-width="1" fill="none" fill-rule="evenodd">
        <g id="Styleguide" transform="translate(-736.000000, -1352.000000)" fill="#363A5B">
            <g id="Shape" transform="translate(731.000000, 1348.000000)">
                <path d="M50,4.4141 C25.426,4.4141 5.414,24.4221 5.414,49.0001 C5.414,73.5781 25.422,93.5861 50,93.5861 C74.574,93.5861 94.586,73.5781 94.586,49.0001 C94.586,24.4221 74.578,4.4141 50,4.4141 Z M50,9.8047 C71.625,9.8047 89.195,27.3747 89.195,48.9997 C89.195,70.6247 71.625,88.2027 50,88.2027 C28.375,88.2027 10.797,70.6247 10.797,48.9997 C10.797,27.3747 28.375,9.8047 50,9.8047 Z M35.145,28.9067 C33.6723,28.9067 32.4536,30.1294 32.4536,31.5981 C32.4536,33.0668 33.6684,34.2934 35.145,34.2934 C53.821,34.2934 67.747,48.0904 67.747,66.5664 C67.747,68.0391 68.9697,69.2578 70.4384,69.2578 C71.9071,69.2578 73.1337007,68.043 73.1337007,66.5664 C73.137607,45.1754 56.7157,28.9024 35.1537,28.9024 L35.145,28.9067 Z M35.133281,42.2187 C33.672381,42.226512 32.449681,43.4296 32.449681,44.9023 C32.449681,46.375 33.664481,47.5976 35.141081,47.5976 C40.973081,47.5976 45.711081,49.3867 48.996081,52.6835 C52.281081,55.9803 54.062481,60.7226 54.062481,66.5665 C54.062481,68.0431 55.285181,69.2618 56.757781,69.2618 C58.234381,69.2618 59.449186,68.0352 59.449186,66.5665 C59.453087,59.422 57.175781,53.2505 52.816381,48.8715 C48.449181,44.4965 42.281381,42.2113 35.140381,42.2113 L35.136475,42.2113 L35.132568,42.2113 L35.133281,42.2187 Z M39.184081,55.5427 C35.473181,55.5427 32.441881,58.5818 32.441881,62.2927 C32.441881,66.0036 35.480981,69.0349 39.184081,69.0349 C42.894981,69.0349 45.934081,65.9958 45.934081,62.2849 C45.934081,58.574 42.894981,55.5427 39.184081,55.5427 L39.184081,55.5427 Z M39.184081,60.9294 C39.941891,60.9294 40.543481,61.53096 40.547381,62.2927 C40.547381,63.05051 39.949721,63.6482 39.184081,63.6482 C38.426271,63.6482 37.820781,63.04664 37.820781,62.2927 C37.820781,61.53489 38.422341,60.9294 39.184081,60.9294 L39.184081,60.9294 Z"></path>
            </g>
        </g>
    </g>
</svg>