<?xml version="1.0" encoding="UTF-8"?>
<svg width="80px" height="59px" viewBox="0 0 80 59" version="1.1" xmlns="http://www.w3.org/2000/svg" xmlns:xlink="http://www.w3.org/1999/xlink">
    <title>Atoms / Icons / Screen share</title>
    <g id="STYLEGUIDE" stroke="none" stroke-width="1" fill="none" fill-rule="evenodd">
        <g id="Styleguide" transform="translate(-1011.000000, -1234.000000)" fill="#2C3054">
            <g id="Combined-Shape" transform="translate(1001.000000, 1213.000000)">
                <path d="M49.9894063,53.2592448 C50.617555,53.2592448 51.2206722,53.5092404 51.6644163,53.9529844 L51.6644163,53.9529844 L73.1672302,75.4277988 C73.2797322,75.5371729 73.3797304,75.6590427 73.4703528,75.7871684 L73.4703528,75.7871684 C73.5078561,75.8465513 73.5641031,75.9027903 73.5641031,75.9590453 C73.6078543,76.034044 73.6515975,76.1121706 73.6859729,76.1934171 C73.7172203,76.2715437 73.7422199,76.3496703 73.7609715,76.4309168 L73.7609715,76.4309168 C73.8297223,76.4996676 73.8297223,76.5652904 73.8297223,76.6402891 C73.8922172,76.9496675 73.8922172,77.2715417 73.8297223,77.5840321 L73.8297223,77.5840321 C73.7609715,77.6621587 73.7609715,77.7277815 73.7609715,77.7934044 C73.7422199,77.871531 73.7172203,77.9527775 73.6859729,78.0277762 C73.6387017,78.1151266 73.5855827,78.1963811 73.5262078,78.2744997 L73.5262078,78.2744997 C73.4855845,78.3338827 73.4293295,78.3901297 73.4293295,78.4463766 C73.2574606,78.70262 73.0355846,78.9244961 72.7793412,79.096365 L72.7793412,79.096365 L72.7762212,79.0994929 L72.6074723,79.1932432 C72.5324736,79.2369865 72.4512191,79.2776097 72.3731005,79.315113 L72.3731005,79.315113 L72.1356007,79.3901117 L71.9262285,79.4463587 C71.7731112,79.4619824 71.616866,79.4619824 71.4637408,79.4463587 L71.4637408,79.4463587 L28.0149208,79.4463587 L27.7586774,79.37136 L27.5680569,79.315113 C27.4774265,79.2744898 27.3899321,79.2244907 27.3055576,79.1744916 L27.3055576,79.1744916 L27.3024296,79.1713636 L27.1618082,79.096365 C26.9055568,78.9244961 26.6836887,78.70262 26.5086919,78.4463766 C26.4618207,78.3870017 26.4243254,78.3213789 26.3961979,78.2463802 C26.3680704,78.1682536 26.2930718,78.1120066 26.2930718,78.037008 C26.2586964,77.9463856 26.2305689,77.8495154 26.2086973,77.755765 L26.2086973,77.755765 L26.2086973,77.6026398 C26.1430744,77.2901334 26.1430744,76.9682672 26.2086973,76.6588967 L26.2086973,76.6588967 L26.2086973,76.5432828 C26.2336968,76.4307888 26.2680722,76.3214148 26.3118234,76.2120408 C26.3305751,76.1651696 26.3868221,76.1182904 26.3868221,76.0714193 C26.4274453,75.9807969 26.4774444,75.8933025 26.5274435,75.8058001 C26.5805626,75.7401692 26.6336896,75.6776664 26.6899366,75.6182994 L26.6899366,75.6182994 L26.6899366,75.6151715 L26.8211823,75.4557983 L48.3143964,53.9529844 C48.7581484,53.5092404 49.3612896,53.2592448 49.9894063,53.2592448 Z M49.9991981,58.9657184 L34.1994818,74.7654347 L65.7893147,74.7654347 L49.9991981,58.9657184 Z M87.1625309,21 C88.7313028,21 90,22.2687772 90,23.8343491 L90,23.8343491 L90,65.895994 C90,67.4616459 88.7312228,68.733463 87.1625309,68.733463 L87.1625309,68.733463 L76.8843155,68.733463 C75.5780989,68.733463 74.5187579,67.674122 74.5187579,66.3679055 C74.5187579,65.0648089 75.5780989,64.0054679 76.8843155,64.0054679 L76.8843155,64.0054679 L85.2713649,64.0054679 L85.2713649,25.7277551 L14.7286346,25.7277551 L14.7286346,64.0054679 L23.1156808,64.0054679 C24.4218973,64.0054679 25.4812383,65.0648089 25.4812383,66.3679055 C25.4812383,67.674122 24.4218973,68.733463 23.1156808,68.733463 L23.1156808,68.733463 L12.8374693,68.733463 C11.2686975,68.733463 10,67.4615659 10,65.895994 L10,65.895994 L10,23.8343491 C10,22.2686972 11.2687775,21 12.8374693,21 L12.8374693,21 Z"></path>
            </g>
        </g>
    </g>
</svg>