<?xml version="1.0" encoding="UTF-8"?>
<svg width="93px" height="93px" viewBox="0 0 93 93" version="1.1" xmlns="http://www.w3.org/2000/svg" xmlns:xlink="http://www.w3.org/1999/xlink">
    <title>Atoms / Icons / Search</title>
    <g id="STYLEGUIDE" stroke="none" stroke-width="1" fill="none" fill-rule="evenodd">
        <g id="Styleguide" transform="translate(-1005.000000, -947.000000)" fill="#363A5B">
            <g id="Shape" transform="translate(1001.000000, 943.000000)">
                <path d="M66.8688035,66.8720856 C60.5586796,73.1760799 52.1696329,76.6571596 43.2436873,76.6571596 C34.3177416,76.6571596 25.9286949,73.1759239 19.618571,66.8720856 C6.5898743,53.8434768 6.5898743,32.6450063 19.618571,19.6237331 C26.1359629,13.1063852 34.683426,9.85083281 43.2436873,9.85083281 C51.7973934,9.85083281 60.3573425,13.1124721 66.8688035,19.6237331 C79.8975002,32.6462549 79.8975002,53.8445694 66.8688035,66.8720856 M96.1454059,92.0078408 L72.9775902,68.8339387 C86.2500766,53.4216082 85.6160988,30.0963141 71.0083883,15.4815229 C55.7056746,0.172825697 30.7877868,0.172825697 15.4861657,15.4815229 C0.171278111,30.7902201 0.171278111,55.7018527 15.4861657,71.0033705 C22.8997418,78.4229835 32.7512139,82.5077583 43.2441555,82.5077583 C52.7488283,82.5077583 61.7234695,79.1240689 68.8373811,72.9725591 L92.0114397,96.1464612 C92.5845326,96.7195502 93.328325,97 94.0721017,97 C94.8219967,97 95.5718916,96.7195502 96.1449376,96.1464612 C97.2850208,95.0002989 97.2850208,93.1468706 96.1449376,92.0069044"></path>
            </g>
        </g>
    </g>
</svg>