<?xml version="1.0" encoding="UTF-8"?>
<svg width="92px" height="92px" viewBox="0 0 92 92" version="1.1" xmlns="http://www.w3.org/2000/svg" xmlns:xlink="http://www.w3.org/1999/xlink">
    <title>Atoms / Icons / Share info</title>
    <g id="STYLEGUIDE" stroke="none" stroke-width="1" fill="none" fill-rule="evenodd">
        <g id="Styleguide" transform="translate(-735.000000, -1217.000000)" fill="#2C3054">
            <g id="Fill-1" transform="translate(731.000000, 1213.000000)">
                <path d="M94.0469,4 C94.998343,4 95.7460575,4.70197314 95.8184504,5.62950295 L95.8242,5.77776 L95.8242,76.39076 C95.8242,77.3422354 95.1226101,78.0899208 94.1951489,78.1623106 L94.0469,78.16806 L41.823,78.168 L24.6811372,95.3027364 C24.4199146,95.5520843 24.105487,95.7183531 23.7704034,95.7859033 L23.601291,95.8113794 L23.42964,95.819968 C23.2639996,95.819968 23.0967732,95.7944959 22.9308547,95.7442545 L22.7654793,95.6857827 L22.7469618,95.6813032 C22.124108,95.4121984 21.7141161,94.8505697 21.6587237,94.1953695 L21.6523,94.042599 L21.652,78.167 L5.7773,78.1676 C4.87868433,78.1676 4.16184434,77.5417991 4.02398622,76.6909528 L4.00574936,76.5385489 L4,76.3903 L4,5.7773 C4,4.82582459 4.7015899,4.07813921 5.62905107,4.00574936 L5.7773,4 L94.0469,4 Z M92.261,7.55 L7.549,7.55 L7.549,74.606 L23.42487,74.6065 C24.3763454,74.6065 25.1240308,75.3080899 25.1964206,76.2355511 L25.20217,76.3838 L25.202,89.742 L39.828407,75.1244781 C40.1291265,74.8284499 40.4964118,74.6533581 40.9016743,74.6142106 L41.0776,74.6058 L92.261,74.605 L92.261,7.55 Z M54.2067017,21.6384668 C54.6791986,21.6043696 55.1449599,21.7585648 55.5056485,22.0675462 L55.6357893,22.1906044 L72.4637562,39.8425796 C73.0890992,40.4984173 73.125884,41.4660582 72.5742034,42.1629848 L72.4638672,42.2903439 L55.6329383,59.9533817 C55.1221876,60.4803906 54.3605513,60.6418522 53.6819896,60.3704303 C53.0515201,60.1182503 52.633805,59.5471434 52.5773481,58.8785264 L52.5708,58.7226 L52.57,50.451 L51.5394618,50.510668 C45.4676013,50.8898257 40.345898,52.4818382 36.169307,54.8884362 L35.7254314,55.1493849 L35.2887874,55.4164588 C33.7500534,56.3755862 32.4515507,57.3860785 31.412679,58.369283 L31.1908552,58.5839166 L30.7869857,58.9905174 C30.7241623,59.0555858 30.6636059,59.119245 30.6053506,59.1814052 L30.1957261,59.6335133 L30.0665912,59.7950815 C29.7264095,60.2416168 29.1994569,60.500223 28.64936,60.500223 C28.4518837,60.500223 28.272247,60.470707 28.0888899,60.4078163 C27.3570262,60.1638339 26.87202,59.4960172 26.87202,58.72648 C26.87202,46.6530102 32.0945096,39.2842595 40.7136489,35.0476631 C44.0483972,33.4102865 47.6252419,32.4361458 51.062701,31.9779804 L51.705498,31.898085 L52.566,31.8 L52.56672,23.42224 C52.56672,22.7906927 52.8828438,22.2296507 53.4083483,21.9096143 L53.5440247,21.8347248 L53.6880547,21.7704693 L53.861,21.712 L53.8797569,21.6620604 L54.2067017,21.6384668 Z M56.113,27.859 L56.1134,33.48875 C56.1134,34.4402254 55.4118101,35.1879108 54.4843489,35.2603006 L53.7977084,35.2865749 L53.4111959,35.3084171 C53.3468488,35.3127794 53.2809771,35.3176169 53.2112401,35.323101 C52.3527651,35.3906134 51.4254809,35.5011668 50.4269423,35.6692625 C47.5695988,36.1502686 44.7406185,37.0000098 42.1067515,38.3186612 C36.5586314,41.094345 32.8667671,45.5745532 31.3081998,51.4156496 L31.2005053,51.8351806 L30.605,54.249 L32.6771212,52.8729963 C38.1641854,49.2372065 45.1003275,46.9922812 53.7037989,46.887441 L54.3363,46.8836 C55.2877754,46.8836 56.0354608,47.5851899 56.1078506,48.5126511 L56.1136,48.6609 L56.113,54.293 L68.707,41.074 L56.113,27.859 Z"></path>
            </g>
        </g>
    </g>
</svg>