<?xml version="1.0" encoding="UTF-8"?>
<svg width="68px" height="68px" viewBox="0 0 68 68" version="1.1" xmlns="http://www.w3.org/2000/svg" xmlns:xlink="http://www.w3.org/1999/xlink">
    <title>Atoms / Icons / Share</title>
    <g id="STYLEGUIDE" stroke="none" stroke-width="1" fill="none" fill-rule="evenodd">
        <g id="Styleguide" transform="translate(-207.000000, -959.000000)" fill="#363A5B">
            <g id="Shape" transform="translate(191.000000, 943.000000)">
                <path d="M72.016,60.438 C68.473,60.441906 65.1254,62.0708 62.9379,64.8599 L39.1569,52.9539 C39.68815,51.0203 39.68815,48.9812 39.1569,47.0477 L62.9379,35.1417 C69.5317,43.7511 83.6409,38.9229 83.5940171,27.9855 C83.586088,24.6652 82.1486,21.5089 79.6525,19.3214 C77.1525,17.1339 73.8361,16.1261 70.5431,16.5519 C67.2501,16.9777 64.3009,18.8019 62.4454,21.5558 C60.5899,24.3058 60.004,27.7277 60.8438,30.9386 L37.0628,42.8446 C30.469,34.3758 16.3598,39.0634 16.4066829,50.0008 C16.4538,60.9382 30.4688,65.6258 37.0628,57.157 L60.8438,69.063 C59.93364,72.5318 60.68364,76.2232 62.8672,79.067 C65.0547,81.9108 68.4297,83.5826 72.0156,83.5943 C87.3436,83.04742 87.3436,60.9383 72.0156,60.4383 L72.016,60.438 Z M72.016,21.094 C75.8207,21.094 78.9066,24.1799 78.9066,27.9846 C78.9066,31.7893 75.8207,34.8752 72.016,34.8752 C68.2113,34.8752 65.1254,31.7893 65.1254,27.9846 C65.1254,24.1799 68.2113,21.094 72.016,21.094 Z M27.985,56.891 C24.1803,56.891 21.0944,53.8051 21.0944,50.0004 C21.0944,46.1957 24.1803,43.1098 27.985,43.1098 C37.0788,43.40668 37.0788,56.6098 27.985,56.8908 L27.985,56.891 Z M72.016,78.907 C62.9222,78.62575 62.9222,65.423 72.016,65.126 C75.8207,65.126 78.9066,68.2119 78.9066,72.0166 C78.9066,75.8213 75.8207,78.9072 72.016,78.9072 L72.016,78.907 Z"></path>
            </g>
        </g>
    </g>
</svg>