<?xml version="1.0" encoding="UTF-8"?>
<svg width="96px" height="90px" viewBox="0 0 96 90" version="1.1" xmlns="http://www.w3.org/2000/svg" xmlns:xlink="http://www.w3.org/1999/xlink">
    <title>Atoms / Icons / sondage</title>
    <g id="STYLEGUIDE" stroke="none" stroke-width="1" fill="none" fill-rule="evenodd">
        <g id="Styleguide" transform="translate(-194.000000, -1488.000000)" fill="#363A5B">
            <g id="Combined-Shape" transform="translate(191.000000, 1483.000000)">
                <path d="M14.5249886,67.398 C19.0249886,67.398 22.6265886,70.9996 22.6265886,75.4996 C22.6265886,77.6988 21.7241886,79.6988 20.3257886,81.1988 C23.0247886,82.3979 25.1263486,84.8979 25.5247886,87.9995 L25.5247886,87.9995 L25.9271286,91.499497 C26.1263486,92.296297 25.8294686,93.198677 25.2279086,93.897897 C24.6263086,94.601057 23.8255486,94.999497 22.9271086,94.999497 L22.9271086,94.999497 L6.22810861,94.999497 C5.32580861,94.999497 4.42732861,94.601087 3.72420861,93.796397 C3.12654861,93.198797 2.92342861,92.296437 3.02498861,91.398 L3.02498861,91.398 L3.52498861,87.9996 C3.92338861,84.898 6.02498861,82.398 8.72418861,81.1988 C7.32182861,79.6988 6.42338861,77.6988 6.42338861,75.4996 C6.42338861,70.9996 10.0249886,67.398 14.5249886,67.398 Z M16.9313886,83.6986 L12.3297886,83.6986 C9.52898761,83.6986 7.12662761,85.6986 6.72818761,88.4994 L6.72818761,88.4994 L6.22818761,91.897799 L23.0329886,91.897799 L22.5329886,88.4994 C22.1305886,85.8002 19.7321886,83.6986 16.9313886,83.6986 L16.9313886,83.6986 Z M62.5247886,72.4998 C64.8255886,72.4998 66.7278886,74.3982 66.7239946,76.699 L66.7239946,76.699 L66.7239946,85.8006 C66.7239946,88.1014 64.8255886,89.9998 62.5247886,89.9998 L62.5247886,89.9998 L35.1267886,89.9998 C32.8259886,89.9998 30.9275886,88.1014 30.9275886,85.8006 L30.9275886,85.8006 L30.9275886,76.699 C30.9275886,74.3982 32.8259886,72.4998 35.1267886,72.4998 L35.1267886,72.4998 Z M62.5243886,75.6992 L35.1263886,75.6992 C34.6263886,75.6992 34.1263886,76.09764 34.1263886,76.6992 L34.1263886,76.6992 L34.1263886,85.8008 C34.1263886,86.3008 34.5248286,86.8008 35.1263886,86.8008 L35.1263886,86.8008 L62.6263886,86.8008 C63.1263886,86.8008 63.6263886,86.40236 63.6263886,85.8008 L63.6263886,85.8008 L63.5243886,85.8008 L63.5243886,76.6992 C63.5243886,76.1992 63.1259486,75.6992 62.5243886,75.6992 L62.5243886,75.6992 Z M14.6265876,70.6007 C11.8257886,70.6007 9.62658761,72.7999 9.62658761,75.6007 C9.62658761,78.2999 11.9273886,80.3976 14.6265876,80.3976 C17.3257886,80.3976 19.5249886,78.1984 19.5249886,75.4992 C19.5249886,72.8 17.3257886,70.6008 14.6265876,70.6008 Z M14.5249886,36.199 C19.0249886,36.199 22.6265886,39.8006 22.6265886,44.3006 C22.6265886,46.4998 21.7241886,48.4998 20.3257886,49.9998 C23.0248286,51.199 25.1263686,53.699 25.2240286,56.8006 L25.2240286,56.8006 L25.7240286,60.199 C25.9232486,60.9958 25.6263686,61.89818 25.0248086,62.5974 C24.4232086,63.30056 23.6224486,63.699 22.7240086,63.699 L22.7240086,63.699 L6.02500861,63.699 C5.12260861,63.699 4.32576861,63.29662 3.72420861,62.5974 C3.12654861,61.9998 2.92342861,61.09744 3.02498861,60.199 L3.02498861,60.199 L3.52498861,56.8006 C3.92338861,53.699 6.02498861,51.199 8.72418861,49.9998 C7.32182861,48.4998 6.42338861,46.4998 6.42338861,44.3006 C6.42338861,39.8006 10.0249886,36.199 14.5249886,36.199 Z M16.9313886,52.4996 L12.3297886,52.4996 C9.52898761,52.4996 7.12662761,54.4996 6.72818761,57.3004 L6.72818761,57.3004 L6.22818761,60.6988 L23.0329886,60.6988 L22.5329886,57.3004 C22.1305886,54.6012 19.7321886,52.4996 16.9313886,52.4996 L16.9313886,52.4996 Z M78.2287886,41.3008 C80.5256886,41.3008 82.4279886,43.1016 82.4279886,45.5 L82.4279886,45.5 L82.4279886,54.6016 C82.4279886,56.9024 80.5295886,58.8008 78.2287886,58.8008 L78.2287886,58.8008 L35.1267886,58.8008 C32.8259886,58.8008 30.9275886,56.9024 30.9275886,54.6016 L30.9275886,54.6016 L30.9275886,45.5 C30.9275886,43.1992 32.8259886,41.3008 35.1267886,41.3008 L35.1267886,41.3008 Z M78.2294886,44.3982 L35.1274886,44.3982 C34.6274886,44.3982 34.1274886,44.79664 34.1274886,45.3982 L34.1274886,45.3982 L34.1274886,54.4998 C34.1274886,54.9998 34.5259286,55.4998 35.1274886,55.4998 L35.1274886,55.4998 L78.3264886,55.4998 C78.8264886,55.4998 79.3264886,55.10136 79.3264886,54.4998 L79.3264886,54.4998 L79.2294886,54.4998 L79.2294886,45.3982 C79.2294886,44.8982 78.8310486,44.3982 78.2294886,44.3982 L78.2294886,44.3982 Z M14.6265876,39.3978 C11.8257886,39.3978 9.62658761,41.6009 9.62658761,44.3001 C9.62658761,46.9993 11.9273886,49.19851 14.6265876,49.1946052 C17.3257886,49.1946052 19.5249886,46.9954 19.5249886,44.2962 C19.5249886,41.597 17.3257886,39.3978 14.6265876,39.3978 Z M14.6265886,5 C19.0249886,5 22.6265886,8.6016 22.6265886,13.1016 C22.6265886,15.3008 21.7241886,17.3008 20.3257886,18.8008 C23.0248286,19.8985 25.1264086,22.5 25.3256286,25.6016 L25.3256286,25.6016 L25.8256286,29 C26.0248486,29.7968 25.7279686,30.69918 25.1264086,31.3984 C24.5248086,32.10156 23.7240486,32.5 22.8256086,32.5 L22.8256086,32.5 L6.12660861,32.5 C5.22420861,32.5 4.42736861,32.09762 3.82580861,31.3984 C3.22814861,30.8008 3.02502861,29.89844 3.12658861,29 L3.12658861,29 L3.62658861,25.6016 C4.02498861,22.5 6.12658861,20 8.82578861,18.8008 C7.42342861,17.3008 6.52498861,15.3008 6.52498861,13.1016 C6.52498861,8.6016 10.2281876,5 14.6265886,5 Z M16.9313886,21.1996 L12.3297886,21.1996 C9.52898761,21.1996 7.12662761,23.1996 6.72818761,26.0004 L6.72818761,26.0004 L6.22818761,29.3988 L23.0329886,29.3988 L22.5329886,26.0004 C22.1305886,23.3012 19.7321886,21.1996 16.9313886,21.1996 L16.9313886,21.1996 Z M93.9277886,9.9998 C96.2285886,9.9998 98.1269886,11.8982 98.1269886,14.199 L98.1269886,14.199 L98.1269886,23.3006 C98.1269886,25.6014 96.2285886,27.4998 93.9277886,27.4998 L93.9277886,27.4998 L35.1267886,27.4998 C32.8259886,27.4998 30.9275886,25.6014 30.9275886,23.3006 L30.9275886,23.3006 L30.9275886,14.199 C30.9275886,11.8982 32.8259886,9.9998 35.1267886,9.9998 L35.1267886,9.9998 Z M93.9284886,13.1992 L35.1274886,13.1992 C34.6274886,13.1992 34.1274886,13.59764 34.1274886,14.1992 L34.1274886,14.1992 L34.1274886,23.3008 C34.1274886,23.8008 34.5259286,24.3008 35.1274886,24.3008 L35.1274886,24.3008 L94.0254886,24.3008 C94.5254886,24.3008 95.0254886,23.90236 95.0254886,23.3008 L95.0254886,23.3008 L94.9284886,23.3008 L94.9284886,14.1992 C94.9284886,13.6992 94.5300486,13.1992 93.9284886,13.1992 L93.9284886,13.1992 Z M14.6265876,8.1017 C11.8257886,8.1017 9.62658761,10.3986 9.62658761,13.1017 C9.62658761,15.8009 11.9273886,17.8986 14.6265876,17.8986 C17.3257886,17.8986 19.5249886,15.6994 19.5249886,13.0002 C19.5249886,10.301 17.3257886,8.1018 14.6265876,8.1018 Z"></path>
            </g>
        </g>
    </g>
</svg>