<?xml version="1.0" encoding="UTF-8"?>
<svg width="80px" height="98px" viewBox="0 0 80 98" version="1.1" xmlns="http://www.w3.org/2000/svg" xmlns:xlink="http://www.w3.org/1999/xlink">
    <title>Atoms / Icons / Survey</title>
    <g id="STYLEGUIDE" stroke="none" stroke-width="1" fill="none" fill-rule="evenodd">
        <g id="Styleguide" transform="translate(-1281.000000, -1483.000000)" fill="#363A5B">
            <g id="Combined-Shape" transform="translate(1271.000000, 1483.000000)">
                <path d="M50.0037,0.6565 C55.2264,0.6565 59.71076,4.3753 60.6717,9.512 L60.6717,9.512 L69.91,9.512 C70.44095,9.51125 70.95267,9.72219 71.32767,10.09719 C71.70267,10.47609 71.91361,10.98784 71.9097,11.51909 L71.9097,11.51909 L71.9097,11.85112 L79.3902,11.85112 C82.0425,11.85112 84.5855,12.90192 86.4605,14.77692 C88.3355,16.65192 89.3902,19.19882 89.3902,21.85112 L89.3902,21.85112 L89.3902,87.32812 C89.3902,89.980419 88.3355,92.527319 86.4605,94.402319 C84.5855,96.277319 82.0425,97.328119 79.3902,97.328119 L79.3902,97.328119 L20.6092,97.328119 C17.9569,97.328119 15.4139,96.277319 13.5389,94.402319 C11.6639,92.527319 10.6092,89.980419 10.6092,87.32812 L10.6092,87.32812 L10.6092,21.84012 C10.6092,16.31672 15.0858,11.84012 20.6092,11.84012 L20.6092,11.84012 L28.0897,11.84012 L28.0897,11.512 C28.0897,10.40653 28.9842,9.512 30.0897,9.512 L30.0897,9.512 L39.3397,9.512 C40.3006,4.3753 44.781,0.6565 50.0037,0.6565 Z M79.391,15.8471 L71.8713,15.8508 L71.8713,19.47972 L73.7619,19.47972 C77.0744,19.47972 79.7619,22.16722 79.7619,25.47972 L79.7619,25.47972 L79.7619,81.69872 C79.7619,85.01512 77.0744,87.69872 73.7619,87.69872 L73.7619,87.69872 L26.2389,87.69872 C22.9264,87.69872 20.2389,85.01512 20.2389,81.69872 L20.2389,81.69872 L20.2389,25.48772 C20.2389,22.17522 22.9264,19.48772 26.2389,19.48772 L26.2389,19.48772 L28.0905,19.49163 L28.0905,15.85101 L20.61,15.85101 C17.2975,15.85101 14.61,18.53461 14.61,21.85101 L14.61,21.85101 L14.61,87.328 C14.61,90.644403 17.2975,93.328003 20.61,93.328003 L20.61,93.328003 L79.391,93.328003 C82.7035,93.328003 85.391,90.644403 85.391,87.328 L85.391,87.328 L85.391,21.85101 C85.391,18.53461 82.7035,15.85101 79.391,15.85101 L79.391,15.85101 L79.391,15.8471 Z M29.9098,23.48028 L26.2379,23.48028 C25.13634,23.48028 24.2379,24.37478 24.2379,25.48028 L24.2379,25.48028 L24.2379,81.69928 C24.2379,82.80475 25.1363,83.69928 26.2379,83.69928 L26.2379,83.69928 L73.7499,83.69928 C74.28119,83.69928 74.789,83.48834 75.164,83.11334 C75.539,82.73834 75.74994,82.23049 75.74994,81.69924 L75.74994,81.69924 L75.74994,25.48824 C75.74994,24.96086 75.539,24.44914 75.164,24.07414 C74.789,23.69914 74.28115,23.4882 73.7499,23.4882 L73.7499,23.4882 L70.078,23.4882 C68.7577,24.94916 66.8788,25.78509 64.91,25.789 L64.91,25.789 L35.0895,25.78888 C33.1129,25.78498 31.234,24.94508 29.9098,23.48028 L29.9098,23.48028 Z M40.6916,58.23832 C41.21898,58.23832 41.7307,58.44926 42.1057,58.82426 C42.4807,59.19926 42.69164,59.71102 42.69164,60.23836 L42.69164,60.23836 L42.69164,69.08996 C42.69164,69.62125 42.4807,70.12906 42.1057,70.50406 C41.7307,70.87906 41.21894,71.09 40.6916,71.09 L40.6916,71.09 L31.84004,71.09 C31.30875,71.09 30.80094,70.87902 30.42594,70.50402 C30.05094,70.12902 29.84,69.62117 29.84,69.08992 L29.84,69.08992 L29.84,60.23832 C29.84,59.13676 30.7345,58.23832 31.84,58.23832 L31.84,58.23832 Z M38.6916,62.2384 L33.84,62.2384 L33.84,67.09 L38.6916,67.09 L38.6916,62.2384 Z M71.66,62.672 L71.66,66.672 L47.109,66.672 L47.109,62.672 L71.66,62.672 Z M40.6916,38.23832 C41.21898,38.23832 41.7307,38.44926 42.1057,38.82426 C42.4807,39.19926 42.69164,39.71102 42.69164,40.23836 L42.69164,40.23836 L42.69164,49.08996 C42.69164,49.62125 42.4807,50.12906 42.1057,50.50406 C41.7307,50.87906 41.21894,51.09 40.6916,51.09 L40.6916,51.09 L31.84004,51.09 C31.30875,51.09 30.80094,50.87902 30.42594,50.50402 C30.05094,50.12902 29.84,49.62117 29.84,49.08992 L29.84,49.08992 L29.84,40.23832 C29.84,39.13676 30.7345,38.23832 31.84,38.23832 L31.84,38.23832 Z M38.6916,42.2384 L33.84,42.2384 L33.84,47.09 L38.6916,47.09 L38.6916,42.2384 Z M71.66,42.672 L71.66,46.672 L47.109,46.672 L47.109,42.672 L71.66,42.672 Z M56.75024,10.39796 C56.14474,6.90186 52.97294,4.44486 49.43774,4.73776 C45.90254,5.03066 43.17208,7.97206 43.14864,11.51896 C43.14864,12.05025 42.9377,12.55806 42.5627,12.93306 C42.1877,13.30806 41.67985,13.519 41.1486,13.519 L41.1486,13.519 L32.08973,13.519 L32.08973,18.8003 C32.08973,20.4565 33.43353,21.8003 35.08973,21.8003 L35.08973,21.8003 L64.89873,21.8003 C66.55893,21.8003 67.89873,20.4565 67.89873,18.8003 L67.89873,18.8003 L67.89873,13.5308 L58.84013,13.5308 C58.30884,13.5308 57.80103,13.31986 57.42603,12.94486 C57.05103,12.56986 56.84009,12.0581 56.84009,11.53076 C56.84009,11.15187 56.80884,10.77296 56.75024,10.39796 Z"></path>
            </g>
        </g>
    </g>
</svg>