<?xml version="1.0" encoding="UTF-8"?>
<svg width="70px" height="70px" viewBox="0 0 70 70" version="1.1" xmlns="http://www.w3.org/2000/svg" xmlns:xlink="http://www.w3.org/1999/xlink">
    <title>Atoms / Icons / Task</title>
    <g id="STYLEGUIDE" stroke="none" stroke-width="1" fill="none" fill-rule="evenodd">
        <g id="Styleguide" transform="translate(-746.000000, -958.000000)" fill="#363A5B">
            <g id="Combined-Shape" transform="translate(731.000000, 943.000000)">
                <path d="M71.5384615,15 C78.9633077,15 85,21.0366923 85,28.4615385 L85,28.4615385 L85,71.5384615 C85,78.9633077 78.9633077,85 71.5384615,85 L71.5384615,85 L28.4615385,85 C21.0366923,85 15,78.9633077 15,71.5384615 L15,71.5384615 L15,28.4615385 C15,21.0366923 21.0366923,15 28.4615385,15 L28.4615385,15 Z M71.5384615,20.3846154 L28.4615385,20.3846154 C24.0066308,20.3846154 20.3846154,24.0066308 20.3846154,28.4615385 L20.3846154,28.4615385 L20.3846154,71.5384615 C20.3846154,75.9933692 24.0066308,79.6153846 28.4615385,79.6153846 L28.4615385,79.6153846 L71.5384615,79.6153846 C75.9933692,79.6153846 79.6153846,75.9933692 79.6153846,71.5384615 L79.6153846,71.5384615 L79.6153846,28.4615385 C79.6153846,24.0066308 75.9933692,20.3846154 71.5384615,20.3846154 L71.5384615,20.3846154 Z M64.2480154,37.3241782 C65.3039385,36.2767046 67.0034631,36.2767046 68.0593538,37.3283846 C69.1110338,38.3801077 69.1110338,40.0838431 68.0593538,41.1355231 L68.0593538,41.1355231 L46.5208923,62.6739846 C45.9950308,63.1998246 45.3051538,63.4606446 44.6152769,63.4606446 C43.9254,63.4606446 43.2355015,63.1998246 42.7138615,62.6739846 L42.7138615,62.6739846 L31.9446308,51.9047538 C30.8929508,50.8530308 30.8929077,49.1492954 31.9446308,48.0976154 C32.9963538,47.0459354 34.7000892,47.0459354 35.7517692,48.0976154 L35.7517692,48.0976154 L44.6153846,56.9612308 L64.2476923,37.3246154 Z"></path>
            </g>
        </g>
    </g>
</svg>