<?xml version="1.0" encoding="UTF-8"?>
<svg width="55px" height="82px" viewBox="0 0 55 82" version="1.1" xmlns="http://www.w3.org/2000/svg" xmlns:xlink="http://www.w3.org/1999/xlink">
    <title>Atoms / Icons / Time</title>
    <g id="STYLEGUIDE" stroke="none" stroke-width="1" fill="none" fill-rule="evenodd">
        <g id="Styleguide" transform="translate(-484.000000, -1492.000000)" fill="#363A5B">
            <g id="Shape" transform="translate(461.000000, 1483.000000)">
                <path d="M75.7098,86.443096 L73.41531,86.443096 L73.41531,72.7764293 C73.4110134,68.6849573 72.28957,64.6660827 70.17119,61.1553893 C68.0571,57.6405413 65.02352,54.761904 61.39264,52.8229867 C60.331316,52.27632 59.66531,51.1872507 59.66531,50 C59.6696077,48.8127493 60.335628,47.719416 61.39693,47.1770133 C65.02352,45.238096 68.0571,42.359568 70.17548,38.8446107 C72.28957,35.3340267 73.41102,31.315152 73.41531,27.2235707 L73.41531,13.556904 L75.7098,13.556904 C76.97304,13.556904 78,12.5361789 78,11.27632 C78,10.020736 76.973051,9 75.7098,9 L25.2902,9 C24.02696,9 23,10.0207251 23,11.27632 C23,12.536168 24.026949,13.556904 25.2902,13.556904 L27.58469,13.556904 L27.58469,27.2235707 C27.5889866,31.3150427 28.71043,35.3339173 30.82881,38.8446107 C32.9429,42.3594587 35.97648,45.238096 39.60736,47.1770133 C40.668684,47.72368 41.33469,48.8127493 41.33469,50 C41.3303923,51.1872507 40.664372,52.280584 39.60307,52.8229867 C35.97648,54.761904 32.9429,57.640432 30.82452,61.1553893 C28.71043,64.6659733 27.58898,68.684848 27.58469,72.7764293 L27.58469,86.443096 L25.2902,86.443096 C24.02696,86.443096 23,87.4638211 23,88.72368 C23,89.979264 24.026949,91 25.2902,91 L75.7098,91 C76.97304,91 78,89.9792749 78,88.72368 C78,87.463832 76.973051,86.443096 75.7098,86.443096 Z M32,87 L32,73.3119525 C32.0086718,70.0353624 32.9148136,66.8229419 34.6230605,64.0083508 C36.3313296,61.1980304 38.7765818,58.8966864 41.7030928,57.3440238 C44.2697697,56.000843 45.8739288,53.3659486 45.8739288,50.5 C45.8739288,47.6340514 44.2697697,44.999157 41.7030928,43.6559762 C38.7765818,42.1032041 36.3313296,39.8019696 34.6230605,36.9916492 C32.9147914,34.1813288 32.0086573,30.9646376 32,27.6880475 L32,14 L68.9956636,14 L69,27.6880475 C68.9913282,30.9646376 68.0851864,34.1770581 66.3769395,36.9916492 C64.6686704,39.8019696 62.2234182,42.1033136 59.2969072,43.6559762 C56.7302303,44.999157 55.1260712,47.6340514 55.1260712,50.5 C55.1260712,53.3659486 56.7302303,56.000843 59.2969072,57.3440238 C62.2234182,58.8967959 64.6686704,61.1980304 66.3769395,64.0083508 C68.0852086,66.8186712 68.9913427,70.0353624 69,73.3119525 L69,87 L32,87 Z"></path>
            </g>
        </g>
    </g>
</svg>