<?xml version="1.0" encoding="UTF-8"?>
<svg width="54px" height="65px" viewBox="0 0 54 65" version="1.1" xmlns="http://www.w3.org/2000/svg" xmlns:xlink="http://www.w3.org/1999/xlink">
    <title>Atoms / Icons / Trash</title>
    <g id="STYLEGUIDE" stroke="none" stroke-width="1" fill="none" fill-rule="evenodd">
        <g id="Styleguide" transform="translate(-1294.000000, -961.000000)" fill="#363A5B">
            <g id="Combined-Shape" transform="translate(1271.000000, 943.000000)">
                <path d="M59.9197369,18 C61.0283846,18 61.9295498,18.9206694 61.9295498,20.0533119 L61.9295498,20.0533119 L61.9295498,23.1332799 L74.9874608,23.1332084 C76.0961085,23.1332084 76.9945389,24.0538778 77,25.183735 C77,26.3163776 76.0988349,27.237047 74.9901872,27.237047 L74.9901872,27.237047 L71.975468,27.237047 L71.975468,80.9466881 C71.975468,82.0793306 71.0743029,83 69.9656552,83 L69.9656552,83 L30.0343448,83 C28.9256971,83 28.024532,82.0793306 28.024532,80.9466881 L28.024532,80.9466881 L28.024532,27.2399037 L25.0098128,27.2399037 C23.9011651,27.2399037 23,26.3192344 23,25.1865918 C23,24.0539492 23.9011651,23.1332799 25.0098128,23.1332799 L25.0098128,23.1332799 L38.0683531,23.1332799 L38.0683531,20.0533119 C38.0683531,18.9206694 38.9695182,18 40.0781659,18 L40.0781659,18 Z M67.9540947,27.2374041 L32.04241,27.2374041 L32.04241,78.8908764 L67.9540947,78.8908764 L67.9540947,27.2374041 Z M40,35 C41.1032348,35 42,35.9235753 42,37.0597928 L42,37.0597928 L42,67.9402072 C42,69.0764247 41.1032348,70 40,70 L40,70 C38.8994783,69.9994268 38.0027172,69.0814399 38,67.9452223 L38,67.9452223 L38,37.0597928 C38,35.9235753 38.8967652,35 40,35 Z M60,35 C61.1032348,35 62,35.9235753 62,37.0597928 L62,37.0597928 L62,67.9402072 C62,69.0764247 61.1032348,70 60,70 L60,70 C58.8967652,69.9994268 58,69.0814399 58,67.9452223 L58,67.9452223 L58,37.0597928 C58,35.9235753 58.8967652,35 60,35 Z M50,36 C51.1032348,36 52,36.9196999 52,38.0511497 L52,38.0511497 L52,67.9487076 C52,69.0801575 51.1032348,70 50,70 C48.8967652,70 48,69.0830826 48,67.9544152 L48,67.9544152 L48,38.0511497 C48,36.9196999 48.8967652,36 50,36 Z M57.9106232,22.1066239 L42.0886777,22.1066239 L42.0886777,23.1304945 L57.9106232,23.1304945 L57.9106232,22.1066239 Z"></path>
            </g>
        </g>
    </g>
</svg>