<?xml version="1.0" encoding="UTF-8"?>
<svg width="90px" height="75px" viewBox="0 0 90 75" version="1.1" xmlns="http://www.w3.org/2000/svg" xmlns:xlink="http://www.w3.org/1999/xlink">
    <title>Atoms / Icons / Twitter</title>
    <g id="STYLEGUIDE" stroke="none" stroke-width="1" fill="none" fill-rule="evenodd">
        <g id="Styleguide" transform="translate(-871.000000, -1226.000000)" fill="#363A5B">
            <g id="Shape" transform="translate(866.000000, 1213.000000)">
                <path d="M94.1936482,21.704679 C93.5416762,21.2634685 92.6807005,21.2857927 92.0536894,21.7621595 C91.4187681,22.2429207 90.3883394,22.6563578 89.2169343,22.9954395 C92.4240601,19.2511267 92.4905054,16.7480042 92.4527124,16.158786 C92.4096461,15.4906421 92.0060527,14.8987872 91.4006627,14.6134945 C90.7926359,14.3301354 90.0805468,14.3972838 89.5396684,14.7901545 C85.6912932,17.5864799 81.8599688,18.1955614 79.5568851,18.2635886 C75.9820253,14.863631 71.3472056,13 66.4190073,13 C55.8245059,13 47.2049049,21.7335071 47.2049049,32.4679303 C47.2049049,33.3369919 47.2623853,34.2042958 47.3752367,35.0643926 C29.2887699,34.7565999 14.6091162,17.4439215 14.4575929,17.2618123 C14.0736871,16.8017932 13.490797,16.5514809 12.8880437,16.6089613 C12.2907396,16.6609925 11.7553104,17.001832 11.4557795,17.5210894 C6.35724926,26.3667448 9.4719142,34.1719521 12.5992354,38.8480803 C12.2763255,38.6561274 12.011775,38.4794674 11.8307205,38.3458738 C11.2782406,37.9350734 10.5410147,37.8668704 9.92314423,38.1709716 C9.30421905,38.4759518 8.90871162,39.1001504 8.89711007,39.7897396 C8.75894614,48.2720556 12.7228095,53.2352343 16.5741729,56.0477316 C16.1572202,56.105212 15.7661073,56.3041962 15.4727287,56.6235904 C15.0315182,57.1024181 14.8763035,57.7795268 15.0664986,58.4028465 C17.7373163,67.1453185 24.2143217,70.2420537 28.491427,71.3380488 C19.8394822,77.8662065 7.29978741,75.7353882 7.16074457,75.7091968 C6.32930007,75.5631228 5.49715244,76.0015208 5.15543402,76.7782974 C4.81459451,77.5540193 5.047856,78.4635106 5.722328,78.9773187 C14.9445065,86.0157689 25.9740661,87.5752986 33.9404646,87.5752986 C39.9648338,87.5752986 44.2364898,86.6828581 44.6472902,86.5940886 C84.8338331,77.0704455 86.1077186,40.3525906 86.0251015,34.0953115 C93.5640004,27.0765488 94.7496438,24.382528 94.9343897,23.7124505 C95.1425145,22.9541309 94.8447414,22.1469442 94.1936482,21.704679 Z M82.9208076,31.9629113 C82.5112377,32.3396101 82.295027,32.8831252 82.3326441,33.4391208 C82.3389723,33.5377339 82.954206,43.4901071 78.5192494,54.579608 C72.593845,69.396371 60.9123134,78.9648382 43.836412,83.0114944 C43.6534239,83.0499905 27.857033,86.3216279 13.9901911,79.7263218 C19.918408,79.4777674 28.1280875,77.8080229 33.9047811,71.3229316 C34.3873001,70.7820532 34.5020852,69.9460384 34.2051909,69.2851015 C33.9082967,68.6259225 33.2491176,68.1407667 32.5263059,68.1407667 C32.5227902,68.1407667 32.5190988,68.1407667 32.5138254,68.1407667 C32.0286696,68.1407667 23.6655332,68.0780129 19.6584277,60.0010481 C21.2789535,60.0710089 23.2162368,59.9755598 24.7775243,59.2562636 C25.4968205,58.9243889 25.9218591,58.183999 25.8330897,57.3975545 C25.7443203,56.6109342 25.1614302,55.9774192 24.3864114,55.8141185 C23.937115,55.719021 14.252808,53.5577926 12.7597235,43.0360645 C14.2475346,43.6558686 16.1022007,44.1359268 17.9470231,43.8595989 C18.6555967,43.7537787 19.23585,43.2443651 19.436592,42.5565338 C19.6366309,41.8695813 19.4177834,41.1274336 18.8769051,40.6565161 C18.4580187,40.2926492 9.32724637,32.1710361 13.5083751,21.6769056 C18.4580187,26.8329162 32.573591,39.6712631 49.689922,38.6900531 C50.2360738,38.6585883 50.7402139,38.3841941 51.06453,37.9429836 C51.3884945,37.5017731 51.4988851,36.9394494 51.3651157,36.4087663 C51.0422058,35.1227519 50.8782021,33.7971868 50.8782021,32.4681061 C50.8782021,23.7588567 57.8493281,16.6736488 66.4188315,16.6736488 C70.609804,16.6736488 74.5404447,18.3462057 77.487766,21.3838786 C77.8257931,21.732804 78.2886246,21.9326671 78.7748351,21.9418077 C80.4725288,21.9579796 83.2679753,21.7749915 86.4267613,20.6000707 C85.4847505,21.703097 84.1676228,22.9945606 82.3254371,24.4412389 C81.6887581,24.9416876 81.4546177,25.8009055 81.7495783,26.5551821 C82.0455936,27.3112166 82.8141085,27.7891653 83.6068812,27.7165677 C83.9781308,27.6870365 85.7781291,27.5283062 87.887502,27.100455 C86.6788313,28.3854147 85.0672704,29.9890655 82.9208076,31.9629113 Z"></path>
            </g>
        </g>
    </g>
</svg>