<?xml version="1.0" encoding="UTF-8"?>
<svg width="98px" height="93px" viewBox="0 0 98 93" version="1.1" xmlns="http://www.w3.org/2000/svg" xmlns:xlink="http://www.w3.org/1999/xlink">
    <title>Atoms / Icons / User</title>
    <g id="STYLEGUIDE" stroke="none" stroke-width="1" fill="none" fill-rule="evenodd">
        <g id="Styleguide" transform="translate(-192.000000, -1216.000000)" fill="#363A5B">
            <g id="Shape" transform="translate(191.000000, 1213.000000)">
                <path d="M92.8779952,96 L7.12141676,96 C3.74486909,96 1,93.2550853 1,89.8784923 L1,83.8662193 C1.005742,75.5453558 6.59881556,68.2644164 14.6380538,66.1107708 L31.0614029,61.7292412 C43.4706456,58.4215943 56.5284724,58.4215943 68.9385971,61.7292412 L85.3619462,66.1050375 L85.3619462,66.1107796 C93.4013314,68.2641313 98.9942668,75.5456586 99,83.8662281 L99,89.8785011 C99,93.2550941 96.2551309,96 92.8785832,96 L92.8779952,96 Z M49.999706,65.3755912 C44.1367232,65.3755912 38.3025534,66.1393342 32.6399378,67.6496351 L16.2165887,72.0254315 C10.8590076,73.4610384 7.12641492,78.319075 7.12068174,83.8663663 L7.12068174,89.8786393 L92.8772602,89.8786393 L92.8772602,83.8663663 C92.8715167,78.319222 89.1389343,73.4610972 83.7813532,72.0254315 L67.3580041,67.6496351 C61.6959766,66.1394371 55.8618067,65.3755912 49.9982359,65.3755912 L49.999706,65.3755912 Z M49.999706,51.9997751 C43.4993115,51.9997751 37.2688173,49.4156943 32.6752189,44.8217403 C28.0816205,40.2277863 25.4972804,33.9972086 25.4972804,27.4970209 C25.4972804,21.0022725 28.0813265,14.7659615 32.6752189,10.1723015 C37.2691113,5.57864152 43.4996055,3 49.999706,3 C56.4998065,3 62.7305946,5.5783475 67.324193,10.1723015 C71.9177915,14.7662555 74.5021316,21.0025665 74.5021316,27.4970209 C74.4906461,33.9975026 71.9066191,40.2222 67.3184599,44.81586 C62.7245675,49.4098141 56.4940733,51.9938948 49.999853,51.9997751 L49.999706,51.9997751 Z M49.999706,9.12091083 C42.5690666,9.12091083 35.8677169,13.6000527 33.0250898,20.4680508 C30.1768765,27.3360488 31.750281,35.2377967 37.0045031,40.49181 C42.25874,45.7461174 50.1659681,47.3195282 57.0338741,44.47701 C63.8960468,41.6287585 68.3749816,34.9330521 68.3749816,27.4962859 C68.3634976,17.3551875 60.1461075,9.13223033 49.999412,9.12046981 L49.999706,9.12091083 Z"></path>
            </g>
        </g>
    </g>
</svg>