<?xml version="1.0" encoding="UTF-8"?>
<svg width="90px" height="90px" viewBox="0 0 90 90" version="1.1" xmlns="http://www.w3.org/2000/svg" xmlns:xlink="http://www.w3.org/1999/xlink">
    <title>Atoms / Icons / Videoconference</title>
    <g id="STYLEGUIDE" stroke="none" stroke-width="1" fill="none" fill-rule="evenodd">
        <g id="Styleguide" transform="translate(-1141.000000, -1488.000000)" fill="#363A5B">
            <g id="Shape" transform="translate(1136.000000, 1483.000000)">
                <path d="M89,5 L11,5 C7.6992,5 5,7.6992 5,11 L5,49 C5,52.3008 7.6992,55 11,55 L89,55 C92.3008,55 95,52.3008 95,49 L95,11 C95,7.6992 92.3008,5 89,5 Z M38,51 L38,49 C38,42.3984 43.3984,37 50,37 C56.6016,37 62,42.3984 62,49 L62,51 L38,51 Z M91,49 C91,50.1016 90.10156,51 89,51 L66,51 L66,49 C66,40.1992 58.8008,33 50,33 C41.1992,33 34,40.1992 34,49 L34,51 L11,51 C9.8984,51 9,50.10156 9,49 L9,11 C9,9.8984 9.89844,9 11,9 L89,9 C90.1016,9 91,9.89844 91,11 L91,49 Z M59,24 C59,19 55,15 50,15 C45,15 41,19 41,24 C41,29 45,33 50,33 C55,33 59,29 59,24 Z M50,29 C47.1992,29 45,26.8008 45,24 C45,21.1992 47.1992,19 50,19 C52.8008,19 55,21.1992 55,24 C55,26.8008 52.8008,29 50,29 Z M58,69 C58,64.6016 54.3984,61 50,61 C45.6016,61 42,64.6016 42,69 C42,73.3984 45.6016,77 50,77 C54.3984,77 58,73.3984 58,69 Z M50,73 C47.8008,73 46,71.1992 46,69 C46,66.8008 47.8008,65 50,65 C52.1992,65 54,66.8008 54,69 C54,71.1992 52.1992,73 50,73 Z M50,77 C43.3984,77 38,82.3984 38,89 L38,93 C38,94.1016 38.89844,95 40,95 L60,95 C61.1016,95 62,94.10156 62,93 L62,89 C62,82.3984 56.6016,77 50,77 Z M58,91 L42,91 L42,89 C42,84.6016 45.6016,81 50,81 C54.3984,81 58,84.6016 58,89 L58,91 Z M88,69 C88,64.6016 84.3984,61 80,61 C75.6016,61 72,64.6016 72,69 C72,73.3984 75.6016,77 80,77 C84.3984,77 88,73.3984 88,69 Z M80,73 C77.8008,73 76,71.1992 76,69 C76,66.8008 77.8008,65 80,65 C82.1992,65 84,66.8008 84,69 C84,71.1992 82.1992,73 80,73 Z M80,77 C73.3984,77 68,82.3984 68,89 L68,93 C68,94.1016 68.89844,95 70,95 L90,95 C91.1016,95 92,94.10156 92,93 L92,89 C92,82.3984 86.6016,77 80,77 Z M88,91 L72,91 L72,89 C72,84.6016 75.6016,81 80,81 C84.3984,81 88,84.6016 88,89 L88,91 Z M28,69 C28,64.6016 24.3984,61 20,61 C15.6016,61 12,64.6016 12,69 C12,73.3984 15.6016,77 20,77 C24.3984,77 28,73.3984 28,69 Z M20,73 C17.8008,73 16,71.1992 16,69 C16,66.8008 17.8008,65 20,65 C22.1992,65 24,66.8008 24,69 C24,71.1992 22.1992,73 20,73 Z M20,77 C13.3984,77 8,82.3984 8,89 L8,93 C8,94.1016 8.89844,95 10,95 L30,95 C31.1016,95 32,94.10156 32,93 L32,89 C32,82.3984 26.6016,77 20,77 Z M28,91 L12,91 L12,89 C12,84.6016 15.6016,81 20,81 C24.3984,81 28,84.6016 28,89 L28,91 Z"></path>
            </g>
        </g>
    </g>
</svg>