<?xml version="1.0" encoding="UTF-8"?>
<svg width="73px" height="67px" viewBox="0 0 73 67" version="1.1" xmlns="http://www.w3.org/2000/svg" xmlns:xlink="http://www.w3.org/1999/xlink">
    <title>Atoms / Icons / Warning</title>
    <g id="STYLEGUIDE" stroke="none" stroke-width="1" fill="none" fill-rule="evenodd">
        <g id="Styleguide" transform="translate(-474.000000, -1088.000000)" fill="#363A5B">
            <g id="Combined-Shape" transform="translate(461.000000, 1078.000000)">
                <path d="M49.4797296,10 C51.6993214,10 53.7459558,11.1998715 54.8259351,13.1361489 L54.8259351,13.1361489 L85.0243583,65.9283681 C86.3370381,68.221064 86.3251084,71.0365274 84.9885571,73.3173629 C83.6579629,75.5982289 81.2116921,77 78.5624181,77 L78.5624181,77 L20.5165854,77 C17.8315682,77 15.3494167,75.5738696 14.0068929,73.257453 C12.664369,70.9408844 12.664369,68.08984 14.0068929,65.7793536 L14.0068929,65.7793536 L44.1335242,13.1361489 C45.2075005,11.1998107 47.2541807,10 49.4797296,10 Z M49.5407864,16.1778711 L19.2827911,68.8210758 L19.3135761,68.7912881 C19.0391034,69.2248902 19.033131,69.7772781 19.2956755,70.2168103 C19.5403178,70.6622879 20.0116851,70.9295745 20.5188567,70.9176959 L20.5188567,70.9176959 L78.5633728,70.9176959 C79.0705444,70.9592679 79.5538567,70.7098053 79.8104287,70.2762033 C80.0729656,69.8426012 80.0610359,69.3020888 79.7865617,68.8803776 L79.7865617,68.8803776 L49.5407864,16.1778711 Z M53,61 C53,65 47,65 47,61 C47,57 53,57 53,61 Z M50,34 C51.658205,34 53,35.4162869 53,37.1666561 L53,37.1666561 L53,49.8332806 C53,50.6744869 52.68359,51.4785167 52.12109,52.0722648 C51.55859,52.6660128 50.796815,53 49.99994,53 C49.203125,53 48.44141,52.6660128 47.87891,52.0722648 C47.31641,51.4785167 47,50.6744236 47,49.8332806 L47,49.8332806 L47,37.1666561 C47,35.4163344 48.341795,34 50,34 Z"></path>
            </g>
        </g>
    </g>
</svg>