<?xml version="1.0" encoding="UTF-8"?>
<svg width="98px" height="96px" viewBox="0 0 98 96" version="1.1" xmlns="http://www.w3.org/2000/svg" xmlns:xlink="http://www.w3.org/1999/xlink">
    <title>Atoms / Icons / Workplace</title>
    <g id="STYLEGUIDE" stroke="none" stroke-width="1" fill="none" fill-rule="evenodd">
        <g id="Styleguide" transform="translate(-57.000000, -1483.000000)" fill="#363A5B">
            <g id="Combined-Shape" transform="translate(56.000000, 1483.000000)">
                <path d="M96.51622,60.727 C97.27408,60.727 98.03189,61.33244 98.17642,62.2426 L98.17642,62.2426 L98.17642,69.059 C98.17642,69.96913 97.57098,70.5746 96.66082,70.5746 L96.66082,70.5746 L88.32882,70.5746 L96.81322,93.7586 C97.11396,94.5165 96.66087,95.42271 95.90306,95.7274 C95.14516,96.02814 94.23895,95.57505 93.93426,94.81724 L93.93426,94.81724 L84.99676,70.57524 L14.54376,70.57524 L5.60626,94.81724 C5.30546,95.57506 4.39527,96.03209 3.63746,95.7274 C2.87964,95.4266 2.42261,94.51641 2.7273,93.7586 L2.7273,93.7586 L11.364,70.5746 L3.032,70.5746 C2.12187,70.5746 1.5164,69.96916 1.5164,69.059 L1.5164,69.059 L1.5164,62.2426 C1.5164,61.33247 2.12184,60.727 3.032,60.727 L3.032,60.727 Z M95.0004,63.6059 L4.5474,63.6059 L4.5474,67.395 L95.0004,67.395 L95.0004,63.6059 Z M58.6378,5.8795 C61.5167,5.8795 63.7901,8.1529 63.7901,11.0318 L63.7901,11.0318 L63.7901,44.0588 C63.7901,46.9377 61.5167,49.2111 58.6378,49.2111 L58.6378,49.2111 L40.9108,49.2111 L42.4264,55.5744 L48.942,55.5744 C49.85213,55.5744 50.4576,56.17987 50.4576,57.09 C50.4576,58.00013 49.85216,58.6056 48.942,58.6056 L48.942,58.6056 L16.516,58.6056 C15.60587,58.6056 15.0004,58.00013 15.0004,57.09 C15.0004,56.17987 15.60584,55.5744 16.516,55.5744 L16.516,55.5744 L23.0316,55.5744 L24.3949,49.2111 L6.6679,49.2111 C3.789,49.2111 1.5156,46.9377 1.5156,44.0588 L1.5156,44.0588 L1.5165,11.0318 C1.5165,8.1529 3.7899,5.8795 6.6688,5.8795 L6.6688,5.8795 Z M84.69543,1.02643 C86.96893,-0.33687 90.00013,0.26863 91.36343,2.54203 C92.72673,4.81553 92.12123,7.84673 89.84783,9.21003 L89.84783,9.21003 L89.39471,9.51472 L95.15251,26.93672 C96.96891,27.54212 98.48451,29.21012 98.48451,31.33122 C98.48451,33.45232 97.12121,35.2726 95.00011,35.72572 L95.00011,35.72572 L84.39511,55.57372 L89.54741,55.57372 C90.45754,55.57372 91.06301,56.17919 91.06301,57.08932 C91.06301,57.99945 90.45757,58.60492 89.54741,58.60492 L89.54741,58.60492 L73.03141,58.60492 C72.12128,58.60492 71.51581,57.99945 71.51581,57.08932 C71.51581,56.17919 72.12125,55.57372 73.03141,55.57372 L73.03141,55.57372 L80.91031,55.57372 L91.67231,35.27272 C90.30907,34.51882 89.39891,33.00322 89.39891,31.33522 C89.39891,29.51882 90.45751,28.00323 91.97311,27.24542 L91.97311,27.24542 L86.66841,11.18342 L85.9106,11.63654 L78.7934,21.63654 C78.184,22.39436 76.97307,22.39436 76.3676,21.4842 L76.3676,21.4842 L74.6996,18.91 C72.2738,20.1209 69.5473,19.3631 68.184,17.242 L68.184,17.242 C66.66783,14.96783 67.27333,12.24123 69.54283,10.72563 L69.54283,10.72563 L67.87483,8.15143 C67.42173,7.24133 67.87483,6.03037 68.93733,5.87803 L68.93733,5.87803 L80.90633,3.45223 Z M37.8799,49.3631 L27.5749,49.3631 L26.2116,55.574 L39.2426,55.574 L37.8799,49.3631 Z M60.7585,38.6092 L4.5475,38.6092 L4.5475,44.0623 C4.5475,45.27324 5.4577,46.1834 6.6686,46.1834 L6.6686,46.1834 L58.6374,46.1834 C59.84834,46.1834 60.7585,45.2732 60.7585,44.0623 L60.7585,44.0623 L60.7585,38.6092 Z M25.152,41.332 C25.7575,40.72653 26.81607,40.72653 27.2731,41.332 C27.87857,41.9375 27.87857,42.84763 27.2731,43.4531 C26.6676,44.05857 25.75747,44.05857 25.152,43.4531 C24.54653,42.8476 24.54653,41.93747 25.152,41.332 Z M31.668,41.332 C32.1211,40.72653 33.18363,40.72653 33.7891,41.332 C34.39457,41.9375 34.39457,42.84763 33.7891,43.4531 C33.1836,44.05857 32.27347,44.0586 31.668,43.4531 C31.06253,42.8476 31.06253,41.93747 31.668,41.332 Z M38.031,41.332 C38.4841,40.72653 39.54663,40.72653 40.1521,41.332 C40.75757,41.9375 40.75757,42.84763 40.1521,43.4531 C39.5466,44.05857 38.63647,44.0586 38.031,43.4531 C37.42553,42.8476 37.42553,41.93747 38.031,41.332 Z M58.6376,8.9104 L6.6688,8.9104 C5.45395,8.9104 4.5477,9.816794 4.5477,11.031594 L4.5477,11.031594 L4.5477,35.574594 L60.7587,35.5785 L60.7587,11.0315 C60.7587,9.82056 59.8485,8.9104 58.6376,8.9104 L58.6376,8.9104 Z M93.93834,29.6674 C93.02821,29.6674 92.42274,30.27284 92.42274,31.183 C92.42274,31.78849 92.87978,32.24161 93.3329,32.5463 C94.2431,32.9994 95.454,32.2455 95.454,31.183 C95.45394,30.42521 94.8485,29.81584 93.93834,29.6674 Z M80.6063,6.4839 L71.5165,8.3003 L77.579,17.8472 L83.0321,10.4214 L80.6063,6.4839 Z M71.06329,13.1479 C70.45391,13.7573 70.30548,14.81589 70.7586,15.5737 C71.21179,16.33144 72.12193,16.63613 73.03209,16.1791 L73.03209,16.1791 Z M88.786,4.21047 C88.1806,3.30031 87.12196,2.99953 86.2118,3.605 L86.2118,3.605 L83.48513,5.56987 L85.45393,8.60107 L88.18053,6.78467 C89.09069,6.17927 89.39147,5.12063 88.786,4.21047 Z"></path>
            </g>
        </g>
    </g>
</svg>