<?xml version="1.0" encoding="UTF-8" standalone="no"?>
<!-- Created with Inkscape (http://www.inkscape.org/) -->

<svg
   xmlns:dc="http://purl.org/dc/elements/1.1/"
   xmlns:cc="http://creativecommons.org/ns#"
   xmlns:rdf="http://www.w3.org/1999/02/22-rdf-syntax-ns#"
   xmlns:svg="http://www.w3.org/2000/svg"
   xmlns="http://www.w3.org/2000/svg"
   xmlns:sodipodi="http://sodipodi.sourceforge.net/DTD/sodipodi-0.dtd"
   xmlns:inkscape="http://www.inkscape.org/namespaces/inkscape"
   width="95.25mm"
   height="142.875mm"
   viewBox="0 0 95.25 142.875"
   version="1.1"
   id="svg8"
   inkscape:version="0.92.4 (5da689c313, 2019-01-14)"
   sodipodi:docname="gars.svg">
  <defs
     id="defs2" />
  <sodipodi:namedview
     id="base"
     pagecolor="#ffffff"
     bordercolor="#666666"
     borderopacity="1.0"
     inkscape:pageopacity="0.0"
     inkscape:pageshadow="2"
     inkscape:zoom="1.4"
     inkscape:cx="140.79896"
     inkscape:cy="179.24484"
     inkscape:document-units="mm"
     inkscape:current-layer="layer1"
     showgrid="false"
     inkscape:window-width="1920"
     inkscape:window-height="1017"
     inkscape:window-x="-8"
     inkscape:window-y="-8"
     inkscape:window-maximized="1" />
  <metadata
     id="metadata5">
    <rdf:RDF>
      <cc:Work
         rdf:about="">
        <dc:format>image/svg+xml</dc:format>
        <dc:type
           rdf:resource="http://purl.org/dc/dcmitype/StillImage" />
        <dc:title />
      </cc:Work>
    </rdf:RDF>
  </metadata>
  <g
     inkscape:label="Calque 1"
     inkscape:groupmode="layer"
     id="layer1"
     transform="translate(-51.404762,-71.348206)">
    <g
       id="g826">
      <path
         style="fill:#c4ced5;stroke-width:0.26458332"
         d="m 117.58286,214.02483 -10.41878,-0.0724 0.17419,-2.44429 c 0.0958,-1.34437 0.29132,-3.81352 0.43449,-5.48701 0.14317,-1.67349 0.55718,-6.73364 0.92001,-11.24479 0.75194,-9.34887 1.25358,-15.49504 1.86546,-22.85584 0.48064,-5.78192 0.53518,-5.57599 -1.47865,-5.58282 -0.65723,-0.002 -3.87192,-0.24395 -7.14375,-0.53717 -9.953893,-0.89205 -10.049818,-0.89743 -10.049818,-0.56322 0,0.16776 2.451444,6.14325 5.447652,13.27887 4.428166,10.54589 5.387646,13.04617 5.126976,13.36025 -0.17637,0.21251 -0.48469,0.38639 -0.68515,0.38639 -0.20046,0 -0.36448,0.21964 -0.36448,0.48809 0,0.78431 1.00038,3.59363 1.31728,3.69927 1.10533,0.36844 3.18064,3.2346 3.18064,4.3927 0,0.42394 -0.95702,1.00211 -16.16032,9.76297 -1.684893,0.97092 -3.265419,1.7653 -3.512278,1.7653 -0.492064,0 -1.037185,-1.12097 -0.803037,-1.65135 0.08086,-0.18316 0.831332,-0.88575 1.667712,-1.56131 1.050678,-0.84864 2.597589,-2.71427 5.004929,-6.03611 1.916335,-2.6443 3.484243,-4.99612 3.484243,-5.22626 0,-0.23014 -0.327422,-0.94139 -0.727605,-1.58055 -0.56943,-0.90948 -0.842639,-1.12897 -1.25677,-1.00963 -2.180244,0.62824 -2.106436,0.66967 -3.401926,-1.9098 -0.654515,-1.30322 -2.609238,-4.97862 -4.343831,-8.16755 -1.734592,-3.18893 -3.915955,-7.22681 -4.847476,-8.97306 -1.204772,-2.2585 -1.717495,-3.00827 -1.776198,-2.5974 -0.076,0.53195 0.721706,14.48821 1.251818,21.90113 0.247343,3.45875 0.195871,3.84731 -0.50963,3.84731 -0.42254,0 -0.494525,0.38776 -0.665869,3.5869 -0.105661,1.9728 -0.101359,4.14569 0.0096,4.82865 0.110922,0.68296 0.21494,2.19424 0.231154,3.35841 l 0.02948,2.11666 -11.575521,0.0689 -11.575521,0.0689 v -0.76413 c 0,-1.01859 0.366643,-1.25902 2.248959,-1.47475 1.174355,-0.1346 3.055203,-0.83297 7.227113,-2.68346 3.101787,-1.37583 5.751769,-2.43219 5.888848,-2.34747 0.137079,0.0847 0.315046,-0.0175 0.395483,-0.22708 0.16406,-0.42753 -0.857073,-6.02408 -1.151615,-6.31168 -0.10394,-0.1015 -0.665238,-0.22227 -1.247321,-0.26837 l -1.058334,-0.0838 -0.991711,-5.95313 c -5.140069,-30.85523 -5.501266,-37.00457 -2.367541,-40.30704 1.181133,-1.24474 2.386524,-1.68088 7.078121,-2.56105 6.055041,-1.13597 6.473683,-1.30766 8.901767,-3.65073 1.768054,-1.70614 2.018456,-2.0602 1.894689,-2.67904 -0.128402,-0.64201 0.169561,-0.98605 2.989781,-3.45217 11.500408,-10.05643 20.559057,-21.38668 26.374667,-32.98855 0.66915,-1.33491 1.45219,-2.59211 1.74009,-2.79376 0.42001,-0.29419 0.53914,-0.72953 0.60284,-2.20309 0.0766,-1.77254 0.10409,-1.8393 0.78945,-1.91847 0.7563,-0.0874 0.81352,-0.22464 1.16808,-2.802539 0.20505,-1.49087 0.33686,-1.475623 -2.49998,-0.289196 -4.04405,1.691302 -5.60335,0.609405 -6.40366,-4.443051 -0.31338,-1.97842 -0.22119,-6.476064 0.15925,-7.769193 0.13151,-0.446981 0.008,-0.646014 -0.57686,-0.926102 -1.46836,-0.703768 -1.4713,-4.323791 -0.005,-6.517359 2.13863,-3.199996 10.47818,-5.128309 14.12741,-3.266611 1.19237,0.608306 2.19097,1.683062 2.69549,2.901087 0.18683,0.451057 0.54251,0.884475 0.7904,0.963152 0.80606,0.255834 2.17407,1.903099 2.39538,2.884353 0.30067,1.333131 -0.0419,2.596904 -1.60051,5.904338 -0.74122,1.572898 -1.70848,3.87162 -2.14947,5.108269 -0.77455,2.17204 -0.79081,2.309969 -0.47833,4.058507 0.28629,1.601956 0.4062,1.838891 1.04302,2.060884 0.78145,0.272418 4.84138,4.646911 7.45843,8.036321 3.72105,4.81921 7.94814,12.06264 10.4197,17.85491 l 0.95773,2.2445 -0.19043,43.72686 -0.19043,43.72686 -7.43271,-0.063 c -4.08798,-0.0346 -12.12115,-0.0956 -17.85148,-0.13539 z m 16.64624,-52.88682 c 0.12557,-0.12559 0.26405,-1.16843 0.30772,-2.31742 0.10037,-2.64065 -0.27616,-2.85636 -1.34924,-0.77298 -0.43602,0.84652 -1.03031,1.8889 -1.32064,2.31638 -0.29034,0.42749 -0.45962,0.88771 -0.37618,1.02271 0.17775,0.2876 2.40431,0.0854 2.73834,-0.24869 z m -72.174859,52.62243 c 3.310599,-0.042 8.727943,-0.042 12.038542,0 3.310599,0.042 0.601927,0.0763 -6.019271,0.0763 -6.621198,0 -9.32987,-0.0343 -6.019271,-0.0763 z"
         id="path840"
         inkscape:connector-curvature="0" />
      <path
         style="fill:#adb5bd;stroke-width:0.26458332"
         d="m 128.13393,213.47152 c 0,-0.2679 0.11837,-1.42876 0.26305,-2.57968 0.14468,-1.15093 0.55815,-4.71197 0.91883,-7.91343 0.84503,-7.50063 2.55276,-22.4105 3.74262,-32.67604 0.57842,-4.99035 1.06661,-8.22124 1.27932,-8.46666 0.50779,-0.58589 0.72061,-4.92473 0.2603,-5.30675 -0.47951,-0.39795 -0.81595,-0.14401 -1.44635,1.09166 -1.08824,2.13312 -2.93406,4.73123 -4.02442,5.66461 -1.39643,1.19538 -3.76221,2.36468 -6.02043,2.97562 -2.08399,0.5638 -9.84796,0.65988 -12.17084,0.15061 -1.26788,-0.27797 -10.78315,-1.14865 -17.440016,-1.59582 -1.844339,-0.12389 -2.201106,-0.0859 -2.07866,0.22119 0.348727,0.87465 9.243196,22.00676 10.123016,24.05096 l 0.96794,2.24896 -0.78823,0.60994 -0.78822,0.60995 0.62185,2.01548 0.62184,2.01548 -0.98716,0.98717 c -1.11613,1.11613 -2.958025,1.76085 -3.990112,1.39667 -0.395415,-0.13952 -1.062937,-0.93685 -1.740072,-2.07844 -1.006478,-1.69684 -1.163423,-1.84428 -1.872348,-1.75894 -2.177849,0.26217 -1.866566,0.57136 -4.622204,-4.59106 -6.829044,-12.79353 -9.241534,-17.24231 -9.613075,-17.72709 -0.381124,-0.49727 -0.406268,-0.44944 -0.417245,0.79375 -0.01892,2.14131 1.178991,22.1229 1.455629,24.28058 0.110678,0.86326 0.04399,1.02912 -0.496343,1.23456 -0.574214,0.21831 -0.638087,0.43303 -0.797684,2.68143 -0.09542,1.34425 -0.17531,3.05089 -0.177538,3.79252 -0.0048,1.58638 -0.154443,1.88204 -1.143038,2.2579 -1.843963,0.70108 -4.81647,0.0576 -5.037417,-1.09049 -0.06486,-0.33701 -0.376563,-2.10103 -0.692678,-3.92004 -0.316116,-1.81901 -0.654242,-3.38863 -0.75139,-3.48804 -0.09715,-0.0994 -0.652885,-0.21848 -1.234968,-0.26459 l -1.058333,-0.0838 -1.375001,-8.20208 c -3.566566,-21.2751 -4.575232,-30.46065 -3.761527,-34.25482 0.402344,-1.87607 1.695657,-3.68965 3.152153,-4.4202 1.030025,-0.51665 5.39129,-1.49927 9.260416,-2.08645 1.852401,-0.28111 3.67547,-1.33316 5.623163,-3.24498 1.615634,-1.58587 1.772034,-1.83201 1.633464,-2.57066 -0.144547,-0.7705 0.0093,-0.95822 2.711209,-3.30759 11.545848,-10.03946 20.831319,-21.66416 26.778939,-33.52519 0.602,-1.20055 1.21228,-2.18282 1.35618,-2.18282 0.36926,0 0.32552,1.59628 -0.14279,5.21197 -1.22826,9.4829 -4.59231,21.74123 -9.13438,33.28491 -0.68709,1.74625 -1.19617,3.26429 -1.13128,3.37344 0.19971,0.33591 10.08393,0.24011 10.29399,-0.0998 0.38566,-0.62402 2.69124,-25.57719 3.29717,-35.68512 0.2823,-4.7094 0.3905,-5.41321 1.24062,-8.06979 0.51224,-1.60073 0.94627,-3.02899 0.96451,-3.17391 0.0196,-0.156075 -0.54493,-0.226179 -1.38495,-0.171968 l -1.41811,0.09152 0.18568,-1.599849 c 0.10212,-0.879917 0.11211,-1.718897 0.0222,-1.864401 -0.0991,-0.160289 -0.86465,0.05371 -1.94257,0.543001 -1.08573,0.492836 -2.40737,0.861036 -3.39127,0.94479 -1.55792,0.132617 -1.63136,0.110331 -2.18124,-0.661898 -1.24407,-1.747143 -1.83541,-6.823555 -1.29016,-11.075666 0.20444,-1.594374 0.19624,-1.625514 -0.47238,-1.793327 -0.83814,-0.210362 -1.19088,-1.069159 -1.19088,-2.899399 0,-4.109397 3.82614,-6.847969 10.10394,-7.231931 3.99127,-0.244114 6.08446,0.643961 7.29773,3.096203 0.29125,0.588659 0.91915,1.335481 1.39534,1.659604 1.43904,0.979507 1.97278,1.913712 1.97278,3.452988 0,1.140743 -0.29382,1.988755 -1.758,5.073827 -0.9669,2.037292 -1.91163,4.239948 -2.09939,4.894792 -0.18777,0.654843 -0.48037,1.400314 -0.65023,1.656601 -0.2384,0.35969 -0.21871,0.918913 0.0863,2.451747 0.33627,1.68998 0.4859,2.008551 1.00446,2.138702 1.47422,0.370007 7.39654,7.299974 11.2805,13.199824 2.28042,3.46401 6.84685,12.3274 7.48882,14.53569 0.34764,1.19585 0.38298,3.64877 0.26164,18.16198 -0.46761,55.92823 -0.51848,69.04074 -0.26826,69.14606 0.14552,0.0613 -3.09893,0.12077 -7.20989,0.13225 -7.09047,0.0198 -7.47448,-0.004 -7.47448,-0.46621 z"
         id="path838"
         inkscape:connector-curvature="0" />
      <path
         style="fill:#d2a183;stroke-width:0.26458332"
         d="m 74.340451,207.86882 c -1.211883,-0.36377 -1.445268,-0.7209 -1.778967,-2.72219 -0.174578,-1.047 -0.475851,-2.6689 -0.669497,-3.60423 -0.193645,-0.93533 -0.283329,-1.81185 -0.199298,-1.94781 0.236999,-0.38348 -0.47606,-0.7087 -1.563615,-0.71317 -0.809904,-0.003 -1.008837,-0.11094 -1.107947,-0.59936 -0.206077,-1.01556 -3.03295,-18.43846 -3.445033,-21.23281 -1.384242,-9.3866 -1.826181,-14.06003 -1.688857,-17.85938 0.09511,-2.63156 0.202757,-3.22146 0.796611,-4.36562 0.829194,-1.59758 1.327075,-2.07256 2.870164,-2.73812 1.383189,-0.59659 7.362388,-1.75851 7.619517,-1.48068 0.09681,0.10461 0.04195,0.23844 -0.121921,0.29739 -0.16387,0.059 -1.11637,0.66875 -2.116666,1.3551 -1.824144,1.25163 -2.447818,2.25998 -1.599226,2.58562 0.213895,0.0821 1.482946,-0.0518 2.820113,-0.29756 3.292458,-0.60507 3.797516,-0.39699 3.550794,1.46289 -0.146551,1.10477 -0.10102,1.34823 0.279437,1.49422 0.606354,0.23268 1.790775,-0.97888 3.91214,-4.00178 1.399503,-1.99426 1.95757,-2.55197 3.433958,-3.43177 0.969587,-0.57779 1.713693,-1.09971 1.653575,-1.15983 -0.06012,-0.0601 -0.916919,0.37053 -1.903995,0.957 -1.510604,0.89752 -2.033169,1.41615 -3.301325,3.2765 -2.980875,4.37283 -3.785026,4.92884 -3.785026,2.61706 0,-1.335 -0.05513,-1.46488 -0.722877,-1.70306 -0.519816,-0.18542 -1.434077,-0.1239 -3.254677,0.219 -1.39249,0.26227 -2.610797,0.39786 -2.707348,0.30131 -0.543514,-0.54352 2.239024,-2.63159 6.440646,-4.8332 1.973189,-1.03393 3.075872,-1.83111 4.43818,-3.20858 1.574625,-1.59215 1.77551,-1.90229 1.529683,-2.36162 -0.252593,-0.47197 0.141557,-0.90441 3.668945,-4.02538 10.879095,-9.62563 19.744671,-20.73396 25.427191,-31.85957 0.63997,-1.253 1.26497,-2.27871 1.38888,-2.27937 0.55267,-0.003 -0.85801,9.37197 -2.33257,15.50148 -1.71523,7.12993 -4.55023,15.94713 -7.38859,22.97947 -0.52535,1.30158 -0.95517,2.52197 -0.95517,2.71198 0,0.27323 1.15915,0.34546 5.54426,0.34546 h 5.54426 l 0.14689,-0.8599 c 0.13733,-0.80398 0.37965,-3.17399 1.33234,-13.03073 1.05334,-10.89806 1.97954,-22.78983 1.98233,-25.45183 0.002,-1.54132 0.20313,-2.47354 1.05807,-4.8948 0.58083,-1.64498 1.05708,-3.15139 1.05833,-3.347578 0.002,-0.280881 -0.34143,-0.316817 -1.61462,-0.169047 l -1.61689,0.187661 0.18602,-1.602772 c 0.10231,-0.881525 0.11245,-1.721821 0.0225,-1.867325 -0.0991,-0.160289 -0.86466,0.05371 -1.94257,0.543001 -1.08574,0.492836 -2.40737,0.861036 -3.39127,0.94479 -1.55792,0.132617 -1.63137,0.110331 -2.18124,-0.661898 -1.2599,-1.769363 -1.82843,-6.766366 -1.27873,-11.239055 0.20821,-1.694057 0.19167,-1.785938 -0.32142,-1.785938 -0.76769,0 -1.0887,-0.778104 -1.0887,-2.638979 0,-3.506565 2.23043,-5.652537 7.03687,-6.770423 2.06041,-0.479213 5.35114,-0.549744 6.68249,-0.143225 1.36386,0.416442 2.69562,1.572301 3.24653,2.81772 0.31108,0.703262 0.84605,1.332562 1.42137,1.672007 0.50739,0.299369 1.16836,0.935913 1.46882,1.414541 0.84996,1.353961 0.58562,2.766817 -1.25611,6.713763 -0.87691,1.879288 -1.80499,4.071732 -2.0624,4.872096 -0.2574,0.800365 -0.57295,1.588449 -0.70123,1.751298 -0.13792,0.175105 -0.0668,1.094046 0.17412,2.248958 0.56772,2.721804 0.63207,2.878911 1.17915,2.878911 0.26686,0 1.35029,0.922734 2.40761,2.050524 5.94432,6.34047 11.19191,14.34695 14.91987,22.76386 l 1.20546,2.72167 -0.068,17.38666 -0.068,17.38666 h -3.70417 -3.70416 v -2.38125 c 0,-2.57719 -0.14614,-3.04271 -0.95516,-3.04271 -0.35955,0 -0.65773,0.31533 -0.93823,0.99219 -0.65548,1.58169 -2.62416,4.39282 -3.89986,5.56872 -1.50183,1.38433 -3.91278,2.59829 -6.44808,3.2467 -2.28544,0.58452 -8.733,0.70996 -12.73181,0.2477 -1.25342,-0.1449 -4.54113,-0.44318 -7.30603,-0.66285 -2.7649,-0.21967 -6.42756,-0.54016 -8.139252,-0.7122 -1.948122,-0.1958 -3.205438,-0.21953 -3.361529,-0.0634 -0.156094,0.15609 1.824395,5.18824 5.294982,13.45383 3.049386,7.26247 5.544339,13.24171 5.544339,13.2872 0,0.0455 -0.33681,0.25689 -0.74848,0.46977 l -0.74847,0.38706 0.66453,2.02232 c 0.61792,1.8805 0.6356,2.07185 0.2522,2.72859 -0.59028,1.01112 -2.484029,1.93185 -3.783662,1.83961 -0.981094,-0.0696 -1.136983,-0.19789 -2.181627,-1.79479 -0.618771,-0.94589 -1.125569,-1.8835 -1.12622,-2.08359 -0.0011,-0.36214 -0.05719,-0.35842 -2.281378,0.1514 -0.488828,0.11204 -0.816451,-0.35617 -2.565223,-3.66604 -5.56574,-10.53415 -10.457283,-19.39052 -10.766732,-19.49367 -0.279352,-0.0931 -0.313904,0.52087 -0.177916,3.16161 0.212548,4.12739 0.884629,14.8527 1.225007,19.54904 0.142386,1.96453 0.263084,3.71124 0.268219,3.88158 0.0051,0.17034 -0.359619,0.39074 -0.810564,0.48979 -0.582073,0.12784 -0.737825,0.26215 -0.536953,0.46302 0.317997,0.318 0.105955,6.53621 -0.2564,7.51897 -0.344713,0.93491 -2.572084,1.38728 -4.29064,0.87142 z"
         id="path836"
         inkscape:connector-curvature="0" />
      <path
         style="fill:#b48c6b;stroke-width:0.26458332"
         d="m 74.158929,207.49947 -0.926042,-0.33348 -0.728935,-3.93108 c -0.400915,-2.16209 -0.877165,-4.02521 -1.058334,-4.14026 -0.181169,-0.11504 -0.773614,-0.211 -1.316544,-0.21323 -0.809904,-0.003 -1.008837,-0.11094 -1.107947,-0.59936 -0.206077,-1.01556 -3.03295,-18.43846 -3.445033,-21.23281 -1.384242,-9.3866 -1.826181,-14.06003 -1.688857,-17.85938 0.09511,-2.63156 0.202757,-3.22146 0.796611,-4.36562 0.829194,-1.59758 1.327075,-2.07256 2.870164,-2.73812 1.383189,-0.59659 7.362388,-1.75851 7.619517,-1.48068 0.09681,0.10461 0.02646,0.2436 -0.156353,0.30887 -0.182808,0.0653 -0.253709,0.24595 -0.157557,0.40153 0.101377,0.16403 0.05039,0.20596 -0.121376,0.0998 -0.35945,-0.22215 -2.48109,1.12976 -2.281024,1.45347 0.07793,0.1261 -0.02083,0.1669 -0.219472,0.0907 -0.482885,-0.1853 -1.323581,0.77583 -1.208602,1.38174 0.05791,0.30518 0.368721,0.5145 0.845097,0.56914 0.543388,0.0623 0.697358,-0.004 0.55217,-0.23931 -0.135174,-0.21872 -0.09187,-0.25811 0.131779,-0.11989 0.183208,0.11323 1.19572,0.0583 2.250024,-0.12203 2.663476,-0.4556 3.134012,-0.19663 2.896461,1.59412 -0.142777,1.07631 -0.09595,1.33475 0.267081,1.47405 0.441701,0.1695 1.509419,-0.56046 1.402191,-0.95863 -0.0306,-0.11364 0.01535,-0.18876 0.102129,-0.16693 0.349907,0.088 1.047581,-0.73092 0.915631,-1.07478 -0.07772,-0.20252 -0.02957,-0.29917 0.106976,-0.21478 0.305409,0.18875 0.859129,-0.77638 0.596249,-1.03926 -0.104021,-0.10402 -0.01053,-0.14944 0.207746,-0.10094 0.241183,0.0536 0.383138,-0.0894 0.361857,-0.36445 -0.01926,-0.24895 0.0998,-0.42755 0.264583,-0.39687 0.16478,0.0307 0.283843,-0.14792 0.264584,-0.39688 -0.01926,-0.24895 0.0998,-0.42755 0.264583,-0.39687 0.16478,0.0307 0.283279,-0.15131 0.263327,-0.40441 -0.01995,-0.25309 0.05343,-0.40473 0.163078,-0.33696 0.294328,0.1819 1.098791,-0.79603 0.86596,-1.05269 -0.109458,-0.12066 -0.0504,-0.13387 0.131252,-0.0293 0.382498,0.2201 1.479503,-0.45619 1.19747,-0.73823 -0.10378,-0.10377 -0.01373,-0.12298 0.20012,-0.0427 0.213847,0.0803 0.745998,-0.10455 1.182561,-0.4108 0.436562,-0.30625 0.591455,-0.49079 0.344204,-0.41009 -0.282747,0.0923 -0.404355,0.029 -0.32775,-0.17067 0.06699,-0.17457 -0.445138,-1.03171 -1.13806,-1.90476 -0.692923,-0.87304 -1.395751,-1.96756 -1.561843,-2.43226 l -0.301983,-0.84492 3.931627,-3.47863 c 10.857754,-9.60675 19.728601,-20.72429 25.406881,-31.8416 0.63997,-1.253 1.26497,-2.27871 1.38888,-2.27937 0.55267,-0.003 -0.85801,9.37197 -2.33257,15.50148 -1.71523,7.12993 -4.55023,15.94713 -7.38859,22.97947 -0.52535,1.30158 -0.95517,2.52197 -0.95517,2.71198 0,0.27323 1.15915,0.34546 5.54426,0.34546 h 5.54426 l 0.14689,-0.8599 c 0.13733,-0.80398 0.37965,-3.17399 1.33234,-13.03073 1.05334,-10.89806 1.97954,-22.78983 1.98233,-25.45183 0.002,-1.54132 0.20313,-2.47354 1.05807,-4.8948 0.58083,-1.64498 1.05708,-3.30441 1.05833,-3.687615 0.002,-0.497842 0.17222,-0.742288 0.59758,-0.856281 0.93625,-0.250905 2.53203,-0.193345 2.71198,0.09782 0.0899,0.145521 0.38286,0.264583 0.65094,0.264583 0.26808,0 1.3525,0.922733 2.40982,2.050523 5.94432,6.34047 11.19191,14.34695 14.91987,22.76386 l 1.20546,2.72167 -0.068,17.38666 -0.068,17.38666 h -3.70417 -3.70416 v -2.38125 c 0,-2.57719 -0.14614,-3.04271 -0.95516,-3.04271 -0.35955,0 -0.65773,0.31533 -0.93823,0.99219 -0.65548,1.58169 -2.62416,4.39282 -3.89986,5.56872 -1.50183,1.38433 -3.91278,2.59829 -6.44808,3.2467 -2.28544,0.58452 -8.733,0.70996 -12.73181,0.2477 -1.25342,-0.1449 -4.54113,-0.44318 -7.30603,-0.66285 -2.7649,-0.21967 -6.42756,-0.54016 -8.139252,-0.7122 -1.948122,-0.1958 -3.205438,-0.21953 -3.361529,-0.0634 -0.156094,0.15609 1.827628,5.19594 5.303628,13.47443 4.610843,10.98125 5.488073,13.27043 5.170383,13.49243 -0.21043,0.14704 -0.58276,0.38772 -0.82741,0.53483 -0.41225,0.2479 -0.40112,0.41784 0.15218,2.32209 l 0.597,2.05461 -0.75943,0.79267 c -0.84456,0.88153 -2.246959,1.40369 -3.403911,1.26738 -0.621141,-0.0732 -0.968441,-0.42974 -1.891305,-1.94173 -1.200782,-1.96732 -1.327131,-2.03053 -3.189425,-1.59577 l -0.824071,0.19238 -2.005735,-3.79622 C 84.12097,180.89342 79.229171,172.03655 78.919698,171.93339 c -0.279352,-0.0931 -0.313904,0.52087 -0.177916,3.16161 0.212548,4.12739 0.884629,14.8527 1.225007,19.54904 0.142386,1.96453 0.263084,3.71124 0.268219,3.88158 0.0051,0.17034 -0.318085,0.38234 -0.718267,0.47112 l -0.727604,0.16141 -0.07343,2.96846 c -0.111403,4.50351 -0.212923,4.93367 -1.268465,5.3747 -1.069325,0.44679 -2.04401,0.44625 -3.288313,-0.002 z M 121.21866,93.639352 c -0.15818,-0.400182 -0.31827,-2.199242 -0.35575,-3.997911 -0.0725,-3.480214 -0.16806,-3.729031 -1.43473,-3.7371 -0.40599,-0.0026 -0.98926,0.378645 -1.613,1.054282 -0.72478,0.785076 -1.1832,1.058333 -1.7755,1.058333 -0.70311,0 -0.85299,-0.142834 -1.2553,-1.196259 -0.59774,-1.56516 -1.4077,-1.963284 -4.60716,-2.264578 -3.03211,-0.285534 -3.20996,-0.441663 -3.20996,-2.817982 0,-3.576162 2.19569,-5.708785 7.03687,-6.83475 2.06041,-0.479213 5.35114,-0.549744 6.68249,-0.143225 1.36386,0.416442 2.69562,1.572301 3.24653,2.81772 0.31108,0.703262 0.84605,1.332562 1.42137,1.672007 0.50739,0.299369 1.16836,0.935913 1.46882,1.414541 0.84996,1.353961 0.58562,2.766817 -1.25611,6.713763 -0.87691,1.879288 -1.80499,4.071732 -2.0624,4.872096 -0.2574,0.800365 -0.58589,1.604037 -0.72997,1.785938 -0.45762,0.577728 -1.25095,0.375406 -1.5562,-0.396875 z"
         id="path834"
         inkscape:connector-curvature="0" />
      <path
         style="fill:#2a43fd;stroke-width:0.26458332"
         d="m 70.257562,198.95677 c -0.899049,-0.0878 -1.146593,-0.2255 -1.240238,-0.68986 -0.206209,-1.02254 -3.036743,-18.47482 -3.44123,-21.21766 -1.384242,-9.3866 -1.826181,-14.06003 -1.688857,-17.85938 0.09511,-2.63156 0.202757,-3.22146 0.796611,-4.36562 0.829194,-1.59758 1.327075,-2.07256 2.870164,-2.73812 1.383189,-0.59659 7.362388,-1.75851 7.619517,-1.48068 0.09681,0.10461 0.04195,0.23844 -0.121921,0.29739 -0.16387,0.059 -1.11637,0.66875 -2.116666,1.3551 -1.824144,1.25163 -2.447818,2.25998 -1.599226,2.58562 0.213895,0.0821 1.482946,-0.0518 2.820113,-0.29756 3.292458,-0.60507 3.797516,-0.39699 3.550794,1.46289 -0.146551,1.10477 -0.10102,1.34823 0.279437,1.49422 0.606354,0.23268 1.790775,-0.97888 3.91214,-4.00178 1.403729,-2.00028 1.955356,-2.55057 3.447976,-3.43958 0.977297,-0.58209 1.777,-1.20098 1.777119,-1.37533 1.19e-4,-0.17434 -0.57368,-1.00778 -1.275109,-1.85208 -1.566759,-1.88589 -2.242561,-2.90338 -2.122985,-3.19637 0.05006,-0.12267 1.043519,-1.04426 2.207686,-2.04798 11.444986,-9.86764 20.269853,-20.61556 26.445163,-32.20793 0.83334,-1.56435 1.58129,-2.84427 1.6621,-2.84427 0.38094,0 -0.59548,7.25029 -1.63908,12.17083 -1.37966,6.50503 -4.75932,17.48544 -7.52143,24.43686 -0.74358,1.87136 -1.35196,3.62753 -1.35196,3.9026 0,0.47449 0.28338,0.50013 5.52794,0.50013 4.83928,0 5.54832,-0.0531 5.69153,-0.42631 0.09,-0.23447 0.40077,-2.82408 0.69065,-5.75469 0.28988,-2.93061 0.64502,-6.519 0.78919,-7.97421 0.27641,-2.78987 0.84195,-9.14659 1.30644,-14.68438 0.15258,-1.81901 0.4027,-5.45041 0.55584,-8.06979 0.26569,-4.54463 0.32853,-4.90775 1.37377,-7.9375 0.60244,-1.74625 1.22227,-3.262473 1.37739,-3.369386 0.15512,-0.106913 1.01299,-0.196209 1.90638,-0.198437 1.85933,-0.0046 1.79777,-0.04501 4.57141,2.998043 4.96655,5.44898 8.88069,11.27834 12.54803,18.68789 l 2.68747,5.42981 0.0717,17.53594 0.0717,17.53595 -3.77583,-0.0735 -3.77582,-0.0734 v -2.51354 -2.51355 l -0.73353,-0.0843 c -0.63168,-0.0726 -0.79166,0.056 -1.15228,0.92605 -0.66238,1.5981 -2.62598,4.40565 -3.90744,5.58686 -1.50183,1.38433 -3.91278,2.59829 -6.44808,3.2467 -2.28544,0.58452 -8.733,0.70996 -12.73181,0.2477 -1.25342,-0.1449 -4.54113,-0.44318 -7.30603,-0.66285 -2.7649,-0.21967 -6.42756,-0.54016 -8.139252,-0.7122 -1.948122,-0.1958 -3.205438,-0.21953 -3.361529,-0.0634 -0.156094,0.15609 1.824395,5.18824 5.294982,13.45383 3.049386,7.26247 5.544339,13.24276 5.544339,13.28954 0,0.40445 -9.068523,3.79814 -10.149293,3.79814 -0.231664,0 -1.1972,-1.52846 -2.381734,-3.77032 -5.55698,-10.51718 -10.444898,-19.36645 -10.754035,-19.4695 -0.279352,-0.0931 -0.313904,0.52087 -0.177916,3.16161 0.202792,3.93795 0.861705,14.50988 1.233559,19.7918 0.147706,2.09805 0.199525,3.88398 0.115152,3.96875 -0.179158,0.17999 -8.182746,0.26237 -9.832931,0.10122 z M 121.77619,93.696178 c -0.22672,-0.273183 -0.35967,-1.548492 -0.40602,-3.894569 -0.0638,-3.230603 -0.11189,-3.523183 -0.65064,-3.95943 -0.94643,-0.766376 -1.75092,-0.581211 -3.14653,0.724213 -0.73787,0.690195 -1.436,1.134576 -1.65214,1.051636 -0.20586,-0.079 -0.608,-0.645136 -0.89364,-1.258085 -0.76117,-1.633419 -1.74105,-2.084019 -4.95874,-2.280296 l -2.68417,-0.163733 -0.20883,-0.926041 c -0.4703,-2.085528 0.41626,-4.732011 1.98639,-5.929611 2.60167,-1.984388 8.26659,-3.071611 11.34362,-2.177092 1.60459,0.466467 3.23171,1.939589 3.55203,3.215855 0.10826,0.431356 0.54268,0.868691 1.19189,1.199892 1.25439,0.639945 1.82619,1.683584 1.82619,3.333174 0,0.993479 -0.35362,2.005465 -1.69186,4.841785 -0.93052,1.972183 -1.84433,4.12157 -2.0307,4.776413 -0.52332,1.838856 -0.93638,2.217605 -1.57685,1.445889 z"
         id="path832"
         inkscape:connector-curvature="0" />
      <path
         style="fill:#1f28cf;stroke-width:0.26458332"
         d="m 85.800595,183.76286 c -3.274218,-6.13856 -6.223981,-11.569 -6.555025,-12.06763 -0.513961,-0.77415 -0.626163,-1.38528 -0.767951,-4.18286 -0.203766,-4.02047 -0.127907,-4.17036 2.004748,-3.96107 0.814972,0.08 3.43612,0.32175 5.824768,0.53725 2.38865,0.21551 4.367609,0.42186 4.397687,0.45856 0.368038,0.44904 11.200718,26.76392 11.090768,26.94183 -0.0832,0.13458 -0.28365,0.24468 -0.44551,0.24468 -0.16185,0 -0.48224,0.17002 -0.71198,0.37781 -0.45169,0.40855 -5.288806,2.23557 -6.370838,2.40632 -0.363802,0.0574 -1.078177,0.17227 -1.5875,0.25525 l -0.926042,0.15088 z M 135.23541,161.1081 c -0.0233,-0.10914 -0.053,-1.27 -0.0661,-2.57969 l -0.0239,-2.38125 -0.92604,0.0961 c -2.14446,0.22254 -20.00631,0.28048 -20.33969,0.066 -0.30618,-0.19701 -0.31101,-0.81358 -0.0306,-3.90219 0.18319,-2.01751 0.49551,-4.14446 0.69405,-4.72654 0.31824,-0.93305 0.5851,-3.19734 1.68385,-14.2875 0.27641,-2.78987 0.84195,-9.14659 1.30645,-14.68438 0.15257,-1.81901 0.40269,-5.45041 0.55583,-8.06979 0.26569,-4.54463 0.32853,-4.90775 1.37377,-7.9375 0.60244,-1.74625 1.22227,-3.262473 1.37739,-3.369386 0.15512,-0.106913 1.01299,-0.196209 1.90638,-0.198437 1.85933,-0.0046 1.79777,-0.04501 4.57141,2.998043 4.96655,5.44898 8.88069,11.27834 12.54803,18.68789 l 2.68746,5.42981 0.0717,17.52864 0.0717,17.52865 h -3.70968 c -2.04032,0 -3.72869,-0.0893 -3.75194,-0.19844 z m -44.341586,-7.58514 c -2.073671,-2.53244 -3.770312,-4.72798 -3.770312,-4.87898 0,-0.151 -0.573897,-0.96534 -1.275326,-1.80964 -1.566759,-1.88589 -2.242561,-2.90338 -2.122985,-3.19637 0.05006,-0.12267 1.043519,-1.04426 2.207686,-2.04798 11.444986,-9.86764 20.269853,-20.61556 26.445163,-32.20793 0.83334,-1.56435 1.58129,-2.84427 1.6621,-2.84427 0.38094,0 -0.59548,7.25029 -1.63908,12.17083 -1.37966,6.50503 -4.75932,17.48544 -7.52143,24.43686 -0.74358,1.87136 -1.35196,3.72873 -1.35196,4.12749 0,0.77412 -0.58192,1.66905 -3.533803,5.43461 -3.066409,3.91166 -4.431265,5.42408 -4.892897,5.42188 -0.243496,-0.001 -2.105586,-2.04 -4.207156,-4.6065 z M 121.77619,93.696178 c -0.22672,-0.273183 -0.35967,-1.548492 -0.40602,-3.894569 -0.0638,-3.230603 -0.11189,-3.523183 -0.65064,-3.95943 -0.94643,-0.766376 -1.75092,-0.581211 -3.14653,0.724213 -0.73787,0.690195 -1.436,1.134576 -1.65214,1.051636 -0.20586,-0.079 -0.608,-0.645136 -0.89364,-1.258085 -0.76117,-1.633419 -1.74105,-2.084019 -4.95874,-2.280296 l -2.68417,-0.163733 -0.20883,-0.926041 c -0.4703,-2.085528 0.41626,-4.732011 1.98639,-5.929611 2.60167,-1.984388 8.26659,-3.071611 11.34362,-2.177092 1.60459,0.466467 3.23171,1.939589 3.55203,3.215855 0.10826,0.431356 0.54268,0.868691 1.19189,1.199892 1.25439,0.639945 1.82619,1.683584 1.82619,3.333174 0,0.993479 -0.35362,2.005465 -1.69186,4.841785 -0.93052,1.972183 -1.84433,4.12157 -2.0307,4.776413 -0.52332,1.838856 -0.93638,2.217605 -1.57685,1.445889 z"
         id="path830"
         inkscape:connector-curvature="0" />
      <path
         style="fill:#262a64;stroke-width:0.26458332"
         d="m 135.23541,161.1081 c -0.0233,-0.10914 -0.053,-1.27 -0.0661,-2.57969 l -0.0239,-2.38125 -10.51719,-0.0692 -10.51719,-0.0692 0.001,-0.72457 c 7.9e-4,-0.39851 0.35307,-4.18133 0.78295,-8.40627 0.89559,-8.80205 1.13035,-11.24393 1.85598,-19.3058 0.8462,-9.40131 1.04391,-11.90363 1.33796,-16.93333 0.26569,-4.54463 0.32854,-4.90775 1.37377,-7.9375 0.60244,-1.74625 1.22227,-3.262473 1.37739,-3.369386 0.15513,-0.106913 1.013,-0.196209 1.90638,-0.198437 1.85934,-0.0046 1.79777,-0.04501 4.57141,2.998043 4.96655,5.44898 8.88069,11.27834 12.54804,18.68789 l 2.68749,5.42981 0.0717,17.52864 0.0717,17.52865 h -3.70968 c -2.04032,0 -3.72869,-0.0893 -3.75194,-0.19844 z m -43.490392,-7.14192 c -1.741463,-2.14542 -3.487057,-4.25878 -3.879098,-4.69635 -2.336221,-2.60754 -4.290306,-5.26533 -4.140719,-5.63186 0.05006,-0.12267 1.043519,-1.04426 2.207686,-2.04798 11.444986,-9.86764 20.269853,-20.61556 26.445163,-32.20793 0.83334,-1.56435 1.58129,-2.84427 1.6621,-2.84427 0.38085,0 -0.59497,7.24663 -1.6389,12.17083 -1.28683,6.06998 -3.92532,14.85355 -6.55691,21.82813 -0.87851,2.32833 -1.87143,4.99098 -2.20649,5.91699 -0.38517,1.06452 -1.32014,2.61998 -2.54249,4.22982 -2.577503,3.39457 -5.733088,7.1834 -5.982805,7.1834 -0.110683,0 -1.626076,-1.75535 -3.367537,-3.90078 z M 121.77619,93.696178 c -0.22672,-0.273183 -0.35967,-1.548492 -0.40602,-3.894569 -0.0638,-3.230603 -0.11189,-3.523183 -0.65064,-3.95943 -0.94643,-0.766376 -1.75092,-0.581211 -3.14653,0.724213 -0.73787,0.690195 -1.436,1.134576 -1.65214,1.051636 -0.20586,-0.079 -0.608,-0.645136 -0.89364,-1.258085 -0.76117,-1.633419 -1.74105,-2.084019 -4.95874,-2.280296 l -2.68417,-0.163733 -0.20883,-0.926041 c -0.4703,-2.085528 0.41626,-4.732011 1.98639,-5.929611 2.60167,-1.984388 8.26659,-3.071611 11.34362,-2.177092 1.60459,0.466467 3.23171,1.939589 3.55203,3.215855 0.10826,0.431356 0.54268,0.868691 1.19189,1.199892 1.25439,0.639945 1.82619,1.683584 1.82619,3.333174 0,0.993479 -0.35362,2.005465 -1.69186,4.841785 -0.93052,1.972183 -1.84433,4.12157 -2.0307,4.776413 -0.52332,1.838856 -0.93638,2.217605 -1.57685,1.445889 z"
         id="path828"
         inkscape:connector-curvature="0" />
    </g>
  </g>
</svg>
