<?xml version="1.0" encoding="UTF-8"?>
<svg width="321px" height="456px" viewBox="0 0 321 456" version="1.1" xmlns="http://www.w3.org/2000/svg" xmlns:xlink="http://www.w3.org/1999/xlink">
    <title>Group 2</title>
    <g id="STYLEGUIDE" stroke="none" stroke-width="1" fill="none" fill-rule="evenodd">
        <g id="Styleguide" transform="translate(-535.000000, -1859.000000)">
            <g id="Group-2" transform="translate(536.645161, 1859.941845)">
                <g id="Group" transform="translate(87.290323, 0.000000)">
                    <g id="Head/Front" transform="translate(72.387097, 55.520218) scale(-1, 1) translate(-72.387097, -55.520218) ">
                        <g id="Head" transform="translate(57.483871, 33.098592)" fill="#D4A181">
                            <path d="M40.6042021,9.75226822 C46.7728716,21.2845882 46.0398733,50.5372741 38.0674176,52.5984213 C34.8879777,53.4204132 28.114785,51.4068305 21.2212933,47.2393507 L25.5483871,77.9418446 L0,77.9418446 L8.79522678,36.8248735 C3.89008601,31.04999 0.570195536,23.9728061 1.12495545,16.0426246 C2.72338378,-6.80658717 34.4355326,-1.78005171 40.6042021,9.75226822 Z" id="Head-[skin]"></path>
                        </g>
                        <path d="M64.3160828,75.0670932 C61.1095087,60.7588269 51.9745026,51.0053613 53.3696371,44.6101781 C54.2997268,40.3467227 56.7786947,37.6954295 60.8065408,36.6562984 C62.8897047,28.2037378 69.6083355,24.6085344 80.9624334,25.870688 C97.9935802,27.7639185 108.388444,34.8578978 103.899416,50.4677478 C99.7729438,50.4677478 94.7914097,48.9709535 87.9029835,51.5354443 C85.7173136,52.349147 84.1540585,54.8725101 83.2132181,59.1055339 L80.1003654,59.1055339 C77.0792109,54.082092 74.1003331,52.2361142 71.1637321,53.5676004 C68.2271312,54.8990867 67.559594,58.1332722 69.1611207,63.2701569 L67.6277261,75.0670932 L64.3160828,75.0670932 Z" id="Hair" fill="#191847"></path>
                    </g>
                </g>
                <g id="Group" transform="translate(0.000000, 199.659246)">
                    <g id="Bottom/Skinny-Jeans-1" transform="translate(159.677419, 127.589732) scale(-1, 1) translate(-159.677419, -127.589732) ">
                        <g id="Group" transform="translate(10.645161, 44.843253)">
                            <g id="Seat-Stuff" transform="translate(58.548387, 0.000000)">
                                <polygon fill="#C5CFD6" points="29.4047474 0 111.643463 0 122.419355 132.394366 0 132.394366"></polygon>
                                <polygon fill-opacity="0.1" fill="#000000" points="29.4047474 0 54.6978205 0 69.8362751 132.394366 0 132.394366"></polygon>
                            </g>
                        </g>
                        <path d="M274.595839,22.1616679 L274.902657,21.9824848 C283.70265,17.0378027 298.074501,23.7527176 298.064521,31.2177538 C298.034296,53.8150113 277.473242,160.315805 276.399722,167.048283 C275.326202,173.780761 263.826112,175.559062 263.156424,167.070346 C262.090837,153.563366 260.11111,106.805014 262.091908,85.1623047 C262.909566,76.2283613 263.790142,67.7199857 264.657048,60.1293652 C253.86929,79.6697104 237.182876,107.649973 214.599136,144.068323 L202.339577,138.450527 C211.966628,106.637361 219.860665,84.1781123 226.021687,71.0727809 C236.570854,48.6332718 246.462423,29.4168238 250.625465,22.6479859 C257.174077,12.0003656 268.573089,15.7157935 274.595839,22.1616679 Z" id="Legs-[skin]" fill="#B28B67"></path>
                        <path d="M222.343468,131.650823 L227.689329,23.3117586 C231.599163,4.5812783 264.851475,13.3077577 264.847419,23.3474255 C264.838211,46.1405792 251.253078,124.865473 251.250334,131.656315 L222.343468,131.650823 Z" id="LegLower" fill="#1F28CF" transform="translate(243.595444, 71.978704) rotate(20.000000) translate(-243.595444, -71.978704) "></path>
                        <g id="Group" transform="translate(196.935484, 120.649705)" fill="#E4E4E4">
                            <g id="Left-[shoe]" transform="translate(32.467742, 21.353930) rotate(30.000000) translate(-32.467742, -21.353930) ">
                                <path d="M2.90172814,26.9859683 C1.67692013,30.2426577 1.06451613,32.6737057 1.06451613,34.2791124 C1.06451613,36.2044748 1.3843119,39.0140573 2.02390343,42.7078601 C4.25080576,42.7078601 24.264352,42.7078601 62.0645422,42.7078601 C63.6247856,37.5343444 62.7241226,34.7413298 59.3625534,34.3288162 C56.0009841,33.9163026 53.2084714,33.5438358 50.9850153,33.2114159 L23.0196482,20.7070689 C22.5154691,20.4816318 21.9239983,20.7075968 21.6985612,21.2117759 C21.6944106,21.2210586 21.6904018,21.2304039 21.6865363,21.2398088 L19.8672914,25.6660306 L19.8672914,25.6660306 C16.7553574,27.1223228 14.226588,27.850469 12.2809831,27.850469 C10.6781141,27.850469 8.45599589,27.1921057 5.61462858,25.875379 L5.61462593,25.8753848 C4.61244085,25.4109591 3.42351797,25.8468993 2.95909236,26.8490844 C2.93828395,26.8939869 2.91914937,26.9396463 2.90172814,26.9859683 Z" id="shoe"></path>
                            </g>
                        </g>
                        <g id="Right-[shoe]" transform="translate(257.612903, 134.529759)" fill="#E4E4E4">
                            <path d="M2.90172814,26.9859683 C1.67692013,30.2426577 1.06451613,32.6737057 1.06451613,34.2791124 C1.06451613,36.2044748 1.3843119,39.0140573 2.02390343,42.7078601 C4.25080576,42.7078601 24.264352,42.7078601 62.0645422,42.7078601 C63.6247856,37.5343444 62.7241226,34.7413298 59.3625534,34.3288162 C56.0009841,33.9163026 53.2084714,33.5438358 50.9850153,33.2114159 L23.0196482,20.7070689 C22.5154691,20.4816318 21.9239983,20.7075968 21.6985612,21.2117759 C21.6944106,21.2210586 21.6904018,21.2304039 21.6865363,21.2398088 L19.8672914,25.6660306 L19.8672914,25.6660306 C16.7553574,27.1223228 14.226588,27.850469 12.2809831,27.850469 C10.6781141,27.850469 8.45599589,27.1921057 5.61462858,25.875379 L5.61462593,25.8753848 C4.61244085,25.4109591 3.42351797,25.8468993 2.95909236,26.8490844 C2.93828395,26.8939869 2.91914937,26.9396463 2.90172814,26.9859683 Z" id="shoe"></path>
                        </g>
                        <path d="M301.013623,38.8994163 C301.013623,67.2648796 287.582864,133.430345 287.574365,139.676175 L258.677419,139.698438 C262.907037,80.6596458 264.406828,50.822239 263.176791,50.1862177 C261.331737,49.2321856 187.542021,57.5755665 165.411284,57.5755665 C133.498653,57.5755665 120.297036,37.3911555 119.225806,-4.70359276e-13 L182.443542,-4.70359276e-13 C195.315241,1.3814572 262.455201,14.9640406 287.389651,19.6332441 C298.064516,21.63221 301.013623,31.0854614 301.013623,38.8994163 Z" id="Leg-and-Butt" fill="#2B44FF"></path>
                    </g>
                </g>
                <g id="Group" transform="translate(23.419355, 87.551113)">
                    <g id="Body/Long-Sleeve-1" transform="translate(136.258065, 99.829623) scale(-1, 1) translate(-136.258065, -99.829623) ">
                        <path d="M72.7148912,99.3170127 L94.9605018,99.4047556 C81.2248637,143.878231 73.8096601,167.475579 72.7148912,170.196798 C70.251661,176.319542 75.4641873,185.644375 77.6932704,190.655471 C74.4355559,192.117556 72.7953922,190.493905 71.1496221,188.645486 L70.8671323,188.326946 C68.9322709,186.142508 66.8624381,183.873973 62.0484298,186.120312 C60.2016025,186.982089 58.4524154,187.998451 56.7437207,188.994577 L56.2054123,189.308266 C50.3868754,192.69486 44.9718429,195.629225 37.6721988,191.111664 C36.4848056,190.376817 35.1836161,187.609986 38.3274544,185.447853 C46.1599022,180.061193 57.4469339,170.633567 58.9719896,167.530391 C61.0516756,163.298655 65.6326428,140.560863 72.7148912,99.3170127 L72.7148912,99.3170127 Z M206.563404,95.1557937 L236.718915,124.661611 C245.493057,128.41543 252.682216,132.560404 258.286394,137.096534 C258.424239,137.263303 258.56342,137.446781 258.694238,137.639608 L258.804094,137.807006 C259.788181,139.359325 260.084872,141.358933 254.989098,140.235449 L254.329026,140.091156 L254.329026,140.091156 L253.667632,139.949374 C248.155204,138.780717 242.681219,137.963752 241.649309,139.754604 C240.534846,141.688723 243.818702,144.652482 241.759036,147.183747 C240.385926,148.871257 235.768049,143.503618 227.905404,131.08083 L196.547661,112.537845 L206.563404,95.1557937 Z" id="Arms-[skin]" fill="#D4A181"></path>
                        <path d="M129.872841,9.84497866 L138.904798,7.46516241 C158.15329,45.6406947 188.861545,79.1715389 231.029563,108.057695 L204.471663,146.881969 C161.109407,104.292703 132.708248,58.9229689 129.872841,9.84497866 Z" id="Coat-Back" fill="#191847" transform="translate(180.451202, 77.173566) rotate(5.000000) translate(-180.451202, -77.173566) "></path>
                        <path d="M95.8064516,121.717401 L177.774194,121.717401 C158.784151,75.4062222 149.28913,36.065425 149.28913,3.69500963 L124.563512,0 C105.131499,31.3458683 99.6438474,69.9389788 95.8064516,121.717401 Z" id="Shirt" fill="#DDE3E9"></path>
                        <path d="M125.663736,-4.55186396e-14 C127.595011,0.0667023484 130.536591,0.186879873 134.488475,0.360532574 L134.488475,0.360532574 L140.463072,17.4855375 C141.095051,38.3649222 144.785718,80.4425161 151.535071,143.718319 L151.535071,143.718319 L97.8035751,143.718454 C97.9444322,148.088609 98.1766809,152.499586 98.5003212,156.951386 L98.5003212,156.951386 L58.5483871,156.951386 C64.5244917,89.3277209 86.3484785,37.0105923 124.020347,1.13247793e-14 L124.020347,1.13247793e-14 L124.039387,0.018 L124.049749,-4.55186396e-14 Z" id="Coat-Front" fill="#2F3676"></path>
                        <path d="M112.83871,144.139028 L97.8174095,144.13905 C97.1598345,124.540891 98.338049,105.76274 101.352053,87.8045982 C102.882496,115.044398 106.711029,133.822371 112.83871,144.139028 Z" id="Shade" fill-opacity="0.1" fill="#000000"></path>
                        <polygon id="Light" fill-opacity="0.2" fill="#FFFFFF" points="109.763215 111.040436 136.258065 98.6864101 136.258065 111.040436"></polygon>
                    </g>
                </g>
            </g>
        </g>
    </g>
</svg>