<?xml version="1.0" encoding="UTF-8"?>
<svg width="320px" height="404px" viewBox="0 0 320 404" version="1.1" xmlns="http://www.w3.org/2000/svg" xmlns:xlink="http://www.w3.org/1999/xlink">
    <title>Group</title>
    <g id="STYLEGUIDE" stroke="none" stroke-width="1" fill="none" fill-rule="evenodd">
        <g id="Styleguide" transform="translate(-56.000000, -1833.000000)">
            <g id="Group" transform="translate(56.000000, 1833.612903)">
                <circle id="Oval" fill="#F8F8F8" cx="85.483871" cy="85.483871" r="85.483871"></circle>
                <g id="humaaan-11" transform="translate(45.161290, 6.451613)">
                    <g id="Group" transform="translate(54.271052, 7.475589)">
                        <g id="Head/Front" transform="translate(62.067841, 47.195824) rotate(-7.000000) translate(-62.067841, -47.195824) ">
                            <g id="Head" transform="translate(49.289168, 28.135972)" fill="#D4A181">
                                <path d="M34.8158066,8.29006718 C40.1050918,18.093295 39.4765872,42.9599953 32.6406574,44.7121055 C29.9145808,45.4108235 24.1073205,43.6993175 18.1967955,40.1569859 L21.9062969,66.2556764 L0,66.2556764 L7.54115337,31.3032571 C3.33541316,26.3942823 0.488920075,20.3783195 0.96458567,13.6372823 C2.33514755,-5.78604521 29.5265215,-1.51316062 34.8158066,8.29006718 Z" id="Head-[skin]"></path>
                            </g>
                            <path d="M71.6189409,25.1274714 C68.7317544,24.6566759 60.9578774,24.3329909 59.5242356,24.3331998 C58.6080709,24.3331998 57.6152273,24.5413278 57.0726097,23.7048456 C56.6282499,23.0198621 56.7910352,21.8613666 56.6584186,21.0664681 C56.5044326,20.1430569 56.2857095,19.2315566 56.0644723,18.3223549 C55.4349102,15.7351736 54.4829201,13.2737885 53.1508882,10.9628574 C50.6514952,6.62727557 46.9899787,3.23119521 42.3674634,1.25502415 C37.2628775,-0.926976286 31.4866189,-1.42660883 25.9959154,-0.984023415 C20.1201421,-0.510511349 14.8012326,1.41822491 9.25354385,3.23328485 C3.96689814,4.96287857 -1.57031538,5.64368277 -7.09956771,4.79905092 C-12.6705115,3.94815015 -16.8798832,0.945757667 -21.5788678,-1.90388225 C-26.3893089,-4.82122645 -31.8867165,-6.72927529 -37.5735165,-6.29066019 C-42.8819507,-5.88109106 -47.7745178,-3.70159818 -52.1640637,-0.790104969 C-56.2709875,1.93394768 -59.6597286,5.21133658 -61.5729271,9.82400443 C-63.6311028,14.7858509 -63.6292173,20.2322844 -60.2446662,24.6173907 C-55.3389004,30.9736528 -46.2315145,32.6173624 -38.6545616,32.4539527 C-34.2719294,32.35971 -29.967652,31.5641846 -25.8299309,30.11711 C-20.3117824,28.18712 -15.5432422,24.916 -10.3808329,22.2619502 C-7.95811864,21.0165257 -5.45390702,19.9936477 -2.82902059,19.2568412 C-0.281860471,18.541558 2.22696026,18.2134848 4.53318979,19.743518 C6.97287391,21.3621519 9.15905715,22.9521578 11.9500809,23.9654235 C14.6275531,24.9375233 17.4636204,25.4812472 20.3162386,25.459306 C25.8664414,25.4166774 31.3376609,23.6971139 36.728221,22.5453052 C41.1240521,21.6062217 45.8274362,20.6702727 50.3089548,21.5729965 C52.1789952,21.9497583 54.9105196,22.7275217 55.5859632,24.6600193 C44.2180199,26.7087008 39.7532722,40.6883818 42.9580681,50.9508051 C44.6877402,56.4898097 55.0850371,62.9648474 59.1276429,60.0529091 C61.68875,58.2081124 60.1338948,55.7862284 59.1276429,54.187446 C57.2006172,51.1257078 56.5413054,47.1927994 60.1070782,45.0611592 C63.1828191,43.2226953 66.4167487,47.5885591 66.4779241,47.583753 C67.3232762,47.5175114 74.6278531,43.4097623 79.6605737,37.4155144 C84.6253712,37.7081617 85.3786028,34.452974 84.1931064,31.7908422 C83.00761,29.1287104 75.608123,25.7783938 71.6189409,25.1274714 Z" id="hair" fill="#191847"></path>
                        </g>
                    </g>
                    <g id="Bottom/Skinny-Jeans-1" transform="translate(0.000000, 177.775450)">
                        <polygon id="Leg-[skin]" fill="#B28B67" points="116.989247 9.00787439e-14 150.469045 114.302579 166.21627 200.122701 182.021739 200.122701 166.244439 9.00787439e-14"></polygon>
                        <polygon id="Shadow" fill-opacity="0.1" fill="#000000" points="116.989247 9.00787439e-14 150.469045 114.302579 166.21627 200.122701 182.021739 200.122701 166.244439 9.00787439e-14"></polygon>
                        <path d="M101.943084,0 C104.279193,59.3795968 103.357866,91.7668425 102.835016,97.161737 C102.312167,102.556632 99.3439148,138.688018 79.1173487,201.933766 L95.5564268,201.933766 C122.343187,141.260277 131.694189,105.128891 134.766427,97.161737 C137.838666,89.1945831 146.912358,56.8073374 160.159546,0 L101.943084,0 Z" id="Leg-[skin]" fill="#B28B67"></path>
                        <path d="M116.27053,1.02947136e-13 C124.979148,39.3318306 140.041324,102.115423 161.457058,188.350777 L184.574355,188.350777 C186.281831,99.8384337 179.018308,41.5825042 166.4397,1.02947136e-13 L116.27053,1.02947136e-13 Z" id="Pant" fill="#69A1AC"></path>
                        <path d="M101.82627,0 C104.114183,59.3795968 98.1849115,117.879747 79.8182061,189.275288 L104.483091,189.275288 C131.319097,129.507332 150.553327,71.2958588 163.698645,0 L101.82627,0 Z" id="Pant" fill="#89C5CC"></path>
                        <g id="Left-[shoe]" transform="translate(76.774194, 180.200984)" fill="#191847">
                            <path d="M0,33.5047056 L0.907052978,19.0161842 C6.21772066,20.5550691 12.8694425,19.9513807 20.8622185,17.2051191 C29.3931565,23.1921491 40.1162453,27.2942305 53.031485,29.5113635 C54.1668424,29.7062474 54.9292278,30.7846344 54.7343239,31.9199884 C54.72153,31.9945152 54.7046929,32.0682911 54.6838871,32.1409894 L53.5161257,36.2213033 L53.5161257,36.2213033 L20.8622185,36.2213033 L1.81410596,36.2213033 L0,33.5047056 Z" id="Shoe"></path>
                        </g>
                        <g id="Left-[shoe]" transform="translate(162.688172, 180.200984)" fill="#191847">
                            <path d="M0,33.5047056 L0.907052978,19.0161842 C6.21772066,20.5550691 12.8694425,19.9513807 20.8622185,17.2051191 C29.3931565,23.1921491 40.1162453,27.2942305 53.031485,29.5113635 C54.1668424,29.7062474 54.9292278,30.7846344 54.7343239,31.9199884 C54.72153,31.9945152 54.7046929,32.0682911 54.6838871,32.1409894 L53.5161257,36.2213033 L53.5161257,36.2213033 L20.8622185,36.2213033 L1.81410596,36.2213033 L0,33.5047056 Z" id="Shoe"></path>
                        </g>
                    </g>
                    <g id="Group" transform="translate(19.168010, 82.854621)">
                        <g id="Body/Long-Sleeve-1" transform="translate(116.833583, 84.861723) rotate(-10.000000) translate(-116.833583, -84.861723) ">
                            <path d="M62.3489062,84.4259702 L81.4232591,84.5005575 C69.6457263,122.305926 63.2876087,142.365218 62.3489062,144.678433 C60.2368257,149.883167 64.7062722,157.809886 66.6175849,162.069646 C60.3925031,164.839467 61.0557922,154.581689 53.203019,158.214464 C51.8469776,158.841783 50.5523289,159.565463 49.2883028,160.292186 L48.7483625,160.603552 L48.7483625,160.603552 L48.2116337,160.913659 C43.2154767,163.797027 38.5686191,166.302454 32.3017796,162.45744 C31.2836571,161.832772 30.1679607,159.480784 32.8636243,157.64283 C34.6758461,156.407223 36.703752,154.921492 38.7246784,153.358765 L39.4372941,152.804299 C44.6557001,148.718905 49.6518668,144.254157 50.5651455,142.411812 C52.3483586,138.81456 56.2762788,119.485946 62.3489062,84.4259702 L62.3489062,84.4259702 Z M174.137904,83.6922512 L203.253446,104.951791 C211.15018,107.070591 217.747646,109.706737 223.045845,112.860227 C224.297371,113.994202 225.809958,116.29069 220.619576,115.8938 L220.301481,115.869779 L220.301481,115.869779 L219.66417,115.823678 C214.776331,115.481506 209.907891,115.419331 209.235566,117.071923 C208.519394,118.832293 211.660332,120.937502 210.212637,123.312702 C209.247507,124.896169 204.687844,120.925685 196.533647,111.401251 L167.701624,99.5128013 L174.137904,83.6922512 Z" id="Arms-[skin]" fill="#B28B67"></path>
                            <path d="M112.051368,8.7161301 L119.796779,6.68721125 C151.1622,29.1940181 167.356452,76.2872705 205.346574,98.6613307 L197.667812,110.022692 C134.96438,107.812515 114.450972,50.4365727 112.051368,8.7161301 Z" id="Coat-Back" fill="#E87613" transform="translate(158.698971, 58.354951) rotate(5.000000) translate(-158.698971, -58.354951) "></path>
                            <path d="M82.1486132,103.467769 C113.795687,103.467769 137.074612,103.467769 151.985386,103.467769 C155.176571,103.467769 154.575253,98.8858139 154.113948,96.5737344 C148.78993,69.8895427 128.006985,41.1252754 128.006985,3.14100037 L107.862772,0 C91.2009203,26.6460425 85.438963,59.4527159 82.1486132,103.467769 Z" id="Shirt" fill="#DDE3E9"></path>
                            <path d="M106.345972,-8.43769499e-15 C107.026353,-7.99360578e-15 107.649631,0.0423186955 108.215806,0.126956086 L114.525743,0.485336393 C132.618883,61.4591234 137.608863,102.139885 129.495683,122.527621 L129.495683,122.527621 L74.5283595,122.528418 C71.2717488,130.079283 68.1554427,136.432301 65.1794413,141.587473 L65.1794413,141.587473 L50.2019303,141.587473 C48.7923304,96.2675824 59.6283857,57.8022406 82.7100963,26.1914474 C79.7846562,25.3560318 77.4674727,23.4055475 75.7592766,20.3406653 C68.396531,7.13026869 71.055563,-0.143033104 78.9240031,-2.53380848 C86.7924431,-4.92458385 93.8094439,-2.08721929e-14 106.345972,-8.43769499e-15 Z" id="Coat-Front" fill="#FF9B21"></path>
                            <path d="M94.9272864,122.527621 L74.5283595,122.528418 C78.3271879,113.720352 82.316931,103.282357 86.497589,91.2144326 C88.2267871,105.595053 91.0365193,116.033431 94.9272864,122.527621 Z" id="Shade" fill-opacity="0.1" fill="#000000"></path>
                        </g>
                    </g>
                </g>
            </g>
        </g>
    </g>
</svg>