<?xml version="1.0" encoding="UTF-8" standalone="no"?>
<!-- Created with Inkscape (http://www.inkscape.org/) -->

<svg
   xmlns:dc="http://purl.org/dc/elements/1.1/"
   xmlns:cc="http://creativecommons.org/ns#"
   xmlns:rdf="http://www.w3.org/1999/02/22-rdf-syntax-ns#"
   xmlns:svg="http://www.w3.org/2000/svg"
   xmlns="http://www.w3.org/2000/svg"
   xmlns:sodipodi="http://sodipodi.sourceforge.net/DTD/sodipodi-0.dtd"
   xmlns:inkscape="http://www.inkscape.org/namespaces/inkscape"
   width="81.434975mm"
   height="165.74829mm"
   viewBox="0 0 81.434975 165.74829"
   version="1.1"
   id="svg8"
   sodipodi:docname="meuf.svg"
   inkscape:version="0.92.4 (5da689c313, 2019-01-14)">
  <defs
     id="defs2" />
  <sodipodi:namedview
     id="base"
     pagecolor="#ffffff"
     bordercolor="#666666"
     borderopacity="1.0"
     inkscape:pageopacity="0.0"
     inkscape:pageshadow="2"
     inkscape:zoom="0.49497475"
     inkscape:cx="-452.57533"
     inkscape:cy="644.36685"
     inkscape:document-units="mm"
     inkscape:current-layer="layer1"
     showgrid="false"
     inkscape:window-width="1920"
     inkscape:window-height="1017"
     inkscape:window-x="-8"
     inkscape:window-y="-8"
     inkscape:window-maximized="1" />
  <metadata
     id="metadata5">
    <rdf:RDF>
      <cc:Work
         rdf:about="">
        <dc:format>image/svg+xml</dc:format>
        <dc:type
           rdf:resource="http://purl.org/dc/dcmitype/StillImage" />
      </cc:Work>
    </rdf:RDF>
  </metadata>
  <g
     inkscape:label="Calque 1"
     inkscape:groupmode="layer"
     id="layer1"
     transform="translate(-65.987214,-66.426363)">
    <g
       id="g4549"
       transform="translate(-3.5749666e-6,-3.2072343)">
      <path
         style="fill:#dde3e9;stroke:none;stroke-width:0.26458332px;stroke-linecap:butt;stroke-linejoin:miter;stroke-opacity:1"
         d="m 113.04024,143.32263 4.06511,-2.70278 -18.711686,-36.60675 -5.38616,-3.77976 -5.953125,4.91369 12.756695,37.51414 12.473216,1.79539 z"
         id="path4565"
         inkscape:connector-curvature="0" />
      <path
         style="fill:#8ac4cb;stroke-width:0.26458335"
         d="m 74.25103,234.71615 c -0.450246,-0.5724 -0.503812,-0.96761 -0.403437,-2.97656 0.176277,-3.5281 0.283379,-3.98893 0.949442,-4.08522 0.460145,-0.0665 0.69519,-0.45821 1.161437,-1.93548 l 0.584544,-1.85209 -0.54202,-0.42312 c -0.541604,-0.4228 -0.54099,-0.42737 0.799086,-5.95313 3.029653,-12.49266 5.273936,-25.06706 6.653748,-37.28 0.691621,-6.12165 0.717222,-5.68854 -0.336248,-5.68854 -0.517477,0 -1.24075,-0.27011 -1.771195,-0.66146 -0.961705,-0.70952 -2.073638,-0.84471 -2.975958,-0.3618 -0.307956,0.16482 -1.434089,0.99433 -2.502518,1.84337 -1.068428,0.84904 -2.404131,1.68199 -2.968227,1.851 -2.088647,0.62577 -4.518954,-0.31984 -4.053034,-1.57701 0.08819,-0.23795 0.980829,-1.32561 1.983644,-2.41702 1.002816,-1.0914 2.476792,-2.83556 3.275502,-3.8759 l 1.4522,-1.89152 -0.398501,-1.94493 c -1.421879,-6.93967 -2.147195,-15.99714 -1.749481,-21.84685 0.326841,-4.80729 0.473367,-6.20086 0.953648,-9.06997 0.868285,-5.18695 2.494196,-10.79719 4.511085,-15.56559 0.656711,-1.55262 1.253236,-2.96432 1.325611,-3.13711 0.07296,-0.17417 -0.337095,-0.55326 -0.920262,-0.85077 -1.88027,-0.95924 -4.228956,-4.20623 -4.817678,-6.6603 -0.419202,-1.74743 -0.003,-3.11192 1.311513,-4.29949 1.418116,-1.28118 2.409472,-1.49318 7.159956,-1.53115 2.255573,-0.018 4.449719,-0.10799 4.875878,-0.19991 0.975472,-0.21042 1.152113,-0.81697 1.260229,-4.327425 l 0.0816,-2.649545 -1.455209,-0.375672 c -3.877582,-1.001022 -5.674354,-3.524283 -5.663091,-7.952848 0.005,-1.949633 0.09941,-2.357637 0.916081,-3.957017 0.623757,-1.221581 1.285561,-2.067238 2.101177,-2.684893 0.654844,-0.495904 1.226481,-0.995706 1.270305,-1.110669 0.13292,-0.34869 -1.986317,-0.584864 -3.458245,-0.385399 -0.761165,0.103148 -3.002234,0.751816 -4.980155,1.441485 -4.827423,1.683244 -6.66194,2.017651 -8.781255,1.600701 -0.901275,-0.177315 -1.970625,-0.494045 -2.376333,-0.703845 l -0.737651,-0.381454 0.07281,-4.156946 0.07281,-4.156945 1.455208,-0.716329 c 0.800365,-0.393981 2.407709,-1.041726 3.571876,-1.439432 1.831308,-0.625618 2.544704,-0.724705 5.291666,-0.734978 2.747835,-0.01028 3.388583,0.07334 4.762501,0.621485 2.312428,0.922583 4.807735,3.494167 5.796239,5.973421 1.009505,2.531924 1.087162,2.653852 1.64871,2.588589 0.270903,-0.03148 1.86177,-0.084 3.535259,-0.116704 2.540159,-0.04964 3.326757,0.03648 4.7625,0.521403 2.551116,0.861646 3.261873,1.527531 3.330473,3.120203 0.0307,0.712163 0.36371,2.022992 0.74007,2.912953 0.99094,2.343252 1.51896,5.150874 1.53679,8.171473 0.0168,2.852018 -0.4737,4.677545 -1.38842,5.167093 -0.76831,0.411189 -2.715547,0.298355 -4.514711,-0.261609 -0.916226,-0.28516 -1.723144,-0.461195 -1.793153,-0.391184 -0.07001,0.07001 0.07453,0.968206 0.321199,1.995993 0.246668,1.027785 0.381108,1.977725 0.298757,2.110975 -0.08235,0.13325 -0.67849,0.24227 -1.324745,0.24227 -0.646256,0 -1.17501,0.12105 -1.17501,0.269 0,0.14794 0.6521,1.56923 1.44911,3.15843 6.531883,13.02421 12.543223,29.38961 13.531263,36.83782 0.19733,1.48756 0.32339,1.52192 3.16543,0.86281 1.03774,-0.24067 1.87231,-0.31369 2.01012,-0.17587 0.56401,0.564 3.17753,11.91096 4.1574,18.0499 1.15994,7.26711 2.08801,15.74567 2.68097,24.49262 0.68155,10.05386 1.05563,35.35584 0.54267,36.70504 -0.13435,0.35338 -0.50872,0.71166 -0.83192,0.79618 -0.54824,0.14337 -0.57577,0.25459 -0.41065,1.65948 0.20331,1.72989 0.30633,1.96335 0.86631,1.96335 0.22361,0 0.7226,0.22318 1.10887,0.49596 2.2512,1.58978 6.6239,3.3163 10.69849,4.22421 2.84153,0.63315 3.19948,0.88797 2.96949,2.11391 -0.31935,1.70227 0.19195,1.63259 -11.97973,1.63259 -10.72393,0 -11.10609,-0.0174 -11.56537,-0.52484 -0.41807,-0.46196 -0.45866,-0.89474 -0.33875,-3.61188 0.12304,-2.78804 0.19274,-3.12966 0.71974,-3.52717 0.49505,-0.37341 0.55645,-0.598 0.405,-1.48136 -0.366,-2.13471 -0.68116,-3.02559 -1.07036,-3.02559 -0.21579,0 -0.50921,-0.26789 -0.65204,-0.59531 -0.23696,-0.5432 -6.58352,-26.14992 -8.34458,-33.66823 -0.40904,-1.74625 -0.87467,-3.32397 -1.03475,-3.50605 -0.21934,-0.24948 -0.50833,0.33728 -1.172826,2.38125 -3.705315,11.39744 -13.083224,34.95366 -14.098095,35.41277 -1.144374,0.51769 -1.407781,0.79206 -1.958557,2.04006 -0.601136,1.36211 -0.602429,1.38652 -0.09831,1.85618 1.427412,1.32984 6.987084,3.56996 11.177472,4.50367 2.79173,0.62206 3.188829,0.89079 2.946516,1.99404 -0.412988,1.88032 0.45734,1.75246 -11.928811,1.75246 H 74.770211 Z m 10.06401,-63.65507 c 0.281084,-3.28639 0.725646,-13.83505 0.588828,-13.97187 -0.226261,-0.22626 -0.370292,0.15028 -1.309189,3.42266 -1.255716,4.37659 -1.50008,5.02006 -2.010088,5.29301 -0.701269,0.3753 -0.842422,2.16393 -0.28628,3.62758 0.61032,1.60623 2.203024,4.06233 2.558138,3.94488 0.147435,-0.0488 0.353801,-1.09108 0.458591,-2.31626 z m 56.0355,-24.47705 c -0.65371,-0.37353 -2.03115,-1.32451 -3.06097,-2.11329 -1.02983,-0.78878 -2.00883,-1.43415 -2.17557,-1.43415 -0.16674,0 -0.4306,0.23813 -0.58636,0.52917 -0.2585,0.48301 -0.55352,0.52909 -3.38275,0.52832 -3.6637,-0.001 -6.91988,-0.50656 -10.37558,-1.61093 -3.58483,-1.14563 -4.30074,-1.54048 -4.75322,-2.62156 -1.10102,-2.63058 -3.72023,-7.3676 -7.02213,-12.7 -4.57828,-7.39368 -7.88176,-13.86521 -9.319154,-18.25625 -1.491187,-4.55537 -1.576039,-5.02709 -0.904275,-5.02709 1.474559,0 7.730999,5.9782 15.097919,14.42648 5.64938,6.47863 12.327,13.18025 15.46678,15.5224 1.29152,0.96342 3.35741,2.32835 4.59087,3.03317 1.23345,0.70483 2.59777,1.6016 3.03182,1.99284 0.57515,0.51843 1.19574,0.75931 2.2883,0.8882 2.04434,0.24117 4.94655,0.84102 6.4397,1.33101 2.41848,0.79365 2.29152,1.81002 -0.26273,2.10341 -3.4559,0.39696 -4.40332,0.95067 -3.63446,2.12411 0.46334,0.70714 0.47152,1.73573 0.015,1.8798 -0.14552,0.0459 -0.79943,-0.22212 -1.45314,-0.59564 z"
         id="path4563"
         inkscape:connector-curvature="0" />
      <path
         style="fill:#d4a485;stroke-width:0.26458335"
         d="m 74.415209,234.64709 c -0.357547,-0.60528 -0.407376,-1.21837 -0.282787,-3.47939 0.131917,-2.39401 0.225804,-2.80947 0.734934,-3.25215 0.321033,-0.27914 0.799951,-1.24477 1.064263,-2.14584 0.264312,-0.90108 0.59331,-1.78715 0.731106,-1.96905 0.179021,-0.23632 1.286083,-0.33073 3.878212,-0.33073 1.99522,0 3.699922,0.0722 3.788226,0.16055 0.08831,0.0883 -0.133753,0.82603 -0.493461,1.6394 -0.359709,0.81336 -0.604751,1.60723 -0.544538,1.76414 0.06021,0.15691 1.28438,0.89597 2.720371,1.64235 2.746407,1.42748 6.518618,2.76036 9.286845,3.28141 0.906878,0.1707 1.859087,0.46408 2.116021,0.65196 0.431398,0.31544 0.436825,0.42932 0.07092,1.48787 l -0.396227,1.14628 -11.119931,0.069 -11.119931,0.069 z m 37.218381,0.19153 c -0.40485,-0.44735 -0.47702,-0.92462 -0.43006,-2.84427 0.072,-2.94327 0.26883,-4.0265 0.73168,-4.0265 0.44659,0 0.45895,-0.48732 0.0642,-2.5311 -0.16679,-0.86347 -0.29367,-1.77276 -0.28196,-2.02065 0.0117,-0.24789 -0.18201,-0.51523 -0.43049,-0.5941 -0.46196,-0.14662 -1.53081,-4.23883 -7.19065,-27.5302 -1.16694,-4.80219 -2.3066,-9.3312 -2.53259,-10.06446 l -0.41088,-1.33322 1.4568,-4.88449 c 2.80097,-9.39141 5.51035,-20.28123 7.56455,-30.4042 0.4563,-2.24864 0.95786,-4.24294 1.11457,-4.43177 0.25029,-0.30158 1.80764,-0.50916 1.80764,-0.24094 0,0.0563 0.40721,1.69342 0.90492,3.63802 4.24725,16.59446 6.23883,36.99039 6.23883,63.89221 v 11.15151 l -0.56877,0.14874 c -0.52834,0.13816 -0.55768,0.26755 -0.41271,1.82006 0.18919,2.02598 0.38602,2.59084 0.9028,2.59084 0.21662,0 0.7099,0.22304 1.09617,0.49565 2.13197,1.50466 6.47477,3.21134 10.47905,4.11818 1.56609,0.35467 2.73858,0.76365 2.89354,1.00931 0.1751,0.27761 0.15414,0.76807 -0.0639,1.49598 l -0.32446,1.08296 h -11.06088 c -10.78239,0 -11.07312,-0.0136 -11.54735,-0.53756 z M 70.037777,177.24601 c -0.738713,-0.14246 -1.404663,-1.05373 -1.191127,-1.6299 0.08819,-0.23795 0.980829,-1.32561 1.983644,-2.41702 1.002816,-1.0914 2.476792,-2.83556 3.275502,-3.8759 l 1.4522,-1.89152 -0.398501,-1.94493 c -1.421879,-6.93967 -2.147195,-15.99714 -1.749481,-21.84685 0.326841,-4.80729 0.473367,-6.20086 0.953648,-9.06997 0.868285,-5.18695 2.494196,-10.79719 4.511085,-15.56559 0.656711,-1.55262 1.253236,-2.96432 1.325611,-3.13711 0.07296,-0.17417 -0.337095,-0.55326 -0.920262,-0.85077 -1.88027,-0.95924 -4.228956,-4.20623 -4.817678,-6.6603 -0.419202,-1.74743 -0.003,-3.11192 1.311513,-4.29949 1.418116,-1.28118 2.409472,-1.49318 7.159956,-1.53115 2.255573,-0.018 4.449719,-0.10799 4.875878,-0.19991 0.954409,-0.20587 1.092702,-0.65528 1.346223,-4.374774 l 0.18937,-2.778311 -0.758339,-0.163399 c -1.702684,-0.366868 -3.02675,-1.003146 -4.156009,-1.997159 -1.607888,-1.415321 -2.157164,-2.899034 -2.157961,-5.82913 -5.56e-4,-2.07819 0.07982,-2.434014 0.926515,-4.101041 0.724445,-1.426339 1.198509,-1.998937 2.168446,-2.619158 0.682722,-0.436562 1.247777,-0.937989 1.255678,-1.114281 0.02243,-0.500395 -2.068519,-0.94226 -3.550798,-0.750366 -0.731295,0.09467 -3.294159,0.844058 -5.695253,1.6653 -3.948032,1.350339 -4.580749,1.493656 -6.614583,1.49827 -1.747066,0.004 -2.529428,-0.122323 -3.50573,-0.565886 l -1.256771,-0.57099 v -3.818939 c 0,-2.795089 0.09149,-3.894865 0.341237,-4.102141 0.682197,-0.566173 4.800135,-2.182507 6.607928,-2.59368 2.779431,-0.632169 6.488443,-0.417377 8.454366,0.489599 2.812315,1.297458 5.1903,4.188007 6.024268,7.322774 l 0.309622,1.163826 3.114971,-0.156619 c 3.616067,-0.181814 6.042844,0.21094 7.85107,1.270631 1.129088,0.661689 1.253477,0.878318 1.518065,2.643752 0.0654,0.436563 0.42734,1.5219 0.80425,2.411861 0.99156,2.341232 1.51997,5.14908 1.53781,8.171473 0.0168,2.852018 -0.4737,4.677545 -1.38842,5.167093 -0.76831,0.411189 -2.71555,0.298355 -4.514714,-0.261609 -0.916226,-0.28516 -1.723144,-0.461195 -1.793153,-0.391184 -0.07001,0.07001 0.07453,0.968206 0.321199,1.995993 0.246668,1.027785 0.381108,1.977725 0.298757,2.110975 -0.08235,0.13325 -0.67849,0.24227 -1.324745,0.24227 -0.646256,0 -1.17501,0.12105 -1.17501,0.269 0,0.14794 0.6521,1.56923 1.44911,3.15843 7.010856,13.97925 12.680666,29.75214 13.659556,37.99968 0.36041,3.03658 0.22639,8.43286 -0.22051,8.87879 -0.30215,0.30149 -5.13654,1.23128 -17.723454,3.40871 -2.796341,0.48375 -5.20273,0.95276 -5.34753,1.04225 -0.1448,0.0895 -0.68909,1.64682 -1.209534,3.46074 -1.256793,4.38033 -1.501019,5.02354 -2.011101,5.29653 -0.237645,0.12718 -0.508368,0.70831 -0.601607,1.2914 -0.206786,1.29316 0.391995,3.01003 1.778094,5.09828 0.531608,0.8009 0.966559,1.65221 0.966559,1.89181 0,0.67056 -1.338305,0.54364 -2.38125,-0.22582 -0.967422,-0.71374 -2.073208,-0.84424 -2.993956,-0.35333 -0.317856,0.16946 -1.362788,0.94159 -2.322072,1.71583 -2.513886,2.02896 -3.767329,2.4521 -5.992582,2.02296 z m 70.312763,-30.66198 c -0.65371,-0.37353 -2.03115,-1.32451 -3.06097,-2.11329 -1.02983,-0.78878 -2.00883,-1.43415 -2.17557,-1.43415 -0.16674,0 -0.4306,0.23813 -0.58636,0.52917 -0.2585,0.48301 -0.55352,0.52909 -3.38275,0.52832 -3.6637,-0.001 -6.91988,-0.50656 -10.37558,-1.61093 -3.58483,-1.14563 -4.30074,-1.54048 -4.75322,-2.62156 -1.10102,-2.63058 -3.72023,-7.3676 -7.02213,-12.7 -4.57828,-7.39368 -7.88176,-13.86521 -9.319154,-18.25625 -1.491187,-4.55537 -1.576039,-5.02709 -0.904275,-5.02709 1.474559,0 7.730999,5.9782 15.097919,14.42648 5.64938,6.47863 12.327,13.18025 15.46678,15.5224 1.29152,0.96342 3.35741,2.32835 4.59087,3.03317 1.23345,0.70483 2.59777,1.6016 3.03182,1.99284 0.57515,0.51843 1.19574,0.75931 2.2883,0.8882 2.04434,0.24117 4.94655,0.84102 6.4397,1.33101 2.41848,0.79365 2.29152,1.81002 -0.26273,2.10341 -3.4559,0.39696 -4.40332,0.95067 -3.63446,2.12411 0.46334,0.70714 0.47152,1.73573 0.015,1.8798 -0.14552,0.0459 -0.79943,-0.22212 -1.45314,-0.59564 z"
         id="path4561"
         inkscape:connector-curvature="0" />
      <path
         style="fill:#fc9920;stroke-width:0.26458335"
         d="m 74.403553,234.62735 c -0.361689,-0.61229 -0.419465,-1.19872 -0.30657,-3.11168 0.189865,-3.21719 0.271571,-3.51298 1.022439,-3.70143 0.528114,-0.13255 0.769596,-0.53838 1.340615,-2.25299 l 0.696473,-2.09132 h 3.417855 c 1.879821,0 3.417856,0.0672 3.417856,0.14939 0,0.0822 -0.258664,0.75067 -0.574809,1.48556 -0.414372,0.96324 -0.500914,1.45333 -0.31006,1.7559 0.789928,1.2523 8.159133,4.3323 12.191028,5.09533 0.906878,0.17162 1.859087,0.46575 2.116021,0.65363 0.431398,0.31544 0.436825,0.42932 0.07092,1.48787 l -0.396227,1.14628 -11.119931,0.069 -11.119931,0.069 z m 37.230037,0.21127 c -0.40485,-0.44735 -0.47702,-0.92462 -0.43006,-2.84427 0.0771,-3.15103 0.23568,-3.87011 0.9199,-4.17048 0.31684,-0.13909 0.56224,-0.34477 0.54532,-0.45704 -0.56234,-3.73134 -0.69525,-4.20224 -1.25846,-4.45886 -0.61777,-0.28148 -1.27057,-2.74631 -7.31399,-27.61617 -1.16694,-4.80219 -2.3066,-9.3312 -2.53259,-10.06446 l -0.41088,-1.33322 1.4568,-4.88449 c 2.80097,-9.39141 5.51035,-20.28123 7.56455,-30.4042 0.4563,-2.24864 0.95786,-4.24294 1.11457,-4.43177 0.25029,-0.30158 1.80764,-0.50916 1.80764,-0.24094 0,0.0563 0.40721,1.69342 0.90492,3.63802 4.24531,16.5869 6.23883,36.99245 6.23883,63.86033 v 11.11963 l -0.59531,0.26118 c -0.44621,0.19576 -0.6167,0.52334 -0.68068,1.30787 -0.14944,1.83227 0.1519,2.76401 0.95685,2.95851 0.39381,0.0951 1.01367,0.37869 1.37747,0.63007 2.16252,1.49431 6.48892,3.18522 10.43821,4.0796 1.56609,0.35467 2.73858,0.76365 2.89354,1.00931 0.1751,0.27761 0.15414,0.76807 -0.0639,1.49598 l -0.32446,1.08296 h -11.06088 c -10.78239,0 -11.07312,-0.0136 -11.54735,-0.53756 z M 69.770866,176.63043 c -0.926245,-0.3723 -0.720433,-0.96375 0.948815,-2.72663 2.243112,-2.36894 4.450798,-5.05391 4.95124,-6.02166 0.337058,-0.6518 0.371278,-0.98237 0.151604,-1.4645 -0.296489,-0.65072 -1.078334,-5.06211 -1.658573,-9.35813 -0.532259,-3.94079 -0.448511,-16.0622 0.137104,-19.84375 1.119262,-7.22755 2.782046,-13.26313 5.169674,-18.7649 0.595049,-1.37116 1.081907,-2.70138 1.081907,-2.95604 0,-0.29374 -0.335416,-0.57372 -0.91741,-0.7658 -1.178035,-0.38879 -3.058352,-2.48047 -4.095375,-4.55574 -1.457863,-2.91744 -0.978628,-5.22958 1.361692,-6.56969 1.071277,-0.61343 1.445847,-0.66083 6.429218,-0.81354 2.910417,-0.0892 5.767917,-0.29471 6.350001,-0.45671 2.25511,-0.62762 2.291426,-0.60356 3.829679,2.5371 8.556748,17.4704 13.498348,31.60327 14.271868,40.81726 0.22456,2.67497 0.0841,6.37123 -0.25501,6.71034 -0.0658,0.0658 -3.25247,0.67124 -7.08156,1.34548 -3.829087,0.67425 -7.222339,1.33787 -7.540561,1.47472 -0.75481,0.32459 -6.378079,1.3121 -7.471627,1.3121 -1.033686,0 -1.275618,0.28583 -1.679599,1.98438 -0.829025,3.48564 -2.002604,6.82889 -2.437022,6.9425 -0.831404,0.21741 -1.026517,2.4342 -0.376425,4.27676 0.213328,0.60464 0.808641,1.73326 1.322917,2.50805 1.445814,2.17821 1.249436,2.53304 -0.678783,1.22646 -1.899668,-1.28723 -2.627869,-1.12975 -5.52992,1.19589 -0.945885,0.75801 -2.100832,1.57185 -2.566548,1.80854 -0.91443,0.46473 -2.758575,0.54287 -3.717306,0.15751 z m 70.953504,-30.31118 c -0.43633,-0.21132 -1.62214,-1.03678 -2.63513,-1.83435 -2.72986,-2.14934 -2.92449,-2.22077 -3.71827,-1.36472 -0.60717,0.6548 -0.82116,0.71016 -2.74531,0.71016 -4.41627,0 -9.54972,-1.02069 -13.51082,-2.68638 -1.13372,-0.47674 -1.26296,-0.64318 -2.36504,-3.04573 -1.3609,-2.96679 -3.31524,-6.40199 -7.21717,-12.68582 -3.53287,-5.68947 -5.92061,-10.22328 -7.43941,-14.12582 -1.32481,-3.40411 -2.216853,-6.50567 -1.94833,-6.7742 0.280551,-0.28055 3.76199,2.64046 6.95262,5.83344 1.60765,1.60882 5.0488,5.36591 7.647,8.34909 8.57529,9.84588 14.53698,15.36072 19.92329,18.42997 1.23691,0.70482 2.57246,1.6149 2.96788,2.02239 0.61713,0.63597 1.09021,0.79631 3.34035,1.13209 3.00296,0.44812 6.65412,1.37429 6.88399,1.74622 0.24814,0.4015 0.006,0.49817 -1.91936,0.76733 -3.67657,0.51389 -4.40353,1.0714 -3.52775,2.70542 0.60022,1.11988 0.40626,1.35113 -0.68854,0.82091 z M 87.683307,94.786647 c -2.348379,-0.633362 -4.372124,-2.36445 -5.042513,-4.313304 -0.19201,-0.558184 -0.353442,-2.038916 -0.358737,-3.290516 -0.0088,-2.087279 0.06711,-2.426723 0.917507,-4.101041 0.724445,-1.426339 1.198509,-1.998937 2.168446,-2.619158 0.682722,-0.436562 1.247777,-0.937989 1.255678,-1.114281 0.02243,-0.500395 -2.068519,-0.94226 -3.550798,-0.750366 -0.731295,0.09467 -3.294159,0.844058 -5.695253,1.6653 -3.948032,1.350339 -4.580749,1.493656 -6.614583,1.49827 -1.747066,0.004 -2.529428,-0.122323 -3.50573,-0.565886 l -1.256771,-0.57099 v -3.818939 c 0,-2.795089 0.09149,-3.894865 0.341237,-4.102141 0.682197,-0.566173 4.800135,-2.182507 6.607928,-2.59368 2.779431,-0.632169 6.488443,-0.417377 8.454366,0.489599 2.812315,1.297458 5.1903,4.188007 6.024268,7.322774 l 0.309622,1.163826 3.114971,-0.156619 c 6.191545,-0.311308 10.038865,1.382312 9.114037,4.012062 -0.132463,0.376654 -0.487312,0.807704 -0.788556,0.957891 -0.301244,0.150186 -1.560547,1.306629 -2.79845,2.569872 -2.413675,2.463083 -3.254016,2.904187 -4.230165,2.220466 -2.008341,-1.406697 -3.103812,0.747668 -1.547821,3.043966 0.891618,1.315831 0.981897,1.975432 0.386686,2.825213 -0.472254,0.674238 -1.410101,0.738838 -3.305369,0.227682 z"
         id="path4559"
         inkscape:connector-curvature="0" />
      <path
         style="fill:#68a0ab;stroke-width:0.26458335"
         d="m 74.403553,234.62735 c -0.361689,-0.61229 -0.419465,-1.19872 -0.30657,-3.11168 0.189865,-3.21719 0.271571,-3.51298 1.022439,-3.70143 0.528114,-0.13255 0.769596,-0.53838 1.340615,-2.25299 l 0.696473,-2.09132 h 3.417855 c 1.879821,0 3.417856,0.0672 3.417856,0.14939 0,0.0822 -0.258664,0.75067 -0.574809,1.48556 -0.414372,0.96324 -0.500914,1.45333 -0.31006,1.7559 0.789928,1.2523 8.159133,4.3323 12.191028,5.09533 0.906878,0.17162 1.859087,0.46575 2.116021,0.65363 0.431398,0.31544 0.436825,0.42932 0.07092,1.48787 l -0.396227,1.14628 -11.119931,0.069 -11.119931,0.069 z m 37.230037,0.21127 c -0.40485,-0.44735 -0.47702,-0.92462 -0.43006,-2.84427 0.0771,-3.15103 0.23568,-3.87011 0.9199,-4.17048 0.31684,-0.13909 0.56224,-0.34477 0.54532,-0.45704 -0.56234,-3.73134 -0.69525,-4.20224 -1.25846,-4.45886 -0.61777,-0.28148 -1.27057,-2.74631 -7.31399,-27.61617 -1.16694,-4.80219 -2.3066,-9.3312 -2.53259,-10.06446 l -0.41088,-1.33322 1.4568,-4.88449 c 2.80097,-9.39141 5.51035,-20.28123 7.56455,-30.4042 0.4563,-2.24864 0.95786,-4.24294 1.11457,-4.43177 0.25029,-0.30158 1.80764,-0.50916 1.80764,-0.24094 0,0.0563 0.40721,1.69342 0.90492,3.63802 4.24531,16.5869 6.23883,36.99245 6.23883,63.86033 v 11.11963 l -0.59531,0.26118 c -0.44621,0.19576 -0.6167,0.52334 -0.68068,1.30787 -0.14944,1.83227 0.1519,2.76401 0.95685,2.95851 0.39381,0.0951 1.01367,0.37869 1.37747,0.63007 2.16252,1.49431 6.48892,3.18522 10.43821,4.0796 1.56609,0.35467 2.73858,0.76365 2.89354,1.00931 0.1751,0.27761 0.15414,0.76807 -0.0639,1.49598 l -0.32446,1.08296 h -11.06088 c -10.78239,0 -11.07312,-0.0136 -11.54735,-0.53756 z M 69.770866,176.63043 c -0.926738,-0.3725 -0.720216,-0.96422 0.951651,-2.72663 2.528721,-2.66568 4.773386,-5.47993 5.107261,-6.40325 0.285611,-0.78984 0.451505,-0.89036 1.92241,-1.16481 0.885403,-0.16521 1.92032,-0.36116 2.299816,-0.43544 0.681661,-0.13343 0.688465,-0.11918 0.563583,1.18049 -0.154976,1.61287 0.35422,3.21232 1.638761,5.14757 1.455088,2.19218 1.262261,2.54925 -0.669708,1.24013 -1.899668,-1.28723 -2.627869,-1.12975 -5.52992,1.19589 -0.945885,0.75801 -2.100832,1.57185 -2.566548,1.80854 -0.91443,0.46473 -2.758575,0.54287 -3.717306,0.15751 z m 15.40982,-20.36817 c -0.148677,-0.24056 1.415547,-9.01095 1.957728,-10.97671 0.196291,-0.71168 0.239993,-0.73904 0.422678,-0.26458 1.749229,4.54295 2.522922,6.28465 3.48479,7.84475 0.631632,1.02448 1.148422,1.97849 1.148422,2.12002 0,0.14154 0.267891,0.1841 0.595313,0.0946 0.434477,-0.11879 0.48809,-0.0959 0.198437,0.0848 -0.387699,0.24185 -6.307638,1.3652 -7.194433,1.3652 -0.245989,0 -0.52181,-0.12063 -0.612935,-0.26808 z m 55.961534,-9.72874 c -0.56757,-0.19424 -2.54448,-1.55489 -4.19144,-2.88483 -1.55728,-1.25752 -2.24976,-1.41171 -2.74913,-0.6121 -0.29647,0.47473 -0.6165,0.52908 -3.11109,0.52832 -4.04083,-0.001 -7.9849,-0.74556 -12.22261,-2.30667 l -1.76906,-0.6517 -1.69429,-3.48133 c -0.93186,-1.91473 -2.68249,-5.08867 -3.89029,-7.0532 -7.39648,-12.03066 -9.32008,-15.70681 -11.26083,-21.52042 -0.672194,-2.01357 -1.156178,-3.72703 -1.075525,-3.80768 0.578557,-0.57856 7.802665,6.46036 14.453835,14.0833 8.73193,10.00773 14.38021,15.23499 20.08095,18.58413 1.39408,0.81902 2.78744,1.7119 3.09635,1.98419 0.37463,0.33022 1.4319,0.62494 3.175,0.88505 2.99603,0.44708 6.6463,1.37346 6.87593,1.74501 0.24814,0.4015 0.006,0.49817 -1.91936,0.76733 -3.67657,0.51389 -4.40353,1.0714 -3.52775,2.70542 0.52064,0.97139 0.44033,1.27852 -0.27069,1.03518 z M 87.683307,94.786647 c -2.348379,-0.633362 -4.372124,-2.36445 -5.042513,-4.313304 -0.19201,-0.558184 -0.353442,-2.038916 -0.358737,-3.290516 -0.0088,-2.087279 0.06711,-2.426723 0.917507,-4.101041 0.724445,-1.426339 1.198509,-1.998937 2.168446,-2.619158 0.682722,-0.436562 1.247777,-0.937989 1.255678,-1.114281 0.02243,-0.500395 -2.068519,-0.94226 -3.550798,-0.750366 -0.731295,0.09467 -3.294159,0.844058 -5.695253,1.6653 -3.948032,1.350339 -4.580749,1.493656 -6.614583,1.49827 -1.747066,0.004 -2.529428,-0.122323 -3.50573,-0.565886 l -1.256771,-0.57099 v -3.818939 c 0,-2.795089 0.09149,-3.894865 0.341237,-4.102141 0.682197,-0.566173 4.800135,-2.182507 6.607928,-2.59368 2.779431,-0.632169 6.488443,-0.417377 8.454366,0.489599 2.812315,1.297458 5.1903,4.188007 6.024268,7.322774 l 0.309622,1.163826 3.114971,-0.156619 c 6.191545,-0.311308 10.038865,1.382312 9.114037,4.012062 -0.132463,0.376654 -0.487312,0.807704 -0.788556,0.957891 -0.301244,0.150186 -1.560547,1.306629 -2.79845,2.569872 -2.413675,2.463083 -3.254016,2.904187 -4.230165,2.220466 -2.008341,-1.406697 -3.103812,0.747668 -1.547821,3.043966 0.891618,1.315831 0.981897,1.975432 0.386686,2.825213 -0.472254,0.674238 -1.410101,0.738838 -3.305369,0.227682 z"
         id="path4557"
         inkscape:connector-curvature="0" />
      <path
         style="fill:#b18b68;stroke-width:0.26458335"
         d="m 74.543346,234.51156 c -0.160372,-0.35198 -0.219954,-1.6919 -0.144123,-3.24115 0.11624,-2.37485 0.193759,-2.69832 0.768939,-3.20866 0.36617,-0.32489 0.92892,-1.42786 1.316188,-2.57969 l 0.676522,-2.01213 h 3.433504 3.433504 l -0.18364,0.59531 c -0.101002,0.32742 -0.353542,0.92918 -0.5612,1.33724 -0.207659,0.40807 -0.341403,1.00338 -0.297211,1.32292 0.173651,1.25562 6.254339,4.11719 11.060559,5.20509 3.496678,0.79149 3.40632,0.71294 3.126912,2.71808 -0.06029,0.43263 -0.796253,0.46303 -11.210539,0.46303 H 74.816743 Z m 37.126144,0.18152 c -0.21049,-0.54851 -0.20708,-4.57461 0.005,-5.63383 0.093,-0.46478 0.3315,-0.82682 0.54478,-0.82682 0.20868,0 0.31092,-0.11084 0.2272,-0.2463 -0.0837,-0.13547 -0.0491,-0.31002 0.0769,-0.38791 0.12602,-0.0779 0.0728,-0.94931 -0.11825,-1.93651 -0.19105,-0.9872 -0.35174,-1.94373 -0.35709,-2.12564 -0.007,-0.24812 0.84939,-0.33073 3.42986,-0.33073 h 3.43958 v 1.28344 c 0,1.51446 0.4447,2.9499 0.91389,2.9499 0.18312,0 1.48463,0.6063 2.89224,1.34734 2.7221,1.43304 5.93599,2.62546 8.83923,3.27953 0.97594,0.21987 2.05606,0.46511 2.40028,0.54498 0.5514,0.12795 0.60342,0.24599 0.43729,0.99241 -0.1037,0.46596 -0.19681,0.99603 -0.20692,1.17793 -0.0144,0.25907 -2.43904,0.33073 -11.19076,0.33073 -9.94368,0 -11.19005,-0.046 -11.33298,-0.41852 z M 69.770866,176.63043 c -0.926738,-0.3725 -0.720216,-0.96422 0.951651,-2.72663 2.528721,-2.66568 4.773386,-5.47993 5.107261,-6.40325 0.285611,-0.78984 0.451505,-0.89036 1.92241,-1.16481 0.885403,-0.16521 1.92032,-0.36116 2.299816,-0.43544 0.681661,-0.13343 0.688465,-0.11918 0.563583,1.18049 -0.154976,1.61287 0.35422,3.21232 1.638761,5.14757 1.455088,2.19218 1.262261,2.54925 -0.669708,1.24013 -1.899668,-1.28723 -2.627869,-1.12975 -5.52992,1.19589 -0.945885,0.75801 -2.100832,1.57185 -2.566548,1.80854 -0.91443,0.46473 -2.758575,0.54287 -3.717306,0.15751 z m 15.40982,-20.36817 c -0.148677,-0.24056 1.415547,-9.01095 1.957728,-10.97671 0.196291,-0.71168 0.239993,-0.73904 0.422678,-0.26458 1.749229,4.54295 2.522922,6.28465 3.48479,7.84475 0.631632,1.02448 1.148422,1.97849 1.148422,2.12002 0,0.14154 0.267891,0.1841 0.595313,0.0946 0.434477,-0.11879 0.48809,-0.0959 0.198437,0.0848 -0.387699,0.24185 -6.307638,1.3652 -7.194433,1.3652 -0.245989,0 -0.52181,-0.12063 -0.612935,-0.26808 z m 55.961534,-9.72874 c -0.56757,-0.19424 -2.54448,-1.55489 -4.19144,-2.88483 -1.55728,-1.25752 -2.24976,-1.41171 -2.74913,-0.6121 -0.29647,0.47473 -0.6165,0.52908 -3.11109,0.52832 -4.04083,-0.001 -7.9849,-0.74556 -12.22261,-2.30667 l -1.76906,-0.6517 -1.69429,-3.48133 c -0.93186,-1.91473 -2.68249,-5.08867 -3.89029,-7.0532 -7.39648,-12.03066 -9.32008,-15.70681 -11.26083,-21.52042 -0.672194,-2.01357 -1.156178,-3.72703 -1.075525,-3.80768 0.578557,-0.57856 7.802665,6.46036 14.453835,14.0833 8.73193,10.00773 14.38021,15.23499 20.08095,18.58413 1.39408,0.81902 2.78744,1.7119 3.09635,1.98419 0.37463,0.33022 1.4319,0.62494 3.175,0.88505 2.99603,0.44708 6.6463,1.37346 6.87593,1.74501 0.24814,0.4015 0.006,0.49817 -1.91936,0.76733 -3.67657,0.51389 -4.40353,1.0714 -3.52775,2.70542 0.52064,0.97139 0.44033,1.27852 -0.27069,1.03518 z M 89.019304,94.88668 c -0.218281,-0.126063 -0.932656,-0.365426 -1.5875,-0.531921 -1.358002,-0.345276 -3.03018,-1.41088 -3.739081,-2.382755 -0.803974,-1.102215 -1.36911,-3.853939 -1.165198,-5.673508 0.315926,-2.819112 1.462562,-4.736204 3.681517,-6.15523 l 1.026196,-0.656255 -0.570807,-0.570525 c -0.48839,-0.48815 -0.865769,-0.568958 -2.613696,-0.559677 -1.792512,0.0095 -2.594156,0.202068 -6.540806,1.571058 -5.158044,1.789191 -7.173457,2.009337 -9.988021,1.091002 l -1.521355,-0.496387 v -3.73745 -3.737451 l 2.257025,-1.001718 c 7.685393,-3.410951 14.095119,-2.497101 17.303581,2.467013 0.54233,0.83909 1.196827,2.195721 1.454439,3.014734 0.257611,0.819014 0.665003,1.587063 0.905316,1.706776 0.240313,0.119713 1.627557,0.121409 3.082765,0.0038 2.949644,-0.23845 3.758769,-0.158774 6.148536,0.605453 1.987725,0.635659 2.751368,1.453819 2.645431,2.834294 -0.04973,0.648047 -0.246374,1.03566 -0.619884,1.221875 -0.300879,0.150004 -1.559883,1.306298 -2.797786,2.569541 -2.413675,2.463083 -3.254016,2.904187 -4.230165,2.220466 -2.008341,-1.406697 -3.103812,0.747668 -1.547821,3.043966 0.891618,1.315831 0.981897,1.975432 0.386686,2.825213 -0.420174,0.599884 -1.256986,0.739135 -1.969372,0.327715 z"
         id="path4555"
         inkscape:connector-curvature="0" />
      <path
         style="fill:#e17518;stroke-width:0.26458335"
         d="m 74.546191,234.51628 c -0.293929,-0.64675 -0.136824,-5.95228 0.182093,-6.14938 0.104333,-0.0645 1.190185,-0.16983 2.413007,-0.2341 1.222821,-0.0643 2.976398,-0.312 3.896838,-0.55051 l 1.673527,-0.43366 2.029345,1.17568 c 2.63703,1.52773 6.162145,2.89367 9.305387,3.60573 3.496813,0.79215 3.406312,0.71346 3.126912,2.71853 -0.06029,0.43263 -0.796253,0.46303 -11.210539,0.46303 H 74.816743 Z m 37.069549,-0.0733 c -0.21484,-0.856 -0.0197,-5.85666 0.23856,-6.11497 0.10751,-0.10751 1.29417,-0.28265 2.63701,-0.38918 1.34285,-0.10654 3.12852,-0.27955 3.96817,-0.38448 1.48927,-0.1861 1.59615,-0.15485 4.36563,1.27623 2.78891,1.44113 6.44725,2.76509 9.32128,3.3734 2.54101,0.53782 2.45772,0.48554 2.25098,1.41292 -0.10217,0.45829 -0.19403,0.98209 -0.20414,1.16399 -0.0144,0.25908 -2.44369,0.33073 -11.21402,0.33073 h -11.19566 z m -26.503393,-78.8695 c 0.485719,-2.80264 2.093468,-10.81159 2.189673,-10.9078 0.06453,-0.0645 0.195065,0.10807 0.290076,0.38356 0.94312,2.73463 2.517755,6.29828 3.453786,7.81648 0.631632,1.02448 1.148422,1.95534 1.148422,2.06858 0,0.19102 -2.893902,0.78615 -5.922193,1.2179 l -1.291986,0.1842 z m 41.345503,-12.30093 c -2.5673,-0.45417 -5.05125,-1.1011 -7.18979,-1.87254 l -2.16271,-0.78016 -1.69752,-3.48798 c -0.93363,-1.9184 -2.68572,-5.09533 -3.89352,-7.05986 -7.39648,-12.03066 -9.32008,-15.70681 -11.26083,-21.52042 -0.672194,-2.01357 -1.156178,-3.72703 -1.075525,-3.80768 0.579131,-0.57913 7.809615,6.46724 14.451285,14.0833 8.80139,10.09264 14.6918,15.50276 20.57726,18.89946 1.34079,0.77382 2.43781,1.45563 2.43781,1.51514 0,0.45252 -1.54353,2.9948 -2.17827,3.58774 -0.7693,0.71863 -0.85851,0.7355 -3.7367,0.70662 -1.62171,-0.0163 -3.54389,-0.13491 -4.27149,-0.26362 z M 87.733508,94.466128 c -1.584081,-0.42612 -3.313932,-1.493533 -4.041977,-2.494124 -0.803244,-1.10394 -1.367752,-3.85542 -1.164006,-5.673508 0.315926,-2.819112 1.462562,-4.736204 3.681517,-6.15523 l 1.026196,-0.656255 -0.570807,-0.570525 c -0.48839,-0.48815 -0.865769,-0.568958 -2.613696,-0.559677 -1.792512,0.0095 -2.594156,0.202068 -6.540806,1.571058 -5.158044,1.789191 -7.173457,2.009337 -9.988021,1.091002 l -1.521355,-0.496387 v -3.73745 -3.737451 l 2.257025,-1.001718 c 7.685393,-3.410951 14.095119,-2.497101 17.303581,2.467013 0.54233,0.83909 1.196827,2.195721 1.454439,3.014734 0.257611,0.819014 0.665003,1.587063 0.905316,1.706776 0.240313,0.119713 1.627557,0.121052 3.082765,0.003 3.880184,-0.314837 7.323717,0.47559 8.407422,1.929837 0.684669,0.918772 0.443553,1.990834 -0.531101,2.361397 -0.389321,0.14802 -1.559965,1.186337 -2.601428,2.307372 -2.403288,2.586909 -2.935555,2.893598 -4.035098,2.325003 -1.117023,-0.577635 -1.707288,-0.530582 -2.384299,0.190063 -0.785259,0.83587 -0.717999,1.909961 0.218463,3.488677 0.942495,1.588889 0.98148,2.087462 0.205712,2.630832 -0.695033,0.486817 -0.723888,0.486767 -2.549842,-0.0044 z"
         id="path4553"
         inkscape:connector-curvature="0" />
      <path
         style="fill:#1d1b49;stroke-width:0.26458335"
         d="m 74.546191,234.51628 c -0.293929,-0.64675 -0.136824,-5.95228 0.182093,-6.14938 0.104333,-0.0645 1.190185,-0.16983 2.413007,-0.2341 1.222821,-0.0643 2.976398,-0.312 3.896838,-0.55051 l 1.673527,-0.43366 2.029345,1.17568 c 2.63703,1.52773 6.162145,2.89367 9.305387,3.60573 3.496813,0.79215 3.406312,0.71346 3.126912,2.71853 -0.06029,0.43263 -0.796253,0.46303 -11.210539,0.46303 H 74.816743 Z m 37.069549,-0.0733 c -0.21484,-0.856 -0.0197,-5.85666 0.23856,-6.11497 0.10751,-0.10751 1.29417,-0.28265 2.63701,-0.38918 1.34285,-0.10654 3.12852,-0.27955 3.96817,-0.38448 1.48927,-0.1861 1.59615,-0.15485 4.36563,1.27623 2.78891,1.44113 6.44725,2.76509 9.32128,3.3734 2.54101,0.53782 2.45772,0.48554 2.25098,1.41292 -0.10217,0.45829 -0.19403,0.98209 -0.20414,1.16399 -0.0144,0.25908 -2.44369,0.33073 -11.21402,0.33073 H 111.78355 Z M 87.733508,94.466128 c -1.584081,-0.42612 -3.313932,-1.493533 -4.041977,-2.494124 -0.803244,-1.10394 -1.367752,-3.85542 -1.164006,-5.673508 0.315926,-2.819112 1.462562,-4.736204 3.681517,-6.15523 l 1.026196,-0.656255 -0.570807,-0.570525 c -0.48839,-0.48815 -0.865769,-0.568958 -2.613696,-0.559677 -1.792512,0.0095 -2.594156,0.202068 -6.540806,1.571058 -5.158044,1.789191 -7.173457,2.009337 -9.988021,1.091002 l -1.521355,-0.496387 v -3.73745 -3.737451 l 2.257025,-1.001718 c 7.685393,-3.410951 14.095119,-2.497101 17.303581,2.467013 0.54233,0.83909 1.196827,2.195721 1.454439,3.014734 0.257611,0.819014 0.665003,1.587063 0.905316,1.706776 0.240313,0.119713 1.627557,0.121052 3.082765,0.003 3.880184,-0.314837 7.323717,0.47559 8.407422,1.929837 0.684669,0.918772 0.443553,1.990834 -0.531101,2.361397 -0.389321,0.14802 -1.559965,1.186337 -2.601428,2.307372 -2.403288,2.586909 -2.935555,2.893598 -4.035098,2.325003 -1.117023,-0.577635 -1.707288,-0.530582 -2.384299,0.190063 -0.785259,0.83587 -0.717999,1.909961 0.218463,3.488677 0.942495,1.588889 0.98148,2.087462 0.205712,2.630832 -0.695033,0.486817 -0.723888,0.486767 -2.549842,-0.0044 z"
         id="path4551"
         inkscape:connector-curvature="0" />
    </g>
  </g>
</svg>
