<svg width="20" height="26" viewBox="0 0 20 26" fill="none" xmlns="http://www.w3.org/2000/svg">
<mask id="mask0_8_96" style="mask-type:alpha" maskUnits="userSpaceOnUse" x="0" y="6" width="20" height="20">
<rect y="6" width="20" height="20" fill="#D9D9D9"/>
</mask>
<g mask="url(#mask0_8_96)">
<path d="M3.00002 26V16.8558L1.0654 18.3461L0.461548 17.5538L3.00002 15.6V12.9615H4.00002V14.825L10 10.25L19.5385 17.5538L18.9346 18.3404L17 16.8558V26H3.00002ZM4.00002 25H8.6154V20.2308H11.3846V25H16V16.1L10 11.525L4.00002 16.1V25ZM3.00002 11.7692C3.00002 11.1667 3.19233 10.6506 3.57695 10.2211C3.96156 9.79167 4.51285 9.57692 5.2308 9.57692C5.66796 9.57692 5.98238 9.46186 6.17405 9.23172C6.36571 9.00159 6.46155 8.71921 6.46155 8.3846H7.46157C7.46157 8.98716 7.26926 9.50319 6.88465 9.93267C6.50003 10.3622 5.94875 10.5769 5.2308 10.5769C4.79361 10.5769 4.47919 10.692 4.28752 10.9221C4.09586 11.1522 4.00002 11.4346 4.00002 11.7692H3.00002Z" fill="#C7DFFF"/>
</g>
<mask id="mask1_8_96" style="mask-type:alpha" maskUnits="userSpaceOnUse" x="10" y="6" width="3" height="3">
<rect x="10" y="6" width="3" height="3" fill="#D9D9D9"/>
</mask>
<g mask="url(#mask1_8_96)">
<path d="M11.4375 8.6875V8.08221L10.9688 8.54471L10.8803 8.45625L11.4375 7.89904V7.5625H11.101L10.5438 8.11971L10.4553 8.03125L10.9178 7.5625H10.3125V7.4375H10.9178L10.4553 6.96875L10.5438 6.88029L11.101 7.4375H11.4375V7.10096L10.8803 6.54375L10.9688 6.45529L11.4375 6.91779V6.3125H11.5625V6.91779L12.0312 6.45529L12.1197 6.54375L11.5625 7.10096V7.4375H11.899L12.4562 6.88029L12.5447 6.96875L12.0822 7.4375H12.6875V7.5625H12.0822L12.5447 8.03125L12.4562 8.11971L11.899 7.5625H11.5625V7.89904L12.1197 8.45625L12.0312 8.54471L11.5625 8.08221V8.6875H11.4375Z" fill="#C7DFFF"/>
</g>
<mask id="mask2_8_96" style="mask-type:alpha" maskUnits="userSpaceOnUse" x="0" y="4" width="5" height="5">
<rect y="4" width="5" height="5" fill="#D9D9D9"/>
</mask>
<g mask="url(#mask2_8_96)">
<path d="M2.39587 8.47916V7.47035L1.61462 8.24118L1.46719 8.09375L2.39587 7.16506V6.60416H1.83498L0.906291 7.53285L0.758853 7.38541L1.52969 6.60416H0.520874V6.39583H1.52969L0.758853 5.61458L0.906291 5.46714L1.83498 6.39583H2.39587V5.83493L1.46719 4.90624L1.61462 4.75881L2.39587 5.52964V4.52083H2.60421V5.52964L3.38546 4.75881L3.53289 4.90624L2.60421 5.83493V6.39583H3.1651L4.09379 5.46714L4.24123 5.61458L3.47039 6.39583H4.47921V6.60416H3.47039L4.24123 7.38541L4.09379 7.53285L3.1651 6.60416H2.60421V7.16506L3.53289 8.09375L3.38546 8.24118L2.60421 7.47035V8.47916H2.39587Z" fill="#C7DFFF"/>
</g>
<mask id="mask3_8_96" style="mask-type:alpha" maskUnits="userSpaceOnUse" x="14" y="2" width="4" height="4">
<rect x="14" y="2" width="4" height="4" fill="#D9D9D9"/>
</mask>
<g mask="url(#mask3_8_96)">
<path d="M15.9167 5.58333V4.77628L15.2917 5.39295L15.1737 5.275L15.9167 4.53205V4.08333H15.468L14.725 4.82628L14.6071 4.70833L15.2237 4.08333H14.4167V3.91666H15.2237L14.6071 3.29166L14.725 3.17371L15.468 3.91666H15.9167V3.46795L15.1737 2.725L15.2917 2.60705L15.9167 3.22371V2.41666H16.0834V3.22371L16.7084 2.60705L16.8263 2.725L16.0834 3.46795V3.91666H16.5321L17.275 3.17371L17.393 3.29166L16.7763 3.91666H17.5834V4.08333H16.7763L17.393 4.70833L17.275 4.82628L16.5321 4.08333H16.0834V4.53205L16.8263 5.275L16.7084 5.39295L16.0834 4.77628V5.58333H15.9167Z" fill="#C7DFFF"/>
</g>
<mask id="mask4_8_96" style="mask-type:alpha" maskUnits="userSpaceOnUse" x="5" y="0" width="5" height="5">
<rect x="5" width="5" height="5" fill="#D9D9D9"/>
</mask>
<g mask="url(#mask4_8_96)">
<path d="M7.39587 4.47916V3.47035L6.61462 4.24118L6.46719 4.09374L7.39587 3.16506V2.60416H6.83498L5.90629 3.53285L5.75885 3.38541L6.52969 2.60416H5.52087V2.39583H6.52969L5.75885 1.61458L5.90629 1.46714L6.83498 2.39583H7.39587V1.83493L6.46719 0.906245L6.61462 0.758808L7.39587 1.52964V0.520828H7.60421V1.52964L8.38546 0.758808L8.53289 0.906245L7.60421 1.83493V2.39583H8.1651L9.09379 1.46714L9.24123 1.61458L8.47039 2.39583H9.47921V2.60416H8.47039L9.24123 3.38541L9.09379 3.53285L8.1651 2.60416H7.60421V3.16506L8.53289 4.09374L8.38546 4.24118L7.60421 3.47035V4.47916H7.39587Z" fill="#C7DFFF"/>
</g>
<mask id="mask5_8_96" style="mask-type:alpha" maskUnits="userSpaceOnUse" x="14" y="10" width="2" height="2">
<rect x="14" y="10" width="2" height="2" fill="#D9D9D9"/>
</mask>
<g mask="url(#mask5_8_96)">
<path d="M14.9583 11.7917V11.3881L14.6458 11.6965L14.5868 11.6375L14.9583 11.266V11.0417H14.734L14.3625 11.4131L14.3035 11.3542L14.6118 11.0417H14.2083V10.9583H14.6118L14.3035 10.6458L14.3625 10.5869L14.734 10.9583H14.9583V10.734L14.5868 10.3625L14.6458 10.3035L14.9583 10.6119V10.2083H15.0416V10.6119L15.3541 10.3035L15.4131 10.3625L15.0416 10.734V10.9583H15.266L15.6375 10.5869L15.6965 10.6458L15.3881 10.9583H15.7916V11.0417H15.3881L15.6965 11.3542L15.6375 11.4131L15.266 11.0417H15.0416V11.266L15.4131 11.6375L15.3541 11.6965L15.0416 11.3881V11.7917H14.9583Z" fill="#C7DFFF"/>
</g>
</svg>
