<svg width="24" height="35" viewBox="0 0 24 35" fill="none" xmlns="http://www.w3.org/2000/svg">
<mask id="mask0_3_89" style="mask-type:alpha" maskUnits="userSpaceOnUse" x="0" y="11" width="24" height="24">
<rect y="11" width="24" height="24" fill="#D9D9D9"/>
</mask>
<g mask="url(#mask0_3_89)">
<path d="M5.00002 31V21.8558L3.0654 23.3461L2.46155 22.5538L5.00002 20.6V17.9615H6.00002V19.825L12 15.25L21.5385 22.5538L20.9346 23.3404L19 21.8558V31H5.00002ZM6.00002 30H10.6154V25.2308H13.3846V30H18V21.1L12 16.525L6.00002 21.1V30ZM5.00002 16.7692C5.00002 16.1667 5.19233 15.6506 5.57695 15.2211C5.96156 14.7917 6.51285 14.5769 7.2308 14.5769C7.66796 14.5769 7.98238 14.4619 8.17405 14.2317C8.36571 14.0016 8.46155 13.7192 8.46155 13.3846H9.46157C9.46157 13.9872 9.26926 14.5032 8.88465 14.9327C8.50003 15.3622 7.94875 15.5769 7.2308 15.5769C6.79361 15.5769 6.47919 15.692 6.28752 15.9221C6.09586 16.1522 6.00002 16.4346 6.00002 16.7692H5.00002Z" fill="white"/>
</g>
<mask id="mask1_3_89" style="mask-type:alpha" maskUnits="userSpaceOnUse" x="19" y="8" width="4" height="4">
<rect x="19" y="8" width="4" height="4" fill="#D9D9D9"/>
</mask>
<g mask="url(#mask1_3_89)">
<path d="M20.9167 11.5833V10.7763L20.2917 11.3929L20.1737 11.275L20.9167 10.532V10.0833H20.468L19.725 10.8263L19.6071 10.7083L20.2237 10.0833H19.4167V9.91666H20.2237L19.6071 9.29166L19.725 9.17371L20.468 9.91666H20.9167V9.46795L20.1737 8.725L20.2917 8.60705L20.9167 9.22371V8.41666H21.0834V9.22371L21.7084 8.60705L21.8263 8.725L21.0834 9.46795V9.91666H21.5321L22.275 9.17371L22.393 9.29166L21.7763 9.91666H22.5834V10.0833H21.7763L22.393 10.7083L22.275 10.8263L21.5321 10.0833H21.0834V10.532L21.8263 11.275L21.7084 11.3929L21.0834 10.7763V11.5833H20.9167Z" fill="white"/>
</g>
<mask id="mask2_3_89" style="mask-type:alpha" maskUnits="userSpaceOnUse" x="3" y="6" width="4" height="4">
<rect x="3" y="6" width="4" height="4" fill="#D9D9D9"/>
</mask>
<g mask="url(#mask2_3_89)">
<path d="M4.91669 9.58333V8.77628L4.29169 9.39295L4.17374 9.275L4.91669 8.53205V8.08333H4.46797L3.72502 8.82628L3.60707 8.70833L4.22374 8.08333H3.41669V7.91666H4.22374L3.60707 7.29166L3.72502 7.17371L4.46797 7.91666H4.91669V7.46795L4.17374 6.725L4.29169 6.60705L4.91669 7.22371V6.41666H5.08335V7.22371L5.70835 6.60705L5.8263 6.725L5.08335 7.46795V7.91666H5.53207L6.27502 7.17371L6.39297 7.29166L5.7763 7.91666H6.58335V8.08333H5.7763L6.39297 8.70833L6.27502 8.82628L5.53207 8.08333H5.08335V8.53205L5.8263 9.275L5.70835 9.39295L5.08335 8.77628V9.58333H4.91669Z" fill="white"/>
</g>
<mask id="mask3_3_89" style="mask-type:alpha" maskUnits="userSpaceOnUse" x="9" y="0" width="7" height="7">
<rect x="9" width="7" height="7" fill="#D9D9D9"/>
</mask>
<g mask="url(#mask3_3_89)">
<path d="M12.3542 6.27083V4.85849L11.2604 5.93766L11.054 5.73125L12.3542 4.43108V3.64583H11.5689L10.2688 4.94599L10.0624 4.73958L11.1415 3.64583H9.72919V3.35416H11.1415L10.0624 2.26041L10.2688 2.054L11.5689 3.35416H12.3542V2.56891L11.054 1.26875L11.2604 1.06234L12.3542 2.1415V0.729164H12.6459V2.1415L13.7396 1.06234L13.946 1.26875L12.6459 2.56891V3.35416H13.4311L14.7313 2.054L14.9377 2.26041L13.8585 3.35416H15.2709V3.64583H13.8585L14.9377 4.73958L14.7313 4.94599L13.4311 3.64583H12.6459V4.43108L13.946 5.73125L13.7396 5.93766L12.6459 4.85849V6.27083H12.3542Z" fill="white"/>
</g>
<mask id="mask4_3_89" style="mask-type:alpha" maskUnits="userSpaceOnUse" x="14" y="12" width="3" height="3">
<rect x="14" y="12" width="3" height="3" fill="#D9D9D9"/>
</mask>
<g mask="url(#mask4_3_89)">
<path d="M15.4375 14.6875V14.0822L14.9688 14.5447L14.8803 14.4562L15.4375 13.899V13.5625H15.101L14.5438 14.1197L14.4553 14.0312L14.9178 13.5625H14.3125V13.4375H14.9178L14.4553 12.9688L14.5438 12.8803L15.101 13.4375H15.4375V13.101L14.8803 12.5438L14.9688 12.4553L15.4375 12.9178V12.3125H15.5625V12.9178L16.0312 12.4553L16.1197 12.5438L15.5625 13.101V13.4375H15.899L16.4562 12.8803L16.5447 12.9688L16.0822 13.4375H16.6875V13.5625H16.0822L16.5447 14.0312L16.4562 14.1197L15.899 13.5625H15.5625V13.899L16.1197 14.4562L16.0312 14.5447L15.5625 14.0822V14.6875H15.4375Z" fill="white"/>
</g>
</svg>
