<svg width="165" height="103" viewBox="0 0 165 103" fill="none" xmlns="http://www.w3.org/2000/svg">
<path d="M160 0H5C2.23858 0 0 2.23858 0 5V98C0 100.761 2.23857 103 5 103H160C162.761 103 165 100.761 165 98V5C165 2.23858 162.761 0 160 0Z" fill="white"/>
<path d="M5.92491 5.30292C6.43349 5.30292 6.93065 5.44644 7.35352 5.71538C7.77639 5.98432 8.10594 6.36657 8.30057 6.8138C8.49519 7.26102 8.54614 7.75314 8.44692 8.22791C8.3477 8.70269 8.10276 9.1388 7.74314 9.4811C7.38352 9.82339 6.92542 10.0565 6.42661 10.1509C5.92781 10.2454 5.41078 10.1969 4.94091 10.0117C4.47104 9.82642 4.06944 9.51271 3.78689 9.11022C3.50433 8.70772 3.35352 8.23451 3.35352 7.75044C3.35352 7.10132 3.62443 6.47878 4.10667 6.01978C4.5889 5.56078 5.24292 5.30292 5.92491 5.30292Z" fill="#FA5F5D"/>
<path d="M14.7101 5.30292C15.2187 5.30292 15.7159 5.44644 16.1387 5.71538C16.5616 5.98432 16.8912 6.36657 17.0858 6.8138C17.2804 7.26102 17.3314 7.75314 17.2321 8.22791C17.1329 8.70269 16.888 9.1388 16.5284 9.4811C16.1687 9.82339 15.7105 10.0565 15.2117 10.1509C14.7129 10.2454 14.1959 10.1969 13.7261 10.0117C13.2562 9.82642 12.8545 9.51271 12.572 9.11022C12.2894 8.70772 12.1387 8.23451 12.1387 7.75044C12.1387 7.42903 12.2051 7.11074 12.3343 6.8138C12.4636 6.51685 12.653 6.24706 12.8918 6.01978C13.1305 5.79251 13.4141 5.61222 13.7261 5.48922C14.038 5.36622 14.3724 5.30292 14.7101 5.30292Z" fill="#FDBC4E"/>
<path d="M23.925 5.30292C24.4336 5.30292 24.9307 5.44644 25.3536 5.71538C25.7765 5.98432 26.106 6.36657 26.3006 6.8138C26.4953 7.26102 26.5462 7.75314 26.447 8.22791C26.3478 8.70269 26.1028 9.1388 25.7432 9.4811C25.3836 9.82339 24.9254 10.0565 24.4265 10.1509C23.9277 10.2454 23.4108 10.1969 22.9409 10.0117C22.471 9.82642 22.0694 9.51271 21.7868 9.11022C21.5043 8.70772 21.3535 8.23451 21.3535 7.75044C21.3535 7.10132 21.6244 6.47878 22.1066 6.01978C22.5888 5.56078 23.243 5.30292 23.925 5.30292Z" fill="#37CD58"/>
<path d="M144.669 30.9262H70.3314C69.6781 30.9262 69.1484 31.4303 69.1484 32.0521V71.685C69.1484 72.3068 69.6781 72.8109 70.3314 72.8109H144.669C145.322 72.8109 145.851 72.3068 145.851 71.685V32.0521C145.851 31.4303 145.322 30.9262 144.669 30.9262Z" fill="white"/>
<path d="M66.3096 30.7306H31.9688V72.931H66.3096V30.7306Z" fill="#484D7A"/>
<path d="M145.879 17.5334H32.1025V28.2753H145.879V17.5334Z" fill="#484D7A"/>
<path d="M28.9983 17.471H13.8359V72.8652H28.9983V17.471Z" fill="#484D7A"/>
<path d="M65.7124 76.2438H32.7776C32.428 76.2438 32.1445 76.5135 32.1445 76.8463V77.248C32.1445 77.5808 32.428 77.8506 32.7776 77.8506H65.7124C66.062 77.8506 66.3454 77.5808 66.3454 77.248V76.8463C66.3454 76.5135 66.062 76.2438 65.7124 76.2438Z" fill="#E9EDFB"/>
<path d="M65.7124 79.8237H32.7776C32.428 79.8237 32.1445 80.0934 32.1445 80.4262V80.8279C32.1445 81.1607 32.428 81.4304 32.7776 81.4304H65.7124C66.062 81.4304 66.3454 81.1607 66.3454 80.8279V80.4262C66.3454 80.0934 66.062 79.8237 65.7124 79.8237Z" fill="#E9EDFB"/>
<path d="M65.7124 83.4682H32.7776C32.428 83.4682 32.1445 83.738 32.1445 84.0708V84.4724C32.1445 84.8052 32.428 85.075 32.7776 85.075H65.7124C66.062 85.075 66.3454 84.8052 66.3454 84.4724V84.0708C66.3454 83.738 66.062 83.4682 65.7124 83.4682Z" fill="#E9EDFB"/>
<path d="M65.4705 87.1249H33.0194C32.5362 87.1249 32.1445 87.4977 32.1445 87.9576V88.5127C32.1445 88.9726 32.5362 89.3455 33.0194 89.3455H65.4705C65.9537 89.3455 66.3454 88.9726 66.3454 88.5127V87.9576C66.3454 87.4977 65.9537 87.1249 65.4705 87.1249Z" fill="#E9EDFB"/>
<path d="M44.0277 91.6189H32.7776C32.428 91.6189 32.1445 91.8886 32.1445 92.2214V92.6231C32.1445 92.9559 32.428 93.2256 32.7776 93.2256H44.0277C44.3773 93.2256 44.6607 92.9559 44.6607 92.6231V92.2214C44.6607 91.8886 44.3773 91.6189 44.0277 91.6189Z" fill="#E9EDFB"/>
<path d="M65.7124 76.2438H32.7776C32.428 76.2438 32.1445 76.5135 32.1445 76.8463V77.248C32.1445 77.5808 32.428 77.8506 32.7776 77.8506H65.7124C66.062 77.8506 66.3454 77.5808 66.3454 77.248V76.8463C66.3454 76.5135 66.062 76.2438 65.7124 76.2438Z" fill="#E9EDFB"/>
<path d="M65.7124 79.8237H32.7776C32.428 79.8237 32.1445 80.0934 32.1445 80.4262V80.8279C32.1445 81.1607 32.428 81.4304 32.7776 81.4304H65.7124C66.062 81.4304 66.3454 81.1607 66.3454 80.8279V80.4262C66.3454 80.0934 66.062 79.8237 65.7124 79.8237Z" fill="#E9EDFB"/>
<path d="M65.7124 83.4682H32.7776C32.428 83.4682 32.1445 83.738 32.1445 84.0708V84.4724C32.1445 84.8052 32.428 85.075 32.7776 85.075H65.7124C66.062 85.075 66.3454 84.8052 66.3454 84.4724V84.0708C66.3454 83.738 66.062 83.4682 65.7124 83.4682Z" fill="#E9EDFB"/>
<path d="M65.4705 87.1249H33.0194C32.5362 87.1249 32.1445 87.4977 32.1445 87.9576V88.5127C32.1445 88.9726 32.5362 89.3455 33.0194 89.3455H65.4705C65.9537 89.3455 66.3454 88.9726 66.3454 88.5127V87.9576C66.3454 87.4977 65.9537 87.1249 65.4705 87.1249Z" fill="#E9EDFB"/>
<path d="M44.0277 91.6189H32.7776C32.428 91.6189 32.1445 91.8886 32.1445 92.2214V92.6231C32.1445 92.9559 32.428 93.2256 32.7776 93.2256H44.0277C44.3773 93.2256 44.6607 92.9559 44.6607 92.6231V92.2214C44.6607 91.8886 44.3773 91.6189 44.0277 91.6189Z" fill="#E9EDFB"/>
<path d="M104.082 76.2438H71.1477C70.7981 76.2438 70.5146 76.5135 70.5146 76.8463V77.248C70.5146 77.5808 70.7981 77.8506 71.1477 77.8506H104.082C104.432 77.8506 104.716 77.5808 104.716 77.248V76.8463C104.716 76.5135 104.432 76.2438 104.082 76.2438Z" fill="#E9EDFB"/>
<path d="M104.082 79.8237H71.1477C70.7981 79.8237 70.5146 80.0934 70.5146 80.4262V80.8279C70.5146 81.1607 70.7981 81.4304 71.1477 81.4304H104.082C104.432 81.4304 104.716 81.1607 104.716 80.8279V80.4262C104.716 80.0934 104.432 79.8237 104.082 79.8237Z" fill="#E9EDFB"/>
<path d="M104.082 83.4682H71.1477C70.7981 83.4682 70.5146 83.738 70.5146 84.0708V84.4724C70.5146 84.8052 70.7981 85.075 71.1477 85.075H104.082C104.432 85.075 104.716 84.8052 104.716 84.4724V84.0708C104.716 83.738 104.432 83.4682 104.082 83.4682Z" fill="#E9EDFB"/>
<path d="M103.841 87.1249H71.3895C70.9063 87.1249 70.5146 87.4977 70.5146 87.9576V88.5127C70.5146 88.9726 70.9063 89.3455 71.3895 89.3455H103.841C104.324 89.3455 104.716 88.9726 104.716 88.5127V87.9576C104.716 87.4977 104.324 87.1249 103.841 87.1249Z" fill="#E9EDFB"/>
<path d="M82.3978 91.6189H71.1477C70.7981 91.6189 70.5146 91.8886 70.5146 92.2214V92.6231C70.5146 92.9559 70.7981 93.2256 71.1477 93.2256H82.3978C82.7474 93.2256 83.0308 92.9559 83.0308 92.6231V92.2214C83.0308 91.8886 82.7474 91.6189 82.3978 91.6189Z" fill="#E9EDFB"/>
<path d="M144.873 76.2438H111.939C111.589 76.2438 111.306 76.5135 111.306 76.8463V77.248C111.306 77.5808 111.589 77.8506 111.939 77.8506H144.873C145.223 77.8506 145.507 77.5808 145.507 77.248V76.8463C145.507 76.5135 145.223 76.2438 144.873 76.2438Z" fill="#E9EDFB"/>
<path d="M144.873 79.8237H111.939C111.589 79.8237 111.306 80.0934 111.306 80.4262V80.8279C111.306 81.1607 111.589 81.4304 111.939 81.4304H144.873C145.223 81.4304 145.507 81.1607 145.507 80.8279V80.4262C145.507 80.0934 145.223 79.8237 144.873 79.8237Z" fill="#E9EDFB"/>
<path d="M144.873 83.4682H111.939C111.589 83.4682 111.306 83.738 111.306 84.0708V84.4724C111.306 84.8052 111.589 85.075 111.939 85.075H144.873C145.223 85.075 145.507 84.8052 145.507 84.4724V84.0708C145.507 83.738 145.223 83.4682 144.873 83.4682Z" fill="#E9EDFB"/>
<path d="M144.632 87.1249H112.181C111.697 87.1249 111.306 87.4977 111.306 87.9576V88.5127C111.306 88.9726 111.697 89.3455 112.181 89.3455H144.632C145.115 89.3455 145.507 88.9726 145.507 88.5127V87.9576C145.507 87.4977 145.115 87.1249 144.632 87.1249Z" fill="#E9EDFB"/>
<path d="M123.189 91.6189H111.939C111.589 91.6189 111.306 91.8886 111.306 92.2214V92.6231C111.306 92.9559 111.589 93.2256 111.939 93.2256H123.189C123.538 93.2256 123.822 92.9559 123.822 92.6231V92.2214C123.822 91.8886 123.538 91.6189 123.189 91.6189Z" fill="#E9EDFB"/>
</svg>
