<svg width="92" height="59" viewBox="0 0 92 59" fill="none" xmlns="http://www.w3.org/2000/svg">
<rect x="0.832031" y="0.0065918" width="91.0724" height="13.8523" rx="2" fill="#F2F2F2"/>
<ellipse cx="7.33678" cy="4.66201" rx="2.9569" ry="2.88589" fill="#272E58"/>
<rect x="15.0254" y="2.54578" width="33.1172" height="3" fill="#D9D9D9"/>
<rect x="15.0254" y="8.47192" width="61.5034" height="3" fill="#D9D9D9"/>
<rect x="0.832031" y="15.0133" width="91.0724" height="13.8523" rx="2" fill="#F2F2F2"/>
<ellipse cx="7.33678" cy="19.6687" rx="2.9569" ry="2.88589" fill="#272E58"/>
<rect x="15.0254" y="17.5525" width="33.1172" height="3" fill="#D9D9D9"/>
<rect x="15.0254" y="23.4786" width="61.5034" height="3" fill="#D9D9D9"/>
<rect x="0.832031" y="30.0199" width="91.0724" height="13.8523" rx="2" fill="#F2F2F2"/>
<ellipse cx="7.33678" cy="34.6752" rx="2.9569" ry="2.88589" fill="#272E58"/>
<rect x="15.0254" y="32.5591" width="33.1172" height="3" fill="#D9D9D9"/>
<rect x="15.0254" y="38.4851" width="61.5034" height="3" fill="#D9D9D9"/>
<rect x="0.832031" y="45.0266" width="91.0724" height="13.8523" rx="2" fill="#F2F2F2"/>
<ellipse cx="7.33678" cy="49.682" rx="2.9569" ry="2.88589" fill="#272E58"/>
<rect x="15.0254" y="47.5658" width="33.1172" height="3" fill="#D9D9D9"/>
<rect x="15.0254" y="53.4919" width="61.5034" height="3" fill="#D9D9D9"/>
</svg>
