<?xml version="1.0" encoding="UTF-8"?>
<!-- Generator: Adobe Illustrator 26.3.1, SVG Export Plug-In . SVG Version: 6.00 Build 0)  -->
<svg version="1.1" id="CREA" xmlns="http://www.w3.org/2000/svg" xmlns:xlink="http://www.w3.org/1999/xlink" x="0px" y="0px" viewBox="0 0 1291.12 753.85" style="enable-background:new 0 0 1291.12 753.85;" xml:space="preserve">
<style type="text/css">
	.st0{fill:#000091;}
	.st1{fill:#E1000F;}
	.st2{fill:#9D9D9C;}
</style>
<path d="M211.46,732.09c1.71,0,3.2,1.3,2.41,4.58l-7.96,1.85C207.29,734.82,209.61,732.09,211.46,732.09 M215.86,744.91h-1.57  c-1.99,2.36-4.12,4.21-6.25,4.21c-2.18,0-3.29-1.3-3.29-4.21c0-1.2,0.14-2.41,0.37-3.52l12.83-4.21c2.5-5.93-0.51-8.52-4.03-8.52  c-6.07,0-12.97,10.14-12.97,19.03c0,3.98,1.9,6.16,4.86,6.16C209.28,753.85,212.89,750.47,215.86,744.91 M213.31,726.3l9.03-8.43  v-0.97h-4.86l-5.56,9.4H213.31L213.31,726.3z M185.62,732.22h4.26l-6.76,18.48c-0.6,1.57,0.23,3.15,1.85,3.15  c3.84,0,10.05-3.8,12.23-8.98H196c-1.71,1.81-5,4.21-7.83,4.72l6.21-17.37h6.34l0.79-2.64h-6.16l2.36-6.67h-2.45l-4.4,6.67  l-5.23,0.74L185.62,732.22L185.62,732.22z M179.88,731.34c0.51-1.71-0.65-2.69-1.53-2.69c-3.7,0-8.1,3.33-9.86,8.01h1.2  c1.2-1.71,3.24-3.61,5.14-3.94l-7.08,18.43c-0.65,1.71,0.65,2.69,1.53,2.69c3.52,0,7.64-3.38,9.4-8.01h-1.2  c-1.2,1.71-3.24,3.61-5.14,3.94L179.88,731.34z M181.17,722.08c1.67,0,3.06-1.34,3.06-3.06c0-1.67-1.39-3.06-3.06-3.06  c-1.71,0-3.06,1.39-3.06,3.06C178.12,720.74,179.46,722.08,181.17,722.08 M140.38,750.42c-0.93,2.08,0.05,3.43,2.08,3.43  c1.25,0,1.81-0.32,2.32-1.67l4.91-13.01c2.27-2.78,6.95-5.74,8.8-5.74c1.34,0,1.16,1.11,0.28,2.78l-7.55,14.49  c-0.74,1.44,0.23,3.15,1.85,3.15c3.7,0,8.1-3.33,9.86-8.01h-1.2c-1.2,1.71-3.24,3.61-5.14,3.94l6.48-13.1  c0.83-1.67,1.25-3.24,1.25-4.49c0-2.13-1.2-3.52-3.43-3.52c-3.2,0-6.44,3.61-10.28,8.06v-3.43c0-2.45-0.79-4.63-3.01-4.63  c-1.39,0-2.73,1.2-3.98,2.92v0.46c2.41-0.14,3.47,3.47,1.76,7.27L140.38,750.42z M140.29,734.31c0.88-3.01,0.42-5.65-1.9-5.65  c-2.73,0-3.43,2.08-6.21,8.06v-3.43c0-2.45-0.79-4.63-3.01-4.63c-2.59,0-4.95,4.03-6.76,8.01h1.2c1.25-1.81,2.41-2.87,3.33-2.87  c1.11,0,1.71,1.71,0,5.51l-5,11.11c-0.93,2.08,0.05,3.43,2.08,3.43c1.25,0,1.81-0.32,2.32-1.67l4.91-13.01  c1.39-1.71,2.64-3.2,4.21-4.86H140.29z M111.85,732.09c1.71,0,3.2,1.3,2.41,4.58l-7.96,1.85C107.69,734.82,110,732.09,111.85,732.09   M116.25,744.91h-1.57c-1.99,2.36-4.12,4.21-6.25,4.21c-2.18,0-3.29-1.3-3.29-4.21c0-1.2,0.14-2.41,0.37-3.52l12.83-4.21  c2.5-5.93-0.51-8.52-4.03-8.52c-6.07,0-12.97,10.14-12.97,19.03c0,3.98,1.9,6.16,4.86,6.16  C109.68,753.85,113.29,750.47,116.25,744.91 M86.02,732.22h4.26l-6.76,18.48c-0.6,1.57,0.23,3.15,1.85,3.15  c3.84,0,10.05-3.8,12.23-8.98h-1.2c-1.71,1.81-5,4.21-7.83,4.72l6.21-17.37h6.34l0.79-2.64h-6.16l2.36-6.67h-2.45l-4.4,6.67  l-5.23,0.74v1.9H86.02z M62.63,746.63c0-5.7,6.34-13.43,9.91-13.43c0.79,0,1.53,0.09,2.18,0.28l-3.7,9.86  c-2.13,2.59-5.42,5.74-6.95,5.74C63.19,749.08,62.63,748.34,62.63,746.63 M82.13,727.59l-1.94-0.14l-2.18,2.13h-0.46  c-10.56,0-19.68,11.85-19.68,20.47c0,2.41,1.48,3.8,3.8,3.8c2.73,0,5.42-3.89,8.43-8.06l-0.14,1.48c-0.37,4.26,0.93,6.58,3.15,6.58  c2.59,0,4.95-4.03,6.76-8.01h-1.2c-1.25,1.81-2.41,2.87-3.33,2.87c-0.97,0-1.67-1.76,0-5.51L82.13,727.59z M59.62,734.31  c0.88-3.01,0.42-5.65-1.9-5.65c-2.73,0-3.43,2.08-6.21,8.06v-3.43c0-2.45-0.79-4.63-3.01-4.63c-2.59,0-4.95,4.03-6.76,8.01h1.2  c1.25-1.81,2.41-2.87,3.33-2.87c1.11,0,1.71,1.71,0,5.51l-5,11.11c-0.93,2.08,0.05,3.43,2.08,3.43c1.25,0,1.81-0.32,2.32-1.67  l4.91-13.01c1.39-1.71,2.64-3.2,4.21-4.86H59.62z M24.15,752.92l0.46-1.44c-6.16-1.16-6.95-1.16-4.49-7.87l2.5-6.9h6.81  c3.06,0,3.1,1.25,2.64,4.58h1.76l4.08-11.16h-1.76c-1.53,2.64-2.73,4.58-6.07,4.58h-6.71l3.57-9.77c1.11-3.1,1.76-3.75,5.93-3.75  h2.96c4.31,0,4.82,1.16,4.82,5.51h1.71l1.44-7.59H18.22l-0.46,1.44c4.95,1.02,5.42,1.48,3.1,7.87l-5.56,15.19  c-2.32,6.34-3.29,6.85-8.98,7.87l-0.42,1.44H24.15z"/>
<path d="M149.46,674.2c1.71,0,3.2,1.3,2.41,4.58l-7.96,1.85C145.29,676.93,147.6,674.2,149.46,674.2 M153.85,687.03h-1.57  c-1.99,2.36-4.12,4.21-6.25,4.21c-2.18,0-3.29-1.3-3.29-4.21c0-1.2,0.14-2.41,0.37-3.52l12.83-4.21c2.5-5.93-0.51-8.52-4.03-8.52  c-6.07,0-12.97,10.14-12.97,19.03c0,3.98,1.9,6.16,4.86,6.16C147.28,695.97,150.89,692.59,153.85,687.03 M151.31,668.41l9.03-8.43  v-0.97h-4.86l-5.56,9.4H151.31L151.31,668.41z M123.62,674.34h4.26l-6.76,18.48c-0.6,1.57,0.23,3.15,1.85,3.15  c3.84,0,10.05-3.8,12.23-8.98H134c-1.71,1.81-5,4.21-7.83,4.72l6.21-17.37h6.34l0.79-2.64h-6.16l2.36-6.67h-2.45l-4.4,6.67  l-5.23,0.74v1.9H123.62z M117.87,673.46c0.51-1.71-0.65-2.69-1.53-2.69c-3.7,0-8.1,3.33-9.86,8.01h1.2c1.2-1.71,3.24-3.61,5.14-3.94  l-7.08,18.43c-0.65,1.71,0.65,2.69,1.53,2.69c3.52,0,7.64-3.38,9.4-8.01h-1.2c-1.2,1.71-3.24,3.61-5.14,3.94L117.87,673.46z   M119.17,664.2c1.67,0,3.06-1.34,3.06-3.06c0-1.67-1.39-3.06-3.06-3.06c-1.71,0-3.06,1.39-3.06,3.06  C116.12,662.86,117.46,664.2,119.17,664.2 M94.54,691.89l12.92-33.85l-0.42-0.51l-8.1,0.93v0.97l1.57,1.2  c1.44,1.11,0.97,2.18-0.32,5.6L90.1,692.81c-0.74,1.44,0.23,3.15,1.85,3.15c3.7,0,7.64-3.33,9.4-8.01h-1.2  C98.94,689.67,96.43,691.57,94.54,691.89 M69.99,688.74c0-5.7,6.34-13.43,9.91-13.43c0.79,0,1.53,0.09,2.18,0.28l-3.7,9.86  c-2.13,2.59-5.42,5.74-6.95,5.74C70.55,691.2,69.99,690.46,69.99,688.74 M89.49,669.71l-1.94-0.14l-2.18,2.13h-0.46  c-10.56,0-19.68,11.85-19.68,20.47c0,2.41,1.48,3.8,3.8,3.8c2.73,0,5.42-3.89,8.43-8.06l-0.14,1.48c-0.37,4.26,0.93,6.58,3.15,6.58  c2.59,0,4.95-4.03,6.76-8.01h-1.2c-1.25,1.81-2.41,2.87-3.33,2.87c-0.97,0-1.67-1.76,0-5.51L89.49,669.71z M42.35,700.46  c0-2.45,2.36-3.98,5.74-5.33c1.11,0.56,2.78,1.16,5,1.9c3.52,1.16,4.86,1.62,4.86,2.69c0,2.27-3.84,3.98-9.08,3.98  C44.48,703.7,42.35,702.77,42.35,700.46 M51.93,685.5c-1.53,0-2.13-1.3-2.13-2.78c0-4.12,2.22-10.19,5.7-10.19  c1.53,0,2.13,1.3,2.13,2.78C57.63,679.43,55.41,685.5,51.93,685.5 M61.98,698.19c0-2.96-2.64-4.03-6.95-5.33  c-3.7-1.11-5.37-1.44-5.37-2.64c0-0.97,0.79-2.13,2.36-2.96c6.07-0.32,10-5.79,10-10.37c0-0.97-0.19-1.81-0.51-2.55h5.14l0.79-2.64  h-8.15c-0.97-0.6-2.13-0.93-3.29-0.93c-6.44,0-10.6,5.65-10.6,10.23c0,3.47,2.22,5.65,4.91,6.16c-3.01,1.34-4.68,2.92-4.68,4.77  c0,1.07,0.37,1.81,1.25,2.5c-6.95,2.04-9.68,4.35-9.68,7.64c0,3.2,4.21,4.54,9.22,4.54C54.9,706.62,61.98,702.03,61.98,698.19   M29.61,678.37c3.06,0,3.1,1.25,2.64,4.58h1.76l4.08-11.16h-1.76c-1.53,2.64-2.73,4.58-6.07,4.58h-6.71l3.38-9.31  c1.11-3.1,1.76-3.7,5.93-3.7h2.96c4.31,0,4.82,1.16,4.82,5.46h1.71l1.44-7.59H18.22l-0.46,1.44c4.95,1.02,5.42,1.48,3.1,7.87  l-5.56,15.19c-2.32,6.34-3.29,6.85-8.98,7.87l-0.42,1.44h28.43l5.09-8.06h-1.94c-3.24,3.06-7.32,5.97-13.01,5.97  c-7.55,0-6.85-0.32-4.35-7.22l2.69-7.36L29.61,678.37L29.61,678.37z M33.32,658.97l9.03-6.21v-0.97h-5.46l-5,7.18H33.32z"/>
<path d="M146.44,616.32c1.71,0,3.2,1.3,2.41,4.58l-7.96,1.85C142.28,619.05,144.59,616.32,146.44,616.32 M150.84,629.14h-1.57  c-1.99,2.36-4.12,4.21-6.25,4.21c-2.18,0-3.29-1.3-3.29-4.21c0-1.2,0.14-2.41,0.37-3.52l12.83-4.21c2.5-5.93-0.51-8.52-4.03-8.52  c-6.07,0-12.97,10.14-12.97,19.03c0,3.98,1.9,6.16,4.86,6.16C144.27,638.08,147.88,634.7,150.84,629.14 M148.3,610.53l9.03-8.43  v-0.97h-4.86l-5.56,9.4H148.3L148.3,610.53z M121.76,616.46h3.38l-6.76,18.48c-0.6,1.57,0.23,3.15,1.85,3.15  c3.84,0,10.05-3.8,12.23-8.98h-1.2c-1.71,1.81-5,4.21-7.83,4.72l6.21-17.37h6.34l0.79-2.64h-6.16l2.36-6.67h-2.45l-4.4,6.67  l-4.35,0.74v1.9H121.76z M118.43,618.54c0.88-3.01,0.42-5.65-1.9-5.65c-2.73,0-3.43,2.08-6.21,8.06v-3.43  c0-2.45-0.79-4.63-3.01-4.63c-2.59,0-4.95,4.03-6.76,8.01h1.2c1.25-1.81,2.41-2.87,3.33-2.87c1.11,0,1.71,1.71,0,5.51l-5,11.11  c-0.93,2.08,0.05,3.43,2.08,3.43c1.25,0,1.81-0.32,2.32-1.67l4.91-13.01c1.39-1.71,2.64-3.2,4.21-4.86H118.43z M90,616.32  c1.71,0,3.2,1.3,2.41,4.58l-7.96,1.85C85.83,619.05,88.15,616.32,90,616.32 M94.4,629.14h-1.57c-1.99,2.36-4.12,4.21-6.25,4.21  c-2.18,0-3.29-1.3-3.29-4.21c0-1.2,0.14-2.41,0.37-3.52l12.83-4.21c2.5-5.93-0.51-8.52-4.03-8.52c-6.07,0-12.97,10.14-12.97,19.03  c0,3.98,1.9,6.16,4.86,6.16C87.82,638.08,91.43,634.7,94.4,629.14 M62.95,634.33c-1.25,0-3.06-1.16-3.06-2.18  c0-0.32,0.56-1.76,1.25-3.57l2.08-5.51c2.22-2.64,5.6-5.46,7.5-5.46c1.16,0,2.04,0.74,2.04,2.45  C72.77,625.12,68.05,634.33,62.95,634.33 M77.54,618.03c0-3.75-1.39-5.14-3.98-5.14c-3.24,0-6.3,3.43-9.35,7.59l7.73-20.33  l-0.42-0.51l-8.1,0.93v0.97l1.57,1.2c1.44,1.11,0.97,2.27-0.32,5.6l-8.34,21.49c-0.6,1.57-1.34,3.43-1.34,3.94  c0,2.22,3.01,4.31,5.74,4.31C67.03,638.08,77.54,626.74,77.54,618.03 M52.35,615.58c0.51-1.71-0.65-2.69-1.53-2.69  c-3.7,0-8.1,3.33-9.86,8.01h1.2c1.2-1.71,3.24-3.61,5.14-3.94l-7.08,18.43c-0.65,1.71,0.65,2.69,1.53,2.69  c3.52,0,7.64-3.38,9.4-8.01h-1.21c-1.2,1.71-3.24,3.61-5.14,3.94L52.35,615.58z M53.65,606.32c1.67,0,3.06-1.34,3.06-3.06  c0-1.67-1.39-3.06-3.06-3.06c-1.71,0-3.06,1.39-3.06,3.06C50.59,604.97,51.93,606.32,53.65,606.32 M34.99,603.35H18.13l-0.46,1.44  c4.95,1.02,5.42,1.48,3.1,7.87l-5.46,15.19c-2.32,6.34-3.29,6.85-8.98,7.87l-0.42,1.44h25.65l5.56-9.91h-1.94  c-3.15,3.47-6.85,7.83-12.55,7.83c-4.31,0-4.82-0.74-2.5-7.22l5.46-15.19c2.27-6.34,3.29-6.85,8.98-7.87L34.99,603.35z"/>
<g>
	<path d="M6.48,127.4h15.93l15.39,26.46l15.39-26.46h15.93v63H56.34v-45.18L42.3,168.8h-9l-14.04-23.58v45.18H6.48V127.4z"/>
	<path d="M86.76,127.4h12.78v63H86.76V127.4z"/>
	<path d="M117.27,127.4h16.38l28.17,45.54V127.4h12.78v63h-16.38l-28.17-45.54v45.54h-12.78V127.4z"/>
	<path d="M192.33,127.4h12.78v63h-12.78V127.4z"/>
	<path d="M226.44,173.12c3.78,4.86,8.82,7.74,13.95,7.74c5.04,0,8.1-2.7,8.1-7.2c0-11.61-28.62-8.46-28.62-29.79   c0-9.99,8.28-18.27,20.34-18.27c9.45,0,16.65,4.23,22.05,10.62l-9.36,8.46c-3.69-4.77-7.83-7.92-12.6-7.92   c-4.5,0-7.47,2.88-7.47,6.66c0,11.43,28.62,8.19,28.62,29.79c-0.18,11.88-9.45,18.99-20.97,18.99c-10.62,0-17.73-3.87-23.31-10.53   L226.44,173.12z"/>
	<path d="M268.02,127.4h51.66v11.61h-19.44v51.39h-12.78v-51.39h-19.44V127.4z"/>
	<path d="M331.02,127.4h36.72v10.62H343.8v14.94h20.34v10.62H343.8v16.2h23.94v10.62h-36.72V127.4z M332.1,109.85h13.14L355.41,122   h-11.7L332.1,109.85z"/>
	<path d="M382.68,127.4h19.26c13.86,0,22.41,7.11,22.41,18.81c0,7.65-3.69,13.32-10.17,16.29l19.71,27.9h-15.03l-16.83-25.47h-6.57   v25.47h-12.78L382.68,127.4L382.68,127.4z M395.45,138.02v16.29h7.2c5.4,0,8.55-3.15,8.55-8.28c0-4.77-3.15-8.01-8.55-8.01H395.45z   "/>
	<path d="M442.07,127.4h36.72v10.62h-23.94v14.94h20.34v10.62h-20.34v16.2h23.94v10.62h-36.72V127.4z"/>
	<path d="M497.33,173.12c3.78,4.86,8.82,7.74,13.95,7.74c5.04,0,8.1-2.7,8.1-7.2c0-11.61-28.62-8.46-28.62-29.79   c0-9.99,8.28-18.27,20.34-18.27c9.45,0,16.65,4.23,22.05,10.62l-9.36,8.46c-3.69-4.77-7.83-7.92-12.6-7.92   c-4.5,0-7.47,2.88-7.47,6.66c0,11.43,28.62,8.19,28.62,29.79c-0.18,11.88-9.45,18.99-20.97,18.99c-10.62,0-17.73-3.87-23.31-10.53   L497.33,173.12z"/>
	<path d="M0,219.4h51.66v11.61H32.22v51.39H19.44v-51.39H0V219.4z"/>
	<path d="M63,219.4h19.26c13.86,0,22.41,7.11,22.41,18.81c0,7.65-3.69,13.32-10.17,16.29l19.71,27.9H99.18l-16.83-25.47h-6.57v25.47   H63L63,219.4L63,219.4z M75.78,230.02v16.29h7.2c5.4,0,8.55-3.15,8.55-8.28c0-4.77-3.15-8.01-8.55-8.01H75.78z"/>
	<path d="M141.03,219.4h16.74l23.85,63h-13.59L162,266.02h-25.2l-6.03,16.38h-13.59L141.03,219.4z M158.04,255.13l-8.64-23.67   l-8.64,23.67H158.04z"/>
	<path d="M191.43,219.4h16.38l28.17,45.54V219.4h12.78v63h-16.38l-28.17-45.54v45.54h-12.78V219.4z"/>
	<path d="M270.08,265.12c3.78,4.86,8.82,7.74,13.95,7.74c5.04,0,8.1-2.7,8.1-7.2c0-11.61-28.62-8.46-28.62-29.79   c0-9.99,8.28-18.27,20.34-18.27c9.45,0,16.65,4.23,22.05,10.62l-9.36,8.46c-3.69-4.77-7.83-7.92-12.6-7.92   c-4.5,0-7.47,2.88-7.47,6.66c0,11.43,28.62,8.19,28.62,29.79c-0.18,11.88-9.45,18.99-20.97,18.99c-10.62,0-17.73-3.87-23.31-10.53   L270.08,265.12z"/>
	<path d="M318.6,219.4h12.78v63H318.6V219.4z"/>
	<path d="M342.62,219.4h51.66v11.61h-19.44v51.39h-12.78v-51.39h-19.44V219.4z"/>
	<path d="M405.62,219.4h12.78v63h-12.78V219.4z"/>
	<path d="M497.6,250.9c0,18-13.59,33.3-33.39,33.3c-19.89,0-33.48-15.3-33.48-33.3s13.59-33.3,33.48-33.3   C484.01,217.6,497.6,232.9,497.6,250.9z M484.46,250.9c0-12.06-8.46-21.33-20.25-21.33c-11.88,0-20.34,9.27-20.34,21.33   s8.46,21.33,20.34,21.33C476,272.22,484.46,262.95,484.46,250.9z"/>
	<path d="M509.93,219.4h16.38l28.17,45.54V219.4h12.78v63h-16.38l-28.17-45.54v45.54h-12.78V219.4z"/>
	<path d="M608.48,219.4h36.72v10.62h-23.94v14.94h20.34v10.62h-20.34v16.2h23.94v10.62h-36.72L608.48,219.4L608.48,219.4z    M620.9,214l10.17-12.15h13.14L632.51,214H620.9z"/>
	<path d="M703.25,263.59l10.08,7.74c-5.76,7.83-15.12,12.87-26.55,12.87c-19.89,0-33.48-15.3-33.48-33.3s13.59-33.3,33.48-33.3   c11.43,0,20.79,5.13,26.55,12.78l-10.08,7.83c-3.6-5.13-9.27-8.64-16.47-8.64c-11.88,0-20.34,9.27-20.34,21.33   s8.46,21.33,20.34,21.33C693.98,272.22,699.65,268.71,703.25,263.59z"/>
	<path d="M785.51,250.9c0,18-13.59,33.3-33.39,33.3c-19.89,0-33.48-15.3-33.48-33.3s13.59-33.3,33.48-33.3   C771.92,217.6,785.51,232.9,785.51,250.9z M772.37,250.9c0-12.06-8.46-21.33-20.25-21.33c-11.88,0-20.34,9.27-20.34,21.33   s8.46,21.33,20.34,21.33C763.91,272.22,772.37,262.95,772.37,250.9z"/>
	<path d="M797.84,219.4h12.78v51.39h23.94v11.61h-36.72V219.4z"/>
	<path d="M905.12,250.9c0,18-13.59,33.3-33.39,33.3c-19.89,0-33.48-15.3-33.48-33.3s13.59-33.3,33.48-33.3   C891.53,217.6,905.12,232.9,905.12,250.9z M891.98,250.9c0-12.06-8.46-21.33-20.25-21.33c-11.88,0-20.34,9.27-20.34,21.33   s8.46,21.33,20.34,21.33C883.52,272.22,891.98,262.95,891.98,250.9z"/>
	<path d="M962.72,266.74v-10.98H946.7v-10.89h28.8v26.46c-5.85,7.83-15.66,12.87-27.45,12.87c-20.43,0-34.38-15.3-34.38-33.3   s13.59-33.3,33.48-33.3c11.43,0,20.79,5.13,26.55,12.78l-10.08,7.83c-3.6-5.13-9.27-8.64-16.47-8.64   c-11.88,0-20.34,9.27-20.34,21.33s8.91,21.33,21.24,21.33C953.99,272.22,959.12,270.16,962.72,266.74z"/>
	<path d="M989.81,219.4h12.78v63h-12.78V219.4z"/>
	<path d="M1086.38,286.8c1.35,0,3.15-0.18,4.5-0.72v10.8c-2.07,0.81-3.87,1.17-6.66,1.17c-7.02,0-13.5-2.88-19.71-8.28l-7.47-6.66   c-2.7,0.72-5.58,1.08-8.64,1.08c-19.89,0-33.48-15.3-33.48-33.3s13.59-33.3,33.48-33.3c19.8,0,33.39,15.3,33.39,33.3   c0,10.53-4.68,20.16-12.42,26.28l3.78,3.6C1078.01,285.18,1082.33,286.8,1086.38,286.8z M1068.65,250.9   c0-12.06-8.46-21.33-20.25-21.33c-11.88,0-20.34,9.27-20.34,21.33s8.46,21.33,20.34,21.33   C1060.19,272.22,1068.65,262.95,1068.65,250.9z"/>
	<path d="M1131.29,219.4h12.78v38.34c0,16.56-9.72,26.46-25.56,26.46c-15.75,0-25.47-9.9-25.47-26.46V219.4h12.78v39.42   c0,8.46,4.77,13.41,12.78,13.41c7.83,0,12.69-4.95,12.69-13.41V219.4z"/>
	<path d="M1160,219.4h36.72v10.62h-23.94v14.94h20.34v10.62h-20.34v16.2h23.94v10.62H1160V219.4z"/>
	<path d="M51.03,355.59l10.08,7.74c-5.76,7.83-15.12,12.87-26.55,12.87c-19.89,0-33.48-15.3-33.48-33.3s13.59-33.3,33.48-33.3   c11.43,0,20.79,5.13,26.55,12.78l-10.08,7.83c-3.6-5.13-9.27-8.64-16.47-8.64c-11.88,0-20.34,9.27-20.34,21.33   s8.46,21.33,20.34,21.33C41.76,364.22,47.43,360.71,51.03,355.59z"/>
	<path d="M133.29,342.9c0,18-13.59,33.3-33.39,33.3c-19.89,0-33.48-15.3-33.48-33.3s13.59-33.3,33.48-33.3   C119.7,309.6,133.29,324.9,133.29,342.9z M120.15,342.9c0-12.06-8.46-21.33-20.25-21.33c-11.88,0-20.34,9.27-20.34,21.33   s8.46,21.33,20.34,21.33C111.69,364.22,120.15,354.95,120.15,342.9z"/>
	<path d="M145.62,311.4h12.78v25.11h31.77V311.4h12.78v63h-12.78v-26.28H158.4v26.28h-12.78L145.62,311.4L145.62,311.4z"/>
	<path d="M220.68,311.4h36.72v10.62h-23.94v14.94h20.34v10.62h-20.34v16.2h23.94v10.62h-36.72V311.4z M233.1,306l10.17-12.15h13.14   L244.71,306H233.1z"/>
	<path d="M275.94,357.11c3.78,4.86,8.82,7.74,13.95,7.74c5.04,0,8.1-2.7,8.1-7.2c0-11.61-28.62-8.46-28.62-29.79   c0-9.99,8.28-18.27,20.34-18.27c9.45,0,16.65,4.23,22.05,10.62l-9.36,8.46c-3.69-4.77-7.83-7.92-12.6-7.92   c-4.5,0-7.47,2.88-7.47,6.66c0,11.43,28.62,8.19,28.62,29.79c-0.18,11.88-9.45,18.99-20.97,18.99c-10.62,0-17.73-3.87-23.31-10.53   L275.94,357.11z"/>
	<path d="M324.45,311.4h12.78v63h-12.78V311.4z"/>
	<path d="M416.42,342.9c0,18-13.59,33.3-33.39,33.3c-19.89,0-33.48-15.3-33.48-33.3s13.59-33.3,33.48-33.3   C402.83,309.6,416.42,324.9,416.42,342.9z M403.28,342.9c0-12.06-8.46-21.33-20.25-21.33c-11.88,0-20.34,9.27-20.34,21.33   s8.46,21.33,20.34,21.33C394.82,364.22,403.28,354.95,403.28,342.9z"/>
	<path d="M428.76,311.4h16.38l28.17,45.54V311.4h12.78v63h-16.38l-28.17-45.54v45.54h-12.78L428.76,311.4L428.76,311.4z"/>
	<path d="M527.3,311.4h24.75c19.98,0,33.48,14.49,33.48,31.5s-13.5,31.5-33.48,31.5H527.3V311.4z M540.08,323.01v39.78h12.15   c11.7,0,20.16-8.73,20.16-19.89c0-11.25-8.46-19.89-20.16-19.89L540.08,323.01L540.08,323.01z"/>
	<path d="M597.95,311.4h36.72v10.62h-23.94v14.94h20.34v10.62h-20.34v16.2h23.94v10.62h-36.72V311.4z"/>
	<path d="M653.21,357.11c3.78,4.86,8.82,7.74,13.95,7.74c5.04,0,8.1-2.7,8.1-7.2c0-11.61-28.62-8.46-28.62-29.79   c0-9.99,8.28-18.27,20.34-18.27c9.45,0,16.65,4.23,22.05,10.62l-9.36,8.46c-3.69-4.77-7.83-7.92-12.6-7.92   c-4.5,0-7.47,2.88-7.47,6.66c0,11.43,28.62,8.19,28.62,29.79c-0.18,11.88-9.45,18.99-20.97,18.99c-10.62,0-17.73-3.87-23.31-10.53   L653.21,357.11z"/>
	<path d="M718.73,311.4h51.66v11.61h-19.44v51.39h-12.78v-51.39h-19.44L718.73,311.4L718.73,311.4z"/>
	<path d="M781.73,311.4h36.72v10.62h-23.94v14.94h20.34v10.62h-20.34v16.2h23.94v10.62h-36.72L781.73,311.4L781.73,311.4z"/>
	<path d="M833.39,311.4h19.26c13.86,0,22.41,7.11,22.41,18.81c0,7.65-3.69,13.32-10.17,16.29l19.71,27.9h-15.03l-16.83-25.47h-6.57   v25.47h-12.78L833.39,311.4L833.39,311.4z M846.17,322.02v16.29h7.2c5.4,0,8.55-3.15,8.55-8.28c0-4.77-3.15-8.01-8.55-8.01H846.17z   "/>
	<path d="M892.79,311.4h19.26c13.86,0,22.41,7.11,22.41,18.81c0,7.65-3.69,13.32-10.17,16.29L944,374.4h-15.03l-16.83-25.47h-6.57   v25.47h-12.78L892.79,311.4L892.79,311.4z M905.57,322.02v16.29h7.2c5.4,0,8.55-3.15,8.55-8.28c0-4.77-3.15-8.01-8.55-8.01H905.57z   "/>
	<path d="M952.19,311.4h12.78v63h-12.78V311.4z"/>
	<path d="M976.22,311.4h51.66v11.61h-19.44v51.39h-12.78v-51.39h-19.44L976.22,311.4L976.22,311.4z"/>
	<path d="M1097.8,342.9c0,18-13.59,33.3-33.39,33.3c-19.89,0-33.48-15.3-33.48-33.3s13.59-33.3,33.48-33.3   C1084.21,309.6,1097.8,324.9,1097.8,342.9z M1084.66,342.9c0-12.06-8.46-21.33-20.25-21.33c-11.88,0-20.34,9.27-20.34,21.33   s8.46,21.33,20.34,21.33C1076.2,364.22,1084.66,354.95,1084.66,342.9z"/>
	<path d="M1110.13,311.4h12.78v63h-12.78V311.4z"/>
	<path d="M1140.64,311.4h19.26c13.86,0,22.41,7.11,22.41,18.81c0,7.65-3.69,13.32-10.17,16.29l19.71,27.9h-15.03l-16.83-25.47h-6.57   v25.47h-12.78V311.4z M1153.42,322.02v16.29h7.2c5.4,0,8.55-3.15,8.55-8.28c0-4.77-3.15-8.01-8.55-8.01H1153.42z"/>
	<path d="M1200.04,311.4h36.72v10.62h-23.94v14.94h20.34v10.62h-20.34v16.2h23.94v10.62h-36.72V311.4z"/>
	<path d="M1255.3,357.11c3.78,4.86,8.82,7.74,13.95,7.74c5.04,0,8.1-2.7,8.1-7.2c0-11.61-28.62-8.46-28.62-29.79   c0-9.99,8.28-18.27,20.34-18.27c9.45,0,16.65,4.23,22.05,10.62l-9.36,8.46c-3.69-4.77-7.83-7.92-12.6-7.92   c-4.5,0-7.47,2.88-7.47,6.66c0,11.43,28.62,8.19,28.62,29.79c-0.18,11.88-9.45,18.99-20.97,18.99c-10.62,0-17.73-3.87-23.31-10.53   L1255.3,357.11z"/>
	<path d="M0,403.4h51.66v11.61H32.22v51.39H19.44v-51.39H0V403.4z"/>
	<path d="M63,403.4h19.26c13.86,0,22.41,7.11,22.41,18.81c0,7.65-3.69,13.32-10.17,16.29l19.71,27.9H99.18l-16.83-25.47h-6.57v25.47   H63L63,403.4L63,403.4z M75.78,414.02v16.29h7.2c5.4,0,8.55-3.15,8.55-8.28c0-4.77-3.15-8.01-8.55-8.01L75.78,414.02L75.78,414.02z   "/>
	<path d="M141.03,403.4h16.74l23.85,63h-13.59L162,450.02h-25.2l-6.03,16.38h-13.59L141.03,403.4z M158.04,439.13l-8.64-23.67   l-8.64,23.67H158.04z"/>
	<path d="M191.43,403.4h16.38l28.17,45.54V403.4h12.78v63h-16.38l-28.17-45.54v45.54h-12.78V403.4z"/>
	<path d="M270.08,449.11c3.78,4.86,8.82,7.74,13.95,7.74c5.04,0,8.1-2.7,8.1-7.2c0-11.61-28.62-8.46-28.62-29.79   c0-9.99,8.28-18.27,20.34-18.27c9.45,0,16.65,4.23,22.05,10.62l-9.36,8.46c-3.69-4.77-7.83-7.92-12.6-7.92   c-4.5,0-7.47,2.88-7.47,6.66c0,11.43,28.62,8.19,28.62,29.79c-0.18,11.88-9.45,18.99-20.97,18.99c-10.62,0-17.73-3.87-23.31-10.53   L270.08,449.11z"/>
	<path d="M318.6,403.4h12.78v63H318.6V403.4z"/>
	<path d="M342.62,403.4h51.66v11.61h-19.44v51.39h-12.78v-51.39h-19.44V403.4z"/>
	<path d="M405.62,403.4h12.78v63h-12.78V403.4z"/>
	<path d="M497.6,434.9c0,18-13.59,33.3-33.39,33.3c-19.89,0-33.48-15.3-33.48-33.3s13.59-33.3,33.48-33.3   C484.01,401.6,497.6,416.9,497.6,434.9z M484.46,434.9c0-12.06-8.46-21.33-20.25-21.33c-11.88,0-20.34,9.27-20.34,21.33   s8.46,21.33,20.34,21.33C476,456.22,484.46,446.95,484.46,434.9z"/>
	<path d="M509.93,403.4h16.38l28.17,45.54V403.4h12.78v63h-16.38l-28.17-45.54v45.54h-12.78V403.4z"/>
	<path d="M608.48,403.4h36.72v10.62h-23.94v14.94h20.34v10.62h-20.34v16.2h23.94v10.62h-36.72L608.48,403.4L608.48,403.4z    M620.9,398l10.17-12.15h13.14L632.51,398H620.9z"/>
	<path d="M660.14,403.4h16.38l28.17,45.54V403.4h12.78v63h-16.38l-28.17-45.54v45.54h-12.78V403.4z"/>
	<path d="M735.2,403.4h36.72v10.62h-23.94v14.94h20.34v10.62h-20.34v16.2h23.94v10.62H735.2V403.4z"/>
	<path d="M786.86,403.4h19.26c13.86,0,22.41,7.11,22.41,18.81c0,7.65-3.69,13.32-10.17,16.29l19.71,27.9h-15.03l-16.83-25.47h-6.57   v25.47h-12.78L786.86,403.4L786.86,403.4z M799.64,414.02v16.29h7.2c5.4,0,8.55-3.15,8.55-8.28c0-4.77-3.15-8.01-8.55-8.01   L799.64,414.02L799.64,414.02z"/>
	<path d="M889.28,450.74v-10.98h-16.02v-10.89h28.8v26.46c-5.85,7.83-15.66,12.87-27.45,12.87c-20.43,0-34.38-15.3-34.38-33.3   s13.59-33.3,33.48-33.3c11.43,0,20.79,5.13,26.55,12.78l-10.08,7.83c-3.6-5.13-9.27-8.64-16.47-8.64   c-11.88,0-20.34,9.27-20.34,21.33c0,12.06,8.91,21.33,21.24,21.33C880.55,456.22,885.68,454.16,889.28,450.74z"/>
	<path d="M916.37,403.4h36.72v10.62h-23.94v14.94h20.34v10.62h-20.34v16.2h23.94v10.62h-36.72L916.37,403.4L916.37,403.4z    M928.79,398l10.17-12.15h13.14L940.4,398H928.79z"/>
	<path d="M962.9,403.4h51.66v11.61h-19.44v51.39h-12.78v-51.39H962.9L962.9,403.4L962.9,403.4z"/>
	<path d="M1025.9,403.4h12.78v63h-12.78V403.4z"/>
	<path d="M1122.46,470.8c1.35,0,3.15-0.18,4.5-0.72v10.8c-2.07,0.81-3.87,1.17-6.66,1.17c-7.02,0-13.5-2.88-19.71-8.28l-7.47-6.66   c-2.7,0.72-5.58,1.08-8.64,1.08c-19.89,0-33.48-15.3-33.48-33.3s13.59-33.3,33.48-33.3c19.8,0,33.39,15.3,33.39,33.3   c0,10.53-4.68,20.16-12.42,26.28l3.78,3.6C1114.09,469.18,1118.41,470.8,1122.46,470.8z M1104.73,434.9   c0-12.06-8.46-21.33-20.25-21.33c-11.88,0-20.34,9.27-20.34,21.33s8.46,21.33,20.34,21.33   C1096.27,456.22,1104.73,446.95,1104.73,434.9z"/>
	<path d="M1167.37,403.4h12.78v38.34c0,16.56-9.72,26.46-25.56,26.46c-15.75,0-25.47-9.9-25.47-26.46V403.4h12.78v39.42   c0,8.46,4.77,13.41,12.78,13.41c7.83,0,12.69-4.95,12.69-13.41V403.4z"/>
	<path d="M1196.08,403.4h36.72v10.62h-23.94v14.94h20.34v10.62h-20.34v16.2h23.94v10.62h-36.72V403.4z"/>
	<path d="M6.48,495.4h15.93l15.39,26.46l15.39-26.46h15.93v63H56.34v-45.18L42.3,536.8h-9l-14.04-23.58v45.18H6.48V495.4z"/>
	<path d="M86.76,495.4h36.72v10.62H99.54v14.94h20.34v10.62H99.54v16.2h23.94v10.62H86.76V495.4z"/>
	<path d="M138.42,495.4h19.26c13.86,0,22.41,7.11,22.41,18.81c0,7.65-3.69,13.32-10.17,16.29l19.71,27.9H174.6l-16.83-25.47h-6.57   v25.47h-12.78V495.4z M151.2,506.02v16.29h7.2c5.4,0,8.55-3.15,8.55-8.28c0-4.77-3.15-8.01-8.55-8.01L151.2,506.02L151.2,506.02z"/>
</g>
<g>
	<path class="st0" d="M99.07,73.98c0.9-0.9,1.81-1.87,2.71-2.84h-0.02c1.68-1.91,3.33-3.72,5.29-5.39c0.59-0.53,1.17-1,1.72-1.38   c0.16-0.16,0.16-0.48,0.32-0.63c-0.79,0.32-1.27,0.95-2.06,1.27c-0.16,0-0.32-0.16-0.16-0.32c0.56-0.42,1.13-0.85,1.69-1.27   c-0.03,0-0.07,0-0.11,0c-0.16,0-0.16-0.16-0.16-0.32c-2.06-0.32-3.65,1.11-5.07,2.38c-0.32,0.16-0.63-0.16-0.79-0.16   c-2.38,0.79-4.12,2.85-6.5,3.8c0-0.16,0-0.16,0-0.32c-0.95,0.32-1.87,0.89-2.85,1.11c-1.43,0.32-2.69,0.16-3.96,0.16   c-1.92,0.19-3.84,0.62-5.76,1.03c-0.06,0.01-0.11,0.03-0.17,0.04c-1.03,0.28-2,0.67-2.95,1.19c-0.04,0.02-0.07,0.04-0.11,0.06   c-0.08,0.1-0.16,0.19-0.23,0.27c-0.34,0.37-0.63,0.72-1.09,0.95c-0.97,0.5-1.77,1.36-2.63,2.06c-0.06,0.05-0.16,0.07-0.25,0.08   c-0.85,0.82-1.69,1.64-2.55,2.44c-0.06,0.06-0.31,0.09-0.48,0.06c0-0.01,0.01-0.01,0.01-0.01c0.03-0.05,0.06-0.1,0.09-0.15   c0.13-0.22,0.27-0.45,0.41-0.67c0.15-0.25,0.31-0.49,0.47-0.74c0.22-0.33,0.44-0.65,0.67-0.96c0.06-0.08,0.04-0.15-0.01-0.21   c-0.05-0.05-0.13-0.08-0.22-0.08c0.79-0.77,1.73-1.42,2.66-1.99c0-0.01,0-0.02,0-0.03c-0.11,0.04-0.26-0.05-0.18-0.16   c0.1-0.14,0.18-0.29,0.27-0.43c0.02-0.05,0.03-0.09,0.05-0.14c-0.04-0.04-0.08-0.08-0.12-0.13c-0.26,0.17-0.53,0.32-0.74,0.52   c-0.38,0.34-0.68,1.04-1.25,1.03c-0.04,0-0.15-0.01-0.24-0.03c-0.07-0.01-0.13-0.03-0.17-0.06c0.01-0.01,0.01-0.02,0.02-0.04   c0.01-0.01,0.02-0.03,0.02-0.04c0.01-0.01,0.02-0.03,0.02-0.04c0.02-0.05,0.05-0.09,0.08-0.14s0.05-0.09,0.08-0.14   c0.02-0.04,0.04-0.07,0.06-0.11c0.04-0.07,0.07-0.13,0.11-0.2c0.03-0.05,0.06-0.1,0.08-0.14c0.07-0.12,0.14-0.23,0.2-0.35   c0.03-0.06,0.07-0.11,0.1-0.17c0.06-0.1,0.11-0.19,0.17-0.29c0.08-0.13,0-0.24-0.12-0.28c0.29-0.38,0.65-0.7,1.09-0.95h-0.05   c0.61-0.31,1.21-0.68,1.82-1.02c0.09-0.08,0.17-0.15,0.26-0.23c-0.9,0.3-1.72,0.71-2.52,1.24c0,0-0.21,0.09-0.27,0.14   c0,0-0.18,0.07-0.4-0.14c-0.02-0.03-0.04-0.06-0.04-0.12c0.16-0.32,0.63-0.48,0.95-0.79c0.16,0,0.32,0,0.32,0.16   c5.07-3.96,12.04-3.01,17.91-5.07c0.48-0.32,0.95-0.63,1.43-0.95c0.79-0.32,1.43-1.11,2.38-1.58c1.27-0.95,2.22-2.06,2.69-3.64   c0-0.16-0.16-0.32-0.16-0.32c-2.06,2.22-4.44,3.96-6.97,5.23c-3.33,1.74-6.97,1.43-10.46,1.9c0.16-0.32,0.48-0.32,0.79-0.32   c0-0.48,0.32-0.63,0.63-0.95c0.16,0,0.32,0,0.48,0c0.16,0,0.16-0.32,0.32-0.32c0.32,0,0.79-0.16,0.63-0.16   c-0.48-0.63-1.43,0.48-2.22,0c0.32-0.32,0.16-0.79,0.48-0.95c0.16,0,0.48,0,0.63,0c0-0.32,0.32-0.63,0.32-0.63   c2.38-1.43,4.6-2.54,6.81-3.8c-0.48,0-0.79,0.48-1.27,0.16c0.32,0,0-0.48,0.32-0.48c1.74-0.48,3.17-1.43,4.91-2.06   c-0.63,0-1.11,0.48-1.74,0c0.32-0.16,0.48-0.48,0.95-0.48c0-0.16,0-0.32,0-0.48c0-0.16,0.16-0.16,0.32-0.16   c-0.16,0-0.32-0.16-0.32-0.16c0.16-0.32,0.63-0.16,0.95-0.48c-0.16,0-0.48,0-0.48-0.16c0.48-0.63,1.27-0.79,2.06-0.95   c-0.16-0.32-0.63,0-0.63-0.32c0-0.16,0.16-0.16,0.32-0.16c-0.16,0-0.16,0-0.32,0c-0.32-0.16-0.16-0.48-0.16-0.63   c0.95-1.11,0.95-2.54,1.43-3.8c-0.16,0-0.32,0-0.32-0.16c-1.58,1.74-4.12,2.38-6.5,3.01c-0.16,0-0.63,0-0.79,0   c-0.79,0.32-1.9,0.32-2.69-0.16c-0.63-0.32-0.95-0.79-1.58-1.27c-1.27-0.79-2.54-1.43-3.96-1.9c-3.96-1.27-8.08-1.9-12.2-1.74   c1.74-0.95,3.67-1.03,5.55-1.58c2.69-0.79,5.23-1.74,8.08-1.58c-0.48-0.16-1.11,0-1.58,0c-2.22-0.16-4.44,0.48-6.81,0.95   c-1.58,0.32-3.01,0.95-4.6,1.27c-0.95,0.32-1.43,1.27-2.54,1.11c0,0,0-0.32,0-0.48c1.58-1.9,3.49-3.8,6.02-3.96   c2.85-0.48,5.55,0,8.4,0.32c2.06,0.16,3.96,0.63,6.02,1.11c0.79,0,0.95,1.27,1.59,1.43c0.95,0.32,1.9,0,2.85,0.63   c0-0.32-0.16-0.63,0-0.95c0.63-0.63,1.43,0.16,2.06-0.16c1.27-0.79-1.11-2.22-1.74-3.33c0-0.16,0.16-0.32,0.16-0.32   c1.27,1.11,2.22,2.38,3.8,3.17c0.79,0.32,2.69,0.79,2.38-0.16c-0.79-1.74-2.38-3.17-3.64-4.75c0-0.16,0-0.48,0-0.63   c-0.32,0-0.32-0.16-0.48-0.32c0-0.16,0-0.48,0-0.63c-0.63-0.32-0.48-0.95-0.79-1.43c-0.48-0.79-0.16-1.9-0.48-2.85   c-0.32-0.95-0.48-1.74-0.63-2.69c-0.48-2.69-1.11-5.07-1.43-7.61c-0.32-3.01,1.74-5.39,3.17-8.08c1.11-1.9,2.38-3.8,4.44-5.07   c0.48-1.9,1.74-3.49,3.01-5.07c1.27-1.55,3.37-2.49,4.89-3.17c2.21-0.99,4.21-1.61,4.21-1.61H3.72v83.86h77.02   c3.02-2.17,6.03-3.2,10.24-5.28C92.98,77.61,97.53,75.52,99.07,73.98z M74.7,62.63c-0.32,0-0.95,0.16-0.79-0.16   c0.16-0.79,1.27-0.79,1.9-1.11c0.32-0.16,0.79-0.48,1.11-0.32c0.32,0.48,0.79,0.32,1.11,0.63C77.07,62.63,75.81,62.15,74.7,62.63z    M50.45,59.14c0,0-0.16-0.16-0.16-0.32c2.06-2.69,3.64-5.23,5.07-8.08c2.06-1.11,3.77-2.72,5.39-4.44   c2.69-2.85,5.55-5.39,8.87-6.97c1.27-0.48,2.85-0.32,4.12,0.16c-0.48,0.63-1.27,0.48-1.9,0.95c-0.16,0-0.32,0-0.48-0.16   c0.16-0.16,0.16-0.32,0.16-0.48c-1.58,1.74-3.8,2.54-5.07,4.6c-0.95,1.58-1.58,3.65-3.64,4.12c-0.63,0.16,0.16-0.48-0.16-0.32   C57.74,51.21,54.25,54.86,50.45,59.14z M63.6,48.68c-0.16,0.32-0.33,0.35-0.48,0.63c-0.16,0.32-0.32,0.48-0.63,0.63   c-0.16,0-0.32,0-0.32-0.16c0.16-0.63,0.63-1.27,1.27-1.43C63.6,48.36,63.6,48.52,63.6,48.68z M70.96,72.42   c-0.07,0.17-0.23,0.32-0.39,0.46c0.2,0.04,0.34,0.13,0.21,0.25c-0.37,0.34-0.72,0.68-1.2,0.84C69.55,73.98,69.45,74,69.34,74   c-0.19,0.19-0.39,0.37-0.59,0.55c-0.19,0.17-1.06,0.05-0.79-0.19c0.4-0.36,0.77-0.74,1.17-1.11c0.22-0.2,0.46-0.4,0.66-0.63   c0.11-0.13,0.2-0.25,0.34-0.35C70.25,72.19,71.09,72.11,70.96,72.42z M68.12,71.11c-0.01,0.01-0.03,0.02-0.04,0.03   c-0.59,0.42-1.18,0.84-1.81,1.21c-0.68,0.39-1.39,0.69-2.09,1.03c-0.01-0.01-0.01-0.03-0.02-0.04c-0.05-0.07-0.16-0.12-0.27-0.06   c-0.6,0.32-1.11,0.75-1.6,1.21c-0.07,0.07-0.15,0.14-0.22,0.21l-0.01,0.01l-0.01,0.01c-0.08,0.07-0.15,0.15-0.23,0.22   c-0.01,0.01-0.02,0.02-0.03,0.03l-0.01,0.01c-0.11,0.11-0.22,0.23-0.34,0.37c-0.08,0.09-0.11,0.15-0.21,0.22s-0.37,0.06-0.35-0.12   c0-0.01,0-0.02,0-0.03c-0.09,0.05-0.19,0.1-0.28,0.14s-0.17,0.09-0.25,0.14c-0.03-0.01-0.07-0.02-0.11-0.02s-0.08,0.01-0.11,0.04   c-0.19,0.15-0.39,0.31-0.57,0.48c-0.33,0.3-0.64,0.63-0.92,0.98c-0.01,0-0.01,0.01-0.01,0.01c-0.01,0.01-0.02,0.03-0.03,0.04   c-0.02,0.02-0.03,0.04-0.05,0.06s-0.03,0.04-0.05,0.07c0,0.01-0.01,0.01-0.02,0.02c-0.04,0.05-0.07,0.11-0.11,0.16   c0,0,0,0.01-0.01,0.01c-0.03,0.03-0.07,0.05-0.13,0.06c-0.02-0.03-0.04-0.06-0.06-0.09c-0.02-0.02-0.03-0.05-0.04-0.08   c-0.05-0.08-0.09-0.17-0.14-0.25v-0.01c-0.01-0.03-0.03-0.05-0.04-0.08c0.17-0.18,0.34-0.38,0.5-0.57   c0.01-0.01,0.02-0.03,0.03-0.04c0.06-0.07,0.11-0.14,0.16-0.2c0.09-0.11,0.18-0.23,0.27-0.34c0.03-0.04,0.06-0.08,0.1-0.13   c0.17-0.23,0.34-0.45,0.5-0.67c0-0.01,0.01-0.01,0.01-0.02c0.02-0.03,0.05-0.07,0.07-0.1c0.08-0.11,0.15-0.23,0.22-0.34   c0.06-0.1,0.12-0.21,0.17-0.32c0-0.01,0.01-0.02,0.01-0.02c0.01-0.01,0.01-0.02,0.02-0.03c0.01-0.02,0.02-0.04,0.03-0.06   c0.06-0.12,0.11-0.24,0.15-0.37c0-0.01,0.01-0.03,0.01-0.04c0.01-0.03,0.02-0.07,0.04-0.1c0.02-0.06,0.03-0.12,0.05-0.17l0,0   c0-0.01,0.01-0.03,0.01-0.04c0.02-0.08,0.04-0.15,0.06-0.23c0.01-0.04,0-0.08-0.02-0.11c0.17-0.3,0.38-0.58,0.63-0.86   c-0.02,0.01-0.05,0.03-0.07,0.04c-0.23,0.15-0.38,0.35-0.59,0.51c-0.17,0.13-0.49-0.08-0.29-0.24c0.14-0.1,0.24-0.22,0.36-0.33   c0.01-0.01,0.01-0.02,0.02-0.03c0.26-0.26,0.51-0.59,0.81-0.8c0.18-0.13,0.34-0.24,0.49-0.37c0.02-0.02,0.05-0.04,0.07-0.06   c0.11-0.15,0.23-0.28,0.35-0.4c0.01-0.01,0.01-0.01,0.02-0.02c1.52-1.46,4.07-1.4,6.07-2.33c0.79-0.32,1.74,0.16,2.54,0   c0.48,0,0.95,0,1.43,0.32C70.74,69.42,69.42,70.3,68.12,71.11z M71.37,60.09c-0.16-0.16,0.48,0,0.63-0.32c-0.48,0-0.79,0-1.27,0   c-0.16,0-0.16-0.16-0.16-0.32c-0.79,0.16-1.74,0.48-2.54,0.63c-1.11,0.32-2.06,1.11-3.33,1.43c-1.74,0.63-3.17,2.06-5.07,2.69   c-0.16,0-0.16-0.16-0.16-0.32c0.16-0.48,0.79-0.63,1.11-1.11c0-0.16,0-0.32-0.16-0.32c1.27-1.74,3.01-2.69,4.6-4.12   c0-0.16,0-0.32,0-0.48c0.48-0.63,1.27-0.95,1.58-1.74c0.16-0.48,0.79-1.11,1.58-1.43c-0.16-0.16-0.48-0.16-0.48-0.48   c-0.63,0-1.27,0.32-1.9-0.16c0.3-0.3,0.63-0.46,0.99-0.56c-0.14-0.03-0.26-0.1-0.36-0.23c-0.16-0.32,0.31-0.67,0.79-0.79   c0.63-0.16,1.43-0.16,1.9-0.63c-1.11-0.16-2.38,0.32-3.49-0.32c0.79-2.06,2.06-3.8,3.96-4.75c0.16,0,0.48,0,0.48,0.16   c0,0.79-0.48,1.43-1.27,1.58c1.27,0.32,2.54,0.32,3.8,0.95c-0.16,0.32-0.48,0.16-0.63,0.16c0.79,0.48,1.74,0.16,2.54,0.79   c-0.48,0.48-0.95,0-1.43,0c4.91,1.43,10.14,2.54,14.26,5.7c-3.49,1.74-7.13,2.54-10.93,3.33c-0.48,0-0.79,0-1.27-0.16   c0,0.16,0,0.48-0.16,0.48c-0.63,0-1.11,0-1.58,0.32C72.8,60.41,71.84,60.56,71.37,60.09z"/>
	<g>
		<path class="st1" d="M234.35,0h-90.21c0,0,0.17,0.03,0.86,0.4c0.73,0.39,1.68,0.9,2.28,1.21c1.16,0.61,2.29,1.37,3.02,2.54    c0.32,0.48,0.79,1.43,0.48,2.06c-0.32,0.79-0.48,2.06-1.27,2.38c-0.95,0.48-2.22,0.48-3.33,0.32c-0.63,0-1.27-0.16-1.9-0.32    c2.38,0.95,4.6,2.06,6.18,4.28c0.16,0.32,0.79,0.48,1.43,0.48c0.16,0,0.16,0.32,0.16,0.48c-0.32,0.32-0.63,0.48-0.48,0.95    c0.16,0,0.32,0,0.48,0c0.79-0.32,0.63-1.9,1.74-1.43c0.79,0.48,1.11,1.58,0.63,2.38c-0.63,0.63-1.27,1.11-1.9,1.58    c-0.16,0.32-0.16,0.79,0,1.11c0.48,0.63,0.63,1.27,0.79,1.9c0.48,1.11,0.63,2.38,1.11,3.49c0.63,2.38,1.27,4.75,1.11,7.13    c0,1.27-0.63,2.38-0.16,3.64c0.32,1.27,1.11,2.22,1.74,3.33c0.63,0.95,1.27,1.58,1.74,2.54c0.95,1.58,2.69,3.17,1.9,5.07    c-0.48,1.11-2.22,0.95-3.33,1.58c-0.95,0.79-0.16,2.06,0.32,2.85c0.79,1.43-0.95,2.38-2.06,2.85c0.32,0.48,0.95,0.32,1.11,0.63    c0.16,0.79,0.95,1.27,0.48,2.06c-0.63,0.95-2.54,1.43-1.58,2.85c0.63,1.11,0.22,2.34-0.16,3.49c-0.48,1.43-1.74,2.06-2.85,2.38    c-0.95,0.32-2.06,0.32-3.01,0.16c-0.32-0.16-0.63-0.32-0.95-0.32c-2.69-0.32-5.39-1.11-8.08-1.11c-0.79,0.16-1.58,0.32-2.22,0.63    c-0.72,0.53-1.35,1.1-1.92,1.7c-0.01,0.01-0.01,0.01-0.02,0.02c-0.12,0.13-0.23,0.25-0.35,0.38c-0.07,0.08-0.14,0.16-0.2,0.24    c-0.05,0.05-0.09,0.11-0.13,0.16c-0.46,0.58-0.88,1.19-1.25,1.83c-0.02,0.04-0.05,0.08-0.07,0.12c-0.04,0.07-0.08,0.15-0.12,0.22    c-0.52,0.96-0.91,1.95-1.2,2.91c-1.08,3.63-0.61,6.74,0.15,7.5c0.21,0.21,5.23,1.76,8.73,3.32c1.64,0.73,2.79,1.29,3.74,1.89    h88.59V0H234.35z"/>
	</g>
	<path class="st2" d="M149.5,30.6c0.63,0.16,1.58,0.16,1.58,0.48c-0.32,1.27-2.22,1.58-3.17,2.85h-0.48   c-0.48,0.32-0.32,1.11-0.79,1.11c-0.48-0.16-0.95,0-1.43,0.16c0.63,0.63,1.43,1.11,2.38,0.95c0.16,0,0.48,0.32,0.48,0.63   c0,0,0.16,0,0.32-0.16c0.16,0,0.32,0,0.32,0.16v0.63c-0.48,0.63-1.27,0.32-1.9,0.48c1.27,0.32,2.54,0.32,3.64,0   c0.95-0.32,0-1.9,0.63-2.69c-0.32,0,0-0.48-0.32-0.48c0.32-0.32,0.63-0.79,0.95-0.95c0.32,0,0.79-0.16,0.95-0.48   c0-0.32-0.63-0.47-0.48-0.79c0.95-0.63,1.74-1.58,1.43-2.54c-0.16-0.48-1.43-0.48-2.22-0.79c-0.79-0.32-1.74,0-2.69,0.16   c-0.79,0-1.59,0.48-2.38,0.63c-1.11,0.32-2.06,0.95-3.01,1.58c1.11-0.48,2.22-0.63,3.49-0.95C147.76,30.6,148.57,30.36,149.5,30.6z   "/>
</g>
</svg>