<?xml version="1.0" encoding="utf-8"?>
<!-- Generator: Adobe Illustrator 23.1.0, SVG Export Plug-In . SVG Version: 6.00 Build 0)  -->
<svg version="1.1" id="Calque_1" xmlns="http://www.w3.org/2000/svg" xmlns:xlink="http://www.w3.org/1999/xlink" x="0px" y="0px"
	 viewBox="0 0 1298.7 666.6" style="enable-background:new 0 0 1298.7 666.6;" xml:space="preserve">
<style type="text/css">
	.st0{fill:#000091;}
	.st1{fill:#E1000F;}
	.st2{fill:#9D9D9C;}
	.st3{fill:none;}
	.st4{fill:#FFFFFF;}
</style>
<g id="vect">
	<path class="st0" d="M96.1,74.3c0.9-0.9,1.8-1.9,2.7-2.8l0,0c1.7-1.9,3.3-3.7,5.3-5.4c0.6-0.5,1.2-1,1.7-1.4
		c0.2-0.2,0.2-0.5,0.3-0.6c-0.8,0.3-1.3,1-2.1,1.3c-0.2,0-0.3-0.2-0.2-0.3c0.6-0.4,1.1-0.8,1.7-1.3h-0.1c-0.2,0-0.2-0.2-0.2-0.3
		c-2.1-0.3-3.6,1.1-5.1,2.4c-0.3,0.2-0.6-0.2-0.8-0.2c-2.4,0.8-4.1,2.9-6.5,3.8c0-0.2,0-0.2,0-0.3c-1,0.3-1.9,0.9-2.9,1.1
		c-1.4,0.3-2.7,0.2-4,0.2c-1.9,0.2-3.8,0.6-5.8,1c-0.1,0-0.1,0-0.2,0c-1,0.3-2,0.7-3,1.2c0,0-0.1,0-0.1,0.1
		c-0.1,0.1-0.2,0.2-0.2,0.3c-0.3,0.4-0.6,0.7-1.1,0.9c-1,0.5-1.8,1.4-2.6,2.1c-0.1,0.1-0.2,0.1-0.3,0.1c-0.9,0.8-1.7,1.6-2.6,2.4
		c-0.1,0.1-0.3,0.1-0.5,0.1l0,0c0-0.1,0.1-0.1,0.1-0.2c0.1-0.2,0.3-0.4,0.4-0.7c0.2-0.2,0.3-0.5,0.5-0.7c0.2-0.3,0.4-0.7,0.7-1
		c0.1-0.1,0-0.2,0-0.2c-0.1-0.1-0.1-0.1-0.2-0.1c0.8-0.8,1.7-1.4,2.7-2l0,0c-0.1,0-0.3,0-0.2-0.2c0.1-0.1,0.2-0.3,0.3-0.4
		c0,0,0-0.1,0.1-0.1L73.8,73c-0.3,0.2-0.5,0.3-0.7,0.5c-0.4,0.3-0.7,1-1.3,1c0,0-0.1,0-0.2,0c-0.1,0-0.1,0-0.2-0.1l0,0l0,0l0,0
		c0,0,0-0.1,0.1-0.1l0.1-0.1c0,0,0-0.1,0.1-0.1c0-0.1,0.1-0.1,0.1-0.2l0.1-0.1c0.1-0.1,0.1-0.2,0.2-0.3c0-0.1,0.1-0.1,0.1-0.2
		c0.1-0.1,0.1-0.2,0.2-0.3c0.1-0.1,0-0.2-0.1-0.3c0.3-0.4,0.7-0.7,1.1-0.9l0,0c0.6-0.3,1.2-0.7,1.8-1c0.1-0.1,0.2-0.2,0.3-0.2
		c-0.9,0.3-1.7,0.7-2.5,1.2c0,0-0.2,0.1-0.3,0.1c0,0-0.2,0.1-0.4-0.1v-0.1c0.2-0.3,0.6-0.5,1-0.8c0.2,0,0.3,0,0.3,0.2
		c5.1-4,12-3,17.9-5.1c0.5-0.3,1-0.6,1.4-1c0.8-0.3,1.4-1.1,2.4-1.6c1.3-1,2.2-2.1,2.7-3.6c0-0.2-0.2-0.3-0.2-0.3
		c-2.1,2.2-4.4,4-7,5.2c-3.3,1.7-7,1.4-10.5,1.9c0.2-0.3,0.5-0.3,0.8-0.3c0-0.5,0.3-0.6,0.6-1c0.2,0,0.3,0,0.5,0s0.2-0.3,0.3-0.3
		c0.3,0,0.8-0.2,0.6-0.2c-0.5-0.6-1.4,0.5-2.2,0c0.3-0.3,0.2-0.8,0.5-1c0.2,0,0.5,0,0.6,0c0-0.3,0.3-0.6,0.3-0.6
		c2.4-1.4,4.6-2.5,6.8-3.8c-0.5,0-0.8,0.5-1.3,0.2c0.3,0,0-0.5,0.3-0.5c1.7-0.5,3.2-1.4,4.9-2.1c-0.6,0-1.1,0.5-1.7,0
		c0.3-0.2,0.5-0.5,1-0.5c0-0.2,0-0.3,0-0.5s0.2-0.2,0.3-0.2c-0.2,0-0.3-0.2-0.3-0.2c0.2-0.3,0.6-0.2,1-0.5c-0.2,0-0.5,0-0.5-0.2
		c0.5-0.6,1.3-0.8,2.1-1c-0.2-0.3-0.6,0-0.6-0.3c0-0.2,0.2-0.2,0.3-0.2c-0.2,0-0.2,0-0.3,0c-0.3-0.2-0.2-0.5-0.2-0.6
		c1-1.1,1-2.5,1.4-3.8c-0.2,0-0.3,0-0.3-0.2c-1.6,1.7-4.1,2.4-6.5,3c-0.2,0-0.6,0-0.8,0c-0.8,0.3-1.9,0.3-2.7-0.2
		c-0.6-0.3-1-0.8-1.6-1.3c-1.3-0.8-2.5-1.4-4-1.9c-4-1.3-8.1-1.9-12.2-1.7c1.7-1,3.7-1,5.5-1.6c2.7-0.8,5.2-1.7,8.1-1.6
		c-0.5-0.2-1.1,0-1.6,0c-2.2-0.2-4.4,0.5-6.8,1c-1.6,0.3-3,1-4.6,1.3c-1,0.3-1.4,1.3-2.5,1.1c0,0,0-0.3,0-0.5c1.6-1.9,3.5-3.8,6-4
		c2.9-0.5,5.5,0,8.4,0.3c2.1,0.2,4,0.6,6,1.1c0.8,0,1,1.3,1.6,1.4c1,0.3,1.9,0,2.9,0.6c0-0.3-0.2-0.6,0-1c0.6-0.6,1.4,0.2,2.1-0.2
		c1.3-0.8-1.1-2.2-1.7-3.3c0-0.2,0.2-0.3,0.2-0.3c1.3,1.1,2.2,2.4,3.8,3.2c0.8,0.3,2.7,0.8,2.4-0.2c-0.8-1.7-2.4-3.2-3.6-4.8
		c0-0.2,0-0.5,0-0.6c-0.3,0-0.3-0.2-0.5-0.3c0-0.2,0-0.5,0-0.6c-0.6-0.3-0.5-1-0.8-1.4c-0.5-0.8-0.2-1.9-0.5-2.9s-0.5-1.7-0.6-2.7
		c-0.5-2.7-1.1-5.1-1.4-7.6c-0.3-3,1.7-5.4,3.2-8.1c1.1-1.9,2.4-3.8,4.4-5.1c0.5-1.9,1.7-3.5,3-5.1c1.3-1.5,3.4-2.5,4.9-3.2
		c2.2-1,4.2-1.6,4.2-1.6H0.8v83.9h77c3-2.2,6-3.2,10.2-5.3C90,77.9,94.6,75.8,96.1,74.3z M71.8,62.9c-0.3,0-1,0.2-0.8-0.2
		c0.2-0.8,1.3-0.8,1.9-1.1c0.3-0.2,0.8-0.5,1.1-0.3c0.3,0.5,0.8,0.3,1.1,0.6C74.1,62.9,72.9,62.4,71.8,62.9z M47.5,59.4
		c0,0-0.2-0.2-0.2-0.3c2.1-2.7,3.6-5.2,5.1-8.1c2.1-1.1,3.8-2.7,5.4-4.4c2.7-2.9,5.5-5.4,8.9-7c1.3-0.5,2.9-0.3,4.1,0.2
		c-0.5,0.6-1.3,0.5-1.9,1c-0.2,0-0.3,0-0.5-0.2c0.2-0.2,0.2-0.3,0.2-0.5c-1.6,1.7-3.8,2.5-5.1,4.6c-1,1.6-1.6,3.6-3.6,4.1
		c-0.6,0.2,0.2-0.5-0.2-0.3C54.8,51.5,51.3,55.1,47.5,59.4z M60.7,49c-0.2,0.3-0.3,0.4-0.5,0.6c-0.2,0.3-0.3,0.5-0.6,0.6
		c-0.2,0-0.3,0-0.3-0.2c0.2-0.6,0.6-1.3,1.3-1.4C60.7,48.6,60.7,48.8,60.7,49z M68,72.7c-0.1,0.2-0.2,0.3-0.4,0.5
		c0.2,0,0.3,0.1,0.2,0.2c-0.4,0.3-0.7,0.7-1.2,0.8c0,0-0.1,0-0.2,0c-0.2,0.2-0.4,0.4-0.6,0.6c-0.2,0.2-1.1,0-0.8-0.2
		c0.4-0.4,0.8-0.7,1.2-1.1c0.2-0.2,0.5-0.4,0.7-0.6c0.1-0.1,0.2-0.3,0.3-0.4C67.3,72.5,68.2,72.4,68,72.7z M65.2,71.4L65.2,71.4
		c-0.6,0.4-1.2,0.9-1.8,1.2c-0.7,0.4-1.4,0.7-2.1,1l0,0c-0.1-0.1-0.2-0.1-0.3-0.1c-0.6,0.3-1.1,0.8-1.6,1.2
		c-0.1,0.1-0.1,0.1-0.2,0.2l0,0l0,0C59.1,75,59,75,59,75.1l0,0l0,0c-0.1,0.1-0.2,0.2-0.3,0.4c-0.1,0.1-0.1,0.2-0.2,0.2
		c-0.1,0.1-0.4,0.1-0.3-0.1l0,0c-0.1,0-0.2,0.1-0.3,0.1s-0.2,0.1-0.2,0.1h-0.1h-0.1c-0.2,0.2-0.4,0.3-0.6,0.5
		c-0.3,0.3-0.6,0.6-0.9,1l0,0l0,0c0,0,0,0,0,0.1c0,0,0,0-0.1,0.1l0,0c0,0.1-0.1,0.1-0.1,0.2l0,0l-0.1,0.1c0,0,0-0.1-0.1-0.1v-0.1
		c0-0.1-0.1-0.2-0.1-0.3l0,0v-0.1c0.2-0.2,0.3-0.4,0.5-0.6l0,0c0.1-0.1,0.1-0.1,0.2-0.2c0.1-0.1,0.2-0.2,0.3-0.3l0.1-0.1
		c0.2-0.2,0.3-0.4,0.5-0.7l0,0c0,0,0-0.1,0.1-0.1c0.1-0.1,0.1-0.2,0.2-0.3c0.1-0.1,0.1-0.2,0.2-0.3l0,0l0,0c0,0,0,0,0-0.1
		c0.1-0.1,0.1-0.2,0.2-0.4l0,0V74c0-0.1,0-0.1,0-0.2l0,0l0,0c0-0.1,0-0.2,0.1-0.2v-0.1c0.2-0.3,0.4-0.6,0.6-0.9c0,0,0,0-0.1,0
		c-0.2,0.1-0.4,0.3-0.6,0.5c-0.2,0.1-0.5-0.1-0.3-0.2c0.1-0.1,0.2-0.2,0.4-0.3l0,0c0.3-0.3,0.5-0.6,0.8-0.8c0.2-0.1,0.3-0.2,0.5-0.4
		c0,0,0,0,0.1-0.1s0.2-0.3,0.4-0.4l0,0c1.5-1.5,4.1-1.4,6.1-2.3c0.8-0.3,1.7,0.2,2.5,0c0.5,0,1,0,1.4,0.3
		C67.8,69.7,66.5,70.6,65.2,71.4z M68.4,60.4c-0.2-0.2,0.5,0,0.6-0.3c-0.5,0-0.8,0-1.3,0c-0.2,0-0.2-0.2-0.2-0.3
		c-0.8,0.2-1.7,0.5-2.5,0.6c-1.1,0.3-2.1,1.1-3.3,1.4c-1.7,0.6-3.2,2.1-5.1,2.7c-0.2,0-0.2-0.2-0.2-0.3c0.2-0.5,0.8-0.6,1.1-1.1
		c0-0.2,0-0.3-0.2-0.3c1.3-1.7,3-2.7,4.6-4.1c0-0.2,0-0.3,0-0.5c0.5-0.6,1.3-1,1.6-1.7c0.2-0.5,0.8-1.1,1.6-1.4
		c-0.2-0.2-0.5-0.2-0.5-0.5c-0.6,0-1.3,0.3-1.9-0.2c0.3-0.3,0.6-0.5,1-0.6c-0.1,0-0.3-0.1-0.4-0.2c-0.2-0.3,0.3-0.7,0.8-0.8
		c0.6-0.2,1.4-0.2,1.9-0.6c-1.1-0.2-2.4,0.3-3.5-0.3c0.8-2.1,2.1-3.8,4-4.8c0.2,0,0.5,0,0.5,0.2c0,0.8-0.5,1.4-1.3,1.6
		c1.3,0.3,2.5,0.3,3.8,1c-0.2,0.3-0.5,0.2-0.6,0.2c0.8,0.5,1.7,0.2,2.5,0.8c-0.5,0.5-1,0-1.4,0c4.9,1.4,10.1,2.5,14.3,5.7
		c-3.5,1.7-7.1,2.5-10.9,3.3c-0.5,0-0.8,0-1.3-0.2c0,0.2,0,0.5-0.2,0.5c-0.6,0-1.1,0-1.6,0.3C69.9,60.7,68.9,60.8,68.4,60.4z"/>
	<g>
		<path class="st1" d="M231.4,0.3h-90.2c0,0,0.2,0,0.9,0.4s1.7,0.9,2.3,1.2c1.2,0.6,2.3,1.4,3,2.5c0.3,0.5,0.8,1.4,0.5,2.1
			c-0.3,0.8-0.5,2.1-1.3,2.4c-1,0.5-2.2,0.5-3.3,0.3c-0.6,0-1.3-0.2-1.9-0.3c2.4,1,4.6,2.1,6.2,4.3c0.2,0.3,0.8,0.5,1.4,0.5
			c0.2,0,0.2,0.3,0.2,0.5c-0.3,0.3-0.6,0.5-0.5,1c0.2,0,0.3,0,0.5,0c0.8-0.3,0.6-1.9,1.7-1.4c0.8,0.5,1.1,1.6,0.6,2.4
			c-0.6,0.6-1.3,1.1-1.9,1.6c-0.2,0.3-0.2,0.8,0,1.1c0.5,0.6,0.6,1.3,0.8,1.9c0.5,1.1,0.6,2.4,1.1,3.5c0.6,2.4,1.3,4.8,1.1,7.1
			c0,1.3-0.6,2.4-0.2,3.6c0.3,1.3,1.1,2.2,1.7,3.3c0.6,1,1.3,1.6,1.7,2.5c1,1.6,2.7,3.2,1.9,5.1c-0.5,1.1-2.2,1-3.3,1.6
			c-1,0.8-0.2,2.1,0.3,2.9c0.8,1.4-1,2.4-2.1,2.9c0.3,0.5,1,0.3,1.1,0.6c0.2,0.8,1,1.3,0.5,2.1c-0.6,1-2.5,1.4-1.6,2.9
			c0.6,1.1,0.2,2.3-0.2,3.5c-0.5,1.4-1.7,2.1-2.9,2.4c-1,0.3-2.1,0.3-3,0.2c-0.3-0.2-0.6-0.3-1-0.3c-2.7-0.3-5.4-1.1-8.1-1.1
			c-0.8,0.2-1.6,0.3-2.2,0.6c-0.7,0.5-1.4,1.1-1.9,1.7l0,0c-0.1,0.1-0.2,0.3-0.3,0.4c-0.1,0.1-0.1,0.2-0.2,0.2
			c0,0.1-0.1,0.1-0.1,0.2c-0.5,0.6-0.9,1.2-1.2,1.8c0,0,0,0.1-0.1,0.1c0,0.1-0.1,0.1-0.1,0.2c-0.5,1-0.9,1.9-1.2,2.9
			c-1.1,3.6-0.6,6.7,0.1,7.5c0.2,0.2,5.2,1.8,8.7,3.3c1.6,0.7,2.8,1.3,3.7,1.9h88.6V0.3H231.4z"/>
	</g>
	<path class="st2" d="M146.6,30.9c0.6,0.2,1.6,0.2,1.6,0.5c-0.3,1.3-2.2,1.6-3.2,2.9h-0.5c-0.5,0.3-0.3,1.1-0.8,1.1
		c-0.5-0.2-1,0-1.4,0.2c0.6,0.6,1.4,1.1,2.4,1c0.2,0,0.5,0.3,0.5,0.6c0,0,0.2,0,0.3-0.2c0.2,0,0.3,0,0.3,0.2v0.6
		c-0.5,0.6-1.3,0.3-1.9,0.5c1.3,0.3,2.5,0.3,3.6,0c1-0.3,0-1.9,0.6-2.7c-0.3,0,0-0.5-0.3-0.5c0.3-0.3,0.6-0.8,1-1
		c0.3,0,0.8-0.2,1-0.5c0-0.3-0.6-0.5-0.5-0.8c1-0.6,1.7-1.6,1.4-2.5c-0.2-0.5-1.4-0.5-2.2-0.8s-1.7,0-2.7,0.2
		c-0.8,0-1.6,0.5-2.4,0.6c-1.1,0.3-2.1,1-3,1.6c1.1-0.5,2.2-0.6,3.5-1C144.8,30.9,145.6,30.6,146.6,30.9z"/>
	<g>
		<path d="M208.2,644.8c1.7,0,3.2,1.3,2.4,4.6l-8,1.9C204.1,647.5,206.4,644.8,208.2,644.8 M212.6,657.6H211c-2,2.4-4.1,4.2-6.3,4.2
			c-2.2,0-3.3-1.3-3.3-4.2c0-1.2,0.1-2.4,0.4-3.5l12.8-4.2c2.5-5.9-0.5-8.5-4-8.5c-6.1,0-13,10.1-13,19c0,4,1.9,6.2,4.9,6.2
			C206.1,666.6,209.7,663.2,212.6,657.6 M210.1,639l9-8.4v-1h-4.9l-5.6,9.4H210.1z M182.4,644.9h4.3l-6.8,18.5
			c-0.6,1.6,0.2,3.1,1.9,3.1c3.8,0,10-3.8,12.2-9h-1.2c-1.7,1.8-5,4.2-7.8,4.7l6.2-17.4h6.3l0.8-2.6h-6.2l2.4-6.7H192l-4.4,6.7
			l-5.2,0.7V644.9z M176.7,644.1c0.5-1.7-0.6-2.7-1.5-2.7c-3.7,0-8.1,3.3-9.9,8h1.2c1.2-1.7,3.2-3.6,5.1-3.9l-7.1,18.4
			c-0.6,1.7,0.6,2.7,1.5,2.7c3.5,0,7.6-3.4,9.4-8h-1.2c-1.2,1.7-3.2,3.6-5.1,3.9L176.7,644.1z M178,634.8c1.7,0,3.1-1.3,3.1-3.1
			c0-1.7-1.4-3.1-3.1-3.1s-3.1,1.4-3.1,3.1C174.9,633.4,176.2,634.8,178,634.8 M137.2,663.1c-0.9,2.1,0,3.4,2.1,3.4
			c1.3,0,1.8-0.3,2.3-1.7l4.9-13c2.3-2.8,6.9-5.7,8.8-5.7c1.3,0,1.2,1.1,0.3,2.8l-7.5,14.5c-0.7,1.4,0.2,3.1,1.9,3.1
			c3.7,0,8.1-3.3,9.9-8h-1.2c-1.2,1.7-3.2,3.6-5.1,3.9l6.5-13.1c0.8-1.7,1.3-3.2,1.3-4.5c0-2.1-1.2-3.5-3.4-3.5
			c-3.2,0-6.4,3.6-10.3,8.1V646c0-2.5-0.8-4.6-3-4.6c-1.4,0-2.7,1.2-4,2.9v0.5c2.4-0.1,3.5,3.5,1.8,7.3L137.2,663.1z M137.1,647
			c0.9-3,0.4-5.6-1.9-5.6c-2.7,0-3.4,2.1-6.2,8.1v-3.4c0-2.5-0.8-4.6-3-4.6c-2.6,0-5,4-6.8,8h1.2c1.3-1.8,2.4-2.9,3.3-2.9
			c1.1,0,1.7,1.7,0,5.5l-5,11.1c-0.9,2.1,0,3.4,2.1,3.4c1.3,0,1.8-0.3,2.3-1.7l4.9-13c1.4-1.7,2.6-3.2,4.2-4.9L137.1,647L137.1,647z
			 M108.6,644.8c1.7,0,3.2,1.3,2.4,4.6l-8,1.9C104.5,647.5,106.8,644.8,108.6,644.8 M113,657.6h-1.6c-2,2.4-4.1,4.2-6.3,4.2
			s-3.3-1.3-3.3-4.2c0-1.2,0.1-2.4,0.4-3.5l12.8-4.2c2.5-5.9-0.5-8.5-4-8.5c-6.1,0-13,10.1-13,19c0,4,1.9,6.2,4.9,6.2
			C106.5,666.6,110.1,663.2,113,657.6 M82.8,644.9h4.3l-6.8,18.5c-0.6,1.6,0.2,3.1,1.9,3.1c3.8,0,10-3.8,12.2-9h-1.2
			c-1.7,1.8-5,4.2-7.8,4.7l6.2-17.4h6.3l0.8-2.6h-6.2l2.4-6.7h-2.5l-4.4,6.7l-5.2,0.7V644.9z M59.4,659.3c0-5.7,6.3-13.4,9.9-13.4
			c0.8,0,1.5,0.1,2.2,0.3l-3.7,9.9c-2.1,2.6-5.4,5.7-6.9,5.7C60,661.8,59.4,661,59.4,659.3 M78.9,640.3l-1.9-0.1l-2.2,2.1h-0.5
			c-10.6,0-19.7,11.9-19.7,20.5c0,2.4,1.5,3.8,3.8,3.8c2.7,0,5.4-3.9,8.4-8.1l-0.1,1.5c-0.4,4.3,0.9,6.6,3.1,6.6c2.6,0,5-4,6.8-8
			h-1.2c-1.3,1.8-2.4,2.9-3.3,2.9c-1,0-1.7-1.8,0-5.5L78.9,640.3z M56.4,647c0.9-3,0.4-5.6-1.9-5.6c-2.7,0-3.4,2.1-6.2,8.1v-3.4
			c0-2.5-0.8-4.6-3-4.6c-2.6,0-5,4-6.8,8h1.2c1.3-1.8,2.4-2.9,3.3-2.9c1.1,0,1.7,1.7,0,5.5l-5,11.1c-0.9,2.1,0,3.4,2.1,3.4
			c1.3,0,1.8-0.3,2.3-1.7l4.9-13c1.4-1.7,2.6-3.2,4.2-4.9L56.4,647L56.4,647z M20.9,665.6l0.5-1.4c-6.2-1.2-6.9-1.2-4.5-7.9l2.5-6.9
			h6.8c3.1,0,3.1,1.3,2.6,4.6h1.8l4.1-11.2h-1.8c-1.5,2.6-2.7,4.6-6.1,4.6h-6.7l3.6-9.8c1.1-3.1,1.8-3.8,5.9-3.8h3
			c4.3,0,4.8,1.2,4.8,5.5h1.7l1.4-7.6H15l-0.5,1.4c5,1,5.4,1.5,3.1,7.9L12,656.2c-2.3,6.3-3.3,6.9-9,7.9l-0.4,1.4L20.9,665.6
			L20.9,665.6z"/>
		<path d="M146.2,586.9c1.7,0,3.2,1.3,2.4,4.6l-8,1.9C142.1,589.6,144.4,586.9,146.2,586.9 M150.6,599.7H149c-2,2.4-4.1,4.2-6.3,4.2
			s-3.3-1.3-3.3-4.2c0-1.2,0.1-2.4,0.4-3.5l12.8-4.2c2.5-5.9-0.5-8.5-4-8.5c-6.1,0-13,10.1-13,19c0,4,1.9,6.2,4.9,6.2
			C144.1,608.7,147.7,605.3,150.6,599.7 M148.1,581.1l9-8.4v-1h-4.9l-5.6,9.4H148.1z M120.4,587h4.3l-6.8,18.5
			c-0.6,1.6,0.2,3.1,1.9,3.1c3.8,0,10-3.8,12.2-9h-1.2c-1.7,1.8-5,4.2-7.8,4.7l6.2-17.4h6.3l0.8-2.6h-6.2l2.4-6.7H130l-4.4,6.7
			l-5.2,0.7L120.4,587L120.4,587z M114.7,586.2c0.5-1.7-0.6-2.7-1.5-2.7c-3.7,0-8.1,3.3-9.9,8h1.2c1.2-1.7,3.2-3.6,5.1-3.9
			l-7.1,18.4c-0.6,1.7,0.6,2.7,1.5,2.7c3.5,0,7.6-3.4,9.4-8h-1.2c-1.2,1.7-3.2,3.6-5.1,3.9L114.7,586.2z M116,576.9
			c1.7,0,3.1-1.3,3.1-3.1c0-1.7-1.4-3.1-3.1-3.1c-1.7,0-3.1,1.4-3.1,3.1C112.9,575.6,114.2,576.9,116,576.9 M91.3,604.6l12.9-33.9
			l-0.4-0.5l-8.1,0.9v1l1.6,1.2c1.4,1.1,1,2.2-0.3,5.6l-10.1,26.6c-0.7,1.4,0.2,3.1,1.9,3.1c3.7,0,7.6-3.3,9.4-8H97
			C95.7,602.4,93.2,604.3,91.3,604.6 M66.8,601.5c0-5.7,6.3-13.4,9.9-13.4c0.8,0,1.5,0.1,2.2,0.3l-3.7,9.9c-2.1,2.6-5.4,5.7-6.9,5.7
			C67.3,603.9,66.8,603.2,66.8,601.5 M86.3,582.4l-1.9-0.1l-2.2,2.1h-0.5c-10.6,0-19.7,11.9-19.7,20.5c0,2.4,1.5,3.8,3.8,3.8
			c2.7,0,5.4-3.9,8.4-8.1l-0.1,1.5c-0.4,4.3,0.9,6.6,3.1,6.6c2.6,0,5-4,6.8-8h-1.2c-1.3,1.8-2.4,2.9-3.3,2.9c-1,0-1.7-1.8,0-5.5
			L86.3,582.4z M39.1,613.2c0-2.5,2.4-4,5.7-5.3c1.1,0.6,2.8,1.2,5,1.9c3.5,1.2,4.9,1.6,4.9,2.7c0,2.3-3.8,4-9.1,4
			C41.3,616.4,39.1,615.5,39.1,613.2 M48.7,598.2c-1.5,0-2.1-1.3-2.1-2.8c0-4.1,2.2-10.2,5.7-10.2c1.5,0,2.1,1.3,2.1,2.8
			C54.4,592.1,52.2,598.2,48.7,598.2 M58.8,610.9c0-3-2.6-4-6.9-5.3c-3.7-1.1-5.4-1.4-5.4-2.6c0-1,0.8-2.1,2.4-3
			c6.1-0.3,10-5.8,10-10.4c0-1-0.2-1.8-0.5-2.5h5.1l0.8-2.6h-8.2c-1-0.6-2.1-0.9-3.3-0.9c-6.4,0-10.6,5.6-10.6,10.2
			c0,3.5,2.2,5.6,4.9,6.2c-3,1.3-4.7,2.9-4.7,4.8c0,1.1,0.4,1.8,1.3,2.5c-6.9,2-9.7,4.4-9.7,7.6c0,3.2,4.2,4.5,9.2,4.5
			C51.7,619.3,58.8,614.7,58.8,610.9 M26.4,591.1c3.1,0,3.1,1.3,2.6,4.6h1.8l4.1-11.2h-1.8c-1.5,2.6-2.7,4.6-6.1,4.6h-6.7l3.4-9.3
			c1.1-3.1,1.8-3.7,5.9-3.7h3c4.3,0,4.8,1.2,4.8,5.5h1.7l1.4-7.6H15l-0.5,1.4c5,1,5.4,1.5,3.1,7.9L12,598.5c-2.3,6.3-3.3,6.9-9,7.9
			l-0.4,1.4H31l5.1-8.1h-1.9c-3.2,3.1-7.3,6-13,6c-7.5,0-6.9-0.3-4.4-7.2l2.7-7.4L26.4,591.1L26.4,591.1z M30.1,571.7l9-6.2v-1h-5.5
			l-5,7.2H30.1z"/>
		<path d="M143.2,529c1.7,0,3.2,1.3,2.4,4.6l-8,1.9C139.1,531.8,141.4,529,143.2,529 M147.6,541.9H146c-2,2.4-4.1,4.2-6.3,4.2
			s-3.3-1.3-3.3-4.2c0-1.2,0.1-2.4,0.4-3.5l12.8-4.2c2.5-5.9-0.5-8.5-4-8.5c-6.1,0-13,10.1-13,19c0,4,1.9,6.2,4.9,6.2
			C141,550.8,144.7,547.4,147.6,541.9 M145.1,523.2l9-8.4v-1h-4.9l-5.6,9.4H145.1z M118.5,529.2h3.4l-6.8,18.5
			c-0.6,1.6,0.2,3.1,1.9,3.1c3.8,0,10-3.8,12.2-9H128c-1.7,1.8-5,4.2-7.8,4.7l6.2-17.4h6.3l0.8-2.6h-6.2l2.4-6.7h-2.5l-4.4,6.7
			l-4.4,0.7L118.5,529.2L118.5,529.2z M115.2,531.3c0.9-3,0.4-5.6-1.9-5.6c-2.7,0-3.4,2.1-6.2,8.1v-3.4c0-2.5-0.8-4.6-3-4.6
			c-2.6,0-5,4-6.8,8h1.2c1.3-1.8,2.4-2.9,3.3-2.9c1.1,0,1.7,1.7,0,5.5l-5,11.1c-0.9,2.1,0,3.4,2.1,3.4c1.3,0,1.8-0.3,2.3-1.7l4.9-13
			c1.4-1.7,2.6-3.2,4.2-4.9L115.2,531.3L115.2,531.3z M86.8,529c1.7,0,3.2,1.3,2.4,4.6l-8,1.9C82.6,531.8,84.9,529,86.8,529
			 M91.2,541.9h-1.6c-2,2.4-4.1,4.2-6.3,4.2s-3.3-1.3-3.3-4.2c0-1.2,0.1-2.4,0.4-3.5l12.8-4.2c2.5-5.9-0.5-8.5-4-8.5
			c-6.1,0-13,10.1-13,19c0,4,1.9,6.2,4.9,6.2C84.6,550.8,88.2,547.4,91.2,541.9 M59.7,547c-1.3,0-3.1-1.2-3.1-2.2
			c0-0.3,0.6-1.8,1.3-3.6l2.1-5.5c2.2-2.6,5.6-5.5,7.5-5.5c1.2,0,2,0.7,2,2.5C69.6,537.8,64.8,547,59.7,547 M74.3,530.7
			c0-3.8-1.4-5.1-4-5.1c-3.2,0-6.3,3.4-9.4,7.6l7.7-20.3l-0.4-0.5l-8.1,0.9v1l1.6,1.2c1.4,1.1,1,2.3-0.3,5.6l-8.3,21.5
			c-0.6,1.6-1.3,3.4-1.3,3.9c0,2.2,3,4.3,5.7,4.3C63.8,550.8,74.3,539.4,74.3,530.7 M49.1,528.3c0.5-1.7-0.6-2.7-1.5-2.7
			c-3.7,0-8.1,3.3-9.9,8h1.2c1.2-1.7,3.2-3.6,5.1-3.9l-7.1,18.4c-0.6,1.7,0.6,2.7,1.5,2.7c3.5,0,7.6-3.4,9.4-8h-1.2
			c-1.2,1.7-3.2,3.6-5.1,3.9L49.1,528.3z M50.4,519c1.7,0,3.1-1.3,3.1-3.1c0-1.7-1.4-3.1-3.1-3.1c-1.7,0-3.1,1.4-3.1,3.1
			C47.4,517.7,48.7,519,50.4,519 M31.8,516.1H14.9l-0.5,1.4c5,1,5.4,1.5,3.1,7.9L12,540.6c-2.3,6.3-3.3,6.9-9,7.9l-0.4,1.4h25.7
			l5.6-9.9H32c-3.1,3.5-6.9,7.8-12.5,7.8c-4.3,0-4.8-0.7-2.5-7.2l5.5-15.2c2.3-6.3,3.3-6.9,9-7.9L31.8,516.1z"/>
	</g>
	<g>
		<path d="M1,126.1h16.2l15.2,26l15.2-26h16.2v63.2H51v-44.9l-14.1,23.3h-9l-14.1-23.3v44.9H1V126.1z"/>
		<path d="M81.4,126.1h12.8v63.2H81.4V126.1z"/>
		<path d="M111.9,126.1h16.4l28.2,45.2v-45.2h12.8v63.2h-16.4l-28.2-45.4v45.4h-12.8V126.1z"/>
		<path d="M187,126.1h12.8v63.2H187V126.1z"/>
		<path d="M221.1,171.9c3.8,4.9,8.8,7.8,14,7.8c5.1,0,8.1-2.7,8.1-7.3c0-11.3-28.9-8.8-28.9-29.8c0-10,8.2-18.3,20.2-18.3
			c9.5,0,16.8,4.2,22.1,10.6l-9.4,8.4c-3.7-4.8-7.8-7.8-12.6-7.8c-4.4,0-7.3,2.9-7.3,6.6c0,11.3,28.9,8.7,28.9,30
			c-0.2,11.7-9.4,18.9-20.9,18.9c-10.6,0-17.9-3.9-23.5-10.6L221.1,171.9z"/>
		<path d="M492.4,171.9c3.8,4.9,8.8,7.8,14,7.8c5.1,0,8.1-2.7,8.1-7.3c0-11.3-28.9-8.8-28.9-29.8c0-10,8.2-18.3,20.2-18.3
			c9.5,0,16.8,4.2,22.1,10.6l-9.4,8.4c-3.7-4.8-7.8-7.8-12.6-7.8c-4.4,0-7.3,2.9-7.3,6.6c0,11.3,28.9,8.7,28.9,30
			c-0.2,11.7-9.4,18.9-20.9,18.9c-10.6,0-17.9-3.9-23.5-10.6L492.4,171.9z"/>
		<path d="M262.7,126.1h51.8v11.6H295v51.5h-12.8v-51.5h-19.5V126.1z"/>
		<path d="M325.8,126.1h36.8V137h-24v14.6H359v10.9h-20.4v15.8h24v10.9h-36.8L325.8,126.1L325.8,126.1z M326.9,108.5h13.2l10.2,12.2
			h-11.7L326.9,108.5z"/>
		<path d="M377.5,126.1h19.3c13.9,0,22.5,7.1,22.5,18.9c0,7.6-3.7,13.3-10.1,16.3l19.8,28h-15.3l-16.8-25.5h-6.6v25.5h-12.8V126.1z
			 M390.3,137v15.8h7.2c5.4,0,8.6-2.9,8.6-8c0-4.8-3.2-7.8-8.6-7.8H390.3z"/>
		<path d="M437,126.1h36.8V137h-24v14.6h20.4v10.9h-20.4v15.8h24v10.9H437V126.1z"/>
		<g>
			<path d="M0,217.1h51.8v11.6H32.3v51.5H19.5v-51.5H0V217.1z"/>
			<path d="M63.1,217.1h19.3c13.9,0,22.5,7.1,22.5,18.9c0,7.6-3.7,13.3-10.1,16.3l19.8,28H99.3l-16.8-25.5h-6.6v25.5H63.1
				L63.1,217.1L63.1,217.1z M75.9,228.1v15.8h7.2c5.4,0,8.6-2.9,8.6-8c0-4.8-3.2-7.8-8.6-7.8H75.9z"/>
			<path d="M141.2,217.1H158l23.9,63.2h-13.6l-6-16.4H137l-6,16.4h-13.6L141.2,217.1z M158.3,253l-8.7-23.7l-8.7,23.7H158.3z"/>
			<path d="M191.7,217.1h16.4l28.2,45.2v-45.2h12.8v63.2h-16.4l-28.2-45.4v45.4h-12.8V217.1z"/>
			<path d="M270.4,263c3.8,4.9,8.8,7.8,14,7.8c5.1,0,8.1-2.7,8.1-7.3c0-11.3-28.9-8.8-28.9-29.8c0-10,8.2-18.3,20.2-18.3
				c9.5,0,16.8,4.2,22.1,10.6l-9.4,8.4c-3.7-4.8-7.8-7.8-12.6-7.8c-4.4,0-7.3,2.9-7.3,6.6c0,11.3,28.9,8.7,28.9,30
				c-0.2,11.7-9.4,18.9-20.9,18.9c-10.6,0-17.9-3.9-23.5-10.6L270.4,263z"/>
			<path d="M319,217.1h12.8v63.2H319V217.1z"/>
			<path d="M343,217.1h51.8v11.6h-19.5v51.5h-12.8v-51.5H343V217.1z"/>
			<path d="M406,217.1h12.8v63.2H406V217.1z"/>
			<path d="M498.2,248.7c0,18-13.6,33.4-33.5,33.4s-33.6-15.3-33.6-33.4s13.6-33.4,33.6-33.4C484.5,215.3,498.2,230.7,498.2,248.7z
				 M485,248.7c0-12.1-8.5-21.4-20.3-21.4c-11.9,0-20.4,9.3-20.4,21.4c0,12.1,8.5,21.4,20.4,21.4C476.5,270.1,485,260.8,485,248.7z"
				/>
			<path d="M510.4,217.1h16.4l28.2,45.2v-45.2h12.8v63.2h-16.4l-28.2-45.4v45.4h-12.8V217.1z"/>
		</g>
		<g>
			<path d="M617.5,216.9h36.8v10.9h-24v14.7h20.4v10.9h-20.4v15.8h24v10.9h-36.8V216.9z M630,211.5l10.2-12.2h13.2l-11.8,12.2H630z"
				/>
			<path d="M712.5,261.2l10.1,7.8c-5.8,7.8-15.2,12.9-26.6,12.9c-19.9,0-33.6-15.3-33.6-33.4s13.6-33.4,33.6-33.4
				c11.5,0,20.8,5.1,26.6,12.8l-10.1,7.8c-3.6-5.1-9.3-8.7-16.5-8.7c-11.9,0-20.4,9.3-20.4,21.4c0,12.1,8.5,21.4,20.4,21.4
				C703.2,269.9,708.9,266.4,712.5,261.2z"/>
			<path d="M794.8,248.5c0,18-13.6,33.4-33.5,33.4s-33.6-15.3-33.6-33.4s13.6-33.4,33.6-33.4C781.2,215.1,794.8,230.5,794.8,248.5z
				 M781.7,248.5c0-12.1-8.5-21.4-20.3-21.4c-11.9,0-20.4,9.3-20.4,21.4c0,12.1,8.5,21.4,20.4,21.4
				C773.2,269.9,781.7,260.6,781.7,248.5z"/>
			<path d="M807.1,216.9h12.8v51.6h24v11.6h-36.8V216.9z"/>
			<path d="M914.6,248.5c0,18-13.6,33.4-33.5,33.4s-33.6-15.3-33.6-33.4s13.6-33.4,33.6-33.4C900.9,215.1,914.6,230.5,914.6,248.5z
				 M901.4,248.5c0-12.1-8.5-21.4-20.3-21.4c-11.9,0-20.4,9.3-20.4,21.4c0,12.1,8.5,21.4,20.4,21.4
				C892.9,269.9,901.4,260.6,901.4,248.5z"/>
			<path d="M972.2,264.4v-10.6h-16.1v-11.6H985v26.9c-5.9,7.8-15.7,12.9-27.5,12.9c-20.5,0-34.5-15.3-34.5-33.4s13.6-33.4,33.6-33.4
				c11.5,0,20.8,5.1,26.6,12.8l-10.1,7.8c-3.6-5.1-9.3-8.7-16.5-8.7c-11.9,0-20.4,9.3-20.4,21.4c0,12.1,8.9,21.4,21.3,21.4
				C963.5,269.9,968.6,267.8,972.2,264.4z"/>
			<path d="M999.3,216.9h12.8v63.2h-12.8V216.9z"/>
			<path d="M1096,284.5c1.4,0,3.2-0.2,4.5-0.7v10.8c-2.1,0.8-3.9,1.2-6.7,1.2c-7,0-13.5-2.9-19.8-8.3l-7.5-6.7
				c-2.7,0.7-5.6,1.1-8.7,1.1c-19.9,0-33.6-15.3-33.6-33.4s13.6-33.4,33.6-33.4c19.8,0,33.5,15.3,33.5,33.4
				c0,10.6-4.7,20.2-12.5,26.3l3.8,3.6C1087.6,282.9,1092,284.5,1096,284.5z M1078.2,248.5c0-12.1-8.5-21.4-20.3-21.4
				c-11.9,0-20.4,9.3-20.4,21.4c0,12.1,8.5,21.4,20.4,21.4C1069.8,269.9,1078.2,260.6,1078.2,248.5z"/>
			<path d="M1141,216.9h12.8v38.4c0,16.6-9.7,26.5-25.6,26.5c-15.8,0-25.5-9.9-25.5-26.5v-38.4h12.8v39.6c0,8.5,4.8,13.4,12.8,13.4
				c7.8,0,12.7-5,12.7-13.4L1141,216.9L1141,216.9z"/>
			<path d="M1169.6,216.9h36.8v10.9h-24v14.7h20.4v10.9h-20.4v15.8h24v10.9h-36.8V216.9z"/>
		</g>
		<g>
			<g>
				<path d="M51.6,355.7l10.1,7.8c-5.8,7.8-15.2,12.9-26.6,12.9c-19.9,0-33.6-15.3-33.6-33.4s13.6-33.4,33.6-33.4
					c11.5,0,20.8,5.1,26.6,12.8l-10.1,7.8c-3.6-5.1-9.3-8.7-16.5-8.7c-11.9,0-20.4,9.3-20.4,21.4s8.5,21.4,20.4,21.4
					C42.3,364.4,48,360.8,51.6,355.7z"/>
				<path d="M133.9,343c0,18-13.6,33.4-33.5,33.4S66.8,361.1,66.8,343s13.6-33.4,33.6-33.4C120.3,309.6,133.9,324.9,133.9,343z
					 M120.8,343c0-12.1-8.5-21.4-20.3-21.4c-11.9,0-20.4,9.3-20.4,21.4s8.5,21.4,20.4,21.4C112.3,364.4,120.8,355.1,120.8,343z"/>
				<path d="M146.2,311.4H159v25.2h31.8v-25.2h12.8v63.2h-12.8v-26.3H159v26.3h-12.8V311.4z"/>
				<path d="M221.4,311.4h36.8v10.9h-24v14.6h20.4v10.9h-20.4v15.8h24v10.9h-36.8V311.4z M233.8,306l10.2-12.2h13.2L245.5,306H233.8
					z"/>
				<path d="M276.7,357.2c3.8,4.9,8.8,7.8,14,7.8c5.1,0,8.1-2.7,8.1-7.3c0-11.3-28.9-8.8-28.9-29.8c0-10,8.2-18.3,20.2-18.3
					c9.5,0,16.8,4.2,22.1,10.6l-9.4,8.4c-3.7-4.8-7.8-7.8-12.6-7.8c-4.4,0-7.3,2.9-7.3,6.6c0,11.3,28.9,8.7,28.9,30
					c-0.2,11.7-9.4,18.9-20.9,18.9c-10.6,0-17.9-3.9-23.5-10.6L276.7,357.2z"/>
				<path d="M325.2,311.4H338v63.2h-12.8V311.4z"/>
				<path d="M417.3,343c0,18-13.6,33.4-33.5,33.4s-33.6-15.3-33.6-33.4s13.6-33.4,33.6-33.4C403.7,309.6,417.3,324.9,417.3,343z
					 M404.2,343c0-12.1-8.5-21.4-20.3-21.4c-11.9,0-20.4,9.3-20.4,21.4s8.5,21.4,20.4,21.4C395.7,364.4,404.2,355.1,404.2,343z"/>
				<path d="M429.6,311.4H446l28.2,45.2v-45.2H487v63.2h-16.4l-28.2-45.4v45.4h-12.8V311.4z"/>
			</g>
			<g>
				<path d="M535.1,311.3h24.8c20,0,33.6,14.5,33.6,31.6s-13.5,31.6-33.6,31.6h-24.8V311.3z M547.9,322.9v39.9h12.2
					c11.7,0,20.2-8.8,20.2-19.9c0-11.3-8.5-19.9-20.2-19.9h-12.2V322.9z"/>
				<path d="M605.8,311.3h36.8v10.9h-24v14.6H639v10.9h-20.4v15.8h24v10.9h-36.8V311.3z"/>
				<path d="M661.1,357.1c3.8,4.9,8.8,7.8,14,7.8c5.1,0,8.1-2.7,8.1-7.3c0-11.3-28.9-8.8-28.9-29.8c0-10,8.2-18.3,20.2-18.3
					c9.5,0,16.8,4.2,22.1,10.6l-9.4,8.4c-3.7-4.8-7.8-7.8-12.6-7.8c-4.4,0-7.3,2.9-7.3,6.6c0,11.3,28.9,8.7,28.9,30
					c-0.2,11.7-9.4,18.9-20.9,18.9c-10.6,0-17.9-3.9-23.5-10.6L661.1,357.1z"/>
				<path d="M726.6,311.3h51.8v11.6h-19.5v51.5h-12.8v-51.5h-19.5V311.3z"/>
				<path d="M789.7,311.3h36.8v10.9h-24v14.6h20.4v10.9h-20.4v15.8h24v10.9h-36.8V311.3z"/>
				<path d="M841.4,311.3h19.3c13.9,0,22.5,7.1,22.5,18.9c0,7.6-3.7,13.3-10.1,16.3l19.8,28h-15.3L860.8,349h-6.6v25.5h-12.8
					L841.4,311.3L841.4,311.3z M854.2,322.2V338h7.2c5.4,0,8.6-2.9,8.6-8c0-4.8-3.2-7.8-8.6-7.8H854.2z"/>
				<path d="M900.9,311.3h19.3c13.9,0,22.5,7.1,22.5,18.9c0,7.6-3.7,13.3-10.1,16.3l19.8,28H937L920.2,349h-6.6v25.5h-12.8
					L900.9,311.3L900.9,311.3z M913.7,322.2V338h7.2c5.4,0,8.6-2.9,8.6-8c0-4.8-3.2-7.8-8.6-7.8H913.7z"/>
				<path d="M960.3,311.3h12.8v63.2h-12.8V311.3z"/>
				<path d="M984.3,311.3h51.8v11.6h-19.5v51.5h-12.8v-51.5h-19.5V311.3z"/>
				<path d="M1106.1,342.9c0,18-13.6,33.4-33.5,33.4S1039,361,1039,342.9s13.6-33.4,33.6-33.4
					C1092.5,309.5,1106.1,324.8,1106.1,342.9z M1093,342.9c0-12.1-8.5-21.4-20.3-21.4c-11.9,0-20.4,9.3-20.4,21.4
					s8.5,21.4,20.4,21.4C1084.5,364.2,1093,354.9,1093,342.9z"/>
				<path d="M1118.4,311.3h12.8v63.2h-12.8V311.3z"/>
				<path d="M1148.9,311.3h19.3c13.9,0,22.5,7.1,22.5,18.9c0,7.6-3.7,13.3-10.1,16.3l19.8,28h-15.3l-16.8-25.5h-6.6v25.5h-12.8
					V311.3z M1161.7,322.2V338h7.2c5.4,0,8.6-2.9,8.6-8c0-4.8-3.2-7.8-8.6-7.8H1161.7z"/>
				<path d="M1208.4,311.3h36.8v10.9h-24v14.6h20.4v10.9h-20.4v15.8h24v10.9h-36.8V311.3z"/>
				<path d="M1263.7,357.1c3.8,4.9,8.8,7.8,14,7.8c5.1,0,8.1-2.7,8.1-7.3c0-11.3-28.9-8.8-28.9-29.8c0-10,8.2-18.3,20.2-18.3
					c9.5,0,16.8,4.2,22.1,10.6l-9.4,8.4c-3.7-4.8-7.8-7.8-12.6-7.8c-4.4,0-7.3,2.9-7.3,6.6c0,11.3,28.9,8.7,28.9,30
					c-0.2,11.7-9.4,18.9-20.9,18.9c-10.6,0-17.9-3.9-23.5-10.6L1263.7,357.1z"/>
			</g>
		</g>
		<g>
			<path d="M1.3,407h16.1l15.2,25.9L47.8,407h16.1v63H51.1v-44.8l-14,23.2h-9l-14-23.2V470H1.3V407z"/>
			<path d="M81.5,407h36.7v10.9H94.2v14.6h20.3v10.9H94.2v15.7h23.9V470H81.5V407z"/>
			<path d="M133,407h19.3c13.9,0,22.4,7.1,22.4,18.8c0,7.6-3.7,13.2-10.1,16.3l19.8,27.9h-15.3l-16.7-25.5h-6.6V470H133V407z
				 M145.8,417.9v15.7h7.2c5.4,0,8.5-2.9,8.5-8c0-4.8-3.1-7.7-8.5-7.7H145.8z"/>
		</g>
	</g>
</g>
<g id="zone">
	<rect x="-83" y="-83.5" class="st3" width="1509.5" height="739.5"/>
	<rect x="0.8" y="0.3" class="st3" width="1343" height="573.1"/>
	<rect x="1343.7" y="573.4" class="st4" width="82.2" height="82.2"/>
</g>
</svg>
