<svg id="Layer_1" data-name="Layer 1" xmlns="http://www.w3.org/2000/svg" viewBox="0 0 101.209 106.3">
  <title>Artboard 19</title>
  <g>
    <path d="M97.6,80.1a3.6,3.6,0,0,0,.2-7.2l-3-.2A50.644,50.644,0,0,0,99.7,51a39.751,39.751,0,0,0-8.5-25.2A16.85,16.85,0,0,0,93.9,8.7,23.872,23.872,0,0,0,88.8.8,3.227,3.227,0,0,0,86.7,0a.75.75,0,0,0-.5.1C85.7.2,75.4,2.2,70,11.4h0l-.9-.3c-.4-.1-.7-.2-1.1-.3l-.9-.3c-.4-.1-.8-.2-1.1-.3a5.758,5.758,0,0,0-1-.2,3.554,3.554,0,0,0-1-.2,4.536,4.536,0,0,1-.8-.2,25.568,25.568,0,0,0-2.7-.5L60.1,9a59.49,59.49,0,0,0-9.4-.7,59.49,59.49,0,0,0-9.4.7l-.6.1a25.571,25.571,0,0,0-2.7.5l-.7.1c-.4.1-.8.2-1.3.3l-.7.2c-.4.1-.8.2-1.3.3l-.7.2c-.4.1-.8.3-1.2.4l-.8.3C25.8,2.2,15.5.2,15.1.1a4.332,4.332,0,0,1-.5-.1,3.227,3.227,0,0,0-2.1.8A23.871,23.871,0,0,0,7.4,8.7a16.831,16.831,0,0,0,2.7,17.1A40.341,40.341,0,0,0,1.6,51,49.91,49.91,0,0,0,6.4,72.7l-3,.2a3.6,3.6,0,0,0,.2,7.2h.1l6.5-.4-6,2.8a3.721,3.721,0,0,0-1.9,2,3.591,3.591,0,0,0,.1,2.7,3.628,3.628,0,0,0,3.3,2.1A4.012,4.012,0,0,0,7.2,89l5.4-2.5-4.1,4A3.58,3.58,0,0,0,7.4,93a3.541,3.541,0,0,0,1,2.6A3.631,3.631,0,0,0,11,96.7a3.946,3.946,0,0,0,2.5-1l5.7-5.5a65.846,65.846,0,0,0,24.6,14.4,15.876,15.876,0,0,0,6.8,1.7,15.588,15.588,0,0,0,7.3-1.9,66.746,66.746,0,0,0,24-14.2l5.8,5.6a3.471,3.471,0,0,0,2.5,1,3.631,3.631,0,0,0,2.6-1.1,3.541,3.541,0,0,0,1-2.6,3.25,3.25,0,0,0-1.1-2.5l-4.1-4L94,89.1a4.012,4.012,0,0,0,1.5.3,3.628,3.628,0,0,0,3.3-2.1,3.751,3.751,0,0,0-1.7-4.8l-6-2.8,6.4.4Z" fill="#2d2413"/>
    <g>
      <g>
        <g>
          <path d="M71.5,14.5c-4.2,9.2-2.5,14.8,3.6,17.3,6,2.6,5.8,1,12.7-6.8C97.9,13.7,86.6,2.9,86.6,2.9S76,4.9,71.5,14.5Z" fill="#8f5322"/>
          <path d="M74.6,18.1c-3.7,6.5,3.5,10.9,8.7,5.6,7.4-7.4,1.2-13.9,1.2-13.9S79,10.4,74.6,18.1Z" fill="#472b13"/>
        </g>
        <g>
          <path d="M29.4,14.5c4.2,9.2,2.5,14.8-3.6,17.3-6,2.6-5.8,1-12.7-6.8C3,13.7,14.3,2.9,14.3,2.9S25,4.9,29.4,14.5Z" fill="#8f5322"/>
          <path d="M26.4,18.1c3.7,6.5-3.5,10.9-8.7,5.6-7.4-7.4-1.2-13.9-1.2-13.9S22,10.4,26.4,18.1Z" fill="#472b13"/>
        </g>
      </g>
      <path d="M4.4,51C4.4,24.9,27,11,50.5,11S96.6,24.9,96.6,51c0,35.5-36.6,51.7-46.3,51.7C40.7,102.7,4.4,86.5,4.4,51Z" fill="#8f5322"/>
      <path d="M4.4,51C4.4,24.9,27,11,50.5,11S96.6,24.9,96.6,51c0,35.5-36.6,51.7-46.3,51.7C40.7,102.7,4.4,86.5,4.4,51Z" fill="#8f5322"/>
      <g>
        <g>
          <circle cx="68.405" cy="60.3" r="8" fill="#231f20"/>
          <circle cx="70.605" cy="58.5" r="3.1" fill="#fff"/>
        </g>
        <g>
          <path d="M24.5,60.3a8,8,0,1,0,8-8A8.024,8.024,0,0,0,24.5,60.3Z" fill="#231f20"/>
          <circle cx="34.005" cy="58.5" r="3.1" fill="#fff"/>
        </g>
      </g>
      <g>
        <g>
          <path d="M97.6,77.1h0l-12.2-.7a.6.6,0,1,1,0-1.2l12.2.7a.645.645,0,0,1,.6.6Q98.055,77.1,97.6,77.1Z" fill="#231f20"/>
          <path d="M95.4,86.4a.367.367,0,0,1-.3-.1L82.9,80.6a.6.6,0,1,1,.5-1.1l12.2,5.7a.63.63,0,0,1,.3.8A.664.664,0,0,1,95.4,86.4Z" fill="#231f20"/>
          <path d="M90.1,93.7a.758.758,0,0,1-.4-.2l-9.5-9.2a.566.566,0,1,1,.8-.8l9.5,9.2a.608.608,0,0,1,0,.8A.758.758,0,0,1,90.1,93.7Z" fill="#231f20"/>
        </g>
        <g>
          <path d="M3.4,77.1a.6.6,0,1,1,0-1.2l12.2-.7a.6.6,0,1,1,0,1.2l-12.2.7Z" fill="#231f20"/>
          <path d="M5.6,86.4a.55.55,0,0,1-.5-.3.63.63,0,0,1,.3-.8l12.2-5.7a.6.6,0,1,1,.5,1.1L5.9,86.4C5.8,86.3,5.7,86.4,5.6,86.4Z" fill="#231f20"/>
          <path d="M10.9,93.7a.519.519,0,0,1-.4-.2.608.608,0,0,1,0-.8L20,83.5a.566.566,0,1,1,.8.8l-9.5,9.2A.519.519,0,0,1,10.9,93.7Z" fill="#231f20"/>
        </g>
      </g>
      <path d="M44.1,70.9h5.3s1.2-37.5-7.9-59.2a53.246,53.246,0,0,0-13.9,4.1C29.6,19.2,44.4,45.1,44.1,70.9Z" fill="#472b13"/>
      <path d="M59.4,11.7c-9.1,21.7-7.9,59.2-7.9,59.2h5.3c-.3-25.8,14.4-51.7,16.4-55.1A51.423,51.423,0,0,0,59.4,11.7Z" fill="#472b13"/>
      <g>
        <path d="M32.3,44.6a2.22,2.22,0,0,0-.4-.5c-.1-.2-.3-.3-.4-.5l-.5-.5c-.1-.2-.5-.4-.7-.6a7.013,7.013,0,0,0-.9-.6,11.286,11.286,0,0,0-2.2-1.1,23.217,23.217,0,0,0-4.7-1.2,16.02,16.02,0,0,0-2.2-.2.319.319,0,0,1-.3-.3c0-.1.1-.2.2-.3a24.511,24.511,0,0,1,7.5-.5,13.564,13.564,0,0,1,2.9.6c.5.2.9.3,1.3.5a6.723,6.723,0,0,1,1.2.6,8.8,8.8,0,0,1,1,.6,2.093,2.093,0,0,0,.6.4,3.61,3.61,0,0,1,.5.4,2.14,2.14,0,0,1-2.6,3.4A1.445,1.445,0,0,1,32.3,44.6Z" fill="#6b3f18"/>
        <path d="M65.6,41.5a2.218,2.218,0,0,0,.5-.4c.2-.1.4-.3.6-.4a8.785,8.785,0,0,1,1-.6l1.2-.6c.4-.2.9-.3,1.3-.5a13.564,13.564,0,0,1,2.9-.6,21.347,21.347,0,0,1,7.5.5c.1,0,.2.2.2.3s-.1.2-.3.2a16.02,16.02,0,0,0-2.2.2,25,25,0,0,0-4.7,1.2,15.057,15.057,0,0,0-2.2,1.1l-.9.6c-.2.2-.5.4-.7.6l-.5.5c-.2.2-.3.4-.4.5a2.22,2.22,0,0,0-.4.5,2.2,2.2,0,0,1-3.4-2.8A1.069,1.069,0,0,0,65.6,41.5Z" fill="#6b3f18"/>
      </g>
      <g>
        <circle cx="75.505" cy="74.2" r="5.2" fill="#dc7d27"/>
        <circle cx="25.405" cy="74.2" r="5.2" fill="#dc7d27"/>
      </g>
      <g>
        <path d="M68.4,82.8c0,9.9-9.7,20.3-17.9,20.3-8.3,0-17.9-10.4-17.9-20.3s8-13.1,17.9-13.1S68.4,72.9,68.4,82.8Z" fill="#f9f1dc"/>
        <path d="M58.9,75.5c0,4.6-6.6,8.4-8.4,8.4s-8.4-3.8-8.4-8.4C42.1,73.2,58.9,73.1,58.9,75.5Z" fill="#dd6332"/>
        <path d="M57.6,94.4H43.4l-1.7-2.2a.619.619,0,0,1,.1-.8.529.529,0,0,1,.8.1L44,93.2a5.168,5.168,0,0,0,3.5-1,4.449,4.449,0,0,1,3-.9,5.06,5.06,0,0,1,3,.9,5.168,5.168,0,0,0,3.5,1l1.4-1.7a.57.57,0,0,1,.9.7Z" fill="#231f20"/>
      </g>
    </g>
  </g>
</svg>
