<svg id="Layer_1" data-name="Layer 1" xmlns="http://www.w3.org/2000/svg" viewBox="0 0 78.152 122.3">
  <title>Artboard 26</title>
  <g>
    <path d="M7.264,89.5a146.745,146.745,0,0,1,13.5,17.7,78.928,78.928,0,0,0,6.4,8.7c.1.2.3.3.4.5a17.842,17.842,0,0,0,6.1,4.6,2.568,2.568,0,0,1,.5.2,12.483,12.483,0,0,0,5.2,1.1c6,0,11.4-3.9,14.9-10.7,1-1.4,2-2.9,3.1-4.5a146.736,146.736,0,0,1,13.5-17.7c11.2-12.3,9.2-38.5-4-54.9.5-1.3,1.1-2.5,1.6-3.7,4.4-9.9,7.9-17.7-3.4-29.8a3.215,3.215,0,0,0-2.1-1h-.1a2.792,2.792,0,0,0-2,.8c-.4.4-8,7.6-10.4,18.2a16.638,16.638,0,0,0-11-3.9,25.84,25.84,0,0,0-10.3,2.5c-.6.3-1.2.6-1.7.9-2.5-10.3-9.9-17.3-10.3-17.7a3.176,3.176,0,0,0-2-.8h-.1a2.989,2.989,0,0,0-2.1,1c-11.2,12.1-7.8,19.9-3.4,29.8.5,1.2,1.1,2.4,1.6,3.7C-1.836,51-3.936,77.2,7.264,89.5Z" fill="#2d2413"/>
    <g>
      <path d="M39.164,23.6c-32.3.1-45,47-29.6,63.9,16.1,17.6,18.6,31.4,29.6,31.7,10.9-.3,13.5-14.1,29.6-31.7C84.064,70.6,71.464,23.7,39.164,23.6Z" fill="#8e90bd"/>
      <g>
        <g>
          <path d="M55.664,36.6c-9.3-18,7.3-33.5,7.3-33.5,12.4,13.3,4.9,19.8-.5,34.6Z" fill="#8e90bd"/>
          <path d="M59.864,33.3a29.243,29.243,0,0,1,3.6-23C72.064,19.1,59.864,33.3,59.864,33.3Z" fill="#31180d"/>
        </g>
        <g>
          <path d="M22.564,36.6c9.3-18-7.3-33.5-7.3-33.5-12.4,13.3-4.9,19.8.5,34.6Z" fill="#8e90bd"/>
          <path d="M18.364,33.3a29.243,29.243,0,0,0-3.6-23C6.264,19.1,18.364,33.3,18.364,33.3Z" fill="#31180d"/>
        </g>
      </g>
      <path d="M39.164,32.8c-5.9,0-10.3,22.2-11.2,32.4-.8,8.9,1.7,16.1,2.7,32.8.3,5.1,5.4,4.4,8.6,4.4s8.6.6,8.6-4.4c-.2-14.1,3.4-23.9,2.7-32.8C49.564,55,45.064,32.8,39.164,32.8Z" fill="#b9bad4"/>
      <path d="M24.164,103.7c2.6,10.1,9.6,15.7,15.2,15.7s11.4-4.5,14.5-14.6c2.5-8.1-6.1-14.7-14.5-14.7S22.064,95.6,24.164,103.7Z" fill="#1d110b"/>
      <g>
        <path d="M33.164,98.7l.9,5.3c0,.1,0,.1-.1.2h-.1l-4.4-3.2a2.29,2.29,0,1,1,2.7-3.7A2.633,2.633,0,0,1,33.164,98.7Z" fill="#62270e"/>
        <path d="M48.764,101l-4.4,3.2h-.2v-.1l.9-5.3a2.335,2.335,0,0,1,4.6.8A2.629,2.629,0,0,1,48.764,101Z" fill="#62270e"/>
      </g>
      <g>
        <path d="M45.464,112.5h-12.6l-3.2-2a.515.515,0,1,1,.5-.9l3,1.9h12l2.9-1.9a.515.515,0,1,1,.5.9Z" fill="#835036"/>
        <polygon points="36.664 112 39.164 106.7 41.564 112 36.664 112" fill="#835036"/>
      </g>
      <g>
        <path d="M17.964,58.9s-.8.1-2,.2a2.353,2.353,0,0,0-.8.2c-.3.1-.5.2-.8.3s-.6.3-.9.4l-1,.5c-.6.4-1.2.9-1.8,1.3a9.242,9.242,0,0,0-1.4,1.4c-.8.9-1.3,1.5-1.3,1.5a.367.367,0,0,1-.3.1.367.367,0,0,1-.1-.3,16.555,16.555,0,0,1,.9-1.9,17.4,17.4,0,0,1,1.1-1.8c.4-.7,1-1.3,1.5-2l.9-.9a3.915,3.915,0,0,1,1-.8,10.536,10.536,0,0,0,1.1-.7c.3-.2.8-.5,1-.6,1.1-.4,1.9-.7,1.9-.7a1.931,1.931,0,1,1,1.4,3.6C18.364,58.8,18.164,58.8,17.964,58.9Z" fill="#1d110b"/>
        <path d="M61.164,55.1s.7.3,1.9.7a5.3,5.3,0,0,1,1,.6c.4.2.7.5,1.1.7a8.741,8.741,0,0,1,1,.8l.9.9c.5.7,1.1,1.3,1.5,2s.8,1.3,1.1,1.8a16.563,16.563,0,0,1,.9,1.9c0,.1,0,.3-.1.3a.367.367,0,0,1-.3-.1s-.5-.6-1.3-1.5l-1.4-1.4a11.794,11.794,0,0,0-1.8-1.3l-1-.5a1.8,1.8,0,0,0-.9-.4,6.892,6.892,0,0,1-.8-.3,1.884,1.884,0,0,0-.8-.2c-1.2-.1-2-.2-2-.2a1.91,1.91,0,1,1,.4-3.8C60.864,55,60.964,55.1,61.164,55.1Z" fill="#1d110b"/>
      </g>
      <g>
        <g>
          <circle cx="60.464" cy="71.1" r="6.2" fill="#010101"/>
          <circle cx="61.464" cy="72.1" r="2.3" fill="#fff"/>
        </g>
        <g>
          <circle cx="17.764" cy="71.1" r="6.2" fill="#010101"/>
          <circle cx="18.764" cy="72.1" r="2.3" fill="#fff"/>
        </g>
      </g>
      <path d="M24.964,49.4c.9-4.4,4.1-6.7,5.7-10.4,4.2,3.7,10.7,4.9,14.6,9.2-.5-2.9.1-6.4-.7-9.5,5.4,3.4,8.4,4,12.9,9.3,1.3-16.4-7.5-36.7-26.8-27.6C15.064,27.8,21.564,41.8,24.964,49.4Z" fill="#24180d"/>
      <g opacity="0.9">
        <path d="M64.264,83.3a4.7,4.7,0,0,1-9.4,0C54.764,80.7,64.264,80.7,64.264,83.3Z" fill="#af4325"/>
        <path d="M23.564,83.3a4.75,4.75,0,0,1-9.5,0C14.064,80.7,23.564,80.7,23.564,83.3Z" fill="#af4325"/>
      </g>
    </g>
  </g>
</svg>
