<svg id="Layer_1" data-name="Layer 1" xmlns="http://www.w3.org/2000/svg" viewBox="0 0 114.42 95">
  <title>Artboard 17</title>
  <g>
    <path d="M14.46,38.9a64.444,64.444,0,0,0-5.6,21.4,7.192,7.192,0,0,0-.2,5.2v.1a24.8,24.8,0,0,0,5.4,15.6,15.854,15.854,0,0,0,3,4.5,5.987,5.987,0,0,0,4.9,2.2h.2c8.2,4.7,19.9,7.1,35,7.1s26.8-2.4,35-7.1h.2a6.21,6.21,0,0,0,4.9-2.3c1.4-1.7,2.6-3.1,3.1-4.7a25.409,25.409,0,0,0,5.3-15.2c0-.1.1-.2.1-.3a7.5,7.5,0,0,0-.3-5.5,63.682,63.682,0,0,0-4.5-18.9c5-5,8-11,8.5-17.2.5-6.8-1.9-13.4-7-19.2a7.5,7.5,0,0,0-5.9-2.5c-5.5,0-13.3,4.8-23.1,12.2a50.007,50.007,0,0,0-16.2-2.5,50.719,50.719,0,0,0-15.4,2.3c-5.8-2.1-11.3-5.7-15.8-8.7-5-3.2-8.3-5.4-11.3-5.4a5.616,5.616,0,0,0-5.1,3c-5,9.4-6,19.2-2.6,26.9A17.5,17.5,0,0,0,14.46,38.9Z" fill="#2d2413"/>
    <g>
      <path d="M57.16,92c-29.8,0-45.5-9.4-45.5-27.1a59.332,59.332,0,0,1,6.8-27.3,15.967,15.967,0,0,1-8.8-8.7c-3-6.9-2.1-15.7,2.5-24.3a2.693,2.693,0,0,1,2.4-1.4c2.2,0,5.3,2.1,9.7,4.9,4.9,3.2,10.9,7.1,17.4,9.3a49.422,49.422,0,0,1,32.2.4c8.7-6.6,17.4-12.6,22.6-12.6a4.678,4.678,0,0,1,3.7,1.5c4.6,5.2,6.7,11.1,6.2,17-.5,6.1-3.7,12-9.1,16.7a60.161,60.161,0,0,1,5.3,24.4C102.66,82.7,86.86,92,57.16,92Z" fill="#e9be4f"/>
      <g>
        <path d="M97.16,77.5c1.2,2,.3,3.2-2.2,6.3-1.8,2.2-5.4,1-6.6-1.1-1.2-2-.2-4.8,2.2-6.3C92.96,75,95.96,75.5,97.16,77.5Z" fill="#603a17"/>
        <path d="M102.86,64.6c-.8,2.4-4.8,5.1-6.4,2.7-5.3-8.1.3-9.7,3-8.8A4.954,4.954,0,0,1,102.86,64.6Z" fill="#603a17"/>
        <path d="M91.76,71.1c-4.3,1.7-3.8,4-6.5,3.1a5.034,5.034,0,0,1-3.2-6.4,5.131,5.131,0,0,1,6.5-3.1C91.26,65.6,94.36,70.1,91.76,71.1Z" fill="#603a17"/>
      </g>
      <g>
        <path d="M17.26,77.5c-1.2,2-.3,3.2,2.2,6.3,1.8,2.2,5.4,1,6.6-1.1,1.2-2,.2-4.8-2.2-6.3C21.36,75,18.46,75.5,17.26,77.5Z" fill="#603a17"/>
        <path d="M11.46,64.6c.8,2.4,4.8,5.1,6.4,2.7,5.3-8.1-.3-9.7-3-8.8A4.954,4.954,0,0,0,11.46,64.6Z" fill="#603a17"/>
        <path d="M22.56,71.1c4.3,1.7,3.8,4,6.5,3.1a5.034,5.034,0,0,0,3.2-6.4,5.131,5.131,0,0,0-6.5-3.1C23.06,65.6,19.96,70.1,22.56,71.1Z" fill="#603a17"/>
      </g>
      <g>
        <circle cx="78.26" cy="55.6" r="7.1" fill="#231f20"/>
        <circle cx="80.16" cy="54" r="2.5" fill="#fff"/>
      </g>
      <g>
        <circle cx="39.86" cy="55.6" r="7.1" fill="#231f20"/>
        <circle cx="41.86" cy="54" r="2.5" fill="#fff"/>
      </g>
      <path d="M78.26,77.7c0,8.3-8.6,10.9-19.2,10.9S39.86,86,39.86,77.7s8.6-19.1,19.2-19.1S78.26,69.4,78.26,77.7Z" fill="#fff"/>
      <path d="M67.56,61.4c0,4.7-8.5,8.5-8.5,8.5s-8.5-3.8-8.5-8.5S67.56,56.7,67.56,61.4Z" fill="#231f20"/>
      <path d="M113.96,65.7a.368.368,0,0,1-.3-.1,22.167,22.167,0,0,0-14.4-2.4.51.51,0,1,1-.2-1,23.448,23.448,0,0,1,15.1,2.6c.3.1.3.5.2.7C114.36,65.7,114.16,65.7,113.96,65.7Z" fill="#231f20"/>
      <path d="M110.56,72.3a.758.758,0,0,1-.4-.2c-4.3-4.6-12.5-5.2-12.6-5.3a.56.56,0,0,1-.5-.6c0-.3.2-.5.6-.5s8.8.7,13.3,5.6a.483.483,0,0,1,0,.7C110.86,72.3,110.76,72.3,110.56,72.3Z" fill="#231f20"/>
      <path d="M106.56,79.2a.55.55,0,0,1-.5-.3c-3.2-5.7-10.1-6.8-10.2-6.8a.51.51,0,1,1,.2-1c.3,0,7.4,1.1,10.9,7.3.1.3.1.6-.2.7C106.76,79.2,106.66,79.2,106.56,79.2Z" fill="#231f20"/>
      <path d="M.56,65.7a.55.55,0,0,1-.5-.3c-.1-.3-.1-.6.2-.7,7-4.1,14.8-2.6,15.1-2.6.3.1.5.3.4.6s-.3.5-.6.4c-.1,0-7.8-1.4-14.4,2.4C.76,65.7.66,65.7.56,65.7Z" fill="#231f20"/>
      <path d="M3.96,72.3a.6.6,0,0,1-.4-.1.483.483,0,0,1,0-.7c4.5-4.9,12.9-5.6,13.3-5.6a.552.552,0,0,1,.1,1.1c-.1,0-8.3.7-12.6,5.3Z" fill="#231f20"/>
      <path d="M7.96,79.2a.367.367,0,0,1-.3-.1c-.3-.1-.3-.5-.2-.7,3.5-6.1,10.6-7.2,10.9-7.3a.493.493,0,0,1,.6.4c0,.3-.2.6-.4.6-.1,0-6.9,1.1-10.2,6.8C8.36,79.1,8.16,79.2,7.96,79.2Z" fill="#231f20"/>
      <path d="M35.86,20.9c-9.1-5.3-13.9-10.6-18.1-8.7s-9.2,19,5.1,21.1A32.7,32.7,0,0,1,35.86,20.9Z" fill="#3b2416"/>
      <path d="M78.26,21.7s11.4-7.9,16.2-8.9c4.2-.9,13.4,11.5-2,23.1A40.114,40.114,0,0,0,78.26,21.7Z" fill="#3b2416"/>
      <path d="M21.36,17.9h1.5c.2,0,.6.1.9.1a4.4,4.4,0,0,1,1,.2,13.893,13.893,0,0,1,1.9.6c.6.3,1.2.6,1.7.9a7.3,7.3,0,0,1,1.3.9c.7.6,1.2,1,1.2,1a.188.188,0,0,1,0,.3c-.1.1-.1.1-.2,0,0,0-.5-.3-1.3-.7a5.783,5.783,0,0,0-1.4-.5,9.362,9.362,0,0,0-1.6-.4c-.6,0-1.1-.1-1.6-.1a1.268,1.268,0,0,0-.6.1,1.486,1.486,0,0,0-.6.1,10.976,10.976,0,0,1-1.5.4,1.456,1.456,0,1,1-.8-2.8C21.06,17.9,21.26,17.9,21.36,17.9Z" fill="#e9be4f"/>
      <path d="M93.06,21.9s-.6-.2-1.5-.4c-.2-.1-.4,0-.6-.1a1.268,1.268,0,0,1-.6-.1c-.5,0-1,.1-1.6.1a9.365,9.365,0,0,0-1.6.4c-.5.2-1,.3-1.4.5-.8.4-1.3.7-1.3.7-.1.1-.2,0-.2-.1v-.2a5.11,5.11,0,0,1,1.2-1,14.632,14.632,0,0,1,1.3-.9c.5-.3,1.1-.6,1.6-.9a10.563,10.563,0,0,1,1.9-.6c.3-.1.7-.1,1-.2.3,0,.7-.1.9-.1h1.5a1.451,1.451,0,1,1-.1,2.9Z" fill="#e9be4f"/>
      <path d="M47.36,42.9s-.8,0-1.9.1c-.3,0-.7-.1-1.1-.1-.4-.1-.8-.1-1.3-.2a2.843,2.843,0,0,1-1.2-.4l-1.2-.4c-.7-.4-1.5-.7-2.1-1.1s-1.2-.8-1.7-1.2a17.719,17.719,0,0,1-1.5-1.3.212.212,0,0,1,.3-.3,8.691,8.691,0,0,0,1.7.8c.5.2,1.1.4,1.8.7.7.2,1.4.3,2.1.5l1.1.1a3.352,3.352,0,0,0,1,0c.3,0,.6-.1.8-.1a1.7,1.7,0,0,0,.7-.1,15.147,15.147,0,0,0,1.8-.6,1.834,1.834,0,1,1,1.1,3.5A.6.6,0,0,1,47.36,42.9Z" fill="#754d29"/>
      <path d="M69.06,39.1s.7.2,1.9.5c.3.1.5,0,.7.1h.8c.3.1.6-.1,1-.1l1-.2c.7-.2,1.4-.4,2-.6a13.765,13.765,0,0,0,1.7-.8,16.343,16.343,0,0,0,1.6-.9c.1-.1.2,0,.3.1s0,.2,0,.3a14.665,14.665,0,0,1-1.4,1.4c-.4.4-1,.8-1.6,1.3-.6.4-1.3.8-2,1.3l-1.1.5a2.45,2.45,0,0,1-1.2.4l-1.2.3a5.16,5.16,0,0,1-1.1.2h-1.9a1.851,1.851,0,1,1-.1-3.7A1.76,1.76,0,0,1,69.06,39.1Z" fill="#754d29"/>
      <g>
        <path d="M67.56,81.2h-.2l-8.2-1.3-8.2,1.3a1.217,1.217,0,0,1-.4-2.4l8.6-1.4,8.6,1.4a1.155,1.155,0,0,1,1,1.4A1.188,1.188,0,0,1,67.56,81.2Z" fill="#231f20"/>
        <polygon points="56.06 79.7 59.16 74.3 62.26 79.7 56.06 79.7" fill="#231f20"/>
      </g>
      <g>
        <path d="M59.76,23.8c1.4,1.2,1.1,2.3-.1,5.3-.8,2.1-3.8,2.1-5.2.9s-1.4-3.6.1-5.3C55.96,23,58.36,22.6,59.76,23.8Z" fill="#603a17"/>
        <path d="M69.46,21.5c0,2-2.3,5.1-4.1,3.7-6.1-4.7-2.2-7.4,0-7.4A3.921,3.921,0,0,1,69.46,21.5Z" fill="#603a17"/>
        <path d="M53.26,21.8c-2.8,2.4-1.8,4-4.1,4a4,4,0,1,1,0-8C51.46,17.8,54.96,20.4,53.26,21.8Z" fill="#603a17"/>
      </g>
    </g>
  </g>
</svg>
