<svg id="Layer_1" data-name="Layer 1" xmlns="http://www.w3.org/2000/svg" viewBox="0 0 77.341 134.9">
  <title>Artboard 39</title>
  <g>
    <path d="M72.32,2.5A3.9,3.9,0,0,0,68.72.1a5.979,5.979,0,0,0-4.2,2.2c-4.8,4.9-12.8,20.8-15.4,35.3V36c0-6.5-5.3-9.9-10.5-9.9s-10.5,3.4-10.5,9.9v.5C25.32,22.3,17.62,7,12.92,2.2A6.147,6.147,0,0,0,8.72,0a3.9,3.9,0,0,0-3.6,2.4c-8.7,19.1-6.3,36.8,7.1,52.4C1.02,69.8-.48,93,9.52,104a136.18,136.18,0,0,1,12.3,16.1q1.05,1.65,2.1,3c3.3,7.1,9.3,11.8,15.1,11.8,3,0,10.5-1.2,15.1-12.6.5-.7,1-1.5,1.5-2.2A126.1,126.1,0,0,1,67.92,104c9.9-10.9,8.4-34.1-2.7-49.1C78.42,39,80.92,21.4,72.32,2.5Z" fill="#2d2413"/>
    <g>
      <g>
        <g>
          <path d="M53.22,55.9c-8.5-16.4,13.5-58.3,16.4-52.1,11.7,25.7-1.1,43.6-10.2,53.1Z" fill="#959d9f"/>
          <path d="M54.52,57.2C49.32,47,63.02,21,64.62,24.9c6.4,14.7-4.6,24-7.6,32.3Z" fill="#606481"/>
        </g>
        <g>
          <path d="M24.32,55.9c8.5-16.4-13.5-58.3-16.4-52.1-11.7,25.7.1,42.9,10.2,53.1Z" fill="#959d9f"/>
          <path d="M23.02,57.2c5.2-10.2-8.5-36.2-10.1-32.3-6.4,14.7,4.6,24,7.6,32.3Z" fill="#606481"/>
        </g>
      </g>
      <path d="M38.72,44c-29.4.1-40.9,42.8-26.9,58.1,14.6,16,17,28.6,26.9,28.8,10-.3,12.3-12.8,26.9-28.8C79.62,86.8,68.02,44.1,38.72,44Z" fill="#959d9f"/>
      <path d="M25.62,96.2c-.9,4.7,2,8.4,3.1,17.2.3,2.6,6.2,2.3,10,2.3,3.7,0,10.1.3,10-2.3-.2-7.4,4-12.5,3.1-17.1-.5-2.6-6.4-13.4-12.5-13.5C32.82,82.7,26.12,93.5,25.62,96.2Z" fill="#f7fcfc"/>
      <path d="M46.22,36.1c0,9.1-3.4,16.5-7.5,16.5s-7.5-7.4-7.5-16.5C31.22,26.9,46.22,26.9,46.22,36.1Z" fill="#404356"/>
      <g>
        <polygon points="50.32 90 62.12 84.9 63.62 90.8 50.82 92 50.32 90" fill="#231f20"/>
        <polygon points="26.62 92 13.82 90.8 15.32 84.9 27.12 90 26.62 92" fill="#231f20"/>
      </g>
      <g>
        <path d="M25.42,73.8s-.8,0-1.9.1c-.4,0-.4.1-.7.1-.2,0-.5.1-.7.1a3.176,3.176,0,0,0-.9.3l-.9.4c-.6.4-1.2.7-1.8,1.1-.5.4-1.1.8-1.5,1.2l-1.3,1.3a.44.44,0,0,1-.5.1c-.1-.1-.2-.2-.1-.4a7.371,7.371,0,0,1,.8-1.8,8.109,8.109,0,0,1,1-1.8,24.265,24.265,0,0,1,1.4-2l.9-.9a9.013,9.013,0,0,1,1-.9,10.47,10.47,0,0,0,1.1-.8c.4-.2.8-.5,1-.6,1.1-.5,1.8-.8,1.8-.8a2.706,2.706,0,0,1,2.3,4.9,1.432,1.432,0,0,1-1,.4Z" fill="#606481"/>
        <path d="M53.32,68.6s.7.3,1.8.8c.2.1.7.4,1,.6a7.622,7.622,0,0,1,1.1.8c.4.3.6.6,1,.9l.9.9a24.265,24.265,0,0,1,1.4,2c.4.7.7,1.3,1,1.8.5,1.1.8,1.8.8,1.8.1.2,0,.4-.2.4a.6.6,0,0,1-.4-.1,12.976,12.976,0,0,0-1.3-1.3,9.827,9.827,0,0,0-1.5-1.2,10.809,10.809,0,0,0-1.8-1.1l-.9-.4a3.179,3.179,0,0,0-.9-.3,1.7,1.7,0,0,0-.7-.1,5.64,5.64,0,0,0-.7-.1c-1.2-.1-1.9-.1-1.9-.1h0a2.754,2.754,0,1,1,.3-5.5A1.231,1.231,0,0,1,53.32,68.6Z" fill="#606481"/>
      </g>
      <g>
        <path d="M25.12,117.8c2.4,9.1,8.8,14.3,13.9,14.3s10.4-4.1,13.2-13.3c2.2-7.3-5.6-13.3-13.2-13.3C31.32,105.4,23.12,110.4,25.12,117.8Z" fill="#8086ad"/>
        <g>
          <path d="M48.72,113.1l-.1.4a2.607,2.607,0,0,1-.3,1.1,6.331,6.331,0,0,1-1.6,2.4,8.344,8.344,0,0,1-1.2.8,4.877,4.877,0,0,1-1.1.4,6.736,6.736,0,0,1-1,.1.349.349,0,0,1-.2-.1v-.1h0s.2-.3.5-.8a6.884,6.884,0,0,0,.3-.8,1.388,1.388,0,0,0,0-.9,2.618,2.618,0,0,0-.6-1.3c-.1-.2-.2-.2-.3-.2-.1.1-.1-.2-.1-.1a2.885,2.885,0,1,1,5.7-.9Z" fill="#404356"/>
          <path d="M33.92,114s-.1.2-.1.1c-.1,0-.2,0-.3.2a3.151,3.151,0,0,0-.6,1.3,2.72,2.72,0,0,0,0,.9c.1.3.1.6.3.8.3.5.5.8.5.8h0c0,.1,0,.2-.1.2h-.1a4.538,4.538,0,0,0-1-.1,2.965,2.965,0,0,1-1.1-.4,4.183,4.183,0,0,1-1.2-.8,5.608,5.608,0,0,1-1.6-2.4,6.148,6.148,0,0,1-.3-1.1c0-.4-.1-.3-.1-.4a2.885,2.885,0,1,1,5.7.9Z" fill="#404356"/>
        </g>
        <path d="M33.52,121.7l7.5.8c1,1.6-1.3,4.8-2.9,4.1A8.76,8.76,0,0,1,33.52,121.7Z" fill="#231f20"/>
      </g>
    </g>
  </g>
</svg>
