<svg id="Layer_1" data-name="Layer 1" xmlns="http://www.w3.org/2000/svg" viewBox="0 0 103.927 117.2">
  <title>Artboard 44</title>
  <g>
    <path d="M95.022.1a2.769,2.769,0,0,0-.9-.1,3.193,3.193,0,0,0-1.4.3,57.148,57.148,0,0,0-8.3,5.6c-5.9,4.8-9.4,9.6-10.3,14.4-1,5.4-2.1,14.3-3,21.9l-2.1-.6c1-6.3.9-15.3-3.1-26.2a3.008,3.008,0,0,0-2.8-2,1.953,1.953,0,0,0-.7.1,2.878,2.878,0,0,0-2.3,3.2,63.22,63.22,0,0,1-2.2,23.1c-2-.1-4-.2-6-.2s-4.1.1-6,.2a63.223,63.223,0,0,1-2.2-23.1,3.057,3.057,0,0,0-2.3-3.2,1.483,1.483,0,0,0-.7-.1,3.008,3.008,0,0,0-2.8,2,53.337,53.337,0,0,0-3.1,26.2l-2.1.6c-.9-7.6-2-16.5-3-21.9-.9-4.8-4.4-9.6-10.3-14.4a63.98,63.98,0,0,0-8.3-5.6,3.2,3.2,0,0,0-1.4-.3,2.77,2.77,0,0,0-.9.1,2.978,2.978,0,0,0-1.8,1.5c-.6,1.1-13.4,26.1-2.9,40.7a120.949,120.949,0,0,0,11.5,14,29.845,29.845,0,0,0-2.5,12.6c0,21.7,26,48.3,38.8,48.3s38.8-26.6,38.8-48.3a31.465,31.465,0,0,0-2.5-12.6,110.171,110.171,0,0,0,11.6-14c10.5-14.6-2.4-39.7-2.9-40.7A3.093,3.093,0,0,0,95.022.1Z" fill="#2d2413"/>
    <g>
      <g>
        <g>
          <path d="M73.022,52.3s2.2-21.7,4-31.5S94.122,3,94.122,3s12.7,24.3,3.2,37.6c-9.3,12.9-15.6,17.7-15.6,17.7Z" fill="#f28c20"/>
          <path d="M76.322,52.8s5.2-22.2,6.3-28.1,10.4-10.9,10.4-10.9,4.9,12.6.5,21.5a98.176,98.176,0,0,1-13.4,20Z" fill="#7a481d"/>
        </g>
        <g>
          <path d="M30.722,52.3s-2.2-21.7-4-31.5S9.622,3,9.622,3s-12.7,24.3-3.2,37.6c9.3,12.9,15.6,17.7,15.6,17.7Z" fill="#f28c20"/>
          <path d="M27.422,52.8s-5.2-22.2-6.3-28.1-10.4-10.9-10.4-10.9-4.9,12.6-.5,21.5a98.176,98.176,0,0,0,13.4,20Z" fill="#7a481d"/>
        </g>
      </g>
      <g>
        <path d="M56.222,52.1a65.34,65.34,0,0,0,6.9-35.7c8.4,22.7-1.2,36.8-1.2,36.8Z" fill="#7a481d"/>
        <path d="M47.522,52.1a65.34,65.34,0,0,1-6.9-35.7c-8.4,22.7,1.2,36.8,1.2,36.8Z" fill="#7a481d"/>
      </g>
      <path d="M87.722,68.9c0,19.8-24.5,45.3-35.8,45.3s-35.8-25.5-35.8-45.3,16.1-26.4,35.8-26.4C71.722,42.5,87.722,49.1,87.722,68.9Z" fill="#f28c20"/>
      <path d="M74.222,60.4c-7.4-9.2-22.3,1.3-22.3,1.3s-15-10.5-22.3-1.3c-21.7,27,19.5,20.5,21.1,42.3h2.4C54.722,80.8,95.922,87.3,74.222,60.4Z" fill="#fff"/>
      <g>
        <g>
          <g>
            <circle cx="68.022" cy="73" r="6.2" fill="#231f20"/>
            <circle cx="68.222" cy="73" r="2.4" fill="#fff"/>
          </g>
          <path d="M64.222,62.2a11.62,11.62,0,0,0,1.3-.1h.7c.3,0,.5.1.8.1a14.245,14.245,0,0,1,1.6.5,12.643,12.643,0,0,1,3.5,2.2c.1.1.1.1,0,.2a.139.139,0,0,1-.2,0,3.649,3.649,0,0,0-1.1-.5,8.924,8.924,0,0,0-2.6-.7c-.5,0-1-.1-1.4-.1a.749.749,0,0,0-.5.1.9.9,0,0,0-.5.1c-.7.2-1.2.4-1.2.4a1.107,1.107,0,1,1-.7-2.1A.368.368,0,0,1,64.222,62.2Z" fill="#7a481d"/>
        </g>
        <g>
          <g>
            <circle cx="35.722" cy="73" r="6.2" fill="#231f20"/>
            <circle cx="35.722" cy="73" r="2.4" fill="#fff"/>
          </g>
          <path d="M39.122,64.3s-.5-.2-1.2-.4c-.2-.1-.3,0-.5-.1a.749.749,0,0,1-.5-.1,7.086,7.086,0,0,0-1.4.1,16.261,16.261,0,0,0-2.6.7c-.7.3-1.1.5-1.1.5h-.2v-.2a12.64,12.64,0,0,1,3.5-2.2,7.5,7.5,0,0,1,1.6-.5c.3,0,.6-.1.8-.1s.5-.1.7,0a11.62,11.62,0,0,0,1.3.1,1.1,1.1,0,1,1-.2,2.2C39.322,64.4,39.222,64.3,39.122,64.3Z" fill="#7a481d"/>
        </g>
      </g>
      <g>
        <path d="M66.022,86.8c0,7.8-6.3,19.8-14.1,19.8s-14.1-12-14.1-19.8,6.3-8.4,14.1-8.4C59.622,78.3,66.022,79,66.022,86.8Z" fill="#f3dbb4"/>
        <path d="M51.922,78.1c-11.1,0-11.1,4.7-11.1,4.7s4.4,9.1,11.1,9.1,11.1-9.1,11.1-9.1S62.922,78.1,51.922,78.1Z" fill="#7c6c4f"/>
      </g>
      <g>
        <path d="M59.122,99.3l-7.2-2.2-7.3,2.2-3.1-3.1a.566.566,0,1,1,.8-.8l2.6,2.6,7-2.1,6.9,2.1,2.6-2.6a.566.566,0,0,1,.8.8Z" fill="#231f20"/>
        <polygon points="47.622 97.8 51.922 92.8 56.122 97.8 47.622 97.8" fill="#231f20"/>
      </g>
      <g>
        <path d="M48.222,87.6s-.4-.2-.9-.5c-.3-.2-.6-.5-1-.8-.3-.3-.6-.7-.9-1a10,10,0,0,1-1.4-3c0-.1,0-.1.1-.1s.1,0,.1.1a10.048,10.048,0,0,0,2,2.4,4.7,4.7,0,0,0,.9.6c.1.1.3.1.4.2s.2.1.4.2c.6.1,1,.2,1,.2a.982.982,0,1,1-.5,1.9C48.422,87.7,48.322,87.7,48.222,87.6Z" fill="#423941"/>
        <path d="M54.722,85.8s.4-.1,1-.2c.2,0,.2-.1.4-.2.1-.1.3-.1.4-.2a4.694,4.694,0,0,0,.9-.6,10.048,10.048,0,0,0,2-2.4c0-.1.1-.1.2,0l.1.1a10,10,0,0,1-1.4,3,8.117,8.117,0,0,1-.9,1,7,7,0,0,1-1,.8c-.5.3-.9.5-.9.5a.962.962,0,1,1-.9-1.7C54.522,85.9,54.622,85.9,54.722,85.8Z" fill="#423941"/>
      </g>
    </g>
  </g>
</svg>
