<svg id="Layer_1" data-name="Layer 1" xmlns="http://www.w3.org/2000/svg" viewBox="0 0 114.2 94.5">
  <title>Artboard 28</title>
  <g>
    <path d="M36.8,86.6a29.218,29.218,0,0,0,5.1-.4c4.5,5.3,10,8.3,15.2,8.3s10.7-3,15.2-8.3a29.218,29.218,0,0,0,5.1.4c15.8,0,36.8-3.1,36.8-30.2C114.2,33.7,98.8,0,77.4,0A32.7,32.7,0,0,0,57.1,7.2,32.7,32.7,0,0,0,36.8,0C15.5,0,0,33.7,0,56.4.1,83.5,21.1,86.6,36.8,86.6Z" fill="#2d2413"/>
    <g>
      <g>
        <path d="M111.3,56.4c0,22.3-15.1,27.2-33.8,27.2s-33.8-18-33.8-40.3S58.8,3,77.5,3,111.3,34.2,111.3,56.4Z" fill="#dcb8ad"/>
        <path d="M3.1,56.4c0,22.3,15.1,27.2,33.8,27.2s33.8-18,33.8-40.3S55.6,3,36.9,3,3.1,34.2,3.1,56.4Z" fill="#dcb8ad"/>
      </g>
      <path d="M27.4,53.5c0-16.5,1.7-29.8,29.8-29.8S87,37.1,87,53.5C87,70,62.1,83.3,57.2,83.3S27.4,69.9,27.4,53.5Z" fill="#ce776a"/>
      <path d="M77.3,66.6c0,11.1-10.1,24.9-20.1,24.9S37.1,77.7,37.1,66.6,52.9,51.3,57.2,51.3,77.3,55.5,77.3,66.6Z" fill="#895045"/>
      <g>
        <path d="M64.8,58.1h.7a5.5,5.5,0,0,1,1.6.3,13.56,13.56,0,0,1,2.3.9,9.386,9.386,0,0,1,1.2.9,3.806,3.806,0,0,1,.9,1.3,7.838,7.838,0,0,1,.5,1.4c0,.5.1.9.1,1.3a5.44,5.44,0,0,1-.4,2c-.2.5-.4.9-.5,1.2a4.2,4.2,0,0,1-.2.5.63.63,0,0,1-.8.3.675.675,0,0,1-.4-.6V65.8a4.013,4.013,0,0,0-.3-1.5,3.328,3.328,0,0,0-.3-.6c-.1-.2-.3-.3-.4-.4a3.018,3.018,0,0,0-2.1-.2,3.092,3.092,0,0,1-.8.2c-.1,0-.1.1-.2.1h-.2A2.85,2.85,0,0,1,64,57.9,1.078,1.078,0,0,0,64.8,58.1Z" fill="#351f1a"/>
        <path d="M48.8,63.6h0c-.1-.1-.1-.1-.2-.1a1.884,1.884,0,0,0-.8-.2,3.019,3.019,0,0,0-2.1.2c-.1.1-.3.2-.4.4s-.3.4-.3.6a4.012,4.012,0,0,0-.3,1.5,4.744,4.744,0,0,0,0,1.2v.6a.645.645,0,0,1-.6.6.622.622,0,0,1-.6-.4,4.2,4.2,0,0,1-.2-.5c-.1-.3-.3-.7-.5-1.2a5.439,5.439,0,0,1-.4-2,2.979,2.979,0,0,1,.1-1.3,4.76,4.76,0,0,1,.5-1.4,3.806,3.806,0,0,1,.9-1.3,4.7,4.7,0,0,1,1.2-.9,6.082,6.082,0,0,1,2.3-.9,6.136,6.136,0,0,1,1.6-.3h.7a2.854,2.854,0,1,1,.3,5.7,2.769,2.769,0,0,1-.9-.1Z" fill="#351f1a"/>
      </g>
      <g>
        <polygon points="63.7 49 77 44 78.1 48.4 64.1 50.4 63.7 49" fill="#231f20"/>
        <polygon points="50.3 50.4 36.3 48.4 37.4 44 50.6 49 50.3 50.4" fill="#231f20"/>
      </g>
      <g>
        <path d="M63.4,37.2,70,31.7a.188.188,0,0,1,.3,0c.1.1.1.2,0,.2l-4.4,7.4A1.681,1.681,0,0,1,63,37.6.781.781,0,0,0,63.4,37.2Z" fill="#351f1a"/>
        <path d="M48.5,39.4,44.1,32c-.1-.1,0-.2.1-.3h.2L51,37.2a1.632,1.632,0,1,1-2.1,2.5C48.7,39.7,48.6,39.5,48.5,39.4Z" fill="#351f1a"/>
      </g>
      <path d="M43.3,76.9a1.446,1.446,0,0,1-.7-.2,1.3,1.3,0,0,1-.4-1.8l2.9-4.4H69.3l2.9,4.4A1.3,1.3,0,1,1,70,76.3l-2.1-3.2H46.5l-2.1,3.2A1.382,1.382,0,0,1,43.3,76.9Z" fill="#010101"/>
      <g>
        <g>
          <path d="M74.3,51.8a19.753,19.753,0,0,1,3.8-.4,9.245,9.245,0,0,1,2.9.4c.2.1.4.1.6.3a2.181,2.181,0,0,1,.5.3,1.2,1.2,0,0,1,.4.4A1.556,1.556,0,1,1,80.3,55h0l-.3-.3v-.1a.1.1,0,0,0-.1-.1c0-.1-.1-.1-.2-.2a5.359,5.359,0,0,0-2-.9,23.38,23.38,0,0,0-3.5-.7.457.457,0,0,1-.4-.5A1.753,1.753,0,0,1,74.3,51.8Z" fill="#b83125"/>
          <path d="M74.1,54.3a21.965,21.965,0,0,1,3.3,1.1l1.2.6a8.649,8.649,0,0,1,1,.7,2.509,2.509,0,0,1,.7.8l.3.3a1.633,1.633,0,0,1-2.5,2.1c-.1-.1-.2-.3-.3-.4l-.1-.2a.1.1,0,0,0-.1-.1c0-.1,0-.1-.1-.2a.368.368,0,0,0-.1-.3c-.2-.2-.3-.5-.5-.7a3.044,3.044,0,0,0-.8-.8,17.324,17.324,0,0,0-2.5-2,.377.377,0,0,1-.1-.6C73.8,54.4,73.9,54.3,74.1,54.3Z" fill="#b83125"/>
        </g>
        <g>
          <path d="M40,52.7a23.38,23.38,0,0,0-3.5.7,9.648,9.648,0,0,0-2,.9c-.1.1-.2.1-.2.2a.1.1,0,0,1-.1.1v.1l-.3.3a1.556,1.556,0,1,1-2.2-2.2h0l.4-.4a2.19,2.19,0,0,1,.5-.3l.6-.3a9.245,9.245,0,0,1,2.9-.4,19.753,19.753,0,0,1,3.8.4.382.382,0,0,1,.3.5C40.4,52.5,40.2,52.7,40,52.7Z" fill="#b83125"/>
          <path d="M40.6,55.1a17.324,17.324,0,0,0-2.5,2,6.036,6.036,0,0,1-.8.8c-.2.3-.4.5-.5.7a.367.367,0,0,0-.1.3c0,.1,0,.1-.1.2a.1.1,0,0,1-.1.1l-.1.2a1.616,1.616,0,1,1-3-1.2,1.382,1.382,0,0,1,.3-.4l.3-.3c.2-.2.4-.5.7-.8.3-.2.7-.5,1-.7l1.2-.6a21.966,21.966,0,0,1,3.3-1.1.382.382,0,0,1,.5.3A.44.44,0,0,1,40.6,55.1Z" fill="#b83125"/>
        </g>
      </g>
    </g>
  </g>
</svg>
