<svg id="Layer_1" data-name="Layer 1" xmlns="http://www.w3.org/2000/svg" viewBox="0 0 116.482 92.4">
  <title>Artboard 37</title>
  <g>
    <path d="M97.641,37c11.5,0,18.4-9,18.8-12.9.2-1.9.7-6.3-26.6-16.9a3.554,3.554,0,0,0-1-.2l-12.2-.4A29.677,29.677,0,0,0,58.241,0c-6.5,0-12.6,2.2-18.4,6.6l-12.2.4a3.554,3.554,0,0,0-1,.2c-27.3,10.5-26.8,15-26.6,16.9.4,3.8,7.3,12.9,18.8,12.9h1.3a65.029,65.029,0,0,0-3.3,19.7c0,13.1,20.9,29.7,34.5,34.2a16.39,16.39,0,0,0,13.7,0c13.6-4.5,34.5-21.1,34.5-34.2a67.728,67.728,0,0,0-3.3-19.7Z" fill="#2d2413"/>
    <g>
      <g>
        <path d="M47.741,9.5l-19.8.6s-25.1,9.7-24.7,13.7,16,22.4,39.1-3.1Z" fill="#eecabd"/>
        <path d="M40.341,18.7l-12,.6s-16.7,4.8-16.4,7.5,8.3,9.9,24.8-1.4Z" fill="#978a84"/>
      </g>
      <g>
        <path d="M68.941,9.5l19.8.6s25.1,9.7,24.7,13.7-16,22.4-39.1-3.1Z" fill="#eecabd"/>
        <path d="M76.341,18.7l12,.6s16.7,4.8,16.4,7.5-8.3,9.9-24.8-1.4Z" fill="#978a84"/>
      </g>
      <path d="M58.341,3.1c-23.2,0-38.3,32.4-38.3,53.5,0,13.3,26.5,32.4,38.3,32.4s38.3-19.2,38.3-32.4C96.641,35.5,81.541,3.1,58.341,3.1Z" fill="#eecabd"/>
      <path d="M37.741,49.9c9.6,0,8.9-12.3,19.5-12.4,11.2-.1,7.3,10.9,21.7,12.4-8.9,7.9-10.9,30.9-10.9,30.9h-19.9S46.141,62.3,37.741,49.9Z" fill="#f8e7d6"/>
      <g>
        <g>
          <path d="M83.141,49.9a7.3,7.3,0,1,1-7.3-7.3A7.341,7.341,0,0,1,83.141,49.9Z" fill="#231f20"/>
          <circle cx="76.941" cy="52.1" r="2.8" fill="#fff"/>
        </g>
        <g>
          <path d="M33.541,49.9a7.3,7.3,0,1,0,7.3-7.3A7.341,7.341,0,0,0,33.541,49.9Z" fill="#231f20"/>
          <circle cx="41.841" cy="52" r="2.8" fill="#fff"/>
        </g>
      </g>
      <path d="M42.241,73c0,8.9,8.2,16.2,16.1,16.2s16.1-7.4,16.1-16.2c0-8.9-7.2-10.6-16.1-10.6C49.441,62.5,42.241,64.2,42.241,73Z" fill="#967876"/>
      <g>
        <path d="M62.041,71.4s.5-.1,1.3-.2a4.332,4.332,0,0,0,.5-.1.758.758,0,0,0,.4-.2c.3,0,.7-.4,1.1-.6a4.741,4.741,0,0,0,1-1c.2-.4.5-.7.7-1.1a4.462,4.462,0,0,0,.5-1.2c0-.1.2-.2.3-.2a.215.215,0,0,1,.2.2,5.36,5.36,0,0,1,0,1.4,13.123,13.123,0,0,1-.3,1.5,11.11,11.11,0,0,1-.7,1.6,5.273,5.273,0,0,1-1.1,1.5,4.621,4.621,0,0,0-.7.7,6.128,6.128,0,0,1-.6.4,11.629,11.629,0,0,0-1.1.7h0a1.956,1.956,0,1,1-2.1-3.3A3.505,3.505,0,0,1,62.041,71.4Z" fill="#4c3c3c"/>
        <path d="M53.241,75s-.5-.3-1.1-.7a6.109,6.109,0,0,1-.6-.4,4.621,4.621,0,0,1-.7-.7,8.779,8.779,0,0,1-1.2-1.5,11.114,11.114,0,0,1-.7-1.6l-.3-1.5a5.36,5.36,0,0,1,0-1.4c0-.1.1-.2.3-.2a.215.215,0,0,1,.2.2,4.462,4.462,0,0,0,.5,1.2c.2.3.4.7.7,1.1a9.428,9.428,0,0,0,1,1c.4.2.7.6,1.1.6.2.1.3.1.4.2a.75.75,0,0,0,.5.1c.8.1,1.3.2,1.3.2a1.981,1.981,0,0,1-.7,3.9,2.308,2.308,0,0,0-.7-.5Z" fill="#4c3c3c"/>
      </g>
      <g>
        <path d="M64.541,85.5h-12.4l-3.2-2a1.235,1.235,0,0,1,1.3-2.1l2.6,1.7h11l2.6-1.7a1.235,1.235,0,0,1,1.3,2.1Z" fill="#010101"/>
        <polygon points="55.941 84.3 58.341 79.2 60.641 84.3 55.941 84.3" fill="#010101"/>
      </g>
      <g>
        <path d="M90.041,57.8c-2.1-3-16.7,7.3-14.6,10.3s7.1,3.1,11.1.2C90.641,65.5,92.141,60.7,90.041,57.8Z" fill="#ea9cc4"/>
        <path d="M26.541,57.8c2.1-3,16.7,7.3,14.6,10.3s-7.1,3.1-11.1.2C26.041,65.5,24.441,60.7,26.541,57.8Z" fill="#ea9cc4"/>
      </g>
      <g>
        <path d="M76.941,27.2l12.5,7.6c.2.1.2.3.1.5a.52.52,0,0,1-.4.2l-14.3-3a2.8,2.8,0,1,1,1.1-5.5A1.023,1.023,0,0,1,76.941,27.2Z" fill="#aa9a96"/>
        <path d="M41.741,32.3l-14.3,3c-.2,0-.4-.1-.4-.3a.4.4,0,0,1,.2-.4l12.5-7.6a2.847,2.847,0,0,1,2.9,4.9A1.8,1.8,0,0,1,41.741,32.3Z" fill="#aa9a96"/>
      </g>
    </g>
  </g>
</svg>
