<svg id="Layer_1" data-name="Layer 1" xmlns="http://www.w3.org/2000/svg" xmlns:xlink="http://www.w3.org/1999/xlink" viewBox="0 0 127.248 115.5">
  <defs>
    <clipPath id="clip-path">
      <path d="M63.774,25.3h0c-31.7.2-39.9,22.8-32.9,40.9,5.9,15.2,13.4,43.9,32.8,43.9h0c19.4-.1,26.9-28.8,32.8-43.9C103.574,48.1,95.274,25.5,63.774,25.3Z" fill="none"/>
    </clipPath>
  </defs>
  <title>Artboard 32</title>
  <g>
    <path d="M98.274,1.1a3.043,3.043,0,0,0-2.4-1.1h-.4c-.4.1-10.6,1.7-18,13.1a14.932,14.932,0,0,0-1.8,4.2v-.1c0-7.6-6-11.6-11.9-11.6s-11.9,4-11.9,11.6v.1a13.4,13.4,0,0,0-1.8-4.2c-7.5-11.4-17.6-13.1-18-13.1h-.4a3.194,3.194,0,0,0-2.4,1.1c-8.6,10.9-3.9,23.6,4.7,31.9-8.4,8.6-10.7,21.7-5.7,34.3.8,1.9,1.5,4.1,2.4,6.4,4.7,13,11.1,30.6,23.3,37,3.1,3,6.8,4.8,9.9,4.8s6.7-1.8,9.8-4.7c12.4-6.3,18.8-24.1,23.5-37.1.8-2.3,1.6-4.5,2.4-6.4,4.9-12.6,2.6-25.7-5.8-34.3C102.074,24.7,106.774,12,98.274,1.1Z" fill="#2d2413"/>
    <g>
      <g>
        <g>
          <path d="M75.474,30.4s2.3-12.5,4.4-15.7c6.8-10.4,16-11.8,16-11.8,10.5,13.3-2.5,28.4-11.1,32.8Z" fill="#e6e7e7"/>
          <path d="M82.374,33a18.788,18.788,0,0,1,2.3-16.7c4.6-6.6,10.4-7.7,10.4-7.7C101.874,22.7,82.374,33,82.374,33Z" fill="#595a5c"/>
        </g>
        <g>
          <path d="M51.774,30.4s-2.3-12.5-4.4-15.7c-6.8-10.4-16-11.8-16-11.8-10.5,13.3,2.5,28.4,11.1,32.8Z" fill="#e6e7e7"/>
          <path d="M44.874,33a18.788,18.788,0,0,0-2.3-16.7c-4.6-6.6-10.4-7.7-10.4-7.7C25.374,22.7,44.874,33,44.874,33Z" fill="#595a5c"/>
        </g>
      </g>
      <path d="M63.774,25.3h0c-31.7.2-39.9,22.8-32.9,40.9,5.9,15.2,13.4,43.9,32.8,43.9h0c19.4-.1,26.9-28.8,32.8-43.9C103.574,48.1,95.274,25.5,63.774,25.3Z" fill="#e6e7e7"/>
      <path d="M72.174,72.4c0-10.8-3.8-19.6-8.5-19.7h0c-4.7,0-8.5,8.8-8.5,19.7s-2.5,19.7,8.5,19.7h0C74.674,92.1,72.174,83.3,72.174,72.4Z" fill="#6e6f71"/>
      <path d="M50.874,98.2c0,7.1,7.6,14.3,12.8,14.3s12.8-7.2,12.8-14.3-7.8-10.3-12.8-10.3S50.874,91.2,50.874,98.2Z" fill="#414142"/>
      <g>
        <path d="M67.174,94.8a7.349,7.349,0,0,1,.8-.2c.1,0,.2-.1.3-.1h.2c.2,0,.4-.2.6-.3a2.379,2.379,0,0,0,.9-1.3,4.418,4.418,0,0,0,.3-.8c0-.1.1-.1.2-.1a.1.1,0,0,1,.1.1,2.414,2.414,0,0,1,.3.8,3.6,3.6,0,0,1,.1,2.1,3.816,3.816,0,0,1-.4,1.3,2.092,2.092,0,0,1-.4.6,1.381,1.381,0,0,1-.3.4c-.3.4-.5.7-.5.7h0a2.081,2.081,0,1,1-3.4-2.4A2.8,2.8,0,0,1,67.174,94.8Z" fill="#231f20"/>
        <path d="M57.774,98s-.2-.3-.5-.7c-.1-.1-.2-.3-.3-.4a2.092,2.092,0,0,0-.4-.6,3.259,3.259,0,0,1-.4-1.3,6.85,6.85,0,0,1,.1-2.1,2.414,2.414,0,0,1,.3-.8c0-.1.1-.1.2-.1l.1.1s.1.3.3.8a5.084,5.084,0,0,0,.9,1.3c.2.1.4.3.6.3h.2c.1,0,.2.1.3.1a7.349,7.349,0,0,1,.8.2,2.122,2.122,0,1,1-1.1,4.1,3.125,3.125,0,0,1-1.1-.9Z" fill="#231f20"/>
      </g>
      <path d="M77.074,54.7s.7,0,1.7-.1c.2,0,.6.1.9.1.3.1.7.1,1.1.2a2.933,2.933,0,0,1,1,.3l1,.4a10.419,10.419,0,0,1,1.8,1c.5.4,1,.7,1.4,1a13.3,13.3,0,0,1,1.3,1.1.188.188,0,0,1,0,.3c-.1.1-.2.1-.2,0,0,0-.6-.3-1.5-.7-.4-.2-1-.4-1.5-.6a11.63,11.63,0,0,0-1.8-.4l-.9-.1c-.3,0-.6-.1-.8,0-.2,0-.5.1-.7.1a1.269,1.269,0,0,0-.6.1c-.9.3-1.6.5-1.6.5a1.581,1.581,0,0,1-1-3C76.774,54.7,76.874,54.7,77.074,54.7Z" fill="#010101"/>
      <path d="M50.774,57.8s-.6-.2-1.6-.5c-.3-.1-.4,0-.6-.1a1.7,1.7,0,0,1-.7-.1c-.2-.1-.5,0-.8,0l-.9.1a10.7,10.7,0,0,0-3.3,1c-.9.4-1.5.7-1.5.7-.1.1-.2,0-.3-.1v-.2a13.294,13.294,0,0,1,1.3-1.1c.4-.3.9-.6,1.4-1,.5-.3,1.2-.6,1.8-1l1-.4a2.935,2.935,0,0,1,1-.3c.4-.1.7-.1,1.1-.2.3,0,.7-.1.9-.1a13.3,13.3,0,0,1,1.7.1,1.6,1.6,0,1,1-.2,3.2C51.074,57.9,50.874,57.9,50.774,57.8Z" fill="#010101"/>
      <path d="M72.574,17.2c0,11.5-4,20.8-8.9,20.8s-8.9-9.3-8.9-20.8S72.574,5.7,72.574,17.2Z" fill="#231f20"/>
      <g>
        <g clip-path="url(#clip-path)">
          <g>
            <path d="M85.174,29c8.8,0,16,8.5,16.5,19.3,0-.5.1-1,.1-1.5,0-11.5-8.3-21.4-17.5-21.4s-15.7,9.9-15.7,21.4C68.574,47.4,76.374,29,85.174,29Z" fill="#231f20"/>
            <path d="M94.774,38c9.4,0,15.2,9,15.8,20.5,0-.5.1-1,.1-1.6,0-12.3-7.7-24-17.5-24s-18.6,5.1-21.4,22.7C78.674,41.2,85.374,38,94.774,38Z" fill="#231f20"/>
            <path d="M116.074,54.9c8.8,5.9,12.2,18.2,6.7,30l.9-1.5c6.5-12.2,3.9-26.4-5.9-31.6s-23,.5-29.6,12.7C87.874,65,105.274,47.7,116.074,54.9Z" fill="#231f20"/>
            <path d="M113.074,40.7c9.4,5,12.2,18.2,6.7,30l.9-1.5c6.5-12.2,3.9-26.4-5.9-31.6s-23,.5-29.6,12.7C84.874,50.8,103.674,35.7,113.074,40.7Z" fill="#231f20"/>
          </g>
        </g>
        <g clip-path="url(#clip-path)">
          <g>
            <path d="M42.074,29c-8.8,0-16,8.5-16.6,19.3,0-.5-.1-1-.1-1.5,0-11.5,8.3-21.4,17.5-21.4s15.7,9.9,15.7,21.4C58.674,47.4,50.874,29,42.074,29Z" fill="#231f20"/>
            <path d="M32.474,38c-9.4,0-15.2,9-15.8,20.5,0-.5-.1-1-.1-1.6,0-12.3,7.7-24,17.5-24s18.6,5.1,21.4,22.7C48.674,41.2,41.874,38,32.474,38Z" fill="#231f20"/>
            <path d="M11.174,54.9c-8.8,5.9-12.2,18.2-6.7,30l-.9-1.5c-6.5-12.2-3.9-26.4,5.9-31.6s23,.5,29.6,12.7C39.374,65,21.974,47.7,11.174,54.9Z" fill="#231f20"/>
            <path d="M14.174,40.7c-9.4,5-12.2,18.2-6.7,30l-.9-1.5c-6.5-12.2-3.9-26.4,5.9-31.6s23,.5,29.6,12.7C42.374,50.8,23.574,35.7,14.174,40.7Z" fill="#231f20"/>
          </g>
        </g>
      </g>
      <g>
        <g>
          <circle cx="47.174" cy="70.4" r="6.1" fill="#231f20"/>
          <circle cx="48.174" cy="71.3" r="1.7" fill="#fff"/>
        </g>
        <g>
          <path d="M85.574,70.4a6.1,6.1,0,1,1-6.1-6.1A6.061,6.061,0,0,1,85.574,70.4Z" fill="#231f20"/>
          <circle cx="80.474" cy="71.3" r="1.7" fill="#fff"/>
        </g>
      </g>
      <g>
        <circle cx="80.074" cy="85.3" r="4.6" fill="#f7afc1"/>
        <path d="M51.774,85.3a4.55,4.55,0,1,1-9.1,0c0-2.5,4.6-4.6,4.6-4.6S51.774,82.8,51.774,85.3Z" fill="#f7afc1"/>
      </g>
    </g>
  </g>
</svg>
