<svg id="Layer_1" data-name="Layer 1" xmlns="http://www.w3.org/2000/svg" viewBox="0 0 109.381 101.1">
  <title>Artboard 12</title>
  <g>
    <path d="M104.794,20a1.268,1.268,0,0,0-.6.1c-2.7.5-16.6,3.2-20.2,5a8.863,8.863,0,0,0-3.3,3.3,30.659,30.659,0,0,0-5.1-5.6,22.938,22.938,0,0,0,.1-10.1v-.1c-.1-.4-.2-.9-.3-1.3v-.2c-.1-.4-.2-.7-.3-1.1l-.1-.2a4.873,4.873,0,0,0-.4-1.1V8.6c-.2-.4-.3-.8-.5-1.2a.1.1,0,0,0-.1-.1c-.2-.3-.3-.7-.5-1l-.1-.2a4.052,4.052,0,0,1-.5-.9l-.1-.1a8.65,8.65,0,0,1-.7-1l-.1-.1a4.352,4.352,0,0,0-.6-.7l-.2-.2a4.351,4.351,0,0,0-.7-.6l-.2-.2a4.7,4.7,0,0,0-.9-.6c-.1,0-.1-.1-.2-.1a2.994,2.994,0,0,0-.8-.4c-.1,0-.2-.1-.3-.1-.3-.1-.5-.2-.8-.3-.1,0-.2-.1-.3-.1a5.16,5.16,0,0,0-1.1-.2h-1.6a2.921,2.921,0,0,0-.9.2c-.1,0-.2.1-.3.1a3.7,3.7,0,0,0-1.1.5,5.583,5.583,0,0,0-.8.5c-.1.1-.2.1-.3.2-.2.1-.3.3-.5.4l-.3.3-.4.4c-.1.1-.1.2-.2.3-.1.2-.2.3-.3.5,0,.1-.1.2-.2.3-.1.2-.2.3-.2.5,0,.1-.1.2-.1.3,0,.2-.1.3-.1.5,0,.1-.1.2-.1.3,0,.2-.1.3-.1.5V8.1a5.64,5.64,0,0,0,.1.7,5.64,5.64,0,0,0,.1.7c0,.2.1.4.1.6v.1c.1.4.1.9.2,1.4l.2,1.3a16.356,16.356,0,0,1,.2,2.2,38.663,38.663,0,0,0-4.8-.3,46.264,46.264,0,0,0-5.4.3,19.518,19.518,0,0,1,.2-2.3l.2-1.2a7.721,7.721,0,0,0,.2-1.5,5.64,5.64,0,0,0,.1-.7,5.64,5.64,0,0,0,.1-.7,2.815,2.815,0,0,1,.1-.8V6c0-.2,0-.3-.1-.4,0-.1-.1-.3-.1-.4,0-.2-.1-.3-.1-.4s-.1-.3-.1-.4c-.1-.2-.1-.3-.2-.5-.1-.1-.1-.2-.2-.4s-.2-.3-.3-.5c-.1-.1-.1-.2-.2-.3s-.2-.3-.4-.5c-.1-.1-.2-.2-.2-.3a1.755,1.755,0,0,0-.5-.4c-.1-.1-.2-.1-.3-.2a2.622,2.622,0,0,0-.9-.5,11.733,11.733,0,0,0-1.1-.5c-.1,0-.2-.1-.3-.1-.3-.1-.6-.1-.9-.2h-1.4a5.987,5.987,0,0,0-1.2.2.367.367,0,0,0-.3.1c-.3.1-.5.2-.8.3-.1,0-.2.1-.3.1-.3.1-.5.3-.8.4a.349.349,0,0,0-.2.1l-.9.6-.2.2-.6.6-.2.2c-.2.2-.4.5-.6.7a.349.349,0,0,0-.1.2c-.2.3-.5.6-.7.9l-.1.1a9.215,9.215,0,0,0-.5.8l-.1.2a9.293,9.293,0,0,0-.5,1,.1.1,0,0,1-.1.1,6.115,6.115,0,0,0-.5,1.2v.1a5.639,5.639,0,0,0-.4,1.2l-.1.2c-.1.4-.2.7-.3,1.1v.2c-.1.4-.2.9-.3,1.3v.1a23.87,23.87,0,0,0,.2,10.3,30.54,30.54,0,0,0-4.9,5.7,9.454,9.454,0,0,0-3.6-3.7c-3.6-1.8-17.4-4.5-20.2-5-.2,0-.4-.1-.6-.1a3.092,3.092,0,0,0-2.9,2.2c-3.7,13.5,4.8,19.3,12.4,24.4,1.6,1.1,3.2,2.2,4.7,3.4-2.6,7,.1,17.4,7.4,28.5,7.5,11.5,19.9,23.1,28.9,23.2h.1c9.2,0,20.6-11.3,27.5-20.9,3.2-4.4,13.2-19.5,9.7-29.8l-.3-.9c1.6-1.2,3.2-2.3,4.8-3.4,7.5-5.1,16.1-10.9,12.4-24.4C107.294,20.9,106.094,20,104.794,20Z" fill="#2d2413"/>
    <g>
      <g>
        <g>
          <path d="M77.094,43.3s4.8-13.9,8.3-15.6c3.4-1.7,19.4-4.7,19.4-4.7,4.5,16.4-11.3,18.7-20.7,28.8Z" fill="#febf32"/>
          <path d="M80.594,42.7s3-8.5,5.1-9.5,11.9-2.9,11.9-2.9c2.8,10-6.9,11.5-12.7,17.6Z" fill="#b37635"/>
        </g>
        <g>
          <path d="M30.694,43.3s-4.8-13.9-8.3-15.6c-3.4-1.7-19.4-4.7-19.4-4.7-4.5,16.4,11.3,18.7,20.7,28.8Z" fill="#febf32"/>
          <path d="M27.194,42.7s-3-8.5-5.1-9.5-11.9-2.9-11.9-2.9c-2.8,10.1,6.9,11.5,12.7,17.6Z" fill="#b37635"/>
        </g>
      </g>
      <path d="M54.194,18.2c-22.9,0-27.3,16.8-33.9,32.3-6.5,15.2,20.1,48,33.2,48.1,13.4.1,39.1-32.9,34.5-46.7C82.894,36.7,77.194,18.2,54.194,18.2Z" fill="#febf32"/>
      <path d="M41.094,80.7c0,7.1,7.7,14.3,12.9,14.3s12.9-7.2,12.9-14.3-7.9-10.4-12.9-10.4S41.094,73.6,41.094,80.7Z" fill="#f9f3e0"/>
      <g>
        <path d="M57.494,78.2a7.346,7.346,0,0,1,.8-.2c.1,0,.2-.1.3-.1h.2c.2,0,.4-.2.6-.3a2.379,2.379,0,0,0,.9-1.3,4.416,4.416,0,0,0,.3-.8c0-.1.1-.1.2-.1a.1.1,0,0,1,.1.1,2.413,2.413,0,0,1,.3.8,3.6,3.6,0,0,1,.1,2.1,3.814,3.814,0,0,1-.4,1.3,5.338,5.338,0,0,1-.7,1c-.3.4-.5.7-.5.7h0a2.151,2.151,0,0,1-3.5-2.5A4.152,4.152,0,0,1,57.494,78.2Z" fill="#6f491c"/>
        <path d="M47.994,81.5s-.2-.3-.5-.7a6.361,6.361,0,0,1-.6-1,3.259,3.259,0,0,1-.4-1.3,6.852,6.852,0,0,1,.1-2.1,2.413,2.413,0,0,1,.3-.8c0-.1.1-.1.2-.1l.1.1s.1.3.3.8a3.805,3.805,0,0,0,.9,1.3c.2.1.4.3.6.3h.2c.1,0,.2.1.3.1a7.346,7.346,0,0,1,.8.2,2.122,2.122,0,0,1-1.1,4.1,2.73,2.73,0,0,1-1.2-.9Z" fill="#6f491c"/>
      </g>
      <g>
        <path d="M68.894,40.5s.8.2,1.9.6a2.355,2.355,0,0,1,1,.5l1.2.6a3.915,3.915,0,0,1,1,.8l1,.8c.6.6,1.2,1.2,1.7,1.8a13.6,13.6,0,0,1,1.2,1.7,9.039,9.039,0,0,1,1,1.8.192.192,0,0,1-.1.3.367.367,0,0,1-.3-.1,14.665,14.665,0,0,0-1.4-1.4c-.4-.4-1-.8-1.5-1.3-.6-.4-1.2-.8-1.9-1.2l-1-.4c-.3-.1-.6-.3-.9-.4s-.6-.1-.8-.2c-.3,0-.4-.2-.8-.2a17.827,17.827,0,0,1-2-.1,1.9,1.9,0,0,1,.2-3.8C68.494,40.4,68.694,40.4,68.894,40.5Z" fill="#b3872d"/>
        <path d="M39.594,44.2s-.8,0-2,.1a2.354,2.354,0,0,0-.8.2c-.3.1-.5.1-.8.2a1.8,1.8,0,0,0-.9.4l-1,.4c-.6.4-1.3.8-1.9,1.2a10.02,10.02,0,0,0-1.5,1.3,14.667,14.667,0,0,0-1.4,1.4.187.187,0,0,1-.3,0,.367.367,0,0,1-.1-.3,14.123,14.123,0,0,1,1-1.8,13.6,13.6,0,0,1,1.2-1.7c.5-.6,1.1-1.2,1.7-1.8l1-.8a3.915,3.915,0,0,1,1-.8l1.2-.6,1-.5c1.1-.4,1.9-.6,1.9-.6a1.93,1.93,0,1,1,1.1,3.7Z" fill="#b3872d"/>
      </g>
      <g>
        <path d="M76.394,62.4c-.2,0-.3,0-.4-.1-.1,0-5.3-4-10.3-1.7l-1.8.8.9-1.8a11.793,11.793,0,0,1,5.7-5.2.7.7,0,1,1,.5,1.3,9.667,9.667,0,0,0-3.8,2.8c5.1-1.1,9.6,2.3,9.8,2.5a.668.668,0,0,1,.1,1A.755.755,0,0,1,76.394,62.4Z" fill="#010101"/>
        <path d="M42.494,62.5c-.2,0-.3,0-.4-.1-.1,0-5.3-4-10.3-1.7l-1.8.8.9-1.8a11.793,11.793,0,0,1,5.7-5.2.7.7,0,1,1,.5,1.3,9.667,9.667,0,0,0-3.8,2.8c5.1-1.1,9.6,2.3,9.8,2.5a.668.668,0,0,1,.1,1C42.894,62.4,42.694,62.5,42.494,62.5Z" fill="#010101"/>
      </g>
      <g>
        <g>
          <path d="M71.994,24.4c4.1-11.1-2.9-23.6-8.7-20.5s2.9,12.8-4.1,18C65.694,29.4,71.994,24.4,71.994,24.4Z" fill="#febf32"/>
          <path d="M66.894,12.2a18.711,18.711,0,0,1,5.9,1c-1.4-6.6-5.7-11.4-9.5-9.3-3.1,1.7-2,5.3-1.5,9A20.929,20.929,0,0,1,66.894,12.2Z" fill="#875929"/>
        </g>
        <g>
          <path d="M35.794,24.4c-4.1-11.1,2.9-23.6,8.7-20.5s-2.9,12.8,4.1,18C42.194,29.4,35.794,24.4,35.794,24.4Z" fill="#febf32"/>
          <path d="M40.994,12.2a18.711,18.711,0,0,0-5.9,1c1.4-6.6,5.7-11.4,9.5-9.3,3.1,1.7,2,5.3,1.5,9A20.929,20.929,0,0,0,40.994,12.2Z" fill="#875929"/>
        </g>
      </g>
      <g>
        <g>
          <path d="M56.394,87.2l-4.5.6-1.1.5a7.777,7.777,0,0,0-.1,4.3c.8,2.9,3,4.5,5.1,3.9s3.2-3.1,2.4-6A6.691,6.691,0,0,0,56.394,87.2Z" fill="#ea755e"/>
          <path d="M54.994,96.8a4.006,4.006,0,0,1-2.3-.8,5.979,5.979,0,0,1-2.2-3.4,7.3,7.3,0,0,1,.1-4.4v-.1l1.2-.5,4.6-.6.1.1a8.4,8.4,0,0,1,1.9,3.3,6.062,6.062,0,0,1-.1,4,3.735,3.735,0,0,1-2.4,2.2A1.486,1.486,0,0,1,54.994,96.8Zm-4-8.4a7.145,7.145,0,0,0,0,4.1,6.522,6.522,0,0,0,2,3.2,3.11,3.11,0,0,0,2.9.6,3.217,3.217,0,0,0,2.1-2,5.816,5.816,0,0,0,.1-3.7,6.721,6.721,0,0,0-1.7-3.1l-4.4.6Z" fill="#414142"/>
        </g>
        <g opacity="0.7">
          <path d="M55.094,93.7a.349.349,0,0,1-.2-.1l-1.4-5c0-.1,0-.2.1-.2s.2,0,.2.1l1.4,5c.1.1,0,.2-.1.2Z" fill="#414142"/>
        </g>
        <path d="M49.194,89.2l-2.9-4.2a.814.814,0,0,1,.2-1.1.8.8,0,0,1,1.1.2l2.4,3.4,9-1.1a.856.856,0,0,1,.9.7c.1.5-.2.8-.7.9Z" fill="#231f20"/>
      </g>
      <g>
        <path d="M78.594,66.8a5.94,5.94,0,0,1-8.4,8.4c-2.3-2.3-1.5-9.8-1.5-9.8S76.294,64.5,78.594,66.8Z" fill="#f47c2a"/>
        <path d="M29.194,66.8a5.94,5.94,0,0,0,8.4,8.4c2.3-2.3,1.5-9.8,1.5-9.8S31.494,64.5,29.194,66.8Z" fill="#f47c2a"/>
      </g>
      <g>
        <path d="M51.794,34.7a5.007,5.007,0,0,1,7,1.3,5.076,5.076,0,0,1-1.2,7C55.294,44.5,49.494,36.3,51.794,34.7Z" fill="#b37635"/>
        <path d="M51.994,24.4a5.116,5.116,0,0,1-3.2,6.4,5.034,5.034,0,0,1-6.4-3.2C41.594,24.9,51.194,21.7,51.994,24.4Z" fill="#b37635"/>
        <path d="M65.194,23.3c1.8,2.1-5.9,8.6-7.7,6.5a4.971,4.971,0,0,1,.6-7.1A5.155,5.155,0,0,1,65.194,23.3Z" fill="#b37635"/>
      </g>
    </g>
  </g>
</svg>
