<svg id="Layer_1" data-name="Layer 1" xmlns="http://www.w3.org/2000/svg" viewBox="0 0 114.649 130.1">
  <title>Artboard 16</title>
  <g>
    <path d="M16.877,57.5a106.5,106.5,0,0,0-1.6,19.4c0,15.7,13.2,27.9,26,34.4,2.7,13.9,18.5,18.4,26.8,18.8h.1a2.851,2.851,0,0,0,2.5-1.4,3.188,3.188,0,0,0,.2-3,17.3,17.3,0,0,1,.4-13.4,60.257,60.257,0,0,0,18.1-12.8c6.5-6.9,9.9-14.7,9.9-22.6a116.637,116.637,0,0,0-1.4-18.4c8.1-3.5,17.7-11.6,16.7-18.7-.5-3.1-2.9-6.7-11.9-7,2.3-8.3,1.4-16.2-2.5-22C96.877,5.9,89.577,0,73.877,0c-1.9,0-4,.1-6,.3a3.107,3.107,0,0,0-2.8,2.9,3.018,3.018,0,0,0,2.6,3.1c12.8,1.9,20.4,6.3,22,12.6.9,3.6-.3,7.3-2,10.1-4.2-8.5-15.1-13.5-30.6-13.5s-26.1,4.8-30.2,13.4a13.275,13.275,0,0,1-1.9-10c1.6-6.3,9.3-10.7,22-12.6a3.018,3.018,0,0,0-.2-6q-3.15-.3-6-.3c-15.5,0-22.8,5.7-26.1,10.6-3.9,5.6-5,13.1-3,21.2-8.7.4-11.1,3.9-11.6,7C-.923,45.5,7.977,53.9,16.877,57.5Z" fill="#2d2413"/>
    <g>
      <g>
        <g>
          <path d="M34.177,46.1s2.8-7.9-9.6-10.1c-37.9-6.7-17.6,16.8-2.6,20Z" fill="#765994"/>
          <path d="M28.877,45.3s2-3.9-6.3-5.4c-25.5-4.5-8.8,12.4,1.3,14.6Z" fill="#18131d"/>
        </g>
        <g>
          <path d="M80.477,47.1s-2.8-7.9,9.6-10.1c37.9-6.7,17.6,16.8,2.6,20Z" fill="#765994"/>
          <path d="M85.677,46.4s-2-3.9,6.3-5.4c25.5-4.5,8.8,12.4-1.3,14.6Z" fill="#18131d"/>
        </g>
      </g>
      <path d="M96.377,77c0,22.3-29.4,36.3-39.1,36.3s-39-14-39-36.3,5.6-54.5,39-54.5S96.377,54.7,96.377,77Z" fill="#765994"/>
      <path d="M70.777,107.1c-7.2,10.9-2.6,20.1-2.6,20.1s-24.3-1.2-24.3-20.1c0-11.1,6-20.1,13.4-20.1C64.677,87.1,76.777,97.9,70.777,107.1Z" fill="#765994"/>
      <path d="M72.777,73.2c0,11.5-10.2,26.2-16.1,26.2s-15-14.7-15-26.2,4.4-26.2,15-26.2S72.777,61.7,72.777,73.2Z" fill="#18131d"/>
      <path d="M41.277,98.3c0,8.9,13.5,13.3,16.1,13.3,2.5,0,16.1-4.4,16.1-13.3s-7.2-10.6-16.1-10.6C48.377,87.7,41.277,89.4,41.277,98.3Z" fill="#8e82ba"/>
      <path d="M63.377,98.1a15.151,15.151,0,0,1,1.8-.6,2.39,2.39,0,0,0,.7-.3l.6-.3a2.506,2.506,0,0,0,.7-.4l.7-.6a5.273,5.273,0,0,0,1.1-1.5c.2-.6.6-1.1.7-1.6a5.06,5.06,0,0,0,.4-1.7c0-.2.2-.3.4-.3.1,0,.3.1.3.2a13.832,13.832,0,0,1,.3,1.9,14.647,14.647,0,0,1,0,2.1c-.2.7-.2,1.6-.5,2.4a8.982,8.982,0,0,1-1.2,2.4,7.637,7.637,0,0,0-.8,1.1,6.525,6.525,0,0,1-.7.8c-.8.8-1.4,1.3-1.4,1.3h0a2.761,2.761,0,0,1-3.7-4.1A.779.779,0,0,1,63.377,98.1Z" fill="#2d2137"/>
      <path d="M48.277,102.7s-.5-.5-1.4-1.3a6.53,6.53,0,0,1-.7-.8,10.477,10.477,0,0,1-.8-1.1,7.724,7.724,0,0,1-1.2-2.4,11.433,11.433,0,0,1-.5-2.4,14.647,14.647,0,0,1,0-2.1,10.92,10.92,0,0,1,.3-1.9c.1-.2.2-.3.4-.2.1,0,.2.2.2.3a12.919,12.919,0,0,0,.4,1.7,7.09,7.09,0,0,0,.7,1.6c.4.5.7,1.1,1.1,1.5l.7.6a1.612,1.612,0,0,0,.7.4l.6.3a2.389,2.389,0,0,0,.7.3c1.1.4,1.8.6,1.8.6a2.751,2.751,0,0,1-1.8,5.2,1.011,1.011,0,0,1-1.2-.3Z" fill="#2d2137"/>
      <path d="M68.077,3.3c39.7,6,21.8,33.6,14.6,33.1-3.2-.2-13-8-25.2-8.2h-.2c-12.2.1-22,8-25.2,8.2-7.2.5-25.1-27.1,14.6-33.1-52.4-4.4-30.7,49.3-13.3,49.2h48.1C98.677,52.6,120.477-1,68.077,3.3Z" fill="#ab9ccc"/>
      <path d="M28.077,37.4c0-13.3,12.9-19,29-19s29.5,5.7,29.5,19-13.1,19.9-29.2,19.9S28.077,50.7,28.077,37.4Z" fill="#18131d"/>
      <g>
        <polygon points="73.977 75.6 87.777 70.4 88.977 75.1 74.277 77.2 73.977 75.6" fill="#010101"/>
        <polygon points="40.277 77.2 25.677 75.1 26.777 70.4 40.677 75.6 40.277 77.2" fill="#010101"/>
      </g>
      <g>
        <path d="M77.577,59l13,2.2c.2,0,.3.2.3.4q0,.15-.3.3l-13,2.2a2.589,2.589,0,0,1-.9-5.1A1.352,1.352,0,0,1,77.577,59Z" fill="#010101"/>
        <path d="M36.977,64l-13-2.2c-.2,0-.3-.2-.3-.4q0-.15.3-.3l13-2.2a2.532,2.532,0,0,1,.8,5A.755.755,0,0,1,36.977,64Z" fill="#010101"/>
      </g>
      <g>
        <path d="M75.277,82.1s.6.1,1.5.3a14.965,14.965,0,0,1,3.3,1.2,9.5,9.5,0,0,1,1.7,1,17.1,17.1,0,0,1,1.4,1.1l1.3,1.3a3.4,3.4,0,1,1-5,4.6,4.011,4.011,0,0,1-.9-1.7s-.1-.4-.2-1a2.967,2.967,0,0,0-.4-1.1,6.723,6.723,0,0,0-.6-1.2,12.873,12.873,0,0,0-1.7-2.1c-.6-.6-.9-.8-1-.9a.883.883,0,0,1-.5-1.2A.909.909,0,0,1,75.277,82.1Z" fill="#ad7986"/>
        <path d="M38.977,83.8a10.517,10.517,0,0,0-1,.9,9.161,9.161,0,0,0-1.7,2.1,6.717,6.717,0,0,0-.6,1.2c-.1.4-.3.7-.4,1.1-.1.6-.2,1-.2,1a3.412,3.412,0,0,1-6.7-1.3,2.842,2.842,0,0,1,.9-1.7l1.3-1.3a17.1,17.1,0,0,1,1.4-1.1,9.494,9.494,0,0,1,1.7-1,14.966,14.966,0,0,1,3.3-1.2c.9-.2,1.6-.3,1.5-.3a.967.967,0,0,1,1.2.5A1.167,1.167,0,0,1,38.977,83.8Z" fill="#ad7986"/>
      </g>
    </g>
  </g>
</svg>
