<svg id="Layer_1" data-name="Layer 1" xmlns="http://www.w3.org/2000/svg" viewBox="0 0 86.505 108.3">
  <title>Artboard 22</title>
  <g>
    <path d="M77.658,1a2.9,2.9,0,0,0-2.3-1,3.293,3.293,0,0,0-1.9.6c-8.5,6.7-16.5,17.7-20.2,23.1a25.764,25.764,0,0,0-10-2.3,25.764,25.764,0,0,0-10,2.3c-3.7-5.5-11.7-16.4-20.2-23.1a3.077,3.077,0,0,0-1.9-.6,3.446,3.446,0,0,0-2.3,1c-14.6,17-7.1,49.5-5.6,55.4-3,9.4-1.3,17.6,4.9,23.2a50.493,50.493,0,0,1,10.7,13.5c2.9,4.9,5.4,9.1,12.4,11.2l.1.1a5.078,5.078,0,0,0,2,1.6c2.9,1.9,6.1,2.3,9.8,2.3,4.8,0,8.8-.7,12.3-4.1,6.8-2.1,9.2-6.3,12.1-11.1a49,49,0,0,1,10.7-13.5c6.2-5.5,7.9-13.8,4.9-23.2C84.758,50.4,92.258,18,77.658,1Z" fill="#2d2413"/>
    <g>
      <g>
        <g>
          <path d="M54.058,28.1s10.4-16.5,21.3-25.2c14.9,17.4,4.7,53.5,4.7,53.5Z" fill="#787f80"/>
          <path d="M58.658,31.5s6.9-10.3,14.2-16c9.9,11.5,3.1,35.5,3.1,35.5Z" fill="#bfcbcc"/>
        </g>
        <g>
          <path d="M32.658,28.1s-10.4-16.5-21.3-25.2c-14.9,17.4-4.7,53.5-4.7,53.5Z" fill="#787f80"/>
          <path d="M28.058,31.5s-6.9-10.3-14.2-16c-9.9,11.5-3.1,35.5-3.1,35.5Z" fill="#bfcbcc"/>
        </g>
      </g>
      <path d="M43.358,24.4h0c-19.5,0-51,36.8-33,52.9,16.7,15,9,25.3,33,25.3h0c24,0,16.3-10.3,33-25.3C94.358,61.1,62.858,24.4,43.358,24.4Z" fill="#787f80"/>
      <path d="M32.158,91.2c0-19,5-26,11.1-26s11.1,7,11.1,26-5,10.1-11.1,10.1S32.158,110.2,32.158,91.2Z" fill="#c6c8cc"/>
      <g>
        <g>
          <circle cx="58.258" cy="65.4" r="6.7" fill="#231f20"/>
          <circle cx="60.058" cy="63.9" r="2.5" fill="#fff"/>
        </g>
        <g>
          <circle cx="28.458" cy="65.4" r="6.7" fill="#231f20"/>
          <circle cx="29.658" cy="63.9" r="2.5" fill="#fff"/>
        </g>
      </g>
      <g>
        <path d="M28.258,52.3a2.96,2.96,0,0,1-.3-.4c-.1-.1-.2-.3-.4-.5-.1-.1-.2-.3-.4-.4-.1-.2-.4-.3-.6-.5s-.5-.3-.7-.5a10.084,10.084,0,0,0-1.8-.9,22.42,22.42,0,0,0-3.9-1c-1.1-.1-1.9-.2-1.9-.2a.2.2,0,0,1,0-.4,18.7,18.7,0,0,1,6.3-.4,20.474,20.474,0,0,1,2.4.5,3.58,3.58,0,0,1,1.1.4c.3.2.7.3,1,.5a9.21,9.21,0,0,0,.8.5,2.18,2.18,0,0,1,.5.4,2.958,2.958,0,0,1,.4.3,1.79,1.79,0,1,1-2.1,2.9A1.379,1.379,0,0,1,28.258,52.3Z" fill="#c6c8cc"/>
        <path d="M55.958,49.7a1.727,1.727,0,0,0,.4-.3c.1-.1.3-.2.5-.4.3-.2.5-.3.8-.5a9.294,9.294,0,0,1,1-.5,3.583,3.583,0,0,1,1.1-.4,20.474,20.474,0,0,1,2.4-.5,18.7,18.7,0,0,1,6.3.4c.1,0,.2.1.2.3a.215.215,0,0,1-.2.2,12.852,12.852,0,0,0-1.9.2,22.42,22.42,0,0,0-3.9,1,15.039,15.039,0,0,0-1.8.9,4.229,4.229,0,0,0-.7.5c-.2.2-.5.3-.6.5l-.4.4c-.1.2-.3.3-.4.5a2.952,2.952,0,0,1-.3.4,1.78,1.78,0,0,1-2.8-2.2A.623.623,0,0,1,55.958,49.7Z" fill="#c6c8cc"/>
      </g>
      <path d="M58.258,94.7c-4.3,9.1-8,10.5-14.9,10.5s-10.1-1.4-14.9-10.5c-3.8-7.3,6.7-10.9,14.9-10.9S61.758,87.2,58.258,94.7Z" fill="#f2f4f5"/>
      <path d="M51.358,85.4c0,4.4-6.3,8-8,8s-8-3.6-8-8C35.358,83.3,51.358,83.2,51.358,85.4Z" fill="#010101"/>
      <path d="M40.658,101.3a.891.891,0,0,1-.8-.5.984.984,0,0,1,.4-1.3l10.8-5.6a.962.962,0,1,1,.9,1.7l-10.8,5.6A.9.9,0,0,1,40.658,101.3Z" fill="#010101"/>
      <g>
        <path d="M59.558,79.8l4.3-5.6a3.93,3.93,0,0,1,6.3,4.7,3.53,3.53,0,0,1-2.6,1.5l-7,1a1.033,1.033,0,0,1-1.2-.9C59.258,80.3,59.358,80.1,59.558,79.8Z" fill="#b27672"/>
        <path d="M26.758,81.7l-7-1a3.988,3.988,0,0,1,1.1-7.9,3.667,3.667,0,0,1,2.6,1.5l4.3,5.6a1,1,0,0,1-.2,1.5C27.258,81.7,26.958,81.8,26.758,81.7Z" fill="#b27672"/>
      </g>
    </g>
  </g>
</svg>
