<svg id="Layer_1" data-name="Layer 1" xmlns="http://www.w3.org/2000/svg" viewBox="0 0 104.822 103.3">
  <title>Artboard 25</title>
  <g>
    <path d="M104.811,33.8c.3-11.2-5.6-22.3-17.5-33a3.176,3.176,0,0,0-2-.8,5.018,5.018,0,0,0-1.2.2c-12,5.1-19,14.7-21.8,19.3a41.27,41.27,0,0,0-9.9-1.2,40.665,40.665,0,0,0-9.9,1.2c-2.8-4.6-9.8-14.2-21.8-19.3a2.537,2.537,0,0,0-1.2-.2,3.176,3.176,0,0,0-2,.8c-11.9,10.7-17.8,21.8-17.5,33,.3,12.7,8.4,21.4,11.4,24.2v1.5c0,14.5,12.2,27.8,23.8,35.7,5,6.8,10,8.1,17.4,8.1,7.7,0,13.1-1.4,18-8.6,21.3-14.8,23-30.6,23-35.1V58.1C96.311,55.2,104.411,46.5,104.811,33.8Z" fill="#2d2413"/>
    <g>
      <g>
        <g>
          <path d="M63.611,23.4s6.7-14,21.6-20.3c33.9,30.3,5.2,53.5,5.2,53.5Z" fill="#9fa4ba"/>
          <path d="M71.811,30.9a19.333,19.333,0,0,1,11.1-12.4c20.7,18.5,5.3,32.7,5.3,32.7Z" fill="#916289"/>
        </g>
        <g>
          <path d="M41.011,23.4s-6.7-14-21.6-20.3c-33.9,30.3-5.2,53.5-5.2,53.5Z" fill="#9fa4ba"/>
          <path d="M32.911,30.9a19.333,19.333,0,0,0-11.1-12.4c-20.7,18.5-5.3,32.7-5.3,32.7Z" fill="#916289"/>
        </g>
      </g>
      <path d="M14.311,59.4a38.1,38.1,0,1,1,76.2,0c0,21-28.7,39.9-38.1,39.9S14.311,80.5,14.311,59.4Z" fill="#9fa4ba"/>
      <path d="M40.811,88.7c0-19.7,5.2-30.2,11.5-30.2,6.4,0,11.5,10.5,11.5,30.2,0,0-5.2,10.4-11.5,10.4S40.811,88.7,40.811,88.7Z" fill="#916289"/>
      <path d="M71.311,86.9c-5.4,11.5-10.2,13.3-18.9,13.3s-12.8-1.8-18.9-13.3c-4.9-9.2,8.4-13.8,18.9-13.8C62.811,73,75.711,77.4,71.311,86.9Z" fill="#884a7e"/>
      <path d="M60.311,73.8c0,4.4-2.4,8-7.9,8s-7.9-3.6-7.9-8C44.411,71.6,60.311,71.6,60.311,73.8Z" fill="#010101"/>
      <path d="M52.311,83.3h0c-1.5,9.9-10,3.4-10,3.4s2,4.5,10,4.5,10-4.5,10-4.5S53.911,93.2,52.311,83.3Z" fill="#010101"/>
      <g>
        <g>
          <g>
            <path d="M74.611,61.9a6.9,6.9,0,1,1-6.9-6.9A6.914,6.914,0,0,1,74.611,61.9Z" fill="#231f20"/>
            <circle cx="69.611" cy="62.6" r="2.2" fill="#fff"/>
          </g>
          <ellipse cx="66.989" cy="53.855" rx="8.4" ry="4.3" transform="translate(-8.583 12.907) rotate(-10.347)" fill="#9fa4ba"/>
        </g>
        <g>
          <g>
            <circle cx="36.911" cy="61.9" r="6.9" fill="#231f20"/>
            <circle cx="38.111" cy="62.6" r="2.2" fill="#fff"/>
          </g>
          <ellipse cx="35.51" cy="53.833" rx="8.4" ry="4.3" transform="translate(-9.091 7.253) rotate(-10.347)" fill="#9fa4ba"/>
        </g>
      </g>
      <g>
        <path d="M36.611,45.2h-1.3c-.2,0-.4.1-.6.1a3.71,3.71,0,0,0-.9.2c-.3.1-.6.2-1,.3a21.158,21.158,0,0,0-2.1,1.1,22.839,22.839,0,0,0-3.6,3,10.766,10.766,0,0,0-1.4,1.7c-.1.1-.2.1-.4.1a.367.367,0,0,1-.1-.3,21.645,21.645,0,0,1,3.9-6.2,9.516,9.516,0,0,1,2.1-1.9,7.637,7.637,0,0,1,1.1-.8c.4-.2.7-.4,1.1-.6a7.6,7.6,0,0,1,1.1-.4,2.545,2.545,0,0,1,.7-.2,3.219,3.219,0,0,0,.6-.2,2.151,2.151,0,0,1,1.3,4.1C37.011,45.1,36.811,45.2,36.611,45.2Z" fill="#42233d"/>
        <path d="M68.811,41.1a3.227,3.227,0,0,0,.6.2,6.388,6.388,0,0,0,.7.2c.3.1.7.3,1.1.4.4.2.7.4,1.1.6a7.63,7.63,0,0,1,1.1.8c.7.6,1.4,1.2,2.1,1.9a21.647,21.647,0,0,1,3.9,6.2.192.192,0,0,1-.1.3.367.367,0,0,1-.3-.1,21.662,21.662,0,0,0-1.4-1.7,22.845,22.845,0,0,0-3.6-3,21.158,21.158,0,0,0-2.1-1.1,3.811,3.811,0,0,0-1-.3,2.92,2.92,0,0,0-.9-.2c-.2,0-.5-.1-.6-.1h-1.3a2.1,2.1,0,1,1,.2-4.2A1.085,1.085,0,0,1,68.811,41.1Z" fill="#42233d"/>
      </g>
      <g>
        <path d="M81.411,67c-1.5-2.1-11.6,5.1-10.1,7.2s4.9,2.1,7.7.2C81.811,72.4,82.911,69.1,81.411,67Z" fill="#916289"/>
        <path d="M23.311,67c1.5-2.1,11.6,5.1,10.1,7.2s-4.9,2.1-7.7.2C22.911,72.4,21.811,69.1,23.311,67Z" fill="#916289"/>
      </g>
    </g>
  </g>
</svg>
