<svg id="Layer_1" data-name="Layer 1" xmlns="http://www.w3.org/2000/svg" viewBox="0 0 128.644 117.8">
  <title>Artboard 40</title>
  <g>
    <path d="M127.344.6a3,3,0,0,0-1.8-.6,3.6,3.6,0,0,0-1.1.2c-2.3.9-5.2,1.3-9.3,1.3-2.5,0-5.1-.2-7.9-.3-2.9-.2-5.9-.3-8.9-.3-11.7,0-25.5,2.7-30.4,22.6a19,19,0,0,0-4.1-.4h-.5C60.444,3.5,45.444.9,32.544.9c-3.3,0-6.7.2-9.9.3q-4.65.3-8.7.3c-4.5,0-7.6-.4-9.9-1.3a4.254,4.254,0,0,0-1.1-.2,2.792,2.792,0,0,0-1.8.6,3,3,0,0,0-1.1,2.8c.6,4,4,7.7,10.4,11a3.353,3.353,0,0,0-.6,2.4c.8,4.6,4.8,8.7,12,12.2a2.951,2.951,0,0,0,.2,3c5.6,8.5,9.4,12.1,12.9,14.5-7.6,14.6-7.3,32.9,1,42.1a127.406,127.406,0,0,1,11.9,15.6,68.456,68.456,0,0,0,5.6,7.6l.6.6a6.036,6.036,0,0,0,.8.8l.1.1a15.649,15.649,0,0,0,4.5,3.2,12.857,12.857,0,0,0,5.2,1.3c5.4,0,10.3-3.5,13.5-9.6.9-1.2,1.8-2.6,2.7-4a120.19,120.19,0,0,1,11.9-15.6c8.3-9.1,8.6-27.5,1-42.1,3.5-2.4,7.3-5.9,12.9-14.5a3.188,3.188,0,0,0,.2-3c7.2-3.5,11.2-7.6,12-12.2a3.478,3.478,0,0,0-.6-2.4c6.4-3.4,9.8-7,10.4-11A4.1,4.1,0,0,0,127.344.6Z" fill="#2d2413"/>
    <g>
      <g>
        <path d="M68.944,45.7c-1.6-60.1,38.1-35.4,56.5-42.7-1.2,9-25.5,15-25.5,15s6.1,2.3,15.7-1.7c-1.7,10.1-26.1,15.4-26.1,15.4s9.3.6,14.4-1.4c-14.9,22.7-15.5,7.7-34.4,34.9Z" fill="#e3e6f4"/>
        <path d="M59.244,45.7c10.7-60.1-38.1-35.4-56.5-42.7,1.3,9,25.5,15,25.5,15s-6.1,2.3-15.7-1.7c1.7,10.1,26.1,15.4,26.1,15.4s-9.3.6-14.4-1.4c14.9,22.7,15.5,7.7,34.4,34.9Z" fill="#e3e6f4"/>
      </g>
      <path d="M64.144,29.8c-28.6.1-39.8,41.6-26.2,56.6,14.2,15.6,16.5,27.8,26.2,28.1,9.7-.2,12-12.5,26.2-28.1C103.944,71.5,92.744,29.9,64.144,29.8Z" fill="#98c4cf"/>
      <g>
        <g>
          <path d="M78.744,41.4c-8.2-16,6.5-29.7,6.5-29.7,11,11.8,4.3,17.6-.5,30.6Z" fill="#98c4cf"/>
          <path d="M82.444,38.4a25.829,25.829,0,0,1,3.2-20.4C93.244,25.9,82.444,38.4,82.444,38.4Z" fill="#3b4c50"/>
        </g>
        <g>
          <path d="M49.444,41.4c8.2-16-6.5-29.7-6.5-29.7-11,11.8-4.3,17.6.5,30.6Z" fill="#98c4cf"/>
          <path d="M45.744,38.4a25.829,25.829,0,0,0-3.2-20.4C34.944,25.9,45.744,38.4,45.744,38.4Z" fill="#3b4c50"/>
        </g>
      </g>
      <path d="M64.144,38c-5.2,0-9.2,19.7-10,28.7-.7,7.9,1.5,14.3,2.4,29.1.3,4.5,4.7,3.9,7.6,3.9,2.8,0,7.6.6,7.6-3.9-.2-12.5,3-21.2,2.4-29.1C73.344,57.7,69.344,38,64.144,38Z" fill="#d3e3e8"/>
      <path d="M50.844,100.8c2.3,8.9,8.5,13.9,13.5,13.9s10.1-4,12.9-13c2.2-7.1-5.4-13-12.9-13C56.944,88.7,48.944,93.6,50.844,100.8Z" fill="#4d6369"/>
      <g>
        <path d="M59.944,95.8l.9,5.2c0,.1,0,.1-.1.1h-.1l-4.3-3.2a2.29,2.29,0,1,1,2.7-3.7A3.756,3.756,0,0,1,59.944,95.8Z" fill="#263134"/>
        <path d="M71.844,98.1l-4.3,3.2h-.2v-.1l.9-5.2a2.236,2.236,0,0,1,4.4.8A3.071,3.071,0,0,1,71.844,98.1Z" fill="#263134"/>
      </g>
      <path d="M65.344,49.6c-1.7-5.9-1-7.3-1-7.3a20.948,20.948,0,0,0-12.6,7.7c-1-10.4,4.2-13.3,4.2-13.3s-2.5,0-8.9,3c3.3-12.7,16.8-17.8,27.6-9.9C91.644,42.4,70.144,41.7,65.344,49.6Z" fill="#4d6369"/>
      <g>
        <path d="M50.544,77.8a13.046,13.046,0,0,1-5.8-1.4,10.557,10.557,0,0,1-4.7-4.4l.6-.3c.4-.2.3-.2.6.2a9.155,9.155,0,0,0,2.5,2.3c2.1,1.2,4.3-.4,6.7-.3C50.544,74.5,50.544,77,50.544,77.8Z" fill="#010101"/>
        <path d="M77.744,73.8c2.3-.1,4.4,1.5,6.5.4a6.965,6.965,0,0,0,2.6-2.2c.2-.3.3-.7.6-.5.3.1.5.3.8.4a10.984,10.984,0,0,1-4.5,4.3,13.1,13.1,0,0,1-6.1,1.5C77.644,77,77.644,74.5,77.744,73.8Z" fill="#010101"/>
      </g>
      <g>
        <path d="M50.144,59.6s-.7.1-1.7.2a1.072,1.072,0,0,0-.6.2c-.2.1-.5.1-.7.2-.3,0-.5.2-.8.4l-.8.5c-.5.4-1.1.8-1.5,1.2a6.789,6.789,0,0,0-1.2,1.2,9.559,9.559,0,0,0-1.1,1.3.188.188,0,0,1-.3,0,.31.31,0,0,1-.1-.2,6.376,6.376,0,0,1,.8-1.6,10.134,10.134,0,0,1,1-1.6c.4-.6.9-1.1,1.3-1.7l.8-.8a7.053,7.053,0,0,1,.9-.7c.3-.2.7-.4,1-.6a9.015,9.015,0,0,1,.9-.5c1-.4,1.6-.6,1.6-.6a1.681,1.681,0,0,1,1.3,3.1Z" fill="#4d6369"/>
        <path d="M78.944,56.4a10.974,10.974,0,0,0,1.6.6,9.029,9.029,0,0,1,.9.5,8.8,8.8,0,0,0,1,.6,7.053,7.053,0,0,1,.9.7l.8.8a9.624,9.624,0,0,1,1.3,1.7c.4.6.7,1.1,1,1.6.5.9.8,1.6.8,1.6a.368.368,0,0,1-.1.3c-.1,0-.2,0-.2-.1a9.568,9.568,0,0,0-1.1-1.3,13.579,13.579,0,0,0-1.2-1.2l-1.5-1.2-.8-.5c-.3-.1-.5-.3-.8-.4a1.854,1.854,0,0,0-.7-.2,1.445,1.445,0,0,0-.7-.2c-1-.1-1.7-.2-1.7-.2a1.657,1.657,0,1,1,.3-3.3C78.644,56.3,78.744,56.4,78.944,56.4Z" fill="#4d6369"/>
      </g>
      <polygon points="59.044 109.2 64.144 105.9 69.144 109.2 59.044 109.2" fill="#010101"/>
      <g>
        <path d="M78.144,82a4.832,4.832,0,0,1,1.2.2,19.455,19.455,0,0,1,2.5.9,9.121,9.121,0,0,1,1.3.8,10.617,10.617,0,0,1,1.1.9l1,1a2.617,2.617,0,1,1-3.8,3.6,2.389,2.389,0,0,1-.7-1.3,2.769,2.769,0,0,1-.1-.8c0-.3-.2-.5-.3-.8a4.054,4.054,0,0,0-.5-.9,11.223,11.223,0,0,0-1.3-1.6c-.4-.4-.7-.6-.7-.7-.4-.1-.5-.5-.4-.9C77.444,82,77.844,81.9,78.144,82Z" fill="#d7b2c6"/>
        <path d="M50.544,83.3a3.563,3.563,0,0,0-.7.7,11.223,11.223,0,0,0-1.3,1.6,4.054,4.054,0,0,0-.5.9,6.87,6.87,0,0,1-.3.8,4.532,4.532,0,0,0-.1.8,2.589,2.589,0,0,1-5.1-.9,2.092,2.092,0,0,1,.7-1.3l1-1a10.63,10.63,0,0,1,1.1-.9,14.808,14.808,0,0,1,1.3-.8,7.621,7.621,0,0,1,2.5-.9,4.832,4.832,0,0,1,1.2-.2.751.751,0,0,1,.9.4A2.693,2.693,0,0,1,50.544,83.3Z" fill="#d7b2c6"/>
      </g>
    </g>
  </g>
</svg>
