<?xml version="1.0" encoding="UTF-8"?>
<svg width="74px" height="92px" viewBox="0 0 74 92" version="1.1" xmlns="http://www.w3.org/2000/svg" xmlns:xlink="http://www.w3.org/1999/xlink">
    <title>Atoms / Icons / Flag</title>
    <g id="STYLEGUIDE" stroke="none" stroke-width="1" fill="none" fill-rule="evenodd">
        <g id="Styleguide" transform="translate(-819.000000, -1333.000000)" fill="#363A5B">
            <g id="Fill-1" transform="translate(806.000000, 1328.000000)">
                <path d="M16,5 C14.3438,5 13,6.3438 13,8 L13,94 C13,95.6562 14.3438,97 16,97 C17.6562,97 19,95.6562 19,94 L19,8 C19,6.3438 17.6562,5 16,5 Z M57.812,15.406 C40.07,23.0818 25.718,12.906 25.718,12.906 C24.82347,12.281 23.5774,12.19897 22.6086,12.70678 C21.63985,13.21459 20.9953,14.28098 20.9991824,15.37478 L20.9991824,51.49978 C20.9991824,52.50758 21.55389,53.49588 22.4054,54.03098 C34.0814,61.43328 47.8394,62.18718 60.1554,57.03098 C68.3077,53.61688 74.0774,53.03878 77.7174,53.21848 C81.3574,53.39818 82.5612,54.15598 82.5612,54.15598 C83.46745,54.65207 84.6354,54.63254 85.526,54.1052 C86.41662,53.57786 86.9948,52.5661 86.9987,51.531 L86.9987,15.406 C86.9987,14.3435 86.39323,13.3005 85.4675,12.781 C85.4675,12.781 82.6316,11.2849 77.9987,11.031 C70.776,10.95287 62.9637,13.2185 57.8107,15.406 L57.812,15.406 Z M77.687,17.031 C79.2808,17.12084 80.2378,17.33569 80.9995,17.531 L80.9995,47.719 C80.03075,47.5315 79.2886,47.2815 78.0307,47.219 C73.4252,46.99244 66.7067,47.78931 57.8427,51.5002 C47.6517,55.7658 36.7177,55.3322 26.9987,49.7502 L26.9987,20.3122 C33.4635,23.2653 45.9437,27.07 60.1867,20.90595 C65.8664,18.70285 71.8427,16.86685 77.6867,17.03095 L77.687,17.031 Z"></path>
            </g>
        </g>
    </g>
</svg>