<?xml version="1.0" encoding="UTF-8"?>
<svg width="60px" height="81px" viewBox="0 0 60 81" version="1.1" xmlns="http://www.w3.org/2000/svg" xmlns:xlink="http://www.w3.org/1999/xlink">
    <title>Atoms / Icons / Lock</title>
    <g id="STYLEGUIDE" stroke="none" stroke-width="1" fill="none" fill-rule="evenodd">
        <g id="Styleguide" transform="translate(-701.000000, -933.000000)" fill="#363A5B">
            <g id="Combined-Shape" transform="translate(681.000000, 923.000000)">
                <path d="M49.7863047,10 C61.9253477,10 71.7953541,19.9689645 71.7953541,32.2264021 L71.7953541,32.2264021 L71.7912683,37.5450641 L77.1916466,37.5450641 C78.7427924,37.5450641 79.9959142,38.7981859 79.9959142,40.3493317 L79.9959142,40.3493317 L80,88.0916852 C80,89.642831 78.7468782,90.8959529 77.1957324,90.8959529 L77.1957324,90.8959529 L22.8042676,90.8959529 C21.2531218,90.8959529 20,89.642831 20,88.0916852 L20,88.0916852 L20,40.3493317 C20,38.7981859 21.2531218,37.5450641 22.8042676,37.5450641 L22.8042676,37.5450641 L27.7760013,37.5450641 L27.7760013,32.2264021 C27.7772553,19.9680241 37.651128,10 49.7863047,10 Z M30.0406491,43.1535994 L25.6076993,43.1535994 L25.6076993,85.2865816 L74.3867415,85.2865816 L74.3867415,43.1535994 L69.5293269,43.1535994 C69.35789,43.1862545 69.1742061,43.2066627 68.9905222,43.2066627 C68.8027629,43.2066627 68.6272401,43.1903403 68.4517174,43.1535994 L68.4517174,43.1535994 L31.1182587,43.1535994 C30.9468217,43.1862545 30.7631378,43.2066627 30.5794539,43.2066627 C30.3916946,43.2066627 30.2161719,43.1903403 30.0406491,43.1535994 L30.0406491,43.1535994 Z M50.1654179,48.1181228 C55.5983991,48.1181228 60.0191124,52.5388466 60.0272736,57.9718277 C60.0272736,62.5231721 56.9209066,66.3520278 52.7247458,67.4826797 L52.7247458,67.4826797 L52.7247458,76.1689499 C52.7247458,77.7200957 51.471624,78.9732176 49.9204782,78.9732176 C48.3693324,78.9732176 47.1162105,77.7200957 47.1162105,76.1689499 L47.1162105,76.1689499 L47.1162105,67.3439084 C43.1690649,66.0581836 40.3076376,62.3477225 40.3076376,57.9760076 C40.3076376,52.5430264 44.7324368,48.1181228 50.1654179,48.1181228 Z M50.1654179,53.7267626 C47.8223978,53.7267626 45.9161729,55.6329874 45.9161729,57.9760076 C45.9161729,60.3190278 47.8223978,62.2252526 50.1654179,62.2252526 C52.5043627,62.2252526 54.4146629,60.3190278 54.4146629,57.9760076 C54.4146629,55.6329874 52.5084381,53.7267626 50.1654179,53.7267626 Z M49.7843193,15.6093712 C40.7432835,15.6093712 33.3835961,23.0625829 33.3835961,32.2264021 L33.3835961,32.2264021 L33.3835961,37.5450641 L66.1860873,37.5450641 L66.1860873,32.2264021 C66.1850424,23.0628964 58.825355,15.6093712 49.7843193,15.6093712 Z"></path>
            </g>
        </g>
    </g>
</svg>