<?xml version="1.0" encoding="UTF-8"?>
<svg width="90px" height="65px" viewBox="0 0 90 65" version="1.1" xmlns="http://www.w3.org/2000/svg" xmlns:xlink="http://www.w3.org/1999/xlink">
    <title>Atoms / Icons / Memory</title>
    <g id="STYLEGUIDE" stroke="none" stroke-width="1" fill="none" fill-rule="evenodd">
        <g id="Styleguide" transform="translate(-436.000000, -1616.000000)" fill="#363A5B">
            <g id="Fill-1" transform="translate(431.000000, 1598.000000)">
                <path d="M27.5433292,82.3590843 C26.5902092,82.3473643 25.6449292,82.2965843 24.6956292,82.1793943 C22.4808292,81.8981443 20.3128292,81.2848643 18.2776292,80.3629943 C15.6370292,79.1676943 13.2307292,77.4606943 11.2307292,75.3629943 C9.35182824,73.3941943 7.83622824,71.0856943 6.77372824,68.5777943 C5.90263824,66.5152943 5.34402824,64.3238943 5.11752824,62.0972943 C4.85580824,59.5386943 5.03159024,56.9370943 5.64096824,54.4410943 C7.22686824,47.9176943 11.7854692,42.3120943 17.8479692,39.4250943 C17.8635892,39.0344743 17.8987492,38.6516543 17.9339092,38.2609943 C18.0432892,37.3234943 18.1839092,36.3937943 18.3948492,35.4718943 C18.8948492,33.3195943 19.7112492,31.2452943 20.8089492,29.3312943 C22.1605492,26.9796943 23.9378492,24.8781943 26.0277492,23.1515943 C27.9925492,21.5304943 30.2347492,20.2453943 32.6254492,19.3703943 C34.5629492,18.6594543 36.5942492,18.2219943 38.6527492,18.0656943 C41.1722492,17.8742843 43.7230492,18.1008543 46.1683492,18.7492843 C50.2074492,19.8156843 53.9144492,22.0265843 56.7853492,25.0656843 C58.3634492,26.7375843 59.6525492,28.6359843 60.6798492,30.6906843 L60.7579692,30.8586543 C61.2892192,30.9016243 61.2853092,30.9055343 61.8126692,30.9680343 C62.3478292,31.0500643 62.3478292,31.0500643 62.8829692,31.1477243 C63.9259692,31.3820943 64.9454692,31.6828843 65.9337692,32.1008443 C67.6954692,32.8508443 69.3204692,33.9172443 70.7110692,35.2336443 C71.3438792,35.8313043 71.9102692,36.4797443 72.4493692,37.1594443 L72.5079592,37.2414743 C72.9962392,37.2610043 72.9923392,37.2649143 73.4806192,37.2961643 C74.0704592,37.3469443 74.0665592,37.3469443 74.6564192,37.4133543 C76.9455192,37.7336643 79.1720192,38.3313243 81.2814192,39.2883543 C87.1252192,41.9289543 91.7154192,46.9836543 93.7694192,53.0583543 C94.5819192,55.4567543 94.9882192,57.9802543 94.9960192,60.5114543 C95.0004611,61.3552043 95.0116492,62.2028543 94.9686792,63.0466543 C94.9100892,64.2419543 94.7421192,65.4333543 94.4725892,66.5974543 C93.3631892,71.4177543 90.4569892,75.7341543 86.4256892,78.6014543 C84.9529892,79.6483543 83.3397892,80.4998543 81.6404892,81.1209543 C79.5545892,81.8865743 77.3787892,82.2693543 75.1638892,82.3514543 C59.2928892,82.5545843 43.4178892,82.3592643 27.5428892,82.3592643 L27.5433292,82.3590843 Z M27.5862992,75.6832843 C43.3912992,75.6832843 59.1952992,75.8785943 74.9962992,75.6793843 C75.3478592,75.6637543 75.6955192,75.6442243 76.0431992,75.6129743 C77.3947992,75.4567243 78.7111992,75.1403143 79.9650992,74.6090743 C83.4298992,73.1442743 86.1955992,70.2379743 87.4884992,66.7067743 C88.0041192,65.3044743 88.2580292,63.8473743 88.3166192,62.3590743 C88.3244292,61.6051643 88.3244292,60.8551743 88.3127092,60.1012743 C88.2463092,58.2926743 87.9337992,56.5153743 87.3127092,54.8160743 C85.6447092,50.2613743 81.9611092,46.5777743 77.4104092,44.9137743 C75.9846092,44.3903343 74.4885092,44.0661143 72.9729092,43.9528343 C72.2229092,43.8942343 71.4690092,43.9020543 70.7151092,43.9020543 L70.4026092,43.8903343 C69.6643292,43.7848643 68.9964092,43.5231443 68.4417092,43.0114243 C68.2385892,42.8200143 68.1995192,42.7575143 68.0276492,42.5426743 C67.7893692,42.1872043 67.5706192,41.8200143 67.3284292,41.4645743 C66.9026492,40.8903543 66.4338992,40.3551743 65.8987292,39.8786743 C64.5862292,38.7145743 62.9534292,37.9255743 61.2229292,37.6325743 C60.4143392,37.4919543 59.5940292,37.4724143 58.7776292,37.5310143 L58.4416892,37.5388243 C58.1487192,37.5153843 58.0744992,37.5192943 57.7854392,37.4528843 C57.1330992,37.3044443 56.5354392,36.9567943 56.0823392,36.4685043 C55.8518692,36.2145943 55.6838992,35.9411643 55.5237492,35.6442843 C55.3167192,35.1560043 55.1448392,34.6560043 54.9339092,34.1676843 C54.2229692,32.5973843 53.2972092,31.1481843 52.1370092,29.8746843 C50.0198092,27.5465843 47.2190092,25.8707843 44.1604092,25.1246843 C42.1370092,24.6324943 40.0159092,24.5465643 37.9612092,24.8590643 C36.4143092,25.0973443 34.9065092,25.5621843 33.4964092,26.2418643 C31.7737092,27.0738943 30.2034092,28.2184643 28.8831092,29.6051643 C27.4690092,31.0856643 26.3479092,32.8356643 25.5979092,34.7379643 C25.0158792,36.2106643 24.6604092,37.7652643 24.5432092,39.3395643 C24.4885192,40.0622243 24.4924292,40.7848643 24.5236792,41.5114643 L24.5197692,41.8356843 C24.4846192,42.1638043 24.4377392,42.4724043 24.3244592,42.7849043 C24.1057092,43.3981843 23.7033692,43.9372043 23.1799592,44.3279043 C22.9494892,44.4997843 22.8791792,44.5271243 22.6252692,44.6638443 C22.1369892,44.8669743 21.6408892,45.0388443 21.1564692,45.2497843 C19.6837692,45.9177543 18.3126692,46.7731843 17.0939692,47.8435843 C14.7306692,49.9177843 13.0080692,52.6794843 12.2033692,55.7185843 C11.7463392,57.4451843 11.5900892,59.2419843 11.7228992,61.0193843 C11.8322792,62.4646843 12.1408692,63.8943843 12.6408692,65.2576843 C13.2580592,66.9412843 14.1642692,68.5154843 15.3049692,69.8982843 C16.5197692,71.3748843 18.0041692,72.6248843 19.6604692,73.5779843 C21.5940692,74.6912843 23.7229692,75.3474843 25.9377692,75.6013843 C26.4885492,75.6482643 27.0354692,75.6756043 27.5861692,75.6834243 L27.5862992,75.6832843 Z"></path>
            </g>
        </g>
    </g>
</svg>