<?xml version="1.0" encoding="UTF-8"?>
<svg width="80px" height="72px" viewBox="0 0 80 72" version="1.1" xmlns="http://www.w3.org/2000/svg" xmlns:xlink="http://www.w3.org/1999/xlink">
    <title>Atoms / Icons / PJ</title>
    <g id="STYLEGUIDE" stroke="none" stroke-width="1" fill="none" fill-rule="evenodd">
        <g id="Styleguide" transform="translate(-1316.000000, -937.000000)" fill="#363A5B">
            <g id="Fill-1" transform="translate(1306.000000, 923.000000)">
                <path d="M85.6766925,18.4602703 C82.9103195,15.6750921 79.143587,14.1152962 75.21777,14.1246588 C71.2729077,14.1246588 67.55939,15.6688503 64.7676499,18.4571495 L46.3937157,36.8342845 L46.4062152,36.846784 L25.9789073,57.2804938 L25.9757864,57.2804938 C24.3409296,58.905908 23.4219528,61.1159655 23.4250737,63.4197293 C23.4250737,65.7390973 24.3284461,67.9241079 25.9757864,69.5714482 C27.616885,71.2125468 29.7986946,72.1159192 32.1212636,72.1159192 C34.4406317,72.1159192 36.6256423,71.2125468 38.2604991,69.5714482 L72.9045796,34.9337695 L69.2348342,31.2577023 L34.5971555,65.895381 L34.5940266,65.895381 C33.9313454,66.5361841 33.0435934,66.8894188 32.1214957,66.8769353 C31.2025189,66.8894428 30.3147508,66.5362161 29.6520857,65.9016228 C28.9925254,65.2451913 28.6205174,64.3543104 28.6205174,63.425891 C28.6205174,62.4974715 28.9924934,61.6066626 29.6520857,60.9501592 L68.6909942,21.9112506 L68.6784947,21.8956223 C70.4633935,20.2389193 72.7640364,19.3230634 75.217842,19.3230634 C77.7654339,19.3136848 80.2098769,20.320222 82.0072592,22.1207252 C83.8077623,23.9212283 84.8142835,26.3656713 84.8049209,28.9132632 C84.8049209,31.4733385 83.8108831,33.8864928 82.0041383,35.6933177 L64.3303998,53.3670563 L64.027187,53.6765187 L41.9650222,75.7322817 L41.9618934,75.7322817 C39.0297941,78.6799854 35.0381187,80.3304506 30.8803969,80.3210872 C26.7198743,80.3335907 22.7253181,78.6799854 19.790098,75.7322817 C16.8392734,72.7970615 15.1825705,68.8053862 15.195054,64.6419828 C15.195054,60.4470506 16.8236691,56.5085101 19.7838562,53.5484829 L55.6594809,17.6760672 L51.9834137,14 L16.1173925,49.8788175 C12.1881346,53.7861494 9.98439846,59.102995 10,64.6421428 C10,70.2155402 12.1725302,75.461166 16.1173925,79.3990663 C20.062254,83.343931 25.2983571,85.5163781 30.8743152,85.5163781 L30.8805649,85.5163781 C36.4539623,85.5163781 41.6963872,83.343931 45.6374884,79.3990663 L76.8334054,48.2063502 L77.1584963,47.8750096 L85.6768766,39.3566293 L85.6768766,39.3628871 C88.4558131,36.5933932 90.012488,32.8297816 90,28.9071655 C90,24.9560614 88.4619748,21.2487855 85.6737557,18.4570454 L85.6766925,18.4602703 Z"></path>
            </g>
        </g>
    </g>
</svg>