<?xml version="1.0" encoding="UTF-8"?>
<svg width="88px" height="88px" viewBox="0 0 88 88" version="1.1" xmlns="http://www.w3.org/2000/svg" xmlns:xlink="http://www.w3.org/1999/xlink">
    <title>Atoms / Icons / Plus white</title>
    <g id="STYLEGUIDE" stroke="none" stroke-width="1" fill="none" fill-rule="evenodd">
        <g id="Styleguide" transform="translate(-1312.000000, -1064.000000)">
            <g id="Group" transform="translate(1306.000000, 1058.000000)">
                <path d="M50,6 C25.73,6 6,25.719 6,50 C6,74.273 25.727,94 50,94 C74.281,94 94,74.27 94,50 C94,25.719 74.281,6 50,6 Z" id="Shape" fill="#FFFFFF" fill-rule="nonzero" transform="translate(50.000000, 50.000000) rotate(-315.000000) translate(-50.000000, -50.000000) "></path>
                <path d="M34.7677462,32.9845437 C33.9904062,33.0626687 33.3263462,33.5822037 33.0685462,34.3243437 C32.8146362,35.0626237 33.0138592,35.8829437 33.5802662,36.4220437 L47.1422662,50.0160437 L33.5802662,63.5780437 C32.7951062,64.3632037 32.7951062,65.6366437 33.5802662,66.4218437 C34.3654262,67.2070037 35.6388662,67.2070037 36.4240662,66.4218437 L50.0180662,52.8278437 L63.5800662,66.4218437 C64.3652262,67.2070037 65.6386662,67.2070037 66.4238662,66.4218437 C67.2090262,65.6366837 67.2090262,64.3632437 66.4238662,63.5780437 L52.8298662,50.0160437 L66.4238662,36.4220437 C67.0215262,35.8478237 67.1973062,34.9611437 66.8730862,34.1993437 C66.5488662,33.4337237 65.7832862,32.9532437 64.9550862,32.9845437 C64.4355562,32.9962627 63.9433862,33.2111037 63.5800862,33.5782937 L50.0180862,47.1402937 L36.4240862,33.5782937 C36.0451762,33.1954837 35.5256462,32.9806337 34.9865862,32.9845437 C34.9123672,32.9806377 34.8381462,32.9806377 34.7678362,32.9845437 L34.7677462,32.9845437 Z" id="Path" fill="#363A5B" transform="translate(49.996701, 49.996164) rotate(-315.000000) translate(-49.996701, -49.996164) "></path>
            </g>
        </g>
    </g>
</svg>