<?xml version="1.0" encoding="UTF-8"?>
<svg width="95px" height="74px" viewBox="0 0 95 74" version="1.1" xmlns="http://www.w3.org/2000/svg" xmlns:xlink="http://www.w3.org/1999/xlink">
    <title>Atoms / Icons / Preferences</title>
    <g id="STYLEGUIDE" stroke="none" stroke-width="1" fill="none" fill-rule="evenodd">
        <g id="Styleguide" transform="translate(-681.000000, -801.000000)" fill="#363A5B">
            <g id="Combined-Shape" transform="translate(681.000000, 788.000000)">
                <path d="M72.602241,13 C75.102241,13 77.403041,14 79.102241,15.6992 L79.102241,15.6992 L92.301241,28.8982 C93.999841,30.5974 94.999841,32.8982 94.999841,35.2966 L94.999841,35.2966 L94.999841,77.6016 C94.999841,82.6016 90.898241,86.7032 85.898241,86.7032 L85.898241,86.7032 L44.000241,86.7032 C39.000241,86.7032 34.898641,82.6016 34.898641,77.6016 L34.898641,77.6016 L34.898641,22.1016 C34.898641,17.1016 39.000241,13 44.000241,13 L44.000241,13 Z M71.500241,18.898 L44.000241,18.898 C42.199441,18.898 40.801041,20.2964 40.801041,22.0972 L40.801041,22.0972 L40.801041,77.6992 C40.801041,79.5 42.199441,80.8984 44.000241,80.8984 L44.000241,80.8984 L85.801241,80.8984 C87.602041,80.8984 89.000441,79.5 89.000441,77.6992 L89.000441,77.6992 L89.000441,36.4991 C89.000441,35.69832 88.301221,34.9991 87.500441,34.9991 L87.500441,34.9991 L77.199441,34.9952 C74.898641,34.9952 73.000241,33.0968 73.000241,30.796 L73.000241,30.796 L73.000241,20.398 C73.000241,19.59722 72.301021,18.898 71.500241,18.898 L71.500241,18.898 Z M29.398531,23.19988 L29.398531,40.39888 C28.597731,40.102 27.699331,40.00044 26.699331,40.00044 C21.199331,40.00044 16.800931,44.39884 16.800931,49.89884 C16.800931,55.39884 21.199331,59.79724 26.699331,59.79724 C27.597731,59.79724 28.500091,59.69958 29.398531,59.3988 L29.398531,59.3988 L29.402441,76.5978 L23.800841,76.5978 C22.500041,76.5978 21.398461,75.6994 21.199241,74.3986 L21.199241,74.3986 L20.500021,69.5002 C19.097621,68.90258 18.699221,68.70336 17.199221,68.1018 L17.199221,68.1018 L13.300821,71.0002 C12.199221,71.69942 10.699261,71.59786 9.800821,70.69942 L9.800821,70.69942 L5.80082,66.69942 C4.90238,65.69942 4.80082,64.19942 5.6016,63.19942 L5.6016,63.19942 L8.5,59.30102 C7.902381,57.89862 7.703161,57.50022 7.1016,56.00022 L7.1016,56.00022 L2.300801,55.301 C1,55.0978 0,54.0002 0,52.6994 L0,52.6994 L0,47.0978 C0,45.797 1,44.69542 2.300801,44.4962 L2.300801,44.4962 L7.1016,43.79698 C7.699221,42.39458 7.898441,41.99618 8.5,40.49618 L8.5,40.49618 L5.6016,36.59778 C4.80082,35.59778 4.90238,34.09782 5.80082,33.19938 L5.80082,33.19938 L9.800821,29.19938 C10.800821,28.19938 12.300821,28.09782 13.300821,28.8986 L13.300821,28.8986 L17.199221,31.797 C18.699221,31.19938 19.000021,31.00016 20.500021,30.3986 L20.500021,30.3986 L21.199231,25.50068 C21.398531,24.19988 22.500031,23.19988 23.796931,23.19988 L23.796931,23.19988 L29.398531,23.19988 Z M79.199341,67.8982 C80.898541,67.8982 82.199331,69.199 82.203241,70.8982 C82.203241,72.5974 80.804841,73.8982 79.203241,73.8982 L79.203241,73.8982 L50.601241,73.8982 C48.902041,73.8982 47.601241,72.4998 47.601241,70.8982 C47.601241,69.199 48.999641,67.8982 50.601241,67.8982 L50.601241,67.8982 Z M79.199341,54.8982 C80.898541,54.8982 82.199331,56.2966 82.203241,57.8982 C82.203241,59.5974 80.804841,60.8982 79.203241,60.8982 L79.203241,60.8982 L50.601241,60.8982 C48.902041,60.8982 47.601241,59.4998 47.601241,57.8982 C47.601241,56.199 48.999641,54.8982 50.601241,54.8982 L50.601241,54.8982 Z M79.199341,42.0002 C80.898541,42.0002 82.199331,43.2971 82.203241,45.0002 C82.203241,46.6994 80.804841,48.0002 79.203241,48.0002 L79.203241,48.0002 L50.601241,48.0002 C48.902041,48.0002 47.601241,46.6018 47.601241,45.0002 C47.601241,43.301 48.999641,42.0002 50.601241,42.0002 L50.601241,42.0002 Z M63.903241,29.0002 C65.602441,29.0002 66.903241,30.3986 66.903241,32.0002 C66.903241,33.6994 65.504841,35.0002 63.903241,35.0002 L63.903241,35.0002 L50.602241,35.0002 C49.000641,35.0002 47.602241,33.6994 47.602241,32.0002 C47.602241,30.301 49.000641,29.0002 50.602241,29.0002 L50.602241,29.0002 Z"></path>
            </g>
        </g>
    </g>
</svg>