<?xml version="1.0" encoding="UTF-8"?>
<svg width="95px" height="55px" viewBox="0 0 95 55" version="1.1" xmlns="http://www.w3.org/2000/svg" xmlns:xlink="http://www.w3.org/1999/xlink">
    <title>Atoms / Icons / Rep à tous</title>
    <g id="STYLEGUIDE" stroke="none" stroke-width="1" fill="none" fill-rule="evenodd">
        <g id="Styleguide" transform="translate(-434.000000, -1756.000000)" fill="#363A5B">
            <g id="Combined-Shape" transform="translate(431.000000, 1733.000000)">
                <path d="M48.8873055,23.6950902 C49.4321548,24.1775744 49.7603883,24.8526287 49.8057944,25.5740771 L49.811116,25.7718762 L49.811116,35.6259764 C66.4870035,40.1836123 89.6324056,50.6857914 97.334462,74.4117147 C97.7069012,75.5826568 97.2557209,76.8609582 96.2316278,77.5377103 C95.2075347,78.2180374 93.8539938,78.1321004 92.9230334,77.3336067 C77.4920075,63.8415322 56.439215,62.5484596 50.0021425,62.4683577 L49.8115743,62.4662903 L49.8115743,71.6042953 C49.7972744,72.6606549 49.1813702,73.6166584 48.2217183,74.0642454 C47.3220447,74.4838582 46.2713262,74.3810577 45.4708111,73.814841 L45.314163,73.6954362 L35.978,65.914 L35.9783275,71.6042953 C35.9648688,72.5985161 35.4185011,73.5038401 34.5542011,73.9800648 L34.3884716,74.0642454 C33.488798,74.4838582 32.4380795,74.3810577 31.6375643,73.814841 L31.4809162,73.6954362 L3.98110171,50.7752575 C3.35806592,50.256061 3,49.4826012 3,48.66978 C3,47.9279878 3.30086713,47.216243 3.83091492,46.700096 L3.98110171,46.5643026 L31.4809162,23.6477905 C31.8782885,23.3112019 32.3653011,23.092781 32.8841401,23.0219131 C33.6719181,22.9216579 34.4632436,23.1687254 35.0540588,23.6950902 C35.598908,24.1775744 35.9271415,24.8526287 35.9725477,25.5740771 L35.9778692,25.7718762 L35.977,31.428 L45.314163,23.6477905 C45.6618637,23.3532755 46.0781953,23.1492326 46.5246726,23.0524492 L46.7177535,23.0175864 L46.7173868,23.0219131 C47.5051648,22.9216579 48.2964903,23.1687254 48.8873055,23.6950902 Z M44.3115197,31.6112784 L23.8298412,48.6840799 L44.3117031,65.728465 L44.3117031,59.6841891 C44.3081281,58.2196406 45.4539537,57.0129836 46.9185021,56.9342076 C48.665657,56.8517082 69.322601,56.1101298 87.7383101,66.9313068 C78.113375,51.398495 59.8479982,43.7606048 46.3740058,40.3481528 C45.2179485,40.051504 44.3931694,39.04356 44.3172405,37.8625382 L44.3115197,37.6841541 L44.3115197,31.6112784 Z M30.4784563,31.6112784 L9.99659447,48.6840799 L30.4784563,65.728465 L30.478,61.33 L17.8143485,50.7752575 C17.1913127,50.256061 16.8332468,49.4826012 16.8332468,48.66978 C16.8332468,47.9279878 17.1341139,47.216243 17.6641617,46.700096 L17.8143485,46.5643026 L30.478,36.011 L30.4784563,31.6112784 Z"></path>
            </g>
        </g>
    </g>
</svg>