<?xml version="1.0" encoding="UTF-8"?>
<svg width="67px" height="72px" viewBox="0 0 67 72" version="1.1" xmlns="http://www.w3.org/2000/svg" xmlns:xlink="http://www.w3.org/1999/xlink">
    <title>Atoms / Icons / Rouvrir</title>
    <g id="STYLEGUIDE" stroke="none" stroke-width="1" fill="none" fill-rule="evenodd">
        <g id="Styleguide" transform="translate(-1073.000000, -1343.000000)" fill="#FC945A">
            <g id="Path" transform="translate(1056.000000, 1328.000000)">
                <path d="M32.725834,15 L35.3251261,15.4615683 L33.859984,23.8486108 C38.8912159,20.8615345 44.6998079,19.5069077 50.5000227,19.3868252 C69.0039743,19.3868252 84,34.5210635 84,53.1934126 C84,71.8657618 69.0030223,87 50.5000227,87 C31.9970232,87 17,71.8657618 17,53.1934126 C16.9888896,46.4463129 19.0303587,39.8229462 22.7675134,34.2395901 L24.4706423,35.9545604 C21.0644797,41.0279982 19.4394104,47.1107054 19.3613507,53.1936048 C19.3613507,70.548889 33.3026189,84.6177552 50.5004987,84.6177552 C67.6983785,84.6177552 81.6396467,70.548889 81.6396467,53.1936048 C81.6396467,35.8383205 67.6983785,21.7694543 50.5004987,21.7694543 C45.1830163,21.7994749 39.8986617,23.1391633 35.2617264,25.7772319 L43.49826,27.244448 L43.0408779,29.8637836 L30.5208671,27.6347641 L32.725834,15 Z"></path>
            </g>
        </g>
    </g>
</svg>