<?xml version="1.0" encoding="UTF-8" standalone="no"?>
<svg
   height="48"
   viewBox="0 96 960 960"
   width="48"
   version="1.1"
   id="svg8999"
   sodipodi:docname="calendar_orange.svg"
   inkscape:version="1.2.2 (732a01da63, 2022-12-09)"
   xmlns:inkscape="http://www.inkscape.org/namespaces/inkscape"
   xmlns:sodipodi="http://sodipodi.sourceforge.net/DTD/sodipodi-0.dtd"
   xmlns="http://www.w3.org/2000/svg"
   xmlns:svg="http://www.w3.org/2000/svg">
  <defs
     id="defs9003" />
  <sodipodi:namedview
     id="namedview9001"
     pagecolor="#ffffff"
     bordercolor="#000000"
     borderopacity="0.25"
     inkscape:showpageshadow="2"
     inkscape:pageopacity="0.0"
     inkscape:pagecheckerboard="0"
     inkscape:deskcolor="#d1d1d1"
     showgrid="false"
     inkscape:zoom="17.5625"
     inkscape:cx="23.97153"
     inkscape:cy="24.02847"
     inkscape:window-width="2400"
     inkscape:window-height="1271"
     inkscape:window-x="2091"
     inkscape:window-y="11"
     inkscape:window-maximized="1"
     inkscape:current-layer="svg8999" />
  <path
     d="M189 1001q-39.05 0-66.525-27.475Q95 946.05 95 907V305q0-39.463 27.475-67.231Q149.95 210 189 210h56v-60h82v60h306v-60h82v60h56q39.463 0 67.231 27.769Q866 265.537 866 305v602q0 39.05-27.769 66.525Q810.463 1001 771 1001H189Zm0-94h582V486H189v421Zm0-481h582V305H189v121Zm0 0V305v121Zm291.105 236q-19.505 0-32.805-13.195-13.3-13.194-13.3-32.7 0-19.505 13.195-32.805 13.194-13.3 32.7-13.3 19.505 0 32.805 13.195 13.3 13.194 13.3 32.7 0 19.505-13.195 32.805-13.194 13.3-32.7 13.3Zm-160 0q-19.505 0-32.805-13.195-13.3-13.194-13.3-32.7 0-19.505 13.195-32.805 13.194-13.3 32.7-13.3 19.505 0 32.805 13.195 13.3 13.194 13.3 32.7 0 19.505-13.195 32.805-13.194 13.3-32.7 13.3Zm320 0Q622 662 608 648.805q-14-13.194-14-32.7 0-19.505 13.895-32.805 13.894-13.3 32.5-13.3Q659 570 672.5 583.195q13.5 13.194 13.5 32.7 0 19.505-13.195 32.805-13.194 13.3-32.7 13.3Zm-160 160q-19.505 0-32.805-13.895-13.3-13.894-13.3-32.5Q434 757 447.195 743.5q13.194-13.5 32.7-13.5 19.505 0 32.805 13.195 13.3 13.194 13.3 32.7Q526 794 512.805 808q-13.194 14-32.7 14Zm-160 0q-19.505 0-32.805-13.895-13.3-13.894-13.3-32.5Q274 757 287.195 743.5q13.194-13.5 32.7-13.5 19.505 0 32.805 13.195 13.3 13.194 13.3 32.7Q366 794 352.805 808q-13.194 14-32.7 14Zm320 0Q622 822 608 808.105q-14-13.894-14-32.5Q594 757 607.895 743.5q13.894-13.5 32.5-13.5Q659 730 672.5 743.195q13.5 13.194 13.5 32.7Q686 794 672.805 808q-13.194 14-32.7 14Z"
     id="path8997" />
  <path
     style="fill:#fe5400;stroke-width:0.0569395"
     d="M 8.797153,45.175747 C 8.3525173,45.111018 7.7347288,44.922635 7.3751017,44.742118 6.0583666,44.081178 5.0632793,42.732289 4.8429083,41.309609 4.793545,40.990927 4.7811675,36.909207 4.7941305,25.224199 L 4.8115014,9.5658363 4.940999,9.1485478 C 5.434402,7.5586223 6.6434425,6.3515697 8.2090459,5.8858739 8.5904506,5.7724234 8.7842435,5.7596013 10.462633,5.7367675 l 1.836299,-0.024982 V 4.2082059 2.7046263 h 2.021353 2.021352 V 4.2135231 5.7224199 H 24 31.658363 V 4.2135231 2.7046263 h 2.021352 2.021353 V 4.208754 5.7128817 l 1.836299,0.023725 c 1.987948,0.025684 2.157758,0.048982 2.967678,0.4071673 1.00246,0.4433351 2.060899,1.5447021 2.428371,2.5268591 0.3392,0.9065913 0.310712,-0.5376284 0.327077,16.5812709 0.01648,17.235746 0.03753,16.167034 -0.336205,17.064788 -0.562184,1.350428 -1.768075,2.386236 -3.251364,2.792782 -0.331867,0.09096 -1.386909,0.09826 -15.445166,0.106818 -8.359558,0.0051 -15.241332,-0.01299 -15.430605,-0.04055 z M 38.604982,30.035587 V 19.501779 H 24 9.3950178 V 30.035587 40.569395 H 24 38.604982 Z m 0,-16.540925 V 10.448399 H 24 9.3950178 v 3.046263 3.046263 H 24 38.604982 Z"
     id="path9005"
     transform="matrix(20,0,0,20,0,96)" />
  <path
     style="fill:#fe5400;stroke-width:0.0569395"
     d="m 15.375539,28.182647 c -1.044143,-0.291801 -1.730835,-1.298167 -1.629998,-2.388808 0.122228,-1.322011 1.349255,-2.265011 2.638193,-2.027515 1.501789,0.276715 2.317669,1.867379 1.660389,3.237143 -0.20049,0.41782 -0.752579,0.938031 -1.161561,1.094491 -0.437215,0.167261 -1.081916,0.203491 -1.507023,0.08469 z"
     id="path9007"
     transform="matrix(20,0,0,20,0,96)" />
  <path
     style="fill:#fe5400;stroke-width:0.0569395"
     d="m 23.444608,28.212271 c -0.618833,-0.156345 -1.211586,-0.640591 -1.497868,-1.223674 -0.154409,-0.31449 -0.167381,-0.38945 -0.167381,-0.967245 0,-0.570804 0.01462,-0.657999 0.164937,-0.983491 0.216255,-0.468285 0.748397,-0.975488 1.21203,-1.15523 0.465687,-0.180538 1.221661,-0.180538 1.687348,0 0.463633,0.179742 0.995775,0.686945 1.21203,1.15523 0.150364,0.325601 0.164922,0.412495 0.164769,0.983491 -1.54e-4,0.571849 -0.01417,0.654892 -0.161132,0.954612 -0.22261,0.453997 -0.63784,0.862867 -1.092234,1.075504 -0.300627,0.14068 -0.465402,0.178848 -0.841296,0.194876 -0.257097,0.01096 -0.563638,-0.0044 -0.681203,-0.03407 z"
     id="path9009"
     transform="matrix(20,0,0,20,0,96)" />
  <path
     style="fill:#fe5400;stroke-width:0.0569395"
     d="m 31.426582,28.195941 c -0.62008,-0.175138 -1.2112,-0.681275 -1.494019,-1.279228 -0.163152,-0.344946 -0.180753,-0.433708 -0.177543,-0.895361 0.005,-0.72238 0.151058,-1.077327 0.645467,-1.568859 0.206422,-0.205222 0.502546,-0.432149 0.658053,-0.504283 1.71793,-0.796888 3.608743,0.776971 3.138524,2.612419 -0.17435,0.680554 -0.714733,1.306988 -1.331491,1.54352 -0.39559,0.151713 -1.073693,0.194968 -1.438991,0.09179 z"
     id="path9011"
     transform="matrix(20,0,0,20,0,96)" />
  <path
     style="fill:#fe5400;stroke-width:0.0569395"
     d="m 31.668876,36.233845 c -0.611943,-0.09893 -1.297394,-0.585033 -1.636418,-1.160516 -0.653248,-1.108868 -0.168099,-2.545347 1.055491,-3.12521 0.337945,-0.160153 0.422139,-0.175877 0.941718,-0.175877 0.529313,0 0.597935,0.01346 0.948537,0.186061 0.483132,0.237845 0.953904,0.732957 1.134118,1.192753 0.09864,0.251665 0.129935,0.450271 0.132658,0.841827 0.0032,0.46163 -0.0144,0.550423 -0.177504,0.895278 -0.325096,0.687335 -1.001645,1.242898 -1.615442,1.326555 -0.13901,0.01895 -0.303991,0.04201 -0.366625,0.05125 -0.06263,0.0092 -0.250073,-0.0052 -0.416533,-0.03212 z"
     id="path9013"
     transform="matrix(20,0,0,20,0,96)" />
  <path
     style="fill:#fe5400;stroke-width:0.0569395"
     d="m 23.659878,36.229391 c -0.708426,-0.09044 -1.372242,-0.59449 -1.703473,-1.293491 -0.163138,-0.344273 -0.177046,-0.420586 -0.177046,-0.971487 0,-0.546272 0.01445,-0.627347 0.167495,-0.939502 0.21391,-0.43631 0.649503,-0.871973 1.085174,-1.085348 0.315029,-0.154289 0.39042,-0.167321 0.967972,-0.167321 0.577552,0 0.652943,0.01303 0.967972,0.167321 0.437071,0.214061 0.90221,0.679108 1.098759,1.098544 0.136673,0.291658 0.15391,0.395497 0.15391,0.927193 0,0.563238 -0.01124,0.621597 -0.189452,0.983894 -0.462533,0.940294 -1.336767,1.412265 -2.371311,1.280197 z"
     id="path9015"
     transform="matrix(20,0,0,20,0,96)" />
  <path
     style="fill:#fe5400;stroke-width:0.0569395"
     d="m 15.668287,36.23915 c -0.975558,-0.137395 -1.832053,-1.050402 -1.92565,-2.052705 -0.04026,-0.431166 0.07634,-0.957595 0.29459,-1.330013 0.202618,-0.345742 0.655528,-0.751704 1.039324,-0.931589 0.288346,-0.135147 0.393964,-0.152601 0.923449,-0.152601 0.539397,0 0.632792,0.01613 0.955022,0.164936 0.466767,0.215555 0.974723,0.74785 1.156608,1.21203 0.09937,0.253592 0.130621,0.451323 0.13335,0.843675 0.0032,0.46163 -0.0144,0.550423 -0.177504,0.895278 -0.325096,0.687335 -1.001645,1.242898 -1.615442,1.326555 -0.13901,0.01895 -0.303991,0.0418 -0.366625,0.05079 -0.06263,0.009 -0.250338,-0.0029 -0.417122,-0.02636 z"
     id="path9017"
     transform="matrix(20,0,0,20,0,96)" />
</svg>
