<?xml version="1.0" encoding="UTF-8" standalone="no"?>
<svg
   height="48"
   viewBox="0 96 960 960"
   width="48"
   version="1.1"
   id="svg10492"
   sodipodi:docname="contacts_orange.svg"
   inkscape:version="1.2.2 (732a01da63, 2022-12-09)"
   xmlns:inkscape="http://www.inkscape.org/namespaces/inkscape"
   xmlns:sodipodi="http://sodipodi.sourceforge.net/DTD/sodipodi-0.dtd"
   xmlns="http://www.w3.org/2000/svg"
   xmlns:svg="http://www.w3.org/2000/svg">
  <defs
     id="defs10496" />
  <sodipodi:namedview
     id="namedview10494"
     pagecolor="#ffffff"
     bordercolor="#000000"
     borderopacity="0.25"
     inkscape:showpageshadow="2"
     inkscape:pageopacity="0.0"
     inkscape:pagecheckerboard="0"
     inkscape:deskcolor="#d1d1d1"
     showgrid="false"
     inkscape:zoom="17.5625"
     inkscape:cx="23.97153"
     inkscape:cy="24.02847"
     inkscape:window-width="1920"
     inkscape:window-height="1001"
     inkscape:window-x="4491"
     inkscape:window-y="-9"
     inkscape:window-maximized="1"
     inkscape:current-layer="svg10492" />
  <path
     d="M121 1039v-60h718v60H121Zm0-866v-60h718v60H121Zm358.882 450Q533 623 568.5 588.118q35.5-34.883 35.5-88Q604 447 568.618 411.5q-35.383-35.5-88.5-35.5Q427 376 391.5 411.382q-35.5 35.383-35.5 88.5Q356 553 391.382 588q35.383 35 88.5 35ZM143 919q-39.05 0-66.525-27.475Q49 864.05 49 825V327q0-41.05 27.475-67.525Q103.95 233 143 233h674q39.05 0 66.525 27.475Q911 287.95 911 327v498q0 39.05-27.475 66.525Q856.05 919 817 919H143Zm66-83q46-65 120-101t150.5-36q76.5 0 152 36T751 836h77V316H132v520h77Zm105 0h334q-31-30-72.5-48T480 770q-54 0-94.5 18T314 836Zm166.053-284Q458 552 443.5 536.895q-14.5-15.106-14.5-37Q429 478 443.447 462.5q14.448-15.5 36.5-15.5Q502 447 516.5 462.605q14.5 15.606 14.5 37.5Q531 522 516.553 537q-14.448 15-36.5 15ZM480 576Z"
     id="path10490" />
  <path
     style="fill:#fe5400;stroke-width:0.0569395"
     d="M 6.0925267,2.3629893 V 0.88256228 H 24 41.907473 V 2.3629893 3.8434164 H 24 6.0925267 Z"
     id="path10498"
     transform="matrix(20,0,0,20,0,96)" />
  <path
     style="fill:#fe5400;stroke-width:0.0569395"
     d="M 6.6903915,41.101852 C 5.5277802,40.961038 4.6528442,40.538599 3.8575507,39.734092 3.188966,39.057761 2.8390552,38.44781 2.6178644,37.573119 2.50529,37.127948 2.504098,36.96246 2.518863,23.828165 L 2.5338078,10.533808 2.7139414,10.018562 C 2.9546352,9.3300936 3.2334686,8.8701807 3.7221615,8.3555863 4.3775469,7.6654642 5.0532327,7.2653365 5.9806752,7.0181392 L 6.4626335,6.8896797 H 23.94306 c 14.348557,0 17.546738,0.013609 17.850534,0.075958 0.875744,0.1797313 1.682799,0.6264983 2.348856,1.3002705 0.666556,0.6742793 1.014713,1.279676 1.237996,2.1527058 0.112708,0.440679 0.114216,0.620064 0.114216,13.581386 0,12.982435 -0.0013,13.140034 -0.114784,13.585198 -0.214424,0.841352 -0.589476,1.494291 -1.230501,2.14221 -0.634587,0.641413 -1.320513,1.041496 -2.198873,1.282546 -0.332714,0.09131 -1.501181,0.09824 -17.722746,0.105169 -9.551601,0.0041 -17.4434164,-0.0019 -17.5373665,-0.01327 z M 10.87944,36.483986 c 0.230393,-0.305338 0.816985,-0.953013 1.303536,-1.439276 1.353082,-1.352281 2.426602,-2.118722 4.216857,-3.010631 1.893186,-0.943189 3.691206,-1.493216 5.692694,-1.741436 0.83003,-0.102938 2.73031,-0.119319 3.53109,-0.03044 3.118011,0.346075 6.259297,1.569129 8.672772,3.376727 0.875923,0.656032 2.147368,1.922453 2.770592,2.759646 l 0.476854,0.640569 h 1.954061 1.954061 V 24 10.960854 H 24 6.5480427 V 24 37.039146 h 1.95625 1.9562503 z m 21.519137,0.499686 c 0,-0.09789 -0.918974,-0.848913 -1.594307,-1.302931 -1.479973,-0.994969 -2.990026,-1.59234 -4.697508,-1.858317 -0.313168,-0.04878 -1.043417,-0.104288 -1.622776,-0.123347 -2.749071,-0.09043 -4.932867,0.484597 -7.003559,1.844159 -0.569566,0.373961 -1.499242,1.111498 -1.731245,1.373442 l -0.108469,0.122468 h 8.378932 c 5.400419,0 8.378932,-0.01972 8.378932,-0.05547 z"
     id="path10500"
     transform="matrix(20,0,0,20,0,96)" />
  <path
     style="fill:#fe5400;stroke-width:0.0569395"
     d="m 23.145907,26.276372 c -1.36102,-0.17568 -2.517892,-0.724625 -3.463944,-1.643669 -0.585088,-0.568385 -0.948906,-1.066733 -1.26331,-1.730446 -0.536772,-1.133138 -0.707597,-2.382035 -0.508873,-3.72037 0.204291,-1.375833 0.756855,-2.455894 1.748981,-3.41862 0.798266,-0.77461 1.645455,-1.257322 2.706744,-1.542248 0.503849,-0.13527 0.648165,-0.14837 1.634495,-0.14837 0.993057,0 1.128584,0.0125 1.651246,0.152341 0.617831,0.1653 1.324904,0.480321 1.838581,0.819141 0.470804,0.310541 1.266951,1.096736 1.60325,1.583209 1.252403,1.811666 1.43006,4.413871 0.43639,6.39197 -0.803288,1.599104 -2.345578,2.782842 -4.105979,3.15142 -0.604713,0.12661 -1.71586,0.178149 -2.277581,0.105642 z m 2.001052,-3.699237 c 1.295982,-0.636698 1.801888,-2.254279 1.132354,-3.620583 -0.624331,-1.274059 -2.10742,-1.785593 -3.408298,-1.175559 -1.281343,0.600873 -1.823664,2.297479 -1.164555,3.643214 0.298303,0.60906 0.970082,1.167491 1.597821,1.328224 0.100795,0.02581 0.46879,0.04008 0.817767,0.03171 0.589687,-0.01413 0.662078,-0.02876 1.024911,-0.207011 z"
     id="path10502"
     transform="matrix(20,0,0,20,0,96)" />
  <path
     style="fill:#fe5400;stroke-width:0.0569395"
     d="M 6.0925267,45.637011 V 44.156584 H 24 41.907473 v 1.480427 1.480427 H 24 6.0925267 Z"
     id="path10504"
     transform="matrix(20,0,0,20,0,96)" />
</svg>
