<?xml version="1.0" encoding="UTF-8" standalone="no"?>
<svg
   height="48"
   viewBox="0 96 960 960"
   width="48"
   version="1.1"
   id="svg1982"
   sodipodi:docname="help_orange.svg"
   inkscape:version="1.2.2 (732a01da63, 2022-12-09)"
   xmlns:inkscape="http://www.inkscape.org/namespaces/inkscape"
   xmlns:sodipodi="http://sodipodi.sourceforge.net/DTD/sodipodi-0.dtd"
   xmlns="http://www.w3.org/2000/svg"
   xmlns:svg="http://www.w3.org/2000/svg">
  <defs
     id="defs1986" />
  <sodipodi:namedview
     id="namedview1984"
     pagecolor="#ffffff"
     bordercolor="#000000"
     borderopacity="0.25"
     inkscape:showpageshadow="2"
     inkscape:pageopacity="0.0"
     inkscape:pagecheckerboard="0"
     inkscape:deskcolor="#d1d1d1"
     showgrid="false"
     inkscape:zoom="17.5625"
     inkscape:cx="24.05694"
     inkscape:cy="24.02847"
     inkscape:window-width="2400"
     inkscape:window-height="1271"
     inkscape:window-x="2091"
     inkscape:window-y="11"
     inkscape:window-maximized="1"
     inkscape:current-layer="svg1982" />
  <path
     d="M480.862 1001q-88.138 0-165.5-33.5t-135.415-91.214q-58.052-57.715-91.5-134.976Q55 664.048 55 576.024t33.447-165.3q33.448-77.275 91.5-135Q238 218 315.452 184q77.453-34 165.693-34 88.24 0 165.192 34 76.953 34 134.808 91.5Q839 333 872.5 410.362q33.5 77.362 33.5 165.5t-33.404 165.526q-33.404 77.388-91.382 135.196-57.977 57.807-135.096 91.112Q569 1001 480.862 1001ZM363 888l55-134q-39-13-70.109-43-31.109-30-45.891-72l-135 52q31 69 81 120t115 77Zm-62-375q14-43 45-72.5t71-43.5l-54-134q-74 31-124 82.5T167 462l134 51Zm178.824 157q39.823 0 67.499-27Q575 616 575 576.177q0-39.824-27.677-67.5Q519.647 481 479.824 481 440 481 413 508.677q-27 27.676-27 67.5Q386 616 413 643q27 27 66.824 27ZM597 888q68-27 118.5-78T793 692l-135-53q-15 44-45.5 73T542 754l55 134Zm61-375 135-54q-27.132-67.346-78.393-117.607Q663.346 291.132 597 263l-53 134q40.305 12.741 69.297 42.716Q642.288 469.69 658 513Z"
     id="path1980" />
  <path
     style="fill:#fe5400;stroke-width:0.0569395"
     d="M 22.60923,45.179244 C 18.862438,44.919057 15.383793,43.71932 12.213523,41.593909 7.4383796,38.392559 4.1048692,33.333599 3.1084301,27.775954 c -0.4230646,-2.359645 -0.4230646,-5.192263 0,-7.551908 C 3.8101179,16.310378 5.7084256,12.560385 8.523992,9.525928 11.2084,6.6328256 15.117353,4.3169975 18.932384,3.3595591 c 3.889553,-0.9761408 8.072084,-0.8136797 11.786477,0.4578195 4.454227,1.5247567 8.365965,4.5349659 10.9847,8.4530844 1.930967,2.889087 3.077269,6.039602 3.452662,9.489349 0.123099,1.131254 0.123099,3.349122 0,4.480376 -0.453247,4.1652 -2.039048,7.922879 -4.74957,11.254474 -0.624605,0.767723 -2.087328,2.230447 -2.855052,2.855052 -3.313387,2.695707 -7.144515,4.321146 -11.183301,4.744757 -1.041196,0.109206 -2.827217,0.149484 -3.75907,0.08477 z m -3.04597,-8.933411 c 0.750197,-1.829917 1.344329,-3.344141 1.320295,-3.364943 -0.02403,-0.0208 -0.24868,-0.119123 -0.499213,-0.218491 -1.654704,-0.656301 -3.277738,-1.996921 -4.264413,-3.522391 -0.296049,-0.457712 -0.781286,-1.409101 -0.885965,-1.73708 -0.03734,-0.117001 -0.09076,-0.226859 -0.118699,-0.244128 -0.07467,-0.04615 -6.773628,2.547757 -6.773628,2.622822 0,0.03507 0.1864871,0.433251 0.414416,0.884843 1.0698841,2.119752 2.248434,3.739358 3.893168,5.350133 1.514501,1.483231 2.977672,2.489757 4.851625,3.337466 0.301937,0.136585 0.582602,0.241711 0.623699,0.233613 0.0411,-0.0081 0.68852,-1.511928 1.438715,-3.341844 z m 11.117554,3.034305 c 3.143216,-1.410652 5.881506,-3.861222 7.72995,-6.91774 0.371076,-0.613598 1.156806,-2.189399 1.219221,-2.44518 0.03573,-0.146407 0.0259,-0.150735 -3.335078,-1.469828 -1.854,-0.727644 -3.389048,-1.302136 -3.411218,-1.276649 -0.02217,0.02549 -0.09987,0.200078 -0.172656,0.387978 -0.873975,2.25606 -2.623142,4.062532 -4.858245,5.017407 -0.318322,0.135993 -0.609283,0.247763 -0.64658,0.248378 -0.0373,6.15e-4 -0.08195,0.02398 -0.09922,0.05193 -0.02483,0.04018 1.220791,3.135577 2.541851,6.316564 0.203633,0.490328 0.144687,0.48535 1.03197,0.08714 z M 24.94006,28.63888 c 1.614998,-0.281632 3.073699,-1.525084 3.583323,-3.05456 0.399141,-1.197894 0.311533,-2.63106 -0.227522,-3.722024 -0.422717,-0.855513 -1.303642,-1.735934 -2.160606,-2.159367 -1.088435,-0.537807 -2.522805,-0.625078 -3.719575,-0.226312 -1.196796,0.398774 -2.278682,1.42934 -2.790049,2.6577 -0.492652,1.183401 -0.447284,2.875287 0.10674,3.980617 0.564479,1.126189 1.57419,2.019 2.693833,2.381949 0.699212,0.22666 1.703168,0.283369 2.513856,0.141997 z m -9.679927,-8.258403 c 0.691612,-1.770311 1.849546,-3.176207 3.504427,-4.25487 0.521531,-0.339938 1.533367,-0.855299 1.887661,-0.961448 0.118858,-0.03561 0.216106,-0.08653 0.216106,-0.113161 0,-0.06214 -2.659585,-6.65483 -2.701608,-6.6968531 -0.04903,-0.049031 -0.948442,0.353756 -1.794583,0.8036755 -1.554012,0.8263168 -2.888335,1.7934466 -4.095401,2.9683876 -1.346197,1.310367 -2.4216455,2.762147 -3.1565033,4.261059 -0.3680466,0.750717 -0.7787901,1.74051 -0.7783749,1.875698 2.278e-4,0.07143 6.5803482,2.614249 6.6875302,2.584323 0.02986,-0.0083 0.1337,-0.218403 0.230746,-0.466811 z m 21.038755,-0.855973 c 1.847711,-0.739102 3.359475,-1.36459 3.359475,-1.389972 0,-0.07484 -0.363113,-0.900219 -0.625931,-1.422788 C 38.207273,15.071056 37.113414,13.596271 35.694115,12.21089 34.728569,11.268417 33.973757,10.660051 32.854093,9.9218801 32.082478,9.4131707 30.074782,8.341637 29.893245,8.341637 c -0.04032,0 -0.137238,0.1601424 -0.215377,0.3558719 -1.00944,2.5285411 -2.489256,6.2993101 -2.489256,6.3429601 0,0.03089 0.135658,0.09893 0.301462,0.1512 0.454529,0.143277 1.319787,0.579513 1.85557,0.935518 0.621956,0.413265 1.507371,1.267298 2.021616,1.949964 0.600671,0.797398 0.965854,1.463461 1.460079,2.663063 0.02903,0.07046 0.06612,0.128113 0.08243,0.128113 0.0163,0 1.541409,-0.60472 3.389121,-1.343823 z"
     id="path2468"
     transform="matrix(20,0,0,20,0,96)" />
</svg>
