<?xml version="1.0" encoding="UTF-8" standalone="no"?>
<svg
   height="48"
   viewBox="0 96 960 960"
   width="48"
   version="1.1"
   id="svg5229"
   sodipodi:docname="mail_orange.svg"
   inkscape:version="1.2.2 (732a01da63, 2022-12-09)"
   xmlns:inkscape="http://www.inkscape.org/namespaces/inkscape"
   xmlns:sodipodi="http://sodipodi.sourceforge.net/DTD/sodipodi-0.dtd"
   xmlns="http://www.w3.org/2000/svg"
   xmlns:svg="http://www.w3.org/2000/svg">
  <defs
     id="defs5233" />
  <sodipodi:namedview
     id="namedview5231"
     pagecolor="#ffffff"
     bordercolor="#000000"
     borderopacity="0.25"
     inkscape:showpageshadow="2"
     inkscape:pageopacity="0.0"
     inkscape:pagecheckerboard="0"
     inkscape:deskcolor="#d1d1d1"
     showgrid="false"
     inkscape:zoom="17.5625"
     inkscape:cx="13.124555"
     inkscape:cy="24.02847"
     inkscape:window-width="2400"
     inkscape:window-height="1271"
     inkscape:window-x="2091"
     inkscape:window-y="11"
     inkscape:window-maximized="1"
     inkscape:current-layer="svg5229" />
  <path
     d="M149 921q-39.05 0-66.525-27.475Q55 866.05 55 827V325q0-39.463 27.475-67.231Q109.95 230 149 230h662q39.463 0 67.231 27.769Q906 285.537 906 325v502q0 39.05-27.769 66.525Q850.463 921 811 921H149Zm331-295L149 403v424h662V403L480 626Zm0-83 327-218H154l326 218ZM149 403v-78 502-424Z"
     id="path5227" />
  <path
     style="fill:#fe5400;stroke-width:0.0569395"
     d="M 6.2918149,41.077953 C 5.4675259,40.862723 4.8126484,40.483338 4.1729479,39.850445 3.492117,39.176859 3.0463218,38.373314 2.8659936,37.494662 2.8039605,37.192404 2.7900356,34.708078 2.7900356,23.94306 V 10.761566 L 2.9175737,10.27758 C 3.3593747,8.6010186 4.7208154,7.2489012 6.3563051,6.8623972 6.8461629,6.7466324 6.9070257,6.7462862 24.178369,6.7610182 l 17.330528,0.014782 0.398576,0.1346903 c 1.687426,0.5702291 2.865958,1.8414411 3.253576,3.5094375 0.10156,0.437035 0.105855,0.989154 0.105855,13.608541 v 13.153025 l -0.12846,0.481958 c -0.458077,1.718628 -1.767867,3.014413 -3.458729,3.421744 -0.444751,0.107141 -0.863246,0.10967 -17.708185,0.106998 C 7.0292048,41.189508 6.7111794,41.187453 6.2918149,41.077953 Z M 40.569395,25.958321 c 0,-8.477404 -0.01439,-10.61958 -0.07117,-10.596967 -0.03915,0.01559 -3.312181,2.21232 -7.273412,4.881626 -3.961231,2.669306 -7.657384,5.15914 -8.213674,5.532963 l -1.011438,0.679679 -8.213372,-5.533704 C 11.268971,17.87838 7.5409253,15.375793 7.5017794,15.360613 7.4449955,15.338592 7.430605,17.481313 7.430605,25.958321 V 36.58363 H 24 40.569395 Z m -8.348908,-9.047289 c 4.464844,-2.975089 8.11863,-5.42847 8.119524,-5.451957 8.94e-4,-0.02349 -7.357235,-0.0427 -16.351399,-0.0427 -10.207031,0 -16.3326951,0.02012 -16.2989323,0.05352 0.1866516,0.184695 16.2429583,10.872528 16.3189093,10.862635 0.0517,-0.0067 3.747054,-2.446409 8.211898,-5.421498 z"
     id="path6441"
     transform="matrix(20,0,0,20,0,96)" />
</svg>
