<?xml version="1.0" encoding="UTF-8" standalone="no"?>
<svg
   height="48"
   viewBox="0 96 960 960"
   width="48"
   version="1.1"
   id="svg11976"
   sodipodi:docname="poll_orange.svg"
   inkscape:version="1.2.2 (732a01da63, 2022-12-09)"
   xmlns:inkscape="http://www.inkscape.org/namespaces/inkscape"
   xmlns:sodipodi="http://sodipodi.sourceforge.net/DTD/sodipodi-0.dtd"
   xmlns="http://www.w3.org/2000/svg"
   xmlns:svg="http://www.w3.org/2000/svg">
  <defs
     id="defs11980" />
  <sodipodi:namedview
     id="namedview11978"
     pagecolor="#ffffff"
     bordercolor="#000000"
     borderopacity="0.25"
     inkscape:showpageshadow="2"
     inkscape:pageopacity="0.0"
     inkscape:pagecheckerboard="0"
     inkscape:deskcolor="#d1d1d1"
     showgrid="false"
     inkscape:zoom="17.5625"
     inkscape:cx="23.97153"
     inkscape:cy="24.02847"
     inkscape:window-width="1920"
     inkscape:window-height="1001"
     inkscape:window-x="4491"
     inkscape:window-y="-9"
     inkscape:window-maximized="1"
     inkscape:current-layer="svg11976" />
  <path
     d="M145 913V439h170v474H145Zm250 0V239h170v674H395Zm250 0V599h170v314H645Z"
     id="path11974" />
  <path
     style="fill:#fe5400;stroke-width:0.0569395"
     d="M 7.2882562,28.982206 V 17.16726 h 4.2135228 4.213523 V 28.982206 40.797153 H 11.501779 7.2882562 Z"
     id="path11982"
     transform="matrix(20,0,0,20,0,96)" />
  <path
     style="fill:#fe5400;stroke-width:0.0569395"
     d="M 19.758007,24 V 7.202847 H 24 28.241993 V 24 40.797153 H 24 19.758007 Z"
     id="path11984"
     transform="matrix(20,0,0,20,0,96)" />
  <path
     style="fill:#fe5400;stroke-width:0.0569395"
     d="M 32.284698,32.996441 V 25.19573 h 4.213523 4.213523 v 7.800711 7.800712 h -4.213523 -4.213523 z"
     id="path11986"
     transform="matrix(20,0,0,20,0,96)" />
</svg>
