<?xml version="1.0" encoding="UTF-8" standalone="no"?>
<svg
   height="48"
   viewBox="0 96 960 960"
   width="48"
   version="1.1"
   id="svg17"
   sodipodi:docname="settings_orange.svg"
   inkscape:version="1.2.2 (732a01da63, 2022-12-09)"
   xmlns:inkscape="http://www.inkscape.org/namespaces/inkscape"
   xmlns:sodipodi="http://sodipodi.sourceforge.net/DTD/sodipodi-0.dtd"
   xmlns="http://www.w3.org/2000/svg"
   xmlns:svg="http://www.w3.org/2000/svg">
  <defs
     id="defs21" />
  <sodipodi:namedview
     id="namedview19"
     pagecolor="#ffffff"
     bordercolor="#000000"
     borderopacity="0.25"
     inkscape:showpageshadow="2"
     inkscape:pageopacity="0.0"
     inkscape:pagecheckerboard="0"
     inkscape:deskcolor="#d1d1d1"
     showgrid="false"
     inkscape:zoom="17.5625"
     inkscape:cx="24.05694"
     inkscape:cy="24.02847"
     inkscape:window-width="2400"
     inkscape:window-height="1271"
     inkscape:window-x="2091"
     inkscape:window-y="11"
     inkscape:window-maximized="1"
     inkscape:current-layer="svg17" />
  <path
     d="m366 1001-21-134q-13-4-29.5-13.5T288 835l-125 58L47 688l114-83q-1-6-1.5-14.5T159 576q0-6 .5-14.5T161 547L47 463l116-203 127 57q10-8 26-17t29-13l21-137h228l21 136q13 5 29.5 13.5T672 317l126-57 115 203-115 82q1 7 2 15.5t1 15.5q0 7-1 15t-2 15l115 82-116 205-126-58q-11 9-26.5 18.5T615 867l-21 134H366Zm112-295q54 0 92-38t38-92q0-54-38-92t-92-38q-54 0-92 38t-38 92q0 54 38 92t92 38Zm0-60q-30 0-50-20.5T408 576q0-29 20-49.5t50-20.5q29 0 49.5 20.5T548 576q0 29-20.5 49.5T478 646Zm2-70Zm-36 331h71l15-111q34-8 65-25t55-44l106 46 31-59-92-67q4-18 7-35.5t3-35.5q0-18-2.5-35.5T695 505l93-67-32-59-105 46q-23-28-54-47t-67-23l-14-110h-72l-13 110q-36 6-67.5 24.5T308 425l-104-46-32 59 91 66q-4 18-7 36t-3 36q0 18 3 36.5t7 35.5l-91 66 32 59 104-46q25 26 56.5 44t66.5 26l13 110Z"
     id="path15" />
  <path
     style="fill:#fe5400;stroke-width:0.0569395"
     d="m 18.30605,45.164035 c 0,-0.04092 -0.230605,-1.543387 -0.512456,-3.338816 -0.28185,-1.795428 -0.512455,-3.270211 -0.512455,-3.277295 0,-0.0071 -0.121708,-0.05822 -0.270463,-0.113634 -0.622264,-0.231809 -1.587791,-0.777391 -2.370418,-1.339432 L 14.392843,36.917179 11.313476,38.34471 C 9.6198246,39.129853 8.2134633,39.772 8.1882295,39.771704 8.162995,39.771419 6.8506874,37.486863 5.2719903,34.694939 2.4720464,29.74324 2.4044377,29.616492 2.5160138,29.528217 c 0.06291,-0.04977 1.3289486,-0.974175 2.813419,-2.054229 l 2.699037,-1.963734 V 23.99972 22.489186 L 5.3742295,20.533996 C 3.9143973,19.458641 2.6482634,18.521613 2.5605985,18.451712 L 2.4012079,18.324618 5.2696742,13.304658 C 6.8473308,10.543679 8.16471,8.2845593 8.1971843,8.2843903 c 0.032474,-1.708e-4 1.4615306,0.629216 3.1756817,1.3986326 l 3.116639,1.3989401 0.555959,-0.367804 c 0.676342,-0.447445 1.404445,-0.8382854 1.873771,-1.0058265 0.290547,-0.1037198 0.354603,-0.1505059 0.377937,-0.2760404 0.01545,-0.083134 0.254394,-1.6308686 0.530981,-3.4394095 l 0.502884,-3.2882563 h 5.670716 5.670717 l 0.473301,3.088968 c 0.260315,1.6989324 0.497855,3.2326895 0.527867,3.4083496 l 0.05457,0.3193822 0.620294,0.2711545 c 0.681288,0.2978174 1.668116,0.8481494 2.006722,1.1191024 0.262055,0.209698 -0.195157,0.379316 3.537901,-1.3125014 1.59513,-0.7229114 2.927514,-1.3139489 2.960854,-1.313417 0.05151,8.219e-4 5.726096,9.9535524 5.726096,10.0430814 0,0.01733 -1.283364,0.945464 -2.851921,2.062519 l -2.851922,2.031009 0.04765,0.404521 c 0.0618,0.524595 0.0612,1.836601 -10e-4,2.320275 l -0.0487,0.378386 2.781796,1.977819 c 1.529988,1.0878 2.817087,2.010671 2.860219,2.050824 0.06566,0.06112 -0.388425,0.898501 -2.790036,5.145093 -1.577651,2.789648 -2.889222,5.072304 -2.914601,5.072568 -0.02538,2.85e-4 -1.44407,-0.642663 -3.152649,-1.428729 l -3.106508,-1.42921 -0.178311,0.132599 c -0.845999,0.629122 -1.892185,1.23443 -2.441656,1.412707 -0.117438,0.0381 -0.213523,0.07657 -0.213523,0.08548 0,0.0089 -0.230605,1.485187 -0.512456,3.280615 -0.28185,1.795429 -0.512455,3.297896 -0.512455,3.338816 -2e-6,0.06074 -1.045106,0.0744 -5.693952,0.0744 -4.648846,0 -5.69395,-0.01366 -5.69395,-0.0744 z m 7.485322,-4.722754 c 0.01563,-0.07046 0.183507,-1.29395 0.373062,-2.718861 0.189555,-1.424911 0.353519,-2.61637 0.364365,-2.647687 0.01084,-0.03132 0.245412,-0.116142 0.521259,-0.1885 0.275847,-0.07236 0.797804,-0.248523 1.159904,-0.391478 1.633123,-0.644744 2.827939,-1.407149 3.907719,-2.493494 l 0.402378,-0.404825 2.586946,1.125434 c 1.42282,0.618989 2.622798,1.119755 2.666617,1.112814 0.06752,-0.0107 1.603633,-2.834387 1.598144,-2.937717 -10e-4,-0.01967 -1.025781,-0.778818 -2.277192,-1.687003 -1.251412,-0.908185 -2.275364,-1.689679 -2.27545,-1.736654 -1.14e-4,-0.04697 0.075,-0.469751 0.166865,-0.939502 0.390287,-1.995779 0.380716,-3.518595 -0.03387,-5.38881 -0.08788,-0.396441 -0.129458,-0.699403 -0.09955,-0.72544 0.02824,-0.02459 1.063449,-0.770683 2.30046,-1.657987 1.237011,-0.887304 2.25887,-1.620907 2.2708,-1.63023 0.03758,-0.02937 -1.55582,-2.937377 -1.624074,-2.963986 -0.03576,-0.01394 -1.224967,0.482913 -2.642683,1.104121 l -2.577666,1.129467 -0.574399,-0.59139 C 31.107747,14.885754 30.211424,14.213857 29.185338,13.69589 28.674706,13.438124 27.584202,13.087004 27.024993,13.000303 26.76276,12.959646 26.53927,12.900508 26.528348,12.868885 26.517426,12.837262 26.367092,11.683986 26.194273,10.30605 26.021454,8.9281139 25.865847,7.7174377 25.84848,7.6156584 L 25.816904,7.430605 H 23.99742 c -1.000716,0 -1.821376,0.019217 -1.823688,0.042705 -0.0023,0.023488 -0.149644,1.2571308 -0.327403,2.741429 l -0.323197,2.698725 -0.569395,0.129003 C 19.116537,13.458707 17.49682,14.361622 16,15.803941 l -0.626335,0.603529 -2.554179,-1.132739 c -1.404799,-0.623006 -2.583447,-1.121329 -2.619217,-1.107384 -0.06819,0.02658 -1.6617551,2.934693 -1.6240936,2.963816 0.011929,0.0092 0.8644356,0.626279 1.8944586,1.371232 1.030023,0.744954 2.049726,1.483573 2.266007,1.641377 0.259442,0.189295 0.382558,0.314746 0.36185,0.368712 -0.0795,0.207175 -0.377847,1.965954 -0.434986,2.564284 -0.07668,0.80292 -0.03129,1.864712 0.119087,2.785713 0.106501,0.652291 0.258804,1.43102 0.316272,1.61711 0.01966,0.06366 -0.09148,0.179097 -0.363572,0.377621 -0.215539,0.157263 -1.234635,0.895439 -2.264658,1.640393 -1.030023,0.744953 -1.8823305,1.361809 -1.8940162,1.37079 -0.037381,0.02873 1.5559922,2.937548 1.6236512,2.964095 0.03577,0.01403 1.214418,-0.483964 2.619217,-1.106665 l 2.554179,-1.132183 0.398577,0.374402 c 1.482163,1.39227 3.198163,2.376753 5.124555,2.939996 l 0.626335,0.183129 0.323197,2.696409 c 0.177759,1.483024 0.32509,2.715625 0.327403,2.739112 0.0023,0.02349 0.810833,0.0427 1.796714,0.0427 h 1.792509 z"
     id="path873"
     transform="matrix(20,0,0,20,0,96)" />
  <path
     style="fill:#fe5400;stroke-width:0.0569395"
     d="M 23.131116,30.432631 C 22.467971,30.35741 21.818136,30.168118 21.160892,29.858721 20.401136,29.501065 19.937368,29.169248 19.302491,28.52907 18.473535,27.693191 17.951519,26.797352 17.63784,25.672337 17.491435,25.147251 17.481138,25.03736 17.481138,24 c 0,-1.03736 0.0103,-1.147251 0.156702,-1.672337 0.313679,-1.125015 0.835695,-2.020854 1.664651,-2.856733 0.634877,-0.640178 1.098645,-0.971996 1.858401,-1.329651 2.138222,-1.006567 4.663543,-0.765731 6.54417,0.624109 0.466207,0.344541 1.263971,1.166779 1.570865,1.619056 0.892425,1.31519 1.261511,2.975372 1.019046,4.583764 -0.209409,1.389118 -0.741778,2.460858 -1.733302,3.489407 -1.25471,1.301562 -2.593842,1.910462 -4.390852,1.996507 -0.328826,0.01575 -0.796692,0.0061 -1.039703,-0.02149 z m 1.510368,-2.985998 c 1.305325,-0.276605 2.386796,-1.323584 2.688316,-2.602575 0.108664,-0.46093 0.108664,-1.227186 0,-1.688116 -0.30152,-1.278991 -1.382991,-2.32597 -2.688316,-2.602576 -1.227461,-0.260106 -2.427849,0.102656 -3.271968,0.988801 -0.700133,0.734992 -0.970923,1.40826 -0.977096,2.429363 -0.0062,1.03255 0.27506,1.752779 0.967775,2.477835 0.855591,0.895536 2.049298,1.258335 3.281289,0.997268 z"
     id="path875"
     transform="matrix(20,0,0,20,0,96)" />
</svg>
