<?xml version="1.0" encoding="UTF-8" standalone="no"?>
<svg
   height="48"
   viewBox="0 96 960 960"
   width="48"
   version="1.1"
   id="svg12"
   sodipodi:docname="task_orange.svg"
   inkscape:version="1.2.2 (732a01da63, 2022-12-09)"
   xmlns:inkscape="http://www.inkscape.org/namespaces/inkscape"
   xmlns:sodipodi="http://sodipodi.sourceforge.net/DTD/sodipodi-0.dtd"
   xmlns="http://www.w3.org/2000/svg"
   xmlns:svg="http://www.w3.org/2000/svg">
  <defs
     id="defs16" />
  <sodipodi:namedview
     id="namedview14"
     pagecolor="#ffffff"
     bordercolor="#000000"
     borderopacity="0.25"
     inkscape:showpageshadow="2"
     inkscape:pageopacity="0.0"
     inkscape:pagecheckerboard="0"
     inkscape:deskcolor="#d1d1d1"
     showgrid="false"
     inkscape:zoom="17.5625"
     inkscape:cx="13.067616"
     inkscape:cy="24.02847"
     inkscape:window-width="2400"
     inkscape:window-height="1271"
     inkscape:window-x="2091"
     inkscape:window-y="11"
     inkscape:window-maximized="1"
     inkscape:current-layer="svg12" />
  <path
     d="M480.5 1001q-90.5 0-168.487-32.584-77.988-32.583-134.917-89.512T87.584 743.987Q55 666 55 575.5q0-89.5 32.347-167.05 32.347-77.551 89.512-134.917 57.166-57.366 135.154-90.449Q390 150 480 150q75 0 140 22.528T739 236l-70 69q-39-28-86.582-44Q534.836 245 480 245q-141.259 0-236.13 94.326Q149 433.651 149 575.826 149 718 243.817 812.5t236 94.5Q621 907 716 812.623 811 718.247 811 576q0-25.329-4-49.157-4-23.829-11-45.843l75-76q17 40 26 82.364 9 42.363 9 87.866 0 90.77-33.084 168.757-33.083 77.988-90.449 135.154T647.55 968.653Q570 1001 480.5 1001ZM419 773 243 596l65-66 111 111 421-421 67 66-488 487Z"
     id="path10" />
  <path
     style="fill:#ff0000;stroke-width:0.0569395"
     d="M 23.003559,45.201164 C 18.940716,44.990944 15.428276,43.879173 12.185053,41.776847 6.9523613,38.384905 3.6102129,32.84025 2.8940518,26.362989 2.7932476,25.451274 2.7937284,22.485162 2.894827,21.580071 3.1998477,18.849358 3.8862248,16.547199 5.1279367,14.090058 6.6841576,11.010558 9.0368495,8.337628 11.871886,6.4281541 14.947183,4.3568582 18.219475,3.1830043 21.950178,2.8128158 23.391377,2.6698092 25.661851,2.734699 27.302491,2.965784 30.38495,3.3999498 33.60338,4.6889648 36.286688,6.5640491 l 0.61409,0.4291236 -0.158574,0.1672161 c -0.08722,0.091969 -0.869085,0.8591478 -1.737488,1.7048422 l -1.578914,1.537626 -0.27162,-0.196497 C 31.786058,9.2166195 29.49199,8.2234822 27.615658,7.8086468 26.2992,7.5175929 25.718482,7.4629685 23.94306,7.4631891 c -1.760665,2.164e-4 -2.380573,0.055918 -3.74249,0.3362634 -3.170621,0.6526608 -5.981601,2.2132855 -8.271744,4.5923795 -2.5202167,2.618103 -3.9411795,5.666668 -4.388879,9.415997 -0.1295799,1.085188 -0.1295179,3.300044 1.253e-4,4.384342 0.4592654,3.841233 1.972414,6.999393 4.6111677,9.624172 3.353062,3.335305 7.383569,4.87547 12.389688,4.734434 1.806543,-0.0509 2.962659,-0.222358 4.548214,-0.674541 4.550075,-1.297631 8.597766,-5.001827 10.343008,-9.46528 0.762298,-1.949575 1.11967,-3.95219 1.123729,-6.297077 0.0029,-1.654023 -0.155006,-2.864437 -0.562493,-4.312748 l -0.148068,-0.52627 1.84218,-1.885167 1.842179,-1.885167 0.124827,0.284818 c 0.421474,0.961684 1.028407,3.026969 1.266684,4.310299 0.394863,2.12669 0.446991,4.680373 0.141799,6.946619 -0.558427,4.146681 -2.36639,8.081596 -5.159763,11.229895 -2.900218,3.268721 -7.038972,5.624566 -11.433209,6.507967 -1.723387,0.346463 -3.787314,0.503922 -5.466454,0.417039 z"
     id="path260"
     transform="matrix(20,0,0,20,0,96)" />
  <path
     style="fill:#fe5400;stroke-width:0.0569395;fill-opacity:1"
     d="m 16.559255,29.388037 -4.366011,-4.398115 1.603286,-1.606223 1.603286,-1.606223 2.734474,2.734038 c 1.50396,1.503721 2.759972,2.734038 2.791137,2.734038 0.03117,0 4.784092,-4.725438 10.56206,-10.500971 L 41.992883,6.2436099 43.641758,7.8643387 45.290633,9.4850676 33.13647,21.639331 C 26.45168,28.324176 20.969472,33.79192 20.953787,33.789873 20.938101,33.787826 18.960561,31.807 16.559255,29.388037 Z"
     id="path262"
     transform="matrix(20,0,0,20,0,96)" />
  <path
     style="fill:#fe5400;fill-opacity:1;stroke-width:0.0569395"
     d="M 22.434164,45.145156 C 16.837466,44.687415 12.096566,42.463847 8.431516,38.577659 5.4021898,35.365553 3.4369147,31.020347 2.932746,26.419929 2.8521992,25.684959 2.8518414,22.262763 2.932234,21.523132 3.394654,17.268756 5.1609669,13.190543 7.9274574,9.9897378 8.5561668,9.2623265 9.6718719,8.1661787 10.369084,7.5909103 c 1.915579,-1.580541 4.421133,-2.9539637 6.883585,-3.7732477 1.962335,-0.6528893 4.45171,-1.0564321 6.513607,-1.055895 4.066364,0.00106 7.456878,0.8706957 10.824471,2.77638 0.554218,0.3136254 1.710715,1.0549752 2.144469,1.3746695 0.120818,0.089048 0.09224,0.1210306 -1.53083,1.7135174 -0.909671,0.8925267 -1.686653,1.6419995 -1.726627,1.6654945 -0.04486,0.02637 -0.287103,-0.100341 -0.632871,-0.3310358 C 31.646257,9.1610733 29.646559,8.3007809 28.02425,7.8869 26.539302,7.5080626 26.099707,7.461851 23.97153,7.4608668 c -1.980668,-9.161e-4 -2.378249,0.030814 -3.644128,0.2908291 -2.543543,0.5224509 -4.70424,1.5143915 -6.747331,3.0975881 -0.682955,0.529224 -2.128445,1.965285 -2.691494,2.673938 -1.8034035,2.269759 -2.823602,4.680797 -3.3248226,7.857561 -0.1503868,0.95316 -0.1504891,4.284159 -1.594e-4,5.238434 0.5961242,3.784165 2.0270424,6.670088 4.560605,9.197979 2.684508,2.678497 5.767408,4.180798 9.541282,4.64948 0.801981,0.0996 3.868044,0.09952 4.669039,-1.14e-4 0.813104,-0.101148 1.879922,-0.318908 2.71776,-0.554753 5.056295,-1.42331 9.402864,-5.754588 10.853898,-10.815715 0.438743,-1.530315 0.601848,-2.668321 0.645871,-4.506342 0.04624,-1.930681 -0.09636,-3.232612 -0.522311,-4.768504 L 39.889365,19.315086 40.033829,19.1434 c 0.07945,-0.09443 0.896278,-0.939066 1.815162,-1.876976 l 1.670698,-1.705291 0.123871,0.276378 c 0.236755,0.528242 0.737614,2.122882 0.992822,3.160959 0.930971,3.786785 0.767228,7.973622 -0.458967,11.735588 -1.881699,5.773037 -6.035832,10.340054 -11.556659,12.705279 -1.98132,0.848834 -3.757249,1.323117 -6.001539,1.602783 -0.685094,0.08537 -3.541263,0.155691 -4.185053,0.103036 z"
     id="path1943"
     transform="matrix(20,0,0,20,0,96)" />
</svg>
