<svg width="91" height="67" viewBox="0 0 91 67" fill="none" xmlns="http://www.w3.org/2000/svg">
<rect width="91" height="16" rx="2" fill="#242D39"/>
<rect y="17" width="91" height="16" rx="2" fill="#242D39"/>
<rect y="34" width="91" height="16" rx="2" fill="#242D39"/>
<rect y="51" width="91" height="16" rx="2" fill="#242D39"/>
<rect x="21" y="6" width="39" height="4" fill="#96B9E7"/>
<rect x="21" y="23" width="39" height="4" fill="#96B9E7"/>
<rect x="21" y="40" width="39" height="4" fill="#96B9E7"/>
<rect x="21" y="57" width="39" height="4" fill="#96B9E7"/>
<mask id="mask0_686_908" style="mask-type:alpha" maskUnits="userSpaceOnUse" x="1" y="1" width="14" height="14">
<rect x="1" y="1" width="14" height="14" fill="#D9D9D9"/>
</mask>
<g mask="url(#mask0_686_908)">
<path d="M4.50825 12.3167C4.27866 12.3167 4.08366 12.2365 3.92324 12.0761C3.76283 11.9156 3.68262 11.7206 3.68262 11.491V4.50898C3.68262 4.27259 3.76283 4.07588 3.92324 3.91887C4.08366 3.76186 4.27866 3.68335 4.50825 3.68335H11.4903C11.7267 3.68335 11.9234 3.76186 12.0804 3.91887C12.2374 4.07588 12.316 4.27259 12.316 4.50898V11.491C12.316 11.7206 12.2374 11.9156 12.0804 12.0761C11.9234 12.2365 11.7267 12.3167 11.4903 12.3167H4.50825ZM7.99928 10.459C8.38817 10.459 8.71873 10.3229 8.99095 10.0507C9.26317 9.77843 9.39928 9.44787 9.39928 9.05899H11.8493V4.50898C11.8493 4.40429 11.8156 4.31828 11.7483 4.25098C11.681 4.18367 11.595 4.15002 11.4903 4.15002H4.50825C4.40355 4.15002 4.31755 4.18367 4.25024 4.25098C4.18294 4.31828 4.14928 4.40429 4.14928 4.50898V9.05899H6.59928C6.59928 9.44787 6.7354 9.77843 7.00762 10.0507C7.27984 10.3229 7.6104 10.459 7.99928 10.459Z" fill="#96B9E7"/>
</g>
<mask id="mask1_686_908" style="mask-type:alpha" maskUnits="userSpaceOnUse" x="1" y="18" width="14" height="14">
<rect x="1" y="18" width="14" height="14" fill="#D9D9D9"/>
</mask>
<g mask="url(#mask1_686_908)">
<path d="M3.68359 28.325V26.0186L6.62718 25L3.68359 23.9815V21.675L12.0971 25L3.68359 28.325Z" fill="#96B9E7"/>
</g>
<mask id="mask2_686_908" style="mask-type:alpha" maskUnits="userSpaceOnUse" x="1" y="35" width="14" height="14">
<rect x="1" y="35" width="14" height="14" fill="#D9D9D9"/>
</mask>
<g mask="url(#mask2_686_908)">
<path d="M3.75064 46.0834C3.46271 46.0834 3.22396 45.9886 3.03437 45.7991C2.84479 45.6095 2.75 45.3707 2.75 45.0828V39.3661C2.75 39.0782 2.84479 38.8394 3.03437 38.6499C3.22396 38.4603 3.46271 38.3655 3.75064 38.3655H7.22371L8 39.1418H12.2494C12.5373 39.1418 12.776 39.2366 12.9656 39.4261C13.1552 39.6157 13.25 39.8545 13.25 40.1424V45.0828C13.25 45.3707 13.1552 45.6095 12.9656 45.7991C12.776 45.9886 12.5373 46.0834 12.2494 46.0834H3.75064Z" fill="#96B9E7"/>
</g>
<mask id="mask3_686_908" style="mask-type:alpha" maskUnits="userSpaceOnUse" x="1" y="52" width="14" height="14">
<rect x="1" y="52" width="14" height="14" fill="#D9D9D9"/>
</mask>
<g mask="url(#mask3_686_908)">
<path d="M4.38379 60.4C4.38379 59.798 4.49597 59.2214 4.72033 58.6702C4.94469 58.1191 5.21654 57.6088 5.53587 57.1395C5.85521 56.6703 6.18876 56.2632 6.53652 55.9185C6.88428 55.5737 7.17781 55.3153 7.41712 55.1433V55.8355C7.41712 56.3066 7.57904 56.6966 7.90286 57.0055C8.22668 57.3144 8.61407 57.4688 9.06504 57.4688C9.25276 57.4688 9.42159 57.4385 9.57153 57.3779C9.72148 57.3173 9.86488 57.2426 10.0017 57.1536L10.2238 56.9853C10.6344 57.3054 10.9717 57.7844 11.2357 58.4223C11.4997 59.0602 11.6268 59.7146 11.6171 60.3855C11.6074 61.1812 11.3802 61.8851 10.9356 62.4972C10.491 63.1094 9.89181 63.5426 9.13796 63.7968C9.33839 63.6256 9.49058 63.4267 9.59453 63.2C9.69848 62.9734 9.75046 62.7401 9.75046 62.5C9.75046 62.3064 9.71699 62.1093 9.65006 61.9089C9.58313 61.7084 9.47899 61.5278 9.33765 61.367L8.00046 59.7853L6.66327 61.367C6.5294 61.5203 6.42713 61.6972 6.35646 61.8976C6.28579 62.0981 6.25046 62.2989 6.25046 62.5C6.25046 62.7498 6.30486 62.9905 6.41367 63.2219C6.52248 63.4534 6.68197 63.6548 6.89212 63.826C6.13827 63.5815 5.53175 63.1458 5.07256 62.5191C4.61338 61.8924 4.38379 61.1861 4.38379 60.4ZM8.00046 60.5414L8.9652 61.6632C9.0714 61.7791 9.15105 61.9083 9.20415 62.0508C9.25724 62.1932 9.28379 62.343 9.28379 62.5C9.28379 62.8553 9.15871 63.158 8.90855 63.4081C8.65839 63.6583 8.3557 63.7834 8.00046 63.7834C7.64522 63.7834 7.34252 63.6583 7.09237 63.4081C6.8422 63.158 6.71712 62.8553 6.71712 62.5C6.71712 62.343 6.7418 62.1951 6.79116 62.0564C6.84052 61.9177 6.92204 61.7866 7.03571 61.6632L8.00046 60.5414Z" fill="#96B9E7"/>
</g>
</svg>
