<?xml version="1.0" encoding="UTF-8"?><svg id="uuid-6d83cac9-8bba-46bc-95b3-36c1500cbe1b" xmlns="http://www.w3.org/2000/svg" xmlns:xlink="http://www.w3.org/1999/xlink" viewBox="0 0 1097.18 1795.73"><defs><style>.uuid-b8f0c0e6-9f30-4c62-a995-f6a5610ac1c2,.uuid-57e76720-9730-40aa-b951-5f4ab190bff3{fill:#0eb09d;}.uuid-57e76720-9730-40aa-b951-5f4ab190bff3{filter:url(#uuid-dde6707b-c5fe-4d28-ac1b-18d0e57e4f0a);}.uuid-79d195dc-f4a8-4b4c-945a-9444d0afd5d2{fill:#1d3d91;}.uuid-785c49a4-e83a-4d06-9c87-1240d4667dc2{clip-path:url(#uuid-b56e965b-b0be-46e4-a5ef-44cc9b061912);}</style><clipPath id="uuid-b56e965b-b0be-46e4-a5ef-44cc9b061912"><path class="uuid-b8f0c0e6-9f30-4c62-a995-f6a5610ac1c2" d="m831.93,691.3c80.25-60.19,125.85-145.91,125.85-242.57,0-226.16-171.44-357.48-454.14-357.48H100.56v1276.7h428.61c310.06,0,501.56-142.26,501.56-383.01,0-125.85-72.95-229.81-198.8-293.64Zm-282.7,401.25h-124.02V366.65h159.75c54.3,0,90.54,22.32,104.64,60.48-10.97,11.31-261.96,262.3-261.96,262.3,0,0,245.07,245.32,269.33,269.47,0,2.92,0,5.54,0,7.81,0,76.6-56.54,125.85-147.73,125.85Z"/></clipPath><filter id="uuid-dde6707b-c5fe-4d28-ac1b-18d0e57e4f0a" filterUnits="userSpaceOnUse"><feOffset dx="-9.93" dy="0"/><feGaussianBlur result="uuid-c99c3bab-5e60-4257-92eb-96d9fda5fd6b" stdDeviation="34.77"/><feFlood flood-color="#1d3d91" flood-opacity="1"/><feComposite in2="uuid-c99c3bab-5e60-4257-92eb-96d9fda5fd6b" operator="in"/><feComposite in="SourceGraphic"/></filter></defs><g><path class="uuid-b8f0c0e6-9f30-4c62-a995-f6a5610ac1c2" d="m831.93,691.3c80.25-60.19,125.85-145.91,125.85-242.57,0-226.16-171.44-357.48-454.14-357.48H100.56v1276.7h428.61c310.06,0,501.56-142.26,501.56-383.01,0-125.85-72.95-229.81-198.8-293.64Zm-282.7,401.25h-124.02V366.65h159.75c54.3,0,90.54,22.32,104.64,60.48-10.97,11.31-261.96,262.3-261.96,262.3,0,0,245.07,245.32,269.33,269.47,0,2.92,0,5.54,0,7.81,0,76.6-56.54,125.85-147.73,125.85Z"/><g class="uuid-785c49a4-e83a-4d06-9c87-1240d4667dc2"><rect class="uuid-57e76720-9730-40aa-b951-5f4ab190bff3" x="608.7" y="251.92" width="875.06" height="875.06" transform="translate(793.95 -537.86) rotate(45)"/></g></g><g><path class="uuid-79d195dc-f4a8-4b4c-945a-9444d0afd5d2" d="m104.06,1479.17h41.04v27.52c19.8-21.73,44.9-37.18,81.11-37.18,54.56,0,95.12,36.69,95.12,105.74v147.26h-41.52v-145.81c0-43.46-24.14-68.56-61.8-68.56-35.25,0-57.46,20.28-72.91,45.87v168.5h-41.04v-243.34Z"/><path class="uuid-79d195dc-f4a8-4b4c-945a-9444d0afd5d2" d="m548.71,1479.17h41.52v137.6c0,72.9-42,115.39-108.15,115.39s-107.67-42.49-107.67-115.39v-137.6h41.04v139.05c0,47.8,25.59,75.32,67.11,75.32s66.15-27.52,66.15-75.32v-139.05Z"/><path class="uuid-79d195dc-f4a8-4b4c-945a-9444d0afd5d2" d="m647.18,1479.17h41.04v26.55c18.35-21.24,42.49-36.21,76.29-36.21,35.73,0,65.18,16.41,80.14,48.77,19.31-27.52,45.87-48.77,85.94-48.77,52.14,0,90.29,34.76,90.29,100.91v152.09h-41.04v-150.64c0-40.56-22.69-63.73-57.45-63.73-30.9,0-52.14,17.87-68.56,46.35.48,5.31.96,10.63.96,15.93v152.09h-41.53v-150.64c0-40.56-21.72-63.73-56.97-63.73-33.32,0-54.08,20.76-68.08,45.87v168.5h-41.04v-243.34Z"/></g></svg>