<?xml version="1.0" encoding="UTF-8" standalone="no"?>
<!-- Created with Inkscape (http://www.inkscape.org/) -->

<svg
   width="75mm"
   height="75mm"
   viewBox="0 0 75 75"
   version="1.1"
   id="svg5"
   inkscape:version="1.1.1 (3bf5ae0d25, 2021-09-20)"
   sodipodi:docname="candeploy_dark.svg"
   xmlns:inkscape="http://www.inkscape.org/namespaces/inkscape"
   xmlns:sodipodi="http://sodipodi.sourceforge.net/DTD/sodipodi-0.dtd"
   xmlns="http://www.w3.org/2000/svg"
   xmlns:svg="http://www.w3.org/2000/svg">
  <sodipodi:namedview
     id="namedview7"
     pagecolor="#ffffff"
     bordercolor="#666666"
     borderopacity="1.0"
     inkscape:pageshadow="2"
     inkscape:pageopacity="0.0"
     inkscape:pagecheckerboard="0"
     inkscape:document-units="mm"
     showgrid="false"
     inkscape:zoom="2.096401"
     inkscape:cx="182.45555"
     inkscape:cy="166.71429"
     inkscape:window-width="1920"
     inkscape:window-height="1017"
     inkscape:window-x="1912"
     inkscape:window-y="-8"
     inkscape:window-maximized="1"
     inkscape:current-layer="layer1" />
  <defs
     id="defs2">
    <marker
       style="overflow:visible"
       id="Arrow1Lstart"
       refX="0.0"
       refY="0.0"
       orient="auto"
       inkscape:stockid="Arrow1Lstart"
       inkscape:isstock="true">
      <path
         transform="scale(0.8) translate(12.5,0)"
         style="fill-rule:evenodd;fill:context-stroke;stroke:context-stroke;stroke-width:1.0pt"
         d="M 0.0,0.0 L 5.0,-5.0 L -12.5,0.0 L 5.0,5.0 L 0.0,0.0 z "
         id="path2722" />
    </marker>
  </defs>
  <g
     inkscape:label="Calque 1"
     inkscape:groupmode="layer"
     id="layer1"
     transform="translate(-28.967145,-61.094546)">
    <rect
       style="fill:#1f2933;fill-opacity:1;stroke:none;stroke-width:1.87733;stroke-linecap:square;stroke-linejoin:miter;stroke-miterlimit:3.9;stroke-dasharray:none;stroke-opacity:1;paint-order:fill markers stroke"
       id="rect3879"
       width="58.947769"
       height="66.439018"
       x="36.278763"
       y="65.206001" />
    <rect
       style="fill:#1f2933;fill-opacity:1;stroke:none;stroke-width:2.16763;stroke-linecap:square;stroke-linejoin:miter;stroke-miterlimit:3.9;stroke-dasharray:none;stroke-opacity:1;paint-order:fill markers stroke"
       id="rect3034"
       width="15.875"
       height="66.396629"
       x="36.278763"
       y="65.206001"
       rx="0" />
    <path
       d="m 40.902213,75.765548 h 2.068981 v -3.297452 h 2.586241 v 3.297452 h 2.068982 v -5.043153 l -3.362102,-2.543121 -3.362102,2.543121 z m -0.56035,0.56035 V 70.44222 l 3.922452,-2.963398 3.922453,2.963398 v 5.883678 h -3.189683 v -3.297437 h -1.465539 v 3.297437 z m 3.922452,-4.353487 z"
       id="path3234"
       style="fill:#c7dfff;fill-opacity:1;stroke-width:0.0140088" />
    <path
       d="m 40.645892,88.856142 q -0.338403,0 -0.565109,-0.221464 -0.226707,-0.221462 -0.226707,-0.552042 V 82.92589 q 0,-0.33058 0.226707,-0.552044 0.226706,-0.221464 0.565109,-0.221464 h 7.239519 q 0.338405,0 0.565109,0.221464 0.226707,0.221464 0.226707,0.552044 v 5.156746 q 0,0.33058 -0.226707,0.552042 -0.226704,0.221464 -0.565109,0.221464 z m 3.619759,-3.296621 -3.921399,-2.504704 v 5.027819 q 0,0.128911 0.08483,0.211791 0.08483,0.08287 0.216803,0.08287 h 7.239519 q 0.131963,0 0.216804,-0.08287 0.08483,-0.08287 0.08483,-0.211791 v -5.027819 z m 0,-0.534099 3.770575,-2.394199 h -7.541148 z m -3.921399,-1.970605 v -0.423594 5.451413 q 0,0.128911 0.08483,0.211791 0.08483,0.08287 0.216803,0.08287 h -0.301639 z"
       id="path3387"
       style="fill:#c7dfff;fill-opacity:1;stroke-width:0.0121119" />
    <path
       d="m 41.000669,102.19909 q -0.34038,0 -0.56841,-0.22803 -0.228028,-0.22803 -0.228028,-0.56841 v -6.295708 q 0,-0.34038 0.228028,-0.56841 0.22803,-0.22803 0.56841,-0.22803 h 0.872292 V 93.21065 h 0.530965 v 1.099852 h 3.527108 V 93.21065 h 0.493049 v 1.099852 h 0.872294 q 0.340379,0 0.568409,0.22803 0.22803,0.22803 0.22803,0.56841 v 6.295708 q 0,0.34038 -0.22803,0.56841 -0.22803,0.22803 -0.568409,0.22803 z m 0,-0.49303 h 6.295708 q 0.113763,0 0.20859,-0.0948 0.09481,-0.0948 0.09481,-0.2086 v -4.323609 h -6.902513 v 4.323559 q 0,0.11386 0.09481,0.2086 0.09483,0.0948 0.208592,0.0948 z m -0.303402,-5.120008 h 6.902513 v -1.47911 q 0,-0.113763 -0.09481,-0.208592 -0.09483,-0.09481 -0.20859,-0.09481 h -6.295708 q -0.113763,0 -0.208592,0.09481 -0.09481,0.09483 -0.09481,0.208592 z m 0,0 V 94.80354 Z m 3.451255,2.237634 q -0.152653,0 -0.265956,-0.113316 -0.113298,-0.113297 -0.113298,-0.265943 0,-0.152654 0.113298,-0.265957 0.113297,-0.113316 0.265956,-0.113316 0.152654,0 0.265957,0.113316 0.113297,0.113298 0.113297,0.265957 0,0.152635 -0.113297,0.265943 -0.113298,0.113316 -0.265957,0.113316 z m -1.972145,0 q -0.152654,0 -0.265957,-0.113316 -0.113297,-0.113297 -0.113297,-0.265943 0,-0.152654 0.113297,-0.265957 0.113298,-0.113316 0.265957,-0.113316 0.152653,0 0.265956,0.113316 0.113298,0.113298 0.113298,0.265957 0,0.152635 -0.113298,0.265943 -0.113297,0.113316 -0.265956,0.113316 z m 3.944293,0 q -0.152654,0 -0.265957,-0.113316 -0.113297,-0.113297 -0.113297,-0.265943 0,-0.152654 0.113297,-0.265957 0.113298,-0.113316 0.265957,-0.113316 0.152653,0 0.265955,0.113316 0.113297,0.113298 0.113297,0.265957 0,0.152635 -0.113297,0.265943 -0.113298,0.113316 -0.265955,0.113316 z m -1.972148,1.896294 q -0.152653,0 -0.265956,-0.1133 -0.113298,-0.11332 -0.113298,-0.26596 0,-0.15265 0.113298,-0.26595 0.113297,-0.113318 0.265956,-0.113318 0.152654,0 0.265957,0.113318 0.113297,0.1133 0.113297,0.26595 0,0.15264 -0.113297,0.26596 -0.113298,0.1133 -0.265957,0.1133 z m -1.972145,0 q -0.152654,0 -0.265957,-0.1133 -0.113297,-0.11332 -0.113297,-0.26596 0,-0.15265 0.113297,-0.26595 0.113298,-0.113318 0.265957,-0.113318 0.152653,0 0.265956,0.113318 0.113298,0.1133 0.113298,0.26595 0,0.15264 -0.113298,0.26596 -0.113297,0.1133 -0.265956,0.1133 z m 3.944293,0 q -0.152654,0 -0.265957,-0.1133 -0.113297,-0.11332 -0.113297,-0.26596 0,-0.15265 0.113297,-0.26595 0.113298,-0.113318 0.265957,-0.113318 0.152653,0 0.265955,0.113318 0.113297,0.1133 0.113297,0.26595 0,0.15264 -0.113297,0.26596 -0.113298,0.1133 -0.265955,0.1133 z"
       id="path3540"
       style="fill:#c7dfff;fill-opacity:1;stroke-width:0.0123259" />
    <path
       d="m 41.929411,113.02989 q -0.149755,0 -0.251054,-0.10128 -0.101314,-0.10128 -0.101314,-0.25105 v -0.45808 h 5.382261 l 0.290686,0.2907 v -4.16662 h 0.458065 q 0.149754,0 0.251064,0.10128 0.101297,0.10128 0.101297,0.25105 v 5.74342 l -1.409428,-1.40942 z m -1.761794,-0.31712 v -5.39107 q 0,-0.14975 0.101296,-0.25105 0.101314,-0.10128 0.251065,-0.10128 h 5.461528 q 0.149755,0 0.251053,0.10128 0.101296,0.10128 0.101296,0.25105 v 3.62927 q 0,0.14975 -0.101296,0.25105 -0.101297,0.10128 -0.251053,0.10128 h -4.404467 z m 5.708183,-1.86751 v -3.41785 h -5.250108 v 4.0521 l 0.634235,-0.63425 z m -5.250108,0 v -3.41785 z"
       id="path3567"
       style="fill:#c7dfff;fill-opacity:1;stroke-width:0.0114516" />
    <path
       d="m 41.496012,126.46164 q -0.240665,0 -0.412038,-0.17146 -0.171386,-0.17128 -0.171386,-0.41203 0,-0.24067 0.171386,-0.41206 0.171367,-0.17145 0.412038,-0.17145 0.240666,0 0.41204,0.17145 0.171386,0.17146 0.171386,0.41206 0,0.24065 -0.171386,0.41203 -0.171367,0.17146 -0.41204,0.17146 z m 2.844184,0 q -0.240665,0 -0.412038,-0.17146 -0.171386,-0.17128 -0.171386,-0.41203 0,-0.24067 0.171386,-0.41206 0.171367,-0.17145 0.412038,-0.17145 0.240666,0 0.412041,0.17145 0.171385,0.17146 0.171385,0.41206 0,0.24065 -0.171385,0.41203 -0.171368,0.17146 -0.412041,0.17146 z m 2.844184,0 q -0.240665,0 -0.412038,-0.17146 -0.171386,-0.17128 -0.171386,-0.41203 0,-0.24067 0.171386,-0.41206 0.171368,-0.17145 0.412038,-0.17145 0.240666,0 0.412041,0.17145 0.171385,0.17146 0.171385,0.41206 0,0.24065 -0.171385,0.41203 -0.171368,0.17146 -0.412041,0.17146 z m -5.688368,-2.84418 q -0.240665,0 -0.412038,-0.17146 -0.171386,-0.17146 -0.171386,-0.41204 0,-0.24066 0.171386,-0.41205 0.171367,-0.17146 0.412038,-0.17146 0.240666,0 0.41204,0.17146 0.171386,0.17146 0.171386,0.41205 0,0.24065 -0.171386,0.41204 -0.171367,0.17146 -0.41204,0.17146 z m 2.844184,0 q -0.240665,0 -0.412038,-0.17146 -0.171386,-0.17146 -0.171386,-0.41204 0,-0.24066 0.171386,-0.41205 0.171367,-0.17146 0.412038,-0.17146 0.240666,0 0.412041,0.17146 0.171385,0.17146 0.171385,0.41205 0,0.24065 -0.171385,0.41204 -0.171368,0.17146 -0.412041,0.17146 z m 2.844184,0 q -0.240665,0 -0.412038,-0.17146 -0.171386,-0.17146 -0.171386,-0.41204 0,-0.24066 0.171386,-0.41205 0.171368,-0.17146 0.412038,-0.17146 0.240666,0 0.412041,0.17146 0.171385,0.17146 0.171385,0.41205 0,0.24065 -0.171385,0.41204 -0.171368,0.17146 -0.412041,0.17146 z m -5.688368,-2.84419 q -0.240665,0 -0.412038,-0.17146 -0.171386,-0.17145 -0.171386,-0.41203 0,-0.24067 0.171386,-0.41205 0.171367,-0.17146 0.412038,-0.17146 0.240666,0 0.41204,0.17146 0.171386,0.17127 0.171386,0.41205 0,0.24065 -0.171386,0.41203 -0.171367,0.17146 -0.41204,0.17146 z m 2.844184,0 q -0.240665,0 -0.412038,-0.17146 -0.171386,-0.17145 -0.171386,-0.41203 0,-0.24067 0.171386,-0.41205 0.171367,-0.17146 0.412038,-0.17146 0.240666,0 0.412041,0.17146 0.171385,0.17127 0.171385,0.41205 0,0.24065 -0.171385,0.41203 -0.171368,0.17146 -0.412041,0.17146 z m 2.844184,0 q -0.240665,0 -0.412038,-0.17146 -0.171386,-0.17145 -0.171386,-0.41203 0,-0.24067 0.171386,-0.41205 0.171368,-0.17146 0.412038,-0.17146 0.240666,0 0.412041,0.17146 0.171385,0.17127 0.171385,0.41205 0,0.24065 -0.171385,0.41203 -0.171368,0.17146 -0.412041,0.17146 z"
       id="path3594"
       style="fill:#c7dfff;fill-opacity:1;stroke-width:0.0118508" />
    <text
       xml:space="preserve"
       style="font-style:normal;font-weight:normal;font-size:4.23333px;line-height:1.25;font-family:sans-serif;fill:#c7dfff;fill-opacity:1;stroke:none;stroke-width:0.264583"
       x="52.87373"
       y="74.14724"
       id="text10422"><tspan
         sodipodi:role="line"
         id="tspan10420"
         style="font-size:4.23333px;fill:#c7dfff;fill-opacity:1;stroke-width:0.264583"
         x="52.87373"
         y="74.14724">Accueil</tspan></text>
    <text
       xml:space="preserve"
       style="font-style:normal;font-weight:normal;font-size:4.23333px;line-height:1.25;font-family:sans-serif;fill:#c7dfff;fill-opacity:1;stroke:none;stroke-width:0.264583"
       x="52.380318"
       y="86.804283"
       id="text10422-2"><tspan
         sodipodi:role="line"
         id="tspan10420-5"
         style="font-size:4.23333px;fill:#c7dfff;fill-opacity:1;stroke-width:0.264583"
         x="52.380318"
         y="86.804283">Messagerie Mèl</tspan></text>
    <text
       xml:space="preserve"
       style="font-style:normal;font-weight:normal;font-size:4.23333px;line-height:1.25;font-family:sans-serif;fill:#c7dfff;fill-opacity:1;stroke:none;stroke-width:0.264583"
       x="52.714813"
       y="99.353745"
       id="text10422-2-0"><tspan
         sodipodi:role="line"
         id="tspan10420-5-7"
         style="font-size:4.23333px;fill:#c7dfff;fill-opacity:1;stroke-width:0.264583"
         x="52.714813"
         y="99.353745">Agenda</tspan></text>
    <text
       xml:space="preserve"
       style="font-style:normal;font-weight:normal;font-size:4.23333px;line-height:1.25;font-family:sans-serif;fill:#c7dfff;fill-opacity:1;stroke:none;stroke-width:0.264583"
       x="52.143154"
       y="112.43687"
       id="text10422-2-0-3"><tspan
         sodipodi:role="line"
         id="tspan10420-5-7-2"
         style="font-size:4.23333px;fill:#c7dfff;fill-opacity:1;stroke-width:0.264583"
         x="52.143154"
         y="112.43687">Discussions</tspan></text>
    <text
       xml:space="preserve"
       style="font-style:normal;font-weight:normal;font-size:4.23333px;line-height:1.25;font-family:sans-serif;fill:#c7dfff;fill-opacity:1;stroke:none;stroke-width:0.264583"
       x="52.672321"
       y="124.60773"
       id="text10422-2-0-3-7"><tspan
         sodipodi:role="line"
         id="tspan10420-5-7-2-6"
         style="font-size:4.23333px;fill:#c7dfff;fill-opacity:1;stroke-width:0.264583"
         x="52.672321"
         y="124.60773">Plus d'applications</tspan></text>
  </g>
</svg>
