<svg width="91" height="67" viewBox="0 0 91 67" fill="none" xmlns="http://www.w3.org/2000/svg">
<rect width="91" height="21" rx="2" fill="#242D39"/>
<rect y="23" width="91" height="21" rx="2" fill="#242D39"/>
<rect y="46" width="91" height="21" rx="2" fill="#242D39"/>
<rect x="21" y="8" width="39" height="4" fill="#96B9E7"/>
<rect x="21" y="32" width="39" height="4" fill="#96B9E7"/>
<rect x="21" y="55" width="39" height="4" fill="#96B9E7"/>
<mask id="mask0_686_778" style="mask-type:alpha" maskUnits="userSpaceOnUse" x="1" y="2" width="16" height="16">
<rect x="1" y="2" width="16" height="16" fill="#D9D9D9"/>
</mask>
<g mask="url(#mask0_686_778)">
<path d="M5.00901 14.9333C4.74662 14.9333 4.52376 14.8417 4.34043 14.6583C4.1571 14.475 4.06543 14.2521 4.06543 13.9897V6.01023C4.06543 5.74007 4.1571 5.51526 4.34043 5.33582C4.52376 5.15637 4.74662 5.06665 5.00901 5.06665H12.9885C13.2587 5.06665 13.4835 5.15637 13.6629 5.33582C13.8424 5.51526 13.9321 5.74007 13.9321 6.01023V13.9897C13.9321 14.2521 13.8424 14.475 13.6629 14.6583C13.4835 14.8417 13.2587 14.9333 12.9885 14.9333H5.00901ZM8.99876 12.8102C9.44321 12.8102 9.82099 12.6547 10.1321 12.3436C10.4432 12.0325 10.5988 11.6547 10.5988 11.2102H13.3988V6.01023C13.3988 5.89058 13.3603 5.79229 13.2834 5.71537C13.2065 5.63844 13.1082 5.59998 12.9885 5.59998H5.00901C4.88936 5.59998 4.79107 5.63844 4.71415 5.71537C4.63722 5.79229 4.59876 5.89058 4.59876 6.01023V11.2102H7.39876C7.39876 11.6547 7.55432 12.0325 7.86543 12.3436C8.17654 12.6547 8.55432 12.8102 8.99876 12.8102Z" fill="#96B9E7"/>
</g>
<mask id="mask1_686_778" style="mask-type:alpha" maskUnits="userSpaceOnUse" x="1" y="26" width="16" height="16">
<rect x="1" y="26" width="16" height="16" fill="#D9D9D9"/>
</mask>
<g mask="url(#mask1_686_778)">
<path d="M4.06641 37.8V35.1641L7.43051 34L4.06641 32.8359V30.2L13.6818 34L4.06641 37.8Z" fill="#96B9E7"/>
</g>
<mask id="mask2_686_778" style="mask-type:alpha" maskUnits="userSpaceOnUse" x="1" y="49" width="16" height="16">
<rect x="1" y="49" width="16" height="16" fill="#D9D9D9"/>
</mask>
<g mask="url(#mask2_686_778)">
<path d="M4.14358 61.6667C3.81453 61.6667 3.54167 61.5584 3.325 61.3417C3.10833 61.125 3 60.8522 3 60.5231V53.9898C3 53.6607 3.10833 53.3879 3.325 53.1712C3.54167 52.9545 3.81453 52.8462 4.14358 52.8462H8.11282L9 53.7334H13.8564C14.1855 53.7334 14.4583 53.8417 14.675 54.0584C14.8917 54.275 15 54.5479 15 54.877V60.5231C15 60.8522 14.8917 61.125 14.675 61.3417C14.4583 61.5584 14.1855 61.6667 13.8564 61.6667H4.14358Z" fill="#96B9E7"/>
</g>
</svg>
