<svg width="91" height="67" viewBox="0 0 91 67" fill="none" xmlns="http://www.w3.org/2000/svg">
<rect width="91" height="32" rx="2" fill="#242D39"/>
<rect y="35" width="91" height="32" rx="2" fill="#242D39"/>
<rect x="30" y="14" width="39" height="4" fill="#96B9E7"/>
<rect x="30" y="49" width="39" height="4" fill="#96B9E7"/>
<mask id="mask0_686_765" style="mask-type:alpha" maskUnits="userSpaceOnUse" x="1" y="5" width="22" height="22">
<rect x="1" y="5" width="22" height="22" fill="#D9D9D9"/>
</mask>
<g mask="url(#mask0_686_765)">
<path d="M6.51129 22.7832C6.15051 22.7832 5.84408 22.6572 5.59199 22.4051C5.33991 22.153 5.21387 21.8466 5.21387 21.4858V10.514C5.21387 10.1425 5.33991 9.83339 5.59199 9.58666C5.84408 9.33992 6.15051 9.21655 6.51129 9.21655H17.4831C17.8546 9.21655 18.1637 9.33992 18.4104 9.58666C18.6572 9.83339 18.7805 10.1425 18.7805 10.514V21.4858C18.7805 21.8466 18.6572 22.153 18.4104 22.4051C18.1637 22.6572 17.8546 22.7832 17.4831 22.7832H6.51129ZM11.9972 19.864C12.6083 19.864 13.1278 19.6501 13.5555 19.2223C13.9833 18.7945 14.1972 18.2751 14.1972 17.664H18.0472V10.514C18.0472 10.3495 17.9943 10.2143 17.8886 10.1085C17.7828 10.0028 17.6476 9.94989 17.4831 9.94989H6.51129C6.34677 9.94989 6.21162 10.0028 6.10585 10.1085C6.00008 10.2143 5.9472 10.3495 5.9472 10.514V17.664H9.7972C9.7972 18.2751 10.0111 18.7945 10.4389 19.2223C10.8666 19.6501 11.3861 19.864 11.9972 19.864Z" fill="#96B9E7"/>
</g>
<mask id="mask1_686_765" style="mask-type:alpha" maskUnits="userSpaceOnUse" x="2" y="40" width="22" height="22">
<rect x="2" y="40" width="22" height="22" fill="#D9D9D9"/>
</mask>
<g mask="url(#mask1_686_765)">
<path d="M6.21484 56.2247V52.6003L10.8405 50.9997L6.21484 49.399V45.7747L19.436 50.9997L6.21484 56.2247Z" fill="#96B9E7"/>
</g>
</svg>
