<svg width="91" height="83" viewBox="0 0 91 83" fill="none" xmlns="http://www.w3.org/2000/svg">
<rect y="1" width="91" height="12" rx="2" fill="#242D39"/>
<rect y="14" width="91" height="12" rx="2" fill="#242D39"/>
<rect y="29" width="91" height="12" rx="2" fill="#242D39"/>
<rect y="57" width="91" height="12" rx="2" fill="#242D39"/>
<rect y="42" width="91" height="12" rx="2" fill="#242D39"/>
<rect y="70" width="91" height="12" rx="2" fill="#242D39"/>
<rect x="20" y="5" width="39" height="4" fill="#96B9E7"/>
<rect x="20" y="18" width="39" height="4" fill="#96B9E7"/>
<rect x="20" y="33" width="39" height="4" fill="#96B9E7"/>
<rect x="20" y="61" width="39" height="4" fill="#96B9E7"/>
<rect x="20" y="46" width="39" height="4" fill="#96B9E7"/>
<rect x="20" y="74" width="39" height="4" fill="#96B9E7"/>
<mask id="mask0_686_871" style="mask-type:alpha" maskUnits="userSpaceOnUse" x="1" y="0" width="14" height="14">
<rect x="1" width="14" height="14" fill="#D9D9D9"/>
</mask>
<g mask="url(#mask0_686_871)">
<path d="M4.50728 11.3166C4.27769 11.3166 4.08268 11.2364 3.92227 11.0759C3.76185 10.9155 3.68164 10.7205 3.68164 10.4909V3.50886C3.68164 3.27247 3.76185 3.07576 3.92227 2.91875C4.08268 2.76173 4.27769 2.68323 4.50728 2.68323H11.4893C11.7257 2.68323 11.9224 2.76173 12.0795 2.91875C12.2365 3.07576 12.315 3.27247 12.315 3.50886V10.4909C12.315 10.7205 12.2365 10.9155 12.0795 11.0759C11.9224 11.2364 11.7257 11.3166 11.4893 11.3166H4.50728ZM7.99831 9.45886C8.3872 9.45886 8.71775 9.32275 8.98997 9.05053C9.2622 8.77831 9.39831 8.44775 9.39831 8.05886H11.8483V3.50886C11.8483 3.40416 11.8147 3.31816 11.7473 3.25085C11.68 3.18355 11.594 3.14989 11.4893 3.14989H4.50728C4.40258 3.14989 4.31657 3.18355 4.24927 3.25085C4.18196 3.31816 4.14831 3.40416 4.14831 3.50886V8.05886H6.59831C6.59831 8.44775 6.73442 8.77831 7.00664 9.05053C7.27886 9.32275 7.60942 9.45886 7.99831 9.45886Z" fill="#96B9E7"/>
</g>
<mask id="mask1_686_871" style="mask-type:alpha" maskUnits="userSpaceOnUse" x="1" y="13" width="14" height="14">
<rect x="1" y="13" width="14" height="14" fill="#D9D9D9"/>
</mask>
<g mask="url(#mask1_686_871)">
<path d="M4.50728 24.3166C4.27769 24.3166 4.08268 24.2364 3.92227 24.0759C3.76185 23.9155 3.68164 23.7205 3.68164 23.4909V16.5089C3.68164 16.2725 3.76185 16.0758 3.92227 15.9187C4.08268 15.7617 4.27769 15.6832 4.50728 15.6832H11.4893C11.7257 15.6832 11.9224 15.7617 12.0795 15.9187C12.2365 16.0758 12.315 16.2725 12.315 16.5089V23.4909C12.315 23.7205 12.2365 23.9155 12.0795 24.0759C11.9224 24.2364 11.7257 24.3166 11.4893 24.3166H4.50728ZM7.99831 22.4589C8.3872 22.4589 8.71775 22.3228 8.98997 22.0505C9.2622 21.7783 9.39831 21.4478 9.39831 21.0589H11.8483V16.5089C11.8483 16.4042 11.8147 16.3182 11.7473 16.2509C11.68 16.1835 11.594 16.1499 11.4893 16.1499H4.50728C4.40258 16.1499 4.31657 16.1835 4.24927 16.2509C4.18196 16.3182 4.14831 16.4042 4.14831 16.5089V21.0589H6.59831C6.59831 21.4478 6.73442 21.7783 7.00664 22.0505C7.27886 22.3228 7.60942 22.4589 7.99831 22.4589Z" fill="#96B9E7"/>
</g>
<mask id="mask2_686_871" style="mask-type:alpha" maskUnits="userSpaceOnUse" x="1" y="28" width="14" height="14">
<rect x="1" y="28" width="14" height="14" fill="#D9D9D9"/>
</mask>
<g mask="url(#mask2_686_871)">
<path d="M3.75064 39.0833C3.46271 39.0833 3.22396 38.9885 3.03437 38.7989C2.84479 38.6094 2.75 38.3706 2.75 38.0827V32.366C2.75 32.0781 2.84479 31.8393 3.03437 31.6497C3.22396 31.4601 3.46271 31.3654 3.75064 31.3654H7.22371L8 32.1416H12.2494C12.5373 32.1416 12.776 32.2364 12.9656 32.426C13.1552 32.6156 13.25 32.8544 13.25 33.1423V38.0827C13.25 38.3706 13.1552 38.6094 12.9656 38.7989C12.776 38.9885 12.5373 39.0833 12.2494 39.0833H3.75064Z" fill="#96B9E7"/>
</g>
<mask id="mask3_686_871" style="mask-type:alpha" maskUnits="userSpaceOnUse" x="1" y="41" width="14" height="14">
<rect x="1" y="41" width="14" height="14" fill="#D9D9D9"/>
</mask>
<g mask="url(#mask3_686_871)">
<path d="M3.75064 52.0833C3.46271 52.0833 3.22396 51.9885 3.03437 51.7989C2.84479 51.6094 2.75 51.3706 2.75 51.0827V45.366C2.75 45.0781 2.84479 44.8393 3.03437 44.6497C3.22396 44.4601 3.46271 44.3654 3.75064 44.3654H7.22371L8 45.1416H12.2494C12.5373 45.1416 12.776 45.2364 12.9656 45.426C13.1552 45.6156 13.25 45.8544 13.25 46.1423V51.0827C13.25 51.3706 13.1552 51.6094 12.9656 51.7989C12.776 51.9885 12.5373 52.0833 12.2494 52.0833H3.75064Z" fill="#96B9E7"/>
</g>
<mask id="mask4_686_871" style="mask-type:alpha" maskUnits="userSpaceOnUse" x="1" y="56" width="14" height="14">
<rect x="1" y="56" width="14" height="14" fill="#D9D9D9"/>
</mask>
<g mask="url(#mask4_686_871)">
<path d="M3.68359 66.325V64.0186L6.62718 63L3.68359 61.9815V59.675L12.0971 63L3.68359 66.325Z" fill="#96B9E7"/>
</g>
<mask id="mask5_686_871" style="mask-type:alpha" maskUnits="userSpaceOnUse" x="1" y="69" width="14" height="14">
<rect x="1" y="69" width="14" height="14" fill="#D9D9D9"/>
</mask>
<g mask="url(#mask5_686_871)">
<path d="M3.68359 79.325V77.0186L6.62718 76L3.68359 74.9815V72.675L12.0971 76L3.68359 79.325Z" fill="#96B9E7"/>
</g>
</svg>
