<svg width="91" height="81" viewBox="0 0 91 81" fill="none" xmlns="http://www.w3.org/2000/svg">
<rect width="91" height="14" rx="2" fill="#242D39"/>
<rect y="41" width="91" height="14" rx="2" fill="#242D39"/>
<rect x="15" y="15" width="76" height="12" rx="2" fill="#242D39"/>
<rect x="15" y="56" width="76" height="12" rx="2" fill="#242D39"/>
<rect x="30" y="28" width="61" height="12" rx="2" fill="#242D39"/>
<rect x="30" y="69" width="61" height="12" rx="2" fill="#242D39"/>
<rect x="18" y="5" width="39" height="4" fill="#96B9E7"/>
<rect x="20" y="46" width="39" height="4" fill="#96B9E7"/>
<rect x="34" y="20" width="39" height="4" fill="#96B9E7"/>
<rect x="34" y="61" width="39" height="4" fill="#96B9E7"/>
<rect x="50" y="32" width="35" height="4" fill="#96B9E7"/>
<rect x="50" y="73" width="35" height="4" fill="#96B9E7"/>
<mask id="mask0_686_797" style="mask-type:alpha" maskUnits="userSpaceOnUse" x="1" y="0" width="14" height="14">
<rect x="1" width="14" height="14" fill="#D9D9D9"/>
</mask>
<g mask="url(#mask0_686_797)">
<path d="M4.50728 11.3166C4.27769 11.3166 4.08268 11.2364 3.92227 11.0759C3.76185 10.9155 3.68164 10.7205 3.68164 10.4909V3.50886C3.68164 3.27247 3.76185 3.07576 3.92227 2.91875C4.08268 2.76173 4.27769 2.68323 4.50728 2.68323H11.4893C11.7257 2.68323 11.9224 2.76173 12.0795 2.91875C12.2365 3.07576 12.315 3.27247 12.315 3.50886V10.4909C12.315 10.7205 12.2365 10.9155 12.0795 11.0759C11.9224 11.2364 11.7257 11.3166 11.4893 11.3166H4.50728ZM7.99831 9.45886C8.3872 9.45886 8.71775 9.32275 8.98997 9.05053C9.2622 8.77831 9.39831 8.44775 9.39831 8.05886H11.8483V3.50886C11.8483 3.40416 11.8147 3.31816 11.7473 3.25085C11.68 3.18355 11.594 3.14989 11.4893 3.14989H4.50728C4.40258 3.14989 4.31657 3.18355 4.24927 3.25085C4.18196 3.31816 4.14831 3.40416 4.14831 3.50886V8.05886H6.59831C6.59831 8.44775 6.73442 8.77831 7.00664 9.05053C7.27886 9.32275 7.60942 9.45886 7.99831 9.45886Z" fill="#96B9E7"/>
</g>
<mask id="mask1_686_797" style="mask-type:alpha" maskUnits="userSpaceOnUse" x="1" y="41" width="14" height="14">
<rect x="1" y="41" width="14" height="14" fill="#D9D9D9"/>
</mask>
<g mask="url(#mask1_686_797)">
<path d="M4.50728 52.3166C4.27769 52.3166 4.08268 52.2364 3.92227 52.0759C3.76185 51.9155 3.68164 51.7205 3.68164 51.4909V44.5089C3.68164 44.2725 3.76185 44.0758 3.92227 43.9187C4.08268 43.7617 4.27769 43.6832 4.50728 43.6832H11.4893C11.7257 43.6832 11.9224 43.7617 12.0795 43.9187C12.2365 44.0758 12.315 44.2725 12.315 44.5089V51.4909C12.315 51.7205 12.2365 51.9155 12.0795 52.0759C11.9224 52.2364 11.7257 52.3166 11.4893 52.3166H4.50728ZM7.99831 50.4589C8.3872 50.4589 8.71775 50.3228 8.98997 50.0505C9.2622 49.7783 9.39831 49.4478 9.39831 49.0589H11.8483V44.5089C11.8483 44.4042 11.8147 44.3182 11.7473 44.2509C11.68 44.1835 11.594 44.1499 11.4893 44.1499H4.50728C4.40258 44.1499 4.31657 44.1835 4.24927 44.2509C4.18196 44.3182 4.14831 44.4042 4.14831 44.5089V49.0589H6.59831C6.59831 49.4478 6.73442 49.7783 7.00664 50.0505C7.27886 50.3228 7.60942 50.4589 7.99831 50.4589Z" fill="#96B9E7"/>
</g>
<mask id="mask2_686_797" style="mask-type:alpha" maskUnits="userSpaceOnUse" x="17" y="15" width="12" height="12">
<rect x="17" y="15" width="12" height="12" fill="#D9D9D9"/>
</mask>
<g mask="url(#mask2_686_797)">
<path d="M19.3577 24.5C19.1109 24.5 18.9063 24.4188 18.7438 24.2563C18.5812 24.0938 18.5 23.8891 18.5 23.6423V18.7423C18.5 18.4955 18.5812 18.2909 18.7438 18.1284C18.9063 17.9659 19.1109 17.8846 19.3577 17.8846H22.3346L23 18.55H26.6423C26.8891 18.55 27.0938 18.6313 27.2563 18.7938C27.4188 18.9563 27.5 19.1609 27.5 19.4077V23.6423C27.5 23.8891 27.4188 24.0938 27.2563 24.2563C27.0938 24.4188 26.8891 24.5 26.6423 24.5H19.3577Z" fill="#96B9E7"/>
</g>
<mask id="mask3_686_797" style="mask-type:alpha" maskUnits="userSpaceOnUse" x="17" y="56" width="12" height="12">
<rect x="17" y="56" width="12" height="12" fill="#D9D9D9"/>
</mask>
<g mask="url(#mask3_686_797)">
<path d="M19.3577 65.5C19.1109 65.5 18.9063 65.4188 18.7438 65.2563C18.5812 65.0938 18.5 64.8891 18.5 64.6423V59.7423C18.5 59.4955 18.5812 59.2909 18.7438 59.1284C18.9063 58.9659 19.1109 58.8846 19.3577 58.8846H22.3346L23 59.55H26.6423C26.8891 59.55 27.0938 59.6313 27.2563 59.7938C27.4188 59.9563 27.5 60.1609 27.5 60.4077V64.6423C27.5 64.8891 27.4188 65.0938 27.2563 65.2563C27.0938 65.4188 26.8891 65.5 26.6423 65.5H19.3577Z" fill="#96B9E7"/>
</g>
<mask id="mask4_686_797" style="mask-type:alpha" maskUnits="userSpaceOnUse" x="33" y="28" width="12" height="12">
<rect x="33" y="28" width="12" height="12" fill="#D9D9D9"/>
</mask>
<g mask="url(#mask4_686_797)">
<path d="M35.3577 37.5C35.1109 37.5 34.9063 37.4188 34.7438 37.2563C34.5812 37.0938 34.5 36.8891 34.5 36.6423V31.7423C34.5 31.4955 34.5812 31.2909 34.7438 31.1284C34.9063 30.9659 35.1109 30.8846 35.3577 30.8846H38.3346L39 31.55H42.6423C42.8891 31.55 43.0938 31.6313 43.2563 31.7938C43.4188 31.9563 43.5 32.1609 43.5 32.4077V36.6423C43.5 36.8891 43.4188 37.0938 43.2563 37.2563C43.0938 37.4188 42.8891 37.5 42.6423 37.5H35.3577Z" fill="#96B9E7"/>
</g>
<mask id="mask5_686_797" style="mask-type:alpha" maskUnits="userSpaceOnUse" x="33" y="69" width="12" height="12">
<rect x="33" y="69" width="12" height="12" fill="#D9D9D9"/>
</mask>
<g mask="url(#mask5_686_797)">
<path d="M35.3577 78.5C35.1109 78.5 34.9063 78.4188 34.7438 78.2563C34.5812 78.0938 34.5 77.8891 34.5 77.6423V72.7423C34.5 72.4955 34.5812 72.2909 34.7438 72.1284C34.9063 71.9659 35.1109 71.8846 35.3577 71.8846H38.3346L39 72.55H42.6423C42.8891 72.55 43.0938 72.6313 43.2563 72.7938C43.4188 72.9563 43.5 73.1609 43.5 73.4077V77.6423C43.5 77.8891 43.4188 78.0938 43.2563 78.2563C43.0938 78.4188 42.8891 78.5 42.6423 78.5H35.3577Z" fill="#96B9E7"/>
</g>
</svg>
