<?xml version="1.0" encoding="UTF-8" standalone="no"?>
<svg
   width="165"
   height="103"
   viewBox="0 0 165 103"
   fill="none"
   version="1.1"
   id="svg942"
   sodipodi:docname="icon_grey.svg"
   inkscape:version="1.1.1 (3bf5ae0d25, 2021-09-20)"
   xmlns:inkscape="http://www.inkscape.org/namespaces/inkscape"
   xmlns:sodipodi="http://sodipodi.sourceforge.net/DTD/sodipodi-0.dtd"
   xmlns="http://www.w3.org/2000/svg"
   xmlns:svg="http://www.w3.org/2000/svg">
  <defs
     id="defs946" />
  <sodipodi:namedview
     id="namedview944"
     pagecolor="#ffffff"
     bordercolor="#666666"
     borderopacity="1.0"
     inkscape:pageshadow="2"
     inkscape:pageopacity="0.0"
     inkscape:pagecheckerboard="0"
     showgrid="false"
     inkscape:zoom="3.5"
     inkscape:cx="44.714286"
     inkscape:cy="24.142857"
     inkscape:window-width="1920"
     inkscape:window-height="1017"
     inkscape:window-x="-8"
     inkscape:window-y="-8"
     inkscape:window-maximized="1"
     inkscape:current-layer="svg942" />
  <path
     d="M160 0H5C2.23858 0 0 2.23858 0 5V98C0 100.761 2.23857 103 5 103H160C162.761 103 165 100.761 165 98V5C165 2.23858 162.761 0 160 0Z"
     fill="white"
     id="path886" />
  <path
     d="M8.28233 5.30292C8.79091 5.30292 9.28807 5.44644 9.71094 5.71538C10.1338 5.98432 10.4634 6.36657 10.658 6.8138C10.8526 7.26102 10.9036 7.75314 10.8043 8.22791C10.7051 8.70269 10.4602 9.1388 10.1006 9.4811C9.74094 9.82339 9.28284 10.0565 8.78404 10.1509C8.28523 10.2454 7.7682 10.1969 7.29833 10.0117C6.82846 9.82642 6.42686 9.51271 6.14431 9.11022C5.86176 8.70772 5.71094 8.23451 5.71094 7.75044C5.71094 7.10132 5.98185 6.47878 6.46409 6.01978C6.94633 5.56078 7.60034 5.30292 8.28233 5.30292Z"
     fill="#FA5F5D"
     id="path888" />
  <path
     d="M17.0675 5.30292C17.5761 5.30292 18.0733 5.44644 18.4962 5.71538C18.919 5.98432 19.2486 6.36657 19.4432 6.8138C19.6378 7.26102 19.6888 7.75314 19.5896 8.22791C19.4903 8.70269 19.2454 9.1388 18.8858 9.4811C18.5262 9.82339 18.0679 10.0565 17.5691 10.1509C17.0703 10.2454 16.5534 10.1969 16.0835 10.0117C15.6136 9.82642 15.212 9.51271 14.9294 9.11022C14.6468 8.70772 14.4961 8.23451 14.4961 7.75044C14.4961 7.42903 14.5625 7.11074 14.6918 6.8138C14.821 6.51685 15.0104 6.24706 15.2492 6.01978C15.488 5.79251 15.7715 5.61222 16.0835 5.48922C16.3955 5.36622 16.7299 5.30292 17.0675 5.30292Z"
     fill="#FDBC4E"
     id="path890" />
  <path
     d="M26.2814 5.30292C26.79 5.30292 27.2872 5.44644 27.71 5.71538C28.1329 5.98432 28.4625 6.36657 28.6571 6.8138C28.8517 7.26102 28.9027 7.75314 28.8034 8.22791C28.7042 8.70269 28.4593 9.1388 28.0997 9.4811C27.74 9.82339 27.2818 10.0565 26.783 10.1509C26.2842 10.2454 25.7672 10.1969 25.2974 10.0117C24.8275 9.82642 24.4258 9.51271 24.1433 9.11022C23.8607 8.70772 23.71 8.23451 23.71 7.75044C23.71 7.10132 23.9808 6.47878 24.463 6.01978C24.9453 5.56078 25.5994 5.30292 26.2814 5.30292Z"
     fill="#37CD58"
     id="path892" />
  <path
     d="M147.026 30.9261H72.6888C72.0355 30.9261 71.5059 31.4302 71.5059 32.0521V71.6849C71.5059 72.3068 72.0355 72.8109 72.6888 72.8109H147.026C147.679 72.8109 148.209 72.3068 148.209 71.6849V32.0521C148.209 31.4302 147.679 30.9261 147.026 30.9261Z"
     fill="white"
     id="path894" />
  <path
     d="M68.666 30.7307H34.3252V72.931H68.666V30.7307Z"
     fill="#F0F0F0"
     id="path896" />
  <path
     d="M148.235 17.5334H34.459V28.2753H148.235V17.5334Z"
     fill="#F0F0F0"
     id="path898" />
  <path
     d="M31.3557 17.471H16.1934V72.8653H31.3557V17.471Z"
     fill="#F0F0F0"
     id="path900"
     style="fill:#797676;fill-opacity:1" />
  <path
     d="M68.0688 76.2438H35.134C34.7844 76.2438 34.501 76.5136 34.501 76.8464V77.2481C34.501 77.5808 34.7844 77.8506 35.134 77.8506H68.0688C68.4184 77.8506 68.7019 77.5808 68.7019 77.2481V76.8464C68.7019 76.5136 68.4184 76.2438 68.0688 76.2438Z"
     fill="#E9EDFB"
     id="path902" />
  <path
     d="M68.0688 79.8237H35.134C34.7844 79.8237 34.501 80.0935 34.501 80.4262V80.8279C34.501 81.1607 34.7844 81.4305 35.134 81.4305H68.0688C68.4184 81.4305 68.7019 81.1607 68.7019 80.8279V80.4262C68.7019 80.0935 68.4184 79.8237 68.0688 79.8237Z"
     fill="#E9EDFB"
     id="path904" />
  <path
     d="M68.0688 83.4682H35.134C34.7844 83.4682 34.501 83.738 34.501 84.0708V84.4724C34.501 84.8052 34.7844 85.075 35.134 85.075H68.0688C68.4184 85.075 68.7019 84.8052 68.7019 84.4724V84.0708C68.7019 83.738 68.4184 83.4682 68.0688 83.4682Z"
     fill="#E9EDFB"
     id="path906" />
  <path
     d="M67.827 87.1249H35.3759C34.8927 87.1249 34.501 87.4977 34.501 87.9576V88.5127C34.501 88.9726 34.8927 89.3455 35.3759 89.3455H67.827C68.3102 89.3455 68.7019 88.9726 68.7019 88.5127V87.9576C68.7019 87.4977 68.3102 87.1249 67.827 87.1249Z"
     fill="#E9EDFB"
     id="path908" />
  <path
     d="M46.3841 91.6189H35.134C34.7844 91.6189 34.501 91.8887 34.501 92.2214V92.6231C34.501 92.9559 34.7844 93.2257 35.134 93.2257H46.3841C46.7337 93.2257 47.0172 92.9559 47.0172 92.6231V92.2214C47.0172 91.8887 46.7337 91.6189 46.3841 91.6189Z"
     fill="#E9EDFB"
     id="path910" />
  <path
     d="M68.0688 76.2438H35.134C34.7844 76.2438 34.501 76.5136 34.501 76.8464V77.2481C34.501 77.5808 34.7844 77.8506 35.134 77.8506H68.0688C68.4184 77.8506 68.7019 77.5808 68.7019 77.2481V76.8464C68.7019 76.5136 68.4184 76.2438 68.0688 76.2438Z"
     fill="#E9EDFB"
     id="path912"
     style="fill:#f0f0f0;fill-opacity:1" />
  <path
     d="M68.0688 79.8237H35.134C34.7844 79.8237 34.501 80.0935 34.501 80.4262V80.8279C34.501 81.1607 34.7844 81.4305 35.134 81.4305H68.0688C68.4184 81.4305 68.7019 81.1607 68.7019 80.8279V80.4262C68.7019 80.0935 68.4184 79.8237 68.0688 79.8237Z"
     fill="#E9EDFB"
     id="path914"
     style="fill:#f0f0f0;fill-opacity:1" />
  <path
     d="M68.0688 83.4682H35.134C34.7844 83.4682 34.501 83.738 34.501 84.0708V84.4724C34.501 84.8052 34.7844 85.075 35.134 85.075H68.0688C68.4184 85.075 68.7019 84.8052 68.7019 84.4724V84.0708C68.7019 83.738 68.4184 83.4682 68.0688 83.4682Z"
     fill="#E9EDFB"
     id="path916"
     style="fill:#f0f0f0;fill-opacity:1" />
  <path
     d="M67.827 87.1249H35.3759C34.8927 87.1249 34.501 87.4977 34.501 87.9576V88.5127C34.501 88.9726 34.8927 89.3455 35.3759 89.3455H67.827C68.3102 89.3455 68.7019 88.9726 68.7019 88.5127V87.9576C68.7019 87.4977 68.3102 87.1249 67.827 87.1249Z"
     fill="#E9EDFB"
     id="path918"
     style="fill:#f0f0f0;fill-opacity:1" />
  <path
     d="M46.3841 91.6189H35.134C34.7844 91.6189 34.501 91.8887 34.501 92.2214V92.6231C34.501 92.9559 34.7844 93.2257 35.134 93.2257H46.3841C46.7337 93.2257 47.0172 92.9559 47.0172 92.6231V92.2214C47.0172 91.8887 46.7337 91.6189 46.3841 91.6189Z"
     fill="#E9EDFB"
     id="path920"
     style="fill:#f0f0f0;fill-opacity:1" />
  <path
     d="M106.44 76.2438H73.5051C73.1555 76.2438 72.8721 76.5136 72.8721 76.8464V77.2481C72.8721 77.5808 73.1555 77.8506 73.5051 77.8506H106.44C106.79 77.8506 107.073 77.5808 107.073 77.2481V76.8464C107.073 76.5136 106.79 76.2438 106.44 76.2438Z"
     fill="#E9EDFB"
     id="path922"
     style="fill:#f0f0f0;fill-opacity:1" />
  <path
     d="M106.44 79.8237H73.5051C73.1555 79.8237 72.8721 80.0935 72.8721 80.4262V80.8279C72.8721 81.1607 73.1555 81.4305 73.5051 81.4305H106.44C106.79 81.4305 107.073 81.1607 107.073 80.8279V80.4262C107.073 80.0935 106.79 79.8237 106.44 79.8237Z"
     fill="#E9EDFB"
     id="path924"
     style="fill:#f0f0f0;fill-opacity:1" />
  <path
     d="M106.44 83.4682H73.5051C73.1555 83.4682 72.8721 83.738 72.8721 84.0708V84.4724C72.8721 84.8052 73.1555 85.075 73.5051 85.075H106.44C106.79 85.075 107.073 84.8052 107.073 84.4724V84.0708C107.073 83.738 106.79 83.4682 106.44 83.4682Z"
     fill="#E9EDFB"
     id="path926"
     style="fill:#f0f0f0;fill-opacity:1" />
  <path
     d="M106.198 87.1249H73.7469C73.2638 87.1249 72.8721 87.4977 72.8721 87.9576V88.5127C72.8721 88.9726 73.2638 89.3455 73.7469 89.3455H106.198C106.681 89.3455 107.073 88.9726 107.073 88.5127V87.9576C107.073 87.4977 106.681 87.1249 106.198 87.1249Z"
     fill="#E9EDFB"
     id="path928"
     style="fill:#f0f0f0;fill-opacity:1" />
  <path
     d="M84.7552 91.6189H73.5051C73.1555 91.6189 72.8721 91.8887 72.8721 92.2214V92.6231C72.8721 92.9559 73.1555 93.2257 73.5051 93.2257H84.7552C85.1048 93.2257 85.3883 92.9559 85.3883 92.6231V92.2214C85.3883 91.8887 85.1048 91.6189 84.7552 91.6189Z"
     fill="#E9EDFB"
     id="path930"
     style="fill:#f0f0f0;fill-opacity:1" />
  <path
     d="M147.23 76.2438H114.295C113.946 76.2438 113.662 76.5136 113.662 76.8464V77.2481C113.662 77.5808 113.946 77.8506 114.295 77.8506H147.23C147.58 77.8506 147.863 77.5808 147.863 77.2481V76.8464C147.863 76.5136 147.58 76.2438 147.23 76.2438Z"
     fill="#E9EDFB"
     id="path932"
     style="fill:#f0f0f0;fill-opacity:1" />
  <path
     d="M147.23 79.8237H114.295C113.946 79.8237 113.662 80.0935 113.662 80.4262V80.8279C113.662 81.1607 113.946 81.4305 114.295 81.4305H147.23C147.58 81.4305 147.863 81.1607 147.863 80.8279V80.4262C147.863 80.0935 147.58 79.8237 147.23 79.8237Z"
     fill="#E9EDFB"
     id="path934"
     style="fill:#f0f0f0;fill-opacity:1" />
  <path
     d="M147.23 83.4682H114.295C113.946 83.4682 113.662 83.738 113.662 84.0708V84.4724C113.662 84.8052 113.946 85.075 114.295 85.075H147.23C147.58 85.075 147.863 84.8052 147.863 84.4724V84.0708C147.863 83.738 147.58 83.4682 147.23 83.4682Z"
     fill="#E9EDFB"
     id="path936"
     style="fill:#f0f0f0;fill-opacity:1" />
  <path
     d="M146.988 87.1249H114.537C114.054 87.1249 113.662 87.4977 113.662 87.9576V88.5127C113.662 88.9726 114.054 89.3455 114.537 89.3455H146.988C147.471 89.3455 147.863 88.9726 147.863 88.5127V87.9576C147.863 87.4977 147.471 87.1249 146.988 87.1249Z"
     fill="#E9EDFB"
     id="path938"
     style="fill:#f0f0f0;fill-opacity:1" />
  <path
     d="M125.545 91.6189H114.295C113.946 91.6189 113.662 91.8887 113.662 92.2214V92.6231C113.662 92.9559 113.946 93.2257 114.295 93.2257H125.545C125.895 93.2257 126.178 92.9559 126.178 92.6231V92.2214C126.178 91.8887 125.895 91.6189 125.545 91.6189Z"
     fill="#E9EDFB"
     id="path940"
     style="fill:#f0f0f0;fill-opacity:1" />
</svg>
